<svg width="288" height="254" viewBox="0 0 288 254" fill="none" xmlns="http://www.w3.org/2000/svg">
<g clip-path="url(#clip0_379_1078)">
<path d="M72.4001 102.4C72.4001 106.1 72.8001 109.1 73.5001 111.3C74.3001 113.5 75.3001 115.9 76.7001 118.5C77.2001 119.3 77.4001 120.1 77.4001 120.8C77.4001 121.8 76.8001 122.8 75.5001 123.8L69.2001 128C68.3001 128.6 67.4001 128.9 66.6001 128.9C65.6001 128.9 64.6001 128.4 63.6001 127.5C62.2001 126 61.0001 124.4 60.0001 122.8C59.0001 121.1 58.0001 119.2 56.9001 116.9C49.1001 126.1 39.3001 130.7 27.5001 130.7C19.1001 130.7 12.4001 128.3 7.50009 123.5C2.60009 118.7 0.100098 112.3 0.100098 104.3C0.100098 95.8 3.10009 88.9 9.20009 83.7C15.3001 78.5 23.4001 75.9 33.7001 75.9C37.1001 75.9 40.6001 76.2 44.3001 76.7C48.0001 77.2 51.8001 78 55.8001 78.9V71.6C55.8001 64 54.2001 58.7 51.1001 55.6C47.9001 52.5 42.5001 51 34.8001 51C31.3001 51 27.7001 51.4 24.0001 52.3C20.3001 53.2 16.7001 54.3 13.2001 55.7C11.6001 56.4 10.4001 56.8 9.70009 57C9.00009 57.2 8.5001 57.3 8.1001 57.3C6.7001 57.3 6.00009 56.3 6.00009 54.2V49.3C6.00009 47.7 6.20009 46.5 6.70009 45.8C7.20009 45.1 8.10009 44.4 9.50009 43.7C13.0001 41.9 17.2001 40.4 22.1001 39.2C27.0001 37.9 32.2001 37.3 37.7001 37.3C49.6001 37.3 58.3001 40 63.9001 45.4C69.4001 50.8 72.2001 59 72.2001 70V102.4H72.4001ZM31.8001 117.6C35.1001 117.6 38.5001 117 42.1001 115.8C45.7001 114.6 48.9001 112.4 51.6001 109.4C53.2001 107.5 54.4001 105.4 55.0001 103C55.6001 100.6 56.0001 97.7 56.0001 94.3V90.1C53.1001 89.4 50.0001 88.8 46.8001 88.4C43.6001 88 40.5001 87.8 37.4001 87.8C30.7001 87.8 25.8001 89.1 22.5001 91.8C19.2001 94.5 17.6001 98.3 17.6001 103.3C17.6001 108 18.8001 111.5 21.3001 113.9C23.7001 116.4 27.2001 117.6 31.8001 117.6ZM112.1 128.4C110.3 128.4 109.1 128.1 108.3 127.4C107.5 126.8 106.8 125.4 106.2 123.5L82.7001 46.2C82.1001 44.2 81.8001 42.9 81.8001 42.2C81.8001 40.6 82.6001 39.7 84.2001 39.7H94.0001C95.9001 39.7 97.2001 40 97.9001 40.7C98.7001 41.3 99.3001 42.7 99.9001 44.6L116.7 110.8L132.3 44.6C132.8 42.6 133.4 41.3 134.2 40.7C135 40.1 136.4 39.7 138.2 39.7H146.2C148.1 39.7 149.4 40 150.2 40.7C151 41.3 151.7 42.7 152.1 44.6L167.9 111.6L185.2 44.6C185.8 42.6 186.5 41.3 187.2 40.7C188 40.1 189.3 39.7 191.1 39.7H200.4C202 39.7 202.9 40.5 202.9 42.2C202.9 42.7 202.8 43.2 202.7 43.8C202.6 44.4 202.4 45.2 202 46.3L177.9 123.6C177.3 125.6 176.6 126.9 175.8 127.5C175 128.1 173.7 128.5 172 128.5H163.4C161.5 128.5 160.2 128.2 159.4 127.5C158.6 126.8 157.9 125.5 157.5 123.5L142 59L126.6 123.4C126.1 125.4 125.5 126.7 124.7 127.4C123.9 128.1 122.5 128.4 120.7 128.4H112.1ZM240.6 131.1C235.4 131.1 230.2 130.5 225.2 129.3C220.2 128.1 216.3 126.8 213.7 125.3C212.1 124.4 211 123.4 210.6 122.5C210.2 121.6 210 120.6 210 119.7V114.6C210 112.5 210.8 111.5 212.3 111.5C212.9 111.5 213.5 111.6 214.1 111.8C214.7 112 215.6 112.4 216.6 112.8C220 114.3 223.7 115.5 227.6 116.3C231.6 117.1 235.5 117.5 239.5 117.5C245.8 117.5 250.7 116.4 254.1 114.2C257.5 112 259.3 108.8 259.3 104.7C259.3 101.9 258.4 99.6 256.6 97.7C254.8 95.8 251.4 94.1 246.5 92.5L232 88C224.7 85.7 219.3 82.3 216 77.8C212.7 73.4 211 68.5 211 63.3C211 59.1 211.9 55.4 213.7 52.2C215.5 49 217.9 46.2 220.9 44C223.9 41.7 227.3 40 231.3 38.8C235.3 37.6 239.5 37.1 243.9 37.1C246.1 37.1 248.4 37.2 250.6 37.5C252.9 37.8 255 38.2 257.1 38.6C259.1 39.1 261 39.6 262.8 40.2C264.6 40.8 266 41.4 267 42C268.4 42.8 269.4 43.6 270 44.5C270.6 45.3 270.9 46.4 270.9 47.8V52.5C270.9 54.6 270.1 55.7 268.6 55.7C267.8 55.7 266.5 55.3 264.8 54.5C259.1 51.9 252.7 50.6 245.6 50.6C239.9 50.6 235.4 51.5 232.3 53.4C229.2 55.3 227.6 58.2 227.6 62.3C227.6 65.1 228.6 67.5 230.6 69.4C232.6 71.3 236.3 73.2 241.6 74.9L255.8 79.4C263 81.7 268.2 84.9 271.3 89C274.4 93.1 275.9 97.8 275.9 103C275.9 107.3 275 111.2 273.3 114.6C271.5 118 269.1 121 266 123.4C262.9 125.9 259.2 127.7 254.9 129C250.4 130.4 245.7 131.1 240.6 131.1Z" fill="#252F3E"/>
<path fill-rule="evenodd" clip-rule="evenodd" d="M259.5 179.7C226.6 204 178.8 216.9 137.7 216.9C80.1 216.9 28.2 195.6 -11 160.2C-14.1 157.4 -11.3 153.6 -7.60002 155.8C34.8 180.4 87.1 195.3 141.2 195.3C177.7 195.3 217.8 187.7 254.7 172.1C260.2 169.6 264.9 175.7 259.5 179.7Z" fill="#FF9900"/>
<path fill-rule="evenodd" clip-rule="evenodd" d="M273.2 164.1C269 158.7 245.4 161.5 234.7 162.8C231.5 163.2 231 160.4 233.9 158.3C252.7 145.1 283.6 148.9 287.2 153.3C290.8 157.8 286.2 188.7 268.6 203.5C265.9 205.8 263.3 204.6 264.5 201.6C268.5 191.7 277.4 169.4 273.2 164.1Z" fill="#FF9900"/>
</g>
<defs>
<clipPath id="clip0_379_1078">
<rect width="288" height="254" fill="white"/>
</clipPath>
</defs>
</svg>
