<svg width="162" height="35" viewBox="0 0 162 35" fill="none" xmlns="http://www.w3.org/2000/svg">
<g clip-path="url(#clip0_322_720)">
<path d="M144.238 12.1274C146.654 12.1274 148.88 13.9181 148.88 16.4698C148.88 19.2005 146.932 21.1254 144.238 21.1254C141.544 21.1254 139.596 19.2005 139.596 16.4698C139.596 13.9181 141.822 12.1274 144.238 12.1274ZM61.0654 12.1274C63.4811 12.1274 65.7077 13.9181 65.7077 16.4698C65.7077 19.2005 63.7597 21.1254 61.0654 21.1254C58.3716 21.1254 56.4232 19.2005 56.4232 16.4698C56.4232 13.9181 58.6496 12.1274 61.0654 12.1274ZM74.0686 12.1834C74.77 12.1834 75.4157 12.3401 76.0614 12.6086V15.2387C75.6158 14.6344 74.8922 14.3098 74.1464 14.3098C72.8106 14.3098 71.9086 15.3394 71.9086 16.6488C71.9086 17.9806 72.8214 18.9431 74.18 18.9431C74.8922 18.9431 75.605 18.5962 76.0614 18.0478V20.6778C75.3378 20.9016 74.8143 21.0695 74.1351 21.0695C72.9664 21.0695 71.8529 20.6218 70.9849 19.8272C70.0606 18.9878 69.6377 17.8911 69.6377 16.6376C69.6377 15.4849 70.072 14.3769 70.8735 13.5488C71.6971 12.6982 72.8885 12.1834 74.0686 12.1834ZM155.415 12.4072L159.411 17.5665H159.434V12.4072H161.616V20.8457H159.434L155.437 15.6752H155.415V20.8457H153.233V12.4072H155.415ZM128.808 12.4072L130.511 16.9174L132.315 12.4072H134.485L135.755 20.8457H133.573L132.96 15.9885H132.938L130.923 20.8457H130.055L128.129 15.9885H128.107L127.405 20.8457H125.234L126.659 12.4072H128.808ZM121.049 12.4072V14.265H118.454V15.6752H120.915V17.533H118.454V18.9878H121.049V20.8457H116.273V12.4072H121.049ZM109.092 12.4072L112.253 20.8457H109.927L109.381 19.3796H106.375L105.797 20.8457H103.481L106.71 12.4072H109.092ZM95.6214 12.4072C97.9593 12.4072 99.8851 14.2538 99.8851 16.6265C99.8851 18.999 97.9479 20.8457 95.6214 20.8457H92.5263V12.4072H95.6214ZM82.9302 12.4072V15.8878H82.9524L85.591 12.4072H88.2961L84.9561 16.4026L88.5968 20.8457H85.7689L82.9524 17.186H82.9302V20.8457H80.7481V12.4072H82.9302ZM50.1778 12.4072V18.9878H52.794V20.8457H47.9958V12.4072H50.1778ZM40.2363 12.4072C41.7281 12.4072 42.73 12.9892 42.73 14.6008C42.73 15.3618 42.4851 15.9773 41.806 16.3243V16.3466C43.0083 16.5033 43.5204 17.3203 43.5204 18.4954C43.5204 20.2637 42.0175 20.8457 40.4812 20.8457H37.1191V12.4072H40.2363ZM41.3162 18.2716C41.3162 17.2532 40.2363 17.3539 39.5238 17.3539H39.3011V19.1669L39.785 19.1669C40.4325 19.164 41.3162 19.1076 41.3162 18.2716ZM144.238 14.2538C142.935 14.2538 141.866 15.317 141.866 16.4809C141.866 17.9358 142.935 18.999 144.238 18.999C145.54 18.999 146.609 17.9358 146.609 16.4809C146.609 15.317 145.54 14.2538 144.238 14.2538ZM61.0654 14.2538C59.7631 14.2538 58.6945 15.317 58.6945 16.4809C58.6945 17.9358 59.7631 18.999 61.0654 18.999C62.3682 18.999 63.4368 17.9358 63.4368 16.4809C63.4368 15.317 62.3682 14.2538 61.0654 14.2538ZM95.2206 14.265H94.7085V18.9878H95.1985C96.5007 18.9878 97.6143 18.2716 97.6143 16.6265C97.6143 15.1156 96.6235 14.265 95.2206 14.265ZM107.9 15.0149H107.878L106.977 17.7008H108.791L107.9 15.0149ZM39.457 14.086H39.3011V15.7199H39.5461C40.125 15.7199 40.7261 15.6192 40.7261 14.9029C40.7261 14.1307 40.047 14.086 39.457 14.086Z" fill="#211B4E"/>
<path d="M8.71892 7.66676L12.7171 5.34621L16.8172 7.72597L25.4284 0.718374V12.724V27.4795L12.7171 34.8572L0.0056539 27.4795V14.904L0 14.9073V0.571533L8.71892 7.66676ZM2.22813 16.1221V26.1895L12.7171 32.2773L23.206 26.1895V16.2792L12.7067 22.4864L2.22813 16.1221ZM2.65091 13.7686L12.722 19.8854L22.9271 13.8521L12.7171 7.92611L2.65091 13.7686ZM19.1078 8.73653L23.206 11.1533V5.40151C21.8399 6.51316 20.4738 7.62482 19.1078 8.73653ZM2.22248 11.0064L6.32068 8.58963L2.22248 5.25467C2.22248 7.17188 2.22248 9.08914 2.22248 11.0064Z" fill="#211B4E"/>
</g>
<defs>
<clipPath id="clip0_322_720">
<rect width="162" height="35" fill="white"/>
</clipPath>
</defs>
</svg>
