<svg width="1124" height="240" viewBox="0 0 1124 240" fill="none" xmlns="http://www.w3.org/2000/svg">
<g clip-path="url(#clip0_413_1477)">
<path d="M350.579 35.777C337.45 35.777 324.791 37.4195 319.633 38.8272C312.133 40.9378 310.256 44.2212 308.849 51.0229L279.078 188.473C278.608 191.288 278.139 193.634 278.139 195.98C278.139 202.788 282.594 207.237 289.86 207.237C297.832 207.237 301.114 202.078 302.755 194.104L311.193 154.933C317.054 155.636 324.791 156.339 335.81 156.339C384.338 156.339 414.577 130.07 414.577 90.4289C414.579 55.714 390.431 35.777 350.579 35.777ZM334.638 133.82C327.136 133.82 321.275 133.586 315.882 132.882L331.59 59.9353C336.513 59.2306 343.78 58.2927 351.283 58.2927C377.07 58.2927 390.198 70.4902 390.198 90.6621C390.198 116.465 371.444 133.821 334.631 133.821L334.638 133.82Z" fill="black"/>
<path d="M1114.35 161.969C1110.37 161.969 1107.79 164.315 1102.86 169.709C1094.19 178.623 1088.8 183.547 1082 183.547C1075.9 183.547 1072.62 178.623 1072.62 170.647C1072.62 166.191 1073.56 160.797 1074.73 154.933L1083.41 114.119H1109.44C1117.64 114.119 1122.57 109.428 1122.57 100.984C1122.57 96.2927 1119.52 92.7744 1112.49 92.7744H1088.09L1092.31 73.7753C1092.78 70.9617 1093.25 68.3812 1093.25 66.0357C1093.25 59.4672 1088.8 54.7761 1081.53 54.7761C1073.79 54.7761 1070.28 59.937 1068.64 67.9114L1063.24 92.7744H1052.23C1043.79 92.7744 1038.86 97.4655 1038.86 105.91C1038.86 110.601 1042.15 114.119 1049.18 114.119H1058.79L1050.11 154.46C1049.18 158.916 1048 166.187 1048 173.694C1048 192.693 1057.85 206.531 1078.95 206.531C1091.14 206.531 1101.92 200.432 1110.13 193.161C1118.1 186.124 1123.96 177.447 1123.96 171.816C1123.96 166.425 1119.75 161.969 1114.35 161.969Z" fill="black"/>
<path d="M575.161 49.617C575.161 42.8085 570.472 38.3574 563.204 38.3574C555.469 38.3574 551.952 43.5183 550.311 51.4927L521.007 187.77C520.303 190.586 519.835 192.931 519.835 195.277C519.835 202.085 524.524 206.534 531.556 206.534C539.527 206.534 543.043 201.374 544.685 193.399L573.994 57.1217C574.458 54.3081 575.161 51.9625 575.161 49.617Z" fill="black"/>
<path d="M993.618 90.4289C956.109 90.4289 930.555 127.724 930.555 163.142C930.555 163.806 930.572 164.461 930.593 165.115C924.71 174.051 917.194 183.314 912.036 183.314C908.284 183.314 906.878 179.796 906.878 174.4C906.878 167.833 908.749 156.808 910.864 147.191L930.322 57.1217C930.79 54.3081 931.26 51.9625 931.26 49.617C931.26 42.8085 926.806 38.3574 919.538 38.3574C911.568 38.3574 908.284 43.5183 906.644 51.4927L896.097 100.281C890.468 94.417 882.256 90.4289 869.837 90.4289C844.926 90.4289 819.872 109.617 810.107 139.042C799.353 166.858 789.743 183.314 782.161 183.314C779.349 183.314 777.707 180.968 777.707 176.98C777.707 165.253 784.27 136.64 787.084 122.798C788.021 117.637 788.491 115.527 788.491 112.477C788.491 102.157 771.377 89.9591 749.106 89.9591C723.354 89.9591 700.029 106.276 688.331 130.529C670.963 161.239 655.023 183.319 647.131 183.319C643.615 183.319 642.442 178.861 641.505 174.638L635.644 142.269L671.513 112.95C674.795 110.134 679.014 106.141 679.014 100.987C679.014 94.6553 674.795 90.434 668.466 90.434C663.777 90.434 659.79 93.2493 655.807 96.5327L601.894 141.093L619.945 57.1217C620.415 54.3081 621.118 51.9625 621.118 49.617C621.118 42.8085 616.429 38.3574 609.161 38.3574C601.426 38.3574 597.909 43.5183 596.268 51.4927L566.964 187.77C566.262 190.586 565.792 192.931 565.792 195.277C565.792 202.085 570.481 206.534 577.513 206.534C585.484 206.534 589 201.374 590.642 193.399L594.393 175.808L616.429 157.981L621.822 185.19C623.931 195.98 629.557 206.534 644.093 206.534C658.553 206.534 669.927 193.321 681.324 175.467C684.783 194.167 698.078 206.534 716.531 206.534C735.05 206.534 747.709 195.51 755.914 180.734V181.202C755.914 196.449 763.651 206.534 777.248 206.534C789.541 206.534 799.753 199.118 808.875 183.35C814.049 197.091 825.612 206.534 841.709 206.534C860.698 206.534 874.294 195.042 882.969 179.091V180.499C882.969 197.387 891.408 206.541 905.239 206.541C917.451 206.541 927.835 199.45 936.688 187.898C943.427 199.438 955.502 206.541 971.818 206.541C1009.33 206.541 1034.88 169.248 1034.88 133.595C1034.88 108.49 1019.64 90.4289 993.618 90.4289ZM759.892 138.043C753.087 167.362 738.558 184.015 722.148 184.015C711.129 184.015 705.034 175.571 705.034 162.909C705.034 138.046 723.086 111.306 747.224 111.306C754.49 111.306 760.118 113.418 765.041 116.466L759.892 138.043ZM890.468 125.617C882.967 160.097 865.852 184.022 847.098 184.022C836.784 184.022 830.688 176.048 830.688 162.916C830.688 137.818 848.041 111.782 871.245 111.782C880.153 111.782 886.951 114.831 891.874 118.819L890.468 125.617ZM974.632 184.017C961.036 184.017 955.408 174.165 955.408 161.734C955.408 138.982 971.114 112.946 990.808 112.946C1004.4 112.946 1010.03 122.798 1010.03 135.229C1010.03 158.216 994.322 184.017 974.632 184.017Z" fill="black"/>
<path d="M472.951 90.429C435.441 90.429 409.888 127.724 409.888 163.142C409.888 188.473 425.126 206.534 451.148 206.534C488.657 206.534 514.211 169.241 514.211 133.588C514.211 108.49 498.969 90.429 472.951 90.429ZM453.962 184.017C440.364 184.017 434.738 174.165 434.738 161.734C434.738 138.982 450.445 112.946 470.137 112.946C483.735 112.946 489.361 122.798 489.361 135.229C489.361 158.216 473.654 184.017 453.962 184.017Z" fill="black"/>
<path d="M115.003 50.337C138.893 50.337 158.26 39.0622 158.26 25.154C158.26 11.2459 138.893 -0.0289307 115.003 -0.0289307C91.1125 -0.0289307 71.7456 11.2459 71.7456 25.154C71.7456 39.0622 91.1125 50.337 115.003 50.337Z" fill="#E6007A"/>
<path d="M115.003 240.017C138.893 240.017 158.26 228.742 158.26 214.834C158.26 200.926 138.893 189.651 115.003 189.651C91.1125 189.651 71.7456 200.926 71.7456 214.834C71.7456 228.742 91.1125 240.017 115.003 240.017Z" fill="#E6007A"/>
<path d="M54.7114 85.1664C66.6565 64.4659 66.5809 42.0474 54.5424 35.0933C42.504 28.1392 23.0614 39.2829 11.1163 59.9834C-0.828785 80.6839 -0.753111 103.102 11.2853 110.056C23.3238 117.011 42.7663 105.867 54.7114 85.1664Z" fill="#E6007A"/>
<path d="M218.891 180.006C230.836 159.306 230.76 136.887 218.722 129.933C206.683 122.979 187.241 134.123 175.296 154.823C163.35 175.524 163.426 197.942 175.465 204.896C187.503 211.85 206.946 200.707 218.891 180.006Z" fill="#E6007A"/>
<path d="M54.5424 204.895C66.5809 197.941 66.6565 175.523 54.7114 154.822C42.7663 134.122 23.3238 122.978 11.2853 129.932C-0.753115 136.886 -0.828774 159.305 11.1163 180.005C23.0614 200.706 42.504 211.849 54.5424 204.895Z" fill="#E6007A"/>
<path d="M218.721 110.057C230.759 103.103 230.835 80.6848 218.89 59.9843C206.945 39.2838 187.502 28.1401 175.464 35.0942C163.425 42.0483 163.349 64.4667 175.295 85.1673C187.24 105.868 206.682 117.011 218.721 110.057Z" fill="#E6007A"/>
</g>
<defs>
<clipPath id="clip0_413_1477">
<rect width="1124" height="240" fill="white"/>
</clipPath>
</defs>
</svg>
