<svg width="600" height="322" viewBox="0 0 600 322" fill="none" xmlns="http://www.w3.org/2000/svg">
<g clip-path="url(#clip0_489_1884)">
<path d="M23.8 130.2C26.8 130.2 29.9 130.2 32.9 130.2C32.9 132 32.9 133.2 32.9 134.5C21.9 134.5 11 134.5 0 134.5C0 133.3 0 131.5 0 130.2C3 130.2 6.1 130.2 9.1 130.2C9.1 129 9.1 128.4 9.1 127.8C9.1 109.5 9.1 91.9001 9.1 73.6001C9.1 71.8001 8.5 71.2001 6.7 71.2001C4.3 71.2001 2.4 71.2001 0 71.2001C0 69.4001 0 68.2001 0 66.3001C0.6 66.3001 1.2 66.3001 1.8 66.3001C12.8 66.3001 23.7 66.3001 35.3 66.3001C39.6 66.3001 43.8 66.9001 47.5 68.1001C55.4 71.1001 60.3 78.4001 59.7 87.0001C59.1 95.5001 53.6 101.6 45.1 103.4C39 104.6 32.9 104.6 27.5 104.6C24.5 104.6 23.2 105.2 23.2 107.6C23.2 114.3 23.2 120.4 23.2 127.1C23.8 127.8 23.8 129 23.8 130.2ZM23.2 70.6001C23.2 80.9001 23.2 90.7001 23.2 99.8001C27.5 99.8001 31.7 100.4 36 99.8001C41.5 99.2001 43.3 96.8001 43.9 91.3001C43.9 87.0001 43.9 83.4001 43.9 79.1001C43.3 74.8001 40.9 72.4001 36.6 71.8001C32.3 71.2001 28.1 71.2001 23.2 70.6001ZM134 189.8C135.2 188.6 137 186.8 139.5 184.9C140.1 184.3 141.3 183.7 141.9 184.3C142.5 184.3 143.1 186.1 143.1 186.7C143.1 194 143.1 201.3 143.1 208.6C143.1 209.8 143.1 211 140.7 211C138.9 211 137.7 211 137 208.6C136.4 205.6 135.8 201.9 134 198.9C131 192.2 126.1 187.9 118.2 188.6C110.3 188.6 103.6 191.6 99.3 199.6C98.1 201.4 97.5 203.9 96.9 206.3C95.7 216 95.1 225.8 97.5 235.5C99.9 245.8 109.1 251.9 120 250.7C129.1 249.5 136.4 242.2 137 231.8C137 230 138.2 229.4 140 229.4C141.8 229.4 141.8 230.6 141.8 232.4C141.2 242.7 133.3 251.9 122.9 254.9C111.9 257.3 94.9 254.3 86.4 240.3C80.9 231.2 79.7 221.4 82.1 211.1C86.4 189.2 108.3 181.9 122.3 185.5C126.7 186.1 130.3 188 134 189.8ZM371.9 68.1001C371.9 69.3001 371.9 70.5001 371.9 72.4001C369.5 72.4001 367.6 72.4001 365.2 72.4001C363.4 72.4001 362.8 73.0001 362.8 74.8001C362.8 81.5001 362.8 88.8001 362.8 95.5001C362.8 96.7001 362.8 97.9001 364.6 97.9001C371.9 97.9001 379.2 97.9001 386.5 97.9001C386.5 89.4001 386.5 81.5001 386.5 72.3001C383.5 72.3001 380.4 72.3001 377.4 72.3001C377.4 70.5001 377.4 69.3001 377.4 68.0001C387.7 68.0001 398.7 68.0001 409 68.0001C409 69.2001 409 70.4001 409 72.3001C406.6 72.3001 404.7 72.3001 402.3 72.3001C400.5 72.3001 399.9 72.9001 399.9 74.7001C399.9 92.3001 399.9 110.6 399.9 128.3C399.9 130.1 400.5 130.7 402.3 130.1C404.1 130.1 406 130.1 407.2 130.1C409 130.1 409 131.3 409 132.5C409 134.3 408.4 134.3 407.2 134.3C397.5 134.3 387.7 134.3 378 134.3H377.4C376.2 130 376.8 130 380.4 130C381.6 130 383.4 130 384.7 130H385.3C385.3 129.4 385.3 128.8 385.3 128.2C385.3 120.3 385.3 113 385.3 105.1C385.3 103.3 384.7 102.1 382.3 102.7C376.2 102.7 370.1 102.7 363.4 102.7C361.6 102.7 361 103.3 361 105.1C361 113 361 120.3 361 128.2C361 130 361.6 130.6 363.4 130.6C364.6 130.6 365.8 130.6 366.4 130.6C370.1 130.6 370.1 130.6 370.1 134.9C359.8 134.9 348.8 134.9 338.5 134.9C338.5 133.7 338.5 132.5 338.5 130.6C340.3 130.6 342.8 130.6 345.2 130.6C347 130.6 347.6 130 347.6 128.2C347.6 110.6 347.6 92.9001 347.6 74.6001C347.6 72.8001 347 72.2001 345.2 72.2001C343.4 72.2001 340.9 72.2001 338.5 72.2001C338.5 71.0001 338.5 69.8001 338.5 67.9001C350.6 68.1001 360.9 68.1001 371.9 68.1001ZM71.9 101C72.5 90.0001 74.9 80.9001 83.5 73.0001C96.3 61.4001 125.5 62.7001 132.8 87.6001C135.8 97.9001 135.8 108.3 131 118C125.5 130.2 112.7 136.9 98.7 135C85.3 133.2 75.6 124 73.1 110.7C72.5 107.7 71.9 104.6 71.9 101ZM87.1 100.4C87.1 104.1 87.1 107.7 87.7 111.4C88.3 118.1 90.1 123.6 95 128.4C99.9 133.3 107.8 133.3 112 128.4C114.4 125.4 116.9 121.7 118.1 118.1C120.5 109.6 120.5 101.1 119.3 92.5001C118.7 88.2001 118.1 84.0001 116.3 80.3001C113.9 74.8001 109.6 71.2001 102.9 71.2001C96.8 71.2001 92.6 74.9001 90.1 80.3001C86.5 85.8001 87.1 93.1001 87.1 100.4ZM530.1 72.4001C530.1 70.6001 530.1 70.0001 530.1 68.1001C531.3 68.1001 532.5 68.1001 534.4 68.1001C539.3 68.1001 544.7 68.1001 549.6 68.1001C552 68.1001 553.9 68.7001 555.1 71.1001C564.8 84.5001 574.6 97.9001 584.3 111.3C584.3 110.7 584.3 111.3 585.5 111.9C585.5 110.7 586.1 110.1 586.1 109.5C586.1 98.5001 586.1 87.0001 586.1 76.0001C586.1 73.6001 585.5 72.3001 583.1 72.3001C581.3 72.3001 579.5 72.3001 577 71.7001C577 70.5001 577 69.3001 577 67.4001C584.9 67.4001 592.2 67.4001 600.1 67.4001C600.1 68.6001 600.1 69.8001 600.1 71.7001C597.7 71.7001 596.5 72.3001 594.6 72.3001C592.2 72.3001 590.9 73.5001 590.9 76.6001C590.9 94.9001 590.9 113.1 590.9 131.4C590.9 132.6 590.3 134.4 589.1 134.4C587.9 134.4 586.7 133.8 585.4 133.2C584.8 133.2 584.8 132.6 584.8 132C573.8 116.8 562.9 101.6 551.3 86.4001C549.5 83.4001 547 80.9001 544.6 77.3001C544.6 78.5001 544.6 79.7001 544.6 80.3001C544.6 95.5001 544.6 110.7 544.6 125.9C544.6 128.9 545.2 130.2 548.2 130.2C548.8 130.2 549.4 130.2 550 130.2C553.6 130.2 553.6 130.2 553.6 134.5C545.7 134.5 538.4 134.5 530.5 134.5C529.3 130.8 529.3 130.2 533.5 130.2C539 129.6 539 129.6 539 124.1C539 107.7 539 91.2001 539 75.4001C539 73.0001 538.4 71.7001 536 72.4001C533.8 72.4001 531.9 72.4001 530.1 72.4001ZM251.4 249.4C254.4 249.4 256.3 249.4 258.7 249.4C260.5 249.4 260.5 250.6 260.5 251.8C260.5 253 260.5 254.2 258.7 254.2C249 254.2 239.8 254.2 230.1 254.2C228.3 254.2 228.3 253.6 228.3 251.8C228.3 250.6 228.3 249.4 230.1 249.4C232.5 249.4 234.4 249.4 237.4 249.4C237.4 248.2 237.4 247 237.4 246.4C237.4 229.4 237.4 212.3 237.4 195.3C237.4 192.9 236.8 191.6 234.4 191.6C233.2 191.6 232 191.6 230.7 191.6C228.9 191.6 228.3 191 228.3 189.2C228.3 187.4 228.9 186.8 230.7 186.8C242.3 186.8 253.8 186.8 265.4 186.8C272.7 186.8 280 189.2 283.7 195.9C290.4 206.9 284.3 220.2 271.5 222.7C266 223.9 259.9 223.9 254.5 223.9C252.1 223.9 251.5 224.5 251.5 226.9C251.4 234.8 251.4 241.5 251.4 249.4ZM250.8 205.6C250.8 209.9 250.8 213.5 250.8 217.8C250.8 219 250.8 220.2 252.6 220.2C256.3 220.2 259.9 220.2 263.6 219.6C268.5 219 270.9 216.6 270.9 211.7C270.9 207.4 270.9 203.2 270.9 198.9C270.3 194 268.5 191.6 263.6 191C259.9 190.4 256.9 191 253.3 190.4C251.5 190.4 250.9 191 250.9 192.8C250.8 197.7 250.8 202 250.8 205.6ZM357.9 192.2C354.2 192.8 350 192.8 346.9 194C343.9 194.6 342 197 341.4 200.1C340.8 202.5 340.2 205.6 340.2 208C339.6 211.7 339.6 211.7 335.3 211C335.3 209.2 335.3 208 335.3 206.1C335.9 200.6 336.5 195.1 336.5 189.7C336.5 188.5 336.5 187.3 338.3 187.3C356.6 187.3 374.2 187.3 392.5 187.3C392.5 187.3 393.1 187.3 393.7 187.9C394.3 195.2 394.9 203.1 395.5 210.4C391.2 211.6 391.2 211.6 390.6 207.4C390 205.6 389.4 203.7 389.4 201.3C388.2 195.8 384.5 192.8 379.1 192.8C376.7 192.8 374.8 192.8 372.4 192.8C372.4 211.7 372.4 230.5 372.4 249.4C376.7 249.4 380.9 249.4 385.2 249.4C385.2 251.2 385.2 252.4 385.2 253.7C371.8 253.7 359 253.7 345.6 253.7C345.6 252.5 345.6 251.3 345.6 249.4C349.9 249.4 354.1 249.4 358.4 249.4C357.9 230.6 357.9 211.7 357.9 192.2ZM483.3 134.5C473 134.5 463.2 134.5 453.5 134.5C452.3 130.2 452.9 130.2 456.5 130.2C457.7 130.2 458.9 130.2 460.8 130.2C459 125.9 457.8 121.7 456.5 118C456.5 117.4 455.3 117.4 454.7 117.4C448.6 117.4 442.5 117.4 436.4 117.4C435.8 117.4 434.6 118 434.6 118.6C433.4 122.3 432.2 125.9 430.9 129.6C432.7 129.6 433.9 130.2 435.2 130.2C438.9 130.2 438.9 131.4 438.2 134.5C430.9 134.5 424.2 134.5 416.9 134.5C416.3 130.2 416.3 130.2 419.9 130.2C423.6 130.2 425.4 129 426.6 125.3C432.7 107 439.4 88.8001 446.1 69.9001C446.7 68.1001 447.3 66.2001 449.8 66.2001C452.2 66.2001 453.5 67.4001 454.1 69.9001C459 84.5001 464.4 99.1001 469.3 113.7C471.1 118.6 473 123.4 474.2 128.3C474.8 130.1 476 130.7 477.9 130.7C478.5 130.7 479.1 130.7 479.7 130.7C483.9 130.2 483.9 130.2 483.3 134.5ZM455.3 111.9C452.3 103.4 449.2 95.5001 446.8 86.9001H446.2C443.2 94.8001 440.7 103.3 437.7 111.2C443.1 111.9 448.6 111.9 455.3 111.9ZM190.6 249.4C193.6 249.4 196.1 249.4 198.5 249.4C196.7 245.1 195.5 240.9 194.2 237.2C194.2 236.6 193 236 192.4 236C186.3 236 180.2 236 174.1 236C173.5 236 172.3 236.6 171.7 237.2C170.5 240.9 169.3 243.9 168 248.2C170.4 248.8 172.9 248.8 175.3 249.4C175.3 250.6 175.3 251.8 175.3 253.7C168 253.7 161.3 253.7 154 253.7C152.8 249.4 152.8 249.4 157 249.4C161.9 249.4 161.9 249.4 163.7 244.5C170.4 226.2 176.5 208 183.2 189.1C183.8 187.3 184.4 185.4 187.5 185.4C190.5 185.4 191.2 187.2 191.8 189.1C198.5 208 205.2 227.4 211.9 246.3C212.5 248.7 213.7 249.3 216.2 249.3C217.4 249.3 218 249.3 219.2 249.3C221 249.3 221 250.5 221 251.7C221 252.9 220.4 254.1 219.2 254.1C210.7 254.1 201.6 254.1 193 254.1C189.3 253.7 191.2 251.3 190.6 249.4ZM174.1 231.2C180.2 231.2 186.3 231.2 192.4 231.2C189.4 222.7 186.3 214.8 183.9 206.2H183.3C180.2 214.8 177.2 222.7 174.1 231.2ZM430.9 253.7C430.9 252.5 430.9 251.3 430.9 249.4C433.3 249.4 435.8 249.4 438.8 249.4C437 245.1 435.8 241.5 434.5 237.2C434.5 236.6 433.3 236 432.1 236C426 236 420.5 236 414.5 236C413.9 236 412.7 236.6 412.1 237.8C410.9 240.8 409.7 244.5 408.4 248.8C410.8 249.4 413.3 249.4 415.7 250C415.7 251.2 415.7 252.4 415.7 254.3C408.4 254.3 401.1 254.3 394.4 254.3C393.2 250.6 393.2 250 397.4 250C402.3 250 402.3 250 404.1 245.1C410.8 226.8 416.9 208.6 423.6 190.3C424.2 188.5 424.8 186.6 427.9 186.6C430.9 186.6 431.6 188.4 432.2 190.3C438.9 209.2 445.6 228.6 452.3 247.5C452.9 249.3 454.1 250.5 456 249.9C456.6 249.9 457.8 249.9 458.4 249.9C460.2 249.9 461.4 249.9 461.4 252.3C461.4 254.7 460.2 254.7 458.4 254.7C449.9 254.7 441.4 254.7 433.4 254.7C432.8 253.7 432.2 253.7 430.9 253.7ZM424.3 206.8H423.7C420.7 214.7 418.2 223.2 415.2 231.1C421.3 231.1 427.4 231.1 433.5 231.1C429.7 222.7 426.7 214.8 424.3 206.8ZM233.1 101C238.6 91.3001 243.4 82.7001 248.9 73.0001C246.5 72.4001 244.6 72.4001 242.2 71.8001C242.2 70.6001 242.2 69.4001 242.2 67.5001C249.5 67.5001 256.2 67.5001 263.5 67.5001C263.5 68.7001 263.5 69.9001 263.5 71.2001L262.9 71.8001C256.8 71.2001 253.8 74.2001 251.3 79.1001C247 88.2001 241.6 96.7001 236.7 105.3C236.1 106.5 235.5 107.7 235.5 109C235.5 115.1 235.5 121.2 235.5 127.3C235.5 129.1 236.1 129.7 237.9 129.7C239.1 129.7 240.3 129.7 240.9 129.7C244.6 129.7 244.6 129.7 243.9 134C233.6 134 223.2 134 212.9 134C212.9 132.8 212.9 131.6 212.9 129.7C215.3 129.7 217.8 129.7 219.6 129.7C220.8 129.7 222 129.1 222 127.9C222 121.8 222 115.1 222 109C222 107.8 221.4 107.2 220.8 106C214.7 95.0001 208.6 84.7001 202.5 74.4001C201.3 73.2001 199.5 72.6001 198.2 72.6001C196.4 72.0001 194.5 72.6001 192.7 72.6001C192.7 71.4001 192.7 70.2001 192.7 68.3001C203 68.3001 212.8 68.3001 223.1 68.3001C223.1 69.5001 223.1 70.7001 223.1 72.6001C220.7 72.6001 218.8 72.6001 215.8 73.2001C222.2 82.1001 227.1 91.3001 233.1 101ZM330.5 79.7001C330.5 83.4001 330.5 87.0001 330.5 90.0001C330.5 91.8001 330.5 93.0001 328.1 93.0001C326.3 93.0001 325.1 92.4001 325.1 90.6001C324.5 84.5001 322.1 78.4001 316.6 74.8001C307.5 67.5001 292.3 72.4001 288 83.9001C286.8 88.8001 286.2 94.2001 286.2 99.1001C286.2 105.2 286.8 111.9 288.6 118C291 127.1 300.2 132 309.9 131.4C319 130.2 325.7 122.9 326.3 113.8C326.3 112 326.9 110.8 329.3 110.8C331.7 110.8 331.1 112.6 331.1 113.8C330.5 123.5 323.2 132.1 312.8 135.1C298.8 138.8 282.4 132.1 275.1 119.3C267.8 105.9 267.8 81.0001 287.9 70.6001C298.2 65.1001 309.8 63.9001 320.2 71.2001C320.8 71.8001 322 71.2001 322.6 71.2001C323.8 70.0001 325 68.8001 326.9 67.5001C327.5 67.5001 328.7 66.3001 329.3 66.9001C329.9 66.9001 330.5 68.7001 330.5 69.3001C330.5 73.0001 330.5 76.0001 330.5 79.7001ZM519.8 227.5C518.6 236 518 243.9 516.8 252.5C516.8 253.1 515 253.7 513.8 253.7C501.6 253.7 489.5 253.7 477.3 253.7C475.5 253.7 473.6 253.7 471.8 253.7C468.1 253.7 468.1 253.7 468.8 249.4C471.8 249.4 474.3 249.4 477.3 249.4C477.3 248.2 477.3 247 477.3 246.4C477.3 229.4 477.3 211.7 477.3 194.7C477.3 192.3 476.7 191 474.3 191.7C473.7 191.7 472.5 191.7 471.9 191.7C467.6 191.7 467.6 191.7 468.9 187.4C479.9 187.4 491.4 187.4 502.4 187.4C503.6 191.7 503 191.7 499.4 191.7C497 191.7 494.5 191.7 491.5 191.7C491.5 211.2 491.5 230 491.5 248.9C502.5 251.3 511 246.5 513.4 236.1C514 234.3 514 232.4 514.6 230.6C515.5 226.9 515.5 226.3 519.8 227.5ZM194.8 108.3C193.6 116.8 193 125.9 191.8 134.5C175.4 134.5 159.5 134.5 143.7 134.5C143.7 133.3 143.7 132.1 143.7 130.2C146.1 130.2 148 130.2 150.4 130.2C152.2 130.2 152.8 129.6 152.8 127.8C152.8 109.5 152.8 91.3001 152.8 73.6001C152.8 73.0001 152.8 73.0001 152.8 72.4001C149.8 72.4001 147.3 72.4001 144.3 72.4001C144.3 70.6001 144.3 69.4001 144.3 68.1001C155.9 68.1001 167.4 68.1001 179 68.1001C179 69.3001 179 70.5001 179 72.4001C175.3 72.4001 171.7 72.4001 167.4 72.4001C167.4 73.6001 167.4 74.8001 167.4 75.4001C167.4 92.4001 167.4 110.1 167.4 127.1C167.4 129.5 168 130.1 170.4 130.1C182.6 130.1 188 125.2 190.5 113.1C190.5 112.5 191.1 111.9 191.1 111.3C189.9 107.7 191.8 107.7 194.8 108.3ZM294.6 191.6C294.6 189.8 294.6 188.6 294.6 187.3C305.6 187.3 316.5 187.3 327.5 187.3C327.5 188.5 327.5 189.7 327.5 191.6C325.1 191.6 322.6 191.6 320.2 191.6C319 191.6 317.8 192.2 317.8 193.4C317.8 211.7 317.8 229.9 317.8 248.2C317.8 248.8 317.8 248.8 318.4 249.4C321.4 249.4 324.5 249.4 327.5 249.4C327.5 251.2 327.5 252.4 327.5 253.7C316.5 253.7 305.6 253.7 294.6 253.7C294.6 252.5 294.6 251.3 294.6 249.4C297 249.4 299.5 249.4 301.9 249.4C303.7 249.4 303.7 248.8 303.7 247.6C303.7 230 303.7 211.7 303.7 194C303.7 192.2 303.1 191.6 301.3 191.6C299.5 191.6 297.1 191.6 294.6 191.6ZM490.6 72.4001C490.6 70.6001 490.6 69.4001 490.6 68.1001C491.8 68.1001 493 68.1001 493.6 68.1001C502.1 68.1001 511.2 68.1001 519.8 68.1001C523.4 67.5001 523.4 67.5001 523.4 72.4001C522.2 72.4001 520.4 72.4001 518.5 72.4001C517.3 72.4001 515.5 72.4001 513.6 72.4001C513.6 73.6001 513.6 74.8001 513.6 75.4001C513.6 92.4001 513.6 109.5 513.6 127.1C513.6 130.1 514.2 130.8 517.3 130.1C517.9 130.1 519.1 130.1 519.7 130.1C523.3 130.1 523.3 130.1 523.3 134.4C512.3 134.4 501.4 134.4 490.4 134.4C489.8 130.1 489.8 130.1 494.1 130.1C500.2 130.1 500.2 130.1 500.2 124C500.2 107.6 500.2 91.1001 500.2 75.3001C500.2 72.9001 499.6 71.6001 497.2 72.3001C494.8 72.4001 492.4 72.4001 490.6 72.4001Z" fill="black"/>
</g>
<defs>
<clipPath id="clip0_489_1884">
<rect width="600" height="322" fill="white"/>
</clipPath>
</defs>
</svg>
