<svg width="252" height="86" viewBox="0 0 252 86" fill="none" xmlns="http://www.w3.org/2000/svg">
<g clip-path="url(#clip0_379_1067)">
<mask id="mask0_379_1067" style="mask-type:luminance" maskUnits="userSpaceOnUse" x="0" y="4" width="253" height="45">
<path d="M252.014 4H0V48.85H252.014V4Z" fill="white"/>
</mask>
<g mask="url(#mask0_379_1067)">
<path d="M89.783 48.8349C80.6446 48.8349 72.1769 46.1164 66.5318 41.047C64.5131 39.2354 62.9047 37.0144 61.8139 34.5324C60.7231 32.0505 60.175 29.3646 60.2062 26.6542C60.2 23.955 60.7595 21.2844 61.849 18.8142C62.9384 16.344 64.5336 14.129 66.5318 12.3118C71.7737 7.55446 81.048 4.53394 89.783 4.53394C99.445 4.53394 107.182 6.96545 113.094 12.3218C115.084 14.1385 116.669 16.3539 117.744 18.8235C118.819 21.2931 119.361 23.9614 119.334 26.6542C119.32 29.3497 118.761 32.0146 117.688 34.4882C116.616 36.9618 115.053 39.1929 113.094 41.047C107.585 46.1466 98.936 48.8349 89.783 48.8349V43.0053C94.626 43.0053 99.122 41.334 102.262 38.2127C105.402 35.0915 106.829 31.3058 106.829 26.6341C106.829 22.1738 105.261 18.0055 102.262 15.0554C99.163 12.0097 94.561 10.2931 89.783 10.2931C85.004 10.2931 80.3825 11.9946 77.2827 15.0554C74.2938 18.0105 72.7465 22.1939 72.7465 26.6341C72.7016 28.7674 73.0793 30.8885 73.8578 32.8755C74.6363 34.8626 75.8002 36.6764 77.2827 38.2127C80.3825 41.2987 84.974 43.0053 89.783 43.0053V48.8349ZM23.0593 4.53394C18.1753 4.53394 12.6259 5.45016 7.93853 7.55446C3.56353 9.50773 3.03759e-05 12.644 3.03759e-05 17.8444C-0.00646962 20.5676 1.03043 23.1902 2.89823 25.1742C4.16333 26.3421 6.20463 28.3256 11.5372 29.4935C13.9213 29.9969 19.017 30.8074 24.0926 31.3411C29.1682 31.8747 34.0875 32.3479 36.1036 32.8866C37.7064 33.2943 40.403 33.8481 40.403 36.8686C40.403 39.8891 37.5653 40.7953 37.0713 40.9916C36.5774 41.188 33.1701 42.7486 27.0512 42.7486C22.9971 42.6362 18.9798 41.9462 15.1209 40.6996C12.8376 39.8841 10.4435 38.8118 8.21073 36.0883C7.30963 34.8058 6.80963 33.2851 6.77423 31.7186H1.22993V47.224H7.38913V45.1247C7.38813 44.969 7.42873 44.8158 7.50673 44.681C7.58473 44.5462 7.69733 44.4346 7.83283 44.3576C7.96843 44.2807 8.12203 44.2413 8.27793 44.2434C8.43383 44.2455 8.58633 44.289 8.71973 44.3696C11.6215 45.6307 14.6399 46.6053 17.7318 47.2793C20.9676 47.9539 23.0593 48.4422 27.0815 48.4422C31.3257 48.5228 35.5556 47.9263 39.6116 46.6752C42.305 45.9379 44.832 44.6921 47.0561 43.0053C48.3071 42.0456 49.3182 40.8091 50.01 39.3932C50.7018 37.9772 51.0554 36.4203 51.043 34.8449C51.064 31.8518 49.9074 28.9701 47.8223 26.8203C46.6628 25.6964 45.3196 24.7788 43.8505 24.1069C42.2713 23.3943 40.6318 22.8232 38.9514 22.4003C35.7558 21.62 28.5784 20.6434 25.146 20.3011C21.5473 19.9285 15.3023 19.41 12.8074 18.6398C12.0514 18.4032 10.509 17.6732 10.509 15.8861C10.509 14.6124 11.2147 13.5351 12.6058 12.6642C14.8185 11.2798 19.2842 10.4189 23.9414 10.4189C28.4493 10.3646 32.9202 11.2368 37.0764 12.9813C38.193 13.4672 39.2431 14.0931 40.2013 14.844C41.7635 16.1766 42.8452 17.9838 43.281 19.9889H48.2557V6.49224H42.7114V8.05788C42.7114 8.5613 42.2074 9.22581 41.1993 8.67708C38.6993 7.37826 31.6732 4.56917 23.0593 4.53394ZM144.777 7.01076L171.874 31.4317L171.597 14.99C171.566 12.8303 171.173 11.9292 168.834 11.9292H163.744V7.01076H186.929V11.9292H181.954C179.575 11.9292 179.434 12.6944 179.394 14.99L179.812 46.4084H171.874L140.659 18.5894V38.3285C140.684 40.4781 140.785 41.49 142.998 41.49H148.542V46.4084H125.816V41.49H131.138C133.124 41.49 133.043 39.5972 133.043 38.2178V15.1762C133.043 13.666 132.832 11.9342 129.717 11.9342H125.402V7.01076H144.777ZM213.381 41.4799C213.839 41.48 214.297 41.4514 214.751 41.3944C214.988 41.3235 215.206 41.2022 215.39 41.0388C215.575 40.8753 215.721 40.6737 215.82 40.4479C215.89 40.0981 215.925 39.7424 215.926 39.3857V31.6079C215.926 31.3461 215.926 31.3411 215.593 30.9283C215.261 30.5155 201.4 14.8188 200.77 14.114C199.983 13.2582 198.602 11.9342 196.501 11.9342H191.687V7.01076H218.854V11.9241H215.578C214.822 11.9241 214.318 12.644 214.963 13.4344C214.963 13.4344 224.106 24.3586 224.192 24.4744C224.278 24.5902 224.353 24.6154 224.469 24.5096C224.585 24.4039 233.839 13.5351 233.91 13.4344C234.019 13.291 234.085 13.1193 234.099 12.9396C234.114 12.7599 234.076 12.5799 233.992 12.4208C233.907 12.2618 233.778 12.1304 233.62 12.0424C233.463 11.9543 233.283 11.9133 233.103 11.9241H229.741V7.01076H252.014V11.9342H247.04C245.235 11.9342 244.519 12.2665 243.143 13.7969L228.149 30.8829C228.002 31.0945 227.937 31.3522 227.967 31.6079V39.3807C227.97 39.7375 228.007 40.0932 228.078 40.4429C228.175 40.6689 228.32 40.8708 228.504 41.0344C228.688 41.1979 228.906 41.3191 229.141 41.3893C229.593 41.4489 230.047 41.4774 230.502 41.4749H235.588V46.3984H208.562V41.4749L213.381 41.4799Z" fill="#003366"/>
</g>
<mask id="mask1_379_1067" style="mask-type:luminance" maskUnits="userSpaceOnUse" x="1" y="63" width="241" height="19">
<path d="M241.385 63.3569H1.31909V81.8235H241.385V63.3569Z" fill="white"/>
</mask>
<g mask="url(#mask1_379_1067)">
<path d="M8.91089 66.3321L7.37199 67.2554C7.16689 66.7425 6.85909 66.4347 6.65389 66.3321C6.34609 66.1269 6.03829 66.1269 5.62799 66.1269C5.01239 66.0243 4.60199 66.2295 4.29429 66.4347C3.98649 66.7425 3.78129 67.1528 3.78129 67.5632C3.78129 68.1788 4.19169 68.6917 5.11499 68.9995L6.34609 69.5125C7.37199 69.9228 8.09019 70.4358 8.50059 70.9488C8.91089 71.4617 9.21869 72.2825 9.21869 73.1032C9.21869 74.2317 8.80829 75.155 8.09019 75.9758C7.37199 76.6939 6.34609 77.1043 5.21759 77.1043C4.19169 77.1043 3.26829 76.7965 2.55019 76.181C1.93469 75.5654 1.52429 74.6421 1.31909 73.5136L3.16579 73.1032C3.26829 73.8213 3.37089 74.3343 3.57609 74.6421C3.98649 75.155 4.49949 75.4628 5.21759 75.4628C5.83319 75.4628 6.24349 75.2576 6.65389 74.8473C7.06429 74.4369 7.26939 73.9239 7.26939 73.411C7.26939 73.2058 7.26939 73.0006 7.16689 72.7954C7.16689 72.4876 7.06429 72.2825 6.96169 72.0773C6.85909 71.8721 6.65389 71.7695 6.44869 71.6669C6.14089 71.4617 5.93569 71.3591 5.62799 71.1539L4.39689 70.7436C2.75539 70.0254 1.83209 68.8969 1.83209 67.5632C1.83209 66.6399 2.13979 65.8191 2.85799 65.2036C3.57609 64.588 4.49949 64.2803 5.52539 64.2803C7.06429 64.2803 8.09019 64.9984 8.91089 66.3321ZM11.1679 72.898C11.1679 71.7695 11.5783 70.8462 12.3991 70.0254C13.2198 69.2047 14.1431 68.7943 15.3742 68.7943C16.5027 68.7943 17.5287 69.2047 18.3494 70.0254C19.1701 70.8462 19.5805 71.7695 19.5805 73.0006C19.5805 74.1291 19.1701 75.155 18.3494 75.9758C17.5287 76.7965 16.5027 77.1043 15.3742 77.1043C14.2457 77.1043 13.2198 76.6939 12.3991 75.8732C11.4757 75.155 11.1679 74.1291 11.1679 72.898ZM13.0146 73.0006C13.0146 73.8213 13.2198 74.4369 13.6302 74.8473C14.0405 75.2576 14.6561 75.5654 15.2716 75.5654C15.9898 75.5654 16.5027 75.3602 16.9131 74.8473C17.3235 74.4369 17.5287 73.8213 17.5287 73.0006C17.5287 72.1799 17.3235 71.6669 16.9131 71.1539C16.5027 70.7436 15.8872 70.4358 15.2716 70.4358C14.5535 70.4358 14.0405 70.641 13.6302 71.1539C13.2198 71.6669 13.0146 72.2825 13.0146 73.0006ZM21.3246 69.1021H23.1712V69.8202C23.7868 69.2047 24.5049 68.8969 25.3257 68.8969C26.249 68.8969 26.9671 69.2047 27.4801 69.7177C27.8905 70.2306 28.0957 70.9488 28.0957 72.0773V76.8991H26.249V72.4876C26.249 71.6669 26.1464 71.1539 25.9412 70.8462C25.736 70.641 25.3257 70.5384 24.8127 70.5384C24.1972 70.5384 23.7868 70.7436 23.5816 71.1539C23.3764 71.5643 23.1712 72.1799 23.1712 73.2058V77.0017H21.3246V69.1021ZM33.2253 75.4628L29.7371 69.1021H31.789L34.1486 73.6162L36.4056 69.1021H38.4575L32.1993 81.208H30.1475L33.2253 75.4628ZM46.3571 76.8991V63.6647L55.3852 73.1032V64.4854H57.2319V77.6173L48.2037 68.1788V76.7965H46.3571V76.8991ZM67.1833 73.411H61.5407C61.5407 74.0265 61.7459 74.5395 62.1563 74.9499C62.5666 75.3602 62.977 75.4628 63.5926 75.4628C64.0029 75.4628 64.4133 75.3602 64.7211 75.155C65.0289 74.9499 65.3366 74.5395 65.747 73.9239L67.2859 74.7447C67.0807 75.155 66.7729 75.4628 66.5677 75.7706C66.26 76.0784 66.0548 76.2836 65.747 76.4887C65.4392 76.6939 65.1315 76.7965 64.8237 76.8991C64.5159 77.0017 64.1055 77.0017 63.6952 77.0017C62.5666 77.0017 61.6433 76.5913 60.9252 75.8732C60.207 75.155 59.8992 74.1291 59.8992 72.898C59.8992 71.6669 60.207 70.641 60.9252 69.9228C61.6433 69.2047 62.5666 68.7943 63.6952 68.7943C64.8237 68.7943 65.747 69.2047 66.4652 69.9228C67.0807 70.641 67.4911 71.6669 67.4911 72.898L67.1833 73.411ZM65.3366 71.9747C65.1315 70.9488 64.5159 70.5384 63.49 70.5384C63.2848 70.5384 63.0796 70.5384 62.8744 70.641C62.6692 70.7436 62.4641 70.8462 62.3615 70.9488C62.1563 71.0514 62.0537 71.2565 61.9511 71.3591C61.8485 71.4617 61.7459 71.7695 61.7459 71.9747H65.3366ZM71.4922 70.7436V76.8991H69.6455V70.7436H68.8248V69.1021H69.6455V66.2295H71.4922V69.1021H72.9285V70.7436H71.4922ZM76.4166 69.1021L78.4684 73.5136L80.6229 68.384L82.88 73.5136L84.932 69.1021H86.984L82.88 77.5147L80.7255 72.4876L78.571 77.5147L74.4673 69.1021H76.4166ZM87.497 72.898C87.497 71.7695 87.907 70.8462 88.728 70.0254C89.548 69.3073 90.472 68.8969 91.6 68.8969C92.729 68.8969 93.755 69.3073 94.575 70.128C95.396 70.9488 95.807 71.8721 95.807 73.1032C95.807 74.2317 95.396 75.2576 94.575 76.0784C93.755 76.8991 92.729 77.2069 91.6 77.2069C90.472 77.2069 89.446 76.7965 88.625 75.9758C87.907 75.155 87.497 74.1291 87.497 72.898ZM89.343 73.0006C89.343 73.8213 89.548 74.4369 89.959 74.8473C90.369 75.2576 90.985 75.5654 91.6 75.5654C92.318 75.5654 92.831 75.3602 93.242 74.8473C93.652 74.4369 93.857 73.8213 93.857 73.0006C93.857 72.1799 93.652 71.6669 93.242 71.1539C92.934 70.7436 92.318 70.5384 91.6 70.5384C90.882 70.5384 90.369 70.7436 89.959 71.2565C89.548 71.6669 89.343 72.2825 89.343 73.0006ZM97.756 69.1021H99.602V69.8202C99.91 69.5125 100.218 69.2047 100.526 69.1021C100.834 68.9995 101.141 68.8969 101.449 68.8969C101.962 68.8969 102.372 69.1021 102.988 69.4099L102.167 71.0514C101.859 70.8462 101.449 70.641 101.141 70.641C100.115 70.641 99.705 71.3591 99.705 72.898V76.8991H97.756V69.1021ZM106.271 63.3569V71.5643L108.836 68.9995H111.298L107.912 72.2825L111.503 76.7965H109.144L106.579 73.5136L106.271 73.8213V76.7965H104.424V63.3569H106.271ZM128.431 65.2036V67.4606C127.302 66.5373 126.276 66.1269 125.045 66.1269C123.814 66.1269 122.686 66.5373 121.865 67.4606C120.942 68.384 120.531 69.5125 120.531 70.7436C120.531 72.0773 120.942 73.1032 121.865 74.0265C122.788 74.9499 123.814 75.3602 125.045 75.3602C125.661 75.3602 126.276 75.2576 126.687 75.0524C126.892 74.9499 127.2 74.8473 127.508 74.6421C127.815 74.4369 128.123 74.2317 128.328 74.0265V76.2836C127.302 76.8991 126.174 77.2069 124.943 77.2069C123.199 77.2069 121.66 76.5913 120.429 75.3602C119.198 74.1291 118.582 72.5902 118.582 70.8462C118.582 69.3073 119.095 67.871 120.121 66.6399C121.352 65.101 123.096 64.3829 125.148 64.3829C126.379 64.2803 127.405 64.588 128.431 65.2036ZM130.483 72.898C130.483 71.7695 130.893 70.8462 131.714 70.0254C132.535 69.2047 133.458 68.7943 134.689 68.7943C135.817 68.7943 136.843 69.2047 137.664 70.0254C138.485 70.8462 138.895 71.7695 138.895 73.0006C138.895 74.1291 138.485 75.155 137.664 75.9758C136.843 76.7965 135.817 77.1043 134.689 77.1043C133.56 77.1043 132.535 76.6939 131.714 75.8732C130.893 75.155 130.483 74.1291 130.483 72.898ZM132.329 73.0006C132.329 73.8213 132.535 74.4369 132.945 74.8473C133.355 75.2576 133.971 75.5654 134.586 75.5654C135.305 75.5654 135.817 75.3602 136.228 74.8473C136.638 74.4369 136.843 73.8213 136.843 73.0006C136.843 72.1799 136.638 71.6669 136.228 71.1539C135.817 70.7436 135.202 70.4358 134.586 70.4358C133.868 70.4358 133.355 70.641 132.945 71.1539C132.535 71.6669 132.329 72.2825 132.329 73.0006ZM140.332 69.1021H142.178V69.8202C142.486 69.4099 142.794 69.2047 143.102 69.1021C143.409 68.9995 143.717 68.8969 144.127 68.8969C145.051 68.8969 145.666 69.3073 146.179 70.0254C146.795 69.2047 147.513 68.8969 148.436 68.8969C150.18 68.8969 151.104 69.9228 151.104 72.0773V76.8991H149.257V72.5902C149.257 71.8721 149.154 71.3591 148.949 71.0514C148.847 70.641 148.539 70.5384 148.026 70.5384C147.513 70.5384 147.205 70.7436 146.897 71.0514C146.59 71.3591 146.59 72.0773 146.59 72.898V76.8991H144.743V72.5902C144.743 71.1539 144.333 70.5384 143.512 70.5384C142.999 70.5384 142.589 70.7436 142.383 71.1539C142.178 71.5643 142.076 72.1799 142.076 73.0006V77.0017H140.229V69.1021H140.332ZM153.053 69.1021H154.9V69.8202C155.207 69.4099 155.515 69.2047 155.823 69.1021C156.131 68.9995 156.439 68.8969 156.849 68.8969C157.772 68.8969 158.388 69.3073 158.901 70.0254C159.516 69.2047 160.234 68.8969 161.158 68.8969C162.902 68.8969 163.825 69.9228 163.825 72.0773V76.8991H161.979V72.5902C161.979 71.8721 161.876 71.3591 161.671 71.0514C161.466 70.7436 161.158 70.5384 160.747 70.5384C160.234 70.5384 159.927 70.7436 159.619 71.0514C159.414 71.4617 159.311 72.0773 159.311 72.898V76.8991H157.464V72.5902C157.464 71.1539 157.054 70.5384 156.233 70.5384C155.72 70.5384 155.31 70.7436 155.105 71.1539C154.9 71.5643 154.797 72.1799 154.797 73.0006V77.0017H152.95V69.1021H153.053ZM167.826 69.1021V73.6162C167.826 74.9499 168.339 75.5654 169.365 75.5654C170.391 75.5654 170.904 74.9499 170.904 73.6162V69.1021H172.751V73.6162C172.751 74.2317 172.648 74.7447 172.545 75.2576C172.443 75.668 172.135 76.0784 171.725 76.3861C171.109 76.8991 170.391 77.2069 169.365 77.2069C168.442 77.2069 167.621 76.8991 167.006 76.3861C166.595 76.0784 166.39 75.668 166.185 75.2576C166.082 74.8473 165.98 74.3343 165.98 73.6162V69.1021H167.826ZM174.905 69.1021H176.752V69.8202C177.367 69.2047 178.085 68.8969 178.906 68.8969C179.83 68.8969 180.548 69.2047 181.061 69.7177C181.471 70.2306 181.676 70.9488 181.676 72.0773V76.8991H179.83V72.4876C179.83 71.6669 179.727 71.1539 179.522 70.8462C179.317 70.5384 178.906 70.4358 178.393 70.4358C177.778 70.4358 177.367 70.641 177.162 71.0514C176.957 71.4617 176.752 72.0773 176.752 73.1032V76.8991H174.905V69.1021ZM184.036 65.8191C184.036 65.5114 184.138 65.2036 184.344 64.9984C184.549 64.7932 184.857 64.6906 185.164 64.6906C185.472 64.6906 185.78 64.7932 185.985 64.9984C186.19 65.2036 186.293 65.5114 186.293 65.8191C186.293 66.1269 186.19 66.4347 185.985 66.6399C185.78 66.8451 185.472 66.9477 185.164 66.9477C184.857 66.9477 184.549 66.8451 184.344 66.6399C184.138 66.4347 184.036 66.1269 184.036 65.8191ZM186.088 69.1021V76.8991H184.241V69.1021H186.088ZM194.398 69.4099V71.7695C193.987 71.2565 193.577 70.9488 193.269 70.7436C192.961 70.5384 192.551 70.4358 192.141 70.4358C191.422 70.4358 190.91 70.641 190.499 71.1539C190.089 71.6669 189.781 72.1799 189.781 72.898C189.781 73.6162 189.986 74.2317 190.397 74.7447C190.807 75.2576 191.422 75.4628 192.038 75.4628C192.448 75.4628 192.859 75.3602 193.167 75.155C193.474 74.9499 193.885 74.6421 194.295 74.1291V76.4887C193.577 76.8991 192.859 77.1043 192.141 77.1043C190.91 77.1043 189.884 76.6939 189.063 75.9758C188.242 75.155 187.832 74.2317 187.832 73.0006C187.832 71.7695 188.242 70.8462 189.063 70.0254C189.884 69.2047 190.91 68.7943 192.141 68.7943C193.064 68.8969 193.782 69.1021 194.398 69.4099ZM202.297 69.1021H204.144V76.8991H202.297V76.0784C201.579 76.7965 200.758 77.1043 199.938 77.1043C198.809 77.1043 197.988 76.6939 197.27 75.9758C196.552 75.155 196.244 74.2317 196.244 73.0006C196.244 71.8721 196.552 70.8462 197.27 70.0254C197.988 69.2047 198.809 68.8969 199.938 68.8969C200.861 68.8969 201.682 69.3073 202.4 70.0254V69.1021H202.297ZM197.988 73.0006C197.988 73.7187 198.194 74.3343 198.604 74.8473C199.014 75.3602 199.527 75.5654 200.143 75.5654C200.861 75.5654 201.374 75.3602 201.784 74.8473C202.195 74.3343 202.4 73.7187 202.4 73.0006C202.4 72.2825 202.195 71.6669 201.784 71.1539C201.374 70.7436 200.861 70.5384 200.143 70.5384C199.527 70.5384 199.014 70.7436 198.604 71.2565C198.194 71.6669 197.988 72.2825 197.988 73.0006ZM208.863 70.7436V76.8991H207.016V70.7436H206.196V69.1021H207.016V66.2295H208.863V69.1021H210.299V70.7436H208.863ZM211.838 65.8191C211.838 65.5114 211.941 65.2036 212.146 64.9984C212.351 64.7932 212.659 64.6906 212.967 64.6906C213.275 64.6906 213.582 64.7932 213.788 64.9984C213.993 65.2036 214.095 65.5114 214.095 65.8191C214.095 66.1269 213.993 66.4347 213.788 66.6399C213.582 66.8451 213.275 66.9477 212.967 66.9477C212.659 66.9477 212.351 66.8451 212.146 66.6399C212.044 66.4347 211.838 66.1269 211.838 65.8191ZM213.993 69.1021V76.8991H212.146V69.1021H213.993ZM216.25 72.898C216.25 71.7695 216.66 70.8462 217.481 70.0254C218.302 69.2047 219.225 68.7943 220.456 68.7943C221.585 68.7943 222.611 69.2047 223.431 70.0254C224.252 70.8462 224.662 71.7695 224.662 73.0006C224.662 74.1291 224.252 75.155 223.431 75.9758C222.611 76.7965 221.585 77.1043 220.456 77.1043C219.328 77.1043 218.302 76.6939 217.481 75.8732C216.558 75.155 216.25 74.1291 216.25 72.898ZM218.096 73.0006C218.096 73.8213 218.302 74.4369 218.712 74.8473C219.122 75.2576 219.738 75.5654 220.353 75.5654C221.072 75.5654 221.585 75.3602 221.995 74.8473C222.405 74.3343 222.611 73.8213 222.611 73.0006C222.611 72.1799 222.405 71.6669 221.995 71.1539C221.585 70.7436 220.969 70.4358 220.353 70.4358C219.635 70.4358 219.122 70.641 218.712 71.1539C218.302 71.6669 218.096 72.2825 218.096 73.0006ZM226.406 69.1021H228.253V69.8202C228.869 69.2047 229.587 68.8969 230.408 68.8969C231.331 68.8969 232.049 69.2047 232.562 69.7177C232.972 70.2306 233.178 70.9488 233.178 72.0773V76.8991H231.331V72.4876C231.331 71.6669 231.228 71.1539 231.023 70.8462C230.818 70.5384 230.408 70.4358 229.895 70.4358C229.279 70.4358 228.869 70.641 228.663 71.0514C228.458 71.4617 228.253 72.0773 228.253 73.1032V76.8991H226.406V69.1021ZM240.256 70.4358L238.717 71.2565C238.615 70.7436 238.307 70.5384 237.897 70.5384C237.692 70.5384 237.589 70.641 237.486 70.7436C237.384 70.8462 237.281 70.9488 237.281 71.1539C237.281 71.4617 237.589 71.7695 238.307 72.0773C239.23 72.4876 239.949 72.898 240.256 73.2058C240.564 73.5136 240.769 74.0265 240.769 74.6421C240.769 75.3602 240.462 75.9758 239.949 76.4887C239.436 77.0017 238.717 77.2069 237.999 77.2069C236.666 77.2069 235.742 76.5913 235.229 75.2576L236.768 74.5395C236.973 74.9499 237.179 75.155 237.281 75.2576C237.486 75.4628 237.794 75.5654 238.102 75.5654C238.717 75.5654 239.025 75.2576 239.025 74.7447C239.025 74.4369 238.82 74.1291 238.307 73.8213C238.102 73.7187 237.897 73.6162 237.794 73.5136C237.589 73.411 237.384 73.3084 237.281 73.2058C236.768 73.0006 236.358 72.6928 236.153 72.3851C235.845 72.0773 235.742 71.6669 235.742 71.1539C235.742 70.4358 235.947 69.9228 236.46 69.5125C236.973 69.1021 237.486 68.8969 238.205 68.8969C239.025 68.8969 239.846 69.4099 240.256 70.4358Z" fill="#010101"/>
</g>
</g>
<defs>
<clipPath id="clip0_379_1067">
<rect width="252" height="86" fill="white"/>
</clipPath>
</defs>
</svg>
