<svg width="254" height="90" viewBox="0 0 254 90" fill="none" xmlns="http://www.w3.org/2000/svg">
<g clip-path="url(#clip0_454_1598)">
<path d="M90.7826 51.8349C81.6446 51.8349 73.1769 49.1164 67.5318 44.047C65.5131 42.2354 63.9047 40.0144 62.8139 37.5324C61.7231 35.0505 61.175 32.3646 61.2062 29.6542C61.2 26.955 61.7595 24.2844 62.849 21.8142C63.9384 19.344 65.5336 17.129 67.5318 15.3118C72.7737 10.5545 82.0478 7.53394 90.7826 7.53394C100.445 7.53394 108.182 9.96545 114.094 15.3218C116.084 17.1385 117.669 19.3539 118.744 21.8235C119.819 24.2931 120.361 26.9614 120.334 29.6542C120.32 32.3497 119.761 35.0146 118.688 37.4882C117.616 39.9618 116.053 42.1929 114.094 44.047C108.585 49.1466 99.9358 51.8349 90.7826 51.8349V46.0053C95.6264 46.0053 100.122 44.334 103.262 41.2127C106.402 38.0915 107.829 34.3058 107.829 29.6341C107.829 25.1738 106.261 21.0055 103.262 18.0554C100.163 15.0097 95.5608 13.2931 90.7826 13.2931C86.0044 13.2931 81.3825 14.9946 78.2827 18.0554C75.2938 21.0105 73.7465 25.1939 73.7465 29.6341C73.7016 31.7674 74.0793 33.8885 74.8578 35.8755C75.6363 37.8626 76.8002 39.6764 78.2827 41.2127C81.3825 44.2987 85.9742 46.0053 90.7826 46.0053V51.8349ZM24.0593 7.53394C19.1753 7.53394 13.6259 8.45016 8.93848 10.5545C4.56351 12.5077 1.00003 15.644 1.00003 20.8444C0.993458 23.5676 2.03041 26.1902 3.8982 28.1742C5.16331 29.3421 7.20462 31.3256 12.5372 32.4935C14.9213 32.9969 20.017 33.8074 25.0926 34.3411C30.1682 34.8747 35.0875 35.3479 37.1036 35.8866C38.7064 36.2943 41.403 36.8481 41.403 39.8686C41.403 42.8891 38.5653 43.7953 38.0713 43.9916C37.5774 44.188 34.1701 45.7486 28.0512 45.7486C23.9971 45.6362 19.9798 44.9462 16.1209 43.6996C13.8376 42.8841 11.4435 41.8118 9.21066 39.0883C8.30955 37.8058 7.80964 36.2851 7.77417 34.7186H2.22986V50.224H8.38909V48.1247C8.38812 47.969 8.42872 47.8158 8.50671 47.681C8.58471 47.5462 8.69728 47.4346 8.83283 47.3576C8.96838 47.2807 9.12201 47.2413 9.2779 47.2434C9.43379 47.2455 9.5863 47.289 9.71972 47.3696C12.6215 48.6307 15.6399 49.6053 18.7318 50.2793C21.9676 50.9539 24.0593 51.4422 28.0815 51.4422C32.3257 51.5228 36.5556 50.9263 40.6116 49.6752C43.305 48.9379 45.832 47.6921 48.0561 46.0053C49.3071 45.0456 50.3182 43.8091 51.01 42.3932C51.7018 40.9772 52.0554 39.4203 52.043 37.8449C52.064 34.8518 50.9074 31.9701 48.8223 29.8203C47.6628 28.6964 46.3196 27.7788 44.8505 27.1069C43.2713 26.3943 41.6318 25.8232 39.9514 25.4003C36.7558 24.62 29.5784 23.6434 26.146 23.3011C22.5473 22.9285 16.3023 22.41 13.8074 21.6398C13.0514 21.4032 11.509 20.6732 11.509 18.8861C11.509 17.6124 12.2147 16.5351 13.6058 15.6642C15.8185 14.2798 20.2842 13.4189 24.9414 13.4189C29.4493 13.3646 33.9202 14.2368 38.0764 15.9813C39.193 16.4672 40.2431 17.0931 41.2013 17.844C42.7635 19.1766 43.8452 20.9838 44.281 22.9889H49.2557V9.49224H43.7114V11.0579C43.7114 11.5613 43.2074 12.2258 42.1993 11.6771C39.6993 10.3783 32.6732 7.56917 24.0593 7.53394ZM145.777 10.0108L172.874 34.4317L172.597 17.99C172.566 15.8303 172.173 14.9292 169.834 14.9292H164.744V10.0108H187.929V14.9292H182.954C180.575 14.9292 180.434 15.6944 180.394 17.99L180.812 49.4084H172.874L141.659 21.5894V41.3285C141.684 43.4781 141.785 44.49 143.998 44.49H149.542V49.4084H126.816V44.49H132.138C134.124 44.49 134.043 42.5972 134.043 41.2178V18.1762C134.043 16.666 133.832 14.9342 130.717 14.9342H126.402V10.0108H145.777ZM214.381 44.4799C214.839 44.48 215.297 44.4514 215.751 44.3944C215.988 44.3235 216.206 44.2022 216.39 44.0388C216.575 43.8753 216.721 43.6737 216.82 43.4479C216.89 43.0981 216.925 42.7424 216.926 42.3857V34.6079C216.926 34.3461 216.926 34.3411 216.593 33.9283C216.261 33.5155 202.4 17.8188 201.77 17.114C200.983 16.2582 199.602 14.9342 197.501 14.9342H192.687V10.0108H219.854V14.9241H216.578C215.822 14.9241 215.318 15.644 215.963 16.4344C215.963 16.4344 225.106 27.3586 225.192 27.4744C225.278 27.5902 225.353 27.6154 225.469 27.5096C225.585 27.4039 234.839 16.5351 234.91 16.4344C235.019 16.291 235.085 16.1193 235.099 15.9396C235.114 15.7599 235.076 15.5799 234.992 15.4208C234.907 15.2618 234.778 15.1304 234.62 15.0424C234.463 14.9543 234.283 14.9133 234.103 14.9241H230.741V10.0108H253.014V14.9342H248.04C246.235 14.9342 245.519 15.2665 244.143 16.7969L229.149 33.8829C229.002 34.0945 228.937 34.3522 228.967 34.6079V42.3807C228.97 42.7375 229.007 43.0932 229.078 43.4429C229.175 43.6689 229.32 43.8708 229.504 44.0344C229.688 44.1979 229.906 44.3191 230.141 44.3893C230.593 44.4489 231.047 44.4774 231.502 44.4749H236.588V49.3984H209.562V44.4749L214.381 44.4799Z" fill="#003366"/>
</g>
<g clip-path="url(#clip1_454_1598)">
<path d="M8.64454 68.486L7.22027 69.3406C7.03037 68.8658 6.74552 68.581 6.55562 68.486C6.27076 68.2961 5.98591 68.2961 5.60611 68.2961C5.0364 68.2011 4.6566 68.3911 4.37174 68.581C4.08689 68.8658 3.89699 69.2456 3.89699 69.6254C3.89699 70.1951 4.27679 70.6699 5.13135 70.9547L6.27076 71.4295C7.22027 71.8093 7.88493 72.284 8.26474 72.7588C8.64454 73.2336 8.92939 73.9932 8.92939 74.7528C8.92939 75.7972 8.54959 76.6518 7.88493 77.4114C7.22027 78.0761 6.27076 78.4559 5.2263 78.4559C4.27679 78.4559 3.42223 78.171 2.75758 77.6013C2.18787 77.0316 1.80807 76.177 1.61816 75.1326L3.32728 74.7528C3.42223 75.4174 3.51718 75.8922 3.70709 76.177C4.08689 76.6518 4.56165 76.9366 5.2263 76.9366C5.79601 76.9366 6.17581 76.7467 6.55562 76.3669C6.93542 75.9871 7.12532 75.5124 7.12532 75.0376C7.12532 74.8477 7.12532 74.6578 7.03037 74.4679C7.03037 74.1831 6.93542 73.9932 6.84047 73.8033C6.74552 73.6134 6.55562 73.5184 6.36572 73.4235C6.08086 73.2336 5.89096 73.1386 5.60611 72.9487L4.46669 72.5689C2.94748 71.9042 2.09292 70.8598 2.09292 69.6254C2.09292 68.7709 2.37777 68.0112 3.04243 67.4415C3.70709 66.8718 4.56165 66.587 5.51116 66.587C6.93542 66.587 7.88493 67.2516 8.64454 68.486ZM10.7335 74.5629C10.7335 73.5184 11.1133 72.6638 11.8729 71.9042C12.6325 71.1446 13.487 70.7648 14.6265 70.7648C15.6709 70.7648 16.6204 71.1446 17.38 71.9042C18.1396 72.6638 18.5194 73.5184 18.5194 74.6578C18.5194 75.7023 18.1396 76.6518 17.38 77.4114C16.6204 78.171 15.6709 78.4559 14.6265 78.4559C13.582 78.4559 12.6325 78.0761 11.8729 77.3164C11.0183 76.6518 10.7335 75.7023 10.7335 74.5629ZM12.4426 74.6578C12.4426 75.4174 12.6325 75.9871 13.0123 76.3669C13.3921 76.7467 13.9618 77.0316 14.5315 77.0316C15.1962 77.0316 15.6709 76.8417 16.0507 76.3669C16.4305 75.9871 16.6204 75.4174 16.6204 74.6578C16.6204 73.8982 16.4305 73.4235 16.0507 72.9487C15.6709 72.5689 15.1012 72.284 14.5315 72.284C13.8668 72.284 13.3921 72.4739 13.0123 72.9487C12.6325 73.4235 12.4426 73.9932 12.4426 74.6578ZM20.1336 71.0497H21.8427V71.7143C22.4124 71.1446 23.0771 70.8598 23.8367 70.8598C24.6913 70.8598 25.3559 71.1446 25.8307 71.6194C26.2105 72.0941 26.4004 72.7588 26.4004 73.8033V78.266H24.6913V74.1831C24.6913 73.4235 24.5963 72.9487 24.4064 72.6638C24.2165 72.4739 23.8367 72.379 23.3619 72.379C22.7922 72.379 22.4124 72.5689 22.2225 72.9487C22.0326 73.3285 21.8427 73.8982 21.8427 74.8477V78.3609H20.1336V71.0497ZM31.1479 76.9366L27.9196 71.0497H29.8186L32.0025 75.2275L34.0914 71.0497H35.9904L30.1984 82.2539H28.2994L31.1479 76.9366ZM43.3017 78.266V66.0173L51.6574 74.7528V66.7769H53.3665V78.9306L45.0108 70.1951V78.171H43.3017V78.266ZM62.5767 75.0376H57.3544C57.3544 75.6073 57.5443 76.0821 57.9241 76.4619C58.3039 76.8417 58.6837 76.9366 59.2534 76.9366C59.6332 76.9366 60.013 76.8417 60.2979 76.6518C60.5827 76.4619 60.8676 76.0821 61.2474 75.5124L62.6717 76.272C62.4818 76.6518 62.1969 76.9366 62.007 77.2215C61.7222 77.5063 61.5323 77.6963 61.2474 77.8862C60.9626 78.0761 60.6777 78.171 60.3928 78.266C60.108 78.3609 59.7282 78.3609 59.3484 78.3609C58.3039 78.3609 57.4494 77.9811 56.7847 77.3164C56.12 76.6518 55.8352 75.7023 55.8352 74.5629C55.8352 73.4235 56.12 72.4739 56.7847 71.8093C57.4494 71.1446 58.3039 70.7648 59.3484 70.7648C60.3928 70.7648 61.2474 71.1446 61.9121 71.8093C62.4818 72.4739 62.8616 73.4235 62.8616 74.5629L62.5767 75.0376ZM60.8676 73.7083C60.6777 72.7588 60.108 72.379 59.1585 72.379C58.9686 72.379 58.7787 72.379 58.5888 72.4739C58.3989 72.5689 58.209 72.6638 58.114 72.7588C57.9241 72.8537 57.8292 73.0437 57.7342 73.1386C57.6393 73.2336 57.5443 73.5184 57.5443 73.7083H60.8676ZM66.5647 72.5689V78.266H64.8555V72.5689H64.0959V71.0497H64.8555V68.3911H66.5647V71.0497H67.894V72.5689H66.5647ZM71.1223 71.0497L73.0213 75.1326L75.0153 70.385L77.1042 75.1326L79.0032 71.0497H80.9023L77.1042 78.8357L75.1103 74.1831L73.1163 78.8357L69.3182 71.0497H71.1223ZM81.377 74.5629C81.377 73.5184 81.7568 72.6638 82.5164 71.9042C83.276 71.2396 84.1306 70.8598 85.1751 70.8598C86.2195 70.8598 87.169 71.2396 87.9286 71.9992C88.6883 72.7588 89.0681 73.6134 89.0681 74.7528C89.0681 75.7972 88.6883 76.7467 87.9286 77.5063C87.169 78.266 86.2195 78.5508 85.1751 78.5508C84.1306 78.5508 83.1811 78.171 82.4215 77.4114C81.7568 76.6518 81.377 75.7023 81.377 74.5629ZM83.0861 74.6578C83.0861 75.4174 83.276 75.9871 83.6558 76.3669C84.0357 76.7467 84.6054 77.0316 85.1751 77.0316C85.8397 77.0316 86.3145 76.8417 86.6943 76.3669C87.0741 75.9871 87.264 75.4174 87.264 74.6578C87.264 73.8982 87.0741 73.4235 86.6943 72.9487C86.4094 72.5689 85.8397 72.379 85.1751 72.379C84.5104 72.379 84.0357 72.5689 83.6558 73.0436C83.276 73.4235 83.0861 73.9932 83.0861 74.6578ZM90.8721 71.0497H92.5812V71.7143C92.8661 71.4295 93.1509 71.1446 93.4358 71.0497C93.7207 70.9547 94.0055 70.8598 94.2904 70.8598C94.7651 70.8598 95.1449 71.0497 95.7146 71.3345L94.955 72.8537C94.6702 72.6638 94.2904 72.4739 94.0055 72.4739C93.056 72.4739 92.6762 73.1386 92.6762 74.5629V78.266H90.8721V71.0497ZM98.7531 65.7324V73.3285L101.127 70.9547H103.406L100.272 73.9932L103.596 78.171H101.412L99.0379 75.1326L98.7531 75.4174V78.171H97.0439V65.7324H98.7531ZM119.262 67.4415V69.5305C118.218 68.6759 117.269 68.2961 116.129 68.2961C114.99 68.2961 113.945 68.6759 113.186 69.5305C112.331 70.385 111.951 71.4295 111.951 72.5689C111.951 73.8033 112.331 74.7528 113.186 75.6073C114.04 76.4619 114.99 76.8417 116.129 76.8417C116.699 76.8417 117.269 76.7467 117.648 76.5568C117.838 76.4619 118.123 76.3669 118.408 76.177C118.693 75.9871 118.978 75.7972 119.168 75.6073V77.6963C118.218 78.266 117.174 78.5508 116.034 78.5508C114.42 78.5508 112.996 77.9811 111.856 76.8417C110.717 75.7023 110.147 74.278 110.147 72.6638C110.147 71.2396 110.622 69.9103 111.571 68.7709C112.711 67.3466 114.325 66.6819 116.224 66.6819C117.363 66.587 118.313 66.8718 119.262 67.4415ZM121.162 74.5629C121.162 73.5184 121.541 72.6638 122.301 71.9042C123.061 71.1446 123.915 70.7648 125.054 70.7648C126.099 70.7648 127.048 71.1446 127.808 71.9042C128.568 72.6638 128.947 73.5184 128.947 74.6578C128.947 75.7023 128.568 76.6518 127.808 77.4114C127.048 78.171 126.099 78.4559 125.054 78.4559C124.01 78.4559 123.061 78.0761 122.301 77.3164C121.541 76.6518 121.162 75.7023 121.162 74.5629ZM122.871 74.6578C122.871 75.4174 123.061 75.9871 123.44 76.3669C123.82 76.7467 124.39 77.0316 124.96 77.0316C125.624 77.0316 126.099 76.8417 126.479 76.3669C126.859 75.9871 127.048 75.4174 127.048 74.6578C127.048 73.8982 126.859 73.4235 126.479 72.9487C126.099 72.5689 125.529 72.284 124.96 72.284C124.295 72.284 123.82 72.4739 123.44 72.9487C123.061 73.4235 122.871 73.9932 122.871 74.6578ZM130.277 71.0497H131.986V71.7143C132.271 71.3345 132.556 71.1446 132.84 71.0497C133.125 70.9547 133.41 70.8598 133.79 70.8598C134.645 70.8598 135.214 71.2396 135.689 71.9042C136.259 71.1446 136.923 70.8598 137.778 70.8598C139.392 70.8598 140.247 71.8093 140.247 73.8033V78.266H138.538V74.278C138.538 73.6134 138.443 73.1386 138.253 72.8537C138.158 72.4739 137.873 72.379 137.398 72.379C136.923 72.379 136.639 72.5689 136.354 72.8537C136.069 73.1386 136.069 73.8033 136.069 74.5629V78.266H134.36V74.278C134.36 72.9487 133.98 72.379 133.22 72.379C132.746 72.379 132.366 72.5689 132.176 72.9487C131.986 73.3285 131.891 73.8982 131.891 74.6578V78.3609H130.182V71.0497H130.277ZM142.051 71.0497H143.76V71.7143C144.045 71.3345 144.33 71.1446 144.614 71.0497C144.899 70.9547 145.184 70.8598 145.564 70.8598C146.418 70.8598 146.988 71.2396 147.463 71.9042C148.033 71.1446 148.697 70.8598 149.552 70.8598C151.166 70.8598 152.021 71.8093 152.021 73.8033V78.266H150.311V74.278C150.311 73.6134 150.217 73.1386 150.027 72.8537C149.837 72.5689 149.552 72.379 149.172 72.379C148.697 72.379 148.412 72.5689 148.128 72.8537C147.938 73.2336 147.843 73.8033 147.843 74.5629V78.266H146.134V74.278C146.134 72.9487 145.754 72.379 144.994 72.379C144.519 72.379 144.14 72.5689 143.95 72.9487C143.76 73.3285 143.665 73.8982 143.665 74.6578V78.3609H141.956V71.0497H142.051ZM155.724 71.0497V75.2275C155.724 76.4619 156.198 77.0316 157.148 77.0316C158.097 77.0316 158.572 76.4619 158.572 75.2275V71.0497H160.281V75.2275C160.281 75.7972 160.186 76.272 160.091 76.7467C159.996 77.1265 159.712 77.5063 159.332 77.7912C158.762 78.266 158.097 78.5508 157.148 78.5508C156.293 78.5508 155.534 78.266 154.964 77.7912C154.584 77.5063 154.394 77.1265 154.204 76.7467C154.11 76.3669 154.015 75.8922 154.015 75.2275V71.0497H155.724ZM162.275 71.0497H163.984V71.7143C164.554 71.1446 165.219 70.8598 165.978 70.8598C166.833 70.8598 167.498 71.1446 167.972 71.6194C168.352 72.0941 168.542 72.7588 168.542 73.8033V78.266H166.833V74.1831C166.833 73.4235 166.738 72.9487 166.548 72.6638C166.358 72.379 165.978 72.284 165.504 72.284C164.934 72.284 164.554 72.4739 164.364 72.8537C164.174 73.2336 163.984 73.8033 163.984 74.7528V78.266H162.275V71.0497ZM170.726 68.0112C170.726 67.7264 170.821 67.4415 171.011 67.2516C171.201 67.0617 171.486 66.9668 171.77 66.9668C172.055 66.9668 172.34 67.0617 172.53 67.2516C172.72 67.4415 172.815 67.7264 172.815 68.0112C172.815 68.2961 172.72 68.581 172.53 68.7709C172.34 68.9608 172.055 69.0557 171.77 69.0557C171.486 69.0557 171.201 68.9608 171.011 68.7709C170.821 68.581 170.726 68.2961 170.726 68.0112ZM172.625 71.0497V78.266H170.916V71.0497H172.625ZM180.316 71.3345V73.5184C179.936 73.0436 179.556 72.7588 179.272 72.5689C178.987 72.379 178.607 72.284 178.227 72.284C177.562 72.284 177.088 72.4739 176.708 72.9487C176.328 73.4235 176.043 73.8982 176.043 74.5629C176.043 75.2275 176.233 75.7972 176.613 76.272C176.993 76.7467 177.562 76.9366 178.132 76.9366C178.512 76.9366 178.892 76.8417 179.177 76.6518C179.461 76.4619 179.841 76.177 180.221 75.7023V77.8862C179.556 78.266 178.892 78.4559 178.227 78.4559C177.088 78.4559 176.138 78.0761 175.379 77.4114C174.619 76.6518 174.239 75.7972 174.239 74.6578C174.239 73.5184 174.619 72.6638 175.379 71.9042C176.138 71.1446 177.088 70.7648 178.227 70.7648C179.082 70.8598 179.746 71.0497 180.316 71.3345ZM187.627 71.0497H189.336V78.266H187.627V77.5063C186.963 78.171 186.203 78.4559 185.443 78.4559C184.399 78.4559 183.639 78.0761 182.975 77.4114C182.31 76.6518 182.025 75.7972 182.025 74.6578C182.025 73.6134 182.31 72.6638 182.975 71.9042C183.639 71.1446 184.399 70.8598 185.443 70.8598C186.298 70.8598 187.058 71.2396 187.722 71.9042V71.0497H187.627ZM183.639 74.6578C183.639 75.3225 183.829 75.8922 184.209 76.3669C184.589 76.8417 185.064 77.0316 185.633 77.0316C186.298 77.0316 186.773 76.8417 187.152 76.3669C187.532 75.8922 187.722 75.3225 187.722 74.6578C187.722 73.9932 187.532 73.4235 187.152 72.9487C186.773 72.5689 186.298 72.379 185.633 72.379C185.064 72.379 184.589 72.5689 184.209 73.0436C183.829 73.4235 183.639 73.9932 183.639 74.6578ZM193.704 72.5689V78.266H191.995V72.5689H191.235V71.0497H191.995V68.3911H193.704V71.0497H195.033V72.5689H193.704ZM196.458 68.0112C196.458 67.7264 196.553 67.4415 196.743 67.2516C196.932 67.0617 197.217 66.9668 197.502 66.9668C197.787 66.9668 198.072 67.0617 198.262 67.2516C198.452 67.4415 198.547 67.7264 198.547 68.0112C198.547 68.2961 198.452 68.581 198.262 68.7709C198.072 68.9608 197.787 69.0557 197.502 69.0557C197.217 69.0557 196.932 68.9608 196.743 68.7709C196.648 68.581 196.458 68.2961 196.458 68.0112ZM198.452 71.0497V78.266H196.743V71.0497H198.452ZM200.541 74.5629C200.541 73.5184 200.92 72.6638 201.68 71.9042C202.44 71.1446 203.294 70.7648 204.434 70.7648C205.478 70.7648 206.428 71.1446 207.187 71.9042C207.947 72.6638 208.327 73.5184 208.327 74.6578C208.327 75.7023 207.947 76.6518 207.187 77.4114C206.428 78.171 205.478 78.4559 204.434 78.4559C203.389 78.4559 202.44 78.0761 201.68 77.3164C200.825 76.6518 200.541 75.7023 200.541 74.5629ZM202.25 74.6578C202.25 75.4174 202.44 75.9871 202.819 76.3669C203.199 76.7467 203.769 77.0316 204.339 77.0316C205.003 77.0316 205.478 76.8417 205.858 76.3669C206.238 75.8922 206.428 75.4174 206.428 74.6578C206.428 73.8982 206.238 73.4235 205.858 72.9487C205.478 72.5689 204.908 72.284 204.339 72.284C203.674 72.284 203.199 72.4739 202.819 72.9487C202.44 73.4235 202.25 73.9932 202.25 74.6578ZM209.941 71.0497H211.65V71.7143C212.22 71.1446 212.884 70.8598 213.644 70.8598C214.498 70.8598 215.163 71.1446 215.638 71.6194C216.018 72.0941 216.207 72.7588 216.207 73.8033V78.266H214.498V74.1831C214.498 73.4235 214.403 72.9487 214.213 72.6638C214.024 72.379 213.644 72.284 213.169 72.284C212.599 72.284 212.22 72.4739 212.03 72.8537C211.84 73.2336 211.65 73.8033 211.65 74.7528V78.266H209.941V71.0497ZM222.759 72.284L221.335 73.0436C221.24 72.5689 220.955 72.379 220.575 72.379C220.385 72.379 220.29 72.4739 220.195 72.5689C220.1 72.6638 220.006 72.7588 220.006 72.9487C220.006 73.2336 220.29 73.5184 220.955 73.8033C221.81 74.1831 222.474 74.5629 222.759 74.8477C223.044 75.1326 223.234 75.6073 223.234 76.177C223.234 76.8417 222.949 77.4114 222.474 77.8862C221.999 78.3609 221.335 78.5508 220.67 78.5508C219.436 78.5508 218.581 77.9811 218.106 76.7467L219.531 76.0821C219.721 76.4619 219.911 76.6518 220.006 76.7467C220.195 76.9366 220.48 77.0316 220.765 77.0316C221.335 77.0316 221.62 76.7467 221.62 76.272C221.62 75.9871 221.43 75.7023 220.955 75.4174C220.765 75.3225 220.575 75.2275 220.48 75.1326C220.29 75.0376 220.1 74.9427 220.006 74.8477C219.531 74.6578 219.151 74.373 218.961 74.0881C218.676 73.8033 218.581 73.4235 218.581 72.9487C218.581 72.284 218.771 71.8093 219.246 71.4295C219.721 71.0497 220.195 70.8598 220.86 70.8598C221.62 70.8598 222.379 71.3345 222.759 72.284ZM232.729 66.7769V78.266H231.02V66.7769H232.729ZM235.483 71.0497H237.192V71.7143C237.761 71.1446 238.426 70.8598 239.186 70.8598C240.04 70.8598 240.705 71.1446 241.18 71.6194C241.559 72.0941 241.749 72.7588 241.749 73.8033V78.266H240.04V74.1831C240.04 73.4235 239.945 72.9487 239.755 72.6638C239.565 72.379 239.186 72.284 238.711 72.284C238.141 72.284 237.761 72.4739 237.571 72.8537C237.382 73.2336 237.192 73.8033 237.192 74.7528V78.266H235.483V71.0497ZM249.44 71.3345V73.5184C249.061 73.0436 248.681 72.7588 248.396 72.5689C248.111 72.379 247.731 72.284 247.351 72.284C246.687 72.284 246.212 72.4739 245.832 72.9487C245.452 73.4235 245.168 73.8982 245.168 74.5629C245.168 75.2275 245.357 75.7972 245.737 76.272C246.117 76.7467 246.687 76.9366 247.256 76.9366C247.636 76.9366 248.016 76.8417 248.301 76.6518C248.586 76.4619 248.966 76.177 249.345 75.7023V77.8862C248.681 78.266 248.016 78.4559 247.351 78.4559C246.212 78.4559 245.262 78.0761 244.503 77.4114C243.743 76.6518 243.363 75.7972 243.363 74.6578C243.363 73.5184 243.743 72.6638 244.503 71.9042C245.262 71.1446 246.212 70.7648 247.351 70.7648C248.111 70.8598 248.776 71.0497 249.44 71.3345ZM251.624 77.4114C251.624 77.1265 251.719 76.9366 251.909 76.6518C252.099 76.3669 252.384 76.3669 252.669 76.3669C252.954 76.3669 253.238 76.4619 253.428 76.6518C253.618 76.8417 253.713 77.1265 253.713 77.4114C253.713 77.6963 253.618 77.9811 253.428 78.171C253.238 78.3609 252.954 78.4559 252.669 78.4559C252.384 78.4559 252.099 78.3609 251.909 78.171C251.719 77.9811 251.624 77.6963 251.624 77.4114Z" fill="#252525"/>
</g>
<defs>
<clipPath id="clip0_454_1598">
<rect width="252.014" height="44.85" fill="white" transform="translate(1 7)"/>
</clipPath>
<clipPath id="clip1_454_1598">
<rect width="252" height="16.4265" fill="white" transform="translate(1.61816 65.7324)"/>
</clipPath>
</defs>
</svg>
