<svg width="254" height="78" viewBox="0 0 254 78" fill="none" xmlns="http://www.w3.org/2000/svg">
<g clip-path="url(#clip0_259_559)">
<path d="M90.7826 44.8349C81.6446 44.8349 73.1769 42.1164 67.5318 37.047C65.5131 35.2354 63.9047 33.0144 62.8139 30.5324C61.7231 28.0505 61.175 25.3646 61.2062 22.6542C61.2 19.955 61.7595 17.2844 62.849 14.8142C63.9384 12.344 65.5336 10.129 67.5318 8.31178C72.7737 3.55446 82.0478 0.533936 90.7826 0.533936C100.445 0.533936 108.182 2.96545 114.094 8.32185C116.084 10.1385 117.669 12.3539 118.744 14.8235C119.819 17.2931 120.361 19.9614 120.334 22.6542C120.32 25.3497 119.761 28.0146 118.688 30.4882C117.616 32.9618 116.053 35.1929 114.094 37.047C108.585 42.1466 99.9358 44.8349 90.7826 44.8349V39.0053C95.6264 39.0053 100.122 37.334 103.262 34.2127C106.402 31.0915 107.829 27.3058 107.829 22.6341C107.829 18.1738 106.261 14.0055 103.262 11.0554C100.163 8.00972 95.5608 6.29306 90.7826 6.29306C86.0044 6.29306 81.3825 7.99462 78.2827 11.0554C75.2938 14.0105 73.7465 18.1939 73.7465 22.6341C73.7016 24.7674 74.0793 26.8885 74.8578 28.8755C75.6363 30.8626 76.8002 32.6764 78.2827 34.2127C81.3825 37.2987 85.9742 39.0053 90.7826 39.0053V44.8349ZM24.0593 0.533936C19.1753 0.533936 13.6259 1.45016 8.93848 3.55446C4.56351 5.50773 1.00003 8.64403 1.00003 13.8444C0.993458 16.5676 2.03041 19.1902 3.8982 21.1742C5.16331 22.3421 7.20462 24.3256 12.5372 25.4935C14.9213 25.9969 20.017 26.8074 25.0926 27.3411C30.1682 27.8747 35.0875 28.3479 37.1036 28.8866C38.7064 29.2943 41.403 29.8481 41.403 32.8686C41.403 35.8891 38.5653 36.7953 38.0713 36.9916C37.5774 37.188 34.1701 38.7486 28.0512 38.7486C23.9971 38.6362 19.9798 37.9462 16.1209 36.6996C13.8376 35.8841 11.4435 34.8118 9.21066 32.0883C8.30955 30.8058 7.80964 29.2851 7.77417 27.7186H2.22986V43.224H8.38909V41.1247C8.38812 40.969 8.42872 40.8158 8.50671 40.681C8.58471 40.5462 8.69728 40.4346 8.83283 40.3576C8.96838 40.2807 9.12201 40.2413 9.2779 40.2434C9.43379 40.2455 9.5863 40.289 9.71972 40.3696C12.6215 41.6307 15.6399 42.6053 18.7318 43.2793C21.9676 43.9539 24.0593 44.4422 28.0815 44.4422C32.3257 44.5228 36.5556 43.9263 40.6116 42.6752C43.305 41.9379 45.832 40.6921 48.0561 39.0053C49.3071 38.0456 50.3182 36.8091 51.01 35.3932C51.7018 33.9772 52.0554 32.4203 52.043 30.8449C52.064 27.8518 50.9074 24.9701 48.8223 22.8203C47.6628 21.6964 46.3196 20.7788 44.8505 20.1069C43.2713 19.3943 41.6318 18.8232 39.9514 18.4003C36.7558 17.62 29.5784 16.6434 26.146 16.3011C22.5473 15.9285 16.3023 15.41 13.8074 14.6398C13.0514 14.4032 11.509 13.6732 11.509 11.8861C11.509 10.6124 12.2147 9.53509 13.6058 8.66417C15.8185 7.27977 20.2842 6.41892 24.9414 6.41892C29.4493 6.36456 33.9202 7.23677 38.0764 8.98133C39.193 9.46719 40.2431 10.0931 41.2013 10.844C42.7635 12.1766 43.8452 13.9838 44.281 15.9889H49.2557V2.49224H43.7114V4.05788C43.7114 4.5613 43.2074 5.22581 42.1993 4.67708C39.6993 3.37826 32.6732 0.569175 24.0593 0.533936ZM145.777 3.01076L172.874 27.4317L172.597 10.99C172.566 8.8303 172.173 7.92918 169.834 7.92918H164.744V3.01076H187.929V7.92918H182.954C180.575 7.92918 180.434 8.69438 180.394 10.99L180.812 42.4084H172.874L141.659 14.5894V34.3285C141.684 36.4781 141.785 37.49 143.998 37.49H149.542V42.4084H126.816V37.49H132.138C134.124 37.49 134.043 35.5972 134.043 34.2178V11.1762C134.043 9.66598 133.832 7.93421 130.717 7.93421H126.402V3.01076H145.777ZM214.381 37.4799C214.839 37.48 215.297 37.4514 215.751 37.3944C215.988 37.3235 216.206 37.2022 216.39 37.0388C216.575 36.8753 216.721 36.6737 216.82 36.4479C216.89 36.0981 216.925 35.7424 216.926 35.3857V27.6079C216.926 27.3461 216.926 27.3411 216.593 26.9283C216.261 26.5155 202.4 10.8188 201.77 10.114C200.983 9.25821 199.602 7.93421 197.501 7.93421H192.687V3.01076H219.854V7.92414H216.578C215.822 7.92414 215.318 8.64403 215.963 9.4344C215.963 9.4344 225.106 20.3586 225.192 20.4744C225.278 20.5902 225.353 20.6154 225.469 20.5096C225.585 20.4039 234.839 9.53509 234.91 9.4344C235.019 9.29103 235.085 9.11929 235.099 8.93962C235.114 8.75994 235.076 8.57988 234.992 8.42082C234.907 8.26177 234.778 8.13041 234.62 8.04237C234.463 7.95432 234.283 7.91329 234.103 7.92414H230.741V3.01076H253.014V7.93421H248.04C246.235 7.93421 245.519 8.26647 244.143 9.79687L229.149 26.8829C229.002 27.0945 228.937 27.3522 228.967 27.6079V35.3807C228.97 35.7375 229.007 36.0932 229.078 36.4429C229.175 36.6689 229.32 36.8708 229.504 37.0344C229.688 37.1979 229.906 37.3191 230.141 37.3893C230.593 37.4489 231.047 37.4774 231.502 37.4749H236.588V42.3984H209.562V37.4749L214.381 37.4799Z" fill="#003366"/>
</g>
<g clip-path="url(#clip1_259_559)">
<path d="M9.91092 62.3321L8.37203 63.2554C8.16685 62.7425 7.85907 62.4347 7.65389 62.3321C7.34611 62.1269 7.03833 62.1269 6.62796 62.1269C6.01241 62.0243 5.60204 62.2295 5.29427 62.4347C4.98649 62.7425 4.78131 63.1528 4.78131 63.5632C4.78131 64.1788 5.19167 64.6917 6.115 64.9995L7.34611 65.5125C8.37203 65.9228 9.09018 66.4358 9.50055 66.9488C9.91092 67.4617 10.2187 68.2825 10.2187 69.1032C10.2187 70.2317 9.80832 71.155 9.09018 71.9758C8.37203 72.6939 7.34611 73.1043 6.2176 73.1043C5.19167 73.1043 4.26834 72.7965 3.5502 72.181C2.93465 71.5654 2.52428 70.6421 2.31909 69.5136L4.16575 69.1032C4.26834 69.8213 4.37094 70.3343 4.57612 70.6421C4.98649 71.155 5.49945 71.4628 6.2176 71.4628C6.83315 71.4628 7.24352 71.2576 7.65389 70.8473C8.06426 70.4369 8.26944 69.9239 8.26944 69.411C8.26944 69.2058 8.26944 69.0006 8.16685 68.7954C8.16685 68.4876 8.06426 68.2825 7.96166 68.0773C7.85907 67.8721 7.65389 67.7695 7.4487 67.6669C7.14093 67.4617 6.93574 67.3591 6.62796 67.1539L5.39686 66.7436C3.75538 66.0254 2.83205 64.8969 2.83205 63.5632C2.83205 62.6399 3.13983 61.8191 3.85798 61.2036C4.57612 60.588 5.49945 60.2803 6.52537 60.2803C8.06426 60.2803 9.09018 60.9984 9.91092 62.3321ZM12.1679 68.898C12.1679 67.7695 12.5783 66.8462 13.3991 66.0254C14.2198 65.2047 15.1431 64.7943 16.3742 64.7943C17.5027 64.7943 18.5287 65.2047 19.3494 66.0254C20.1701 66.8462 20.5805 67.7695 20.5805 69.0006C20.5805 70.1291 20.1701 71.155 19.3494 71.9758C18.5287 72.7965 17.5027 73.1043 16.3742 73.1043C15.2457 73.1043 14.2198 72.6939 13.3991 71.8732C12.4757 71.155 12.1679 70.1291 12.1679 68.898ZM14.0146 69.0006C14.0146 69.8213 14.2198 70.4369 14.6302 70.8473C15.0405 71.2576 15.6561 71.5654 16.2716 71.5654C16.9898 71.5654 17.5027 71.3602 17.9131 70.8473C18.3235 70.4369 18.5287 69.8213 18.5287 69.0006C18.5287 68.1799 18.3235 67.6669 17.9131 67.1539C17.5027 66.7436 16.8872 66.4358 16.2716 66.4358C15.5535 66.4358 15.0405 66.641 14.6302 67.1539C14.2198 67.6669 14.0146 68.2825 14.0146 69.0006ZM22.3246 65.1021H24.1712V65.8202C24.7868 65.2047 25.5049 64.8969 26.3257 64.8969C27.249 64.8969 27.9671 65.2047 28.4801 65.7177C28.8905 66.2306 29.0957 66.9488 29.0957 68.0773V72.8991H27.249V68.4876C27.249 67.6669 27.1464 67.1539 26.9412 66.8462C26.736 66.641 26.3257 66.5384 25.8127 66.5384C25.1972 66.5384 24.7868 66.7436 24.5816 67.1539C24.3764 67.5643 24.1712 68.1799 24.1712 69.2058V73.0017H22.3246V65.1021ZM34.2253 71.4628L30.7371 65.1021H32.789L35.1486 69.6162L37.4056 65.1021H39.4575L33.1993 77.208H31.1475L34.2253 71.4628ZM47.3571 72.8991V59.6647L56.3852 69.1032V60.4854H58.2319V73.6173L49.2037 64.1788V72.7965H47.3571V72.8991ZM68.1833 69.411H62.5407C62.5407 70.0265 62.7459 70.5395 63.1563 70.9499C63.5666 71.3602 63.977 71.4628 64.5926 71.4628C65.0029 71.4628 65.4133 71.3602 65.7211 71.155C66.0289 70.9499 66.3366 70.5395 66.747 69.9239L68.2859 70.7447C68.0807 71.155 67.7729 71.4628 67.5677 71.7706C67.26 72.0784 67.0548 72.2836 66.747 72.4887C66.4392 72.6939 66.1315 72.7965 65.8237 72.8991C65.5159 73.0017 65.1055 73.0017 64.6952 73.0017C63.5666 73.0017 62.6433 72.5913 61.9252 71.8732C61.207 71.155 60.8992 70.1291 60.8992 68.898C60.8992 67.6669 61.207 66.641 61.9252 65.9228C62.6433 65.2047 63.5666 64.7943 64.6952 64.7943C65.8237 64.7943 66.747 65.2047 67.4652 65.9228C68.0807 66.641 68.4911 67.6669 68.4911 68.898L68.1833 69.411ZM66.3366 67.9747C66.1315 66.9488 65.5159 66.5384 64.49 66.5384C64.2848 66.5384 64.0796 66.5384 63.8744 66.641C63.6692 66.7436 63.4641 66.8462 63.3615 66.9488C63.1563 67.0514 63.0537 67.2565 62.9511 67.3591C62.8485 67.4617 62.7459 67.7695 62.7459 67.9747H66.3366ZM72.4922 66.7436V72.8991H70.6455V66.7436H69.8248V65.1021H70.6455V62.2295H72.4922V65.1021H73.9285V66.7436H72.4922ZM77.4166 65.1021L79.4684 69.5136L81.6229 64.384L83.8799 69.5136L85.9317 65.1021H87.9836L83.8799 73.5147L81.7255 68.4876L79.571 73.5147L75.4673 65.1021H77.4166ZM88.4966 68.898C88.4966 67.7695 88.9069 66.8462 89.7277 66.0254C90.5484 65.3073 91.4717 64.8969 92.6002 64.8969C93.7288 64.8969 94.7547 65.3073 95.5754 66.128C96.3962 66.9488 96.8065 67.8721 96.8065 69.1032C96.8065 70.2317 96.3962 71.2576 95.5754 72.0784C94.7547 72.8991 93.7288 73.2069 92.6002 73.2069C91.4717 73.2069 90.4458 72.7965 89.6251 71.9758C88.9069 71.155 88.4966 70.1291 88.4966 68.898ZM90.3432 69.0006C90.3432 69.8213 90.5484 70.4369 90.9588 70.8473C91.3691 71.2576 91.9847 71.5654 92.6002 71.5654C93.3184 71.5654 93.8313 71.3602 94.2417 70.8473C94.6521 70.4369 94.8573 69.8213 94.8573 69.0006C94.8573 68.1799 94.6521 67.6669 94.2417 67.1539C93.9339 66.7436 93.3184 66.5384 92.6002 66.5384C91.8821 66.5384 91.3691 66.7436 90.9588 67.2565C90.5484 67.6669 90.3432 68.2825 90.3432 69.0006ZM98.7558 65.1021H100.602V65.8202C100.91 65.5125 101.218 65.2047 101.526 65.1021C101.834 64.9995 102.141 64.8969 102.449 64.8969C102.962 64.8969 103.372 65.1021 103.988 65.4099L103.167 67.0514C102.859 66.8462 102.449 66.641 102.141 66.641C101.115 66.641 100.705 67.3591 100.705 68.898V72.8991H98.7558V65.1021ZM107.271 59.3569V67.5643L109.836 64.9995H112.298L108.912 68.2825L112.503 72.7965H110.144L107.579 69.5136L107.271 69.8213V72.7965H105.424V59.3569H107.271ZM129.431 61.2036V63.4606C128.302 62.5373 127.276 62.1269 126.045 62.1269C124.814 62.1269 123.686 62.5373 122.865 63.4606C121.942 64.384 121.531 65.5125 121.531 66.7436C121.531 68.0773 121.942 69.1032 122.865 70.0265C123.788 70.9499 124.814 71.3602 126.045 71.3602C126.661 71.3602 127.276 71.2576 127.687 71.0524C127.892 70.9499 128.2 70.8473 128.508 70.6421C128.815 70.4369 129.123 70.2317 129.328 70.0265V72.2836C128.302 72.8991 127.174 73.2069 125.943 73.2069C124.199 73.2069 122.66 72.5913 121.429 71.3602C120.198 70.1291 119.582 68.5902 119.582 66.8462C119.582 65.3073 120.095 63.871 121.121 62.6399C122.352 61.101 124.096 60.3829 126.148 60.3829C127.379 60.2803 128.405 60.588 129.431 61.2036ZM131.483 68.898C131.483 67.7695 131.893 66.8462 132.714 66.0254C133.535 65.2047 134.458 64.7943 135.689 64.7943C136.817 64.7943 137.843 65.2047 138.664 66.0254C139.485 66.8462 139.895 67.7695 139.895 69.0006C139.895 70.1291 139.485 71.155 138.664 71.9758C137.843 72.7965 136.817 73.1043 135.689 73.1043C134.56 73.1043 133.535 72.6939 132.714 71.8732C131.893 71.155 131.483 70.1291 131.483 68.898ZM133.329 69.0006C133.329 69.8213 133.535 70.4369 133.945 70.8473C134.355 71.2576 134.971 71.5654 135.586 71.5654C136.305 71.5654 136.817 71.3602 137.228 70.8473C137.638 70.4369 137.843 69.8213 137.843 69.0006C137.843 68.1799 137.638 67.6669 137.228 67.1539C136.817 66.7436 136.202 66.4358 135.586 66.4358C134.868 66.4358 134.355 66.641 133.945 67.1539C133.535 67.6669 133.329 68.2825 133.329 69.0006ZM141.332 65.1021H143.178V65.8202C143.486 65.4099 143.794 65.2047 144.102 65.1021C144.409 64.9995 144.717 64.8969 145.127 64.8969C146.051 64.8969 146.666 65.3073 147.179 66.0254C147.795 65.2047 148.513 64.8969 149.436 64.8969C151.18 64.8969 152.104 65.9228 152.104 68.0773V72.8991H150.257V68.5902C150.257 67.8721 150.154 67.3591 149.949 67.0514C149.847 66.641 149.539 66.5384 149.026 66.5384C148.513 66.5384 148.205 66.7436 147.897 67.0514C147.59 67.3591 147.59 68.0773 147.59 68.898V72.8991H145.743V68.5902C145.743 67.1539 145.333 66.5384 144.512 66.5384C143.999 66.5384 143.589 66.7436 143.383 67.1539C143.178 67.5643 143.076 68.1799 143.076 69.0006V73.0017H141.229V65.1021H141.332ZM154.053 65.1021H155.9V65.8202C156.207 65.4099 156.515 65.2047 156.823 65.1021C157.131 64.9995 157.439 64.8969 157.849 64.8969C158.772 64.8969 159.388 65.3073 159.901 66.0254C160.516 65.2047 161.234 64.8969 162.158 64.8969C163.902 64.8969 164.825 65.9228 164.825 68.0773V72.8991H162.979V68.5902C162.979 67.8721 162.876 67.3591 162.671 67.0514C162.466 66.7436 162.158 66.5384 161.747 66.5384C161.234 66.5384 160.927 66.7436 160.619 67.0514C160.414 67.4617 160.311 68.0773 160.311 68.898V72.8991H158.464V68.5902C158.464 67.1539 158.054 66.5384 157.233 66.5384C156.72 66.5384 156.31 66.7436 156.105 67.1539C155.9 67.5643 155.797 68.1799 155.797 69.0006V73.0017H153.95V65.1021H154.053ZM168.826 65.1021V69.6162C168.826 70.9499 169.339 71.5654 170.365 71.5654C171.391 71.5654 171.904 70.9499 171.904 69.6162V65.1021H173.751V69.6162C173.751 70.2317 173.648 70.7447 173.545 71.2576C173.443 71.668 173.135 72.0784 172.725 72.3861C172.109 72.8991 171.391 73.2069 170.365 73.2069C169.442 73.2069 168.621 72.8991 168.006 72.3861C167.595 72.0784 167.39 71.668 167.185 71.2576C167.082 70.8473 166.98 70.3343 166.98 69.6162V65.1021H168.826ZM175.905 65.1021H177.752V65.8202C178.367 65.2047 179.085 64.8969 179.906 64.8969C180.83 64.8969 181.548 65.2047 182.061 65.7177C182.471 66.2306 182.676 66.9488 182.676 68.0773V72.8991H180.83V68.4876C180.83 67.6669 180.727 67.1539 180.522 66.8462C180.317 66.5384 179.906 66.4358 179.393 66.4358C178.778 66.4358 178.367 66.641 178.162 67.0514C177.957 67.4617 177.752 68.0773 177.752 69.1032V72.8991H175.905V65.1021ZM185.036 61.8191C185.036 61.5114 185.138 61.2036 185.344 60.9984C185.549 60.7932 185.857 60.6906 186.164 60.6906C186.472 60.6906 186.78 60.7932 186.985 60.9984C187.19 61.2036 187.293 61.5114 187.293 61.8191C187.293 62.1269 187.19 62.4347 186.985 62.6399C186.78 62.8451 186.472 62.9477 186.164 62.9477C185.857 62.9477 185.549 62.8451 185.344 62.6399C185.138 62.4347 185.036 62.1269 185.036 61.8191ZM187.088 65.1021V72.8991H185.241V65.1021H187.088ZM195.398 65.4099V67.7695C194.987 67.2565 194.577 66.9488 194.269 66.7436C193.961 66.5384 193.551 66.4358 193.141 66.4358C192.422 66.4358 191.91 66.641 191.499 67.1539C191.089 67.6669 190.781 68.1799 190.781 68.898C190.781 69.6162 190.986 70.2317 191.397 70.7447C191.807 71.2576 192.422 71.4628 193.038 71.4628C193.448 71.4628 193.859 71.3602 194.167 71.155C194.474 70.9499 194.885 70.6421 195.295 70.1291V72.4887C194.577 72.8991 193.859 73.1043 193.141 73.1043C191.91 73.1043 190.884 72.6939 190.063 71.9758C189.242 71.155 188.832 70.2317 188.832 69.0006C188.832 67.7695 189.242 66.8462 190.063 66.0254C190.884 65.2047 191.91 64.7943 193.141 64.7943C194.064 64.8969 194.782 65.1021 195.398 65.4099ZM203.297 65.1021H205.144V72.8991H203.297V72.0784C202.579 72.7965 201.758 73.1043 200.938 73.1043C199.809 73.1043 198.988 72.6939 198.27 71.9758C197.552 71.155 197.244 70.2317 197.244 69.0006C197.244 67.8721 197.552 66.8462 198.27 66.0254C198.988 65.2047 199.809 64.8969 200.938 64.8969C201.861 64.8969 202.682 65.3073 203.4 66.0254V65.1021H203.297ZM198.988 69.0006C198.988 69.7187 199.194 70.3343 199.604 70.8473C200.014 71.3602 200.527 71.5654 201.143 71.5654C201.861 71.5654 202.374 71.3602 202.784 70.8473C203.195 70.3343 203.4 69.7187 203.4 69.0006C203.4 68.2825 203.195 67.6669 202.784 67.1539C202.374 66.7436 201.861 66.5384 201.143 66.5384C200.527 66.5384 200.014 66.7436 199.604 67.2565C199.194 67.6669 198.988 68.2825 198.988 69.0006ZM209.863 66.7436V72.8991H208.016V66.7436H207.196V65.1021H208.016V62.2295H209.863V65.1021H211.299V66.7436H209.863ZM212.838 61.8191C212.838 61.5114 212.941 61.2036 213.146 60.9984C213.351 60.7932 213.659 60.6906 213.967 60.6906C214.275 60.6906 214.582 60.7932 214.788 60.9984C214.993 61.2036 215.095 61.5114 215.095 61.8191C215.095 62.1269 214.993 62.4347 214.788 62.6399C214.582 62.8451 214.275 62.9477 213.967 62.9477C213.659 62.9477 213.351 62.8451 213.146 62.6399C213.044 62.4347 212.838 62.1269 212.838 61.8191ZM214.993 65.1021V72.8991H213.146V65.1021H214.993ZM217.25 68.898C217.25 67.7695 217.66 66.8462 218.481 66.0254C219.302 65.2047 220.225 64.7943 221.456 64.7943C222.585 64.7943 223.611 65.2047 224.431 66.0254C225.252 66.8462 225.662 67.7695 225.662 69.0006C225.662 70.1291 225.252 71.155 224.431 71.9758C223.611 72.7965 222.585 73.1043 221.456 73.1043C220.328 73.1043 219.302 72.6939 218.481 71.8732C217.558 71.155 217.25 70.1291 217.25 68.898ZM219.096 69.0006C219.096 69.8213 219.302 70.4369 219.712 70.8473C220.122 71.2576 220.738 71.5654 221.353 71.5654C222.072 71.5654 222.585 71.3602 222.995 70.8473C223.405 70.3343 223.611 69.8213 223.611 69.0006C223.611 68.1799 223.405 67.6669 222.995 67.1539C222.585 66.7436 221.969 66.4358 221.353 66.4358C220.635 66.4358 220.122 66.641 219.712 67.1539C219.302 67.6669 219.096 68.2825 219.096 69.0006ZM227.406 65.1021H229.253V65.8202C229.869 65.2047 230.587 64.8969 231.408 64.8969C232.331 64.8969 233.049 65.2047 233.562 65.7177C233.972 66.2306 234.178 66.9488 234.178 68.0773V72.8991H232.331V68.4876C232.331 67.6669 232.228 67.1539 232.023 66.8462C231.818 66.5384 231.408 66.4358 230.895 66.4358C230.279 66.4358 229.869 66.641 229.663 67.0514C229.458 67.4617 229.253 68.0773 229.253 69.1032V72.8991H227.406V65.1021ZM241.256 66.4358L239.717 67.2565C239.615 66.7436 239.307 66.5384 238.897 66.5384C238.692 66.5384 238.589 66.641 238.486 66.7436C238.384 66.8462 238.281 66.9488 238.281 67.1539C238.281 67.4617 238.589 67.7695 239.307 68.0773C240.23 68.4876 240.949 68.898 241.256 69.2058C241.564 69.5136 241.769 70.0265 241.769 70.6421C241.769 71.3602 241.462 71.9758 240.949 72.4887C240.436 73.0017 239.717 73.2069 238.999 73.2069C237.666 73.2069 236.742 72.5913 236.229 71.2576L237.768 70.5395C237.973 70.9499 238.179 71.155 238.281 71.2576C238.486 71.4628 238.794 71.5654 239.102 71.5654C239.717 71.5654 240.025 71.2576 240.025 70.7447C240.025 70.4369 239.82 70.1291 239.307 69.8213C239.102 69.7187 238.897 69.6162 238.794 69.5136C238.589 69.411 238.384 69.3084 238.281 69.2058C237.768 69.0006 237.358 68.6928 237.153 68.3851C236.845 68.0773 236.742 67.6669 236.742 67.1539C236.742 66.4358 236.947 65.9228 237.46 65.5125C237.973 65.1021 238.486 64.8969 239.205 64.8969C240.025 64.8969 240.846 65.4099 241.256 66.4358Z" fill="#010101"/>
</g>
<defs>
<clipPath id="clip0_259_559">
<rect width="252.014" height="44.85" fill="white" transform="translate(1)"/>
</clipPath>
<clipPath id="clip1_259_559">
<rect width="240.066" height="18.4666" fill="white" transform="translate(2.31909 59.3569)"/>
</clipPath>
</defs>
</svg>
