<svg width="1295" height="306" viewBox="0 0 1295 306" fill="none" xmlns="http://www.w3.org/2000/svg">
<path d="M449.632 101L450.491 136.29H447.29C445.78 127.442 442.059 120.337 436.125 114.976C430.243 109.562 423.867 106.856 416.996 106.856C411.687 106.856 407.471 108.287 404.348 111.15C401.277 113.961 399.741 117.214 399.741 120.909C399.741 123.252 400.288 125.334 401.381 127.155C402.89 129.602 405.311 132.022 408.642 134.417C411.088 136.134 416.736 139.179 425.585 143.551C437.973 149.641 446.327 155.393 450.647 160.806C454.915 166.22 457.049 172.414 457.049 179.388C457.049 188.237 453.588 195.862 446.665 202.265C439.794 208.615 431.05 211.79 420.432 211.79C417.1 211.79 413.951 211.452 410.984 210.775C408.017 210.098 404.296 208.823 399.819 206.949C397.321 205.908 395.265 205.388 393.651 205.388C392.298 205.388 390.867 205.908 389.357 206.949C387.848 207.99 386.625 209.578 385.688 211.712H382.799V171.737H385.688C387.978 182.98 392.376 191.568 398.883 197.502C405.441 203.384 412.494 206.325 420.041 206.325C425.871 206.325 430.503 204.737 433.939 201.562C437.426 198.387 439.17 194.691 439.17 190.475C439.17 187.977 438.493 185.556 437.14 183.214C435.839 180.872 433.835 178.66 431.128 176.578C428.421 174.444 423.633 171.685 416.762 168.302C407.133 163.565 400.21 159.531 395.994 156.2C391.778 152.869 388.524 149.147 386.234 145.035C383.996 140.923 382.877 136.395 382.877 131.45C382.877 123.017 385.974 115.834 392.168 109.901C398.362 103.967 406.17 101 415.591 101C419.026 101 422.357 101.416 425.585 102.249C428.031 102.874 430.998 104.045 434.485 105.763C438.025 107.428 440.497 108.261 441.902 108.261C443.256 108.261 444.323 107.845 445.104 107.012C445.884 106.179 446.613 104.175 447.29 101H449.632Z" fill="url(#paint0_linear_259_595)"/>
<path d="M499.002 109.588V136.29H516.335V144.02H499.002V189.07C499.002 193.286 499.184 196.019 499.549 197.268C499.965 198.465 500.668 199.454 501.657 200.235C502.646 200.963 503.557 201.328 504.39 201.328C507.773 201.328 510.974 198.751 513.993 193.598L516.335 195.316C512.119 205.31 505.274 210.307 495.801 210.307C491.169 210.307 487.239 209.031 484.012 206.481C480.837 203.878 478.807 200.989 477.922 197.814C477.401 196.045 477.141 191.256 477.141 183.448V144.02H467.616V141.287C474.174 136.655 479.744 131.788 484.324 126.687C488.957 121.586 492.99 115.887 496.426 109.588H499.002Z" fill="url(#paint1_linear_259_595)"/>
<path d="M564.691 198.517C555.79 206.377 547.8 210.307 540.721 210.307C536.557 210.307 533.096 208.953 530.337 206.247C527.578 203.488 526.199 200.053 526.199 195.941C526.199 190.371 528.593 185.374 533.382 180.95C538.171 176.474 548.607 170.54 564.691 163.149V155.809C564.691 150.292 564.378 146.831 563.754 145.425C563.181 143.968 562.062 142.719 560.396 141.678C558.731 140.585 556.857 140.038 554.775 140.038C551.392 140.038 548.607 140.793 546.421 142.302C545.067 143.239 544.391 144.332 544.391 145.581C544.391 146.675 545.119 148.028 546.577 149.641C548.555 151.88 549.544 154.04 549.544 156.122C549.544 158.672 548.581 160.858 546.655 162.68C544.781 164.45 542.309 165.335 539.238 165.335C535.959 165.335 533.2 164.346 530.962 162.368C528.776 160.39 527.682 158.074 527.682 155.419C527.682 151.671 529.166 148.106 532.133 144.723C535.1 141.287 539.238 138.659 544.547 136.837C549.856 135.015 555.373 134.104 561.099 134.104C568.022 134.104 573.487 135.588 577.495 138.555C581.555 141.469 584.184 144.645 585.381 148.08C586.109 150.266 586.474 155.289 586.474 163.149V191.49C586.474 194.821 586.604 196.93 586.864 197.814C587.124 198.647 587.515 199.272 588.035 199.688C588.556 200.105 589.154 200.313 589.831 200.313C591.184 200.313 592.564 199.35 593.969 197.424L596.311 199.298C593.709 203.15 591.002 205.96 588.191 207.73C585.433 209.448 582.284 210.307 578.744 210.307C574.58 210.307 571.327 209.344 568.985 207.418C566.642 205.44 565.211 202.473 564.691 198.517ZM564.691 192.818V168.38C558.392 172.075 553.708 176.031 550.637 180.247C548.607 183.058 547.592 185.895 547.592 188.758C547.592 191.152 548.451 193.26 550.168 195.082C551.47 196.487 553.291 197.19 555.634 197.19C558.236 197.19 561.255 195.732 564.691 192.818Z" fill="url(#paint2_linear_259_595)"/>
<path d="M635.766 136.29V152.843C640.607 145.295 644.849 140.298 648.492 137.852C652.136 135.353 655.649 134.104 659.033 134.104C661.948 134.104 664.264 135.015 665.982 136.837C667.751 138.607 668.636 141.131 668.636 144.41C668.636 147.898 667.777 150.604 666.06 152.53C664.394 154.456 662.364 155.419 659.97 155.419C657.211 155.419 654.817 154.534 652.787 152.764C650.757 150.995 649.559 150.006 649.195 149.798C648.675 149.485 648.076 149.329 647.399 149.329C645.89 149.329 644.459 149.902 643.105 151.047C640.971 152.817 639.358 155.341 638.264 158.62C636.599 163.669 635.766 169.239 635.766 175.328V192.115L635.844 196.487C635.844 199.454 636.026 201.354 636.391 202.187C637.015 203.592 637.926 204.633 639.123 205.31C640.373 205.934 642.455 206.325 645.369 206.481V209.292H605.941V206.481C609.116 206.221 611.25 205.362 612.343 203.904C613.488 202.395 614.061 198.465 614.061 192.115V151.749C614.061 147.585 613.853 144.931 613.436 143.786C612.916 142.328 612.161 141.261 611.172 140.585C610.183 139.908 608.439 139.439 605.941 139.179V136.29H635.766Z" fill="url(#paint3_linear_259_595)"/>
<path d="M706.607 109.588V136.29H723.94V144.02H706.607V189.07C706.607 193.286 706.789 196.019 707.154 197.268C707.57 198.465 708.273 199.454 709.262 200.235C710.251 200.963 711.162 201.328 711.995 201.328C715.378 201.328 718.579 198.751 721.598 193.598L723.94 195.316C719.724 205.31 712.879 210.307 703.406 210.307C698.774 210.307 694.844 209.031 691.617 206.481C688.442 203.878 686.412 200.989 685.527 197.814C685.006 196.045 684.746 191.256 684.746 183.448V144.02H675.221V141.287C681.779 136.655 687.349 131.788 691.929 126.687C696.562 121.586 700.595 115.887 704.031 109.588H706.607Z" fill="url(#paint4_linear_259_595)"/>
<path d="M772.296 198.517C763.395 206.377 755.405 210.307 748.326 210.307C744.162 210.307 740.701 208.953 737.942 206.247C735.183 203.488 733.804 200.053 733.804 195.941C733.804 190.371 736.198 185.374 740.987 180.95C745.776 176.474 756.212 170.54 772.296 163.149V155.809C772.296 150.292 771.983 146.831 771.359 145.425C770.786 143.968 769.667 142.719 768.001 141.678C766.336 140.585 764.462 140.038 762.38 140.038C758.997 140.038 756.212 140.793 754.026 142.302C752.672 143.239 751.996 144.332 751.996 145.581C751.996 146.675 752.724 148.028 754.182 149.641C756.16 151.88 757.149 154.04 757.149 156.122C757.149 158.672 756.186 160.858 754.26 162.68C752.386 164.45 749.914 165.335 746.843 165.335C743.564 165.335 740.805 164.346 738.567 162.368C736.381 160.39 735.287 158.074 735.287 155.419C735.287 151.671 736.771 148.106 739.738 144.723C742.705 141.287 746.843 138.659 752.152 136.837C757.461 135.015 762.978 134.104 768.704 134.104C775.627 134.104 781.092 135.588 785.1 138.555C789.16 141.469 791.789 144.645 792.986 148.08C793.714 150.266 794.079 155.289 794.079 163.149V191.49C794.079 194.821 794.209 196.93 794.469 197.814C794.729 198.647 795.12 199.272 795.64 199.688C796.161 200.105 796.759 200.313 797.436 200.313C798.789 200.313 800.169 199.35 801.574 197.424L803.916 199.298C801.314 203.15 798.607 205.96 795.796 207.73C793.038 209.448 789.889 210.307 786.349 210.307C782.185 210.307 778.932 209.344 776.59 207.418C774.247 205.44 772.816 202.473 772.296 198.517ZM772.296 192.818V168.38C765.997 172.075 761.313 176.031 758.242 180.247C756.212 183.058 755.197 185.895 755.197 188.758C755.197 191.152 756.056 193.26 757.773 195.082C759.075 196.487 760.896 197.19 763.239 197.19C765.841 197.19 768.86 195.732 772.296 192.818Z" fill="url(#paint5_linear_259_595)"/>
<path d="M841.653 103.42V194.145C841.653 199.298 842.252 202.603 843.449 204.06C844.646 205.466 846.989 206.273 850.476 206.481V209.292H811.048V206.481C814.275 206.377 816.669 205.44 818.231 203.67C819.272 202.473 819.792 199.298 819.792 194.145V118.567C819.792 113.466 819.193 110.213 817.996 108.808C816.799 107.35 814.483 106.517 811.048 106.309V103.42H841.653Z" fill="url(#paint6_linear_259_595)"/>
<path d="M920.536 170.175H880.483C880.952 179.857 883.528 187.508 888.213 193.13C891.804 197.45 896.125 199.61 901.174 199.61C904.297 199.61 907.133 198.751 909.684 197.034C912.234 195.264 914.967 192.115 917.882 187.586L920.536 189.304C916.581 197.372 912.208 203.098 907.42 206.481C902.631 209.812 897.088 211.478 890.789 211.478C879.963 211.478 871.765 207.314 866.195 198.986C861.719 192.271 859.481 183.943 859.481 174.001C859.481 161.821 862.76 152.14 869.318 144.957C875.929 137.722 883.658 134.104 892.507 134.104C899.898 134.104 906.301 137.149 911.714 143.239C917.179 149.277 920.12 158.256 920.536 170.175ZM901.33 164.944C901.33 156.564 900.861 150.813 899.924 147.69C899.039 144.566 897.634 142.198 895.708 140.585C894.615 139.648 893.158 139.179 891.336 139.179C888.629 139.179 886.417 140.507 884.699 143.161C881.628 147.794 880.093 154.144 880.093 162.212V164.944H901.33Z" fill="url(#paint7_linear_259_595)"/>
<path d="M1067.53 172.127L1063.55 209.292H969.543V206.403H973.056C976.127 206.403 978.599 205.856 980.473 204.763C981.827 204.034 982.868 202.785 983.596 201.016C984.169 199.766 984.455 196.487 984.455 191.178V121.534C984.455 116.121 984.169 112.737 983.596 111.384C983.024 110.031 981.853 108.86 980.083 107.871C978.365 106.83 976.023 106.309 973.056 106.309H969.543V103.42H1025.99V106.309H1021.39C1018.31 106.309 1015.84 106.856 1013.97 107.949C1012.61 108.677 1011.55 109.927 1010.77 111.696C1010.19 112.946 1009.91 116.225 1009.91 121.534V188.992C1009.91 194.405 1010.22 197.866 1010.84 199.376C1011.47 200.833 1012.69 201.926 1014.51 202.655C1015.82 203.124 1018.96 203.358 1023.96 203.358H1032.78C1038.41 203.358 1043.09 202.369 1046.84 200.391C1050.59 198.413 1053.81 195.29 1056.52 191.022C1059.28 186.754 1061.88 180.455 1064.33 172.127H1067.53Z" fill="url(#paint8_linear_259_595)"/>
<path d="M1117.3 198.517C1108.4 206.377 1100.41 210.307 1093.33 210.307C1089.17 210.307 1085.71 208.953 1082.95 206.247C1080.19 203.488 1078.81 200.053 1078.81 195.941C1078.81 190.371 1081.21 185.374 1085.99 180.95C1090.78 176.474 1101.22 170.54 1117.3 163.149V155.809C1117.3 150.292 1116.99 146.831 1116.37 145.425C1115.79 143.968 1114.67 142.719 1113.01 141.678C1111.34 140.585 1109.47 140.038 1107.39 140.038C1104 140.038 1101.22 140.793 1099.03 142.302C1097.68 143.239 1097 144.332 1097 145.581C1097 146.675 1097.73 148.028 1099.19 149.641C1101.17 151.88 1102.16 154.04 1102.16 156.122C1102.16 158.672 1101.19 160.858 1099.27 162.68C1097.39 164.45 1094.92 165.335 1091.85 165.335C1088.57 165.335 1085.81 164.346 1083.57 162.368C1081.39 160.39 1080.3 158.074 1080.3 155.419C1080.3 151.671 1081.78 148.106 1084.75 144.723C1087.71 141.287 1091.85 138.659 1097.16 136.837C1102.47 135.015 1107.99 134.104 1113.71 134.104C1120.63 134.104 1126.1 135.588 1130.11 138.555C1134.17 141.469 1136.8 144.645 1137.99 148.08C1138.72 150.266 1139.09 155.289 1139.09 163.149V191.49C1139.09 194.821 1139.22 196.93 1139.48 197.814C1139.74 198.647 1140.13 199.272 1140.65 199.688C1141.17 200.105 1141.77 200.313 1142.44 200.313C1143.8 200.313 1145.18 199.35 1146.58 197.424L1148.92 199.298C1146.32 203.15 1143.61 205.96 1140.8 207.73C1138.05 209.448 1134.9 210.307 1131.36 210.307C1127.19 210.307 1123.94 209.344 1121.6 207.418C1119.26 205.44 1117.82 202.473 1117.3 198.517ZM1117.3 192.818V168.38C1111.01 172.075 1106.32 176.031 1103.25 180.247C1101.22 183.058 1100.2 185.895 1100.2 188.758C1100.2 191.152 1101.06 193.26 1102.78 195.082C1104.08 196.487 1105.9 197.19 1108.25 197.19C1110.85 197.19 1113.87 195.732 1117.3 192.818Z" fill="url(#paint9_linear_259_595)"/>
<path d="M1183.63 103.42V143.63C1189.77 137.279 1196.49 134.104 1203.77 134.104C1208.77 134.104 1213.48 135.588 1217.91 138.555C1222.33 141.469 1225.79 145.634 1228.29 151.047C1230.79 156.46 1232.04 162.706 1232.04 169.785C1232.04 177.749 1230.45 184.984 1227.28 191.49C1224.1 197.997 1219.86 202.967 1214.55 206.403C1209.24 209.786 1203.18 211.478 1196.36 211.478C1192.4 211.478 1188.89 210.853 1185.82 209.604C1182.75 208.355 1179.73 206.325 1176.76 203.514L1164.66 211.4H1162V118.567C1162 114.351 1161.82 111.748 1161.46 110.76C1160.94 109.302 1160.1 108.235 1158.96 107.558C1157.87 106.83 1155.99 106.413 1153.34 106.309V103.42H1183.63ZM1183.63 150.578V183.058C1183.63 189.668 1183.79 193.885 1184.1 195.706C1184.62 198.777 1185.87 201.276 1187.85 203.202C1189.82 205.075 1192.35 206.012 1195.42 206.012C1198.07 206.012 1200.34 205.258 1202.21 203.748C1204.14 202.239 1205.73 199.246 1206.98 194.769C1208.28 190.293 1208.93 182.225 1208.93 170.566C1208.93 159.375 1207.52 151.697 1204.71 147.533C1202.68 144.514 1199.95 143.005 1196.51 143.005C1192.04 143.005 1187.74 145.529 1183.63 150.578Z" fill="url(#paint10_linear_259_595)"/>
<path d="M1288.92 134.26L1290.09 159.167H1287.43C1284.26 151.775 1280.95 146.727 1277.52 144.02C1274.14 141.313 1270.75 139.96 1267.37 139.96C1265.23 139.96 1263.41 140.689 1261.9 142.146C1260.39 143.551 1259.64 145.191 1259.64 147.065C1259.64 148.47 1260.16 149.824 1261.2 151.125C1262.87 153.259 1267.52 156.929 1275.18 162.134C1282.83 167.287 1287.85 171.685 1290.24 175.328C1292.69 178.92 1293.91 182.954 1293.91 187.43C1293.91 191.49 1292.9 195.472 1290.87 199.376C1288.84 203.28 1285.98 206.273 1282.28 208.355C1278.59 210.437 1274.5 211.478 1270.02 211.478C1266.54 211.478 1261.88 210.385 1256.05 208.199C1254.49 207.626 1253.42 207.34 1252.85 207.34C1251.13 207.34 1249.7 208.641 1248.55 211.243H1245.98L1244.73 185.01H1247.38C1249.72 191.881 1252.92 197.034 1256.98 200.469C1261.1 203.904 1264.97 205.622 1268.62 205.622C1271.12 205.622 1273.15 204.867 1274.71 203.358C1276.32 201.796 1277.13 199.922 1277.13 197.736C1277.13 195.238 1276.35 193.078 1274.79 191.256C1273.22 189.434 1269.74 186.676 1264.32 182.98C1256.36 177.463 1251.21 173.246 1248.86 170.332C1245.43 166.063 1243.71 161.353 1243.71 156.2C1243.71 150.578 1245.64 145.503 1249.49 140.975C1253.39 136.395 1259.01 134.104 1266.35 134.104C1270.31 134.104 1274.14 135.067 1277.83 136.993C1279.24 137.774 1280.38 138.164 1281.27 138.164C1282.2 138.164 1282.96 137.982 1283.53 137.618C1284.1 137.201 1285.01 136.082 1286.26 134.26H1288.92Z" fill="url(#paint11_linear_259_595)"/>
<path fill-rule="evenodd" clip-rule="evenodd" d="M287.009 85.58C276.029 63.71 260.159 45.42 241.189 31.67C215.839 13.28 184.989 3 153.009 3V27.97C172.519 27.95 191.899 32.54 209.779 41.65C215.669 44.65 221.249 48.07 226.499 51.87C237.349 59.71 246.769 69.18 254.499 79.95L286.999 85.57H287.009V85.58ZM295.689 106.69H295.669H295.689ZM295.669 106.69C305.859 138.04 305.159 170.3 295.669 199.4C288.289 222.04 275.589 242.75 258.549 259.64L253.849 226.94C257.779 221.56 261.319 215.83 264.399 209.78C267.399 203.89 269.899 197.84 271.919 191.68C280.099 166.71 280.189 139.88 271.909 114.41L295.669 106.69V106.69ZM191.659 271.91C178.979 276.03 165.959 278.07 153.009 278.08C139.789 278.09 126.619 275.98 113.949 271.77L84.3193 286.34C105.309 297.16 128.839 303.05 153.009 303.05C168.369 303.05 183.989 300.68 199.389 295.68C214.769 290.68 228.789 283.43 241.199 274.41L226.519 254.21C216.039 261.8 204.319 267.79 191.659 271.91ZM27.9793 152.57C27.9393 165.67 29.9793 178.84 34.1493 191.66C42.4293 217.11 58.2593 238.76 79.5393 254.16L64.8593 274.37C40.0893 256.4 20.5593 230.72 10.3793 199.38C2.71929 175.83 1.21929 151.75 4.96929 128.89L27.9793 152.57ZM79.5093 51.87C63.7293 63.32 50.7693 78.41 41.6593 96.28C38.6493 102.18 36.1493 108.24 34.1293 114.41L10.3693 106.69C20.0693 76.92 38.9593 50.46 64.8293 31.67C77.2493 22.64 91.2793 15.37 106.679 10.37C114.499 7.83 122.369 5.98 130.239 4.76L114.799 34.03L114.409 34.15C101.729 38.27 89.9993 44.26 79.5093 51.87V51.87Z" fill="url(#paint12_linear_259_595)"/>
<path d="M295.05 107.94C304.55 137.83 304.44 169.32 294.74 199.09C287.61 220.96 275.37 241.11 259.27 257.51L254.91 227.2C258.81 221.82 262.31 216.12 265.3 210.24C268.28 204.39 270.83 198.25 272.88 192C281.08 166.95 281.18 140.36 273.17 115.06L294.85 107.37M295.69 106.69L271.91 114.42C280.19 139.89 280.1 166.72 271.92 191.69C269.9 197.85 267.4 203.9 264.4 209.79C261.32 215.84 257.78 221.57 253.85 226.95L258.55 259.65C275.59 242.76 288.29 222.05 295.67 199.41C305.16 170.3 305.86 138.04 295.67 106.69H295.69Z" fill="#2A3039"/>
<path d="M226.3 255.61L240.29 273.85C227.88 282.73 213.69 289.99 199.08 294.74C184.13 299.6 168.63 302.06 153.01 302.06C130.11 302.06 107.18 296.64 86.5596 286.36L114.02 272.86C126.63 276.99 139.71 279.09 152.9 279.09H153.01C166.19 279.08 179.3 276.98 191.97 272.87C204.31 268.86 215.85 263.06 226.3 255.62M226.52 254.23C216.04 261.82 204.32 267.81 191.66 271.93C178.98 276.05 165.96 278.09 153.01 278.1H152.9C139.71 278.1 126.59 275.98 113.94 271.79L84.3096 286.36C105.3 297.18 128.82 303.07 153 303.07C168.36 303.07 183.98 300.7 199.38 295.7C214.76 290.7 228.78 283.45 241.19 274.43L226.51 254.23H226.52Z" fill="#2A3039"/>
<path d="M5.64929 131.02L26.9893 152.97C26.9893 166.16 29.0893 179.27 33.2093 191.96C41.4193 217.22 56.9493 238.78 78.1493 254.38L65.0893 273.29C39.8993 254.76 21.0293 228.91 11.3293 199.07C4.09929 176.83 2.18929 153.95 5.64929 131.02ZM4.96929 128.89C1.21929 151.75 2.71929 175.83 10.3793 199.38C20.5593 230.72 40.0893 256.4 64.8593 274.37L79.5393 254.16C58.2593 238.76 42.4293 217.11 34.1493 191.65C29.9793 178.83 27.9393 165.66 27.9793 152.56L4.96929 128.89V128.89Z" fill="#2A3039"/>
<path d="M153.409 4C168.789 4.1 184.619 6.58 199.299 11.39C214.099 16.24 227.999 23.33 240.599 32.47C259.229 45.98 274.619 63.85 285.209 84.25L255.079 79.04C247.289 68.27 237.869 58.86 227.089 51.07C221.759 47.21 216.089 43.75 210.239 40.77C192.529 31.75 173.619 27.11 154.009 26.98L153.409 4V4ZM153.059 3H153.009V27.97H153.169C172.629 27.97 191.949 32.56 209.789 41.65C215.679 44.65 221.259 48.07 226.509 51.87C237.359 59.71 246.779 69.18 254.509 79.95L287.009 85.57C276.029 63.7 260.159 45.41 241.189 31.66C215.849 13.3 185.019 3 153.059 3Z" fill="#2A3039"/>
<path d="M128.419 6.06L114.109 33.19H114.099C101.429 37.31 89.5894 43.32 78.9194 51.06C62.7694 62.77 49.9294 77.83 40.7694 95.82C37.9294 101.39 35.4894 107.21 33.4994 113.15L11.4594 106.61C16.2794 92.15 23.4194 78 32.3494 65.65C41.5894 52.87 52.7094 41.71 65.4194 32.48C78.0594 23.3 92.0394 16.18 106.989 11.32C113.979 9.05 121.179 7.28 128.419 6.06M130.239 4.75C122.369 5.97 114.499 7.82 106.679 10.36C91.2794 15.36 77.2494 22.63 64.8294 31.66C38.9594 50.46 20.0694 76.92 10.3694 106.69L34.1294 114.41C36.1494 108.24 38.6494 102.18 41.6594 96.28C50.7694 78.41 63.7294 63.32 79.5094 51.87C89.9994 44.26 101.729 38.27 114.409 34.15C114.539 34.11 114.669 34.07 114.799 34.03L130.239 4.76V4.75Z" fill="#2A3039"/>
<path d="M295.829 199.72L272.069 192C270.049 198.16 267.549 204.21 264.549 210.1C261.469 216.15 257.929 221.88 253.999 227.26L258.699 259.96C275.739 243.07 288.439 222.36 295.819 199.72H295.829V199.72Z" fill="url(#paint13_linear_259_595)"/>
<path d="M153.009 303.06V278.09C139.789 278.1 126.619 275.99 113.949 271.78L84.3193 286.35C105.309 297.17 128.839 303.06 153.009 303.06Z" fill="url(#paint14_linear_259_595)"/>
<path d="M10.3793 199.38L34.1593 191.65C29.9893 178.83 27.9493 165.66 27.9893 152.56L4.96929 128.89C1.21929 151.75 2.71929 175.83 10.3793 199.38Z" fill="url(#paint15_linear_259_595)"/>
<path d="M241.189 31.6699L226.509 51.8799C237.359 59.7199 246.779 69.1899 254.509 79.9599L287.009 85.5799C276.029 63.7099 260.159 45.4199 241.189 31.6699V31.6699Z" fill="url(#paint16_linear_259_595)"/>
<path d="M106.679 10.3698C91.2791 15.3698 77.2491 22.6398 64.8291 31.6698L79.5091 51.8698C89.9991 44.2598 101.729 38.2698 114.409 34.1498C114.539 34.1098 114.669 34.0698 114.799 34.0298L130.239 4.75977C122.369 5.97977 114.499 7.82977 106.679 10.3698V10.3698Z" fill="url(#paint17_linear_259_595)"/>
<path d="M227.139 177.12L227.589 176.66L295.559 106.72L199.459 90.0904L198.819 89.9804L198.519 89.4104L153.009 3.15039L107.499 89.4104L107.199 89.9804L106.559 90.0904L10.4592 106.72L78.4292 176.66L78.8792 177.12L78.7892 177.76L64.9092 274.3L152.429 231.27L153.009 230.98L153.589 231.26L241.109 274.29L227.229 177.76L227.139 177.12V177.12ZM163.619 206.54L163.079 206.27L153.619 201.63L144.169 206.28L143.619 206.55L98.4792 228.75L105.649 178.92L105.729 178.32L107.209 167.92L99.8992 160.37L99.4492 159.91L64.3892 123.84L113.949 115.26L114.539 115.16L124.939 113.36L129.859 104.03L130.139 103.5L153.609 59.0104L177.079 103.5L177.359 104.03L182.279 113.36L192.679 115.16L193.269 115.26L242.839 123.84L207.779 159.91L207.359 160.34L200.009 167.91L201.509 178.35L201.599 178.94L208.759 228.73L163.599 206.52L163.619 206.54V206.54Z" fill="url(#paint18_linear_259_595)"/>
<path d="M202.449 165.42L164.339 153.04L237.629 129.22L242.859 123.84L235.469 122.56L162.169 146.38L185.729 113.96L182.299 113.37L180.279 109.54L156.509 142.26V64.4798L153.619 59.0098L149.509 66.8098V142.26L126.449 110.52L124.939 113.37L120.429 114.15L143.849 146.38L70.9792 122.7L64.3892 123.84L70.1792 129.81L141.679 153.04L104.489 165.12L107.199 167.92L106.649 171.78L143.839 159.7L99.6592 220.52L98.4692 228.75L104.469 225.8L149.509 163.81V203.65L153.609 201.64L156.509 203.06V163.81L200.859 224.86L208.779 228.75L207.889 222.62L162.169 159.7L200.639 172.19L200.029 167.92L202.449 165.42V165.42Z" fill="url(#paint19_radial_259_595)"/>
<path d="M107.199 89.9805L106.559 90.0905L42.3792 101.2L64.3891 123.84L113.949 115.27L114.539 115.16L124.269 113.49L107.199 89.9805V89.9805Z" fill="url(#paint20_linear_259_595)"/>
<path d="M98.5894 227.94L105.639 178.92L105.719 178.32L107.199 167.92L78.8794 177.12L78.7894 177.76L69.3994 243.05L97.7394 229.11L98.5894 227.94V227.94Z" fill="url(#paint21_linear_259_595)"/>
<path d="M207.589 228.17L163.609 206.54L163.069 206.27L153.609 201.64L153.009 201.93V230.98L153.589 231.26L213.359 260.65L208.959 230.05L207.589 228.17V228.17Z" fill="url(#paint22_linear_259_595)"/>
<path d="M242.859 124.19L207.799 160.26L207.379 160.69L200.029 168.26L200.089 168.67L227.139 177.46L227.589 177L273.719 129.53L242.859 124.19V124.19Z" fill="url(#paint23_linear_259_595)"/>
<path d="M198.519 89.75L168.049 32L153.629 59.35L177.099 103.84L177.379 104.37L182.099 113.33L198.819 90.32L198.519 89.75V89.75Z" fill="url(#paint24_linear_259_595)"/>
<path d="M64.0992 124.27L41.6392 101.31L42.8292 101.12L64.8192 123.57L64.0992 124.27V124.27Z" fill="url(#paint25_linear_259_595)"/>
<path d="M69.3193 243.61L69.4793 242.46L98.0093 228.43L97.9593 229.56L69.3193 243.61Z" fill="url(#paint26_linear_259_595)"/>
<path d="M212.87 260.4L208.31 229.08L209.41 229.61L213.92 260.92L212.87 260.4V260.4Z" fill="url(#paint27_linear_259_595)"/>
<path d="M273.28 129.64L242.77 124.34L242.94 123.36L274.14 128.78L273.28 129.64Z" fill="url(#paint28_linear_259_595)"/>
<path d="M154.069 59.2401L153.179 58.7801L167.759 31.1201L168.339 32.1701L154.069 59.2401V59.2401Z" fill="url(#paint29_linear_259_595)"/>
<path d="M209.409 229.61L153.619 202.19L97.8489 229.61L106.679 168.09L99.0989 160.26L63.3789 123.51L124.629 112.92L153.639 57.9404L182.639 112.92L243.889 123.52L200.559 168.1L209.409 229.63V229.61V229.61ZM65.4089 124.17L107.739 167.75L106.139 178.99L99.1089 227.88L153.619 201.08L163.839 206.09L208.149 227.88L199.499 167.74L241.849 124.17L181.979 113.81L176.659 103.73L153.629 60.0804L125.279 113.82L65.4189 124.17H65.4089Z" fill="#3B424C"/>
<defs>
<linearGradient id="paint0_linear_259_595" x1="413.565" y1="155.777" x2="1300.06" y2="155.777" gradientUnits="userSpaceOnUse">
<stop stop-color="#272B33"/>
<stop offset="1" stop-color="#0B0C10"/>
</linearGradient>
<linearGradient id="paint1_linear_259_595" x1="413.565" y1="155.777" x2="1300.06" y2="155.777" gradientUnits="userSpaceOnUse">
<stop stop-color="#272B33"/>
<stop offset="1" stop-color="#0B0C10"/>
</linearGradient>
<linearGradient id="paint2_linear_259_595" x1="413.565" y1="155.777" x2="1300.06" y2="155.777" gradientUnits="userSpaceOnUse">
<stop stop-color="#272B33"/>
<stop offset="1" stop-color="#0B0C10"/>
</linearGradient>
<linearGradient id="paint3_linear_259_595" x1="413.565" y1="155.777" x2="1300.06" y2="155.777" gradientUnits="userSpaceOnUse">
<stop stop-color="#272B33"/>
<stop offset="1" stop-color="#0B0C10"/>
</linearGradient>
<linearGradient id="paint4_linear_259_595" x1="413.565" y1="155.777" x2="1300.06" y2="155.777" gradientUnits="userSpaceOnUse">
<stop stop-color="#272B33"/>
<stop offset="1" stop-color="#0B0C10"/>
</linearGradient>
<linearGradient id="paint5_linear_259_595" x1="413.565" y1="155.777" x2="1300.06" y2="155.777" gradientUnits="userSpaceOnUse">
<stop stop-color="#272B33"/>
<stop offset="1" stop-color="#0B0C10"/>
</linearGradient>
<linearGradient id="paint6_linear_259_595" x1="413.565" y1="155.777" x2="1300.06" y2="155.777" gradientUnits="userSpaceOnUse">
<stop stop-color="#272B33"/>
<stop offset="1" stop-color="#0B0C10"/>
</linearGradient>
<linearGradient id="paint7_linear_259_595" x1="413.565" y1="155.777" x2="1300.06" y2="155.777" gradientUnits="userSpaceOnUse">
<stop stop-color="#272B33"/>
<stop offset="1" stop-color="#0B0C10"/>
</linearGradient>
<linearGradient id="paint8_linear_259_595" x1="413.565" y1="155.777" x2="1300.06" y2="155.777" gradientUnits="userSpaceOnUse">
<stop stop-color="#272B33"/>
<stop offset="1" stop-color="#0B0C10"/>
</linearGradient>
<linearGradient id="paint9_linear_259_595" x1="413.565" y1="155.777" x2="1300.06" y2="155.777" gradientUnits="userSpaceOnUse">
<stop stop-color="#272B33"/>
<stop offset="1" stop-color="#0B0C10"/>
</linearGradient>
<linearGradient id="paint10_linear_259_595" x1="413.565" y1="155.777" x2="1300.06" y2="155.777" gradientUnits="userSpaceOnUse">
<stop stop-color="#272B33"/>
<stop offset="1" stop-color="#0B0C10"/>
</linearGradient>
<linearGradient id="paint11_linear_259_595" x1="413.565" y1="155.777" x2="1300.06" y2="155.777" gradientUnits="userSpaceOnUse">
<stop stop-color="#272B33"/>
<stop offset="1" stop-color="#0B0C10"/>
</linearGradient>
<linearGradient id="paint12_linear_259_595" x1="46.2493" y1="46.24" x2="261.249" y2="261.24" gradientUnits="userSpaceOnUse">
<stop stop-color="#7C838E"/>
<stop offset="0.21" stop-color="#BCC2CC"/>
<stop offset="0.37" stop-color="#ACB5C1"/>
<stop offset="0.8" stop-color="#69707C"/>
<stop offset="1" stop-color="#323A45"/>
</linearGradient>
<linearGradient id="paint13_linear_259_595" x1="255.759" y1="242.14" x2="283.759" y2="201.64" gradientUnits="userSpaceOnUse">
<stop stop-color="#0A0D10"/>
<stop offset="1" stop-color="#0A0D10" stop-opacity="0"/>
</linearGradient>
<linearGradient id="paint14_linear_259_595" x1="100.169" y1="282.37" x2="148.169" y2="290.87" gradientUnits="userSpaceOnUse">
<stop stop-color="#0A0D10"/>
<stop offset="1" stop-color="#0A0D10" stop-opacity="0"/>
</linearGradient>
<linearGradient id="paint15_linear_259_595" x1="17.2593" y1="142.49" x2="19.2593" y2="189.99" gradientUnits="userSpaceOnUse">
<stop stop-color="#252C36"/>
<stop offset="1" stop-color="#252C36" stop-opacity="0"/>
</linearGradient>
<linearGradient id="paint16_linear_259_595" x1="269.279" y1="82.5499" x2="239.779" y2="44.5499" gradientUnits="userSpaceOnUse">
<stop stop-color="#252C36"/>
<stop offset="1" stop-color="#252C36" stop-opacity="0"/>
</linearGradient>
<linearGradient id="paint17_linear_259_595" x1="121.009" y1="18.8598" x2="73.0091" y2="39.3598" gradientUnits="userSpaceOnUse">
<stop stop-color="#252C36"/>
<stop offset="1" stop-color="#252C36" stop-opacity="0"/>
</linearGradient>
<linearGradient id="paint18_linear_259_595" x1="42.1092" y1="52.3904" x2="256.609" y2="266.89" gradientUnits="userSpaceOnUse">
<stop stop-color="#7C838E"/>
<stop offset="0.21" stop-color="#BCC2CC"/>
<stop offset="0.37" stop-color="#ACB5C1"/>
<stop offset="0.8" stop-color="#69707C"/>
<stop offset="1" stop-color="#323A45"/>
</linearGradient>
<radialGradient id="paint19_radial_259_595" cx="0" cy="0" r="1" gradientUnits="userSpaceOnUse" gradientTransform="translate(153.75 168.468) rotate(-90) scale(82.39 86.62)">
<stop stop-color="#8795A3"/>
<stop offset="0.71" stop-color="#3E4852"/>
<stop offset="1" stop-color="#171A1F"/>
</radialGradient>
<linearGradient id="paint20_linear_259_595" x1="66.8292" y1="123.83" x2="87.8291" y2="102.83" gradientUnits="userSpaceOnUse">
<stop stop-color="#22262C"/>
<stop offset="0.12" stop-color="#454D58"/>
<stop offset="1" stop-color="#454D58" stop-opacity="0"/>
</linearGradient>
<linearGradient id="paint21_linear_259_595" x1="98.3394" y1="226.47" x2="81.8394" y2="191.97" gradientUnits="userSpaceOnUse">
<stop stop-color="#22262C"/>
<stop offset="0.12" stop-color="#454D58"/>
<stop offset="1" stop-color="#454D58" stop-opacity="0"/>
</linearGradient>
<linearGradient id="paint22_linear_259_595" x1="207.719" y1="228.17" x2="179.219" y2="231.67" gradientUnits="userSpaceOnUse">
<stop stop-color="#101215"/>
<stop offset="0.12" stop-color="#2D333C"/>
<stop offset="1" stop-color="#2D333C" stop-opacity="0"/>
</linearGradient>
<linearGradient id="paint23_linear_259_595" x1="241.119" y1="125.13" x2="236.119" y2="153.13" gradientUnits="userSpaceOnUse">
<stop stop-color="#22262C"/>
<stop offset="0.12" stop-color="#454D58"/>
<stop offset="1" stop-color="#454D58" stop-opacity="0"/>
</linearGradient>
<linearGradient id="paint24_linear_259_595" x1="154.569" y1="60.45" x2="178.069" y2="74.45" gradientUnits="userSpaceOnUse">
<stop stop-color="#22262C"/>
<stop offset="0.12" stop-color="#454D58"/>
<stop offset="1" stop-color="#454D58" stop-opacity="0"/>
</linearGradient>
<linearGradient id="paint25_linear_259_595" x1="42.5" y1="101.5" x2="68.2939" y2="109.3" gradientUnits="userSpaceOnUse">
<stop offset="0.702552" stop-color="white"/>
<stop offset="1" stop-color="white" stop-opacity="0"/>
</linearGradient>
<linearGradient id="paint26_linear_259_595" x1="69.5" y1="243" x2="73.0095" y2="224.782" gradientUnits="userSpaceOnUse">
<stop offset="0.702552" stop-color="white"/>
<stop offset="1" stop-color="white" stop-opacity="0"/>
</linearGradient>
<linearGradient id="paint27_linear_259_595" x1="212.5" y1="260.5" x2="225.881" y2="245.265" gradientUnits="userSpaceOnUse">
<stop offset="0.702552" stop-color="white"/>
<stop offset="1" stop-color="white" stop-opacity="0"/>
</linearGradient>
<linearGradient id="paint28_linear_259_595" x1="273.5" y1="129" x2="270.387" y2="135.903" gradientUnits="userSpaceOnUse">
<stop offset="0.702552" stop-color="white"/>
<stop offset="1" stop-color="white" stop-opacity="0"/>
</linearGradient>
<linearGradient id="paint29_linear_259_595" x1="168" y1="32" x2="154" y2="58" gradientUnits="userSpaceOnUse">
<stop offset="0.702552" stop-color="white"/>
<stop offset="1" stop-color="white" stop-opacity="0"/>
</linearGradient>
</defs>
</svg>
