<svg width="464" height="210" viewBox="0 0 464 210" fill="none" xmlns="http://www.w3.org/2000/svg">
<mask id="mask0_379_1107" style="mask-type:luminance" maskUnits="userSpaceOnUse" x="0" y="6" width="464" height="198">
<path d="M464 6H0V203.5H464V6Z" fill="white"/>
</mask>
<g mask="url(#mask0_379_1107)">
<path d="M98.6 70V55.4C98.6 50.1 95.4 45.4 90.5 43.3L0 6V14.1L80.7 47.4C83.5 48.5 83.5 52.5 80.7 53.6L0 86.9V119.4L48.6 99.3L80.6 112.5C83.4 113.6 83.4 117.6 80.6 118.7L0 152V203.5L90.5 166.2C95.4 164.2 98.6 159.4 98.6 154.1V120.6C98.6 115.3 95.4 110.6 90.5 108.5L58.4 95.3L90.5 82.1C95.4 80.1 98.6 75.3 98.6 70ZM170.7 55.4L177.9 83.5L186 55.4H193.7L201.3 83.5L208.8 55.4H214.5L204.8 89.3H197.6L189.6 60.1L181.3 89.3H174L164.6 55.4H170.7ZM223.2 74C223.4 76.8 223.7 78.2 224.6 80C226.3 83.2 230.1 85.3 233.9 85.3C238.5 85.3 241.5 83.1 242.8 78.8H249.1C247.5 86.1 242 90.2 233.8 90.2C223.6 90.2 217.1 83.2 217.1 72.2C217.1 61.5 223.6 54.3 233.3 54.3C243.6 54.3 249.2 61.3 249.2 73.9H223.2V74ZM241.4 63.6C239.8 60.9 236.6 59.3 233.3 59.3C227.6 59.3 224 62.9 223.3 69.4H243C242.7 66.4 242.3 65 241.4 63.6ZM254.9 42.5H260.7V60.5C263.1 56.5 266.4 54.6 271.2 54.6C279.6 54.6 285.6 61.9 285.6 72.4C285.6 82.9 279.9 90 271.3 90C266.6 90 263.5 88.1 260.5 83.7V89.3H254.9V42.5ZM260.8 72.2C260.8 79.6 265 85.1 270.5 85.1C275.8 85.1 279.3 80.1 279.3 72.4C279.3 64.3 275.8 59.3 270.3 59.3C264.8 59.3 260.8 64.6 260.8 72.2ZM296.1 75C296 81 299.8 84.9 305.8 84.9C311.2 84.9 315.1 81.5 315.1 76.8C315.1 72 311.4 69.1 305.4 69.1C304.8 69.1 304.3 69.1 303.4 69.2V64H304.9C311.1 64 314.7 61.3 314.7 56.5C314.7 52 311.2 49.1 305.9 49.1C300.2 49.1 296.9 52.5 296.7 58.5H290.5C290.9 49.2 296.6 43.8 306 43.8C314.7 43.8 320.8 48.8 320.8 56C320.8 60.8 317.4 65.2 312.8 66.4C318.4 67.8 321.4 71.6 321.4 77.2C321.4 84.8 314.9 90.2 305.7 90.2C296.1 90.2 289.6 84 289.7 75H296.1ZM171 125.3H164.9V120.6H171C171.1 115 171.2 113.8 172 111.8C173.2 108.6 176.3 106.9 180.9 106.9C181.8 106.9 182.6 107 184.1 107.1V112.3C182.7 111.9 182.1 111.9 181.2 111.9C179.2 111.9 177.7 112.9 177.2 114.7C176.8 115.9 176.8 116.8 176.8 120.5H184.1V125.2H176.8V154.4H171V125.3ZM218.2 137.5C218.2 148.4 211.7 155.5 201.7 155.5C191.9 155.5 185.4 148.2 185.4 137.4C185.4 126.7 192 119.6 201.9 119.6C211.6 119.7 218.2 126.9 218.2 137.5ZM191.7 137.2C191.7 145.5 195.4 150.6 201.6 150.6C207.8 150.6 211.9 145.5 211.9 137.6C211.9 129.6 207.9 124.5 201.7 124.5C195.5 124.5 191.7 129.4 191.7 137.2ZM246.4 150.5C244.7 153.5 240.8 155.3 236.2 155.3C231.5 155.3 227.8 153.4 225.8 150.1C224.5 147.9 224.1 145.6 224.1 139.9V120.6H229.9V141C229.9 147.4 232.3 150.4 237.2 150.4C240.4 150.4 243.2 148.9 244.8 146.4C245.8 144.8 246 142.9 246 136.9V120.7H251.8V154.6H246.2V150.5H246.4ZM264.5 124.7C267.1 121.3 270.2 119.9 274.8 119.9C279.5 119.9 283.2 121.8 285.2 125.1C286.5 127.3 286.9 129.6 286.9 135.3V154.6H281V134.2C281 127.7 278.6 124.8 273.7 124.8C270.4 124.8 267.7 126.3 266.1 128.9C265.1 130.5 264.9 132.3 264.9 138.4V154.6H259V120.7H264.5V124.7ZM317.8 154.5V148.9C314.8 153.4 311.6 155.2 307 155.2C298.5 155.2 292.7 148.1 292.7 137.7C292.7 127.1 298.6 119.8 307.1 119.8C311.9 119.8 315.2 121.7 317.6 125.7V107.7H323.4V154.4H317.8V154.5ZM299 137.7C299 145.4 302.4 150.4 307.8 150.4C313.3 150.4 317.5 144.9 317.5 137.5C317.5 129.9 313.6 124.6 308.1 124.6C302.6 124.6 299 129.6 299 137.7ZM352.8 154.5C352.5 152.7 352.4 152.1 352.2 150.3C349.3 153.8 346 155.3 341.3 155.3C334 155.3 329.1 151.1 329.1 145C329.1 140.5 331.6 137.4 336.6 135.9C338.2 135.4 340.8 134.9 343.8 134.5C345.7 134.2 347.9 133.9 351.7 133.6C351.6 129.2 351.4 127.9 350.2 126.6C349 125.3 346.9 124.5 344.3 124.5C339.3 124.5 336.8 126.7 336.5 131.3H330.4C331 127.1 331.8 125 334 123.1C336.4 120.9 340.2 119.6 344.3 119.6C349.4 119.6 353.4 121.3 355.6 124.6C357.4 127.1 357.7 129.6 357.6 140.4C357.5 147.2 357.8 150.8 358.7 154.5H352.8ZM335.4 145.2C335.4 148.6 338 150.6 342.2 150.6C345.8 150.6 348.6 149.3 350.3 146.7C351.3 145.2 351.7 143.2 351.7 139.4V138.2C339.6 139 335.4 140.8 335.4 145.2ZM372.9 120.7H380.5V125.4H372.9V143.5C372.9 147.3 373 148 373.6 148.8C374.2 149.6 375.6 150.1 377.2 150.1C378.4 150.1 379.5 149.9 380.5 149.6V154.6C377.8 155.1 376.8 155.2 375.4 155.2C372.3 155.2 369.6 153.8 368.2 151.5C367.4 150 367.1 148.6 367.1 145.3V125.3H360.9V120.6H367.1V112.4H372.9V120.7ZM385.7 107.8H391.5V114.6H385.7V107.8ZM391.6 120.7V154.6H385.8V120.7H391.6ZM430.2 137.5C430.2 148.4 423.7 155.5 413.7 155.5C403.9 155.5 397.4 148.2 397.4 137.4C397.4 126.7 404 119.6 413.9 119.6C423.6 119.7 430.2 126.9 430.2 137.5ZM403.7 137.2C403.7 145.5 407.4 150.6 413.6 150.6C419.8 150.6 423.9 145.5 423.9 137.6C423.9 129.6 419.9 124.5 413.7 124.5C407.5 124.5 403.7 129.4 403.7 137.2ZM441.6 124.7C444.2 121.3 447.3 119.9 451.9 119.9C456.6 119.9 460.3 121.8 462.3 125.1C463.6 127.3 464 129.6 464 135.3V154.6H458.2V134.2C458.2 127.7 455.8 124.8 450.9 124.8C447.6 124.8 444.9 126.3 443.3 128.9C442.3 130.5 442.1 132.3 442.1 138.4V154.6H436.3V120.7H441.8V124.7H441.6Z" fill="black"/>
</g>
</svg>
