<svg width="464" height="198" viewBox="0 0 464 198" fill="none" xmlns="http://www.w3.org/2000/svg">
<g clip-path="url(#clip0_259_627)">
<path d="M98.6 64V49.4C98.6 44.1 95.4 39.4 90.5 37.3L0 0V8.1L80.7 41.4C83.5 42.5 83.5 46.5 80.7 47.6L0 80.9V113.4L48.6 93.3L80.6 106.5C83.4 107.6 83.4 111.6 80.6 112.7L0 146V197.5L90.5 160.2C95.4 158.2 98.6 153.4 98.6 148.1V114.6C98.6 109.3 95.4 104.6 90.5 102.5L58.4 89.3L90.5 76.1C95.4 74.1 98.6 69.3 98.6 64ZM170.7 49.4L177.9 77.5L186 49.4H193.7L201.3 77.5L208.8 49.4H214.5L204.8 83.3H197.6L189.6 54.1L181.3 83.3H174L164.6 49.4H170.7ZM223.2 68C223.4 70.8 223.7 72.2 224.6 74C226.3 77.2 230.1 79.3 233.9 79.3C238.5 79.3 241.5 77.1 242.8 72.8H249.1C247.5 80.1 242 84.2 233.8 84.2C223.6 84.2 217.1 77.2 217.1 66.2C217.1 55.5 223.6 48.3 233.3 48.3C243.6 48.3 249.2 55.3 249.2 67.9H223.2V68ZM241.4 57.6C239.8 54.9 236.6 53.3 233.3 53.3C227.6 53.3 224 56.9 223.3 63.4H243C242.7 60.4 242.3 59 241.4 57.6ZM254.9 36.5H260.7V54.5C263.1 50.5 266.4 48.6 271.2 48.6C279.6 48.6 285.6 55.9 285.6 66.4C285.6 76.9 279.9 84 271.3 84C266.6 84 263.5 82.1 260.5 77.7V83.3H254.9V36.5ZM260.8 66.2C260.8 73.6 265 79.1 270.5 79.1C275.8 79.1 279.3 74.1 279.3 66.4C279.3 58.3 275.8 53.3 270.3 53.3C264.8 53.3 260.8 58.6 260.8 66.2ZM296.1 69C296 75 299.8 78.9 305.8 78.9C311.2 78.9 315.1 75.5 315.1 70.8C315.1 66 311.4 63.1 305.4 63.1C304.8 63.1 304.3 63.1 303.4 63.2V58H304.9C311.1 58 314.7 55.3 314.7 50.5C314.7 46 311.2 43.1 305.9 43.1C300.2 43.1 296.9 46.5 296.7 52.5H290.5C290.9 43.2 296.6 37.8 306 37.8C314.7 37.8 320.8 42.8 320.8 50C320.8 54.8 317.4 59.2 312.8 60.4C318.4 61.8 321.4 65.6 321.4 71.2C321.4 78.8 314.9 84.2 305.7 84.2C296.1 84.2 289.6 78 289.7 69H296.1ZM171 119.3H164.9V114.6H171C171.1 109 171.2 107.8 172 105.8C173.2 102.6 176.3 100.9 180.9 100.9C181.8 100.9 182.6 101 184.1 101.1V106.3C182.7 105.9 182.1 105.9 181.2 105.9C179.2 105.9 177.7 106.9 177.2 108.7C176.8 109.9 176.8 110.8 176.8 114.5H184.1V119.2H176.8V148.4H171V119.3ZM218.2 131.5C218.2 142.4 211.7 149.5 201.7 149.5C191.9 149.5 185.4 142.2 185.4 131.4C185.4 120.7 192 113.6 201.9 113.6C211.6 113.7 218.2 120.9 218.2 131.5ZM191.7 131.2C191.7 139.5 195.4 144.6 201.6 144.6C207.8 144.6 211.9 139.5 211.9 131.6C211.9 123.6 207.9 118.5 201.7 118.5C195.5 118.5 191.7 123.4 191.7 131.2ZM246.4 144.5C244.7 147.5 240.8 149.3 236.2 149.3C231.5 149.3 227.8 147.4 225.8 144.1C224.5 141.9 224.1 139.6 224.1 133.9V114.6H229.9V135C229.9 141.4 232.3 144.4 237.2 144.4C240.4 144.4 243.2 142.9 244.8 140.4C245.8 138.8 246 136.9 246 130.9V114.7H251.8V148.6H246.2V144.5H246.4ZM264.5 118.7C267.1 115.3 270.2 113.9 274.8 113.9C279.5 113.9 283.2 115.8 285.2 119.1C286.5 121.3 286.9 123.6 286.9 129.3V148.6H281V128.2C281 121.7 278.6 118.8 273.7 118.8C270.4 118.8 267.7 120.3 266.1 122.9C265.1 124.5 264.9 126.3 264.9 132.4V148.6H259V114.7H264.5V118.7ZM317.8 148.5V142.9C314.8 147.4 311.6 149.2 307 149.2C298.5 149.2 292.7 142.1 292.7 131.7C292.7 121.1 298.6 113.8 307.1 113.8C311.9 113.8 315.2 115.7 317.6 119.7V101.7H323.4V148.4H317.8V148.5ZM299 131.7C299 139.4 302.4 144.4 307.8 144.4C313.3 144.4 317.5 138.9 317.5 131.5C317.5 123.9 313.6 118.6 308.1 118.6C302.6 118.6 299 123.6 299 131.7ZM352.8 148.5C352.5 146.7 352.4 146.1 352.2 144.3C349.3 147.8 346 149.3 341.3 149.3C334 149.3 329.1 145.1 329.1 139C329.1 134.5 331.6 131.4 336.6 129.9C338.2 129.4 340.8 128.9 343.8 128.5C345.7 128.2 347.9 127.9 351.7 127.6C351.6 123.2 351.4 121.9 350.2 120.6C349 119.3 346.9 118.5 344.3 118.5C339.3 118.5 336.8 120.7 336.5 125.3H330.4C331 121.1 331.8 119 334 117.1C336.4 114.9 340.2 113.6 344.3 113.6C349.4 113.6 353.4 115.3 355.6 118.6C357.4 121.1 357.7 123.6 357.6 134.4C357.5 141.2 357.8 144.8 358.7 148.5H352.8ZM335.4 139.2C335.4 142.6 338 144.6 342.2 144.6C345.8 144.6 348.6 143.3 350.3 140.7C351.3 139.2 351.7 137.2 351.7 133.4V132.2C339.6 133 335.4 134.8 335.4 139.2ZM372.9 114.7H380.5V119.4H372.9V137.5C372.9 141.3 373 142 373.6 142.8C374.2 143.6 375.6 144.1 377.2 144.1C378.4 144.1 379.5 143.9 380.5 143.6V148.6C377.8 149.1 376.8 149.2 375.4 149.2C372.3 149.2 369.6 147.8 368.2 145.5C367.4 144 367.1 142.6 367.1 139.3V119.3H360.9V114.6H367.1V106.4H372.9V114.7ZM385.7 101.8H391.5V108.6H385.7V101.8ZM391.6 114.7V148.6H385.8V114.7H391.6ZM430.2 131.5C430.2 142.4 423.7 149.5 413.7 149.5C403.9 149.5 397.4 142.2 397.4 131.4C397.4 120.7 404 113.6 413.9 113.6C423.6 113.7 430.2 120.9 430.2 131.5ZM403.7 131.2C403.7 139.5 407.4 144.6 413.6 144.6C419.8 144.6 423.9 139.5 423.9 131.6C423.9 123.6 419.9 118.5 413.7 118.5C407.5 118.5 403.7 123.4 403.7 131.2ZM441.6 118.7C444.2 115.3 447.3 113.9 451.9 113.9C456.6 113.9 460.3 115.8 462.3 119.1C463.6 121.3 464 123.6 464 129.3V148.6H458.2V128.2C458.2 121.7 455.8 118.8 450.9 118.8C447.6 118.8 444.9 120.3 443.3 122.9C442.3 124.5 442.1 126.3 442.1 132.4V148.6H436.3V114.7H441.8V118.7H441.6Z" fill="black"/>
</g>
<defs>
<clipPath id="clip0_259_627">
<rect width="464" height="197.5" fill="white"/>
</clipPath>
</defs>
</svg>
