<svg width="2000" height="464" fill="none" xmlns="http://www.w3.org/2000/svg"><g clip-path="url(#a)"><path d="M2000 82.133a37.863 37.863 0 0 0-13.77 6.334c-9.29-12.3-24.04-20.254-40.65-20.254-19.23 0-35.96 10.654-44.63 26.38a42.503 42.503 0 0 0-10.86-1.406c-22.76 0-41.36 17.88-42.5 40.36a49.644 49.644 0 0 0-22.11 18.153 36.987 36.987 0 0 0-19.53-8.82c-7.97-12.287-21.79-20.427-37.52-20.427-9.96 0-19.15 3.26-26.58 8.767a54.262 54.262 0 0 0-24.94-6.047c-17.42 0-32.94 8.187-42.91 20.92a35.509 35.509 0 0 0-11.56-1.933c-19.06 0-34.61 15.033-35.45 33.887h-.04c-12.71 0-23.64 7.566-28.57 18.433-5.17-33.253-32.71-59.753-67.71-62.287-2.52-.18-5.03-.233-7.51-.166-9.09-20.047-28.59-34.614-52.09-36.314-14.67-1.06-28.52 3.08-39.74 10.847-13.34.427-25.01 8.38-30.56 19.98-.23-.02-.46-.053-.68-.067-26.88-1.94-50.3 17.78-53.19 44.354-22.83 3.333-41.31 21.346-44.71 44.746-7.52-14.426-21.66-24.853-38.4-27.233-12.66-15.18-31.72-24.833-53.02-24.833-21.31 0-39.4 9.173-52.05 23.68-9.37-6.94-20.97-11.04-33.52-11.04-23.07 0-42.9 13.86-51.63 33.706-10.08-15.926-26.96-27.373-47.12-29.846-8.55-1.047-16.91-.387-24.74 1.713-9.417-15.567-25.617-26.813-45.077-29.2-30.753-3.773-58.973 15.9-66.746 45.007-1.4-.34-2.827-.607-4.294-.787a38.049 38.049 0 0 0-4.586-.273 42.455 42.455 0 0 0-19.674-7.687c-10.5-1.287-20.566 1.373-28.733 6.8-5.467-17.347-21.687-29.927-40.84-29.927a42.661 42.661 0 0 0-25.127 8.154c-6.286-20.3-25.206-35.04-47.566-35.04-16.214 0-30.614 7.76-39.7 19.76a16.5 16.5 0 0 0-7.674-1.887c-3.02 0-5.846.813-8.286 2.227-6.947-7.56-16.907-12.3-27.987-12.3-12 0-22.687 5.566-29.653 14.246-1.227-12.72-10.627-23.586-23.647-26.213-8.207-18.94-25.56-33.453-47.433-37.087-21.367-3.546-42 4.127-55.887 18.707a41.7 41.7 0 0 0-18.247 1.693c-7.56-6.34-16.86-10.806-27.3-12.54-24.013-3.986-47 7.634-58.633 27.44-10.947-12.106-26.12-20.32-43.187-22.313-3.913-16.82-18.993-29.36-37.006-29.36a37.824 37.824 0 0 0-22.434 7.333c-9.293-12.3-24.046-20.253-40.653-20.253-19.227 0-35.96 10.653-44.627 26.38a42.572 42.572 0 0 0-10.86-1.407A42.386 42.386 0 0 0 157 99.6c.087-1.153.147-2.313.147-3.487 0-20.92-14.487-38.453-33.974-43.126-1.073-21.727-19.026-39.014-41.02-39.014a40.858 40.858 0 0 0-23.333 7.274C47.027 8.2 29.967 0 10.987 0A64.87 64.87 0 0 0 0 .94V161.4a34.529 34.529 0 0 0 15.56-11.26c9.727 12.64 25.007 20.793 42.193 20.793 21.447 0 39.934-12.693 48.354-30.973 2.186.333 4.426.507 6.7.507 7.42 0 14.406-1.834 20.553-5.054 0 .047-.007.094-.013.147-17.887 7.433-30.46 25.067-30.46 45.64 0 24.107 17.26 44.173 40.093 48.527 5.9 12.213 18.4 20.64 32.873 20.64a36.336 36.336 0 0 0 21.88-7.287c8.28 16.92 25.66 28.573 45.767 28.573 13.347 0 25.493-5.14 34.58-13.54 1.373.18 2.767.287 4.187.287 9.253 0 17.573-3.98 23.353-10.313a69.151 69.151 0 0 0 17.693 2.286c5.48 0 10.807-.64 15.914-1.84a40.4 40.4 0 0 0 5.286 1.267c6.434 1.067 12.76.5 18.567-1.38 7.613 15.12 22.087 26.533 40.073 29.52 15.887 2.64 31.307-1.827 43.027-11.073 1.3.38 2.633.693 4.007.92a33.957 33.957 0 0 0 22.706-4.147c9.954 12.7 24.507 21.86 41.68 24.713 26.127 4.334 51.22-7.1 65.567-27.346.907-.1 1.8-.234 2.693-.387a30.709 30.709 0 0 0 11.254 4.933c4.173 10.934 14.006 19.06 25.926 20.8 6.294 18.42 23.747 31.674 44.3 31.674 12.494 0 23.84-4.907 32.234-12.887a32.09 32.09 0 0 0 10.386 1.727 31.937 31.937 0 0 0 17.727-5.34 52.54 52.54 0 0 0 27.273 7.586c20.08 0 37.54-11.206 46.474-27.706 3.866 16.386 17.566 29.42 35.26 31.586 11.253 1.38 21.993-1.893 30.313-8.313 7.407 16.733 23.173 29.267 42.66 31.66 18.227 2.233 35.433-4.933 46.773-17.687a44.319 44.319 0 0 0 17.667 6.127c4.86.593 9.627.373 14.18-.54a36.818 36.818 0 0 0 22.36 11.3c18.95 2.327 36.29-10.147 40.47-28.353 8.02 11 21.01 18.153 35.66 18.153.78 0 1.54-.02 2.31-.06 11.73 15.193 30.13 24.973 50.81 24.973 12.46 0 24.08-3.553 33.92-9.686a61.953 61.953 0 0 0 39.98 14.546c10.18 0 19.8-2.446 28.28-6.78 8.02 7.12 18.56 11.454 30.12 11.454 21.77 0 39.94-15.34 44.33-35.8 26.26-.327 47.69-20.66 49.75-46.467 12.7-2.093 24-8.747 32.02-18.333 9.71 13.9 25.37 23.473 43.6 24.786 16.86 1.22 32.55-4.866 44-15.553 10.6 7.453 23.28 12.22 37.14 13.227 37.92 2.74 71.22-23.634 77.99-60.167 3.67 8.807 11.25 15.58 20.56 18.16a50.238 50.238 0 0 0-2.83 16.66c0 27.807 22.54 50.347 50.34 50.347 11.78 0 22.6-4.054 31.18-10.827 3.98 2.167 8.54 3.4 13.4 3.4 5.74 0 11.08-1.727 15.52-4.687a54.356 54.356 0 0 0 22.5 3.94c4.52 5.967 11.69 9.827 19.75 9.827 7.01 0 13.35-2.92 17.85-7.613a54.39 54.39 0 0 0 16.82 2.66c27.88 0 50.86-20.96 54.08-47.987a36.8 36.8 0 0 0 18.09-10.147 36.33 36.33 0 0 0 14.83 3.147c8.21 0 15.79-2.713 21.88-7.287 8.28 16.92 25.66 28.574 45.77 28.574 13.35 0 25.49-5.14 34.58-13.54 1.37.18 2.77.286 4.19.286 1.18 0 2.34-.066 3.49-.193V82.133Z" fill="#E6ECF5"/><path d="M2000 129.247c-11.62 9.846-19.44 24.046-20.91 40.086-4.34-.62-8.76-.953-13.26-.953-40.89 0-75.56 26.6-87.66 63.433a56.831 56.831 0 0 0-18.57 7.18c-11.31-13.433-28.24-21.973-47.17-21.973-15.8 0-30.2 5.953-41.11 15.727-14.43-20.48-38.27-33.854-65.23-33.854-17.66 0-33.98 5.747-47.2 15.467-13.04-24.313-38.7-40.853-68.22-40.853-25.35 0-47.85 12.193-61.96 31.04-17.78-18.52-42.77-30.047-70.46-30.047-34.72 0-65.2 18.12-82.52 45.413a47.354 47.354 0 0 0-13.46 8.767c-1.82-.18-3.67-.28-5.54-.28a54.869 54.869 0 0 0-30.28 9.073 80.148 80.148 0 0 0-15.7-1.566c-28.72 0-53.89 15.226-67.87 38.053-14.53-11.533-32.9-18.427-52.89-18.427-4.03 0-7.98.287-11.86.827-11.49-7.867-25.4-12.48-40.38-12.48-31.88 0-58.88 20.847-68.14 49.647-8.9.686-17.4 2.826-25.25 6.173a64.795 64.795 0 0 0-20.03-3.153c-8.37 0-16.36 1.6-23.71 4.48-3.193-32.36-30.486-57.64-63.686-57.64-2.834 0-5.627.206-8.36.56-10.967-13.12-27.44-21.467-45.874-21.467-31.14 0-56.706 23.813-59.5 54.227a92.473 92.473 0 0 0-13.26-.954c-7.613 0-15.006.927-22.086 2.66-8.394-10.946-21.594-18.006-36.454-18.006-2.553 0-5.06.22-7.5.62.154-1.774.247-3.567.247-5.387 0-34.04-27.593-61.627-61.627-61.627-15.8 0-30.206 5.954-41.113 15.727-14.433-20.48-38.267-33.853-65.227-33.853-31.326 0-58.433 18.066-71.473 44.34a38.545 38.545 0 0 0-15.533-3.254 38.49 38.49 0 0 0-24.94 9.127 46.899 46.899 0 0 0-25.1-9.373c-8.587-34.667-39.887-60.374-77.207-60.374-28.727 0-53.893 15.227-67.873 38.054-14.527-11.534-32.9-18.427-52.894-18.427-4.026 0-7.98.287-11.853.827a71.256 71.256 0 0 0-40.38-12.48c-7.2 0-14.153 1.073-20.707 3.053 0-.28.014-.56.014-.84 0-42.727-34.64-77.367-77.367-77.367-25.353 0-47.853 12.194-61.967 31.04A97.892 97.892 0 0 0 .014 99.44v213.387c13.08 6.606 27.853 10.34 43.506 10.34 2.88 0 5.72-.134 8.534-.38 11.573 30.12 40.773 51.5 74.966 51.5a79.917 79.917 0 0 0 31.814-6.567 63.56 63.56 0 0 0 30.093 7.533c12.133 0 23.48-3.386 33.14-9.266a40.986 40.986 0 0 0 19.093 4.693c4.18 0 8.214-.627 12.014-1.787 15.953 18.127 39.326 29.574 65.373 29.574 22.773 0 43.493-8.747 59.013-23.06 1.274.08 2.547.133 3.84.133 11.114 0 21.527-3.02 30.454-8.287 11.393 11.274 26.92 18.387 44.106 18.854 9.947 11.106 24.387 18.106 40.474 18.106 8.84 0 17.18-2.126 24.553-5.873a50.585 50.585 0 0 0 29.753 9.633c4.367 0 8.6-.553 12.647-1.586 14.427 14.38 34.327 23.273 56.307 23.273 21.98 0 42.826-9.327 57.326-24.313 4.754 26.78 28.127 47.12 56.274 47.12 9.74 0 18.906-2.44 26.933-6.74 14.347 9.2 31.413 14.533 49.727 14.533 11.76 0 23.006-2.207 33.353-6.22 8.02 6.727 168.013 8.593 171.583-28.253 14.73 17.166 36.58 28.046 60.97 28.046 11.31 0 22.06-2.346 31.81-6.566a63.592 63.592 0 0 0 30.1 7.533c12.13 0 23.48-3.387 33.14-9.267a40.95 40.95 0 0 0 19.09 4.694c4.18 0 8.21-.627 12.01-1.787 15.96 18.127 108.87 20.827 124.39 6.513 1.27.08 2.55.134 3.84.134 28.01 0 51.53-19.16 58.19-45.087 1.22.067 2.45.107 3.69.107 18.45 0 35.13-7.56 47.13-19.747 9.97 5.393 21.38 8.453 33.51 8.453a70.38 70.38 0 0 0 22.97-3.846c14.06 7.966 30.3 12.52 47.61 12.52 7.43 0 14.66-.847 21.61-2.434a64.968 64.968 0 0 0 20.93 4.047c9.95 11.107 24.39 18.107 40.47 18.107a54.09 54.09 0 0 0 24.56-5.874 50.56 50.56 0 0 0 29.75 9.634c4.37 0 8.6-.554 12.65-1.587 14.42 14.38 34.32 23.273 56.3 23.273 25.52 0 48.24-11.98 62.84-30.626a51.846 51.846 0 0 0 16.92 2.833c27.92 0 50.68-22.007 51.9-49.613h.06c20.46 0 37.79-13.387 43.73-31.874 12.3 6.074 26.15 9.5 40.79 9.5 11.76 0 23.01-2.206 33.36-6.22.26.227.54.44.82.66V129.247h-.03Z" fill="#F7F9FC"/><path d="M2000 243.62a68.423 68.423 0 0 0-11.93 35.707h-.08a60.496 60.496 0 0 0-29.77 7.786c-4.71-1.14-9.53-2.026-14.46-2.633-16.55-2.033-32.75-.747-47.93 3.313-18.24-30.16-49.64-51.946-87.33-56.573-59.58-7.307-114.26 30.807-129.31 87.2a73.985 73.985 0 0 0-8.32-1.527 72.849 72.849 0 0 0-8.88-.526c-10.9-7.847-23.86-13.14-38.12-14.894-45.22-5.546-86.38 26.62-91.93 71.847-.03.26-.05.513-.08.773-14.69-12.686-32.98-21.326-53.13-24.2-25.55-30.626-64-50.113-107-50.113s-79.48 18.507-105.02 47.787c-18.9-14-42.3-22.28-67.63-22.28-41.17 0-77.23 21.86-97.21 54.606a80.381 80.381 0 0 0-13.67-1.173c-16.79 0-32.37 5.207-45.21 14.093-22.87-25.273-55.93-41.16-92.696-41.16-3.447 0-6.854.14-10.227.414-15.087-20.707-39.513-34.167-67.093-34.167-18.194 0-35 5.873-48.68 15.8-12.18-39.327-48.834-67.893-92.16-67.893-31.42 0-59.314 15.033-76.927 38.286a31.95 31.95 0 0 0-14.86-3.653 31.867 31.867 0 0 0-16.053 4.313c-13.46-14.646-32.76-23.826-54.22-23.826-25.16 0-47.367 12.62-60.647 31.873a128.544 128.544 0 0 0-12.447-2.707c-37.673-6.253-74.22 4.78-101.54 27.3-21.146-39.006-60.34-66.8-106.38-72.186-7.9-33.947-38.32-59.247-74.673-59.247-16.933 0-32.58 5.5-45.267 14.8-18.76-24.827-48.52-40.873-82.033-40.873-36.7 0-68.9 19.253-87.073 48.2V465.44H2000V243.62Z" fill="#fff"/></g><defs><clipPath id="a"><path fill="#fff" d="M0 0h2000v464H0z"/></clipPath></defs></svg>