<svg width="600" height="290" viewBox="0 0 600 290" fill="none" xmlns="http://www.w3.org/2000/svg">
<mask id="mask0_379_1113" style="mask-type:luminance" maskUnits="userSpaceOnUse" x="0" y="87" width="600" height="181">
<path d="M600 87H0V268H600V87Z" fill="white"/>
</mask>
<g mask="url(#mask0_379_1113)">
<path d="M420.998 267.4H361.398V207.3L420.998 267.4Z" fill="#006DAC"/>
<path d="M361.398 207.3H420.998V267.4L361.398 207.3Z" fill="#0075B3"/>
<path d="M480.7 267.4H421V207.3L480.7 267.4Z" fill="#0079B6"/>
<path d="M421 207.3H480.7V267.4L421 207.3Z" fill="#007FBC"/>
<path d="M540.299 267.4H480.699V207.3L540.299 267.4Z" fill="#0087C1"/>
<path d="M480.699 207.3H540.299V267.4L480.699 207.3Z" fill="#0090C8"/>
<path d="M599.999 267.4H540.299V207.3L599.999 267.4Z" fill="#00A3D5"/>
<path d="M540.299 207.3H599.999V267.4L540.299 207.3Z" fill="#00ABD3"/>
<path d="M380.199 235.4V235.3C380.199 224.3 388.499 215.2 400.399 215.2C407.699 215.2 412.099 217.6 415.699 221.2L410.299 227.5C407.299 224.8 404.299 223.1 400.399 223.1C393.899 223.1 389.099 228.5 389.099 235.2V235.3C389.099 242 393.699 247.5 400.399 247.5C404.799 247.5 407.599 245.7 410.599 243L415.999 248.5C411.999 252.8 407.599 255.4 400.099 255.4C388.599 255.4 380.199 246.6 380.199 235.4ZM421.199 246.2C421.199 252.1 425.799 255.3 431.399 255.3C435.499 255.3 438.299 253.8 440.399 251.5V254.7H448.499V237.5C448.499 233.5 447.499 230.2 445.299 228C443.199 225.9 439.899 224.7 435.299 224.7C430.299 224.7 426.999 225.6 423.799 227.1L425.899 233.5C428.599 232.5 430.899 231.9 434.099 231.9C438.299 231.9 440.499 233.8 440.499 237.3V237.8C438.399 237.1 436.199 236.6 433.199 236.6C426.199 236.6 421.199 239.6 421.199 246.1V246.2ZM440.599 244.2C440.599 247.2 437.899 249.4 433.999 249.4C431.299 249.4 429.399 248.1 429.399 245.8V245.7C429.399 243 431.599 241.6 435.199 241.6C437.299 241.6 439.099 242 440.599 242.7V244.2ZM456.999 263.6H465.399V250.8C467.399 253.2 470.199 255.2 474.699 255.2C481.699 255.2 488.199 249.8 488.199 239.8V239.7C488.199 229.8 481.599 224.3 474.699 224.3C470.299 224.3 467.499 226.4 465.399 229.1V224.8H456.999V263.6ZM479.699 239.9C479.699 244.9 476.399 248.1 472.399 248.1C468.499 248.1 465.199 244.8 465.199 239.9V239.8C465.199 234.9 468.499 231.6 472.399 231.6C476.299 231.6 479.699 234.9 479.699 239.8V239.9ZM495.699 221.7H504.599V214.2H495.699V221.7ZM495.899 254.7H504.299V225H495.899V254.7ZM514.699 246.3C514.699 253.2 518.199 255.2 523.299 255.2C526.099 255.2 528.199 254.5 529.999 253.5V246.7C528.799 247.4 527.399 247.8 525.799 247.8C523.899 247.8 523.099 246.9 523.099 244.9V232.2H530.099V225H523.099V217.4H514.699V225H511.199V232.2H514.699V246.3ZM535.699 246.2C535.699 252.1 540.299 255.3 545.899 255.3C549.999 255.3 552.799 253.8 554.899 251.5V254.7H562.999V237.5C562.999 233.5 561.999 230.2 559.799 228C557.699 225.9 554.399 224.7 549.799 224.7C544.799 224.7 541.499 225.6 538.299 227.1L540.399 233.5C543.099 232.5 545.399 231.9 548.599 231.9C552.799 231.9 554.999 233.8 554.999 237.3V237.8C552.899 237.1 550.699 236.6 547.699 236.6C540.699 236.6 535.699 239.6 535.699 246.1V246.2ZM554.999 244.2C554.999 247.2 552.299 249.4 548.399 249.4C545.699 249.4 543.799 248.1 543.799 245.8V245.7C543.799 243 545.999 241.6 549.599 241.6C551.699 241.6 553.499 242 554.999 242.7V244.2ZM571.799 254.7H580.199V214.2H571.799V254.7Z" fill="white"/>
<path d="M0 88.4H20.8V125.8H59.2V88.4H80V183H59.2V145H20.8V183H0V88.4ZM277.9 183H298.7V145H337.1V183H357.9V88.4H337.1V125.8H298.7V88.4H277.9V183ZM89.2 183H110.4L119 161.8H159L167.6 183H189.4L148.8 87.7H129.6L89.2 183ZM126.5 143.4L139.1 112.7L151.7 143.4H126.5ZM190.9 169.2C202.3 179.3 216.7 184.3 231 184.3C251.4 184.3 265.7 173.8 265.7 155V154.7C265.7 138.2 254.9 131.3 235.7 126.3C219.3 122.1 215.3 120.1 215.3 113.9V113.6C215.3 109 219.5 105.4 227.5 105.4C235.5 105.4 243.7 108.9 252.1 114.7L262.9 99C253.3 91.3 241.5 87 227.7 87C208.4 87 194.6 98.4 194.6 115.5V115.8C194.6 134.6 206.9 139.9 226 144.7C241.8 148.8 245.1 151.5 245.1 156.7V157C245.1 162.5 240 165.9 231.4 165.9C220.6 165.9 211.7 161.4 203.2 154.4L190.9 169.2ZM429.9 183H502V164.5H450.6V144.6H495.2V126.1H450.6V106.9H501.3V88.4H429.9V183ZM541.7 183H562.5V145.3L598.9 88.4H575.2L552.2 126.4L529.6 88.4H505.3L541.7 145.7V183Z" fill="#004065"/>
<path d="M392.7 153.9L378.2 139.4L363.6 153.9H392.7Z" fill="#0079B6"/>
<path d="M363.6 153.9L378.2 168.5L392.7 153.9H363.6Z" fill="#007FBC"/>
<path d="M407.199 168.5L392.699 153.9L378.199 168.5H407.199Z" fill="#0087C1"/>
<path d="M378.199 168.5L392.699 183L407.199 168.5H378.199Z" fill="#0090C8"/>
<path d="M421.699 183L407.199 168.5L392.699 183H421.699Z" fill="#00A1D4"/>
<path d="M392.699 117.8L377.999 132.5L363.299 117.8H392.699Z" fill="#004065"/>
<path d="M363.299 117.8L377.999 103.1L392.699 117.8H363.299Z" fill="#004065"/>
<path d="M407.4 103.1L392.7 117.8L378 103.1H407.4Z" fill="#004065"/>
<path d="M378 103.1L392.7 88.3999L407.4 103.1H378Z" fill="#004065"/>
<path d="M422.099 88.3999L407.399 103.1L392.699 88.3999H422.099Z" fill="#004065"/>
</g>
</svg>
