<svg width="521" height="297" viewBox="0 0 521 297" fill="none" xmlns="http://www.w3.org/2000/svg">
<path d="M193.321 258.412C191.37 258.412 189.689 258.057 188.278 257.347C186.877 256.636 185.797 255.67 185.04 254.449C184.282 253.218 183.903 251.826 183.903 250.273C183.903 249.089 184.15 248.038 184.642 247.119C185.135 246.191 185.821 245.334 186.702 244.548C187.582 243.762 188.6 242.972 189.756 242.176L194.443 238.866C195.239 238.346 195.859 237.796 196.304 237.219C196.749 236.632 196.972 235.907 196.972 235.045C196.972 234.364 196.678 233.71 196.091 233.085C195.504 232.46 194.718 232.148 193.733 232.148C193.051 232.148 192.45 232.313 191.929 232.645C191.418 232.976 191.015 233.402 190.722 233.923C190.438 234.435 190.295 234.974 190.295 235.543C190.295 236.205 190.475 236.873 190.835 237.545C191.205 238.218 191.678 238.914 192.256 239.634C192.833 240.344 193.439 241.082 194.074 241.849L207.582 258H202.781L191.602 244.861C190.665 243.753 189.794 242.711 188.989 241.736C188.184 240.751 187.53 239.757 187.028 238.753C186.536 237.74 186.29 236.646 186.29 235.472C186.29 234.136 186.593 232.953 187.199 231.92C187.814 230.879 188.671 230.064 189.77 229.477C190.868 228.89 192.156 228.597 193.634 228.597C195.13 228.597 196.413 228.89 197.483 229.477C198.563 230.055 199.391 230.827 199.969 231.793C200.556 232.749 200.849 233.795 200.849 234.932C200.849 236.314 200.504 237.536 199.813 238.597C199.131 239.648 198.188 240.614 196.986 241.494L191.148 245.798C190.011 246.632 189.221 247.455 188.776 248.27C188.34 249.075 188.122 249.705 188.122 250.159C188.122 250.992 188.335 251.764 188.761 252.474C189.197 253.185 189.803 253.753 190.58 254.179C191.366 254.605 192.284 254.818 193.335 254.818C194.415 254.818 195.466 254.586 196.489 254.122C197.521 253.649 198.454 252.972 199.287 252.091C200.13 251.21 200.797 250.154 201.29 248.923C201.782 247.692 202.028 246.314 202.028 244.79H205.864C205.864 246.665 205.651 248.251 205.224 249.548C204.798 250.836 204.282 251.887 203.676 252.702C203.08 253.507 202.516 254.136 201.986 254.591C201.815 254.742 201.654 254.894 201.503 255.045C201.351 255.197 201.19 255.348 201.02 255.5C200.035 256.494 198.842 257.228 197.44 257.702C196.048 258.175 194.675 258.412 193.321 258.412Z" fill="white"/>
<mask id="mask0_288_1108" style="mask-type:luminance" maskUnits="userSpaceOnUse" x="227" y="215" width="293" height="82">
<path d="M519.942 215H227V297H519.942V215Z" fill="white"/>
</mask>
<g mask="url(#mask0_288_1108)">
<path d="M308.904 253.218C307.367 230.627 287.808 213.56 265.218 215.096C253.964 215.862 244.083 221.101 237.187 228.958L237.168 228.945C237.122 229.009 237.078 229.072 237.032 229.136C230.183 237.032 226.331 247.53 227.096 258.782C227.169 259.855 227.295 260.91 227.448 261.956C227.448 261.956 227.448 261.956 227.448 261.956C227.455 262.003 227.462 262.051 227.468 262.098C227.571 262.788 227.691 263.472 227.828 264.149C227.828 264.15 227.828 264.15 227.828 264.151C227.83 264.163 227.833 264.175 227.835 264.187C227.96 264.801 228.098 265.409 228.249 266.012L228.249 266.013C228.249 266.014 228.249 266.014 228.249 266.014C232.984 284.898 250.677 298.272 270.782 296.904C293.373 295.367 310.44 275.808 308.904 253.218ZM299.979 253.825C300.169 256.606 299.994 259.329 299.498 261.949C299.492 261.934 299.487 261.918 299.481 261.903V261.903C296.509 254.638 290.629 249.392 285.459 246.495C286.505 234.184 282.329 228.997 277.602 228.153C277.473 228.129 277.344 228.108 277.212 228.091C273.461 227.61 270.03 230.262 269.55 234.013C269.068 237.765 271.72 241.196 275.472 241.677C275.799 241.719 276.122 241.73 276.443 241.725C276.464 242.141 276.477 242.582 276.48 243.044C272.11 241.961 268.024 241.749 264.299 242.084C262.906 242.176 261.512 242.352 260.126 242.611C260.591 238.454 262.15 233.787 265.177 230.371C268.102 227.07 272.452 225.177 277.197 225.663C278.096 225.755 279.056 225.976 279.92 226.266C279.959 226.279 280.002 226.291 280.041 226.304C280.041 226.304 280.042 226.302 280.043 226.302C291.033 230.779 299.121 241.209 299.979 253.825ZM271.403 260.087C271.4 260.092 271.397 260.096 271.394 260.101C270.415 261.511 269.252 262.903 267.886 264.248C265.839 262.07 264.194 259.724 262.946 257.297C262.882 257.167 262.814 257.043 262.751 256.911C262.749 256.906 262.747 256.901 262.744 256.897C262.011 255.343 261.388 253.639 260.906 251.783C263.819 251.097 266.676 250.845 269.405 250.978C269.549 250.988 269.691 250.991 269.836 251.003C269.841 251.003 269.847 251.003 269.852 251.004C271.561 251.145 273.346 251.457 275.191 251.966C274.328 254.83 273.118 257.43 271.64 259.726C271.559 259.846 271.486 259.967 271.403 260.087ZM257.393 225.758C257.385 225.768 257.377 225.777 257.369 225.787C252.566 231.991 250.962 239.701 251.036 245.626C239.852 250.876 237.449 257.086 239.081 261.601C239.124 261.725 239.171 261.847 239.222 261.969C240.681 265.459 244.693 267.104 248.182 265.645C251.672 264.186 253.317 260.174 251.859 256.684C251.731 256.38 251.579 256.094 251.414 255.819C251.768 255.59 252.147 255.356 252.55 255.119C253.798 259.446 255.643 263.107 257.796 266.166C258.571 267.324 259.418 268.441 260.334 269.51C256.501 271.186 251.678 272.17 247.206 271.257C242.884 270.374 239.07 267.553 237.119 263.201C236.749 262.376 236.46 261.435 236.279 260.542C236.168 259.761 236.075 258.974 236.021 258.175C235.022 243.489 244.133 230.414 257.393 225.758ZM270.175 287.979C261.454 288.573 253.301 285.598 247.14 280.31C254.914 281.368 262.393 278.902 267.488 275.875C277.63 282.942 284.212 281.919 287.307 278.246C287.393 278.147 287.476 278.046 287.556 277.94C289.848 274.932 289.267 270.635 286.259 268.343C283.25 266.05 278.953 266.632 276.661 269.64C276.461 269.902 276.289 270.177 276.133 270.457C275.761 270.266 275.371 270.056 274.967 269.827C278.094 266.582 280.322 263.147 281.895 259.751C282.512 258.499 283.057 257.203 283.526 255.873C286.896 258.354 290.162 262.041 291.608 266.373C293.004 270.557 292.468 275.27 289.675 279.137C289.146 279.869 288.475 280.59 287.791 281.193C287.781 281.202 287.772 281.211 287.762 281.22C282.876 285.061 276.83 287.527 270.175 287.979Z" fill="url(#paint0_linear_288_1108)"/>
<path style="mix-blend-mode:overlay" opacity="0.9" d="M277.602 228.154C277.473 228.129 277.344 228.108 277.212 228.091C276.549 228.006 275.896 228.024 275.267 228.124C279.189 230.257 282.049 236.202 280.545 247.93C280.047 251.814 278.892 255.51 277.225 258.901C275.873 261.818 274.035 264.762 271.563 267.591C272.75 268.481 273.907 269.226 274.967 269.827C278.094 266.582 280.322 263.147 281.895 259.751C283.563 256.36 284.718 252.663 285.216 248.78C287.006 234.816 282.612 229.048 277.602 228.154Z" fill="url(#paint1_radial_288_1108)"/>
<g style="mix-blend-mode:overlay" opacity="0.8">
<path d="M280.545 247.93C282.049 236.202 279.189 230.257 275.267 228.124C275.114 228.148 274.963 228.181 274.813 228.215C278.653 230.422 281.416 236.362 279.933 247.93C279.435 251.814 278.28 255.51 276.613 258.901C275.306 261.721 273.539 264.566 271.19 267.309C271.315 267.406 271.439 267.498 271.563 267.591C274.035 264.762 275.873 261.818 277.225 258.901C278.892 255.51 280.047 251.814 280.545 247.93Z" fill="white"/>
</g>
<path style="mix-blend-mode:overlay" opacity="0.5" d="M265.637 274.528C265.269 274.247 264.914 273.953 264.559 273.659C258.771 276.074 250.747 277.588 242.78 275.739C244.085 277.402 245.541 278.938 247.14 280.31C254.914 281.368 262.393 278.902 267.488 275.875C266.883 275.454 266.268 275.008 265.637 274.528Z" fill="url(#paint2_radial_288_1108)"/>
<path style="mix-blend-mode:overlay" opacity="0.6" d="M264.559 273.659C264.382 273.512 264.204 273.366 264.03 273.216C258.198 275.547 250.137 276.94 242.188 274.959C242.382 275.222 242.579 275.482 242.78 275.739C250.747 277.588 258.771 276.074 264.559 273.659Z" fill="url(#paint3_linear_288_1108)"/>
<path style="mix-blend-mode:overlay" opacity="0.9" d="M239.083 261.608C239.126 261.732 239.172 261.854 239.224 261.976C239.482 262.593 239.824 263.15 240.225 263.645C240.111 259.181 243.83 253.732 254.738 249.17C258.351 247.66 262.129 246.812 265.9 246.56C269.101 246.273 272.571 246.393 276.257 247.119C276.434 245.646 276.501 244.271 276.491 243.053C272.117 241.968 268.028 241.755 264.301 242.09C260.53 242.342 256.751 243.19 253.139 244.7C240.151 250.132 237.353 256.822 239.083 261.608Z" fill="url(#paint4_radial_288_1108)"/>
<g style="mix-blend-mode:overlay" opacity="0.8">
<path d="M254.738 249.171C243.83 253.732 240.112 259.181 240.225 263.645C240.322 263.765 240.426 263.879 240.531 263.992C240.522 259.563 244.285 254.2 255.044 249.701C258.657 248.19 262.435 247.342 266.206 247.091C269.302 246.812 272.649 246.92 276.199 247.583C276.22 247.427 276.238 247.273 276.257 247.119C272.571 246.393 269.102 246.273 265.9 246.56C262.129 246.812 258.351 247.66 254.738 249.171Z" fill="white"/>
</g>
<path style="mix-blend-mode:overlay" opacity="0.4" d="M285.227 248.782C285.168 249.242 285.09 249.696 285.013 250.15C289.999 253.955 295.322 260.147 297.704 267.971C298.492 266.01 299.094 263.981 299.483 261.91C296.512 254.648 290.637 249.404 285.468 246.506C285.406 247.24 285.327 247.997 285.227 248.782Z" fill="url(#paint5_radial_288_1108)"/>
<path style="mix-blend-mode:overlay" opacity="0.5" d="M285.013 250.15C284.975 250.377 284.938 250.605 284.895 250.83C289.829 254.715 295.066 260.999 297.325 268.874C297.456 268.575 297.583 268.274 297.704 267.971C295.322 260.147 289.999 253.955 285.013 250.15Z" fill="url(#paint6_linear_288_1108)"/>
<path style="mix-blend-mode:overlay" opacity="0.9" d="M287.312 278.237C287.398 278.138 287.48 278.037 287.56 277.931C287.966 277.399 288.277 276.825 288.505 276.23C284.696 278.56 278.118 278.064 268.714 270.898C265.599 268.525 262.975 265.677 260.872 262.536C259.022 259.908 257.392 256.843 256.177 253.289C254.813 253.871 253.589 254.501 252.539 255.118C253.786 259.449 255.646 263.096 257.801 266.157C259.904 269.297 262.527 272.145 265.642 274.518C276.839 283.05 284.032 282.128 287.312 278.237Z" fill="url(#paint7_radial_288_1108)"/>
<g style="mix-blend-mode:overlay" opacity="0.8">
<path d="M268.714 270.898C278.118 278.064 284.696 278.56 288.505 276.23C288.561 276.085 288.608 275.939 288.653 275.791C284.821 278.013 278.296 277.436 269.02 270.368C265.905 267.995 263.281 265.147 261.178 262.006C259.389 259.465 257.809 256.512 256.608 253.106C256.462 253.166 256.32 253.228 256.177 253.289C257.392 256.843 259.022 259.908 260.872 262.536C262.975 265.677 265.599 268.525 268.714 270.898Z" fill="white"/>
</g>
<path style="mix-blend-mode:overlay" opacity="0.3" d="M253.133 244.688C253.56 244.51 253.992 244.349 254.424 244.189C255.227 237.969 257.928 230.263 263.512 224.288C261.42 224.586 259.362 225.079 257.374 225.778C252.57 231.982 250.967 239.692 251.041 245.617C251.708 245.304 252.402 244.994 253.133 244.688Z" fill="url(#paint8_radial_288_1108)"/>
<path style="mix-blend-mode:overlay" opacity="0.4" d="M254.424 244.189C254.64 244.109 254.855 244.027 255.072 243.952C255.97 237.736 258.794 230.059 264.484 224.165C264.159 224.201 263.835 224.242 263.512 224.288C257.928 230.263 255.227 237.969 254.424 244.189Z" fill="url(#paint9_linear_288_1108)"/>
<path style="mix-blend-mode:multiply" opacity="0.4" d="M265.218 215.096C253.964 215.862 244.083 221.101 237.187 228.958C237.135 229.018 237.084 229.077 237.032 229.137L237.032 229.136C238.375 230.468 242.762 233.094 244.54 234.189C248.032 230.434 252.421 227.504 257.393 225.758C257.74 225.311 258.1 224.869 258.482 224.439C263.113 219.213 269.437 216.451 276.773 216.451C277.589 216.451 279.252 216.581 279.288 216.583C274.841 215.306 270.101 214.764 265.218 215.096Z" fill="url(#paint10_linear_288_1108)"/>
<path style="mix-blend-mode:multiply" opacity="0.4" d="M270.175 287.979C261.454 288.573 253.302 285.598 247.14 280.31L247.14 280.31C246.567 280.232 245.992 280.138 245.416 280.021C238.575 278.623 233.02 274.527 229.352 268.174C228.944 267.467 228.579 266.747 228.25 266.015C232.985 284.898 250.677 298.272 270.782 296.904C270.871 294.834 270.261 290.029 270.175 287.979Z" fill="url(#paint11_linear_288_1108)"/>
<path style="mix-blend-mode:multiply" opacity="0.4" d="M308.904 253.218C307.644 253.089 301.492 253.574 299.979 253.825C300.169 256.606 299.994 259.329 299.498 261.949C299.711 262.47 299.912 262.999 300.093 263.541C302.303 270.165 301.533 277.023 297.865 283.376C297.465 284.07 297.032 284.734 296.573 285.374C296.564 285.386 296.554 285.4 296.546 285.41C296.546 285.411 296.565 285.395 296.576 285.385C304.904 277.283 309.754 265.718 308.904 253.218Z" fill="url(#paint12_linear_288_1108)"/>
<path style="mix-blend-mode:multiply" opacity="0.5" d="M277.197 225.663C278.096 225.755 279.056 225.976 279.92 226.266C279.959 226.279 280.002 226.291 280.041 226.304C280.041 226.304 280.042 226.302 280.043 226.302C283.58 227.743 286.813 229.803 289.605 232.351C289.611 232.356 289.617 232.36 289.623 232.365C290.968 230.827 293.559 229.137 293.559 229.137C293.559 229.137 289.592 225.08 283.526 223.82C279.279 222.939 269.699 222.084 263.658 232.365C263.658 232.365 263.682 232.343 263.717 232.31C264.164 231.634 264.639 230.978 265.177 230.371C268.102 227.07 272.452 225.177 277.197 225.663Z" fill="url(#paint13_linear_288_1108)"/>
<path style="mix-blend-mode:multiply" opacity="0.5" d="M289.674 279.133C289.145 279.866 288.474 280.587 287.79 281.19C287.759 281.217 287.728 281.248 287.697 281.276C287.697 281.277 287.697 281.278 287.698 281.279C284.682 283.621 281.281 285.392 277.678 286.535C277.671 286.538 277.664 286.541 277.657 286.543C278.316 288.477 278.485 291.566 278.485 291.566C278.485 291.566 283.982 290.16 288.106 285.535C290.993 282.298 296.522 274.43 290.639 264.057C290.639 264.057 290.647 264.089 290.658 264.136C291.019 264.861 291.35 265.601 291.607 266.369C293.003 270.554 292.467 275.267 289.674 279.133Z" fill="url(#paint14_linear_288_1108)"/>
<path style="mix-blend-mode:multiply" opacity="0.5" d="M237.133 263.213C236.763 262.388 236.474 261.447 236.294 260.553C236.285 260.512 236.274 260.47 236.266 260.429C236.265 260.429 236.264 260.429 236.263 260.429C235.742 256.646 235.91 252.815 236.721 249.123C236.722 249.116 236.723 249.108 236.724 249.101C234.719 248.705 231.96 247.306 231.96 247.306C231.96 247.306 230.43 252.77 232.373 258.653C233.733 262.772 237.782 271.496 249.707 271.587C249.707 271.587 249.675 271.578 249.629 271.563C248.82 271.514 248.014 271.431 247.22 271.269C242.898 270.386 239.085 267.565 237.133 263.213Z" fill="url(#paint15_linear_288_1108)"/>
<path style="mix-blend-mode:multiply" opacity="0.6" d="M275.472 241.677C275.799 241.719 276.122 241.73 276.443 241.725C276.443 241.725 276.229 237.465 275.706 235.279C275.183 233.094 274.411 231.646 273.564 230.827C272.957 230.24 271.04 229.509 269.55 234.013C269.068 237.765 271.72 241.196 275.472 241.677Z" fill="url(#paint16_linear_288_1108)"/>
<path style="mix-blend-mode:multiply" opacity="0.5" d="M251.86 256.691C251.733 256.387 251.581 256.101 251.416 255.826C251.416 255.826 247.834 258.141 246.203 259.687C244.571 261.233 243.704 262.625 243.418 263.768C243.213 264.587 243.538 266.613 248.184 265.651C251.674 264.192 253.319 260.18 251.86 256.691Z" fill="url(#paint17_linear_288_1108)"/>
<path style="mix-blend-mode:multiply" opacity="0.6" d="M276.666 269.628C276.467 269.891 276.295 270.166 276.139 270.446C276.139 270.446 279.935 272.39 282.09 273.03C284.244 273.67 285.883 273.726 287.017 273.401C287.828 273.169 289.42 271.875 286.264 268.332C283.256 266.039 278.959 266.62 276.666 269.628Z" fill="url(#paint18_linear_288_1108)"/>
<path style="mix-blend-mode:multiply" opacity="0.3" d="M275.191 251.966C274.328 254.83 273.118 257.43 271.64 259.726C271.559 259.846 271.486 259.967 271.403 260.087C271.4 260.092 271.397 260.096 271.394 260.101C270.415 261.512 269.252 262.903 267.886 264.248C268.825 265.247 269.84 266.214 270.954 267.131C272.354 268.236 273.726 269.124 274.967 269.827C278.094 266.582 280.322 263.147 281.895 259.751C282.512 258.499 283.057 257.203 283.526 255.873C282.083 254.811 280.622 253.966 279.275 253.392C277.883 252.799 276.522 252.333 275.191 251.966Z" fill="url(#paint19_linear_288_1108)"/>
<path style="mix-blend-mode:multiply" opacity="0.3" d="M247.14 280.31C254.914 281.368 262.393 278.902 267.488 275.875C266.883 275.454 266.268 275.008 265.637 274.528C263.671 273.029 261.901 271.341 260.334 269.51C256.501 271.186 251.678 272.17 247.206 271.257C242.884 270.374 239.071 267.553 237.119 263.201C236.749 262.376 236.46 261.435 236.279 260.542C237.409 268.467 241.408 275.391 247.14 280.31Z" fill="url(#paint20_linear_288_1108)"/>
<path style="mix-blend-mode:multiply" opacity="0.3" d="M267.886 264.248C265.839 262.07 264.194 259.724 262.946 257.297C262.882 257.167 262.814 257.043 262.751 256.911C262.749 256.906 262.747 256.901 262.744 256.897C262.011 255.343 261.388 253.639 260.906 251.783C259.574 252.096 258.233 252.491 256.884 252.997C255.231 253.655 253.778 254.398 252.55 255.119C253.798 259.446 255.643 263.107 257.796 266.166C258.571 267.324 259.418 268.441 260.334 269.51C261.977 268.791 263.442 267.947 264.614 267.067C265.822 266.159 266.905 265.215 267.886 264.248Z" fill="url(#paint21_linear_288_1108)"/>
<path style="mix-blend-mode:multiply" opacity="0.3" d="M257.369 225.787C252.566 231.991 250.962 239.701 251.036 245.626C251.706 245.312 252.403 245.001 253.137 244.694C255.415 243.741 257.759 243.053 260.126 242.611C260.591 238.454 262.15 233.787 265.177 230.371C268.102 227.07 272.452 225.177 277.197 225.663C278.096 225.755 279.056 225.976 279.92 226.266C279.96 226.279 280.002 226.291 280.041 226.304C280.041 226.304 280.042 226.302 280.043 226.302C275.672 224.521 270.843 223.679 265.825 224.021C262.878 224.221 260.054 224.824 257.393 225.758C257.386 225.768 257.377 225.777 257.369 225.787Z" fill="url(#paint22_linear_288_1108)"/>
<path style="mix-blend-mode:multiply" opacity="0.3" d="M299.481 261.903C296.509 254.638 290.629 249.392 285.459 246.495C285.396 247.232 285.317 247.991 285.216 248.78C284.902 251.229 284.326 253.603 283.526 255.873C286.896 258.354 290.162 262.041 291.608 266.373C293.004 270.557 292.468 275.27 289.675 279.137C289.146 279.869 288.475 280.59 287.791 281.193C287.781 281.202 287.772 281.211 287.762 281.22C293.781 276.49 298.039 269.671 299.498 261.949C299.492 261.934 299.487 261.918 299.481 261.903V261.903Z" fill="url(#paint23_linear_288_1108)"/>
<path style="mix-blend-mode:multiply" opacity="0.3" d="M260.101 247.542C260.283 249.041 260.559 250.45 260.906 251.783C263.819 251.097 266.676 250.845 269.405 250.978C269.549 250.988 269.691 250.991 269.836 251.003C269.841 251.003 269.847 251.003 269.852 251.004C271.561 251.145 273.346 251.457 275.191 251.966C275.586 250.656 275.915 249.295 276.152 247.873C276.409 246.106 276.492 244.472 276.48 243.044C272.11 241.961 268.024 241.749 264.299 242.084C262.906 242.176 261.512 242.352 260.126 242.611C259.926 244.395 259.925 246.086 260.101 247.542Z" fill="url(#paint24_linear_288_1108)"/>
<path d="M460.343 243.671L454.18 260.841H454.226L460.379 243.774L460.343 243.671Z" fill="url(#paint25_linear_288_1108)"/>
<path d="M350.885 243.671L344.722 260.841H344.741L350.909 243.736L350.885 243.671Z" fill="url(#paint26_linear_288_1108)"/>
<path d="M346.958 247.96L351.582 260.841H342.314L339.972 267.335H353.949L357.911 278.341H366.771L350.615 237.818L346.958 247.96Z" fill="url(#paint27_linear_288_1108)"/>
<path d="M339.256 260.841L345.419 243.671L345.442 243.736L348.045 236.517H341.236L324.617 278.341H332.965L339.274 260.841H339.256Z" fill="url(#paint28_linear_288_1108)"/>
<path d="M393.626 256.796C391.608 255.605 388.93 254.494 385.592 253.466C383.684 252.844 382.189 252.266 381.107 251.733C380.024 251.202 379.272 250.596 378.851 249.918C378.429 249.239 378.218 248.441 378.218 247.524C378.218 245.909 378.841 244.662 380.089 243.781C381.336 242.9 383.079 242.461 385.317 242.461C387.151 242.461 389.068 242.736 391.068 243.286C393.066 243.836 394.837 244.588 396.378 245.542L397.534 238.774C395.956 237.819 394.04 237.058 391.783 236.49C389.527 235.921 387.279 235.637 385.042 235.637C381.996 235.637 379.355 236.132 377.117 237.123C374.879 238.114 373.146 239.526 371.917 241.359C370.687 243.195 370.073 245.359 370.073 247.853C370.073 249.982 370.486 251.825 371.311 253.384C372.137 254.943 373.486 256.292 375.356 257.43C377.227 258.567 379.685 259.595 382.73 260.51C384.932 261.171 386.637 261.796 387.849 262.382C389.059 262.969 389.903 263.621 390.38 264.335C390.856 265.051 391.095 265.904 391.095 266.894C391.095 268.619 390.388 269.968 388.976 270.939C387.564 271.911 385.61 272.397 383.115 272.397C380.95 272.397 378.686 272.059 376.319 271.379C373.953 270.701 371.889 269.83 370.128 268.766L369.358 275.754C370.384 276.452 371.669 277.056 373.21 277.57C374.751 278.084 376.411 278.487 378.191 278.78C379.97 279.074 381.74 279.222 383.501 279.222C388.454 279.222 392.342 278.094 395.167 275.836C397.992 273.581 399.405 270.454 399.405 266.454C399.405 264.327 398.946 262.483 398.029 260.924C397.112 259.364 395.644 257.989 393.626 256.796Z" fill="url(#paint29_linear_288_1108)"/>
<path d="M437.541 236.517H402.157V243.337H437.541V236.517Z" fill="url(#paint30_linear_288_1108)"/>
<path d="M424.059 246.196H415.639V278.341H424.059V246.196Z" fill="url(#paint31_linear_288_1108)"/>
<path d="M448.713 260.841L454.876 243.671L454.913 243.774L457.529 236.517H450.694L434.074 278.341H442.44L446.401 267.335H446.418L448.759 260.841H448.713Z" fill="url(#paint32_linear_288_1108)"/>
<path d="M456.429 247.996L461.04 260.841H451.798L449.456 267.335H463.406L467.369 278.341H476.229L460.086 237.851L456.429 247.996Z" fill="url(#paint33_linear_288_1108)"/>
<path d="M503.469 261.391C505.486 260.255 507.137 258.722 508.421 256.796C509.706 254.871 510.348 252.623 510.348 250.055C510.348 247.267 509.722 244.863 508.476 242.846C507.23 240.829 505.45 239.268 503.138 238.168C500.828 237.067 498.076 236.517 494.886 236.517H491.96V242.846H493.783C499.36 242.846 502.148 245.23 502.148 250C502.148 254.769 499.267 257.155 493.508 257.155H491.96V263.482H496.261L505.065 278.341H514.476L503.469 261.391Z" fill="url(#paint34_linear_288_1108)"/>
<path d="M489.101 236.517H481.126V278.341H489.101V236.517Z" fill="url(#paint35_linear_288_1108)"/>
</g>
<path d="M4.19604 30V0.909088H8.4432V11.7187H8.69889C8.9451 11.2642 9.30021 10.7386 9.76423 10.142C10.2282 9.54545 10.8722 9.02462 11.696 8.57954C12.5199 8.125 13.6089 7.89773 14.9631 7.89773C16.7245 7.89773 18.2964 8.3428 19.679 9.23295C21.0616 10.1231 22.1459 11.4062 22.9318 13.0824C23.7273 14.7585 24.125 16.7756 24.125 19.1335C24.125 21.4915 23.732 23.5133 22.946 25.1989C22.1601 26.875 21.0805 28.1676 19.7074 29.0767C18.3343 29.9763 16.7671 30.4261 15.0057 30.4261C13.6799 30.4261 12.5957 30.2036 11.7529 29.7585C10.9195 29.3134 10.2661 28.7926 9.79264 28.196C9.31915 27.5994 8.95457 27.0691 8.69889 26.6051H8.34377V30H4.19604ZM8.35798 19.0909C8.35798 20.625 8.58051 21.9697 9.02559 23.125C9.47067 24.2803 10.1146 25.1847 10.9574 25.8381C11.8002 26.482 12.8324 26.804 14.054 26.804C15.3229 26.804 16.3835 26.4678 17.2358 25.7955C18.0881 25.1136 18.732 24.1903 19.1676 23.0256C19.6127 21.8608 19.8352 20.5492 19.8352 19.0909C19.8352 17.6515 19.6174 16.3589 19.1818 15.2131C18.7557 14.0672 18.1118 13.1629 17.25 12.5C16.3977 11.8371 15.3324 11.5057 14.054 11.5057C12.8229 11.5057 11.7813 11.8229 10.929 12.4574C10.0862 13.0919 9.44699 13.9773 9.01139 15.1136C8.57578 16.25 8.35798 17.5758 8.35798 19.0909Z" fill="white"/>
<path d="M30.8367 38.1818C30.2022 38.1818 29.6245 38.1297 29.1037 38.0256C28.5829 37.9309 28.1946 37.8267 27.9389 37.7131L28.9617 34.233C29.7382 34.4413 30.4295 34.5312 31.0355 34.5028C31.6416 34.4744 32.1766 34.2472 32.6406 33.821C33.1141 33.3949 33.5308 32.6989 33.8906 31.733L34.4162 30.2841L26.4333 8.18182H30.9787L36.5043 25.1136H36.7316L42.2571 8.18182H46.8168L37.8253 32.9119C37.4086 34.0483 36.8783 35.0095 36.2344 35.7955C35.5905 36.5909 34.8234 37.1875 33.9333 37.5852C33.0431 37.983 32.0109 38.1818 30.8367 38.1818Z" fill="white"/>
<g clip-path="url(#clip0_288_1108)">
<path d="M168.155 149.972C151.04 149.972 135.181 144.88 124.608 135.386C120.827 131.993 117.815 127.833 115.772 123.184C113.729 118.536 112.702 113.506 112.761 108.429C112.749 103.374 113.797 98.3721 115.838 93.7457C117.878 89.1193 120.866 84.9708 124.608 81.5672C134.426 72.6572 151.795 67 168.155 67C186.251 67 200.742 71.554 211.815 81.5861C215.543 84.9885 218.51 89.1377 220.524 93.7631C222.538 98.3884 223.552 103.386 223.501 108.429C223.476 113.478 222.428 118.469 220.419 123.102C218.411 127.734 215.484 131.913 211.815 135.386C201.497 144.937 185.298 149.972 168.155 149.972V139.053C177.227 139.053 185.647 135.923 191.528 130.077C197.409 124.232 200.081 117.141 200.081 108.392C200.081 100.038 197.145 92.2309 191.528 86.7058C185.723 81.0015 177.104 77.7863 168.155 77.7863C159.206 77.7863 150.549 80.9732 144.744 86.7058C139.146 92.2404 136.248 100.076 136.248 108.392C136.164 112.387 136.871 116.36 138.329 120.081C139.787 123.803 141.967 127.2 144.744 130.077C150.549 135.857 159.149 139.053 168.155 139.053V149.972ZM43.1881 67C34.0407 67 23.6473 68.716 14.8681 72.6572C6.67414 76.3155 5.81672e-05 82.1895 5.81672e-05 91.9292C-0.0122522 97.0297 1.92986 101.942 5.42806 105.657C7.7975 107.845 11.6207 111.56 21.6082 113.747C26.0733 114.69 35.6172 116.208 45.1233 117.207C54.6293 118.207 63.8428 119.093 67.6188 120.102C70.6207 120.866 75.6711 121.903 75.6711 127.56C75.6711 133.217 70.3564 134.914 69.4313 135.282C68.5061 135.65 62.1247 138.573 50.6645 138.573C43.0715 138.362 35.5474 137.07 28.3201 134.735C24.0437 133.208 19.5597 131.199 15.3778 126.098C13.6901 123.696 12.7538 120.848 12.6874 117.914H2.30342V146.955H13.8391V143.023C13.8373 142.731 13.9133 142.444 14.0594 142.192C14.2055 141.939 14.4163 141.73 14.6702 141.586C14.9241 141.442 15.2118 141.368 15.5038 141.372C15.7957 141.376 16.0814 141.458 16.3313 141.609C21.7661 143.971 27.4193 145.796 33.21 147.058C39.2705 148.322 43.1881 149.236 50.7212 149.236C58.6703 149.387 66.5925 148.27 74.189 145.927C79.2334 144.546 83.9663 142.213 88.1319 139.053C90.4749 137.256 92.3686 134.94 93.6642 132.288C94.9598 129.636 95.6221 126.72 95.5989 123.77C95.6383 118.164 93.4721 112.767 89.5668 108.74C87.3952 106.635 84.8794 104.917 82.1281 103.658C79.1703 102.324 76.0997 101.254 72.9524 100.462C66.9674 99.0007 53.5249 97.1715 47.0962 96.5304C40.3561 95.8327 28.6599 94.8615 23.9871 93.419C22.5711 92.9758 19.6825 91.6087 19.6825 88.2615C19.6825 85.8761 21.0041 83.8583 23.6095 82.2272C27.7537 79.6343 36.1175 78.022 44.8401 78.022C53.283 77.9202 61.6566 79.5538 69.4407 82.8212C71.532 83.7312 73.4988 84.9035 75.2935 86.3098C78.2192 88.8056 80.2452 92.1904 81.0613 95.9458H90.3786V70.6677H79.9946V73.6C79.9946 74.5429 79.0506 75.7875 77.1626 74.7597C72.4804 72.3272 59.321 67.066 43.1881 67ZM271.155 71.6389L321.904 117.377L321.385 86.5832C321.328 82.5383 320.592 80.8506 316.212 80.8506H306.677V71.6389H350.101V80.8506H340.784C336.328 80.8506 336.064 82.2838 335.989 86.5832L336.772 145.427H321.904L263.442 93.3247V130.294C263.489 134.32 263.678 136.215 267.822 136.215H278.206V145.427H235.641V136.215H245.61C249.329 136.215 249.178 132.67 249.178 130.087V86.9321C249.178 84.1035 248.782 80.8601 242.948 80.8601H234.867V71.6389H271.155ZM399.642 136.197C400.501 136.197 401.358 136.143 402.21 136.036C402.653 135.904 403.061 135.676 403.406 135.37C403.752 135.064 404.027 134.687 404.211 134.264C404.342 133.608 404.408 132.942 404.41 132.274V117.707C404.41 117.217 404.41 117.207 403.787 116.434C403.164 115.661 377.204 86.2626 376.024 84.9426C374.551 83.3398 371.964 80.8601 368.028 80.8601H359.013V71.6389H409.894V80.8412H403.758C402.342 80.8412 401.398 82.1895 402.607 83.6698C402.607 83.6698 419.731 104.13 419.891 104.347C420.052 104.564 420.193 104.611 420.41 104.413C420.628 104.215 437.959 83.8583 438.092 83.6698C438.296 83.4012 438.42 83.0796 438.447 82.7431C438.474 82.4066 438.404 82.0693 438.245 81.7714C438.086 81.4735 437.845 81.2275 437.55 81.0626C437.255 80.8977 436.919 80.8209 436.581 80.8412H430.285V71.6389H472V80.8601H462.683C459.303 80.8601 457.963 81.4823 455.386 84.3486L427.302 116.349C427.027 116.745 426.906 117.228 426.962 117.707V132.265C426.967 132.933 427.036 133.599 427.169 134.254C427.351 134.678 427.624 135.056 427.968 135.362C428.312 135.668 428.719 135.895 429.161 136.027C430.006 136.138 430.858 136.192 431.71 136.187H441.235V145.408H390.618V136.187L399.642 136.197Z" fill="white"/>
</g>
<path d="M83.2813 173.544L81.1972 174.644C80.9194 174.033 80.5026 173.667 80.2247 173.544C79.8079 173.3 79.3911 173.3 78.8353 173.3C78.0017 173.178 77.446 173.422 77.0292 173.667C76.6123 174.033 76.3345 174.522 76.3345 175.011C76.3345 175.744 76.8902 176.356 78.1406 176.722L79.8079 177.333C81.1972 177.822 82.1698 178.433 82.7255 179.044C83.2813 179.656 83.6981 180.633 83.6981 181.611C83.6981 182.956 83.1424 184.056 82.1698 185.033C81.1972 185.889 79.8079 186.378 78.2796 186.378C76.8902 186.378 75.6398 186.011 74.6672 185.278C73.8336 184.544 73.2779 183.444 73 182.1L75.5009 181.611C75.6398 182.467 75.7787 183.078 76.0566 183.444C76.6123 184.056 77.307 184.422 78.2796 184.422C79.1132 184.422 79.6689 184.178 80.2247 183.689C80.7804 183.2 81.0583 182.589 81.0583 181.978C81.0583 181.733 81.0583 181.489 80.9194 181.244C80.9194 180.878 80.7804 180.633 80.6415 180.389C80.5026 180.144 80.2247 180.022 79.9468 179.9C79.53 179.656 79.2521 179.533 78.8353 179.289L77.1681 178.8C74.9451 177.944 73.6947 176.6 73.6947 175.011C73.6947 173.911 74.1115 172.933 75.084 172.2C76.0566 171.467 77.307 171.1 78.6964 171.1C80.7804 171.1 82.1698 171.956 83.2813 173.544ZM86.3379 181.367C86.3379 180.022 86.8936 178.922 88.0051 177.944C89.1166 176.967 90.367 176.478 92.0343 176.478C93.5626 176.478 94.9519 176.967 96.0634 177.944C97.1749 178.922 97.7307 180.022 97.7307 181.489C97.7307 182.833 97.1749 184.056 96.0634 185.033C94.9519 186.011 93.5626 186.378 92.0343 186.378C90.506 186.378 89.1166 185.889 88.0051 184.911C86.7547 184.056 86.3379 182.833 86.3379 181.367ZM88.8387 181.489C88.8387 182.467 89.1166 183.2 89.6724 183.689C90.2281 184.178 91.0617 184.544 91.8953 184.544C92.8679 184.544 93.5626 184.3 94.1183 183.689C94.6741 183.2 94.9519 182.467 94.9519 181.489C94.9519 180.511 94.6741 179.9 94.1183 179.289C93.5626 178.8 92.729 178.433 91.8953 178.433C90.9228 178.433 90.2281 178.678 89.6724 179.289C89.1166 179.9 88.8387 180.633 88.8387 181.489ZM100.093 176.844H102.593V177.7C103.427 176.967 104.4 176.6 105.511 176.6C106.762 176.6 107.734 176.967 108.429 177.578C108.985 178.189 109.262 179.044 109.262 180.389V186.133H106.762V180.878C106.762 179.9 106.623 179.289 106.345 178.922C106.067 178.678 105.511 178.556 104.816 178.556C103.983 178.556 103.427 178.8 103.149 179.289C102.871 179.778 102.593 180.511 102.593 181.733V186.256H100.093V176.844ZM116.209 184.422L111.485 176.844H114.264L117.46 182.222L120.516 176.844H123.295L114.82 191.267H112.041L116.209 184.422ZM133.993 186.133V170.367L146.219 181.611V171.344H148.72V186.989L136.494 175.744V186.011H133.993V186.133ZM162.197 181.978H154.556C154.556 182.711 154.834 183.322 155.389 183.811C155.945 184.3 156.501 184.422 157.334 184.422C157.89 184.422 158.446 184.3 158.863 184.056C159.279 183.811 159.696 183.322 160.252 182.589L162.336 183.567C162.058 184.056 161.641 184.422 161.364 184.789C160.947 185.156 160.669 185.4 160.252 185.644C159.835 185.889 159.418 186.011 159.002 186.133C158.585 186.256 158.029 186.256 157.473 186.256C155.945 186.256 154.695 185.767 153.722 184.911C152.749 184.056 152.333 182.833 152.333 181.367C152.333 179.9 152.749 178.678 153.722 177.822C154.695 176.967 155.945 176.478 157.473 176.478C159.002 176.478 160.252 176.967 161.225 177.822C162.058 178.678 162.614 179.9 162.614 181.367L162.197 181.978ZM159.696 180.267C159.418 179.044 158.585 178.556 157.195 178.556C156.918 178.556 156.64 178.556 156.362 178.678C156.084 178.8 155.806 178.922 155.667 179.044C155.389 179.167 155.25 179.411 155.111 179.533C154.972 179.656 154.834 180.022 154.834 180.267H159.696ZM168.032 178.8V186.133H165.532V178.8H164.42V176.844H165.532V173.422H168.032V176.844H169.978V178.8H168.032ZM174.701 176.844L177.48 182.1L180.398 175.989L183.454 182.1L186.233 176.844H189.012L183.454 186.867L180.537 180.878L177.619 186.867L172.062 176.844H174.701ZM189.707 181.367C189.707 180.022 190.262 178.922 191.374 177.944C192.485 177.089 193.736 176.6 195.264 176.6C196.792 176.6 198.182 177.089 199.293 178.067C200.405 179.044 200.96 180.144 200.96 181.611C200.96 182.956 200.405 184.178 199.293 185.156C198.182 186.133 196.792 186.5 195.264 186.5C193.736 186.5 192.346 186.011 191.235 185.033C190.262 184.056 189.707 182.833 189.707 181.367ZM192.207 181.489C192.207 182.467 192.485 183.2 193.041 183.689C193.597 184.178 194.43 184.544 195.264 184.544C196.237 184.544 196.931 184.3 197.487 183.689C198.043 183.2 198.321 182.467 198.321 181.489C198.321 180.511 198.043 179.9 197.487 179.289C197.07 178.8 196.237 178.556 195.264 178.556C194.291 178.556 193.597 178.8 193.041 179.411C192.485 179.9 192.207 180.633 192.207 181.489ZM203.6 176.844H206.101V177.7C206.518 177.333 206.935 176.967 207.351 176.844C207.768 176.722 208.185 176.6 208.602 176.6C209.297 176.6 209.852 176.844 210.686 177.211L209.574 179.167C209.158 178.922 208.602 178.678 208.185 178.678C206.796 178.678 206.24 179.533 206.24 181.367V186.133H203.6V176.844ZM215.132 170V179.778L218.605 176.722H221.94L217.355 180.633L222.218 186.011H219.022L215.549 182.1L215.132 182.467V186.011H212.631V170H215.132ZM245.142 172.2V174.889C243.614 173.789 242.224 173.3 240.557 173.3C238.89 173.3 237.362 173.789 236.25 174.889C235 175.989 234.444 177.333 234.444 178.8C234.444 180.389 235 181.611 236.25 182.711C237.501 183.811 238.89 184.3 240.557 184.3C241.391 184.3 242.224 184.178 242.78 183.933C243.058 183.811 243.475 183.689 243.892 183.444C244.309 183.2 244.725 182.956 245.003 182.711V185.4C243.614 186.133 242.086 186.5 240.418 186.5C238.056 186.5 235.972 185.767 234.305 184.3C232.638 182.833 231.804 181 231.804 178.922C231.804 177.089 232.499 175.378 233.888 173.911C235.556 172.078 237.917 171.222 240.696 171.222C242.363 171.1 243.753 171.467 245.142 172.2ZM247.921 181.367C247.921 180.022 248.477 178.922 249.588 177.944C250.7 176.967 251.95 176.478 253.617 176.478C255.146 176.478 256.535 176.967 257.646 177.944C258.758 178.922 259.314 180.022 259.314 181.489C259.314 182.833 258.758 184.056 257.646 185.033C256.535 186.011 255.146 186.378 253.617 186.378C252.089 186.378 250.7 185.889 249.588 184.911C248.477 184.056 247.921 182.833 247.921 181.367ZM250.422 181.489C250.422 182.467 250.7 183.2 251.255 183.689C251.811 184.178 252.645 184.544 253.478 184.544C254.451 184.544 255.146 184.3 255.701 183.689C256.257 183.2 256.535 182.467 256.535 181.489C256.535 180.511 256.257 179.9 255.701 179.289C255.146 178.8 254.312 178.433 253.478 178.433C252.506 178.433 251.811 178.678 251.255 179.289C250.7 179.9 250.422 180.633 250.422 181.489ZM261.259 176.844H263.76V177.7C264.176 177.211 264.593 176.967 265.01 176.844C265.427 176.722 265.844 176.6 266.399 176.6C267.65 176.6 268.483 177.089 269.178 177.944C270.012 176.967 270.984 176.6 272.235 176.6C274.597 176.6 275.847 177.822 275.847 180.389V186.133H273.346V181C273.346 180.144 273.207 179.533 272.929 179.167C272.79 178.678 272.374 178.556 271.679 178.556C270.984 178.556 270.568 178.8 270.151 179.167C269.734 179.533 269.734 180.389 269.734 181.367V186.133H267.233V181C267.233 179.289 266.677 178.556 265.566 178.556C264.871 178.556 264.315 178.8 264.038 179.289C263.76 179.778 263.621 180.511 263.621 181.489V186.256H261.12V176.844H261.259ZM278.487 176.844H280.988V177.7C281.405 177.211 281.821 176.967 282.238 176.844C282.655 176.722 283.072 176.6 283.628 176.6C284.878 176.6 285.712 177.089 286.406 177.944C287.24 176.967 288.212 176.6 289.463 176.6C291.825 176.6 293.075 177.822 293.075 180.389V186.133H290.574V181C290.574 180.144 290.435 179.533 290.158 179.167C289.88 178.8 289.463 178.556 288.907 178.556C288.212 178.556 287.796 178.8 287.379 179.167C287.101 179.656 286.962 180.389 286.962 181.367V186.133H284.461V181C284.461 179.289 283.905 178.556 282.794 178.556C282.099 178.556 281.543 178.8 281.266 179.289C280.988 179.778 280.849 180.511 280.849 181.489V186.256H278.348V176.844H278.487ZM298.494 176.844V182.222C298.494 183.811 299.188 184.544 300.578 184.544C301.967 184.544 302.662 183.811 302.662 182.222V176.844H305.163V182.222C305.163 182.956 305.024 183.567 304.885 184.178C304.746 184.667 304.329 185.156 303.773 185.522C302.94 186.133 301.967 186.5 300.578 186.5C299.327 186.5 298.216 186.133 297.382 185.522C296.826 185.156 296.549 184.667 296.271 184.178C296.132 183.689 295.993 183.078 295.993 182.222V176.844H298.494ZM308.08 176.844H310.581V177.7C311.415 176.967 312.387 176.6 313.499 176.6C314.749 176.6 315.722 176.967 316.417 177.578C316.972 178.189 317.25 179.044 317.25 180.389V186.133H314.749V180.878C314.749 179.9 314.61 179.289 314.332 178.922C314.055 178.556 313.499 178.433 312.804 178.433C311.971 178.433 311.415 178.678 311.137 179.167C310.859 179.656 310.581 180.389 310.581 181.611V186.133H308.08V176.844ZM320.446 172.933C320.446 172.567 320.585 172.2 320.862 171.956C321.14 171.711 321.557 171.589 321.974 171.589C322.391 171.589 322.808 171.711 323.085 171.956C323.363 172.2 323.502 172.567 323.502 172.933C323.502 173.3 323.363 173.667 323.085 173.911C322.808 174.156 322.391 174.278 321.974 174.278C321.557 174.278 321.14 174.156 320.862 173.911C320.585 173.667 320.446 173.3 320.446 172.933ZM323.224 176.844V186.133H320.724V176.844H323.224ZM334.478 177.211V180.022C333.922 179.411 333.367 179.044 332.95 178.8C332.533 178.556 331.977 178.433 331.422 178.433C330.449 178.433 329.754 178.678 329.199 179.289C328.643 179.9 328.226 180.511 328.226 181.367C328.226 182.222 328.504 182.956 329.06 183.567C329.615 184.178 330.449 184.422 331.283 184.422C331.838 184.422 332.394 184.3 332.811 184.056C333.228 183.811 333.784 183.444 334.339 182.833V185.644C333.367 186.133 332.394 186.378 331.422 186.378C329.754 186.378 328.365 185.889 327.254 185.033C326.142 184.056 325.586 182.956 325.586 181.489C325.586 180.022 326.142 178.922 327.254 177.944C328.365 176.967 329.754 176.478 331.422 176.478C332.672 176.6 333.645 176.844 334.478 177.211ZM345.176 176.844H347.677V186.133H345.176V185.156C344.204 186.011 343.092 186.378 341.981 186.378C340.453 186.378 339.341 185.889 338.368 185.033C337.396 184.056 336.979 182.956 336.979 181.489C336.979 180.144 337.396 178.922 338.368 177.944C339.341 176.967 340.453 176.6 341.981 176.6C343.231 176.6 344.343 177.089 345.315 177.944V176.844H345.176ZM339.341 181.489C339.341 182.344 339.619 183.078 340.175 183.689C340.73 184.3 341.425 184.544 342.259 184.544C343.231 184.544 343.926 184.3 344.482 183.689C345.037 183.078 345.315 182.344 345.315 181.489C345.315 180.633 345.037 179.9 344.482 179.289C343.926 178.8 343.231 178.556 342.259 178.556C341.425 178.556 340.73 178.8 340.175 179.411C339.619 179.9 339.341 180.633 339.341 181.489ZM354.068 178.8V186.133H351.567V178.8H350.456V176.844H351.567V173.422H354.068V176.844H356.013V178.8H354.068ZM358.097 172.933C358.097 172.567 358.236 172.2 358.514 171.956C358.792 171.711 359.209 171.589 359.626 171.589C360.043 171.589 360.459 171.711 360.737 171.956C361.015 172.2 361.154 172.567 361.154 172.933C361.154 173.3 361.015 173.667 360.737 173.911C360.459 174.156 360.043 174.278 359.626 174.278C359.209 174.278 358.792 174.156 358.514 173.911C358.375 173.667 358.097 173.3 358.097 172.933ZM361.015 176.844V186.133H358.514V176.844H361.015ZM364.072 181.367C364.072 180.022 364.627 178.922 365.739 177.944C366.85 176.967 368.101 176.478 369.768 176.478C371.296 176.478 372.686 176.967 373.797 177.944C374.909 178.922 375.464 180.022 375.464 181.489C375.464 182.833 374.909 184.056 373.797 185.033C372.686 186.011 371.296 186.378 369.768 186.378C368.24 186.378 366.85 185.889 365.739 184.911C364.488 184.056 364.072 182.833 364.072 181.367ZM366.573 181.489C366.573 182.467 366.85 183.2 367.406 183.689C367.962 184.178 368.796 184.544 369.629 184.544C370.602 184.544 371.296 184.3 371.852 183.689C372.408 183.078 372.686 182.467 372.686 181.489C372.686 180.511 372.408 179.9 371.852 179.289C371.296 178.8 370.463 178.433 369.629 178.433C368.657 178.433 367.962 178.678 367.406 179.289C366.85 179.9 366.573 180.633 366.573 181.489ZM377.826 176.844H380.327V177.7C381.161 176.967 382.133 176.6 383.245 176.6C384.495 176.6 385.468 176.967 386.163 177.578C386.718 178.189 386.996 179.044 386.996 180.389V186.133H384.495V180.878C384.495 179.9 384.356 179.289 384.079 178.922C383.801 178.556 383.245 178.433 382.55 178.433C381.717 178.433 381.161 178.678 380.883 179.167C380.605 179.656 380.327 180.389 380.327 181.611V186.133H377.826V176.844ZM396.583 178.433L394.499 179.411C394.36 178.8 393.943 178.556 393.387 178.556C393.109 178.556 392.97 178.678 392.832 178.8C392.693 178.922 392.554 179.044 392.554 179.289C392.554 179.656 392.97 180.022 393.943 180.389C395.193 180.878 396.166 181.367 396.583 181.733C397 182.1 397.277 182.711 397.277 183.444C397.277 184.3 396.861 185.033 396.166 185.644C395.471 186.256 394.499 186.5 393.526 186.5C391.72 186.5 390.47 185.767 389.775 184.178L391.859 183.322C392.137 183.811 392.415 184.056 392.554 184.178C392.832 184.422 393.248 184.544 393.665 184.544C394.499 184.544 394.916 184.178 394.916 183.567C394.916 183.2 394.638 182.833 393.943 182.467C393.665 182.344 393.387 182.222 393.248 182.1C392.97 181.978 392.693 181.856 392.554 181.733C391.859 181.489 391.303 181.122 391.025 180.756C390.609 180.389 390.47 179.9 390.47 179.289C390.47 178.433 390.747 177.822 391.442 177.333C392.137 176.844 392.832 176.6 393.804 176.6C394.916 176.6 396.027 177.211 396.583 178.433Z" fill="white"/>
<defs>
<linearGradient id="paint0_linear_288_1108" x1="240.02" y1="283.982" x2="292.302" y2="231.7" gradientUnits="userSpaceOnUse">
<stop offset="0.001139" stop-color="#E6007A"/>
<stop offset="0.207149" stop-color="#703AC2"/>
<stop offset="0.456011" stop-color="#0070EB"/>
<stop offset="0.768132" stop-color="#0297FB"/>
<stop offset="1" stop-color="#0AE2FF"/>
</linearGradient>
<radialGradient id="paint1_radial_288_1108" cx="0" cy="0" r="1" gradientUnits="userSpaceOnUse" gradientTransform="translate(279.687 247.701) scale(15.589 15.589)">
<stop stop-color="white"/>
<stop offset="1" stop-color="white" stop-opacity="0"/>
</radialGradient>
<radialGradient id="paint2_radial_288_1108" cx="0" cy="0" r="1" gradientUnits="userSpaceOnUse" gradientTransform="translate(256.644 276.62) scale(9.0698 9.06981)">
<stop stop-color="white"/>
<stop offset="1" stop-color="white" stop-opacity="0"/>
</radialGradient>
<linearGradient id="paint3_linear_288_1108" x1="243.033" y1="275.086" x2="251.776" y2="274.965" gradientUnits="userSpaceOnUse">
<stop stop-color="white" stop-opacity="0"/>
<stop offset="1" stop-color="white"/>
</linearGradient>
<radialGradient id="paint4_radial_288_1108" cx="0" cy="0" r="1" gradientUnits="userSpaceOnUse" gradientTransform="translate(254.969 250.028) rotate(-120) scale(15.589)">
<stop stop-color="white"/>
<stop offset="1" stop-color="white" stop-opacity="0"/>
</radialGradient>
<radialGradient id="paint5_radial_288_1108" cx="0" cy="0" r="1" gradientUnits="userSpaceOnUse" gradientTransform="translate(291.536 255.524) rotate(-120) scale(9.0698)">
<stop stop-color="white"/>
<stop offset="1" stop-color="white" stop-opacity="0"/>
</radialGradient>
<linearGradient id="paint6_linear_288_1108" x1="297.012" y1="268.079" x2="292.536" y2="260.568" gradientUnits="userSpaceOnUse">
<stop stop-color="white" stop-opacity="0"/>
<stop offset="1" stop-color="white"/>
</linearGradient>
<radialGradient id="paint7_radial_288_1108" cx="0" cy="0" r="1" gradientUnits="userSpaceOnUse" gradientTransform="translate(268.605 269.548) rotate(120) scale(15.589)">
<stop stop-color="white"/>
<stop offset="1" stop-color="white" stop-opacity="0"/>
</radialGradient>
<radialGradient id="paint8_radial_288_1108" cx="0" cy="0" r="1" gradientUnits="userSpaceOnUse" gradientTransform="translate(255.817 235.854) rotate(120) scale(9.0698)">
<stop stop-color="white"/>
<stop offset="1" stop-color="white" stop-opacity="0"/>
</radialGradient>
<linearGradient id="paint9_linear_288_1108" x1="263.951" y1="224.833" x2="259.685" y2="232.465" gradientUnits="userSpaceOnUse">
<stop stop-color="white" stop-opacity="0"/>
<stop offset="1" stop-color="white"/>
</linearGradient>
<linearGradient id="paint10_linear_288_1108" x1="265.852" y1="220.954" x2="252.495" y2="224.839" gradientUnits="userSpaceOnUse">
<stop stop-color="#231F20"/>
<stop offset="1" stop-color="white"/>
</linearGradient>
<linearGradient id="paint11_linear_288_1108" x1="240.61" y1="271.896" x2="251.781" y2="283.553" gradientUnits="userSpaceOnUse">
<stop stop-color="#231F20"/>
<stop offset="1" stop-color="white"/>
</linearGradient>
<linearGradient id="paint12_linear_288_1108" x1="300.567" y1="270.139" x2="304.452" y2="258.32" gradientUnits="userSpaceOnUse">
<stop stop-color="#231F20"/>
<stop offset="1" stop-color="white"/>
</linearGradient>
<linearGradient id="paint13_linear_288_1108" x1="271.938" y1="227.712" x2="289.846" y2="231.813" gradientUnits="userSpaceOnUse">
<stop stop-color="#231F20"/>
<stop offset="1" stop-color="white"/>
</linearGradient>
<linearGradient id="paint14_linear_288_1108" x1="290.529" y1="273.555" x2="278.024" y2="287.013" gradientUnits="userSpaceOnUse">
<stop stop-color="#231F20"/>
<stop offset="1" stop-color="white"/>
</linearGradient>
<linearGradient id="paint15_linear_288_1108" x1="241.537" y1="266.743" x2="236.134" y2="249.184" gradientUnits="userSpaceOnUse">
<stop stop-color="#231F20"/>
<stop offset="1" stop-color="white"/>
</linearGradient>
<linearGradient id="paint16_linear_288_1108" x1="275.853" y1="234.317" x2="270.187" y2="239.984" gradientUnits="userSpaceOnUse">
<stop stop-color="#231F20"/>
<stop offset="1" stop-color="white"/>
</linearGradient>
<linearGradient id="paint17_linear_288_1108" x1="245.296" y1="260.04" x2="253.036" y2="262.114" gradientUnits="userSpaceOnUse">
<stop stop-color="#231F20"/>
<stop offset="1" stop-color="white"/>
</linearGradient>
<linearGradient id="paint18_linear_288_1108" x1="282.849" y1="273.639" x2="280.775" y2="265.898" gradientUnits="userSpaceOnUse">
<stop stop-color="#231F20"/>
<stop offset="1" stop-color="white"/>
</linearGradient>
<linearGradient id="paint19_linear_288_1108" x1="271.067" y1="266.756" x2="274.467" y2="262.061" gradientUnits="userSpaceOnUse">
<stop stop-color="#231F20"/>
<stop offset="1" stop-color="white"/>
</linearGradient>
<linearGradient id="paint20_linear_288_1108" x1="259.36" y1="264.723" x2="252.56" y2="267.961" gradientUnits="userSpaceOnUse">
<stop stop-color="#231F20"/>
<stop offset="1" stop-color="white"/>
</linearGradient>
<linearGradient id="paint21_linear_288_1108" x1="256.892" y1="253.404" x2="258.997" y2="257.776" gradientUnits="userSpaceOnUse">
<stop stop-color="#231F20"/>
<stop offset="1" stop-color="white"/>
</linearGradient>
<linearGradient id="paint22_linear_288_1108" x1="266.683" y1="239.904" x2="265.226" y2="234.885" gradientUnits="userSpaceOnUse">
<stop stop-color="#231F20"/>
<stop offset="1" stop-color="white"/>
</linearGradient>
<linearGradient id="paint23_linear_288_1108" x1="282.387" y1="262.883" x2="286.597" y2="263.854" gradientUnits="userSpaceOnUse">
<stop stop-color="#231F20"/>
<stop offset="1" stop-color="white"/>
</linearGradient>
<linearGradient id="paint24_linear_288_1108" x1="275.781" y1="248.663" x2="270.439" y2="247.692" gradientUnits="userSpaceOnUse">
<stop stop-color="#231F20"/>
<stop offset="1" stop-color="white"/>
</linearGradient>
<linearGradient id="paint25_linear_288_1108" x1="325.704" y1="282.369" x2="512.915" y2="239.524" gradientUnits="userSpaceOnUse">
<stop offset="0.001139" stop-color="#E6007A"/>
<stop offset="0.207149" stop-color="#703AC2"/>
<stop offset="0.456011" stop-color="#0070EB"/>
<stop offset="0.768132" stop-color="#0297FB"/>
<stop offset="1" stop-color="#0AE2FF"/>
</linearGradient>
<linearGradient id="paint26_linear_288_1108" x1="320.256" y1="258.563" x2="507.467" y2="215.718" gradientUnits="userSpaceOnUse">
<stop offset="0.001139" stop-color="#E6007A"/>
<stop offset="0.207149" stop-color="#703AC2"/>
<stop offset="0.456011" stop-color="#0070EB"/>
<stop offset="0.768132" stop-color="#0297FB"/>
<stop offset="1" stop-color="#0AE2FF"/>
</linearGradient>
<linearGradient id="paint27_linear_288_1108" x1="316.869" y1="267.651" x2="504.081" y2="224.806" gradientUnits="userSpaceOnUse">
<stop offset="0.001139" stop-color="#E6007A"/>
<stop offset="0.207149" stop-color="#703AC2"/>
<stop offset="0.456011" stop-color="#0070EB"/>
<stop offset="0.768132" stop-color="#0297FB"/>
<stop offset="1" stop-color="#0AE2FF"/>
</linearGradient>
<linearGradient id="paint28_linear_288_1108" x1="315.653" y1="262.337" x2="502.864" y2="219.493" gradientUnits="userSpaceOnUse">
<stop offset="0.001139" stop-color="#E6007A"/>
<stop offset="0.207149" stop-color="#703AC2"/>
<stop offset="0.456011" stop-color="#0070EB"/>
<stop offset="0.768132" stop-color="#0297FB"/>
<stop offset="1" stop-color="#0AE2FF"/>
</linearGradient>
<linearGradient id="paint29_linear_288_1108" x1="318.01" y1="272.635" x2="505.221" y2="229.79" gradientUnits="userSpaceOnUse">
<stop offset="0.001139" stop-color="#E6007A"/>
<stop offset="0.207149" stop-color="#703AC2"/>
<stop offset="0.456011" stop-color="#0070EB"/>
<stop offset="0.768132" stop-color="#0297FB"/>
<stop offset="1" stop-color="#0AE2FF"/>
</linearGradient>
<linearGradient id="paint30_linear_288_1108" x1="315.965" y1="263.701" x2="503.176" y2="220.857" gradientUnits="userSpaceOnUse">
<stop offset="0.001139" stop-color="#E6007A"/>
<stop offset="0.207149" stop-color="#703AC2"/>
<stop offset="0.456011" stop-color="#0070EB"/>
<stop offset="0.768132" stop-color="#0297FB"/>
<stop offset="1" stop-color="#0AE2FF"/>
</linearGradient>
<linearGradient id="paint31_linear_288_1108" x1="320.824" y1="284.931" x2="508.036" y2="242.086" gradientUnits="userSpaceOnUse">
<stop offset="0.001139" stop-color="#E6007A"/>
<stop offset="0.207149" stop-color="#703AC2"/>
<stop offset="0.456011" stop-color="#0070EB"/>
<stop offset="0.768132" stop-color="#0297FB"/>
<stop offset="1" stop-color="#0AE2FF"/>
</linearGradient>
<linearGradient id="paint32_linear_288_1108" x1="321.101" y1="286.142" x2="508.312" y2="243.298" gradientUnits="userSpaceOnUse">
<stop offset="0.001139" stop-color="#E6007A"/>
<stop offset="0.207149" stop-color="#703AC2"/>
<stop offset="0.456011" stop-color="#0070EB"/>
<stop offset="0.768132" stop-color="#0297FB"/>
<stop offset="1" stop-color="#0AE2FF"/>
</linearGradient>
<linearGradient id="paint33_linear_288_1108" x1="322.321" y1="291.472" x2="509.534" y2="248.627" gradientUnits="userSpaceOnUse">
<stop offset="0.001139" stop-color="#E6007A"/>
<stop offset="0.207149" stop-color="#703AC2"/>
<stop offset="0.456011" stop-color="#0070EB"/>
<stop offset="0.768132" stop-color="#0297FB"/>
<stop offset="1" stop-color="#0AE2FF"/>
</linearGradient>
<linearGradient id="paint34_linear_288_1108" x1="323.92" y1="298.462" x2="511.119" y2="255.62" gradientUnits="userSpaceOnUse">
<stop offset="0.001139" stop-color="#E6007A"/>
<stop offset="0.207149" stop-color="#703AC2"/>
<stop offset="0.456011" stop-color="#0070EB"/>
<stop offset="0.768132" stop-color="#0297FB"/>
<stop offset="1" stop-color="#0AE2FF"/>
</linearGradient>
<linearGradient id="paint35_linear_288_1108" x1="323.019" y1="294.525" x2="510.231" y2="251.68" gradientUnits="userSpaceOnUse">
<stop offset="0.001139" stop-color="#E6007A"/>
<stop offset="0.207149" stop-color="#703AC2"/>
<stop offset="0.456011" stop-color="#0070EB"/>
<stop offset="0.768132" stop-color="#0297FB"/>
<stop offset="1" stop-color="#0AE2FF"/>
</linearGradient>
<clipPath id="clip0_288_1108">
<rect width="472" height="84" fill="white" transform="translate(0 66)"/>
</clipPath>
</defs>
</svg>
