<svg width="1728" height="1000" viewBox="0 0 1728 1000" fill="none" xmlns="http://www.w3.org/2000/svg">
<g clip-path="url(#clip0_288_1113)">
<path d="M1492.14 129.812C1484.82 128.704 1484.11 129.122 1481.61 136.104C1482.71 128.785 1482.3 128.078 1475.31 125.575C1482.63 126.682 1483.34 126.265 1485.84 119.283C1484.74 126.602 1485.15 127.308 1492.14 129.812Z" fill="#AEAECF"/>
<path d="M763 326.145C753.863 324.762 752.981 325.283 749.855 334C751.238 324.863 750.717 323.981 742 320.855C751.137 322.238 752.019 321.717 755.145 313C753.762 322.137 754.283 323.019 763 326.145Z" fill="#AEAECF"/>
<path d="M1697.77 48.2925C1692.11 50.1864 1691.75 50.7482 1692.54 56.6707C1690.65 51.005 1690.08 50.6518 1684.16 51.4383C1689.83 49.5444 1690.18 48.9826 1689.39 43.0601C1691.29 48.7258 1691.85 49.0789 1697.77 48.2925Z" fill="#AEAECF"/>
<path d="M1643.33 516.11C1640.91 518.453 1640.87 518.823 1642.7 521.647C1640.36 519.224 1639.99 519.192 1637.17 521.021C1639.59 518.678 1639.62 518.309 1637.79 515.484C1640.14 517.908 1640.5 517.94 1643.33 516.11Z" fill="#AEAECF"/>
<path d="M1393.11 109.637C1387.89 110.15 1387.47 110.551 1386.97 115.768C1386.46 110.551 1386.06 110.134 1380.84 109.637C1386.06 109.123 1386.48 108.722 1386.97 103.505C1387.49 108.722 1387.89 109.139 1393.11 109.637Z" fill="#AEAECF"/>
<path d="M1369.14 222.262C1366.94 227.012 1367.09 227.574 1371.34 230.656C1366.59 228.457 1366.03 228.601 1362.95 232.855C1365.15 228.104 1365 227.542 1360.75 224.46C1365.5 226.659 1366.06 226.515 1369.14 222.262Z" fill="#AEAECF"/>
<path d="M836.094 345C833.188 350.83 833.379 351.52 839 355.302C832.721 352.603 831.979 352.78 827.906 358C830.812 352.17 830.621 351.48 825 347.698C831.279 350.397 832.021 350.22 836.094 345Z" fill="#AEAECF"/>
<path d="M1681 799.503C1672.07 796.046 1671.03 796.327 1665.73 804C1669.37 795.512 1669.08 794.528 1661 789.497C1669.93 792.954 1670.97 792.673 1676.27 785C1672.63 793.488 1672.92 794.472 1681 799.503Z" fill="#AEAECF"/>
<path d="M1637.5 406C1633.79 399.038 1632.95 398.704 1625 400.802C1632.37 397.297 1632.73 396.511 1630.5 389C1634.21 395.962 1635.05 396.296 1643 394.198C1635.63 397.703 1635.27 398.489 1637.5 406Z" fill="#AEAECF"/>
<path d="M1669.7 500.991C1665.94 504.634 1665.88 505.212 1668.74 509.61C1665.08 505.854 1664.52 505.79 1660.12 508.647C1663.87 505.003 1663.94 504.425 1661.08 500.028C1664.72 503.783 1665.3 503.848 1669.7 500.991Z" fill="#AEAECF"/>
<path d="M1592 801.931C1586.19 799.553 1585.53 799.764 1582.07 805C1584.45 799.192 1584.24 798.53 1579 795.069C1584.81 797.447 1585.47 797.236 1588.93 792C1586.55 797.808 1586.76 798.47 1592 801.931Z" fill="#AEAECF"/>
<path d="M1268.04 143.487C1264.7 143.808 1264.45 144.065 1264.13 147.403C1263.8 144.065 1263.53 143.808 1260.21 143.487C1263.55 143.166 1263.8 142.909 1264.13 139.57C1264.45 142.909 1264.7 143.166 1268.04 143.487Z" fill="#AEAECF"/>
<path d="M875.69 390C872.684 387.285 872.238 387.266 869 389.69C871.715 386.684 871.734 386.238 869.31 383C872.316 385.715 872.762 385.734 876 383.31C873.285 386.316 873.266 386.762 875.69 390Z" fill="#AEAECF"/>
<path d="M884.772 360C882.624 358.061 882.319 358.042 880 359.772C881.939 357.624 881.958 357.319 880.228 355C882.376 356.939 882.681 356.958 885 355.228C883.061 357.376 883.042 357.681 884.772 360Z" fill="#AEAECF"/>
<path d="M1517.67 31.857C1515.25 32.0977 1515.06 32.2903 1514.81 34.7139C1514.57 32.2903 1514.38 32.0977 1511.96 31.857C1514.38 31.6162 1514.57 31.4236 1514.81 29C1515.06 31.4236 1515.25 31.6162 1517.67 31.857Z" fill="#AEAECF"/>
<path d="M1478.19 230.415C1475.76 230.656 1475.57 230.848 1475.33 233.272C1475.09 230.848 1474.9 230.656 1472.47 230.415C1474.9 230.174 1475.09 229.982 1475.33 227.558C1475.57 229.982 1475.76 230.174 1478.19 230.415Z" fill="#AEAECF"/>
<path d="M1561.41 199.631C1558.98 199.871 1558.79 200.064 1558.55 202.488C1558.31 200.064 1558.12 199.871 1555.69 199.631C1558.12 199.39 1558.31 199.197 1558.55 196.774C1558.79 199.197 1558.98 199.39 1561.41 199.631Z" fill="#AEAECF"/>
<path d="M1711.53 184.896C1709.1 185.137 1708.91 185.33 1708.67 187.753C1708.43 185.33 1708.24 185.137 1705.81 184.896C1708.24 184.656 1708.43 184.463 1708.67 182.039C1708.91 184.463 1709.1 184.656 1711.53 184.896Z" fill="#AEAECF"/>
<path d="M1593.56 433C1591.92 429.713 1591.53 429.568 1588 430.559C1591.29 428.915 1591.43 428.529 1590.44 425C1592.08 428.287 1592.47 428.432 1596 427.441C1592.71 429.085 1592.57 429.471 1593.56 433Z" fill="#AEAECF"/>
<path d="M1705.4 260.895C1700.18 261.408 1699.76 261.809 1699.26 267.026C1698.75 261.809 1698.35 261.392 1693.13 260.895C1698.35 260.381 1698.77 259.98 1699.26 254.763C1699.78 259.98 1700.18 260.397 1705.4 260.895Z" fill="#AEAECF"/>
<path d="M1702.12 284.777C1699.7 285.018 1699.51 285.211 1699.26 287.634C1699.02 285.211 1698.83 285.018 1696.41 284.777C1698.83 284.537 1699.02 284.344 1699.26 281.92C1699.51 284.344 1699.7 284.537 1702.12 284.777Z" fill="#AEAECF"/>
<path d="M1671.56 336C1669.92 332.713 1669.53 332.568 1666 333.559C1669.29 331.915 1669.43 331.529 1668.44 328C1670.08 331.287 1670.47 331.432 1674 330.441C1670.71 332.085 1670.57 332.471 1671.56 336Z" fill="#AEAECF"/>
<path d="M1708.69 82.8808C1705.35 83.2018 1705.09 83.4586 1704.77 86.7971C1704.45 83.4586 1704.19 83.2018 1700.85 82.8808C1704.19 82.5598 1704.45 82.303 1704.77 78.9646C1705.09 82.303 1705.35 82.5598 1708.69 82.8808Z" fill="#AEAECF"/>
<path d="M1632.33 41.0859C1630.3 42.418 1630.22 42.6748 1631.13 44.9379C1629.8 42.8995 1629.54 42.8193 1627.28 43.7342C1629.32 42.402 1629.4 42.1452 1628.48 39.8821C1629.81 41.9205 1630.07 42.0007 1632.33 41.0859Z" fill="#AEAECF"/>
<path d="M1610.28 61.1166C1608.24 62.4488 1608.16 62.7056 1609.08 64.9687C1607.75 62.9303 1607.49 62.8501 1605.23 63.7649C1607.26 62.4328 1607.34 62.176 1606.43 59.9129C1607.76 61.9513 1608.02 62.0315 1610.28 61.1166Z" fill="#AEAECF"/>
<path d="M1717 249.37C1714.58 249.611 1714.38 249.804 1714.14 252.227C1713.9 249.804 1713.71 249.611 1711.29 249.37C1713.71 249.13 1713.9 248.937 1714.14 246.514C1714.38 248.937 1714.58 249.13 1717 249.37Z" fill="#AEAECF"/>
<path d="M1690.89 239.596C1688.46 239.837 1688.27 240.029 1688.03 242.453C1687.79 240.029 1687.6 239.837 1685.17 239.596C1687.6 239.355 1687.79 239.162 1688.03 236.739C1688.27 239.162 1688.46 239.355 1690.89 239.596Z" fill="#AEAECF"/>
<path d="M1660 775.85C1655.96 774.217 1655.5 774.36 1653.12 778C1654.75 773.959 1654.61 773.5 1651 771.121C1655.04 772.755 1655.5 772.611 1657.88 769C1656.25 773.041 1656.39 773.5 1660 775.879V775.85Z" fill="#AEAECF"/>
<path d="M856.961 68.7758C857.334 71.5392 857.564 71.7415 860.343 71.9072C857.58 72.2804 857.378 72.5106 857.212 75.2896C856.839 72.5262 856.609 72.3239 853.83 72.1582C856.593 71.785 856.795 71.5547 856.961 68.7758Z" fill="#AEAECF"/>
<path d="M463.493 36.2431C461.278 39.9702 461.341 40.445 464.572 43.3334C460.845 41.1187 460.371 41.1814 457.482 44.4129C459.697 40.6858 459.634 40.2111 456.403 37.3226C460.13 39.5374 460.604 39.4746 463.493 36.2431Z" fill="#AEAECF"/>
<path d="M526.783 107.415C528.871 111.209 529.316 111.388 533.454 110.065C529.66 112.152 529.481 112.597 530.804 116.735C528.717 112.941 528.272 112.762 524.134 114.085C527.927 111.998 528.107 111.553 526.783 107.415Z" fill="#AEAECF"/>
<path d="M812.87 171.224C809.178 173.486 809.01 173.939 810.521 178.001C808.259 174.31 807.806 174.141 803.744 175.652C807.435 173.39 807.604 172.937 806.093 168.876C808.355 172.567 808.808 172.735 812.87 171.224Z" fill="#AEAECF"/>
<path d="M793.047 14.9621C788.768 14.2367 788.359 14.4795 786.821 18.5403C787.547 14.2613 787.304 13.8519 783.243 12.3147C787.522 13.0401 787.932 12.7973 789.469 8.73651C788.744 13.0155 788.986 13.4249 793.047 14.9621Z" fill="#AEAECF"/>
<path d="M859.814 43.7952C860.4 48.0834 860.754 48.4094 865.084 48.6617C860.788 49.2588 860.47 49.6016 860.218 53.932C859.631 49.6438 859.278 49.3178 854.948 49.0655C859.236 48.4791 859.562 48.1256 859.814 43.7952Z" fill="#AEAECF"/>
<path d="M789.467 204.87C787.104 206.312 787.006 206.602 787.962 209.201C786.519 206.838 786.229 206.739 783.63 207.695C785.994 206.253 786.092 205.963 785.136 203.364C786.578 205.727 786.869 205.825 789.467 204.87Z" fill="#AEAECF"/>
<path d="M424.742 136.16C423.319 138.541 423.365 138.838 425.432 140.688C423.05 139.266 422.745 139.322 420.903 141.378C422.325 138.996 422.28 138.699 420.213 136.849C422.595 138.272 422.892 138.226 424.742 136.16Z" fill="#AEAECF"/>
<path d="M626.456 96.2274C625.033 98.609 625.078 98.906 627.145 100.756C624.763 99.3337 624.466 99.3789 622.616 101.446C624.039 99.0642 623.994 98.7673 621.927 96.9169C624.308 98.3395 624.605 98.2943 626.456 96.2274Z" fill="#AEAECF"/>
<path d="M517.797 72.9655C516.374 75.3471 516.43 75.6519 518.486 77.4944C516.105 76.0718 515.808 76.117 513.957 78.1839C515.38 75.8023 515.335 75.5053 513.268 73.655C515.65 75.0776 515.947 75.0324 517.797 72.9655Z" fill="#AEAECF"/>
<path d="M535.334 149.916C532.617 150.472 532.426 150.711 532.449 153.48C531.892 150.763 531.654 150.572 528.885 150.594C531.602 150.038 531.793 149.8 531.771 147.031C532.327 149.748 532.565 149.939 535.334 149.916Z" fill="#AEAECF"/>
<path d="M522.952 133.456C520.972 133.862 520.836 134.025 520.849 136.046C520.443 134.066 520.28 133.929 518.259 133.943C520.239 133.537 520.376 133.374 520.363 131.353C520.768 133.333 520.932 133.469 522.952 133.456Z" fill="#AEAECF"/>
<path d="M585.668 38.7598C584.64 40.4925 584.674 40.7152 586.171 42.0636C584.438 41.036 584.215 41.0699 582.867 42.5666C583.894 40.8339 583.86 40.6112 582.364 39.2628C584.096 40.2904 584.319 40.2565 585.668 38.7598Z" fill="#AEAECF"/>
<path d="M649.485 42.2327C648.457 43.9654 648.491 44.1882 649.988 45.5366C648.255 44.509 648.032 44.5429 646.684 46.0396C647.712 44.3068 647.678 44.0841 646.181 42.7357C647.914 43.7633 648.136 43.7294 649.485 42.2327Z" fill="#AEAECF"/>
<path d="M661.853 134.945C660.826 136.678 660.86 136.901 662.356 138.249C660.624 137.222 660.401 137.255 659.053 138.752C660.08 137.019 660.046 136.797 658.55 135.448C660.282 136.476 660.505 136.442 661.853 134.945Z" fill="#AEAECF"/>
<path d="M790.561 42.916C788.572 42.5731 788.382 42.697 787.672 44.5808C788.014 42.5915 787.891 42.4015 786.007 41.6913C787.996 42.0341 788.186 41.9102 788.896 40.0264C788.554 42.0157 788.677 42.2057 790.561 42.916Z" fill="#AEAECF"/>
<path d="M798.461 172.573C796.742 173.632 796.67 173.843 797.375 175.729C796.316 174.01 796.105 173.938 794.226 174.632C795.945 173.573 796.018 173.363 795.323 171.484C796.382 173.203 796.593 173.275 798.472 172.581L798.461 172.573Z" fill="#AEAECF"/>
<path d="M448.952 727.899C450.059 720.58 449.642 719.874 442.66 717.37C449.979 718.477 450.685 718.06 453.189 711.078C452.081 718.397 452.499 719.103 459.481 721.607C452.162 720.5 451.455 720.917 448.952 727.899Z" fill="#AEAECF"/>
<path d="M530.471 933.535C528.577 927.869 528.015 927.516 522.093 928.303C527.758 926.409 528.112 925.847 527.325 919.924C529.219 925.59 529.781 925.943 535.703 925.157C530.038 927.051 529.685 927.613 530.471 933.535Z" fill="#AEAECF"/>
<path d="M62.6534 879.093C60.31 876.669 59.9408 876.637 57.116 878.467C59.5396 876.123 59.5717 875.754 57.742 872.929C60.0853 875.353 60.4544 875.385 63.2793 873.555C60.8557 875.899 60.8236 876.268 62.6534 879.093Z" fill="#AEAECF"/>
<path d="M34.7337 762C38.3728 753.065 38.0769 752.03 30 746.734C38.9349 750.373 39.9704 750.077 45.2663 742C41.6272 750.935 41.9231 751.97 50 757.266C41.0651 753.627 40.0296 753.923 34.7337 762Z" fill="#AEAECF"/>
<path d="M163.449 885.705C168.136 883.346 168.36 882.816 166.948 877.76C169.307 882.447 169.837 882.672 174.893 881.259C170.206 883.619 169.982 884.148 171.394 889.204C169.035 884.518 168.505 884.293 163.449 885.705Z" fill="#AEAECF"/>
<path d="M77.7727 905.463C74.1293 901.707 73.5515 901.643 69.1537 904.5C72.9095 900.841 72.9737 900.279 70.1167 895.881C73.7601 899.637 74.3379 899.701 78.7357 896.844C74.98 900.488 74.9157 901.065 77.7727 905.463Z" fill="#AEAECF"/>
<path d="M32.0694 673C34.4467 667.192 34.2361 666.53 29 663.069C34.8079 665.447 35.4699 665.236 38.9305 660C36.5532 665.808 36.7639 666.47 42 669.931C36.1921 667.553 35.53 667.764 32.0694 673Z" fill="#AEAECF"/>
<path d="M267.455 687.211C267.134 683.873 266.877 683.616 263.539 683.295C266.877 682.974 267.134 682.717 267.455 679.379C267.776 682.717 268.033 682.974 271.371 683.295C268.033 683.616 267.776 683.873 267.455 687.211Z" fill="#AEAECF"/>
<path d="M546.906 753.435C546.666 751.011 546.473 750.819 544.05 750.578C546.473 750.337 546.666 750.145 546.906 747.721C547.147 750.145 547.34 750.337 549.763 750.578C547.34 750.819 547.147 751.011 546.906 753.435Z" fill="#AEAECF"/>
<path d="M348.348 713.951C348.108 711.528 347.915 711.335 345.491 711.094C347.915 710.853 348.108 710.661 348.348 708.237C348.589 710.661 348.782 710.853 351.205 711.094C348.782 711.335 348.589 711.528 348.348 713.951Z" fill="#AEAECF"/>
<path d="M283.714 756.292C283.473 753.868 283.281 753.676 280.857 753.435C283.281 753.194 283.473 753.002 283.714 750.578C283.955 753.002 284.147 753.194 286.571 753.435C284.147 753.676 283.955 753.868 283.714 756.292Z" fill="#AEAECF"/>
<path d="M379.133 797.172C378.892 794.748 378.699 794.556 376.276 794.315C378.699 794.074 378.892 793.882 379.133 791.458C379.374 793.882 379.566 794.074 381.99 794.315C379.566 794.556 379.374 794.748 379.133 797.172Z" fill="#AEAECF"/>
<path d="M393.867 947.29C393.626 944.867 393.434 944.674 391.01 944.433C393.434 944.192 393.626 944 393.867 941.576C394.108 944 394.3 944.192 396.724 944.433C394.3 944.674 394.108 944.867 393.867 947.29Z" fill="#AEAECF"/>
<path d="M205.244 674.869C205.003 672.445 204.811 672.252 202.387 672.012C204.811 671.771 205.003 671.578 205.244 669.155C205.485 671.578 205.677 671.771 208.101 672.012C205.677 672.252 205.485 672.445 205.244 674.869Z" fill="#AEAECF"/>
<path d="M145.842 856.702C148.025 855.611 148.121 855.354 147.463 853.011C148.555 855.194 148.811 855.29 151.155 854.632C148.972 855.723 148.876 855.98 149.534 858.324C148.442 856.141 148.185 856.044 145.842 856.702Z" fill="#AEAECF"/>
<path d="M317.869 941.159C317.355 935.943 316.954 935.525 311.738 935.028C316.954 934.514 317.371 934.113 317.869 928.897C318.383 934.113 318.784 934.53 324 935.028C318.784 935.541 318.366 935.943 317.869 941.159Z" fill="#AEAECF"/>
<path d="M293.986 937.885C293.745 935.461 293.553 935.268 291.129 935.028C293.553 934.787 293.745 934.594 293.986 932.171C294.227 934.594 294.419 934.787 296.843 935.028C294.419 935.268 294.227 935.461 293.986 937.885Z" fill="#AEAECF"/>
<path d="M209.851 908.304C212.033 907.213 212.13 906.956 211.472 904.613C212.563 906.795 212.82 906.892 215.163 906.234C212.98 907.325 212.884 907.582 213.542 909.925C212.451 907.742 212.194 907.646 209.851 908.304Z" fill="#AEAECF"/>
<path d="M495.883 944.449C495.562 941.111 495.305 940.854 491.966 940.533C495.305 940.212 495.562 939.955 495.883 936.617C496.204 939.955 496.46 940.212 499.799 940.533C496.46 940.854 496.204 941.111 495.883 944.449Z" fill="#AEAECF"/>
<path d="M537.678 868.098C536.345 866.06 536.089 865.979 533.826 866.894C535.864 865.562 535.944 865.305 535.029 863.042C536.361 865.081 536.618 865.161 538.881 864.246C536.843 865.578 536.763 865.835 537.678 868.098Z" fill="#AEAECF"/>
<path d="M517.647 846.045C516.315 844.007 516.058 843.926 513.795 844.841C515.833 843.509 515.913 843.252 514.999 840.989C516.331 843.028 516.587 843.108 518.851 842.193C516.812 843.525 516.732 843.782 517.647 846.045Z" fill="#AEAECF"/>
<path d="M329.393 952.763C329.152 950.34 328.96 950.147 326.536 949.906C328.96 949.666 329.152 949.473 329.393 947.049C329.634 949.473 329.826 949.666 332.25 949.906C329.826 950.147 329.634 950.34 329.393 952.763Z" fill="#AEAECF"/>
<path d="M339.168 926.65C338.927 924.226 338.734 924.033 336.311 923.793C338.734 923.552 338.927 923.359 339.168 920.936C339.408 923.359 339.601 923.552 342.025 923.793C339.601 924.033 339.408 924.226 339.168 926.65Z" fill="#AEAECF"/>
<path d="M58.1497 741C59.7835 736.959 59.6401 736.5 56 734.121C60.0414 735.755 60.5 735.611 62.879 732C61.2452 736.041 61.3885 736.5 65 738.879C60.9586 737.245 60.5 737.389 58.121 741L58.1497 741Z" fill="#AEAECF"/>
<path d="M1453.71 874.135C1454.82 866.816 1454.41 866.11 1447.42 863.606C1454.74 864.714 1455.45 864.296 1457.95 857.314C1456.84 864.633 1457.26 865.34 1464.24 867.843C1456.93 866.736 1456.22 867.153 1453.71 874.135Z" fill="#AEAECF"/>
<path d="M1473.89 775.105C1473.38 769.888 1472.98 769.471 1467.76 768.974C1472.98 768.46 1473.39 768.059 1473.89 762.842C1474.4 768.059 1474.81 768.476 1480.02 768.974C1474.81 769.487 1474.39 769.888 1473.89 775.105Z" fill="#AEAECF"/>
<path d="M1361.27 751.142C1356.51 748.943 1355.95 749.087 1352.87 753.341C1355.07 748.59 1354.93 748.028 1350.67 744.946C1355.42 747.145 1355.98 747.001 1359.07 742.747C1356.87 747.498 1357.01 748.06 1361.27 751.142Z" fill="#AEAECF"/>
<path d="M1036.95 893.973C1038.93 889.126 1038.77 888.564 1034.39 885.691C1039.23 887.665 1039.79 887.505 1042.67 883.123C1040.69 887.97 1040.85 888.532 1045.24 891.405C1040.39 889.431 1039.83 889.591 1036.95 893.973Z" fill="#AEAECF"/>
<path d="M1035.64 844.442C1036.91 841.344 1036.79 840.991 1034 839.145C1037.1 840.413 1037.45 840.301 1039.3 837.508C1038.03 840.606 1038.14 840.959 1040.93 842.805C1037.84 841.537 1037.48 841.649 1035.64 844.442Z" fill="#AEAECF"/>
<path d="M1440.04 650.041C1439.72 646.703 1439.46 646.446 1436.12 646.125C1439.46 645.804 1439.72 645.531 1440.04 642.208C1440.36 645.547 1440.62 645.804 1443.96 646.125C1440.62 646.446 1440.36 646.703 1440.04 650.041Z" fill="#AEAECF"/>
<path d="M1272.22 833.448C1271.9 830.109 1271.64 829.852 1268.3 829.531C1271.64 829.21 1271.9 828.954 1272.22 825.615C1272.54 828.954 1272.8 829.21 1276.13 829.531C1272.8 829.852 1272.54 830.109 1272.22 833.448Z" fill="#AEAECF"/>
<path d="M1394.7 778.251C1394.38 774.912 1394.1 774.655 1390.78 774.334C1394.12 774.013 1394.38 773.757 1394.7 770.418C1395.02 773.757 1395.28 774.013 1398.61 774.334C1395.28 774.655 1395.02 774.912 1394.7 778.251Z" fill="#AEAECF"/>
<path d="M1322.49 715.879C1324.73 713.391 1324.75 713.022 1322.74 710.342C1325.23 712.589 1325.6 712.605 1328.28 710.599C1326.03 713.087 1326.02 713.456 1328.03 716.136C1325.54 713.889 1325.17 713.873 1322.49 715.879Z" fill="#AEAECF"/>
<path d="M1346.34 723.038C1347.98 721.224 1347.99 720.967 1346.53 719.009C1348.34 720.646 1348.6 720.662 1350.56 719.202C1348.92 721.015 1348.91 721.272 1350.37 723.23C1348.55 721.593 1348.3 721.577 1346.34 723.038Z" fill="#AEAECF"/>
<path d="M1064 655.056C1055.48 651.112 1054.47 651.371 1048.94 659C1052.89 650.479 1052.63 649.471 1045 643.944C1053.52 647.888 1054.53 647.629 1060.06 640C1056.11 648.521 1056.37 649.529 1064 655.056Z" fill="#AEAECF"/>
<path d="M995 591.557C998.878 587.263 998.906 586.626 995.443 582C999.737 585.878 1000.37 585.906 1005 582.443C1001.12 586.737 1001.09 587.374 1004.56 592C1000.26 588.122 999.626 588.094 995 591.557Z" fill="#AEAECF"/>
<path d="M1037 604.635C1040.1 601.198 1040.13 600.711 1037.37 597C1040.8 600.103 1041.29 600.133 1045 597.365C1041.9 600.802 1041.87 601.289 1044.63 605C1041.2 601.897 1040.71 601.867 1037 604.635Z" fill="#AEAECF"/>
<path d="M1551.67 899.671C1551.43 897.247 1551.24 897.055 1548.81 896.814C1551.24 896.573 1551.43 896.381 1551.67 893.957C1551.91 896.381 1552.1 896.573 1554.53 896.814C1552.1 897.055 1551.91 897.247 1551.67 899.671Z" fill="#AEAECF"/>
<path d="M1353.11 860.187C1352.87 857.764 1352.68 857.571 1350.25 857.33C1352.68 857.09 1352.87 856.897 1353.11 854.474C1353.35 856.897 1353.55 857.09 1355.97 857.33C1353.55 857.571 1353.35 857.764 1353.11 860.187Z" fill="#AEAECF"/>
<path d="M1288.48 902.528C1288.24 900.104 1288.04 899.912 1285.62 899.671C1288.04 899.43 1288.24 899.238 1288.48 896.814C1288.72 899.238 1288.91 899.43 1291.33 899.671C1288.91 899.912 1288.72 900.104 1288.48 902.528Z" fill="#AEAECF"/>
<path d="M1383.9 943.408C1383.66 940.984 1383.46 940.792 1381.04 940.551C1383.46 940.31 1383.66 940.118 1383.9 937.694C1384.14 940.118 1384.33 940.31 1386.75 940.551C1384.33 940.792 1384.14 940.984 1383.9 943.408Z" fill="#AEAECF"/>
<path d="M1210.01 821.105C1209.77 818.681 1209.57 818.489 1207.15 818.248C1209.57 818.007 1209.77 817.815 1210.01 815.391C1210.25 817.815 1210.44 818.007 1212.86 818.248C1210.44 818.489 1210.25 818.681 1210.01 821.105Z" fill="#AEAECF"/>
<path d="M1150.61 1002.94C1152.79 1001.85 1152.88 1001.59 1152.23 999.247C1153.32 1001.43 1153.57 1001.53 1155.92 1000.87C1153.74 1001.96 1153.64 1002.22 1154.3 1004.56C1153.21 1002.38 1152.95 1002.28 1150.61 1002.94Z" fill="#AEAECF"/>
<path d="M1522.41 992.281C1521.08 990.243 1520.82 990.162 1518.56 991.077C1520.6 989.745 1520.68 989.488 1519.76 987.225C1521.09 989.264 1521.35 989.344 1523.61 988.429C1521.58 989.761 1521.5 990.018 1522.41 992.281Z" fill="#AEAECF"/>
<path d="M1050.02 882.337C1050.93 880.074 1050.85 879.817 1048.81 878.485C1051.08 879.399 1051.33 879.319 1052.67 877.297C1051.75 879.56 1051.83 879.817 1053.85 881.149C1051.59 880.234 1051.33 880.314 1050 882.337L1050.02 882.337Z" fill="#AEAECF"/>
</g>
<defs>
<clipPath id="clip0_288_1113">
<rect width="1728" height="1000" fill="white"/>
</clipPath>
</defs>
</svg>
