<svg width="521" height="287" viewBox="0 0 521 287" fill="none" xmlns="http://www.w3.org/2000/svg">
<g clip-path="url(#clip0_439_1903)">
<path d="M196.321 241.412C194.37 241.412 192.689 241.057 191.278 240.347C189.877 239.636 188.797 238.67 188.04 237.449C187.282 236.218 186.903 234.826 186.903 233.273C186.903 232.089 187.15 231.038 187.642 230.119C188.135 229.191 188.821 228.334 189.702 227.548C190.582 226.762 191.6 225.972 192.756 225.176L197.443 221.866C198.239 221.346 198.859 220.796 199.304 220.219C199.749 219.632 199.972 218.907 199.972 218.045C199.972 217.364 199.678 216.71 199.091 216.085C198.504 215.46 197.718 215.148 196.733 215.148C196.051 215.148 195.45 215.313 194.929 215.645C194.418 215.976 194.015 216.402 193.722 216.923C193.438 217.435 193.295 217.974 193.295 218.543C193.295 219.205 193.475 219.873 193.835 220.545C194.205 221.218 194.678 221.914 195.256 222.634C195.833 223.344 196.439 224.082 197.074 224.849L210.582 241H205.781L194.602 227.861C193.665 226.753 192.794 225.711 191.989 224.736C191.184 223.751 190.53 222.757 190.028 221.753C189.536 220.74 189.29 219.646 189.29 218.472C189.29 217.136 189.593 215.953 190.199 214.92C190.814 213.879 191.671 213.064 192.77 212.477C193.868 211.89 195.156 211.597 196.634 211.597C198.13 211.597 199.413 211.89 200.483 212.477C201.563 213.055 202.391 213.827 202.969 214.793C203.556 215.749 203.849 216.795 203.849 217.932C203.849 219.314 203.504 220.536 202.813 221.597C202.131 222.648 201.188 223.614 199.986 224.494L194.148 228.798C193.011 229.632 192.221 230.455 191.776 231.27C191.34 232.075 191.122 232.705 191.122 233.159C191.122 233.992 191.335 234.764 191.761 235.474C192.197 236.185 192.803 236.753 193.58 237.179C194.366 237.605 195.284 237.818 196.335 237.818C197.415 237.818 198.466 237.586 199.489 237.122C200.521 236.649 201.454 235.972 202.287 235.091C203.13 234.21 203.797 233.154 204.29 231.923C204.782 230.692 205.028 229.314 205.028 227.79H208.864C208.864 229.665 208.651 231.251 208.224 232.548C207.798 233.836 207.282 234.887 206.676 235.702C206.08 236.507 205.516 237.136 204.986 237.591C204.815 237.742 204.654 237.894 204.503 238.045C204.351 238.197 204.19 238.348 204.02 238.5C203.035 239.494 201.842 240.228 200.44 240.702C199.048 241.175 197.675 241.412 196.321 241.412Z" fill="white"/>
<mask id="mask0_439_1903" style="mask-type:luminance" maskUnits="userSpaceOnUse" x="227" y="205" width="293" height="82">
<path d="M519.942 205H227V287H519.942V205Z" fill="white"/>
</mask>
<g mask="url(#mask0_439_1903)">
<path d="M308.904 243.218C307.367 220.627 287.808 203.56 265.218 205.096C253.964 205.862 244.083 211.101 237.187 218.958L237.168 218.945C237.122 219.009 237.078 219.072 237.032 219.136C230.183 227.032 226.331 237.53 227.096 248.782C227.169 249.855 227.295 250.91 227.448 251.956C227.455 252.003 227.462 252.051 227.468 252.098C227.571 252.788 227.691 253.472 227.828 254.149V254.151C227.83 254.163 227.833 254.175 227.835 254.187C227.96 254.801 228.098 255.409 228.249 256.012V256.013V256.014C232.984 274.898 250.677 288.272 270.782 286.904C293.373 285.367 310.44 265.808 308.904 243.218ZM299.979 243.825C300.169 246.606 299.994 249.329 299.498 251.949C299.492 251.934 299.487 251.918 299.481 251.903C296.509 244.638 290.629 239.392 285.459 236.495C286.505 224.184 282.329 218.997 277.602 218.153C277.473 218.129 277.344 218.108 277.212 218.091C273.461 217.61 270.03 220.262 269.55 224.013C269.068 227.765 271.72 231.196 275.472 231.677C275.799 231.719 276.122 231.73 276.443 231.725C276.464 232.141 276.477 232.582 276.48 233.044C272.11 231.961 268.024 231.749 264.299 232.084C262.906 232.176 261.512 232.352 260.126 232.611C260.591 228.454 262.15 223.787 265.177 220.371C268.102 217.07 272.452 215.177 277.197 215.663C278.096 215.755 279.056 215.976 279.92 216.266C279.959 216.279 280.002 216.291 280.041 216.304L280.043 216.302C291.033 220.779 299.121 231.209 299.979 243.825ZM271.403 250.087C271.4 250.092 271.397 250.096 271.394 250.101C270.415 251.511 269.252 252.903 267.886 254.248C265.839 252.07 264.194 249.724 262.946 247.297C262.882 247.167 262.814 247.043 262.751 246.911C262.749 246.906 262.747 246.901 262.744 246.897C262.011 245.343 261.388 243.639 260.906 241.783C263.819 241.097 266.676 240.845 269.405 240.978C269.549 240.988 269.691 240.991 269.836 241.003C269.841 241.003 269.847 241.003 269.852 241.004C271.561 241.145 273.346 241.457 275.191 241.966C274.328 244.83 273.118 247.43 271.64 249.726C271.559 249.846 271.486 249.967 271.403 250.087ZM257.393 215.758C257.385 215.768 257.377 215.777 257.369 215.787C252.566 221.991 250.962 229.701 251.036 235.626C239.852 240.876 237.449 247.086 239.081 251.601C239.124 251.725 239.171 251.847 239.222 251.969C240.681 255.459 244.693 257.104 248.182 255.645C251.672 254.186 253.317 250.174 251.859 246.684C251.731 246.38 251.579 246.094 251.414 245.819C251.768 245.59 252.147 245.356 252.55 245.119C253.798 249.446 255.643 253.107 257.796 256.166C258.571 257.324 259.418 258.441 260.334 259.51C256.501 261.186 251.678 262.17 247.206 261.257C242.884 260.374 239.07 257.553 237.119 253.201C236.749 252.376 236.46 251.435 236.279 250.542C236.168 249.761 236.075 248.974 236.021 248.175C235.022 233.489 244.133 220.414 257.393 215.758ZM270.175 277.979C261.454 278.573 253.301 275.598 247.14 270.31C254.914 271.368 262.393 268.902 267.488 265.875C277.63 272.942 284.212 271.919 287.307 268.246C287.393 268.147 287.476 268.046 287.556 267.94C289.848 264.932 289.267 260.635 286.259 258.343C283.25 256.05 278.953 256.632 276.661 259.64C276.461 259.902 276.289 260.177 276.133 260.457C275.761 260.266 275.371 260.056 274.967 259.827C278.094 256.582 280.322 253.147 281.895 249.751C282.512 248.499 283.057 247.203 283.526 245.873C286.896 248.354 290.162 252.041 291.608 256.373C293.004 260.557 292.468 265.27 289.675 269.137C289.146 269.869 288.475 270.59 287.791 271.193C287.781 271.202 287.772 271.211 287.762 271.22C282.876 275.061 276.83 277.527 270.175 277.979Z" fill="url(#paint0_linear_439_1903)"/>
<path style="mix-blend-mode:overlay" opacity="0.9" d="M277.602 218.154C277.473 218.129 277.344 218.108 277.212 218.091C276.549 218.006 275.896 218.024 275.267 218.124C279.189 220.257 282.049 226.202 280.545 237.93C280.047 241.814 278.892 245.51 277.225 248.901C275.873 251.818 274.035 254.762 271.563 257.591C272.75 258.481 273.907 259.226 274.967 259.827C278.094 256.582 280.322 253.147 281.895 249.751C283.563 246.36 284.718 242.663 285.216 238.78C287.006 224.816 282.612 219.048 277.602 218.154Z" fill="url(#paint1_radial_439_1903)"/>
<g style="mix-blend-mode:overlay" opacity="0.8">
<path d="M280.545 237.93C282.049 226.202 279.189 220.257 275.267 218.124C275.114 218.148 274.963 218.181 274.813 218.215C278.653 220.422 281.416 226.362 279.933 237.93C279.435 241.814 278.28 245.51 276.613 248.901C275.306 251.721 273.539 254.566 271.19 257.309C271.315 257.406 271.439 257.498 271.563 257.591C274.035 254.762 275.873 251.818 277.225 248.901C278.892 245.51 280.047 241.814 280.545 237.93Z" fill="white"/>
</g>
<path style="mix-blend-mode:overlay" opacity="0.5" d="M265.637 264.528C265.269 264.247 264.914 263.953 264.559 263.659C258.771 266.074 250.747 267.588 242.78 265.739C244.085 267.402 245.541 268.938 247.14 270.31C254.914 271.368 262.393 268.902 267.488 265.875C266.883 265.454 266.268 265.008 265.637 264.528Z" fill="url(#paint2_radial_439_1903)"/>
<path style="mix-blend-mode:overlay" opacity="0.6" d="M264.559 263.659C264.382 263.512 264.204 263.366 264.03 263.216C258.198 265.547 250.137 266.94 242.188 264.959C242.382 265.222 242.579 265.482 242.78 265.739C250.747 267.588 258.771 266.074 264.559 263.659Z" fill="url(#paint3_linear_439_1903)"/>
<path style="mix-blend-mode:overlay" opacity="0.9" d="M239.083 251.608C239.126 251.732 239.172 251.854 239.224 251.976C239.482 252.593 239.824 253.15 240.225 253.645C240.111 249.181 243.83 243.732 254.738 239.17C258.351 237.66 262.129 236.812 265.9 236.56C269.101 236.273 272.571 236.393 276.257 237.119C276.434 235.646 276.501 234.271 276.491 233.053C272.117 231.968 268.028 231.755 264.301 232.09C260.53 232.342 256.751 233.19 253.139 234.7C240.151 240.132 237.353 246.822 239.083 251.608Z" fill="url(#paint4_radial_439_1903)"/>
<g style="mix-blend-mode:overlay" opacity="0.8">
<path d="M254.738 239.171C243.83 243.732 240.112 249.181 240.225 253.645C240.322 253.765 240.426 253.879 240.531 253.992C240.522 249.563 244.285 244.2 255.044 239.701C258.657 238.19 262.435 237.342 266.206 237.091C269.302 236.812 272.649 236.92 276.199 237.583C276.22 237.427 276.238 237.273 276.257 237.119C272.571 236.393 269.102 236.273 265.9 236.56C262.129 236.812 258.351 237.66 254.738 239.171Z" fill="white"/>
</g>
<path style="mix-blend-mode:overlay" opacity="0.4" d="M285.227 238.782C285.168 239.242 285.09 239.696 285.013 240.15C289.999 243.955 295.322 250.147 297.704 257.971C298.492 256.01 299.094 253.981 299.483 251.91C296.512 244.648 290.637 239.404 285.468 236.506C285.406 237.24 285.327 237.997 285.227 238.782Z" fill="url(#paint5_radial_439_1903)"/>
<path style="mix-blend-mode:overlay" opacity="0.5" d="M285.013 240.15C284.975 240.377 284.938 240.605 284.895 240.83C289.829 244.715 295.066 250.999 297.325 258.874C297.456 258.575 297.583 258.274 297.704 257.971C295.322 250.147 289.999 243.955 285.013 240.15Z" fill="url(#paint6_linear_439_1903)"/>
<path style="mix-blend-mode:overlay" opacity="0.9" d="M287.312 268.237C287.398 268.138 287.48 268.037 287.56 267.931C287.966 267.399 288.277 266.825 288.505 266.23C284.696 268.56 278.118 268.064 268.714 260.898C265.599 258.525 262.975 255.677 260.872 252.536C259.022 249.908 257.392 246.843 256.177 243.289C254.813 243.871 253.589 244.501 252.539 245.118C253.786 249.449 255.646 253.096 257.801 256.157C259.904 259.297 262.527 262.145 265.642 264.518C276.839 273.05 284.032 272.128 287.312 268.237Z" fill="url(#paint7_radial_439_1903)"/>
<g style="mix-blend-mode:overlay" opacity="0.8">
<path d="M268.714 260.898C278.118 268.064 284.696 268.56 288.505 266.23C288.561 266.085 288.608 265.939 288.653 265.791C284.821 268.013 278.296 267.436 269.02 260.368C265.905 257.995 263.281 255.147 261.178 252.006C259.389 249.465 257.809 246.512 256.608 243.106C256.462 243.166 256.32 243.228 256.177 243.289C257.392 246.843 259.022 249.908 260.872 252.536C262.975 255.677 265.599 258.525 268.714 260.898Z" fill="white"/>
</g>
<path style="mix-blend-mode:overlay" opacity="0.3" d="M253.133 234.688C253.56 234.51 253.992 234.349 254.424 234.189C255.227 227.969 257.928 220.263 263.512 214.288C261.42 214.586 259.362 215.079 257.374 215.778C252.57 221.982 250.967 229.692 251.041 235.617C251.708 235.304 252.402 234.994 253.133 234.688Z" fill="url(#paint8_radial_439_1903)"/>
<path style="mix-blend-mode:overlay" opacity="0.4" d="M254.424 234.189C254.64 234.109 254.855 234.027 255.072 233.952C255.97 227.736 258.794 220.059 264.484 214.165C264.159 214.201 263.835 214.242 263.512 214.288C257.928 220.263 255.227 227.969 254.424 234.189Z" fill="url(#paint9_linear_439_1903)"/>
<path style="mix-blend-mode:multiply" opacity="0.4" d="M265.218 205.096C253.964 205.862 244.083 211.101 237.187 218.958C237.135 219.018 237.084 219.077 237.032 219.137C238.375 220.469 242.762 223.094 244.54 224.189C248.032 220.434 252.421 217.504 257.393 215.758C257.74 215.311 258.1 214.869 258.482 214.439C263.113 209.213 269.437 206.451 276.773 206.451C277.589 206.451 279.252 206.581 279.288 206.583C274.841 205.306 270.101 204.764 265.218 205.096Z" fill="url(#paint10_linear_439_1903)"/>
<path style="mix-blend-mode:multiply" opacity="0.4" d="M270.175 277.979C261.454 278.573 253.302 275.598 247.14 270.31C246.567 270.232 245.992 270.138 245.416 270.021C238.575 268.623 233.02 264.527 229.352 258.174C228.944 257.467 228.579 256.747 228.25 256.015C232.985 274.898 250.677 288.272 270.782 286.904C270.871 284.834 270.261 280.029 270.175 277.979Z" fill="url(#paint11_linear_439_1903)"/>
<path style="mix-blend-mode:multiply" opacity="0.4" d="M308.904 243.218C307.644 243.089 301.492 243.574 299.979 243.825C300.169 246.606 299.994 249.329 299.498 251.949C299.711 252.47 299.912 252.999 300.093 253.541C302.303 260.165 301.533 267.023 297.865 273.376C297.465 274.07 297.032 274.734 296.573 275.374C296.564 275.386 296.554 275.4 296.546 275.41C296.546 275.41 296.565 275.395 296.576 275.385C304.904 267.283 309.754 255.718 308.904 243.218Z" fill="url(#paint12_linear_439_1903)"/>
<path style="mix-blend-mode:multiply" opacity="0.5" d="M277.197 215.663C278.096 215.755 279.056 215.976 279.92 216.266C279.959 216.279 280.002 216.291 280.041 216.304L280.043 216.302C283.58 217.743 286.813 219.803 289.605 222.351C289.611 222.356 289.617 222.36 289.623 222.365C290.968 220.827 293.559 219.137 293.559 219.137C293.559 219.137 289.592 215.08 283.526 213.82C279.279 212.939 269.699 212.084 263.658 222.365C263.658 222.365 263.682 222.343 263.717 222.31C264.164 221.634 264.639 220.978 265.177 220.371C268.102 217.07 272.452 215.177 277.197 215.663Z" fill="url(#paint13_linear_439_1903)"/>
<path style="mix-blend-mode:multiply" opacity="0.5" d="M289.674 269.133C289.145 269.866 288.474 270.587 287.79 271.19C287.759 271.217 287.728 271.248 287.697 271.276L287.698 271.279C284.682 273.621 281.281 275.392 277.678 276.535C277.671 276.538 277.664 276.541 277.657 276.543C278.316 278.477 278.485 281.566 278.485 281.566C278.485 281.566 283.982 280.16 288.106 275.535C290.993 272.298 296.522 264.43 290.639 254.057C290.639 254.057 290.647 254.089 290.658 254.136C291.019 254.861 291.35 255.601 291.607 256.369C293.003 260.554 292.467 265.267 289.674 269.133Z" fill="url(#paint14_linear_439_1903)"/>
<path style="mix-blend-mode:multiply" opacity="0.5" d="M237.133 253.213C236.763 252.388 236.474 251.447 236.294 250.553C236.285 250.512 236.274 250.47 236.266 250.429H236.263C235.742 246.646 235.91 242.815 236.721 239.123C236.722 239.116 236.723 239.108 236.724 239.101C234.719 238.705 231.96 237.306 231.96 237.306C231.96 237.306 230.43 242.77 232.373 248.653C233.733 252.772 237.782 261.496 249.707 261.587C249.707 261.587 249.675 261.578 249.629 261.563C248.82 261.514 248.014 261.431 247.22 261.269C242.898 260.386 239.085 257.565 237.133 253.213Z" fill="url(#paint15_linear_439_1903)"/>
<path style="mix-blend-mode:multiply" opacity="0.6" d="M275.472 231.677C275.799 231.719 276.122 231.73 276.443 231.725C276.443 231.725 276.229 227.465 275.706 225.279C275.183 223.094 274.411 221.646 273.564 220.827C272.957 220.24 271.04 219.509 269.55 224.013C269.068 227.765 271.72 231.196 275.472 231.677Z" fill="url(#paint16_linear_439_1903)"/>
<path style="mix-blend-mode:multiply" opacity="0.5" d="M251.86 246.691C251.733 246.387 251.581 246.101 251.416 245.826C251.416 245.826 247.834 248.141 246.203 249.687C244.571 251.233 243.704 252.625 243.418 253.768C243.213 254.587 243.538 256.613 248.184 255.651C251.674 254.192 253.319 250.18 251.86 246.691Z" fill="url(#paint17_linear_439_1903)"/>
<path style="mix-blend-mode:multiply" opacity="0.6" d="M276.666 259.628C276.467 259.891 276.295 260.166 276.139 260.446C276.139 260.446 279.935 262.39 282.09 263.03C284.244 263.67 285.883 263.726 287.017 263.401C287.828 263.169 289.42 261.875 286.264 258.332C283.256 256.039 278.959 256.62 276.666 259.628Z" fill="url(#paint18_linear_439_1903)"/>
<path style="mix-blend-mode:multiply" opacity="0.3" d="M275.191 241.966C274.328 244.83 273.118 247.43 271.64 249.726C271.559 249.846 271.486 249.967 271.403 250.087C271.4 250.092 271.397 250.096 271.394 250.101C270.415 251.512 269.252 252.903 267.886 254.248C268.825 255.247 269.84 256.214 270.954 257.131C272.354 258.236 273.726 259.124 274.967 259.827C278.094 256.582 280.322 253.147 281.895 249.751C282.512 248.499 283.057 247.203 283.526 245.873C282.083 244.811 280.622 243.966 279.275 243.392C277.883 242.799 276.522 242.333 275.191 241.966Z" fill="url(#paint19_linear_439_1903)"/>
<path style="mix-blend-mode:multiply" opacity="0.3" d="M247.14 270.31C254.914 271.368 262.393 268.902 267.488 265.875C266.883 265.454 266.268 265.008 265.637 264.528C263.671 263.029 261.901 261.341 260.334 259.51C256.501 261.186 251.678 262.17 247.206 261.257C242.884 260.374 239.071 257.553 237.119 253.201C236.749 252.376 236.46 251.435 236.279 250.542C237.409 258.467 241.408 265.391 247.14 270.31Z" fill="url(#paint20_linear_439_1903)"/>
<path style="mix-blend-mode:multiply" opacity="0.3" d="M267.886 254.248C265.839 252.07 264.194 249.724 262.946 247.297C262.882 247.167 262.814 247.043 262.751 246.911C262.749 246.906 262.747 246.901 262.744 246.897C262.011 245.343 261.388 243.639 260.906 241.783C259.574 242.096 258.233 242.491 256.884 242.997C255.231 243.655 253.778 244.398 252.55 245.119C253.798 249.446 255.643 253.107 257.796 256.166C258.571 257.324 259.418 258.441 260.334 259.51C261.977 258.791 263.442 257.947 264.614 257.067C265.822 256.159 266.905 255.215 267.886 254.248Z" fill="url(#paint21_linear_439_1903)"/>
<path style="mix-blend-mode:multiply" opacity="0.3" d="M257.369 215.787C252.566 221.991 250.962 229.701 251.036 235.626C251.706 235.312 252.403 235.001 253.137 234.694C255.415 233.741 257.759 233.053 260.126 232.611C260.591 228.454 262.15 223.787 265.177 220.371C268.102 217.07 272.452 215.177 277.197 215.663C278.096 215.755 279.056 215.976 279.92 216.266C279.96 216.279 280.002 216.291 280.041 216.304L280.043 216.302C275.672 214.521 270.843 213.679 265.825 214.021C262.878 214.221 260.054 214.824 257.393 215.758C257.386 215.768 257.377 215.777 257.369 215.787Z" fill="url(#paint22_linear_439_1903)"/>
<path style="mix-blend-mode:multiply" opacity="0.3" d="M299.481 251.903C296.509 244.638 290.629 239.392 285.459 236.495C285.396 237.232 285.317 237.991 285.216 238.78C284.902 241.229 284.326 243.603 283.526 245.873C286.896 248.354 290.162 252.041 291.608 256.373C293.004 260.557 292.468 265.27 289.675 269.137C289.146 269.869 288.475 270.59 287.791 271.193C287.781 271.202 287.772 271.211 287.762 271.22C293.781 266.49 298.039 259.671 299.498 251.949C299.492 251.934 299.487 251.918 299.481 251.903Z" fill="url(#paint23_linear_439_1903)"/>
<path style="mix-blend-mode:multiply" opacity="0.3" d="M260.101 237.542C260.283 239.041 260.559 240.45 260.906 241.783C263.819 241.097 266.676 240.845 269.405 240.978C269.549 240.988 269.691 240.991 269.836 241.003C269.841 241.003 269.847 241.003 269.852 241.004C271.561 241.145 273.346 241.457 275.191 241.966C275.586 240.656 275.915 239.295 276.152 237.873C276.409 236.106 276.492 234.472 276.48 233.044C272.11 231.961 268.024 231.749 264.299 232.084C262.906 232.176 261.512 232.352 260.126 232.611C259.926 234.395 259.925 236.086 260.101 237.542Z" fill="url(#paint24_linear_439_1903)"/>
<path d="M460.343 233.671L454.18 250.841H454.226L460.379 233.774L460.343 233.671Z" fill="url(#paint25_linear_439_1903)"/>
<path d="M350.885 233.671L344.722 250.841H344.741L350.909 233.736L350.885 233.671Z" fill="url(#paint26_linear_439_1903)"/>
<path d="M346.958 237.96L351.582 250.841H342.314L339.972 257.335H353.949L357.911 268.341H366.771L350.615 227.818L346.958 237.96Z" fill="url(#paint27_linear_439_1903)"/>
<path d="M339.256 250.841L345.419 233.671L345.442 233.736L348.045 226.517H341.236L324.617 268.341H332.965L339.274 250.841H339.256Z" fill="url(#paint28_linear_439_1903)"/>
<path d="M393.626 246.796C391.608 245.605 388.93 244.494 385.592 243.466C383.684 242.844 382.189 242.266 381.107 241.733C380.024 241.202 379.272 240.596 378.851 239.918C378.429 239.239 378.218 238.441 378.218 237.524C378.218 235.909 378.841 234.662 380.089 233.781C381.336 232.9 383.079 232.461 385.317 232.461C387.151 232.461 389.068 232.736 391.068 233.286C393.066 233.836 394.837 234.588 396.378 235.542L397.534 228.774C395.956 227.819 394.04 227.058 391.783 226.49C389.527 225.921 387.279 225.637 385.042 225.637C381.996 225.637 379.355 226.132 377.117 227.123C374.879 228.114 373.146 229.526 371.917 231.359C370.687 233.195 370.073 235.359 370.073 237.853C370.073 239.982 370.486 241.825 371.311 243.384C372.137 244.943 373.486 246.292 375.356 247.43C377.227 248.567 379.685 249.595 382.73 250.51C384.932 251.171 386.637 251.796 387.849 252.382C389.059 252.969 389.903 253.621 390.38 254.335C390.856 255.051 391.095 255.904 391.095 256.894C391.095 258.619 390.388 259.968 388.976 260.939C387.564 261.911 385.61 262.397 383.115 262.397C380.95 262.397 378.686 262.059 376.319 261.379C373.953 260.701 371.889 259.83 370.128 258.766L369.358 265.754C370.384 266.452 371.669 267.056 373.21 267.57C374.751 268.084 376.411 268.487 378.191 268.78C379.97 269.074 381.74 269.222 383.501 269.222C388.454 269.222 392.342 268.094 395.167 265.836C397.992 263.581 399.405 260.454 399.405 256.454C399.405 254.327 398.946 252.483 398.029 250.924C397.112 249.364 395.644 247.989 393.626 246.796Z" fill="url(#paint29_linear_439_1903)"/>
<path d="M437.541 226.517H402.157V233.337H437.541V226.517Z" fill="url(#paint30_linear_439_1903)"/>
<path d="M424.059 236.196H415.639V268.341H424.059V236.196Z" fill="url(#paint31_linear_439_1903)"/>
<path d="M448.713 250.841L454.876 233.671L454.913 233.774L457.529 226.517H450.694L434.074 268.341H442.44L446.401 257.335H446.418L448.759 250.841H448.713Z" fill="url(#paint32_linear_439_1903)"/>
<path d="M456.429 237.996L461.04 250.841H451.798L449.456 257.335H463.406L467.369 268.341H476.229L460.086 227.851L456.429 237.996Z" fill="url(#paint33_linear_439_1903)"/>
<path d="M503.469 251.391C505.486 250.255 507.137 248.722 508.421 246.796C509.706 244.871 510.348 242.623 510.348 240.055C510.348 237.267 509.722 234.863 508.476 232.846C507.23 230.829 505.45 229.268 503.138 228.168C500.828 227.067 498.076 226.517 494.886 226.517H491.96V232.846H493.783C499.36 232.846 502.148 235.23 502.148 240C502.148 244.769 499.267 247.155 493.508 247.155H491.96V253.482H496.261L505.065 268.341H514.476L503.469 251.391Z" fill="url(#paint34_linear_439_1903)"/>
<path d="M489.101 226.517H481.126V268.341H489.101V226.517Z" fill="url(#paint35_linear_439_1903)"/>
</g>
<path d="M4.19604 29.0001V-0.0908203H8.4432V10.7188H8.69889C8.9451 10.2643 9.30021 9.73869 9.76423 9.14209C10.2282 8.54554 10.8722 8.02471 11.696 7.57963C12.5199 7.12509 13.6089 6.89782 14.9631 6.89782C16.7245 6.89782 18.2964 7.34289 19.679 8.23304C21.0616 9.12319 22.1459 10.4063 22.9318 12.0825C23.7273 13.7586 24.125 15.7757 24.125 18.1336C24.125 20.4916 23.732 22.5134 22.946 24.199C22.1601 25.8751 21.0805 27.1677 19.7074 28.0768C18.3343 28.9764 16.7671 29.4262 15.0057 29.4262C13.6799 29.4262 12.5957 29.2037 11.7529 28.7586C10.9195 28.3135 10.2661 27.7927 9.79264 27.1961C9.31915 26.5995 8.95457 26.0692 8.69889 25.6052H8.34377V29.0001H4.19604ZM8.35798 18.091C8.35798 19.6251 8.58051 20.9698 9.02559 22.1251C9.47067 23.2804 10.1146 24.1848 10.9574 24.8382C11.8002 25.4821 12.8324 25.8041 14.054 25.8041C15.3229 25.8041 16.3835 25.4679 17.2358 24.7956C18.0881 24.1137 18.732 23.1904 19.1676 22.0257C19.6127 20.8609 19.8352 19.5493 19.8352 18.091C19.8352 16.6516 19.6174 15.359 19.1818 14.2132C18.7557 13.0673 18.1118 12.163 17.25 11.5001C16.3977 10.8372 15.3324 10.5058 14.054 10.5058C12.8229 10.5058 11.7813 10.823 10.929 11.4575C10.0862 12.092 9.44699 12.9774 9.01139 14.1137C8.57578 15.2501 8.35798 16.5759 8.35798 18.091Z" fill="white"/>
<path d="M30.8367 37.1816C30.2022 37.1816 29.6245 37.1295 29.1037 37.0254C28.5829 36.9307 28.1946 36.8265 27.9389 36.7129L28.9617 33.2328C29.7382 33.4411 30.4295 33.531 31.0355 33.5026C31.6416 33.4742 32.1766 33.247 32.6406 32.8208C33.1141 32.3947 33.5308 31.6987 33.8906 30.7328L34.4162 29.2839L26.4333 7.18164H30.9787L36.5043 24.1134H36.7316L42.2571 7.18164H46.8168L37.8253 31.9117C37.4086 33.0481 36.8783 34.0093 36.2344 34.7953C35.5905 35.5907 34.8234 36.1873 33.9333 36.585C33.0431 36.9828 32.0109 37.1816 30.8367 37.1816Z" fill="white"/>
<mask id="mask1_439_1903" style="mask-type:luminance" maskUnits="userSpaceOnUse" x="0" y="56" width="472" height="84">
<path d="M472 56H0V140H472V56Z" fill="white"/>
</mask>
<g mask="url(#mask1_439_1903)">
<path d="M168.155 139.972C151.04 139.972 135.181 134.88 124.608 125.386C120.827 121.993 117.815 117.833 115.772 113.184C113.729 108.536 112.702 103.506 112.761 98.429C112.749 93.374 113.797 88.3721 115.838 83.7457C117.878 79.1193 120.866 74.9708 124.608 71.5672C134.426 62.6572 151.795 57 168.155 57C186.251 57 200.742 61.554 211.815 71.5861C215.543 74.9885 218.51 79.1377 220.524 83.7631C222.538 88.3884 223.552 93.386 223.501 98.429C223.476 103.478 222.428 108.469 220.419 113.102C218.411 117.734 215.484 121.913 211.815 125.386C201.497 134.937 185.298 139.972 168.155 139.972V129.053C177.227 129.053 185.647 125.923 191.528 120.077C197.409 114.232 200.081 107.141 200.081 98.392C200.081 90.038 197.145 82.2309 191.528 76.7058C185.723 71.0015 177.104 67.7863 168.155 67.7863C159.206 67.7863 150.549 70.9732 144.744 76.7058C139.146 82.2404 136.248 90.076 136.248 98.392C136.164 102.387 136.871 106.36 138.329 110.081C139.787 113.803 141.967 117.2 144.744 120.077C150.549 125.857 159.149 129.053 168.155 129.053V139.972ZM43.1881 57C34.0407 57 23.6473 58.716 14.8681 62.6572C6.67414 66.3155 5.81671e-05 72.1895 5.81671e-05 81.9292C-0.0122522 87.0297 1.92986 91.942 5.42806 95.657C7.7975 97.845 11.6207 101.56 21.6082 103.747C26.0733 104.69 35.6172 106.208 45.1233 107.207C54.6293 108.207 63.8428 109.093 67.6188 110.102C70.6207 110.866 75.6711 111.903 75.6711 117.56C75.6711 123.217 70.3564 124.914 69.4313 125.282C68.5061 125.65 62.1247 128.573 50.6645 128.573C43.0715 128.362 35.5474 127.07 28.3201 124.735C24.0437 123.208 19.5597 121.199 15.3778 116.098C13.6901 113.696 12.7538 110.848 12.6874 107.914H2.30342V136.955H13.8391V133.023C13.8373 132.731 13.9133 132.444 14.0594 132.192C14.2055 131.939 14.4163 131.73 14.6702 131.586C14.9241 131.442 15.2118 131.368 15.5038 131.372C15.7957 131.376 16.0814 131.458 16.3313 131.609C21.7661 133.971 27.4193 135.796 33.21 137.058C39.2705 138.322 43.1881 139.236 50.7212 139.236C58.6703 139.387 66.5925 138.27 74.189 135.927C79.2334 134.546 83.9663 132.213 88.1319 129.053C90.4749 127.256 92.3686 124.94 93.6642 122.288C94.9598 119.636 95.6221 116.72 95.5989 113.77C95.6383 108.164 93.4721 102.767 89.5668 98.74C87.3952 96.635 84.8794 94.917 82.1281 93.658C79.1703 92.324 76.0997 91.254 72.9524 90.462C66.9674 89.0007 53.5249 87.1715 47.0962 86.5304C40.3561 85.8327 28.6599 84.8615 23.9871 83.419C22.5711 82.9758 19.6825 81.6087 19.6825 78.2615C19.6825 75.8761 21.0041 73.8583 23.6095 72.2272C27.7537 69.6343 36.1175 68.022 44.8401 68.022C53.283 67.9202 61.6566 69.5538 69.4407 72.8212C71.532 73.7312 73.4988 74.9035 75.2935 76.3098C78.2192 78.8056 80.2452 82.1904 81.0613 85.9458H90.3786V60.6677H79.9946V63.6C79.9946 64.5429 79.0506 65.7875 77.1626 64.7597C72.4804 62.3272 59.321 57.066 43.1881 57ZM271.155 61.6389L321.904 107.377L321.385 76.5832C321.328 72.5383 320.592 70.8506 316.212 70.8506H306.677V61.6389H350.101V70.8506H340.784C336.328 70.8506 336.064 72.2838 335.989 76.5832L336.772 135.427H321.904L263.442 83.3247V120.294C263.489 124.32 263.678 126.215 267.822 126.215H278.206V135.427H235.641V126.215H245.61C249.329 126.215 249.178 122.67 249.178 120.087V76.9321C249.178 74.1035 248.782 70.8601 242.948 70.8601H234.867V61.6389H271.155ZM399.642 126.197C400.501 126.197 401.358 126.143 402.21 126.036C402.653 125.904 403.061 125.676 403.406 125.37C403.752 125.064 404.027 124.687 404.211 124.264C404.342 123.608 404.408 122.942 404.41 122.274V107.707C404.41 107.217 404.41 107.207 403.787 106.434C403.164 105.661 377.204 76.2626 376.024 74.9426C374.551 73.3398 371.964 70.8601 368.028 70.8601H359.013V61.6389H409.894V70.8412H403.758C402.342 70.8412 401.398 72.1895 402.607 73.6698C402.607 73.6698 419.731 94.13 419.891 94.347C420.052 94.564 420.193 94.611 420.41 94.413C420.628 94.215 437.959 73.8583 438.092 73.6698C438.296 73.4012 438.42 73.0796 438.447 72.7431C438.474 72.4066 438.404 72.0693 438.245 71.7714C438.086 71.4735 437.845 71.2275 437.55 71.0626C437.255 70.8977 436.919 70.8209 436.581 70.8412H430.285V61.6389H472V70.8601H462.683C459.303 70.8601 457.963 71.4823 455.386 74.3486L427.302 106.349C427.027 106.745 426.906 107.228 426.962 107.707V122.265C426.967 122.933 427.036 123.599 427.169 124.254C427.351 124.678 427.624 125.056 427.968 125.362C428.312 125.668 428.719 125.895 429.161 126.027C430.006 126.138 430.858 126.192 431.71 126.187H441.235V135.408H390.618V126.187L399.642 126.197Z" fill="white"/>
</g>
<path d="M83.2813 163.544L81.1972 164.644C80.9194 164.033 80.5026 163.667 80.2247 163.544C79.8079 163.3 79.3911 163.3 78.8353 163.3C78.0017 163.178 77.446 163.422 77.0292 163.667C76.6123 164.033 76.3345 164.522 76.3345 165.011C76.3345 165.744 76.8902 166.356 78.1406 166.722L79.8079 167.333C81.1972 167.822 82.1698 168.433 82.7255 169.044C83.2813 169.656 83.6981 170.633 83.6981 171.611C83.6981 172.956 83.1424 174.056 82.1698 175.033C81.1972 175.889 79.8079 176.378 78.2796 176.378C76.8902 176.378 75.6398 176.011 74.6672 175.278C73.8336 174.544 73.2779 173.444 73 172.1L75.5009 171.611C75.6398 172.467 75.7787 173.078 76.0566 173.444C76.6123 174.056 77.307 174.422 78.2796 174.422C79.1132 174.422 79.6689 174.178 80.2247 173.689C80.7804 173.2 81.0583 172.589 81.0583 171.978C81.0583 171.733 81.0583 171.489 80.9194 171.244C80.9194 170.878 80.7804 170.633 80.6415 170.389C80.5026 170.144 80.2247 170.022 79.9468 169.9C79.53 169.656 79.2521 169.533 78.8353 169.289L77.1681 168.8C74.9451 167.944 73.6947 166.6 73.6947 165.011C73.6947 163.911 74.1115 162.933 75.084 162.2C76.0566 161.467 77.307 161.1 78.6964 161.1C80.7804 161.1 82.1698 161.956 83.2813 163.544ZM86.3379 171.367C86.3379 170.022 86.8936 168.922 88.0051 167.944C89.1166 166.967 90.367 166.478 92.0343 166.478C93.5626 166.478 94.9519 166.967 96.0634 167.944C97.1749 168.922 97.7307 170.022 97.7307 171.489C97.7307 172.833 97.1749 174.056 96.0634 175.033C94.9519 176.011 93.5626 176.378 92.0343 176.378C90.506 176.378 89.1166 175.889 88.0051 174.911C86.7547 174.056 86.3379 172.833 86.3379 171.367ZM88.8387 171.489C88.8387 172.467 89.1166 173.2 89.6724 173.689C90.2281 174.178 91.0617 174.544 91.8953 174.544C92.8679 174.544 93.5626 174.3 94.1183 173.689C94.6741 173.2 94.9519 172.467 94.9519 171.489C94.9519 170.511 94.6741 169.9 94.1183 169.289C93.5626 168.8 92.729 168.433 91.8953 168.433C90.9228 168.433 90.2281 168.678 89.6724 169.289C89.1166 169.9 88.8387 170.633 88.8387 171.489ZM100.093 166.844H102.593V167.7C103.427 166.967 104.4 166.6 105.511 166.6C106.762 166.6 107.734 166.967 108.429 167.578C108.985 168.189 109.262 169.044 109.262 170.389V176.133H106.762V170.878C106.762 169.9 106.623 169.289 106.345 168.922C106.067 168.678 105.511 168.556 104.816 168.556C103.983 168.556 103.427 168.8 103.149 169.289C102.871 169.778 102.593 170.511 102.593 171.733V176.256H100.093V166.844ZM116.209 174.422L111.485 166.844H114.264L117.46 172.222L120.516 166.844H123.295L114.82 181.267H112.041L116.209 174.422ZM133.993 176.133V160.367L146.219 171.611V161.344H148.72V176.989L136.494 165.744V176.011H133.993V176.133ZM162.197 171.978H154.556C154.556 172.711 154.834 173.322 155.389 173.811C155.945 174.3 156.501 174.422 157.334 174.422C157.89 174.422 158.446 174.3 158.863 174.056C159.279 173.811 159.696 173.322 160.252 172.589L162.336 173.567C162.058 174.056 161.641 174.422 161.364 174.789C160.947 175.156 160.669 175.4 160.252 175.644C159.835 175.889 159.418 176.011 159.002 176.133C158.585 176.256 158.029 176.256 157.473 176.256C155.945 176.256 154.695 175.767 153.722 174.911C152.749 174.056 152.333 172.833 152.333 171.367C152.333 169.9 152.749 168.678 153.722 167.822C154.695 166.967 155.945 166.478 157.473 166.478C159.002 166.478 160.252 166.967 161.225 167.822C162.058 168.678 162.614 169.9 162.614 171.367L162.197 171.978ZM159.696 170.267C159.418 169.044 158.585 168.556 157.195 168.556C156.918 168.556 156.64 168.556 156.362 168.678C156.084 168.8 155.806 168.922 155.667 169.044C155.389 169.167 155.25 169.411 155.111 169.533C154.972 169.656 154.834 170.022 154.834 170.267H159.696ZM168.032 168.8V176.133H165.532V168.8H164.42V166.844H165.532V163.422H168.032V166.844H169.978V168.8H168.032ZM174.701 166.844L177.48 172.1L180.398 165.989L183.454 172.1L186.233 166.844H189.012L183.454 176.867L180.537 170.878L177.619 176.867L172.062 166.844H174.701ZM189.707 171.367C189.707 170.022 190.262 168.922 191.374 167.944C192.485 167.089 193.736 166.6 195.264 166.6C196.792 166.6 198.182 167.089 199.293 168.067C200.405 169.044 200.96 170.144 200.96 171.611C200.96 172.956 200.405 174.178 199.293 175.156C198.182 176.133 196.792 176.5 195.264 176.5C193.736 176.5 192.346 176.011 191.235 175.033C190.262 174.056 189.707 172.833 189.707 171.367ZM192.207 171.489C192.207 172.467 192.485 173.2 193.041 173.689C193.597 174.178 194.43 174.544 195.264 174.544C196.237 174.544 196.931 174.3 197.487 173.689C198.043 173.2 198.321 172.467 198.321 171.489C198.321 170.511 198.043 169.9 197.487 169.289C197.07 168.8 196.237 168.556 195.264 168.556C194.291 168.556 193.597 168.8 193.041 169.411C192.485 169.9 192.207 170.633 192.207 171.489ZM203.6 166.844H206.101V167.7C206.518 167.333 206.935 166.967 207.351 166.844C207.768 166.722 208.185 166.6 208.602 166.6C209.297 166.6 209.852 166.844 210.686 167.211L209.574 169.167C209.158 168.922 208.602 168.678 208.185 168.678C206.796 168.678 206.24 169.533 206.24 171.367V176.133H203.6V166.844ZM215.132 160V169.778L218.605 166.722H221.94L217.355 170.633L222.218 176.011H219.022L215.549 172.1L215.132 172.467V176.011H212.631V160H215.132ZM245.142 162.2V164.889C243.614 163.789 242.224 163.3 240.557 163.3C238.89 163.3 237.362 163.789 236.25 164.889C235 165.989 234.444 167.333 234.444 168.8C234.444 170.389 235 171.611 236.25 172.711C237.501 173.811 238.89 174.3 240.557 174.3C241.391 174.3 242.224 174.178 242.78 173.933C243.058 173.811 243.475 173.689 243.892 173.444C244.309 173.2 244.725 172.956 245.003 172.711V175.4C243.614 176.133 242.086 176.5 240.418 176.5C238.056 176.5 235.972 175.767 234.305 174.3C232.638 172.833 231.804 171 231.804 168.922C231.804 167.089 232.499 165.378 233.888 163.911C235.556 162.078 237.917 161.222 240.696 161.222C242.363 161.1 243.753 161.467 245.142 162.2ZM247.921 171.367C247.921 170.022 248.477 168.922 249.588 167.944C250.7 166.967 251.95 166.478 253.617 166.478C255.146 166.478 256.535 166.967 257.646 167.944C258.758 168.922 259.314 170.022 259.314 171.489C259.314 172.833 258.758 174.056 257.646 175.033C256.535 176.011 255.146 176.378 253.617 176.378C252.089 176.378 250.7 175.889 249.588 174.911C248.477 174.056 247.921 172.833 247.921 171.367ZM250.422 171.489C250.422 172.467 250.7 173.2 251.255 173.689C251.811 174.178 252.645 174.544 253.478 174.544C254.451 174.544 255.146 174.3 255.701 173.689C256.257 173.2 256.535 172.467 256.535 171.489C256.535 170.511 256.257 169.9 255.701 169.289C255.146 168.8 254.312 168.433 253.478 168.433C252.506 168.433 251.811 168.678 251.255 169.289C250.7 169.9 250.422 170.633 250.422 171.489ZM261.259 166.844H263.76V167.7C264.176 167.211 264.593 166.967 265.01 166.844C265.427 166.722 265.844 166.6 266.399 166.6C267.65 166.6 268.483 167.089 269.178 167.944C270.012 166.967 270.984 166.6 272.235 166.6C274.597 166.6 275.847 167.822 275.847 170.389V176.133H273.346V171C273.346 170.144 273.207 169.533 272.929 169.167C272.79 168.678 272.374 168.556 271.679 168.556C270.984 168.556 270.568 168.8 270.151 169.167C269.734 169.533 269.734 170.389 269.734 171.367V176.133H267.233V171C267.233 169.289 266.677 168.556 265.566 168.556C264.871 168.556 264.315 168.8 264.038 169.289C263.76 169.778 263.621 170.511 263.621 171.489V176.256H261.12V166.844H261.259ZM278.487 166.844H280.988V167.7C281.405 167.211 281.821 166.967 282.238 166.844C282.655 166.722 283.072 166.6 283.628 166.6C284.878 166.6 285.712 167.089 286.406 167.944C287.24 166.967 288.212 166.6 289.463 166.6C291.825 166.6 293.075 167.822 293.075 170.389V176.133H290.574V171C290.574 170.144 290.435 169.533 290.158 169.167C289.88 168.8 289.463 168.556 288.907 168.556C288.212 168.556 287.796 168.8 287.379 169.167C287.101 169.656 286.962 170.389 286.962 171.367V176.133H284.461V171C284.461 169.289 283.905 168.556 282.794 168.556C282.099 168.556 281.543 168.8 281.266 169.289C280.988 169.778 280.849 170.511 280.849 171.489V176.256H278.348V166.844H278.487ZM298.494 166.844V172.222C298.494 173.811 299.188 174.544 300.578 174.544C301.967 174.544 302.662 173.811 302.662 172.222V166.844H305.163V172.222C305.163 172.956 305.024 173.567 304.885 174.178C304.746 174.667 304.329 175.156 303.773 175.522C302.94 176.133 301.967 176.5 300.578 176.5C299.327 176.5 298.216 176.133 297.382 175.522C296.826 175.156 296.549 174.667 296.271 174.178C296.132 173.689 295.993 173.078 295.993 172.222V166.844H298.494ZM308.08 166.844H310.581V167.7C311.415 166.967 312.387 166.6 313.499 166.6C314.749 166.6 315.722 166.967 316.417 167.578C316.972 168.189 317.25 169.044 317.25 170.389V176.133H314.749V170.878C314.749 169.9 314.61 169.289 314.332 168.922C314.055 168.556 313.499 168.433 312.804 168.433C311.971 168.433 311.415 168.678 311.137 169.167C310.859 169.656 310.581 170.389 310.581 171.611V176.133H308.08V166.844ZM320.446 162.933C320.446 162.567 320.585 162.2 320.862 161.956C321.14 161.711 321.557 161.589 321.974 161.589C322.391 161.589 322.808 161.711 323.085 161.956C323.363 162.2 323.502 162.567 323.502 162.933C323.502 163.3 323.363 163.667 323.085 163.911C322.808 164.156 322.391 164.278 321.974 164.278C321.557 164.278 321.14 164.156 320.862 163.911C320.585 163.667 320.446 163.3 320.446 162.933ZM323.224 166.844V176.133H320.724V166.844H323.224ZM334.478 167.211V170.022C333.922 169.411 333.367 169.044 332.95 168.8C332.533 168.556 331.977 168.433 331.422 168.433C330.449 168.433 329.754 168.678 329.199 169.289C328.643 169.9 328.226 170.511 328.226 171.367C328.226 172.222 328.504 172.956 329.06 173.567C329.615 174.178 330.449 174.422 331.283 174.422C331.838 174.422 332.394 174.3 332.811 174.056C333.228 173.811 333.784 173.444 334.339 172.833V175.644C333.367 176.133 332.394 176.378 331.422 176.378C329.754 176.378 328.365 175.889 327.254 175.033C326.142 174.056 325.586 172.956 325.586 171.489C325.586 170.022 326.142 168.922 327.254 167.944C328.365 166.967 329.754 166.478 331.422 166.478C332.672 166.6 333.645 166.844 334.478 167.211ZM345.176 166.844H347.677V176.133H345.176V175.156C344.204 176.011 343.092 176.378 341.981 176.378C340.453 176.378 339.341 175.889 338.368 175.033C337.396 174.056 336.979 172.956 336.979 171.489C336.979 170.144 337.396 168.922 338.368 167.944C339.341 166.967 340.453 166.6 341.981 166.6C343.231 166.6 344.343 167.089 345.315 167.944V166.844H345.176ZM339.341 171.489C339.341 172.344 339.619 173.078 340.175 173.689C340.73 174.3 341.425 174.544 342.259 174.544C343.231 174.544 343.926 174.3 344.482 173.689C345.037 173.078 345.315 172.344 345.315 171.489C345.315 170.633 345.037 169.9 344.482 169.289C343.926 168.8 343.231 168.556 342.259 168.556C341.425 168.556 340.73 168.8 340.175 169.411C339.619 169.9 339.341 170.633 339.341 171.489ZM354.068 168.8V176.133H351.567V168.8H350.456V166.844H351.567V163.422H354.068V166.844H356.013V168.8H354.068ZM358.097 162.933C358.097 162.567 358.236 162.2 358.514 161.956C358.792 161.711 359.209 161.589 359.626 161.589C360.043 161.589 360.459 161.711 360.737 161.956C361.015 162.2 361.154 162.567 361.154 162.933C361.154 163.3 361.015 163.667 360.737 163.911C360.459 164.156 360.043 164.278 359.626 164.278C359.209 164.278 358.792 164.156 358.514 163.911C358.375 163.667 358.097 163.3 358.097 162.933ZM361.015 166.844V176.133H358.514V166.844H361.015ZM364.072 171.367C364.072 170.022 364.627 168.922 365.739 167.944C366.85 166.967 368.101 166.478 369.768 166.478C371.296 166.478 372.686 166.967 373.797 167.944C374.909 168.922 375.464 170.022 375.464 171.489C375.464 172.833 374.909 174.056 373.797 175.033C372.686 176.011 371.296 176.378 369.768 176.378C368.24 176.378 366.85 175.889 365.739 174.911C364.488 174.056 364.072 172.833 364.072 171.367ZM366.573 171.489C366.573 172.467 366.85 173.2 367.406 173.689C367.962 174.178 368.796 174.544 369.629 174.544C370.602 174.544 371.296 174.3 371.852 173.689C372.408 173.078 372.686 172.467 372.686 171.489C372.686 170.511 372.408 169.9 371.852 169.289C371.296 168.8 370.463 168.433 369.629 168.433C368.657 168.433 367.962 168.678 367.406 169.289C366.85 169.9 366.573 170.633 366.573 171.489ZM377.826 166.844H380.327V167.7C381.161 166.967 382.133 166.6 383.245 166.6C384.495 166.6 385.468 166.967 386.163 167.578C386.718 168.189 386.996 169.044 386.996 170.389V176.133H384.495V170.878C384.495 169.9 384.356 169.289 384.079 168.922C383.801 168.556 383.245 168.433 382.55 168.433C381.717 168.433 381.161 168.678 380.883 169.167C380.605 169.656 380.327 170.389 380.327 171.611V176.133H377.826V166.844ZM396.583 168.433L394.499 169.411C394.36 168.8 393.943 168.556 393.387 168.556C393.109 168.556 392.97 168.678 392.832 168.8C392.693 168.922 392.554 169.044 392.554 169.289C392.554 169.656 392.97 170.022 393.943 170.389C395.193 170.878 396.166 171.367 396.583 171.733C397 172.1 397.277 172.711 397.277 173.444C397.277 174.3 396.861 175.033 396.166 175.644C395.471 176.256 394.499 176.5 393.526 176.5C391.72 176.5 390.47 175.767 389.775 174.178L391.859 173.322C392.137 173.811 392.415 174.056 392.554 174.178C392.832 174.422 393.248 174.544 393.665 174.544C394.499 174.544 394.916 174.178 394.916 173.567C394.916 173.2 394.638 172.833 393.943 172.467C393.665 172.344 393.387 172.222 393.248 172.1C392.97 171.978 392.693 171.856 392.554 171.733C391.859 171.489 391.303 171.122 391.025 170.756C390.609 170.389 390.47 169.9 390.47 169.289C390.47 168.433 390.747 167.822 391.442 167.333C392.137 166.844 392.832 166.6 393.804 166.6C394.916 166.6 396.027 167.211 396.583 168.433Z" fill="white"/>
</g>
<defs>
<linearGradient id="paint0_linear_439_1903" x1="240.02" y1="273.982" x2="292.302" y2="221.7" gradientUnits="userSpaceOnUse">
<stop offset="0.001139" stop-color="#E6007A"/>
<stop offset="0.207149" stop-color="#703AC2"/>
<stop offset="0.456011" stop-color="#0070EB"/>
<stop offset="0.768132" stop-color="#0297FB"/>
<stop offset="1" stop-color="#0AE2FF"/>
</linearGradient>
<radialGradient id="paint1_radial_439_1903" cx="0" cy="0" r="1" gradientUnits="userSpaceOnUse" gradientTransform="translate(279.687 237.701) scale(15.589 15.589)">
<stop stop-color="white"/>
<stop offset="1" stop-color="white" stop-opacity="0"/>
</radialGradient>
<radialGradient id="paint2_radial_439_1903" cx="0" cy="0" r="1" gradientUnits="userSpaceOnUse" gradientTransform="translate(256.644 266.62) scale(9.0698 9.06981)">
<stop stop-color="white"/>
<stop offset="1" stop-color="white" stop-opacity="0"/>
</radialGradient>
<linearGradient id="paint3_linear_439_1903" x1="243.033" y1="265.086" x2="251.776" y2="264.965" gradientUnits="userSpaceOnUse">
<stop stop-color="white" stop-opacity="0"/>
<stop offset="1" stop-color="white"/>
</linearGradient>
<radialGradient id="paint4_radial_439_1903" cx="0" cy="0" r="1" gradientUnits="userSpaceOnUse" gradientTransform="translate(254.969 240.028) rotate(-120) scale(15.589 15.589)">
<stop stop-color="white"/>
<stop offset="1" stop-color="white" stop-opacity="0"/>
</radialGradient>
<radialGradient id="paint5_radial_439_1903" cx="0" cy="0" r="1" gradientUnits="userSpaceOnUse" gradientTransform="translate(291.536 245.524) rotate(-120) scale(9.0698 9.0698)">
<stop stop-color="white"/>
<stop offset="1" stop-color="white" stop-opacity="0"/>
</radialGradient>
<linearGradient id="paint6_linear_439_1903" x1="297.012" y1="258.079" x2="292.536" y2="250.568" gradientUnits="userSpaceOnUse">
<stop stop-color="white" stop-opacity="0"/>
<stop offset="1" stop-color="white"/>
</linearGradient>
<radialGradient id="paint7_radial_439_1903" cx="0" cy="0" r="1" gradientUnits="userSpaceOnUse" gradientTransform="translate(268.605 259.548) rotate(120) scale(15.589)">
<stop stop-color="white"/>
<stop offset="1" stop-color="white" stop-opacity="0"/>
</radialGradient>
<radialGradient id="paint8_radial_439_1903" cx="0" cy="0" r="1" gradientUnits="userSpaceOnUse" gradientTransform="translate(255.817 225.854) rotate(120) scale(9.0698 9.0698)">
<stop stop-color="white"/>
<stop offset="1" stop-color="white" stop-opacity="0"/>
</radialGradient>
<linearGradient id="paint9_linear_439_1903" x1="263.951" y1="214.833" x2="259.685" y2="222.465" gradientUnits="userSpaceOnUse">
<stop stop-color="white" stop-opacity="0"/>
<stop offset="1" stop-color="white"/>
</linearGradient>
<linearGradient id="paint10_linear_439_1903" x1="265.852" y1="210.954" x2="252.495" y2="214.839" gradientUnits="userSpaceOnUse">
<stop stop-color="#231F20"/>
<stop offset="1" stop-color="white"/>
</linearGradient>
<linearGradient id="paint11_linear_439_1903" x1="240.61" y1="261.896" x2="251.781" y2="273.553" gradientUnits="userSpaceOnUse">
<stop stop-color="#231F20"/>
<stop offset="1" stop-color="white"/>
</linearGradient>
<linearGradient id="paint12_linear_439_1903" x1="300.567" y1="260.139" x2="304.452" y2="248.32" gradientUnits="userSpaceOnUse">
<stop stop-color="#231F20"/>
<stop offset="1" stop-color="white"/>
</linearGradient>
<linearGradient id="paint13_linear_439_1903" x1="271.938" y1="217.712" x2="289.846" y2="221.813" gradientUnits="userSpaceOnUse">
<stop stop-color="#231F20"/>
<stop offset="1" stop-color="white"/>
</linearGradient>
<linearGradient id="paint14_linear_439_1903" x1="290.529" y1="263.555" x2="278.024" y2="277.013" gradientUnits="userSpaceOnUse">
<stop stop-color="#231F20"/>
<stop offset="1" stop-color="white"/>
</linearGradient>
<linearGradient id="paint15_linear_439_1903" x1="241.537" y1="256.743" x2="236.134" y2="239.184" gradientUnits="userSpaceOnUse">
<stop stop-color="#231F20"/>
<stop offset="1" stop-color="white"/>
</linearGradient>
<linearGradient id="paint16_linear_439_1903" x1="275.853" y1="224.317" x2="270.187" y2="229.984" gradientUnits="userSpaceOnUse">
<stop stop-color="#231F20"/>
<stop offset="1" stop-color="white"/>
</linearGradient>
<linearGradient id="paint17_linear_439_1903" x1="245.296" y1="250.04" x2="253.036" y2="252.114" gradientUnits="userSpaceOnUse">
<stop stop-color="#231F20"/>
<stop offset="1" stop-color="white"/>
</linearGradient>
<linearGradient id="paint18_linear_439_1903" x1="282.849" y1="263.639" x2="280.775" y2="255.898" gradientUnits="userSpaceOnUse">
<stop stop-color="#231F20"/>
<stop offset="1" stop-color="white"/>
</linearGradient>
<linearGradient id="paint19_linear_439_1903" x1="271.067" y1="256.756" x2="274.467" y2="252.061" gradientUnits="userSpaceOnUse">
<stop stop-color="#231F20"/>
<stop offset="1" stop-color="white"/>
</linearGradient>
<linearGradient id="paint20_linear_439_1903" x1="259.36" y1="254.723" x2="252.56" y2="257.961" gradientUnits="userSpaceOnUse">
<stop stop-color="#231F20"/>
<stop offset="1" stop-color="white"/>
</linearGradient>
<linearGradient id="paint21_linear_439_1903" x1="256.892" y1="243.404" x2="258.997" y2="247.776" gradientUnits="userSpaceOnUse">
<stop stop-color="#231F20"/>
<stop offset="1" stop-color="white"/>
</linearGradient>
<linearGradient id="paint22_linear_439_1903" x1="266.683" y1="229.904" x2="265.226" y2="224.885" gradientUnits="userSpaceOnUse">
<stop stop-color="#231F20"/>
<stop offset="1" stop-color="white"/>
</linearGradient>
<linearGradient id="paint23_linear_439_1903" x1="282.387" y1="252.883" x2="286.597" y2="253.854" gradientUnits="userSpaceOnUse">
<stop stop-color="#231F20"/>
<stop offset="1" stop-color="white"/>
</linearGradient>
<linearGradient id="paint24_linear_439_1903" x1="275.781" y1="238.663" x2="270.439" y2="237.692" gradientUnits="userSpaceOnUse">
<stop stop-color="#231F20"/>
<stop offset="1" stop-color="white"/>
</linearGradient>
<linearGradient id="paint25_linear_439_1903" x1="325.704" y1="272.369" x2="512.915" y2="229.524" gradientUnits="userSpaceOnUse">
<stop offset="0.001139" stop-color="#E6007A"/>
<stop offset="0.207149" stop-color="#703AC2"/>
<stop offset="0.456011" stop-color="#0070EB"/>
<stop offset="0.768132" stop-color="#0297FB"/>
<stop offset="1" stop-color="#0AE2FF"/>
</linearGradient>
<linearGradient id="paint26_linear_439_1903" x1="320.256" y1="248.563" x2="507.467" y2="205.718" gradientUnits="userSpaceOnUse">
<stop offset="0.001139" stop-color="#E6007A"/>
<stop offset="0.207149" stop-color="#703AC2"/>
<stop offset="0.456011" stop-color="#0070EB"/>
<stop offset="0.768132" stop-color="#0297FB"/>
<stop offset="1" stop-color="#0AE2FF"/>
</linearGradient>
<linearGradient id="paint27_linear_439_1903" x1="316.869" y1="257.651" x2="504.081" y2="214.806" gradientUnits="userSpaceOnUse">
<stop offset="0.001139" stop-color="#E6007A"/>
<stop offset="0.207149" stop-color="#703AC2"/>
<stop offset="0.456011" stop-color="#0070EB"/>
<stop offset="0.768132" stop-color="#0297FB"/>
<stop offset="1" stop-color="#0AE2FF"/>
</linearGradient>
<linearGradient id="paint28_linear_439_1903" x1="315.653" y1="252.337" x2="502.864" y2="209.493" gradientUnits="userSpaceOnUse">
<stop offset="0.001139" stop-color="#E6007A"/>
<stop offset="0.207149" stop-color="#703AC2"/>
<stop offset="0.456011" stop-color="#0070EB"/>
<stop offset="0.768132" stop-color="#0297FB"/>
<stop offset="1" stop-color="#0AE2FF"/>
</linearGradient>
<linearGradient id="paint29_linear_439_1903" x1="318.01" y1="262.635" x2="505.221" y2="219.79" gradientUnits="userSpaceOnUse">
<stop offset="0.001139" stop-color="#E6007A"/>
<stop offset="0.207149" stop-color="#703AC2"/>
<stop offset="0.456011" stop-color="#0070EB"/>
<stop offset="0.768132" stop-color="#0297FB"/>
<stop offset="1" stop-color="#0AE2FF"/>
</linearGradient>
<linearGradient id="paint30_linear_439_1903" x1="315.965" y1="253.701" x2="503.176" y2="210.857" gradientUnits="userSpaceOnUse">
<stop offset="0.001139" stop-color="#E6007A"/>
<stop offset="0.207149" stop-color="#703AC2"/>
<stop offset="0.456011" stop-color="#0070EB"/>
<stop offset="0.768132" stop-color="#0297FB"/>
<stop offset="1" stop-color="#0AE2FF"/>
</linearGradient>
<linearGradient id="paint31_linear_439_1903" x1="320.824" y1="274.931" x2="508.036" y2="232.086" gradientUnits="userSpaceOnUse">
<stop offset="0.001139" stop-color="#E6007A"/>
<stop offset="0.207149" stop-color="#703AC2"/>
<stop offset="0.456011" stop-color="#0070EB"/>
<stop offset="0.768132" stop-color="#0297FB"/>
<stop offset="1" stop-color="#0AE2FF"/>
</linearGradient>
<linearGradient id="paint32_linear_439_1903" x1="321.101" y1="276.142" x2="508.312" y2="233.298" gradientUnits="userSpaceOnUse">
<stop offset="0.001139" stop-color="#E6007A"/>
<stop offset="0.207149" stop-color="#703AC2"/>
<stop offset="0.456011" stop-color="#0070EB"/>
<stop offset="0.768132" stop-color="#0297FB"/>
<stop offset="1" stop-color="#0AE2FF"/>
</linearGradient>
<linearGradient id="paint33_linear_439_1903" x1="322.321" y1="281.472" x2="509.534" y2="238.627" gradientUnits="userSpaceOnUse">
<stop offset="0.001139" stop-color="#E6007A"/>
<stop offset="0.207149" stop-color="#703AC2"/>
<stop offset="0.456011" stop-color="#0070EB"/>
<stop offset="0.768132" stop-color="#0297FB"/>
<stop offset="1" stop-color="#0AE2FF"/>
</linearGradient>
<linearGradient id="paint34_linear_439_1903" x1="323.92" y1="288.462" x2="511.119" y2="245.62" gradientUnits="userSpaceOnUse">
<stop offset="0.001139" stop-color="#E6007A"/>
<stop offset="0.207149" stop-color="#703AC2"/>
<stop offset="0.456011" stop-color="#0070EB"/>
<stop offset="0.768132" stop-color="#0297FB"/>
<stop offset="1" stop-color="#0AE2FF"/>
</linearGradient>
<linearGradient id="paint35_linear_439_1903" x1="323.019" y1="284.525" x2="510.231" y2="241.68" gradientUnits="userSpaceOnUse">
<stop offset="0.001139" stop-color="#E6007A"/>
<stop offset="0.207149" stop-color="#703AC2"/>
<stop offset="0.456011" stop-color="#0070EB"/>
<stop offset="0.768132" stop-color="#0297FB"/>
<stop offset="1" stop-color="#0AE2FF"/>
</linearGradient>
<clipPath id="clip0_439_1903">
<rect width="521" height="287" fill="white"/>
</clipPath>
</defs>
</svg>
