<svg width="70" height="70" viewBox="0 0 70 70" fill="none" xmlns="http://www.w3.org/2000/svg">
<path d="M29.5881 49.2622H32.539V51.2294H29.5881V49.2622Z" fill="black"/>
<path d="M36.4734 49.2622H39.4242V51.2294H36.4734V49.2622Z" fill="black"/>
<path d="M14.834 34.5083H20.7357V36.4755H14.834V34.5083Z" fill="black"/>
<path d="M13.8504 44.3442H21.7193V46.3115H13.8504V44.3442Z" fill="black"/>
<path d="M13.8504 49.2622H21.7193V51.2294H13.8504V49.2622Z" fill="black"/>
<path d="M47.2931 37.459H55.1619C55.4228 37.459 55.673 37.3554 55.8574 37.1709C56.0419 36.9865 56.1455 36.7363 56.1455 36.4754V32.541C56.1455 32.2801 56.0419 32.0299 55.8574 31.8455C55.673 31.661 55.4228 31.5574 55.1619 31.5574H47.2931C47.0322 31.5574 46.782 31.661 46.5975 31.8455C46.4131 32.0299 46.3094 32.2801 46.3094 32.541V36.4754C46.3094 36.7363 46.4131 36.9865 46.5975 37.1709C46.782 37.3554 47.0322 37.459 47.2931 37.459ZM48.2767 33.5246H54.1783V35.4918H48.2767V33.5246Z" fill="black"/>
<path d="M47.2931 45.3279H55.1619C55.4228 45.3279 55.673 45.2243 55.8574 45.0398C56.0419 44.8554 56.1455 44.6052 56.1455 44.3443V40.4099C56.1455 40.149 56.0419 39.8988 55.8574 39.7144C55.673 39.5299 55.4228 39.4263 55.1619 39.4263H47.2931C47.0322 39.4263 46.782 39.5299 46.5975 39.7144C46.4131 39.8988 46.3094 40.149 46.3094 40.4099V44.3443C46.3094 44.6052 46.4131 44.8554 46.5975 45.0398C46.782 45.2243 47.0322 45.3279 47.2931 45.3279ZM48.2767 41.3935H54.1783V43.3607H48.2767V41.3935Z" fill="black"/>
<path d="M47.2931 53.1968H55.1619C55.4228 53.1968 55.673 53.0932 55.8574 52.9087C56.0419 52.7243 56.1455 52.4741 56.1455 52.2132V48.2788C56.1455 48.0179 56.0419 47.7677 55.8574 47.5833C55.673 47.3988 55.4228 47.2952 55.1619 47.2952H47.2931C47.0322 47.2952 46.782 47.3988 46.5975 47.5833C46.4131 47.7677 46.3094 48.0179 46.3094 48.2788V52.2132C46.3094 52.4741 46.4131 52.7243 46.5975 52.9087C46.782 53.0932 47.0322 53.1968 47.2931 53.1968ZM48.2767 49.2624H54.1783V51.2296H48.2767V49.2624Z" fill="black"/>
<path d="M34.5061 5C29.3301 5.00036 24.2452 6.36221 19.7619 8.94887C15.2785 11.5355 11.5544 15.256 8.96334 19.7368C6.37229 24.2176 5.00545 29.3012 5.00002 34.4772C4.99458 39.6532 6.35074 44.7396 8.93237 49.2259V64.0164C8.93237 64.2773 9.036 64.5274 9.22046 64.7119C9.40493 64.8964 9.65511 65 9.91598 65H59.0963C59.3572 65 59.6074 64.8964 59.7918 64.7119C59.9763 64.5274 60.0799 64.2773 60.0799 64.0164V49.2259C62.6615 44.7396 64.0177 39.6532 64.0123 34.4772C64.0068 29.3012 62.64 24.2176 60.0489 19.7368C57.4579 15.256 53.7338 11.5355 49.2504 8.94887C44.7671 6.36221 39.6822 5.00036 34.5061 5ZM58.2307 20.541L54.2304 22.5574L46.8307 17.9344C46.7122 17.8603 46.5792 17.8123 46.4406 17.7937C46.302 17.775 46.1611 17.7861 46.0271 17.8262L36.375 20.7239L27.8373 19.9479L30.2865 17.4987C30.3945 17.3907 30.476 17.259 30.5243 17.114C30.5726 16.9691 30.5865 16.8149 30.5648 16.6636L29.6334 10.1639L31.7757 7.10393C32.6737 7.01443 33.5845 6.96721 34.5061 6.96721C39.2998 6.97007 44.0098 8.22373 48.1706 10.6043C52.3314 12.9848 55.799 16.4099 58.2307 20.541ZM21.0838 10.4718L20.7652 16.2397L13.6832 20.6659L11.0963 20.0177C13.5671 16.0443 17.0028 12.7605 21.0838 10.4718ZM19.752 31.5574H15.8176V29.5902H19.752V31.5574ZM21.7193 33.5246V37.459H13.8504V33.5246H21.7193ZM25.6537 39.4262V44.3443C25.3928 44.3443 25.1426 44.4479 24.9582 44.6324C24.7737 44.8168 24.6701 45.067 24.6701 45.3279V63.0328H22.7029V60.082C22.7029 58.7776 22.1847 57.5267 21.2624 56.6044C20.3401 55.6821 19.0892 55.1639 17.7848 55.1639C16.4805 55.1639 15.2296 55.6821 14.3073 56.6044C13.3849 57.5267 12.8668 58.7776 12.8668 60.082V63.0328H10.8996V39.4262H25.6537ZM20.7357 63.0328H14.834V60.082C14.834 59.2994 15.1449 58.5488 15.6983 57.9954C16.2517 57.442 17.0022 57.1311 17.7848 57.1311C18.5674 57.1311 19.318 57.442 19.8714 57.9954C20.4248 58.5488 20.7357 59.2994 20.7357 60.082V63.0328ZM37.457 63.0328H31.5553V57.1311H37.457V63.0328ZM42.375 63.0328H39.4242V56.1475C39.4242 55.8867 39.3205 55.6365 39.1361 55.452C38.9516 55.2676 38.7014 55.1639 38.4406 55.1639H30.5717C30.3109 55.1639 30.0607 55.2676 29.8762 55.452C29.6917 55.6365 29.5881 55.8867 29.5881 56.1475V63.0328H26.6373V46.3115H42.375V63.0328ZM31.5553 42.377H37.457V44.3443H31.5553V42.377ZM33.1468 40.4098L34.5061 37.6911L35.8655 40.4098H33.1468ZM54.1783 63.0328H48.2766V58.1148C48.2766 57.8539 48.3803 57.6037 48.5647 57.4192C48.7492 57.2348 48.9994 57.1311 49.2602 57.1311H53.1947C53.4555 57.1311 53.7057 57.2348 53.8902 57.4192C54.0746 57.6037 54.1783 57.8539 54.1783 58.1148V63.0328ZM58.1127 63.0328H56.1455V58.1148C56.1455 57.3321 55.8346 56.5816 55.2812 56.0282C54.7278 55.4748 53.9773 55.1639 53.1947 55.1639H49.2602C48.4776 55.1639 47.7271 55.4748 47.1737 56.0282C46.6203 56.5816 46.3094 57.3321 46.3094 58.1148V63.0328H44.3422V45.3279C44.3422 45.067 44.2386 44.8168 44.0541 44.6324C43.8697 44.4479 43.6195 44.3443 43.3586 44.3443V29.5902H58.1127V63.0328ZM60.0799 44.7141V28.6066C60.0799 28.3457 59.9763 28.0955 59.7918 27.911C59.6074 27.7266 59.3572 27.623 59.0963 27.623H42.375C42.1141 27.623 41.8639 27.7266 41.6795 27.911C41.495 28.0955 41.3914 28.3457 41.3914 28.6066V44.3443H39.4242V41.3934C39.4242 41.1326 39.3205 40.8824 39.1361 40.6979C38.9516 40.5135 38.7014 40.4098 38.4406 40.4098H38.0648L35.3914 35.0521C35.3005 34.8997 35.1716 34.7735 35.0173 34.6858C34.863 34.5982 34.6885 34.5521 34.5111 34.5521C34.3336 34.5521 34.1592 34.5982 34.0048 34.6858C33.8505 34.7735 33.7216 34.8997 33.6307 35.0521L30.9475 40.4098H30.5717C30.3109 40.4098 30.0607 40.5135 29.8762 40.6979C29.6917 40.8824 29.5881 41.1326 29.5881 41.3934V44.3443H27.6209V38.4426C27.6209 38.1818 27.5173 37.9316 27.3328 37.7471C27.1483 37.5626 26.8982 37.459 26.6373 37.459H23.6865V32.541C23.6865 32.2801 23.5828 32.0299 23.3984 31.8455C23.2139 31.661 22.9637 31.5574 22.7029 31.5574H21.7193V28.6066C21.7193 28.3457 21.6156 28.0955 21.4312 27.911C21.2467 27.7266 20.9965 27.623 20.7357 27.623H14.834C14.5731 27.623 14.323 27.7266 14.1385 27.911C13.954 28.0955 13.8504 28.3457 13.8504 28.6066V31.5574H12.8668C12.6059 31.5574 12.3557 31.661 12.1713 31.8455C11.9868 32.0299 11.8832 32.2801 11.8832 32.541V37.459H9.91598C9.65511 37.459 9.40493 37.5626 9.22046 37.7471C9.036 37.9316 8.93237 38.1818 8.93237 38.4426V44.7141C7.4603 41.0368 6.80139 37.0845 7.00089 33.1285C7.20038 29.1726 8.25356 25.3066 10.0881 21.7961L13.6114 22.6813C13.7397 22.7135 13.8731 22.7194 14.0038 22.6988C14.1344 22.6782 14.2596 22.6314 14.3717 22.5613L22.2406 17.6433C22.3753 17.5593 22.4878 17.444 22.5683 17.3071C22.6488 17.1703 22.695 17.016 22.7029 16.8574L23.112 9.4459C25.0253 8.57019 27.0334 7.91864 29.0963 7.50426L27.7989 9.35443C27.6556 9.55899 27.5955 9.81043 27.6307 10.0577L28.5445 16.4511L24.9583 20.0384C24.827 20.1706 24.736 20.3375 24.6959 20.5195C24.6558 20.7015 24.6682 20.8911 24.7317 21.0663C24.7952 21.2415 24.9071 21.3951 25.0545 21.5091C25.2019 21.6232 25.3786 21.693 25.5642 21.7105L36.3839 22.6941C36.509 22.7066 36.6354 22.6938 36.7556 22.6567L46.1658 19.8338L53.657 24.5157C53.8002 24.6055 53.9642 24.6568 54.133 24.6647C54.3018 24.6726 54.4699 24.6369 54.6209 24.561L59.172 22.2682C60.8971 25.7342 61.8698 29.5257 62.0262 33.3941C62.1827 37.2624 61.5194 41.1201 60.0799 44.7141Z" fill="black"/>
</svg>
