<svg width="70" height="70" viewBox="0 0 70 70" fill="none" xmlns="http://www.w3.org/2000/svg">
<path d="M64.0005 5H64H6C5.44788 4.99988 5.00013 5.44737 5 5.9995V6V26H7V7H63V29H28V31H64C64.5521 31.0001 64.9999 30.5526 65 30.0005V30V6C65.0001 5.44788 64.5526 5.00013 64.0005 5Z" fill="black"/>
<path d="M58 10H38V12H58V10Z" fill="black"/>
<path d="M61 16H41V18H61V16Z" fill="black"/>
<path d="M57 22H37V24H57V22Z" fill="black"/>
<path d="M36.9202 13.6218C36.2356 11.9761 34.3466 11.1971 32.7011 11.8818C32.673 11.8935 32.645 11.9055 32.6173 11.918L24.5088 16.1243C24.8285 15.4615 24.9964 14.7358 25 14C25 11.2386 22.7614 9 20 9C17.2386 9 15 11.2386 15 14C15.0037 15.0854 15.3641 16.1395 16.0256 17H15.984C13.1455 17.019 10.6116 18.7836 9.6095 21.4395L6.94 30.6406C6.3045 32.2914 7.1275 34.1449 8.77837 34.7804C9.53113 35.0701 10.3655 35.0653 11.1149 34.7666C11.9759 34.4198 12.6459 33.7193 12.9542 32.8438L14 29.5156V43.9885C13.1395 43.3271 12.0854 42.9668 11 42.9629C8.24275 42.9588 6.00412 45.1906 6 47.948C5.998 49.2984 6.543 50.5919 7.51087 51.5336C5.97487 52.3184 5.006 53.8954 5 55.6201V64C4.99988 64.5521 5.44737 64.9999 5.9995 65H6H16C16.5521 65.0001 16.9999 64.5526 17 64.0005V64V55.6201C16.9951 54.2028 16.3366 52.867 15.2155 52H22.7846C21.6634 52.867 21.0049 54.2028 21.0001 55.6201V64C21 64.5521 21.4475 64.9999 21.9996 65H22.0001H32.0001C32.5522 65.0001 33 64.5526 33.0001 64.0005V64V55.6201C32.9941 53.8954 32.0252 52.3184 30.4893 51.5336C32.4636 49.6065 32.502 46.4436 30.5749 44.4693C29.3881 43.2534 27.6648 42.724 26.0001 43.064V22.6074L35.1803 17.8408C36.8258 17.1563 37.6048 15.2673 36.9202 13.6218ZM20 11C21.6569 11 23 12.3431 23 14C23 15.6569 21.6569 17 20 17C18.3439 16.9983 17.0017 15.6561 17 14C17 12.3431 18.3431 11 20 11ZM11 44.9629C12.6569 44.9629 14 46.306 14 47.9629C14 49.6198 12.6569 50.9629 11 50.9629C9.34312 50.9629 8 49.6198 8 47.9629C8.00175 46.3068 9.34387 44.9648 11 44.9629ZM15 63H7V55.6201C7.002 54.1738 8.17413 53.0018 9.62063 53H12.3794C13.8258 53.0018 14.998 54.1738 15 55.6201V63ZM31 55.6201V63H23V55.6201C23.002 54.1738 24.1741 53.0018 25.6206 53H28.3794C29.8259 53.0018 30.998 54.1738 31 55.6201ZM27 44.9629C28.6561 44.9646 29.9982 46.3068 30 47.9629C30 49.6198 28.6569 50.9629 27 50.9629C25.3431 50.9629 24 49.6198 24 47.9629C24 46.306 25.3431 44.9629 27 44.9629ZM35.0904 15.29C34.9565 15.6335 34.6816 15.9031 34.3355 16.0303L24.5396 21.1123C24.2081 21.2843 24 21.6266 24 22V43.9885C22.1269 45.3735 21.478 47.8801 22.444 50H21V33H19V50H15.556C15.8405 49.3713 15.9904 48.69 15.9963 48H16V23C15.9999 22.4476 15.552 22 14.9998 22.0001C14.5631 22.0003 14.177 22.2836 14.046 22.7003L11.06 32.2021C10.8337 32.8261 10.1444 33.1486 9.52037 32.9223C9.47662 32.9064 9.43375 32.888 9.392 32.8671C8.81513 32.569 8.57025 31.873 8.8335 31.2793L11.5029 22.0781C12.2227 20.2294 13.9999 19.0086 15.9839 19H23.0645C23.2248 19.0003 23.3827 18.9616 23.525 18.8878L33.464 13.7286C34.0603 13.4799 34.7475 13.7344 35.0378 14.3116C35.1916 14.6159 35.2108 14.9709 35.0904 15.29Z" fill="black"/>
<path d="M46.4891 51.5335C48.467 49.6065 48.5082 46.4408 46.5812 44.463C44.6542 42.4851 41.4886 42.4438 39.5107 44.3708C37.5329 46.2978 37.4916 49.4635 39.4186 51.4413C39.449 51.4725 39.4798 51.5032 39.5109 51.5335C37.975 52.3182 37.006 53.8952 37 55.62V63.9998C36.9999 64.552 37.4474 64.9997 37.9995 64.9998C37.9996 64.9998 37.9999 64.9998 38 64.9998H48C48.5521 65 48.9999 64.5525 49 64.0003C49 64.0002 49 64 49 63.9998V55.62C48.994 53.8952 48.0251 52.3182 46.4891 51.5335ZM43 44.9627C44.6569 44.9627 46 46.3058 46 47.9627C46 49.6196 44.6569 50.9627 43 50.9627C41.3431 50.9627 40 49.6196 40 47.9627C40.0017 46.3066 41.3439 44.9646 43 44.9627ZM47 62.9998H39V55.62C39.002 54.1736 40.1741 53.0016 41.6206 52.9998H44.3794C45.8258 53.0016 46.998 54.1736 47 55.62V62.9998Z" fill="black"/>
<path d="M62.4891 51.5335C64.467 49.6065 64.5082 46.4408 62.5812 44.463C60.6542 42.4851 57.4886 42.4438 55.5107 44.3708C53.5329 46.2978 53.4916 49.4635 55.4186 51.4413C55.449 51.4725 55.4798 51.5032 55.5109 51.5335C53.975 52.3182 53.006 53.8952 53 55.62V63.9998C52.9999 64.552 53.4474 64.9997 53.9995 64.9998C53.9996 64.9998 53.9999 64.9998 54 64.9998H64C64.5521 65 64.9999 64.5525 65 64.0003C65 64.0002 65 64 65 63.9998V55.62C64.994 53.8952 64.0251 52.3182 62.4891 51.5335ZM59 44.9627C60.6569 44.9627 62 46.3058 62 47.9627C62 49.6196 60.6569 50.9627 59 50.9627C57.3431 50.9627 56 49.6196 56 47.9627C56.0017 46.3066 57.3439 44.9646 59 44.9627ZM63 62.9998H55V55.62C55.002 54.1736 56.1741 53.0016 57.6206 52.9998H60.3794C61.8258 53.0016 62.998 54.1736 63 55.62V62.9998Z" fill="black"/>
</svg>
