<svg width="150" height="130" viewBox="0 0 150 130" fill="none" xmlns="http://www.w3.org/2000/svg">
<g clip-path="url(#clip0_353_9227)">
<path d="M108.634 19.8055L69.4973 59.7413L108.105 97.4364L118.987 108.848L118.319 36.2376L108.634 19.8055Z" fill="url(#paint0_linear_353_9227)" stroke="#220E6E" stroke-miterlimit="10" stroke-linejoin="round"/>
<path d="M69.4973 59.7418L33.0623 96.9242L41.7418 107.978L118.987 108.848L108.105 97.4369L69.4973 59.7418Z" fill="url(#paint1_linear_353_9227)" stroke="#220E6E" stroke-miterlimit="10" stroke-linejoin="round"/>
<path d="M79.6938 19.6045L79.69 20.0228C79.6579 24.9386 75.7764 28.8984 71.0234 28.864C66.2704 28.8295 62.4441 24.8178 62.4814 19.9046L62.4852 19.4863L33.5877 19.2891L33.0593 96.9239L108.103 97.4406L108.631 19.8057L79.6951 19.6084L79.6938 19.6045Z" fill="url(#paint2_linear_353_9227)" stroke="#220E6E" stroke-linejoin="round"/>
<path d="M50.7408 61.2432L55.7132 61.2783L58.9824 80.0091L59.043 80.0105L63.2532 61.3298L67.9068 61.3626L71.4632 80.3253L71.5367 80.3268L75.5372 61.4144L80.4141 61.4466L73.8874 88.8926L68.9499 88.859L65.4226 70.1274L65.3283 70.1284L61.2859 88.8097L56.258 88.7758L50.7421 61.2471L50.7408 61.2432ZM86.0152 61.4847L93.8573 61.5397L101.454 89.0821L96.3228 89.0479L94.6699 82.9214L85.7384 82.8607L84.3887 88.9682L79.3904 88.9331L86.0126 61.4899L86.0152 61.4847ZM88.9545 68.2784L86.7156 78.3465L93.4669 78.3919L91.047 68.2884L88.9532 68.2746L88.9545 68.2784Z" fill="white" stroke="#220E6E" stroke-linejoin="round"/>
</g>
<defs>
<linearGradient id="paint0_linear_353_9227" x1="86.9654" y1="26.9592" x2="114.49" y2="110.332" gradientUnits="userSpaceOnUse">
<stop stop-color="#654FF0"/>
<stop offset="0.53125" stop-color="#9B8BFF"/>
<stop offset="1" stop-color="#8B9EFF"/>
</linearGradient>
<linearGradient id="paint1_linear_353_9227" x1="41.0284" y1="102.07" x2="111.03" y2="105.283" gradientUnits="userSpaceOnUse">
<stop stop-color="#7767DE"/>
<stop offset="0.541667" stop-color="#654FF0"/>
<stop offset="1" stop-color="#524FF0"/>
</linearGradient>
<linearGradient id="paint2_linear_353_9227" x1="55.5511" y1="12.0381" x2="89.5462" y2="114.254" gradientUnits="userSpaceOnUse">
<stop stop-color="#8472F7"/>
<stop offset="0.526042" stop-color="#C0AAFF"/>
<stop offset="1" stop-color="#AAE0FF"/>
</linearGradient>
<clipPath id="clip0_353_9227">
<rect width="150" height="130" fill="white"/>
</clipPath>
</defs>
</svg>
