<svg width="150" height="130" fill="none" xmlns="http://www.w3.org/2000/svg"><path d="M75.5 11.1v56.1M123.677 91.847l-48.4-24.2M25.789 89.847l49.5-23.1" stroke="#3159A7" stroke-linejoin="round" stroke-dasharray="2 2"/><path d="M75.367 67.386V120l49.244-28.693V38.75L75.367 67.386Z" stroke="url(#a)" stroke-linejoin="round"/><path d="M75.417 67.386V120L26 91.249V38.693l49.417 28.693Z" stroke="url(#b)" stroke-linejoin="round"/><path d="m26 38.693 49.417 28.694 49.186-28.636L75.129 10 26 38.693Z" stroke="url(#c)" stroke-linejoin="round"/><path d="M43.072 83.745v18.194l17.03-9.922V73.842l-17.03 9.903Z" fill="url(#d)" fill-opacity=".9" stroke="#220E6E" stroke-linejoin="round"/><path d="M43.089 83.745v18.194L26 91.997V73.822l17.089 9.923Z" fill="url(#e)" fill-opacity=".9" stroke="#220E6E" stroke-linejoin="round"/><path d="m26 73.823 17.089 9.922 17.009-9.903L42.989 63.9 26 73.823Z" fill="url(#f)" fill-opacity=".9" stroke="#220E6E" stroke-linejoin="round"/><defs><linearGradient id="a" x1="79.015" y1="-15.803" x2="138.757" y2="-7.948" gradientUnits="userSpaceOnUse"><stop stop-color="#E6007A"/><stop offset=".21" stop-color="#703AC2"/><stop offset=".46" stop-color="#0070EB"/><stop offset=".77" stop-color="#0297FB"/><stop offset="1" stop-color="#0AE2FF"/></linearGradient><linearGradient id="b" x1="29.66" y1="-15.899" x2="89.607" y2="-7.996" gradientUnits="userSpaceOnUse"><stop stop-color="#E6007A"/><stop offset=".21" stop-color="#703AC2"/><stop offset=".46" stop-color="#0070EB"/><stop offset=".77" stop-color="#0297FB"/><stop offset="1" stop-color="#0AE2FF"/></linearGradient><linearGradient id="c" x1="33.304" y1="-28.531" x2="140.151" y2="11.295" gradientUnits="userSpaceOnUse"><stop stop-color="#E6007A"/><stop offset=".21" stop-color="#703AC2"/><stop offset=".46" stop-color="#0070EB"/><stop offset=".77" stop-color="#0297FB"/><stop offset="1" stop-color="#0AE2FF"/></linearGradient><linearGradient id="d" x1="43.593" y1="69.662" x2="62.572" y2="77.732" gradientUnits="userSpaceOnUse"><stop stop-color="#FF47A9"/><stop offset="1" stop-color="#703AC2"/></linearGradient><linearGradient id="e" x1="26.522" y1="69.639" x2="45.551" y2="77.753" gradientUnits="userSpaceOnUse"><stop stop-color="#703AC2"/><stop offset=".339" stop-color="#0070EB"/><stop offset=".661" stop-color="#0297FB"/><stop offset="1" stop-color="#0AE2FF"/></linearGradient><linearGradient id="f" x1="27.042" y1="60.948" x2="45.335" y2="82.998" gradientUnits="userSpaceOnUse"><stop stop-color="#0AE2FF"/><stop offset=".328" stop-color="#0297FB"/><stop offset=".646" stop-color="#0070EB"/><stop offset="1" stop-color="#703AC2"/></linearGradient></defs></svg>