<svg width="150" height="130" fill="none" xmlns="http://www.w3.org/2000/svg"><g clip-path="url(#a)"><path d="m55.234 31.194-.028.02a31.775 31.775 0 0 0-6.22 5.589 31.264 31.264 0 0 0-2.523 3.391 31.447 31.447 0 0 0-1.703 2.989 32.422 32.422 0 0 0-.924 2.017l-.069.16a32.044 32.044 0 0 0-2.334 10.27 31.687 31.687 0 0 0 5.508 19.8c9.715 14.19 28.884 18.051 43.292 8.911a33.017 33.017 0 0 0 2.065-1.422c.41-.306.811-.623 1.205-.948a29.827 29.827 0 0 0 2.041-1.84 32.084 32.084 0 0 0 4.291-5.236 31.811 31.811 0 0 0 4.825-12.632 31.667 31.667 0 0 0 .173-8.36 31.67 31.67 0 0 0-6.601-16.095l-.185-.234c-.153-.189-.305-.377-.458-.562a12.504 12.504 0 0 0-.22-.261l-.198-.23-.168-.192a5.371 5.371 0 0 1-.201-.225c-.065-.073-.129-.14-.193-.213a9.333 9.333 0 0 0-.197-.213c-.064-.069-.133-.14-.197-.21a9.712 9.712 0 0 0-.2-.208 22.32 22.32 0 0 0-.31-.317l-.217-.217a25.715 25.715 0 0 0-.052-.053c-.065-.064-.133-.128-.197-.193a19.48 19.48 0 0 0-.514-.482c-.105-.092-.205-.188-.314-.28-.1-.09-.2-.182-.301-.266a27.884 27.884 0 0 0-1.31-1.08 26.349 26.349 0 0 0-.667-.507c-.129-.092-.257-.189-.386-.281-.1-.069-.197-.14-.297-.21-.117-.08-.229-.16-.346-.236-.116-.08-.233-.157-.35-.233-.116-.077-.232-.153-.353-.23a18.999 18.999 0 0 0-.71-.441c-.121-.073-.242-.145-.362-.213-.12-.073-.241-.14-.362-.21l-.366-.204a33.35 33.35 0 0 0-.739-.398 32.116 32.116 0 0 0-1.052-.518c-.117-.052-.234-.109-.35-.16-.088-.041-.18-.085-.273-.125-.14-.065-.285-.129-.43-.19-.117-.051-.237-.1-.354-.148a24.697 24.697 0 0 0-.888-.354c-.124-.044-.245-.092-.37-.136l-.365-.133c-.12-.04-.241-.084-.362-.124a3.533 3.533 0 0 0-.188-.064c-.065-.02-.129-.045-.197-.065a31.906 31.906 0 0 0-12.684-1.438h-.008c-.077.004-.149.012-.225.02-.707.068-1.415.16-2.118.277a31.447 31.447 0 0 0-3.56.8 31.77 31.77 0 0 0-9.208 4.335l.004.008Z" fill="url(#b)"/><path d="M43.992 64.4c1.736 1.315 3.696 2.584 4.508 4.601.446 1.109.502 2.355 1.065 3.407.71 1.318 2.133 2.126 3.584 2.483 1.454.362 2.969.342 4.463.406 2.54.112 5.107.51 7.473 1.47 1.226.499 3.05 1.226 3.76 2.407.242.398.334.864.563 1.266.17.301.41.558.366.936-.06.506-.7.735-1.201.643-.86-.161-1.648-.446-2.523-.59-.547-.09-1.246.007-1.266.662-.024.856 1.173 1.089 1.74 1.342 1.772.8 3.133 1.482 5.138 1.599 1.933.112 3.902-.036 5.782.422.948.229 1.864.61 2.832.711 1.869.193 2.44-1.165 3.946-1.836 1.503-.671 3.234-.317 4.87-.1.37.048.755.084 1.136.1-14.407 9.14-33.58 5.283-43.291-8.911a31.653 31.653 0 0 1-5.19-13.135c.634.8 1.441 1.507 2.249 2.118h-.004Zm18.22 18c-.092-.353-.329-.65-.574-.92a8.605 8.605 0 0 0-5.199-2.712c-.49-.064-1.125.004-1.278.474-.08.245.017.51.125.748.743 1.623 2.178 2.828 3.849 3.41.856.302 3.552.768 3.078-1.004v.004Zm11.64.671c.129-.02.265-.056.342-.156.132-.177.008-.426-.125-.603a4.834 4.834 0 0 0-2.367-1.655c-.968-.302-.843 1.068-.401 1.53.643.675 1.631 1.025 2.551.884Zm-3.696-57.277c.405.514.92 1.298 1.51 1.623.724.398 1.776.398 2.568.66a12.978 12.978 0 0 1 4.785 2.832c.458.43.896.9 1.47 1.149.575.249 1.334.2 1.716-.298.35-.458.273-1.133.619-1.59.514-.68 1.579-.483 2.366-.153 2.95 1.221 5.617 3.407 7.397 6.063 1.253 1.868 1.969 4.053 3.17 5.958 1.924 2.905 4.665 4.982 7.236 7.276.442.394.864.792 1.274 1.205a31.67 31.67 0 0 0-6.035-12.708l-.185-.233c-.153-.189-.305-.378-.458-.562a12.467 12.467 0 0 0-.221-.261c-.064-.077-.133-.153-.197-.23l-.169-.192a5.435 5.435 0 0 1-.2-.225l-.193-.213a9.546 9.546 0 0 0-.197-.213c-.065-.069-.133-.14-.197-.21a9.714 9.714 0 0 0-.201-.208c-.1-.105-.205-.213-.31-.318l-.216-.216a25.715 25.715 0 0 1-.052-.053c-.065-.064-.133-.128-.197-.193a19.172 19.172 0 0 0-.515-.482c-.104-.092-.205-.189-.313-.28-.1-.09-.2-.182-.301-.266a27.893 27.893 0 0 0-1.31-1.08 36.677 36.677 0 0 0-.667-.507c-.129-.093-.257-.189-.386-.281-.1-.069-.197-.14-.297-.21-.117-.08-.23-.16-.346-.236a25.58 25.58 0 0 0-.703-.462c-.237-.153-.474-.298-.71-.442-.121-.073-.242-.145-.362-.213a17.03 17.03 0 0 0-.362-.21l-.366-.204c-.245-.137-.494-.27-.739-.398-.25-.128-.498-.253-.747-.373-.1-.049-.201-.097-.306-.145-.116-.052-.233-.109-.35-.16-.088-.041-.18-.085-.272-.125-.141-.065-.286-.129-.43-.19-.117-.051-.237-.1-.354-.148a23.718 23.718 0 0 0-.888-.354c-.124-.044-.245-.092-.37-.136l-.365-.133c-.12-.04-.241-.084-.362-.124a3.387 3.387 0 0 0-.189-.064c-.064-.02-.128-.045-.196-.065a31.836 31.836 0 0 0-12.684-1.442h-.008l-.185.036v.004Zm16.585 7.682c-.603-.25-3.138-.988-3.074-.1.016.205.117.393.225.566a9.949 9.949 0 0 0 4.283 3.87c.33.152.74.285 1.037.076.313-.217.317-.68.241-1.053-.325-1.434-1.326-2.788-2.712-3.359Zm-19.635 37.53c-.434-.655-1.024-1.213-1.735-1.539-.712-.325-1.551-.406-2.29-.144-.394.14-.784.41-.9.811-.145.498.164 1.005.47 1.422.514.707 1.1 1.423 1.912 1.744 1.458.575 3.616-.679 2.543-2.294ZM53.45 72.83c1.109.394 2.254.285 3.343.747.518.221 1.18.354 1.587-.036.309-.297.325-.807.148-1.197-.176-.39-.514-.683-.852-.948-1.554-1.218-3.37-2.05-5.166-2.869-.555-.253-1.218-.502-1.744-.193-.374.221-.558.683-.538 1.117.02.434.212.84.45 1.205.646 1.009 1.647 1.776 2.776 2.178l-.004-.004Zm24.102 9.257c-.032.277.129.538.302.763.655.864 1.567 1.591 2.64 1.768 1.65.27 2.611-1.1 3.929-1.78 1.14-.586 2.479-.803 3.74-.562 1.378.261 2.732.474 4.135.643.41-.306.811-.623 1.205-.949-.595-.036-1.185-.1-1.764-.237-1.495-.353-2.507-1.707-4.106-1.579-1.398.117-2.507 1.31-3.89 1.535-.955.157-1.916-.164-2.856-.398-.94-.233-1.997-.353-2.828.145-.245.149-.474.37-.507.655v-.004ZM43.835 45.196l-.068.16a31.844 31.844 0 0 0-1.539 4.806c.016.028.032.056.044.08.692 1.218 2.03 2.117 2.226 3.504.19 1.322-.739 2.507-1.169 3.768-1.286 3.781 2.101 6.393 4.93 8.108.257.157.526.305.828.342.297.036.63-.065.791-.318.209-.333.056-.763-.117-1.117-.988-2.037-3.125-4.03-2.768-6.508.185-1.282 1.15-2.403 1.081-3.693-.056-1.157-.92-2.081-1.579-3.037-1.233-1.796-1.924-3.885-2.623-5.975-.017-.04-.029-.084-.04-.124l.003.004Zm2.624-5.006a31.468 31.468 0 0 0-1.704 2.989 3.564 3.564 0 0 0 2.061 1.478c.25.065.527.097.752-.032.225-.128.345-.393.361-.655.017-.257-.06-.514-.14-.763-.237-.731-.643-2.145-1.33-3.017Zm19.277-13.677c1.053 1.326 2.704 1.844 4.022 2.873.775.607 1.02 1.406 1.68 2.077.658.671 1.562 1.08 2.442 1.366 1.294.422 2.672.66 3.817 1.398.88.57 1.555 1.403 2.198 2.23a78.441 78.441 0 0 1 3.29 4.572c.655.985 1.298 1.99 2.154 2.809.852.816 1.96 1.434 3.142 1.454 1.12.02 2.254-.498 3.335-.197.694.193 1.253.696 1.78 1.186 2.567 2.382 5.367 4.724 7.625 7.38 1.334 1.571 2.684 3.162 3.793 4.89.056-1.551 0-3.106-.177-4.657-1.153-1.655-2.599-3.121-4.026-4.56l-4.363-4.403c-2.76-2.789-5.717-5.69-9.522-6.658-.575-.144-1.165-.245-1.712-.474-1.173-.49-2.017-1.514-2.909-2.427-2.487-2.55-5.62-4.415-8.951-5.68-.997-.382-2.025-.712-2.925-1.29-.96-.615-1.712-1.463-2.427-2.35-.76.124-1.514.276-2.266.457v.004Zm30.97 38.623c.256-.064.513-.197.662-.418.31-.47.008-1.093-.31-1.559-.871-1.29-1.94-2.515-3.29-3.322-.607-.362-1.077-.458-1.744-.55-.618-.09-1.341-.52-1.948-.483-.169.012-.33.092-.47.185-.579.37-1.049 1.044-.892 1.715.056.23.177.438.321.627.398.518.964.904 1.591 1.085.474.137.977.16 1.439.321 1.546.539 2.784 2.881 4.64 2.403v-.004ZM73.86 34.605c-.63-.169-1.302-.277-1.936-.12-.635.156-1.222.642-1.33 1.29-.12.714.353 1.401.912 1.86.502.413 1.088.719 1.667 1.016 1.977 1.024 3.953 2.053 5.934 3.077.298.157.715.29.928.029.133-.165.105-.402.057-.607-.655-2.853-3.431-5.798-6.228-6.549l-.004.004Zm12.668 14.13c.482.109.996.069 1.454-.12.358-.149.64-.189 1.013-.273.39-.089.703-.261.852-.651.024-.064.04-.137.016-.197-.028-.068-.093-.108-.153-.149-.647-.393-1.31-.787-2.053-.944-.74-.153-1.583-.024-2.113.514-.253.258-.422.64-.306.98.17.487.836.736 1.294.84h-.004ZM58.32 29.323c1.423 1.45 3.6 2.04 5.22 3.326 1.659 1.326 2.82 3.444 4.873 3.982.124.032.265.056.37-.012.088-.056.128-.165.168-.265.37-1.02.744-2.093.587-3.162-.225-1.535-1.434-2.612-2.52-3.6-.935-.856-1.69-1.848-2.575-2.736a31.762 31.762 0 0 0-6.119 2.467h-.004Zm-1.864 4.54c.767 1.322 1.969 2.322 2.933 3.507 2.318 2.845 3.299 6.786 6.236 8.996 1.731 1.302 3.95 1.832 5.685 3.126 2.467 1.836 3.64 4.942 5.817 7.107 2.086 2.073 5.063 3.263 6.63 5.754.78 1.241 1.133 2.704 1.808 4.005.972 1.873 2.567 3.303 4.351 4.388a23.32 23.32 0 0 0 2.88 1.458c1.82.78 3.428 1.913 5.413 2.31.546.113 1.12.173 1.63.39a31.919 31.919 0 0 1-2.157 2.917c-1.683-.679-3.218-1.744-4.66-2.824-1.503-1.125-3.102-1.724-5.018-1.52-1.575.17-2.78.82-4.3-.043-1.225-.695-2.748-.876-3.856-1.776-1.05-.848-1.567-2.174-2.134-3.403A27.862 27.862 0 0 0 67.18 56.325c-1.182-.731-2.516-1.394-3.89-1.225-.53.064-1.04.253-1.575.317-2.129.253-3.977-1.523-4.994-3.411a12.127 12.127 0 0 1-1.205-3.242c-.257-1.19-.325-2.407-.49-3.612-.514-3.709-2.001-7.273-4.247-10.266a32.02 32.02 0 0 1 4.432-3.664c.466.856.763 1.804 1.253 2.648l-.008-.008Zm6.91 17.003c.583-.193 1.21-.06 1.78-.23 1.467-.433.258-1.976-.393-2.675l-5.432-5.846c-.422-.454-1.045-.952-1.595-.659-.414.217-.507.76-.523 1.226-.108 2.96 1.053 5.946 3.13 8.06.358.365.784.718 1.294.75.647.037 1.157-.43 1.74-.622v-.004ZM83.43 70.576c.599.25 3.042.57 2.206-.767-.755-1.206-2.081-1.997-2.728-3.263-.253-.494-.39-1.04-.607-1.555-.217-.51-.542-1.012-1.04-1.261-.193-.097-.41-.153-.619-.113a.986.986 0 0 0-.382.169c-.582.402-.815 1.177-.735 1.88.08.704.418 1.35.784 1.957.767 1.278 1.72 2.37 3.121 2.957v-.004ZM59.517 33.078c.8.016 1.546.394 2.213.828 1.515.98 2.78 2.282 3.938 3.652 1.165 1.378 1.619 2.338 3.535 2.39 5.457.145 10.125 3.854 13.974 7.727 1.165 1.169 2.507 2.463 4.159 2.407.868-.029 1.68-.443 2.535-.587 1.51-.257 3.041.33 4.375 1.085 1.808 1.024 3.415 2.37 4.834 3.889a38.263 38.263 0 0 1 5.588 7.794 31.958 31.958 0 0 1-3.704 10.784h-.169c-2.45-.048-4.873-.82-6.93-2.138-1.977-1.265-4.71-3.37-5.212-5.785-.1-.49.008-1.157.503-1.245.188-.037.377.032.558.1 1.587.599 3.447 1.17 4.842 2.133 1.06.732 2.217 1.788 3.624 1.282 1.084-.39 1.63-1.683 1.506-2.829-.128-1.145-.783-2.161-1.49-3.073-1.198-1.547-2.64-2.97-4.436-3.753-.711-.31-1.466-.518-2.154-.888-1.783-.96-3.037-2.989-5.042-3.258-.373-.052-.86.048-.94.418-.028.116 0 .24.028.357a7.485 7.485 0 0 0 1.56 3.078c.144.173.3.346.36.563.258.956-.935 1.53-1.675 1.301-1.217-.377-2.153-1.555-3.174-2.258-1.438-.996-2.937-1.916-4.403-2.872-.498-.326-1.005-.66-1.374-1.13-.366-.47-.57-1.108-.382-1.67.08-.234.221-.447.237-.688.024-.285-.129-.55-.273-.795-.39-.663-.82-1.358-1.503-1.708-.281-.145-.594-.22-.896-.31-1.398-.41-2.836-1.012-4.19-1.538-1.615-.623-3.239-1.627-4.363-2.957-1.105-1.302-1.439-3.062-2.52-4.456-1.149-1.474-2.559-2.724-3.937-3.977-.402-.37-.844-.904-.61-1.399.172-.357.622-.482 1.016-.47l-.008-.004Zm35.107 22.6c.321.044 1.728.21 1.908-.052.04-.056.04-.133.028-.205-.064-.514-.434-.928-.795-1.298-1.282-1.297-2.853-2.515-4.677-2.555-.31-.008-.675.052-.827.321-.205.358.092.784.373 1.09.623.674 1.254 1.353 2.01 1.88.59.41 1.26.719 1.976.82h.004Zm-44.509-17.44c.771 1.224 1.193 2.747.792 4.141-.346 1.214-1.286 2.275-1.274 3.536.016 1.655 1.599 2.8 2.395 4.25.767 1.403.779 3.078.96 4.67.104.907.245 2.225.896 2.916.627.667 1.526 1.222 2.197 1.889.708.703 1.495 1.382 2.46 1.635.964.249 2.14-.064 2.595-.948.325-.627.237-1.427.627-2.017.41-.627 1.261-.844 2-.707.736.136 1.387.558 2.001.984 4.424 3.074 8.33 7.031 10.732 11.852.237.479.466.989.45 1.523-.016.535-.35 1.097-.876 1.197-.205.04-.458.025-.575.201-.136.205.04.47.217.647 1.258 1.25 3.544 3.142 5.46 2.234.519-.245 1.005-.619 1.58-.667 1.458-.124 2.374 1.479 3.905 1.053.9-.253 1.695-.832 2.62-.98 1.438-.23 2.72.614 3.933 1.253.622.325 1.281.695 1.976.824.185.036 2.23.413 2.041.626a32.12 32.12 0 0 1-1.683 1.792 6.813 6.813 0 0 0-.37-.068c-.86-.132-1.764-.2-2.607-.37-.972-.192-1.768-.883-2.724-1.16-.997-.294-2.138-.282-3.018.273-.767.482-1.35 1.366-2.25 1.462-.779.08-1.478-.466-2.246-.607-.787-.144-1.578.14-2.37.278-3.214.558-6.348-1.375-8.658-3.416-1.037-.916-2.829-2.334-2.439-3.929.145-.583.579-1.073.687-1.663.213-1.165-.76-2.126-1.671-2.628-1.591-.876-3.275-2.551-5.075-2.94-.478-.101-1.02-.03-1.374.308-.74.708-.261 2.03-.8 2.897-.887 1.435-2.446.515-3.49-.152-2.142-1.367-4.195-2.652-5.923-4.553-1.217-1.338-2.88-3.186-2.648-5.15.109-.892.764-1.615 1.073-2.46.65-1.763-.285-3.688-1.278-5.287-.654-1.056-1.378-2.221-1.185-3.45.233-1.487 1.724-2.492 2.126-3.942.43-1.551-.483-3.138-1.45-4.424-.117-.157-.234-.31-.355-.462.47-.647.969-1.273 1.491-1.884.406.45.8.912 1.13 1.434l-.005-.012ZM64.977 59.88c-.378-.133-.896-.358-1.254-.12-.301.196-.542.883-.518 1.225.024.325.221.61.426.867a12.001 12.001 0 0 0 3.56 3.03c.353.197.795.378 1.149.173.265-.153.385-.49.365-.796-.02-.305-.156-.595-.293-.868-.342-.687-.711-1.366-1.205-1.956-.575-.68-1.378-1.262-2.226-1.555h-.004Z" fill="#302A46" style="mix-blend-mode:screen"/><path opacity=".8" d="M43.992 64.4c1.736 1.315 3.696 2.584 4.508 4.601.446 1.109.502 2.355 1.065 3.407.71 1.318 2.133 2.126 3.584 2.483 1.454.362 2.969.342 4.463.406 2.54.112 5.107.51 7.473 1.47 1.226.499 3.05 1.226 3.76 2.407.242.398.334.864.563 1.266.17.301.41.558.366.936-.06.506-.7.735-1.201.643-.86-.161-1.648-.446-2.523-.59-.547-.09-1.246.007-1.266.662-.024.856 1.173 1.089 1.74 1.342 1.772.8 3.133 1.482 5.138 1.599 1.933.112 3.902-.036 5.782.422.948.229 1.864.61 2.832.711 1.869.193 2.44-1.165 3.946-1.836 1.503-.671 3.234-.317 4.87-.1.37.048.755.084 1.136.1-14.407 9.14-33.58 5.283-43.291-8.911a31.653 31.653 0 0 1-5.19-13.135c.634.8 1.441 1.507 2.249 2.118h-.004Zm18.22 18c-.092-.353-.329-.65-.574-.92a8.605 8.605 0 0 0-5.199-2.712c-.49-.064-1.125.004-1.278.474-.08.245.017.51.125.748.743 1.623 2.178 2.828 3.849 3.41.856.302 3.552.768 3.078-1.004v.004Zm11.64.671c.129-.02.265-.056.342-.156.132-.177.008-.426-.125-.603a4.834 4.834 0 0 0-2.367-1.655c-.968-.302-.843 1.068-.401 1.53.643.675 1.631 1.025 2.551.884Zm-3.696-57.277c.405.514.92 1.298 1.51 1.623.724.398 1.776.398 2.568.66a12.978 12.978 0 0 1 4.785 2.832c.458.43.896.9 1.47 1.149.575.249 1.334.2 1.716-.298.35-.458.273-1.133.619-1.59.514-.68 1.579-.483 2.366-.153 2.95 1.221 5.617 3.407 7.397 6.063 1.253 1.868 1.969 4.053 3.17 5.958 1.924 2.905 4.665 4.982 7.236 7.276.442.394.864.792 1.274 1.205a31.67 31.67 0 0 0-6.035-12.708l-.185-.233c-.153-.189-.305-.378-.458-.562a12.467 12.467 0 0 0-.221-.261c-.064-.077-.133-.153-.197-.23l-.169-.192a5.435 5.435 0 0 1-.2-.225l-.193-.213a9.546 9.546 0 0 0-.197-.213c-.065-.069-.133-.14-.197-.21a9.714 9.714 0 0 0-.201-.208c-.1-.105-.205-.213-.31-.318l-.216-.216a25.715 25.715 0 0 1-.052-.053c-.065-.064-.133-.128-.197-.193a19.172 19.172 0 0 0-.515-.482c-.104-.092-.205-.189-.313-.28-.1-.09-.2-.182-.301-.266a27.893 27.893 0 0 0-1.31-1.08 36.677 36.677 0 0 0-.667-.507c-.129-.093-.257-.189-.386-.281-.1-.069-.197-.14-.297-.21-.117-.08-.23-.16-.346-.236a25.58 25.58 0 0 0-.703-.462c-.237-.153-.474-.298-.71-.442-.121-.073-.242-.145-.362-.213a17.03 17.03 0 0 0-.362-.21l-.366-.204c-.245-.137-.494-.27-.739-.398-.25-.128-.498-.253-.747-.373-.1-.049-.201-.097-.306-.145-.116-.052-.233-.109-.35-.16-.088-.041-.18-.085-.272-.125-.141-.065-.286-.129-.43-.19-.117-.051-.237-.1-.354-.148a23.718 23.718 0 0 0-.888-.354c-.124-.044-.245-.092-.37-.136l-.365-.133c-.12-.04-.241-.084-.362-.124a3.387 3.387 0 0 0-.189-.064c-.064-.02-.128-.045-.196-.065a31.836 31.836 0 0 0-12.684-1.442h-.008l-.185.036v.004Zm16.585 7.682c-.603-.25-3.138-.988-3.074-.1.016.205.117.393.225.566a9.949 9.949 0 0 0 4.283 3.87c.33.152.74.285 1.037.076.313-.217.317-.68.241-1.053-.325-1.434-1.326-2.788-2.712-3.359Zm-19.635 37.53c-.434-.655-1.024-1.213-1.735-1.539-.712-.325-1.551-.406-2.29-.144-.394.14-.784.41-.9.811-.145.498.164 1.005.47 1.422.514.707 1.1 1.423 1.912 1.744 1.458.575 3.616-.679 2.543-2.294ZM53.45 72.83c1.109.394 2.254.285 3.343.747.518.221 1.18.354 1.587-.036.309-.297.325-.807.148-1.197-.176-.39-.514-.683-.852-.948-1.554-1.218-3.37-2.05-5.166-2.869-.555-.253-1.218-.502-1.744-.193-.374.221-.558.683-.538 1.117.02.434.212.84.45 1.205.646 1.009 1.647 1.776 2.776 2.178l-.004-.004Zm24.102 9.257c-.032.277.129.538.302.763.655.864 1.567 1.591 2.64 1.768 1.65.27 2.611-1.1 3.929-1.78 1.14-.586 2.479-.803 3.74-.562 1.378.261 2.732.474 4.135.643.41-.306.811-.623 1.205-.949-.595-.036-1.185-.1-1.764-.237-1.495-.353-2.507-1.707-4.106-1.579-1.398.117-2.507 1.31-3.89 1.535-.955.157-1.916-.164-2.856-.398-.94-.233-1.997-.353-2.828.145-.245.149-.474.37-.507.655v-.004ZM43.835 45.196l-.068.16a31.844 31.844 0 0 0-1.539 4.806c.016.028.032.056.044.08.692 1.218 2.03 2.117 2.226 3.504.19 1.322-.739 2.507-1.169 3.768-1.286 3.781 2.101 6.393 4.93 8.108.257.157.526.305.828.342.297.036.63-.065.791-.318.209-.333.056-.763-.117-1.117-.988-2.037-3.125-4.03-2.768-6.508.185-1.282 1.15-2.403 1.081-3.693-.056-1.157-.92-2.081-1.579-3.037-1.233-1.796-1.924-3.885-2.623-5.975-.017-.04-.029-.084-.04-.124l.003.004Zm2.624-5.006a31.468 31.468 0 0 0-1.704 2.989 3.564 3.564 0 0 0 2.061 1.478c.25.065.527.097.752-.032.225-.128.345-.393.361-.655.017-.257-.06-.514-.14-.763-.237-.731-.643-2.145-1.33-3.017Zm19.277-13.677c1.053 1.326 2.704 1.844 4.022 2.873.775.607 1.02 1.406 1.68 2.077.658.671 1.562 1.08 2.442 1.366 1.294.422 2.672.66 3.817 1.398.88.57 1.555 1.403 2.198 2.23a78.441 78.441 0 0 1 3.29 4.572c.655.985 1.298 1.99 2.154 2.809.852.816 1.96 1.434 3.142 1.454 1.12.02 2.254-.498 3.335-.197.694.193 1.253.696 1.78 1.186 2.567 2.382 5.367 4.724 7.625 7.38 1.334 1.571 2.684 3.162 3.793 4.89.056-1.551 0-3.106-.177-4.657-1.153-1.655-2.599-3.121-4.026-4.56l-4.363-4.403c-2.76-2.789-5.717-5.69-9.522-6.658-.575-.144-1.165-.245-1.712-.474-1.173-.49-2.017-1.514-2.909-2.427-2.487-2.55-5.62-4.415-8.951-5.68-.997-.382-2.025-.712-2.925-1.29-.96-.615-1.712-1.463-2.427-2.35-.76.124-1.514.276-2.266.457v.004Zm30.97 38.623c.256-.064.513-.197.662-.418.31-.47.008-1.093-.31-1.559-.871-1.29-1.94-2.515-3.29-3.322-.607-.362-1.077-.458-1.744-.55-.618-.09-1.341-.52-1.948-.483-.169.012-.33.092-.47.185-.579.37-1.049 1.044-.892 1.715.056.23.177.438.321.627.398.518.964.904 1.591 1.085.474.137.977.16 1.439.321 1.546.539 2.784 2.881 4.64 2.403v-.004ZM73.86 34.605c-.63-.169-1.302-.277-1.936-.12-.635.156-1.222.642-1.33 1.29-.12.714.353 1.401.912 1.86.502.413 1.088.719 1.667 1.016 1.977 1.024 3.953 2.053 5.934 3.077.298.157.715.29.928.029.133-.165.105-.402.057-.607-.655-2.853-3.431-5.798-6.228-6.549l-.004.004Zm12.668 14.13c.482.109.996.069 1.454-.12.358-.149.64-.189 1.013-.273.39-.089.703-.261.852-.651.024-.064.04-.137.016-.197-.028-.068-.093-.108-.153-.149-.647-.393-1.31-.787-2.053-.944-.74-.153-1.583-.024-2.113.514-.253.258-.422.64-.306.98.17.487.836.736 1.294.84h-.004ZM58.32 29.323c1.423 1.45 3.6 2.04 5.22 3.326 1.659 1.326 2.82 3.444 4.873 3.982.124.032.265.056.37-.012.088-.056.128-.165.168-.265.37-1.02.744-2.093.587-3.162-.225-1.535-1.434-2.612-2.52-3.6-.935-.856-1.69-1.848-2.575-2.736a31.762 31.762 0 0 0-6.119 2.467h-.004Zm-1.864 4.54c.767 1.322 1.969 2.322 2.933 3.507 2.318 2.845 3.299 6.786 6.236 8.996 1.731 1.302 3.95 1.832 5.685 3.126 2.467 1.836 3.64 4.942 5.817 7.107 2.086 2.073 5.063 3.263 6.63 5.754.78 1.241 1.133 2.704 1.808 4.005.972 1.873 2.567 3.303 4.351 4.388a23.32 23.32 0 0 0 2.88 1.458c1.82.78 3.428 1.913 5.413 2.31.546.113 1.12.173 1.63.39a31.919 31.919 0 0 1-2.157 2.917c-1.683-.679-3.218-1.744-4.66-2.824-1.503-1.125-3.102-1.724-5.018-1.52-1.575.17-2.78.82-4.3-.043-1.225-.695-2.748-.876-3.856-1.776-1.05-.848-1.567-2.174-2.134-3.403A27.862 27.862 0 0 0 67.18 56.325c-1.182-.731-2.516-1.394-3.89-1.225-.53.064-1.04.253-1.575.317-2.129.253-3.977-1.523-4.994-3.411a12.127 12.127 0 0 1-1.205-3.242c-.257-1.19-.325-2.407-.49-3.612-.514-3.709-2.001-7.273-4.247-10.266a32.02 32.02 0 0 1 4.432-3.664c.466.856.763 1.804 1.253 2.648l-.008-.008Zm6.91 17.003c.583-.193 1.21-.06 1.78-.23 1.467-.433.258-1.976-.393-2.675l-5.432-5.846c-.422-.454-1.045-.952-1.595-.659-.414.217-.507.76-.523 1.226-.108 2.96 1.053 5.946 3.13 8.06.358.365.784.718 1.294.75.647.037 1.157-.43 1.74-.622v-.004ZM83.43 70.576c.599.25 3.042.57 2.206-.767-.755-1.206-2.081-1.997-2.728-3.263-.253-.494-.39-1.04-.607-1.555-.217-.51-.542-1.012-1.04-1.261-.193-.097-.41-.153-.619-.113a.986.986 0 0 0-.382.169c-.582.402-.815 1.177-.735 1.88.08.704.418 1.35.784 1.957.767 1.278 1.72 2.37 3.121 2.957v-.004ZM59.517 33.078c.8.016 1.546.394 2.213.828 1.515.98 2.78 2.282 3.938 3.652 1.165 1.378 1.619 2.338 3.535 2.39 5.457.145 10.125 3.854 13.974 7.727 1.165 1.169 2.507 2.463 4.159 2.407.868-.029 1.68-.443 2.535-.587 1.51-.257 3.041.33 4.375 1.085 1.808 1.024 3.415 2.37 4.834 3.889a38.263 38.263 0 0 1 5.588 7.794 31.958 31.958 0 0 1-3.704 10.784h-.169c-2.45-.048-4.873-.82-6.93-2.138-1.977-1.265-4.71-3.37-5.212-5.785-.1-.49.008-1.157.503-1.245.188-.037.377.032.558.1 1.587.599 3.447 1.17 4.842 2.133 1.06.732 2.217 1.788 3.624 1.282 1.084-.39 1.63-1.683 1.506-2.829-.128-1.145-.783-2.161-1.49-3.073-1.198-1.547-2.64-2.97-4.436-3.753-.711-.31-1.466-.518-2.154-.888-1.783-.96-3.037-2.989-5.042-3.258-.373-.052-.86.048-.94.418-.028.116 0 .24.028.357a7.485 7.485 0 0 0 1.56 3.078c.144.173.3.346.36.563.258.956-.935 1.53-1.675 1.301-1.217-.377-2.153-1.555-3.174-2.258-1.438-.996-2.937-1.916-4.403-2.872-.498-.326-1.005-.66-1.374-1.13-.366-.47-.57-1.108-.382-1.67.08-.234.221-.447.237-.688.024-.285-.129-.55-.273-.795-.39-.663-.82-1.358-1.503-1.708-.281-.145-.594-.22-.896-.31-1.398-.41-2.836-1.012-4.19-1.538-1.615-.623-3.239-1.627-4.363-2.957-1.105-1.302-1.439-3.062-2.52-4.456-1.149-1.474-2.559-2.724-3.937-3.977-.402-.37-.844-.904-.61-1.399.172-.357.622-.482 1.016-.47l-.008-.004Zm35.107 22.6c.321.044 1.728.21 1.908-.052.04-.056.04-.133.028-.205-.064-.514-.434-.928-.795-1.298-1.282-1.297-2.853-2.515-4.677-2.555-.31-.008-.675.052-.827.321-.205.358.092.784.373 1.09.623.674 1.254 1.353 2.01 1.88.59.41 1.26.719 1.976.82h.004Zm-44.509-17.44c.771 1.224 1.193 2.747.792 4.141-.346 1.214-1.286 2.275-1.274 3.536.016 1.655 1.599 2.8 2.395 4.25.767 1.403.779 3.078.96 4.67.104.907.245 2.225.896 2.916.627.667 1.526 1.222 2.197 1.889.708.703 1.495 1.382 2.46 1.635.964.249 2.14-.064 2.595-.948.325-.627.237-1.427.627-2.017.41-.627 1.261-.844 2-.707.736.136 1.387.558 2.001.984 4.424 3.074 8.33 7.031 10.732 11.852.237.479.466.989.45 1.523-.016.535-.35 1.097-.876 1.197-.205.04-.458.025-.575.201-.136.205.04.47.217.647 1.258 1.25 3.544 3.142 5.46 2.234.519-.245 1.005-.619 1.58-.667 1.458-.124 2.374 1.479 3.905 1.053.9-.253 1.695-.832 2.62-.98 1.438-.23 2.72.614 3.933 1.253.622.325 1.281.695 1.976.824.185.036 2.23.413 2.041.626a32.12 32.12 0 0 1-1.683 1.792 6.813 6.813 0 0 0-.37-.068c-.86-.132-1.764-.2-2.607-.37-.972-.192-1.768-.883-2.724-1.16-.997-.294-2.138-.282-3.018.273-.767.482-1.35 1.366-2.25 1.462-.779.08-1.478-.466-2.246-.607-.787-.144-1.578.14-2.37.278-3.214.558-6.348-1.375-8.658-3.416-1.037-.916-2.829-2.334-2.439-3.929.145-.583.579-1.073.687-1.663.213-1.165-.76-2.126-1.671-2.628-1.591-.876-3.275-2.551-5.075-2.94-.478-.101-1.02-.03-1.374.308-.74.708-.261 2.03-.8 2.897-.887 1.435-2.446.515-3.49-.152-2.142-1.367-4.195-2.652-5.923-4.553-1.217-1.338-2.88-3.186-2.648-5.15.109-.892.764-1.615 1.073-2.46.65-1.763-.285-3.688-1.278-5.287-.654-1.056-1.378-2.221-1.185-3.45.233-1.487 1.724-2.492 2.126-3.942.43-1.551-.483-3.138-1.45-4.424-.117-.157-.234-.31-.355-.462.47-.647.969-1.273 1.491-1.884.406.45.8.912 1.13 1.434l-.005-.012ZM64.977 59.88c-.378-.133-.896-.358-1.254-.12-.301.196-.542.883-.518 1.225.024.325.221.61.426.867a12.001 12.001 0 0 0 3.56 3.03c.353.197.795.378 1.149.173.265-.153.385-.49.365-.796-.02-.305-.156-.595-.293-.868-.342-.687-.711-1.366-1.205-1.956-.575-.68-1.378-1.262-2.226-1.555h-.004Z" stroke="#29256A" stroke-width=".5"/><path style="mix-blend-mode:screen" d="M86.73 53.756c1.302-11.41-6.892-21.714-18.3-23.016-11.41-1.301-21.714 6.892-23.016 18.301-1.302 11.409 6.892 21.713 18.3 23.015 11.41 1.302 21.714-6.891 23.016-18.3Z" fill="url(#c)"/><path d="m55.234 31.194-.028.02a31.775 31.775 0 0 0-6.22 5.589 31.264 31.264 0 0 0-2.523 3.391 31.447 31.447 0 0 0-1.703 2.989 32.422 32.422 0 0 0-.924 2.017l-.069.16a32.044 32.044 0 0 0-2.334 10.27 31.687 31.687 0 0 0 5.508 19.8c9.715 14.19 28.884 18.051 43.292 8.911a33.017 33.017 0 0 0 2.065-1.422c.41-.306.811-.623 1.205-.948a29.827 29.827 0 0 0 2.041-1.84 32.084 32.084 0 0 0 4.291-5.236 31.811 31.811 0 0 0 4.825-12.632 31.667 31.667 0 0 0 .173-8.36 31.67 31.67 0 0 0-6.601-16.095l-.185-.234c-.153-.189-.305-.377-.458-.562a12.504 12.504 0 0 0-.22-.261l-.198-.23-.168-.192a5.371 5.371 0 0 1-.201-.225c-.065-.073-.129-.14-.193-.213a9.333 9.333 0 0 0-.197-.213c-.064-.069-.133-.14-.197-.21a9.712 9.712 0 0 0-.2-.208 22.32 22.32 0 0 0-.31-.317l-.217-.217a25.715 25.715 0 0 0-.052-.053c-.065-.064-.133-.128-.197-.193a19.48 19.48 0 0 0-.514-.482c-.105-.092-.205-.188-.314-.28-.1-.09-.2-.182-.301-.266a27.884 27.884 0 0 0-1.31-1.08 26.349 26.349 0 0 0-.667-.507c-.129-.092-.257-.189-.386-.281-.1-.069-.197-.14-.297-.21-.117-.08-.229-.16-.346-.236-.116-.08-.233-.157-.35-.233-.116-.077-.232-.153-.353-.23a18.999 18.999 0 0 0-.71-.441c-.121-.073-.242-.145-.362-.213-.12-.073-.241-.14-.362-.21l-.366-.204a33.35 33.35 0 0 0-.739-.398 32.116 32.116 0 0 0-1.052-.518c-.117-.052-.234-.109-.35-.16-.088-.041-.18-.085-.273-.125-.14-.065-.285-.129-.43-.19-.117-.051-.237-.1-.354-.148a24.697 24.697 0 0 0-.888-.354c-.124-.044-.245-.092-.37-.136l-.365-.133c-.12-.04-.241-.084-.362-.124a3.533 3.533 0 0 0-.188-.064c-.065-.02-.129-.045-.197-.065a31.906 31.906 0 0 0-12.684-1.438h-.008c-.077.004-.149.012-.225.02-.707.068-1.415.16-2.118.277a31.447 31.447 0 0 0-3.56.8 31.77 31.77 0 0 0-9.208 4.335l.004.008Z" stroke="#29256A"/><mask id="d" style="mask-type:alpha" maskUnits="userSpaceOnUse" x="-10" y="23" width="170" height="83"><path d="M-10 80.027C-5.295 87.932 4.454 104.193 5.81 106L147.53 74.381l11.857-32.748L145.272 23 97.279 35.422l6.775 11.292L42.51 69.3l-1.694-10.163-28.796 6.776L-10 80.027Z" fill="#D9D9D9"/></mask><g mask="url(#d)"><path d="M145.628 36.563c.354.898.292 1.987-.243 3.285-.535 1.301-1.53 2.77-2.968 4.38-2.876 3.217-7.451 6.912-13.396 10.849-11.883 7.87-29.15 16.648-48.981 24.46-19.832 7.813-38.446 13.17-52.504 15.519-7.033 1.175-12.899 1.594-17.196 1.202-2.15-.196-3.879-.592-5.158-1.178-1.276-.585-2.065-1.34-2.418-2.237-.354-.897-.292-1.987.243-3.285.536-1.3 1.53-2.77 2.968-4.38 2.876-3.217 7.451-6.911 13.396-10.849 11.883-7.87 29.15-16.647 48.981-24.46 19.832-7.812 38.446-13.169 52.504-15.518 7.033-1.176 12.899-1.594 17.196-1.203 2.15.196 3.879.592 5.158 1.179 1.276.584 2.065 1.339 2.418 2.236Z" stroke="url(#e)"/><path d="M131.23 39.31c.246.625.191 1.413-.253 2.395-.444.983-1.256 2.108-2.43 3.353-2.347 2.489-6.059 5.374-10.874 8.47-9.622 6.19-23.558 13.167-39.526 19.457-15.968 6.29-30.919 10.693-42.177 12.73-5.633 1.019-10.315 1.44-13.729 1.22-1.708-.109-3.07-.378-4.064-.794-.995-.415-1.572-.954-1.819-1.579-.246-.624-.19-1.412.253-2.394.444-.983 1.256-2.108 2.43-3.354 2.347-2.489 6.06-5.374 10.874-8.47 9.622-6.19 23.559-13.166 39.527-19.457 15.967-6.29 30.918-10.693 42.176-12.73 5.633-1.018 10.316-1.44 13.729-1.22 1.708.11 3.07.378 4.065.794.994.415 1.572.954 1.818 1.579Z" stroke="url(#f)"/></g><path d="M70.075 91.9a9.406 9.406 0 1 0-13.302-13.3 9.406 9.406 0 0 0 13.302 13.3Z" fill="url(#g)"/><g style="mix-blend-mode:multiply" opacity=".1" fill="#29256A"><path d="M54.964 84.668a2.436 2.436 0 0 0-.102.23c-.098.252.092.577.386.534.128-.018.228-.111.338-.177.11-.065.265-.1.357-.012.077.075.073.198.068.306-.017.396.055.82.322 1.114.267.294.773.39 1.065.12.1-.092.168-.232.131-.362-.052-.186-.292-.282-.317-.473-.02-.15.11-.28.245-.351.135-.07.29-.107.404-.208.172-.152.21-.408.193-.638-.005-.085-.018-.176-.074-.24-.136-.157-.39-.056-.571.042-.184.098-.464.156-.553-.033-.05-.105 0-.225.026-.338.028-.112.014-.26-.093-.302-.055-.021-.118-.006-.172.02-.265.124-.389.453-.652.585a.15.15 0 0 1-.081.02c-.051-.003-.09-.049-.106-.097-.047-.135.035-.276.01-.416-.004-.025-.012-.05-.033-.065a.085.085 0 0 0-.05-.013c-.187-.007-.339.141-.451.288-.112.145-.209.3-.291.464l.001.002Z" style="mix-blend-mode:multiply"/><path d="M58.431 85.697c.153-.215.185-.494.169-.757-.016-.264-.072-.524-.072-.787 0-.58.292-1.152.761-1.491.163-.118.373-.21.558-.131.355.152.257.744.569.972.132.095.311.102.469.056.157-.044.296-.135.433-.221.702-.436 1.463-.798 2.276-.95.261-.05.537-.076.792.001.255.078.487.278.535.541.036.209-.045.42-.145.605a2.054 2.054 0 0 1-.598.708c-.254.18-.569.285-.88.257-.303-.03-.58-.179-.872-.264-.27-.078-.57-.1-.831.005-.262.107-.476.36-.475.642 0 .243.15.464.164.707a.625.625 0 0 1-.282.556.566.566 0 0 1-.617-.016c-.162-.117-.246-.318-.276-.517-.03-.2-.013-.4-.02-.601-.007-.241-.089-.53-.322-.594-.221-.06-.435.129-.547.33a1.395 1.395 0 0 0-.175.737c.01.24.083.473.099.712.015.24-.038.505-.227.654-.212.168-.53.13-.758-.014-.228-.145-.386-.375-.536-.6-.042-.06-.123-.207-.02-.257.054-.026.195.034.262.029a.771.771 0 0 0 .566-.31v-.002Z" style="mix-blend-mode:multiply"/><path d="M65.53 83.088c.13.511.064 1.083-.241 1.512-.305.43-.862.687-1.377.578-.132-.029-.262-.079-.397-.087-.37-.02-.678.289-.853.616-.308.58-.338 1.322 0 1.887.337.564 1.059.897 1.689.708.535-.16.914-.635 1.187-1.123.272-.488.476-1.02.837-1.447.217-.258.542-.485.87-.406.213.051.374.216.529.37.279.276.58.539.932.713.353.174.765.253 1.145.15.388-.106.708-.392.921-.731.214-.34.333-.73.423-1.122.194-.838.256-1.764-.156-2.52-.1-.182-.256-.37-.465-.366-.12.002-.229.069-.326.142-.4.301-.68.73-1.023 1.094-.133.141-.282.276-.461.35-.18.075-.398.082-.56-.024-.209-.136-.276-.42-.232-.666.043-.244.174-.463.288-.685.376-.725.596-1.565.425-2.364-.044-.207-.119-.418-.27-.566-.151-.15-.394-.22-.582-.122-.2.105-.274.353-.315.575-.114.62-.143 1.281-.477 1.815-.08.13-.196.259-.348.277-.162.02-.31-.089-.44-.188-.202-.154-.42-.296-.666-.355-.4-.097-1.066.18-.846.682.076.174.275.316.387.468.183.25.326.536.403.837l-.001-.002ZM60.37 82.327c.02-.12.14-.258.242-.19.043.029.06.082.078.13.076.199.264.375.473.353.117-.012.218-.081.315-.147a8.005 8.005 0 0 1 1.61-.829c.14-.052.33-.088.413.037.062.09.02.221-.061.296-.081.073-.191.105-.296.138-.511.155-1.001.377-1.454.657-.248.153-.586.383-.89.292-.29-.086-.48-.45-.43-.736v-.001Z" style="mix-blend-mode:multiply"/><path d="M65.984 80.594c.135.077.26.187.414.2.242.02.44-.213.493-.45.052-.237.006-.483.009-.727.004-.29.08-.579.22-.834.13-.237.356-.461.627-.447.16.01.334.098.47.013.104-.065.13-.219.078-.331a.494.494 0 0 0-.278-.235.853.853 0 0 0-.652.02c-.291.132-.484.423-.584.726-.101.304-.124.626-.167.943-.025.186-.07.392-.224.499-.208.145-.512.04-.739.154-.124.063-.365.39-.136.456.056.017.14-.053.2-.059a.488.488 0 0 1 .27.071v.001ZM68.882 81.9c-.011.145.08.311.226.323.11.01.207-.07.29-.143l.72-.64c.145-.13.333-.269.517-.207.087.028.152.096.231.141.079.045.191.06.25-.008.034-.038.04-.093.043-.143.016-.317-.11-.627-.293-.885s-.422-.472-.66-.681a.804.804 0 0 0-.257-.172c-.098-.034-.217-.025-.29.05-.132.136-.026.359.06.528.093.18.154.393.08.579-.11.275-.429.152-.56.389-.123.225-.342.61-.36.868h.002ZM55.913 87.468c.13.216.294.418.51.551.214.133.486.188.724.1.193-.072.356-.232.562-.249.206-.018.396.117.538.269.141.152.26.331.43.449.179.123.41.169.62.113a.676.676 0 0 0 .458-.422c.104-.308-.04-.658.063-.967a.62.62 0 0 1 .67-.407c.376.067.58.466.755.807.276.533.655 1.057 1.213 1.278.186.074.407.129.501.305.117.223-.044.488-.216.671-.4.427-.935.766-1.52.789-.796.03-1.506-.526-1.97-1.173-.14-.194-.27-.403-.462-.545-.188-.14-.42-.203-.647-.263-.203-.054-.415-.109-.62-.064-.222.048-.404.206-.613.293a1.051 1.051 0 0 1-.97-.091 1.741 1.741 0 0 1-.38-.374 5.766 5.766 0 0 1-.512-.753c-.144-.254-.27-.527-.305-.816-.036-.29.03-.604.23-.819.088-.094.213-.17.34-.152.25.036.201.429.244.61.074.305.194.595.357.863v-.003ZM56.839 82.413a.373.373 0 0 1 .206-.05c.172.017.272.204.306.373.034.17.042.357.154.488.159.184.464.169.668.035.205-.134.334-.35.472-.551.242-.358.524-.688.837-.986.224-.21.517-.417.815-.34.174.046.309.18.474.25.407.173.867-.08 1.201-.37.334-.29.66-.644 1.097-.713.438-.071.902.166 1.321.02a.781.781 0 0 0 .509-.636c.03-.268-.076-.57.074-.794.152-.228.473-.24.74-.313.484-.13.887-.572.903-1.074.016-.5-.418-.993-.92-.978a1.17 1.17 0 0 0-.499.146 1.952 1.952 0 0 0-1.019 1.516c-.04.42.054.872-.14 1.247a.894.894 0 0 1-.49.428c-.305.11-.65.046-.96.147-.45.147-.715.593-1.047.931-.086.09-.187.176-.31.198a.502.502 0 0 1-.288-.046c-.444-.188-.761-.708-1.243-.683-.424.022-.694.463-.807.872-.114.409-.167.864-.464 1.167-.085.087-.207.16-.322.123-.152-.048-.192-.242-.203-.402l-.044-.563c-.015-.214-.04-.448-.192-.599-.142-.14-.363-.173-.557-.128-.194.044-.365.153-.53.266-.341.235-1.106.792-1.062 1.293.025.27.308.387.538.292.3-.125.49-.425.78-.57l.002.004Z" style="mix-blend-mode:multiply"/><path d="M58.085 77.507a9.367 9.367 0 0 0-2.567 2.646c.034.04.083.07.133.09.2.073.426.025.616-.07.19-.096.352-.237.522-.363.236-.176.492-.326.759-.45.225-.103.541-.162.677.045.07.106.06.242.047.368l-.114 1.152c-.013.137-.02.297.08.394.156.152.42.02.562-.144.374-.434.478-1.07.917-1.437.116-.097.271-.174.416-.129.16.052.24.227.315.38.093.189.207.368.34.533.315.396.594.217.73-.19.129-.394.48-.639.88-.694.295-.04.594-.14.81-.356.215-.213.247-.528.243-.816-.006-.37.024-.71.262-1.013.229-.293.567-.54.92-.663.197-.069.415-.082.6-.179a.715.715 0 0 0 .354-.512 9.389 9.389 0 0 0-7.5 1.41l-.002-.002Z" style="mix-blend-mode:multiply"/><path d="M57.068 80.761c-.621.191-1.105.698-1.408 1.272-.137.258-.252.542-.485.72-.05.037-.111.07-.172.055-.065-.014-.107-.08-.13-.142a.68.68 0 0 1 .016-.464 1.37 1.37 0 0 1 .25-.4c.315-.369.72-.644 1.094-.955.269-.222.52-.465.754-.724.124-.139.248-.287.416-.372.166-.085.392-.089.523.045.119.12.127.31.115.48a3.4 3.4 0 0 1-.079.513c-.028.123-.083.287-.203.123-.077-.108-.09-.165-.24-.192a.983.983 0 0 0-.451.044v-.003Z" style="mix-blend-mode:multiply"/></g><path style="mix-blend-mode:screen" opacity=".5" d="M70.075 91.9a9.406 9.406 0 1 0-13.302-13.3 9.406 9.406 0 0 0 13.302 13.3Z" fill="url(#h)"/><path d="M70.075 91.9a9.406 9.406 0 1 0-13.302-13.3 9.406 9.406 0 0 0 13.302 13.3Z" stroke="#29256A"/><path d="M126.473 53.593a7.901 7.901 0 1 0-11.175-11.173 7.901 7.901 0 0 0 11.175 11.173Z" fill="url(#i)"/><path d="M126.473 53.593a7.901 7.901 0 1 0-11.175-11.173 7.901 7.901 0 0 0 11.175 11.173Z" fill="url(#j)" fill-opacity=".5"/><g style="mix-blend-mode:multiply" opacity=".1" fill="#29256A"><path d="M113.78 47.518a1.947 1.947 0 0 0-.086.194c-.083.211.077.484.324.448.107-.016.192-.094.284-.149.093-.055.223-.083.3-.01.065.063.061.166.057.257-.014.333.046.69.271.936.224.247.649.327.894.1.084-.077.141-.195.11-.303-.044-.157-.245-.237-.266-.398-.017-.126.092-.235.206-.295.113-.058.243-.09.339-.175.145-.127.176-.342.162-.535-.004-.072-.015-.148-.062-.202-.115-.132-.327-.047-.48.035-.154.083-.39.131-.464-.027-.042-.088 0-.19.022-.284.023-.095.012-.219-.079-.254-.046-.018-.099-.005-.144.016-.223.105-.327.381-.548.492a.126.126 0 0 1-.068.018c-.043-.003-.075-.042-.089-.083-.04-.113.03-.23.009-.349-.004-.02-.01-.043-.028-.055a.07.07 0 0 0-.043-.01c-.156-.006-.284.118-.378.242a2.404 2.404 0 0 0-.244.389l.001.002Z" style="mix-blend-mode:multiply"/><path d="M116.691 48.382c.129-.18.155-.415.142-.636-.013-.221-.061-.44-.061-.661 0-.487.246-.968.64-1.252.136-.1.313-.176.468-.11.299.127.216.624.478.816.111.08.262.086.394.047.132-.037.249-.113.364-.186.59-.366 1.229-.67 1.911-.797.22-.042.452-.064.666 0 .215.066.409.234.449.455.031.175-.037.352-.121.508-.124.23-.289.443-.503.595-.213.151-.477.24-.738.215-.255-.024-.488-.15-.733-.22-.228-.067-.479-.086-.699.004-.22.089-.399.302-.398.539 0 .203.125.39.137.593a.525.525 0 0 1-.236.468.476.476 0 0 1-.518-.014c-.137-.099-.207-.267-.233-.434-.025-.168-.011-.337-.016-.505-.007-.203-.075-.446-.271-.499-.186-.05-.365.108-.46.276a1.176 1.176 0 0 0-.146.62c.009.201.069.397.082.598.014.202-.031.424-.19.55-.178.14-.446.108-.637-.013-.191-.12-.323-.314-.45-.502-.035-.052-.103-.175-.017-.217.046-.022.164.028.221.024a.65.65 0 0 0 .475-.26v-.002Z" style="mix-blend-mode:multiply"/><path d="M122.653 46.191c.11.43.054.91-.202 1.27-.257.361-.724.577-1.157.485-.111-.024-.22-.066-.333-.072-.31-.017-.57.242-.716.517-.259.487-.284 1.11 0 1.584.282.475.889.754 1.418.596.45-.134.768-.534.997-.943.229-.41.4-.858.703-1.216.183-.217.456-.407.732-.341.178.043.313.181.443.31.235.232.488.453.784.6.296.146.642.212.961.125.326-.089.595-.329.774-.614.179-.285.279-.613.355-.942.163-.704.215-1.482-.131-2.117-.083-.153-.215-.31-.39-.307a.478.478 0 0 0-.274.119c-.336.253-.571.614-.86.919a1.17 1.17 0 0 1-.387.295c-.151.062-.334.068-.471-.021-.175-.115-.231-.354-.195-.56.037-.205.147-.389.242-.575.316-.61.501-1.315.358-1.986-.037-.174-.1-.35-.227-.475-.127-.126-.331-.185-.489-.102-.169.087-.23.295-.264.482-.096.521-.12 1.077-.401 1.524-.068.11-.165.218-.293.234-.136.016-.259-.075-.369-.159-.17-.128-.352-.248-.559-.298-.337-.081-.896.152-.711.573.064.147.231.266.324.393.154.21.274.45.339.703h-.001ZM118.319 45.551c.018-.101.118-.217.204-.16.036.025.05.07.066.11.064.167.221.315.397.297.098-.01.183-.069.264-.123a6.743 6.743 0 0 1 1.353-.697c.118-.044.277-.074.347.03.052.077.017.187-.052.25-.068.061-.16.087-.248.115a5.23 5.23 0 0 0-1.222.552c-.208.13-.492.322-.747.246-.244-.073-.404-.378-.362-.619Z" style="mix-blend-mode:multiply"/><path d="M123.034 44.096c.114.064.218.156.348.167.204.018.37-.178.414-.377.044-.2.005-.406.008-.61.003-.245.067-.487.184-.702.11-.199.3-.387.528-.375.134.008.28.083.393.011.088-.055.11-.184.066-.278-.042-.095-.136-.159-.233-.197a.717.717 0 0 0-.548.016c-.244.111-.406.356-.491.61-.084.255-.103.526-.139.792-.021.156-.06.33-.188.42-.175.121-.431.033-.621.13-.105.052-.307.326-.114.382.047.014.117-.045.168-.05a.411.411 0 0 1 .227.06l-.002.001ZM125.471 45.192c-.009.123.068.262.19.272.093.008.174-.058.243-.12l.606-.538c.122-.109.279-.225.434-.174.073.025.128.082.194.12.066.036.161.05.21-.008.029-.031.034-.078.036-.12.014-.266-.092-.527-.246-.743-.154-.217-.354-.396-.555-.572a.678.678 0 0 0-.215-.145c-.083-.028-.183-.02-.243.042-.112.115-.022.302.05.444.077.15.129.33.066.486-.092.231-.36.128-.47.327-.103.19-.287.513-.302.73h.002ZM114.575 49.87c.11.181.248.35.428.463.181.111.41.157.609.084.163-.06.299-.195.472-.21.174-.015.333.099.452.226.119.128.218.279.362.378.15.103.345.142.52.094a.57.57 0 0 0 .385-.354c.088-.259-.033-.552.052-.812a.52.52 0 0 1 .564-.342c.316.056.486.391.634.678.232.447.55.887 1.019 1.073.156.062.342.108.421.257.098.187-.037.41-.182.563-.336.359-.785.644-1.276.663-.669.025-1.265-.442-1.656-.985-.118-.163-.226-.34-.387-.458-.159-.118-.354-.17-.544-.221-.17-.045-.349-.091-.521-.054-.186.04-.339.173-.514.246a.884.884 0 0 1-.816-.077 1.48 1.48 0 0 1-.319-.313 4.85 4.85 0 0 1-.43-.633c-.121-.213-.227-.442-.256-.685-.03-.245.026-.508.193-.688.074-.08.18-.143.286-.128.21.03.169.36.205.513.062.255.163.5.299.724v-.002ZM115.354 45.623a.313.313 0 0 1 .174-.041c.144.014.227.171.256.313.029.142.035.3.13.41.133.155.389.142.561.03.172-.113.281-.294.396-.464.204-.3.44-.578.703-.827.188-.178.435-.351.685-.286.146.038.259.151.398.21.342.145.728-.067 1.009-.31.281-.245.554-.542.921-.6.369-.06.758.14 1.11.016a.655.655 0 0 0 .427-.533c.026-.226-.064-.48.063-.667.128-.192.397-.203.621-.263.407-.11.746-.481.759-.903.013-.42-.351-.834-.773-.822a.984.984 0 0 0-.419.124 1.64 1.64 0 0 0-.856 1.273c-.034.353.045.733-.118 1.047a.752.752 0 0 1-.411.36c-.257.093-.547.039-.807.123-.377.124-.601.499-.879.783a.51.51 0 0 1-.261.166.422.422 0 0 1-.242-.039c-.373-.158-.639-.595-1.044-.574-.355.019-.582.39-.678.733-.096.343-.14.726-.389.98-.072.073-.174.134-.271.104-.128-.041-.161-.204-.171-.338l-.036-.473c-.013-.18-.034-.377-.162-.503-.119-.118-.305-.145-.467-.108a1.34 1.34 0 0 0-.445.223c-.287.198-.93.666-.892 1.086.021.228.258.326.451.246.253-.105.412-.357.656-.479l.001.004Z" style="mix-blend-mode:multiply"/><path d="M116.401 41.503a7.867 7.867 0 0 0-2.157 2.222.288.288 0 0 0 .112.075c.168.062.358.022.518-.058.159-.08.296-.2.439-.305a3.55 3.55 0 0 1 .637-.377c.189-.087.454-.137.569.037.058.09.049.204.039.31l-.096.967c-.011.115-.016.25.068.33.131.128.353.018.472-.12.313-.365.401-.9.77-1.207.097-.082.228-.147.349-.108.135.043.202.19.265.318.078.16.174.31.285.449.265.332.499.181.613-.16.109-.331.404-.537.739-.583.249-.034.5-.118.681-.3.181-.179.207-.443.204-.685-.004-.311.021-.596.22-.85.193-.247.476-.454.772-.557.167-.059.349-.07.505-.15a.601.601 0 0 0 .298-.431 7.886 7.886 0 0 0-6.301 1.184l-.001-.001Z" style="mix-blend-mode:multiply"/><path d="M115.547 44.236c-.521.16-.927.587-1.183 1.068-.114.217-.211.456-.407.604-.042.032-.093.06-.144.048-.055-.012-.09-.067-.109-.12a.573.573 0 0 1 .013-.39c.046-.124.125-.234.21-.335.265-.31.606-.542.919-.802.226-.187.437-.391.633-.609.104-.117.209-.24.35-.312.14-.072.329-.075.439.037.1.101.107.26.097.403-.011.145-.033.29-.066.431-.024.103-.071.241-.171.103-.065-.09-.076-.138-.201-.16a.826.826 0 0 0-.38.036v-.002Z" style="mix-blend-mode:multiply"/></g><path style="mix-blend-mode:screen" opacity=".5" d="M126.473 53.593a7.901 7.901 0 1 0-11.175-11.173 7.901 7.901 0 0 0 11.175 11.173Z" fill="url(#k)"/><path d="M126.473 53.593a7.901 7.901 0 1 0-11.175-11.173 7.901 7.901 0 0 0 11.175 11.173Z" stroke="#29256A"/><path d="M36.82 73.545a6.772 6.772 0 1 0-9.576-9.577 6.772 6.772 0 0 0 9.577 9.577Z" fill="url(#l)"/><path d="M36.82 73.545a6.772 6.772 0 1 0-9.576-9.577 6.772 6.772 0 0 0 9.577 9.577Z" fill="url(#m)" fill-opacity=".5"/><g style="mix-blend-mode:multiply" opacity=".1" fill="#29256A"><path d="M25.942 68.338c-.027.054-.052.11-.074.166-.07.181.066.415.279.384.091-.013.164-.08.243-.127.08-.048.19-.072.256-.009.056.054.053.142.05.22-.013.286.04.591.232.803.192.21.556.28.766.085.072-.066.121-.167.095-.26-.038-.134-.21-.203-.229-.34-.014-.109.08-.202.177-.253.097-.05.208-.078.29-.15.125-.11.151-.294.14-.46-.004-.06-.013-.126-.054-.172-.098-.113-.28-.04-.411.03-.132.07-.334.112-.398-.024-.036-.075 0-.162.019-.243.02-.081.01-.188-.067-.218-.04-.015-.085-.004-.124.014-.191.09-.28.327-.47.422a.109.109 0 0 1-.058.015c-.037-.003-.064-.036-.076-.07-.034-.098.025-.199.007-.3-.003-.018-.008-.036-.023-.047a.06.06 0 0 0-.037-.01c-.134-.004-.244.103-.325.208-.08.105-.15.216-.209.334l.001.002Z" style="mix-blend-mode:multiply"/><path d="M28.441 69.079c.11-.155.133-.356.122-.546-.012-.19-.052-.377-.052-.566 0-.417.21-.83.548-1.074.117-.085.268-.15.401-.094.256.11.185.536.41.7a.392.392 0 0 0 .337.04c.114-.032.214-.097.313-.16.505-.313 1.053-.574 1.638-.683.189-.036.387-.055.57.001.184.056.351.2.385.39.027.15-.032.301-.103.435-.107.197-.248.38-.431.51a.957.957 0 0 1-.633.184c-.22-.02-.418-.128-.628-.19-.196-.056-.41-.072-.6.005-.188.076-.342.26-.34.462 0 .174.107.334.117.508a.45.45 0 0 1-.203.401.408.408 0 0 1-.444-.011.553.553 0 0 1-.199-.373c-.021-.143-.01-.288-.014-.433-.006-.173-.064-.382-.232-.427-.16-.043-.313.092-.394.237-.09.161-.134.347-.126.53.008.173.06.341.071.514.011.172-.027.363-.163.47-.153.121-.382.094-.546-.01-.164-.104-.277-.27-.386-.43-.03-.045-.089-.15-.014-.187.039-.019.14.025.189.021a.555.555 0 0 0 .407-.224Z" style="mix-blend-mode:multiply"/><path d="M33.55 67.2c.094.368.046.78-.174 1.089-.22.31-.62.494-.991.416-.096-.02-.189-.057-.286-.062-.266-.014-.489.207-.614.443-.222.418-.243.952 0 1.358.242.407.762.646 1.216.51.386-.115.658-.457.854-.808.196-.352.344-.735.603-1.042.157-.186.39-.349.627-.293.153.037.269.156.38.266.201.2.418.39.672.514.253.126.55.183.824.108.28-.076.51-.282.663-.526.154-.245.24-.526.305-.808.14-.603.184-1.27-.112-1.814-.072-.131-.185-.266-.335-.263a.412.412 0 0 0-.235.102c-.288.216-.49.526-.737.787-.096.102-.203.2-.332.253-.129.054-.286.058-.403-.018-.15-.098-.199-.303-.167-.48.03-.176.125-.333.207-.493.27-.522.43-1.127.307-1.702-.032-.149-.086-.3-.195-.407-.109-.108-.284-.159-.42-.088-.144.075-.196.254-.226.414-.082.446-.102.922-.343 1.306-.058.094-.142.187-.25.2-.118.014-.224-.064-.318-.136-.145-.11-.302-.213-.479-.255-.288-.07-.768.13-.61.491.055.126.199.228.279.337.132.18.235.386.29.603V67.2ZM29.834 66.652c.015-.087.1-.186.174-.137.031.021.044.06.057.095.055.142.19.27.34.254.084-.009.157-.059.227-.106a5.77 5.77 0 0 1 1.16-.597c.1-.038.237-.063.297.026.044.065.014.16-.044.213-.059.053-.138.076-.214.1-.367.112-.72.271-1.046.473-.179.11-.422.275-.64.21-.21-.062-.347-.323-.311-.53Z" style="mix-blend-mode:multiply"/><path d="M33.875 65.405c.097.054.187.134.298.143.174.015.317-.153.355-.323.037-.171.004-.349.006-.524.003-.21.058-.417.159-.6.094-.171.256-.333.451-.322.116.006.24.07.338.01.075-.048.094-.158.057-.24a.355.355 0 0 0-.2-.168.614.614 0 0 0-.47.014c-.21.095-.348.304-.42.522-.073.22-.09.451-.12.68-.018.133-.051.281-.162.359-.15.104-.369.029-.532.111-.09.045-.263.28-.098.328.04.013.101-.038.145-.042a.351.351 0 0 1 .194.05l-.001.002ZM35.965 66.344c-.008.105.058.225.163.233.08.007.149-.05.208-.102l.52-.462c.104-.093.239-.193.372-.149.062.021.11.07.166.102.056.032.137.044.18-.005.024-.028.029-.067.03-.103.012-.229-.078-.452-.21-.638a2.96 2.96 0 0 0-.476-.49.577.577 0 0 0-.184-.124c-.071-.024-.157-.018-.209.036-.095.098-.019.258.043.38.066.13.11.283.057.417-.08.198-.308.11-.403.28-.088.162-.246.44-.26.625h.003ZM26.625 70.354c.094.155.212.3.367.397a.61.61 0 0 0 .521.071c.14-.052.257-.167.405-.179.15-.013.286.084.388.194.102.109.186.238.31.323a.546.546 0 0 0 .445.081c.15-.04.28-.156.33-.304.076-.221-.028-.473.046-.696a.446.446 0 0 1 .482-.293c.271.048.417.336.544.581.199.384.471.761.873.92.134.053.294.093.361.22.084.16-.032.351-.155.483-.289.308-.674.552-1.094.568-.574.022-1.085-.378-1.42-.844-.1-.14-.193-.29-.332-.392-.136-.101-.303-.147-.466-.19-.146-.039-.299-.078-.447-.046-.16.035-.29.148-.44.211a.757.757 0 0 1-.7-.066 1.254 1.254 0 0 1-.273-.269 4.168 4.168 0 0 1-.368-.542 1.612 1.612 0 0 1-.22-.588c-.026-.21.023-.435.166-.59.063-.067.154-.122.245-.109.18.026.144.309.175.44.053.219.14.428.257.62v-.001ZM27.291 66.714a.268.268 0 0 1 .149-.036c.123.012.195.147.22.269.024.121.03.256.111.35.114.134.334.122.481.026.147-.096.24-.252.34-.397.174-.257.377-.495.602-.71.162-.151.373-.3.587-.244.125.033.223.13.341.18.294.124.625-.058.865-.266.24-.21.475-.464.79-.514.316-.051.65.12.951.014a.562.562 0 0 0 .366-.457c.022-.194-.055-.41.054-.572.11-.164.34-.174.532-.225.349-.094.64-.413.65-.774.012-.36-.3-.715-.661-.704a.844.844 0 0 0-.36.105c-.404.212-.69.637-.733 1.091-.03.303.038.629-.101.898a.645.645 0 0 1-.353.309c-.22.079-.469.033-.692.105-.323.106-.514.428-.753.671a.438.438 0 0 1-.224.142.362.362 0 0 1-.207-.033c-.32-.135-.548-.51-.895-.492-.305.016-.5.334-.581.628-.082.294-.12.623-.334.84-.061.063-.15.116-.232.09-.11-.036-.138-.175-.146-.29l-.031-.406c-.012-.154-.03-.322-.139-.43-.102-.102-.261-.125-.4-.093a1.14 1.14 0 0 0-.382.191c-.246.17-.797.57-.765.931.018.195.222.28.387.21.217-.09.354-.305.562-.41l.001.003Z" style="mix-blend-mode:multiply"/><path d="M28.188 63.182a6.745 6.745 0 0 0-1.848 1.905c.024.03.06.05.096.064.143.053.307.019.443-.05.137-.069.254-.17.377-.261.17-.127.353-.235.546-.324.162-.074.39-.117.487.032.05.077.043.175.034.266l-.082.829c-.01.099-.014.214.058.283.112.11.303.016.404-.103.27-.313.345-.77.66-1.035.084-.07.196-.125.3-.092.116.036.173.163.227.272.067.137.149.266.244.385.227.285.428.156.526-.138.093-.283.346-.46.633-.499.213-.029.428-.1.584-.256.155-.154.177-.38.175-.588-.004-.267.018-.511.188-.729.165-.211.409-.389.662-.477.143-.05.3-.06.433-.13a.515.515 0 0 0 .255-.368 6.76 6.76 0 0 0-5.4 1.015l-.002-.001Z" style="mix-blend-mode:multiply"/><path d="M27.458 65.525c-.447.137-.795.502-1.014.916-.098.185-.181.39-.35.517-.035.028-.08.051-.123.04-.047-.01-.077-.057-.093-.102a.49.49 0 0 1 .011-.334c.04-.106.107-.2.18-.287.227-.266.519-.464.788-.688.193-.16.374-.335.542-.522.09-.1.18-.206.3-.267.12-.062.282-.064.376.032.086.086.092.223.083.345-.01.124-.028.248-.056.37-.021.088-.06.206-.146.088-.056-.077-.066-.119-.173-.137a.707.707 0 0 0-.325.03v-.001Z" style="mix-blend-mode:multiply"/></g><path style="mix-blend-mode:screen" opacity=".5" d="M36.82 73.545a6.772 6.772 0 1 0-9.576-9.577 6.772 6.772 0 0 0 9.577 9.577Z" fill="url(#n)"/><path d="M36.82 73.545a6.772 6.772 0 1 0-9.576-9.577 6.772 6.772 0 0 0 9.577 9.577Z" stroke="#29256A"/></g><defs><linearGradient id="b" x1="34.73" y1="33.975" x2="108.854" y2="122.244" gradientUnits="userSpaceOnUse"><stop stop-color="#E6007A"/><stop offset=".21" stop-color="#703AC2"/><stop offset=".46" stop-color="#0070EB"/><stop offset=".77" stop-color="#0297FB"/><stop offset="1" stop-color="#0AE2FF"/></linearGradient><linearGradient id="c" x1="42.592" y1="46.607" x2="79.525" y2="54.194" gradientUnits="userSpaceOnUse"><stop stop-color="#2C698B"/><stop offset="1"/></linearGradient><linearGradient id="e" x1="-1.17" y1="52.986" x2="120.803" y2="107.421" gradientUnits="userSpaceOnUse"><stop stop-color="#FFA0D3"/><stop offset=".198" stop-color="#A474EC"/><stop offset=".583" stop-color="#9FD9FF"/><stop offset=".823" stop-color="#72B5FF"/><stop offset="1" stop-color="#4CEAFF"/></linearGradient><linearGradient id="f" x1="13.844" y1="54.39" x2="107.148" y2="99.871" gradientUnits="userSpaceOnUse"><stop stop-color="#FFA0D3"/><stop offset=".198" stop-color="#A474EC"/><stop offset=".583" stop-color="#9FD9FF"/><stop offset=".823" stop-color="#72B5FF"/><stop offset="1" stop-color="#4CEAFF"/></linearGradient><linearGradient id="g" x1="48.223" y1="88.417" x2="81.159" y2="96.018" gradientUnits="userSpaceOnUse"><stop stop-color="#CB2E81"/><stop offset=".464" stop-color="#703AC2"/><stop offset=".948" stop-color="#0070EB"/></linearGradient><linearGradient id="i" x1="128.654" y1="38.44" x2="110.47" y2="55.893" gradientUnits="userSpaceOnUse"><stop stop-color="#8247E5"/><stop offset="1" stop-color="#5447E5"/></linearGradient><linearGradient id="j" x1="115.299" y1="42.42" x2="126.473" y2="53.593" gradientUnits="userSpaceOnUse"><stop stop-color="#081029" stop-opacity="0"/><stop offset="1" stop-color="#081029"/></linearGradient><linearGradient id="l" x1="38.69" y1="60.557" x2="23.104" y2="75.517" gradientUnits="userSpaceOnUse"><stop stop-color="#00FFA3"/><stop offset="1" stop-color="#DC1FFF"/></linearGradient><linearGradient id="m" x1="27.244" y1="63.968" x2="36.821" y2="73.545" gradientUnits="userSpaceOnUse"><stop stop-color="#081029" stop-opacity="0"/><stop offset="1" stop-color="#081029"/></linearGradient><radialGradient id="h" cx="0" cy="0" r="1" gradientUnits="userSpaceOnUse" gradientTransform="rotate(-29.56 176.191 -73.835) scale(9.41984 4.14473)"><stop stop-color="#fff"/><stop offset=".12" stop-color="#DEFFFC" stop-opacity=".85"/><stop offset=".36" stop-color="#9DFFF7" stop-opacity=".55"/><stop offset=".58" stop-color="#6AFFF4" stop-opacity=".32"/><stop offset=".77" stop-color="#45FFF1" stop-opacity=".14"/><stop offset=".91" stop-color="#2EFFEF" stop-opacity=".04"/><stop offset="1" stop-color="#26FFEF" stop-opacity="0"/></radialGradient><radialGradient id="k" cx="0" cy="0" r="1" gradientUnits="userSpaceOnUse" gradientTransform="matrix(6.88274 -3.90359 1.71758 3.0284 117.471 41.338)"><stop stop-color="#fff"/><stop offset=".12" stop-color="#DEFFFC" stop-opacity=".85"/><stop offset=".36" stop-color="#9DFFF7" stop-opacity=".55"/><stop offset=".58" stop-color="#6AFFF4" stop-opacity=".32"/><stop offset=".77" stop-color="#45FFF1" stop-opacity=".14"/><stop offset=".91" stop-color="#2EFFEF" stop-opacity=".04"/><stop offset="1" stop-color="#26FFEF" stop-opacity="0"/></radialGradient><radialGradient id="n" cx="0" cy="0" r="1" gradientUnits="userSpaceOnUse" gradientTransform="matrix(5.8995 -3.34593 1.4722 2.59578 29.105 63.04)"><stop stop-color="#fff"/><stop offset=".12" stop-color="#DEFFFC" stop-opacity=".85"/><stop offset=".36" stop-color="#9DFFF7" stop-opacity=".55"/><stop offset=".58" stop-color="#6AFFF4" stop-opacity=".32"/><stop offset=".77" stop-color="#45FFF1" stop-opacity=".14"/><stop offset=".91" stop-color="#2EFFEF" stop-opacity=".04"/><stop offset="1" stop-color="#26FFEF" stop-opacity="0"/></radialGradient><clipPath id="a"><path fill="#fff" d="M0 0h150v130H0z"/></clipPath></defs></svg>