<svg width="60" height="60" viewBox="0 0 60 60" fill="none" xmlns="http://www.w3.org/2000/svg">
<g clip-path="url(#clip0_353_9473)">
<path fill-rule="evenodd" clip-rule="evenodd" d="M0.968713 6.27255L11.7222 0L22.4757 6.27255L11.7222 12.5451L0.968713 6.27255ZM23.445 15.6301H37.1213V7.97133L47.867 14.2331V25.8092L37.1213 19.5376H42.9826V17.5838H37.1213H23.445H17.5837V19.5376H23.445L12.6993 25.8092V14.2331L23.445 7.97133V15.6301ZM10.7457 14.237L0 7.96935V19.5376L10.7457 25.8062V14.237ZM38.0907 6.27255L48.8442 0L59.5977 6.27255L48.8442 12.5451L38.0907 6.27255ZM49.8206 25.8062L60.5663 19.5376V7.96935L49.8206 14.237V25.8062ZM0 42.1602L10.7457 48.4279V59.9971L0 53.7284V42.1602ZM10.7458 34.7603L0.967271 40.4624L11.7227 46.7339L22.4782 40.4624L14.6534 35.9003V41.029H12.6996V34.7574V28.0677L11.7227 28.6372L10.7458 28.0677V34.7603ZM48.844 28.6372L49.8209 28.0677V34.7574V41.029H51.7746V35.9003L59.5994 40.4624L48.844 46.7339L38.0885 40.4624L47.8671 34.7603V28.0677L48.844 28.6372ZM12.6993 48.424V60L23.445 53.7285H17.5837V51.7747H23.445H37.1213H42.9826V53.7285H37.1213L47.867 60V48.424L37.1213 42.1622V49.8209H23.445V42.1622L12.6993 48.424ZM60.5663 53.7284L49.8206 59.9971V48.4279L60.5663 42.1602V53.7284Z" fill="url(#paint0_linear_353_9473)"/>
</g>
<defs>
<linearGradient id="paint0_linear_353_9473" x1="3.6031e-07" y1="3" x2="37.8744" y2="63.6106" gradientUnits="userSpaceOnUse">
<stop stop-color="#E6007A"/>
<stop offset="0.21" stop-color="#703AC2"/>
<stop offset="0.46" stop-color="#0070EB"/>
<stop offset="0.77" stop-color="#0297FB"/>
<stop offset="1" stop-color="#0AE2FF"/>
</linearGradient>
<clipPath id="clip0_353_9473">
<rect width="60" height="60" fill="white"/>
</clipPath>
</defs>
</svg>
