<svg width="1728" height="218" fill="none" xmlns="http://www.w3.org/2000/svg"><g opacity=".2" stroke="#4D5AFF" stroke-miterlimit="10" clip-path="url(#a)"><path d="M891.149 1.86c-2.13 7.14-86.03 74.09-86.06 81.34-.05 11.72-27.75 17.579-39.75 26.049-11.43 8.07-20.86 15.4-30.36 21.18-9.09 5.53-15.98 10.63-28.95 11.09-11.6.41-23.5-3.09-34.95-.57-2.09 2.29-4.6 4.35-7.47 6.22-14.97 9.73-38.66 7.38-57.18 3.62-17.67-3.59-41.75-5.03-59.58-.65-18.87 4.63-33.58 13.31-55.09 13.36-19.1.04-27-12.17-47.17-10.4-17.45 1.53-37.56 11.87-54.51 6.63-10.69-3.3-17.42-3.85-28.43-6.62-12.02-3.02-22.43-8.47-33.69-5.7-19.29 4.74-40.27 11.82-58.68 6.75-20.8-5.73-41.24-8.35-63.86-7.88-9.39.2-18.72 7.37-28.04 8.31-10.49 1.06-20.98 2.05-31.54 1.84v.02s-37.21.15-60.08-12.06c-22.87-12.21-42.35-18.15-51.67-17.72-7.44.34 70.54-72.54 102.2-101.86V1.87h754.86v-.01Z" fill="url(#b)"/><path d="M831.72 1.86S730.88 90.62 712.76 91.83c-36.59 2.44-40.24 29.039-65.96 34.049-11.38 2.22-23.84 4.65-37.37 4.82-12.56.16-19.9-1.97-30.32-3.8-32.73-5.75-50.6 9.55-78.92 11.97-11.57.99-23.57.05-32.88-2.39-9.71-2.55-14.91-6.68-29.18-5.58-19.46 1.49-34.61 8.06-53.54 10.42-15.11 1.89-32.67 1.9-48.27.61-15.04-1.24-21.12-4.24-31.8-7.54-11.75-3.63-24.17-2.58-38.23-.83-27.55 3.43-64.32 11.77-92.21 4.17-10.66-2.9-13.95-7.22-21.78-10.78-.64-.28-1.28-.54-1.92-.79-4.1-1.53-8.83-2.34-14.06-2.74v-.87c-31.94-4.07-62.49 19.16-88.65 40.93-30.49 25.38-76.5 32.22-76.5 32.22s-21.76-166.02-21.76-170.75c0-3.46 121.67-1.86 186.9-.75V1.86h695.42-.01Z" fill="url(#c)"/><path opacity=".4" d="M908.46 82.45c-5.04 2.76-7.16 6.1-14.02 8.35-17.95 5.89-41.61-.57-59.35-3.23-9.05-1.36-17.04-2.17-24.61.64-6.87 2.56-10.79 4.88-20.47 5.84-10.04 1-21.34.99-31.07-.48-12.18-1.83-21.93-6.92-34.46-8.07-9.18-.85-12.53 2.35-18.78 4.32-6 1.89-13.72 2.62-21.16 1.85-18.23-1.87-29.73-13.72-50.8-9.27-6.71 1.42-11.43 3.07-19.52 2.94-8.71-.13-16.73-2.01-24.05-3.73-16.56-3.89-18.9-24.49-42.46-26.38-11.67-.94-21.22-44.43-21.22-44.43h392.24v68.91c-3.91.36-7.38 1.14-10.29 2.74h.02Z" fill="url(#d)"/><path opacity=".6" d="M900.471 43.72c-11.63 2.75-24.05 2.38-35.42-.1-15.11-3.3-22.84-3.01-34.95 2.5-9.01 4.1-20.1 6.72-32.33 4.29-10.25-2.04-19.15-7.93-31.44-5.98-12.3 1.95-17.68 9.35-32.05 9.8-13.54.43-28.55-5.89-35.43-10.56-14.04-9.54-66.42-2.75-81.75-12.79-8.37-5.49-8.23-13.71-6.54-21.36h308.18v24.13c-6.99 2.74-9.22 7.93-18.27 10.08v-.01Z" fill="url(#e)"/><path d="M892.05 55.47c2.62-1.92 3.64-5.3 3.57-8.41-.2-18.7-.43-16.68-.63-35.38 1.5-.01 2.25.01 3.75 0s2.25.01 3.75 0c.13 18.71.29 16.62.43 35.33-.02 3.12 1.06 6.49 3.71 8.39 3.5 2.53 7.78 3.83 12.12 3.83v3.39l-314 .1 1.47-2.84 46.56-.54c4.33-.02 8.59-1.33 12.06-3.88 2.62-1.92 3.64-5.3 3.57-8.41-.2-18.7-.43-16.68-.63-35.38 1.5-.01 2.25.01 3.75 0s2.25.01 3.75 0c.13 18.71.29 16.62.43 35.33-.02 3.12 1.06 6.49 3.71 8.39l23.3.06c2.62-1.92 3.64-5.3 3.57-8.41-.2-18.7-.43-16.68-.63-35.38 1.5-.01 2.25.01 3.75 0s2.25.01 3.75 0c.13 18.71.29 16.62.43 35.33-.02 3.12 1.06 6.49 3.71 8.39l23.3.06c2.62-1.92 3.64-5.3 3.57-8.41-.2-18.7-.43-16.68-.63-35.38 1.5-.01 2.25.01 3.75 0s2.25.01 3.75 0c.13 18.71.29 16.62.43 35.33-.02 3.12 1.06 6.49 3.7 8.39l23.3.06c2.62-1.92 3.64-5.3 3.57-8.41-.2-18.7-.43-16.68-.63-35.38 1.5-.01 2.25.01 3.75 0s2.25.01 3.75 0c.13 18.71.29 16.62.43 35.33-.02 3.12 1.06 6.49 3.71 8.39l23.3.06c2.62-1.92 3.64-5.3 3.57-8.41-.2-18.7-.43-16.68-.63-35.38 1.5-.01 2.25.01 3.75 0s2.25.01 3.75 0c.13 18.71.29 16.62.43 35.33-.02 3.12 1.06 6.49 3.7 8.39l23.3.06c2.62-1.92 3.64-5.3 3.57-8.41-.2-18.7-.43-16.68-.63-35.38 1.5-.01 2.25.01 3.75 0s2.25.01 3.75 0c.13 18.71.29 16.62.43 35.33-.02 3.12 1.06 6.49 3.7 8.39l23.3.06-.04.07Z" fill="url(#f)"/><path d="M830.69 64.39h-42.08c-.89 0-1.62.73-1.62 1.62v9.07c0 .89.73 1.62 1.62 1.62h21.98c18.96 0 24.58-12.31 20.1-12.31Z" fill="url(#g)"/><path d="M794.019 64.4a1.83 1.83 0 1 0-3.662.002 1.83 1.83 0 0 0 3.662-.002Z" fill="url(#h)"/><path d="M800.09 64.4a1.83 1.83 0 1 0-3.662.002 1.83 1.83 0 0 0 3.662-.002Z" fill="url(#i)"/><path d="M796.991 63.52h-3.6v1.71h3.6v-1.71Z" fill="url(#j)"/><path d="M799.689 63.52v1.71h3.591l-3.591-1.71Z" fill="url(#k)"/><path d="M790.92 63.52v1.71h-3.59l3.59-1.71Z" fill="url(#l)"/><path d="M822.699 64.4a1.83 1.83 0 1 0-3.662.002 1.83 1.83 0 0 0 3.662-.002Z" fill="url(#m)"/><path d="M828.769 64.4a1.83 1.83 0 1 0-3.662.002 1.83 1.83 0 0 0 3.662-.002Z" fill="url(#n)"/><path d="M825.67 63.52h-3.6v1.71h3.6v-1.71Z" fill="url(#o)"/><path d="M828.369 63.52v1.71h3.59l-3.59-1.71Z" fill="url(#p)"/><path d="M819.61 63.52v1.71h-3.6l3.6-1.71Z" fill="url(#q)"/><path d="M815.77 64.04h-11.49l-.46.56h12.41l-.46-.56Z" fill="url(#r)"/><path d="M788.09 66.22h-3.93v8.65h3.93v-8.65Z" fill="url(#s)"/><path d="M741.19 64.39h42.08c.89 0 1.62.73 1.62 1.62v9.07c0 .89-.73 1.62-1.62 1.62h-42.08c-.89 0-1.62-.73-1.62-1.62v-9.07c0-.89.73-1.62 1.62-1.62Z" fill="url(#t)"/><path d="M746.59 64.4a1.83 1.83 0 1 0-3.662.002 1.83 1.83 0 0 0 3.662-.002Z" fill="url(#u)"/><path d="M752.66 64.4a1.83 1.83 0 1 0-3.662.002 1.83 1.83 0 0 0 3.662-.002Z" fill="url(#v)"/><path d="M749.571 63.52h-3.6v1.71h3.6v-1.71Z" fill="url(#w)"/><path d="M752.27 63.52v1.71h3.589l-3.589-1.71Z" fill="url(#x)"/><path d="M743.5 63.52v1.71h-3.59l3.59-1.71Z" fill="url(#y)"/><path d="M775.22 64.4a1.83 1.83 0 1 0-3.66 0 1.83 1.83 0 0 0 3.66 0Z" fill="url(#z)"/><path d="M781.291 64.4a1.83 1.83 0 1 0-3.662.002 1.83 1.83 0 0 0 3.662-.002Z" fill="url(#A)"/><path d="M778.202 63.52h-3.6v1.71h3.6v-1.71Z" fill="url(#B)"/><path d="M780.891 63.52v1.71h3.6l-3.6-1.71Z" fill="url(#C)"/><path d="M772.131 63.52v1.71h-3.6l3.6-1.71Z" fill="url(#D)"/><path d="M767.981 64.04h-11.49l-.46.56h12.41l-.46-.56Z" fill="url(#E)"/><path d="M742.111 69.98h1.88c.26 0 .47.21.47.47v1.88c0 .26-.21.47-.47.47h-1.88a.47.47 0 0 1-.47-.47v-1.88c0-.26.21-.47.47-.47Z" fill="url(#F)"/><path d="M746.39 69.98h1.88c.26 0 .47.21.47.47v1.88c0 .26-.21.47-.47.47h-1.88a.47.47 0 0 1-.47-.47v-1.88c0-.26.21-.47.47-.47Z" fill="url(#G)"/><path d="M752.52 69.98h-1.87a.47.47 0 0 0-.47.47v1.87c0 .26.21.47.47.47h1.87a.47.47 0 0 0 .47-.47v-1.87a.47.47 0 0 0-.47-.47Z" fill="url(#H)"/><path d="M754.911 69.98h1.881c.26 0 .469.21.469.47v1.88c0 .26-.209.47-.469.47h-1.881a.47.47 0 0 1-.47-.47v-1.88c0-.26.21-.47.47-.47Z" fill="url(#I)"/><path d="M761.041 69.98h-1.87a.47.47 0 0 0-.47.47v1.87c0 .26.211.47.47.47h1.87c.26 0 .47-.21.47-.47v-1.87a.47.47 0 0 0-.47-.47Z" fill="url(#J)"/><path d="M765.301 69.98h-1.87a.47.47 0 0 0-.47.47v1.87c0 .26.21.47.47.47h1.87c.26 0 .47-.21.47-.47v-1.87a.47.47 0 0 0-.47-.47Z" fill="url(#K)"/><path d="M767.691 69.98h1.88c.26 0 .47.21.47.47v1.88c0 .26-.21.47-.47.47h-1.88a.47.47 0 0 1-.47-.47v-1.88c0-.26.21-.47.47-.47Z" fill="url(#L)"/><path d="M773.82 69.98h-1.87a.47.47 0 0 0-.47.47v1.87c0 .26.211.47.47.47h1.87a.47.47 0 0 0 .471-.47v-1.87a.47.47 0 0 0-.471-.47Z" fill="url(#M)"/><path d="M778.08 69.98h-1.87a.47.47 0 0 0-.47.47v1.87c0 .26.211.47.47.47h1.87c.26 0 .47-.21.47-.47v-1.87a.47.47 0 0 0-.47-.47Z" fill="url(#N)"/><path d="M782.34 69.98h-1.87a.47.47 0 0 0-.47.47v1.87c0 .26.21.47.47.47h1.87c.26 0 .47-.21.47-.47v-1.87a.47.47 0 0 0-.47-.47Z" fill="url(#O)"/><path d="M793.01 69.98h-1.87a.47.47 0 0 0-.47.47v1.87c0 .26.21.47.47.47h1.87a.47.47 0 0 0 .47-.47v-1.87a.47.47 0 0 0-.47-.47Z" fill="url(#P)"/><path d="M795.421 69.98h1.88c.26 0 .47.21.47.47v1.88c0 .26-.21.47-.47.47h-1.88a.47.47 0 0 1-.47-.47v-1.88c0-.26.21-.47.47-.47Z" fill="url(#Q)"/><path d="M799.671 69.98h1.88c.26 0 .47.21.47.47v1.88c0 .26-.21.47-.47.47h-1.88a.47.47 0 0 1-.47-.47v-1.88c0-.26.21-.47.47-.47Z" fill="url(#R)"/><path d="M805.811 69.98h-1.87a.47.47 0 0 0-.47.47v1.87c0 .26.21.47.47.47h1.87a.47.47 0 0 0 .47-.47v-1.87a.47.47 0 0 0-.47-.47Z" fill="url(#S)"/><path d="M810.07 69.98h-1.87a.47.47 0 0 0-.47.47v1.87c0 .26.211.47.47.47h1.87a.47.47 0 0 0 .471-.47v-1.87a.47.47 0 0 0-.471-.47Z" fill="url(#T)"/><path d="M814.33 69.98h-1.87a.47.47 0 0 0-.47.47v1.87c0 .26.211.47.47.47h1.87c.26 0 .47-.21.47-.47v-1.87a.47.47 0 0 0-.47-.47Z" fill="url(#U)"/><path d="M818.04 69.98h.45c.26 0 .47.21.47.47v1.88c0 .26-.21.47-.47.47h-.45a.47.47 0 0 1-.47-.47v-1.88c0-.26.21-.47.47-.47Z" fill="url(#V)"/><path d="M824.85 69.98h-4.87a.47.47 0 0 0-.47.47v1.88c0 .26.21.47.47.47h1.88c1.83 0 5.98-2.81 2.99-2.81v-.01Z" fill="url(#W)"/><path d="M740.131 66.22h-3.93v8.65h3.93v-8.65Z" fill="url(#X)"/><path d="M735.311 64.39h-42.08a1.62 1.62 0 0 0-1.62 1.62v9.07c0 .895.726 1.62 1.62 1.62h42.08a1.62 1.62 0 0 0 1.62-1.62v-9.07a1.62 1.62 0 0 0-1.62-1.62Z" fill="url(#Y)"/><path d="M698.631 64.4a1.83 1.83 0 1 0-3.662.002 1.83 1.83 0 0 0 3.662-.002Z" fill="url(#Z)"/><path d="M704.701 64.4a1.83 1.83 0 1 0-3.662.002 1.83 1.83 0 0 0 3.662-.002Z" fill="url(#aa)"/><path d="M701.612 63.52h-3.6v1.71h3.6v-1.71Z" fill="url(#ab)"/><path d="M704.301 63.52v1.71h3.6l-3.6-1.71Z" fill="url(#ac)"/><path d="M695.541 63.52v1.71h-3.6l3.6-1.71Z" fill="url(#ad)"/><path d="M727.252 64.4a1.83 1.83 0 1 0-3.662.002 1.83 1.83 0 0 0 3.662-.002Z" fill="url(#ae)"/><path d="M733.322 64.4a1.83 1.83 0 1 0-3.662.002 1.83 1.83 0 0 0 3.662-.002Z" fill="url(#af)"/><path d="M730.233 63.52h-3.6v1.71h3.6v-1.71Z" fill="url(#ag)"/><path d="M732.922 63.52v1.71h3.6l-3.6-1.71Z" fill="url(#ah)"/><path d="M724.162 63.52v1.71h-3.59l3.59-1.71Z" fill="url(#ai)"/><path d="M720.012 64.04h-11.49l-.45.56h12.4l-.46-.56Z" fill="url(#aj)"/><path d="M696.022 69.98h-1.87a.47.47 0 0 0-.47.47v1.87c0 .26.21.47.47.47h1.87a.47.47 0 0 0 .47-.47v-1.87a.47.47 0 0 0-.47-.47Z" fill="url(#ak)"/><path d="M700.301 69.98h-1.87a.47.47 0 0 0-.47.47v1.87c0 .26.21.47.47.47h1.87a.47.47 0 0 0 .47-.47v-1.87a.47.47 0 0 0-.47-.47Z" fill="url(#al)"/><path d="M704.561 69.98h-1.87a.47.47 0 0 0-.47.47v1.87c0 .26.21.47.47.47h1.87a.47.47 0 0 0 .47-.47v-1.87a.47.47 0 0 0-.47-.47Z" fill="url(#am)"/><path d="M706.941 69.98h1.88c.26 0 .47.21.47.47v1.88c0 .26-.21.47-.47.47h-1.88a.47.47 0 0 1-.47-.47v-1.88c0-.26.21-.47.47-.47Z" fill="url(#an)"/><path d="M711.202 69.98h1.88c.26 0 .47.21.47.47v1.88c0 .26-.21.47-.47.47h-1.88a.47.47 0 0 1-.47-.47v-1.88c0-.26.21-.47.47-.47Z" fill="url(#ao)"/><path d="M717.342 69.98h-1.87a.47.47 0 0 0-.47.47v1.87c0 .26.21.47.47.47h1.87c.26 0 .47-.21.47-.47v-1.87a.47.47 0 0 0-.47-.47Z" fill="url(#ap)"/><path d="M719.732 69.98h1.88c.26 0 .47.21.47.47v1.88c0 .26-.21.47-.47.47h-1.88a.47.47 0 0 1-.47-.47v-1.88c0-.26.21-.47.47-.47Z" fill="url(#aq)"/><path d="M723.991 69.98h1.88c.26 0 .47.21.47.47v1.88c0 .26-.21.47-.47.47h-1.88a.47.47 0 0 1-.47-.47v-1.88c0-.26.21-.47.47-.47Z" fill="url(#ar)"/><path d="M730.121 69.98h-1.87a.47.47 0 0 0-.47.47v1.87c0 .26.211.47.47.47h1.87c.26 0 .47-.21.47-.47v-1.87a.47.47 0 0 0-.47-.47Z" fill="url(#as)"/><path d="M734.381 69.98h-1.87a.47.47 0 0 0-.47.47v1.87c0 .26.21.47.47.47h1.87c.26 0 .47-.21.47-.47v-1.87a.47.47 0 0 0-.47-.47Z" fill="url(#at)"/><path d="M692.16 66.22h-3.93v8.65h3.93v-8.65Z" fill="url(#au)"/><path d="M687.341 64.39h-42.08a1.62 1.62 0 0 0-1.62 1.62v9.07c0 .895.725 1.62 1.62 1.62h42.08a1.62 1.62 0 0 0 1.62-1.62v-9.07a1.62 1.62 0 0 0-1.62-1.62Z" fill="url(#av)"/><path d="M650.66 64.4a1.83 1.83 0 1 0-3.662.002 1.83 1.83 0 0 0 3.662-.002Z" fill="url(#aw)"/><path d="M656.74 64.4a1.83 1.83 0 1 0-3.662.002 1.83 1.83 0 0 0 3.662-.002Z" fill="url(#ax)"/><path d="M653.641 63.52h-3.6v1.71h3.6v-1.71Z" fill="url(#ay)"/><path d="M656.34 63.52v1.71h3.59l-3.59-1.71Z" fill="url(#az)"/><path d="M647.581 63.52v1.71h-3.601l3.601-1.71Z" fill="url(#aA)"/><path d="M679.291 64.4a1.83 1.83 0 1 0-3.662.002 1.83 1.83 0 0 0 3.662-.002Z" fill="url(#aB)"/><path d="M685.361 64.4a1.83 1.83 0 1 0-3.662.002 1.83 1.83 0 0 0 3.662-.002Z" fill="url(#aC)"/><path d="M682.272 63.52h-3.6v1.71h3.6v-1.71Z" fill="url(#aD)"/><path d="M684.961 63.52v1.71h3.6l-3.6-1.71Z" fill="url(#aE)"/><path d="M676.202 63.52v1.71h-3.6l3.6-1.71Z" fill="url(#aF)"/><path d="M672.052 64.04h-11.49l-.46.56h12.41l-.46-.56Z" fill="url(#aG)"/><path d="M648.061 69.98h-1.87a.47.47 0 0 0-.47.47v1.87c0 .26.21.47.47.47h1.87a.47.47 0 0 0 .47-.47v-1.87a.47.47 0 0 0-.47-.47Z" fill="url(#aH)"/><path d="M652.33 69.98h-1.87a.47.47 0 0 0-.47.47v1.87c0 .26.211.47.47.47h1.87c.26 0 .47-.21.47-.47v-1.87a.47.47 0 0 0-.47-.47Z" fill="url(#aI)"/><path d="M654.72 69.98h1.88c.26 0 .47.21.47.47v1.88c0 .26-.21.47-.47.47h-1.88a.47.47 0 0 1-.47-.47v-1.88c0-.26.21-.47.47-.47Z" fill="url(#aJ)"/><path d="M660.852 69.98h-1.87a.47.47 0 0 0-.47.47v1.87c0 .26.21.47.47.47h1.87a.47.47 0 0 0 .47-.47v-1.87a.47.47 0 0 0-.47-.47Z" fill="url(#aK)"/><path d="M663.241 69.98h1.88c.26 0 .47.21.47.47v1.88c0 .26-.21.47-.47.47h-1.88a.47.47 0 0 1-.47-.47v-1.88c0-.26.21-.47.47-.47Z" fill="url(#aL)"/><path d="M669.371 69.98h-1.87a.47.47 0 0 0-.47.47v1.87c0 .26.211.47.47.47h1.87c.26 0 .47-.21.47-.47v-1.87a.47.47 0 0 0-.47-.47Z" fill="url(#aM)"/><path d="M673.631 69.98h-1.87a.47.47 0 0 0-.47.47v1.87c0 .26.21.47.47.47h1.87c.26 0 .47-.21.47-.47v-1.87a.47.47 0 0 0-.47-.47Z" fill="url(#aN)"/><path d="M676.021 69.98h1.88c.26 0 .47.21.47.47v1.88c0 .26-.21.47-.47.47h-1.88a.47.47 0 0 1-.47-.47v-1.88c0-.26.21-.47.47-.47Z" fill="url(#aO)"/><path d="M682.151 69.98h-1.87a.47.47 0 0 0-.47.47v1.87c0 .26.21.47.47.47h1.87a.47.47 0 0 0 .47-.47v-1.87a.47.47 0 0 0-.47-.47Z" fill="url(#aP)"/><path d="M686.42 69.98h-1.87a.47.47 0 0 0-.47.47v1.87c0 .26.21.47.47.47h1.87c.26 0 .47-.21.47-.47v-1.87a.47.47 0 0 0-.47-.47Z" fill="url(#aQ)"/><path d="M918.74 60.89H544.5v1.71h5.55l-5.55 5.52v2.42l7.62-7.59 15.35 15.28H544.5v1.71h374.24v-3.72l-1.66 1.66-15.35-15.28h17.02v-1.71h-.01ZM584.85 62.6l-15.3 15.28L554.2 62.6h30.65Zm2.07.36 15.22 15.27h-30.52l15.3-15.27Zm32.63-.36-15.34 15.27-15.23-15.27h30.57Zm2.08.35 15.35 15.28h-30.69l15.34-15.28Zm32.73-.35-15.3 15.28-15.35-15.28h30.65Zm2.07.36 15.23 15.27h-30.52l15.3-15.27h-.01Zm32.63-.36-15.34 15.27-15.23-15.27h30.57Zm2.07.35 15.35 15.28h-30.69l15.34-15.28Zm32.73-.35-15.3 15.28-15.35-15.28h30.65Zm2.07.36 15.22 15.27h-30.53l15.3-15.27h.01Zm32.63-.36-15.34 15.27-15.23-15.27h30.57Zm2.08.35 15.35 15.28H745.3l15.34-15.28Zm32.73-.35-15.3 15.28-15.35-15.28h30.65Zm2.07.36 15.22 15.27h-30.53l15.3-15.27h.01Zm32.63-.36-15.34 15.27L797.5 62.6h30.57Zm2.07.35 15.35 15.28H814.8l15.34-15.28Zm32.73-.35-15.3 15.28-15.35-15.28h30.65Zm2.07.36 15.22 15.27h-30.53l15.3-15.27h.01Zm32.63-.36-15.34 15.27L867 62.6h30.57Zm2.08.35L915 78.23h-30.69l15.34-15.28Z" fill="url(#aR)"/><path opacity=".6" d="M527.379 120.05h19.2l1.68 8.03h11V12.8h-31.88v107.25Z" fill="url(#aS)"/><path opacity=".6" d="M456.879 163.87v-32.94l17.78-17.781v-88.21h-40.71V163.87h22.93Z" fill="url(#aT)"/><path opacity=".5" d="M276.349 143.069c2.63.45 6.04.7 9.62.7 3.58 0 6.99-.25 9.62-.7 3.85-.67 3.9-1.4 3.9-1.4v-27.28h13.19v-89.45h-40.22v116.72s.04.74 3.9 1.4l-.01.01Z" fill="url(#aU)"/><path d="M207.9 129.539v11.201h16.24V24.94h-29.89v104.599h13.65Z" fill="url(#aV)"/><path d="M342.399 121.13c7.86-4.07 17.24-12.71 17.24-30.79V24.95h-34.34v100.73c1.24-.04 9.22-.46 17.11-4.54l-.01-.01Z" fill="url(#aW)"/><path d="M404.38 143.67c-2.25.46-5.18.71-8.24.71-3.06 0-5.99-.25-8.24-.71-3.3-.67-3.34-1.4-3.34-1.41v-27.44h-11.3V24.95h34.46v117.31s-.04.74-3.34 1.41Z" fill="url(#aX)"/><path d="m319.858 94.09 12.88 12.879 12.78-12.79V24.94h-66.12v69.15h40.46Z" fill="url(#aY)"/><path d="M198.32 142.919V24.939h-28.64v88.78l28.64 29.2Z" fill="url(#aZ)"/><path d="M515.199 142.68V16.11h-31.07v94.9l31.07 31.67Z" fill="url(#ba)"/><path d="m224.548 107.439 1.19 7.17h17.92l1.47 7.34h14.6l1.48-7.34h17.91l1.2-7.17h13.64v-82.5h-83.05v82.5h13.64Z" fill="url(#bb)"/><path d="M526.018 107.88c7.86-4.07 17.24-12.71 17.24-30.79V11.7h-34.35v100.73c1.24-.04 9.22-.46 17.11-4.54v-.01Z" fill="url(#bc)"/><path d="M315.369 135.59c-5.1-4.07-11.18-12.71-11.18-30.79V24.95h22.29v115.18c-.8-.04-5.98-.46-11.1-4.54h-.01Z" fill="url(#bd)"/><path d="m442.93 123.549 1.89-7.34h22.84l1.52-7.16h17.4v-84.11h-52.83v98.61h9.18Z" fill="url(#be)"/><path d="M380.67 109.049h17.4l1.52 7.16h22.84l1.89 7.34h9.43v-98.61h-53.08v84.11Z" fill="url(#bf)"/><path d="M376.229 126.659v-32.94l17.78-17.78v-51h-40.71v101.72h22.93Z" fill="url(#bg)"/><path d="M422.669 132.839v21.18h22.48V24.939h-41.37v107.9h18.89Z" fill="url(#bh)"/><path d="M465.39 116.12c2.63.33 6.04.519 9.62.519 3.58 0 6.99-.179 9.62-.519 3.85-.49 3.9-1.021 3.9-1.031v-20.03h13.19V24.94H461.5v90.15s.04.541 3.9 1.031h-.01Z" fill="url(#bi)"/><path d="M172.619 116.12c-2.63.33-6.04.519-9.62.519-3.58 0-6.99-.179-9.62-.519-3.85-.49-3.9-1.021-3.9-1.031v-20.03h-13.19V24.94h40.22v90.15s-.04.541-3.9 1.031h.01Z" fill="url(#bj)"/><path opacity=".6" d="M95.08 120.05h19.21l1.68 8.03h11V12.8H95.08v107.25Z" fill="url(#bk)"/><path opacity=".6" d="M24.59 163.87v-32.94l17.78-17.781v-88.21H1.66V163.87h22.93Z" fill="url(#bl)"/><path d="M82.91 142.68V16.11H51.84v94.9l31.07 31.67Z" fill="url(#bm)"/><path d="M93.72 107.88c7.859-4.07 17.239-12.71 17.239-30.79V11.7h-34.35v100.73c1.24-.04 9.22-.46 17.11-4.54v-.01Z" fill="url(#bn)"/><path d="m10.641 123.549 1.89-7.34h22.84l1.52-7.16h17.4v-84.11H1.461v98.61h9.18Z" fill="url(#bo)"/><path d="M-51.63 109.049h17.41l1.52 7.16h22.84l1.88 7.34h9.44v-98.61h-53.09v84.11Z" fill="url(#bp)"/><path d="M-9.62 132.839v21.18h22.48V24.939h-41.37v107.9h18.89Z" fill="url(#bq)"/><path d="M33.101 116.12c2.63.33 6.04.519 9.62.519 3.58 0 6.99-.179 9.62-.519 3.85-.49 3.9-1.021 3.9-1.031v-20.03h13.19V24.94H29.21v90.15s.04.541 3.9 1.031h-.01Z" fill="url(#br)"/><path d="M410.799 39.77c18.1 14.95 39.61 37.34 67.65 32.1 7.92-1.48 16.07-3.9 24.29-1.81 7.05 1.8 13.41 6.06 18.99 9.92 15.76 10.91 47.69 17.29 64.89 5.99 2.08-1.36 3.86-2.85 5.31-4.48 8.65-2.11 18.06-.15 26.97-.83 9.96-.76 14.91-4.46 21.51-8.53 6.91-4.25 13.66-9.55 21.89-15.42 8.64-6.16 29.57-11.1 28.78-19.05-.49-4.91 15.05-17.67 16.18-22.59-.22.97-25.13 1.11-26.8 1.17-48.42 1.81-96.84 4.23-145.16 6.87-15.78.86-31.65.6-47.41 1.55-16.3.98-32.31 2.77-48.74 2.59-6.05-.07-14.5-2.01-20.12-.28-4.12 1.27-10.73 6.6-9.74 10.56.22.88.75 1.62 1.51 2.24Z" fill="url(#bs)"/><path d="M162.229 42.46c16.52 3.51 34.14 3.03 50.29-.13 21.45-4.21 32.44-3.84 49.63 3.19 12.8 5.23 28.53 8.57 45.9 5.46 14.56-2.6 27.2-10.11 44.64-7.63 17.47 2.48 25.1 11.92 45.5 12.49 19.23.54 40.53-7.5 50.3-13.46 19.94-12.16 94.31-3.51 116.07-16.3 11.89-6.99 11.68-17.47 9.29-27.22h-437.56v30.76c9.92 3.5 13.09 10.11 25.94 12.85v-.01Z" fill="url(#bt)"/><path d="M320.7 3.91c3.32 5.54 19.73 7.08 26.32 10.03 11.57 5.18 20.3 11.98 27.91 19.93 10.69 11.16 21.96 20.78 37.66 28.78 0 0 .01 0 .02.01 24.86 12.67 54.42 1.83 74.58-8.54 16.5-8.48 32.26-12.38 50.45-11.65 7.92.32 24.17 11.19 30.86 16.21 9.68 7.26 30.93 9.87 42.59 8.35 14.62-1.9 24.29-15.92 36.9-18.32 18.49-3.52 32.16 1.85 47.33-11.07 4.46-3.8 5.62-20.1 10.03-24.12 5.25-4.77 12.97-8.03 16.71-14.68H317.92c.74 2.46 1.36 2.72 2.77 5.06l.01.01Z" fill="url(#bu)"/><path opacity=".6" d="M1285.9 114.89 1271.71-.27h-212.96l-151.061-.87s163.921 143.4 168.851 147.34c5.99 4.79 20.69 18.34 28.15 17.65 10.76-1 26.41-21.85 35.69-28.27 9.05-6.26 27.04-20.59 37.45-22.38 15.65-2.69 46.43 13.58 62.25 13.28 11.72-.22 45.83-11.58 45.83-11.58l-.01-.01Z" fill="url(#bv)"/><path d="M1699.67-.27s-134.52 47.79-174.85 73.92c-16.8 10.88-42.64 44.72-59.71 55.09-9.94 6.04-33.64 8.659-43.25 15.299-10.96 7.57-22.77 39.59-35.63 41.22-17.11 2.17-41.6-34.41-57.55-41.53-13.79-6.15-44.14-7.92-58.45-12.4-14.07-4.41-40.44-19.12-54.65-22.94-5.25-1.41-16.4-.7-21.48-2.74-6.79-2.72-17.42-14.46-24.08-17.52-12.56-5.77-40.53-7.12-53.29-12.34-15.53-6.35-57.99-35.24-57.99-35.24V-.27h640.93Z" fill="url(#bw)"/><path opacity=".1" d="M1388.03 155.19c-6.84-11.11-33.61-16.41-45.38-20.05-29.62-9.15-111.65-53.75-124.27-25.92 14.66 4.78 38.66 17.97 51.85 22.1 14.31 4.49 44.67 6.25 58.45 12.4 15.95 7.12 40.44 43.7 57.55 41.53 1.78-.23 3.54-1.03 5.28-2.28 1.96-8.43-.24-22.54-3.47-27.79l-.01.01Z" fill="#000"/><path d="M1634.76-.27s16.37 105.679.76 136.089c-10.55 20.55-55.74 42.46-75.74 54.57-2.41 1.46-7.26 5.3-10.08 5.06-17.34-1.47-38.15-41.869-55.53-41.019-2.06.1-4.04 5.069-6.06 5.489-16.67 3.48-48.79-15.12-64.6-21.36-8.37-3.3-24.57-11.11-32.62-15.08-8.83-4.35-25.5-15.19-34.88-18.26-11.93-3.91-37.5-4.65-49.71-7.62-10.82-2.63-31.1-12.86-42.16-14.21-8.73-1.07-26.54 4.95-35.07 2.85-6.72-1.66-17.34-11.25-23.25-14.79-10.66-6.38-31.99-19.27-43.34-24.38-14.34-6.46-46.33-12.17-59.5-20.68-7.72-4.99-25.08-26.64-25.08-26.64h556.87l-.01-.02Z" fill="url(#bx)"/><path opacity=".1" d="M1550.05 161.519c-6.83-10.39-33.84-17.06-45.96-20.54-27.35-7.85-121.46-45.29-164.89-41.18-1.3.12-.62.99 1.5 2.39 5.94.79 11.37 1.74 15.31 3.03 9.38 3.08 26.04 13.91 34.88 18.26 8.06 3.97 24.26 11.78 32.62 15.08 15.81 6.24 47.93 24.84 64.6 21.36 2.02-.42 4-5.39 6.06-5.49 17.38-.85 38.19 39.55 55.53 41.02 2.04.17 5.14-1.79 7.61-3.44.97-9.5-3.66-25.01-7.26-30.5v.01Z" fill="#000"/><path d="M1407.76 96.22c31.9 2.14 96.61 11.04 125.76 25.8 28.58 14.47 68.13 79.15 98.65 87.09 4.71 1.22 14.57-2.15 18.9-4.56 7.93-4.43 18.04-25.45 26.88-25.97 15.24-.89 50.2 39.15 50.2 39.15V-.26h-591.52s70.11 32.06 94.36 39.7c14.38 4.53 44.7 6.59 58.66 12.54 19.28 8.23 50.83 42.02 70.87 47.49 11.5 3.14 35.43-4.04 47.24-3.25Z" fill="url(#by)"/><path opacity=".1" d="M1537.41 108.66c-38.16-19.13-123.81-21.86-164.78-31-20.13-4.49-70.23-39.91-83.45-25.89.16.07.32.13.48.2 19.28 8.23 50.83 42.02 70.87 47.49 11.5 3.14 35.43-4.04 47.24-3.25 31.9 2.14 96.61 11.04 125.76 25.8 28.58 14.47 68.13 79.15 98.65 87.09 3.99 1.04 11.67-1.22 16.57-3.41 4.16-38.29-79.62-81.14-111.34-97.04v.01Z" fill="#000"/><path d="M1507.71 109.499c17.1 6.2 54.8 3.72 72.21 9 39.68 12.04 148.24 74.42 148.24 74.42V-.271h-543.49s116 48 156.9 55.72c21.21 4 65.67-3.66 86.28 2.75 22.66 7.05 57.55 43.23 79.86 51.31v-.01Z" fill="url(#bz)"/><path opacity=".1" d="M1450.67 62.19c28.43 5.03 83.52 25.26 108.33 40.039 5.61 3.34 20.62 10.58 23.15 16.99-.77-.25-1.51-.49-2.23-.71-17.41-5.28-55.11-2.81-72.21-9-20.73-7.51-52.3-39.26-74.85-49.38 4.7-1.12 13.92 1.38 17.81 2.07v-.01ZM1355.4 42.47c4.97 11.76-24.96-1.25-25.53.63-1.24 4.07 14.03 8.78 11.71 12.35-40.9-7.72-156.9-55.72-156.9-55.72h36.95s120.57 11.53 133.78 42.74h-.01Z" fill="#000"/><path d="M1441.69 41.39c35.37 11.17 112.49 9.89 146.18 25.4 31.04 14.29 71.33 83.469 105.31 87.129 9.79 1.05 34.99-18.07 34.99-18.07V-.271h-375.08s65.26 34.29 88.6 41.66Z" fill="url(#bA)"/><path opacity=".1" d="M1593.22 49.44c19.07 9.43 60.3 57.64 81.55 56.83 2.35-.09 3.87-7.25 6.22-7.06 15.35 1.23 23.76 44.54 12.18 54.7-33.97-3.66-74.27-72.83-105.31-87.13-33.69-15.52-110.8-14.24-146.18-25.4-23.34-7.37-88.6-41.66-88.6-41.66s87.75 25.57 117.56 31.75c30.32 6.29 94.81 4.24 122.58 17.96v.01Z" fill="#000"/><path d="M1207.27-.27c-33.88 4.24-47.44 28.25-75.94 37.48-28.5 9.23-43.5-2.45-60.44 0-16.94 2.45-33.88 7.72-56.75 29.02-22.87 21.31-46.59 32.06-66.92 30.1-20.33-1.96-71.18-51.03-106.73-68.74-6.53-2.63-13.07-5.38-19.66-7.14-21.3-5.7-36.81 12.92-57.41 15.21-26.44 2.94-45.57-7.89-70.42-9.86-22.35-1.77-40.9 16.72-63.37 14.56-22.19-2.13-44.72-13.69-67.08-12.47-18.56 1.01-102.87-8.07-132.8-29.03h488.99v.32c117.85.25 265.17.55 288.52.55h.01Z" fill="url(#bB)"/><path d="M259.211 13.7c-3.38 4.45-10.17 8.91-17.17 10.7-8.06 2.06-15.97 2.57-24.17 5.39-4.46 1.54-9 2.78-13.59 3.83 0 0-.02.01-.05.01-8.2 1.87-16.57 3.1-25.02 4.11-14.25 1.71-28.71 2.82-42.92 5.48v-.56c-17.19 2.24-32.89 4.23-40.36 5.04C74.75 50 60.35 58.13 47.65 62.96c-12.71 4.83-39.81 6.28-61.84-2.07C-36.21 52.54-26.9-1.15-26.9-1.15h288.04c4.22 0-.8 13.35-1.93 14.84v.01Z" fill="url(#bC)"/><path d="M260.63 28.73c18.62 2.54 42.6 3.34 61.95 3.46 14.61.09 23.09-.32 36.97 2.94 15.71 3.69 33.33 7.05 51.12 4.57 11.6-1.61 21.53-6.83 30.83-12.08 6.83-3.85 18.24-10.86 27.58-9.64 4.87.63 13.69 3.19 18.51 4.02 16.03 2.78 65.07-11.6 94.79-23.15H154.27c1.65 2.96 1.84 4.7 6.1 7.42 21.44 13.68 67.73 18.01 100.26 22.45v.01Z" fill="url(#bD)"/></g><defs><linearGradient id="b" x1="911.679" y1="82.669" x2="357.369" y2="82.669" gradientUnits="userSpaceOnUse"><stop stop-color="#F7E3F1"/><stop offset="1" stop-color="#80AFF5"/></linearGradient><linearGradient id="c" x1="960.54" y1="98.779" x2="146.44" y2="98.779" gradientUnits="userSpaceOnUse"><stop stop-color="#EFDCE3"/><stop offset="1" stop-color="#919FF7"/></linearGradient><linearGradient id="d" x1="2286.25" y1="52.78" x2="2287.25" y2="52.78" gradientUnits="userSpaceOnUse"><stop stop-color="#2CE6C4"/><stop offset="1" stop-color="#99F1FF"/></linearGradient><linearGradient id="e" x1="5961.64" y1="31.869" x2="5960.64" y2="31.869" gradientUnits="userSpaceOnUse"><stop stop-color="#2CE6C4"/><stop offset="1" stop-color="#99B0FF"/></linearGradient><linearGradient id="f" x1="-296.5" y1="37.21" x2="-295.5" y2="37.21" gradientUnits="userSpaceOnUse"><stop stop-color="#72CFED"/><stop offset="1" stop-color="#6366F3"/></linearGradient><linearGradient id="g" x1="-296.499" y1="70.541" x2="-295.499" y2="70.541" gradientUnits="userSpaceOnUse"><stop stop-color="#59BBD5"/><stop offset="1" stop-color="#8DA7FF"/></linearGradient><linearGradient id="h" x1="646.548" y1="64.4" x2="830.38" y2="64.4" gradientUnits="userSpaceOnUse"><stop stop-color="#59BBD5"/><stop offset="1" stop-color="#8DA7FF"/></linearGradient><linearGradient id="i" x1="646.543" y1="64.4" x2="830.389" y2="64.4" gradientUnits="userSpaceOnUse"><stop stop-color="#59BBD5"/><stop offset="1" stop-color="#8DA7FF"/></linearGradient><linearGradient id="j" x1="646.552" y1="64.38" x2="830.38" y2="64.38" gradientUnits="userSpaceOnUse"><stop stop-color="#59BBD5"/><stop offset="1" stop-color="#8DA7FF"/></linearGradient><linearGradient id="k" x1="646.586" y1="64.38" x2="830.38" y2="64.38" gradientUnits="userSpaceOnUse"><stop stop-color="#59BBD5"/><stop offset="1" stop-color="#8DA7FF"/></linearGradient><linearGradient id="l" x1="646.537" y1="64.38" x2="830.391" y2="64.38" gradientUnits="userSpaceOnUse"><stop stop-color="#59BBD5"/><stop offset="1" stop-color="#8DA7FF"/></linearGradient><linearGradient id="m" x1="646.553" y1="64.4" x2="830.379" y2="64.4" gradientUnits="userSpaceOnUse"><stop stop-color="#59BBD5"/><stop offset="1" stop-color="#8DA7FF"/></linearGradient><linearGradient id="n" x1="646.588" y1="64.4" x2="830.379" y2="64.4" gradientUnits="userSpaceOnUse"><stop stop-color="#59BBD5"/><stop offset="1" stop-color="#8DA7FF"/></linearGradient><linearGradient id="o" x1="646.536" y1="64.38" x2="830.381" y2="64.38" gradientUnits="userSpaceOnUse"><stop stop-color="#59BBD5"/><stop offset="1" stop-color="#8DA7FF"/></linearGradient><linearGradient id="p" x1="646.541" y1="64.38" x2="830.379" y2="64.38" gradientUnits="userSpaceOnUse"><stop stop-color="#59BBD5"/><stop offset="1" stop-color="#8DA7FF"/></linearGradient><linearGradient id="q" x1="646.541" y1="64.38" x2="830.38" y2="64.38" gradientUnits="userSpaceOnUse"><stop stop-color="#59BBD5"/><stop offset="1" stop-color="#8DA7FF"/></linearGradient><linearGradient id="r" x1="646.54" y1="64.32" x2="830.39" y2="64.32" gradientUnits="userSpaceOnUse"><stop stop-color="#59BBD5"/><stop offset="1" stop-color="#8DA7FF"/></linearGradient><linearGradient id="s" x1="646.543" y1="70.541" x2="830.389" y2="70.541" gradientUnits="userSpaceOnUse"><stop stop-color="#59BBD5"/><stop offset="1" stop-color="#8DA7FF"/></linearGradient><linearGradient id="t" x1="646.55" y1="70.541" x2="830.38" y2="70.541" gradientUnits="userSpaceOnUse"><stop stop-color="#59BBD5"/><stop offset="1" stop-color="#8DA7FF"/></linearGradient><linearGradient id="u" x1="646.562" y1="64.4" x2="830.378" y2="64.4" gradientUnits="userSpaceOnUse"><stop stop-color="#59BBD5"/><stop offset="1" stop-color="#8DA7FF"/></linearGradient><linearGradient id="v" x1="646.569" y1="64.4" x2="830.371" y2="64.4" gradientUnits="userSpaceOnUse"><stop stop-color="#59BBD5"/><stop offset="1" stop-color="#8DA7FF"/></linearGradient><linearGradient id="w" x1="646.541" y1="64.38" x2="830.39" y2="64.38" gradientUnits="userSpaceOnUse"><stop stop-color="#59BBD5"/><stop offset="1" stop-color="#8DA7FF"/></linearGradient><linearGradient id="x" x1="646.541" y1="64.38" x2="830.389" y2="64.38" gradientUnits="userSpaceOnUse"><stop stop-color="#59BBD5"/><stop offset="1" stop-color="#8DA7FF"/></linearGradient><linearGradient id="y" x1="646.541" y1="64.38" x2="830.389" y2="64.38" gradientUnits="userSpaceOnUse"><stop stop-color="#59BBD5"/><stop offset="1" stop-color="#8DA7FF"/></linearGradient><linearGradient id="z" x1="646.594" y1="64.4" x2="830.369" y2="64.4" gradientUnits="userSpaceOnUse"><stop stop-color="#59BBD5"/><stop offset="1" stop-color="#8DA7FF"/></linearGradient><linearGradient id="A" x1="646.54" y1="64.4" x2="830.391" y2="64.4" gradientUnits="userSpaceOnUse"><stop stop-color="#59BBD5"/><stop offset="1" stop-color="#8DA7FF"/></linearGradient><linearGradient id="B" x1="646.552" y1="64.38" x2="830.381" y2="64.38" gradientUnits="userSpaceOnUse"><stop stop-color="#59BBD5"/><stop offset="1" stop-color="#8DA7FF"/></linearGradient><linearGradient id="C" x1="646.542" y1="64.38" x2="830.39" y2="64.38" gradientUnits="userSpaceOnUse"><stop stop-color="#59BBD5"/><stop offset="1" stop-color="#8DA7FF"/></linearGradient><linearGradient id="D" x1="646.542" y1="64.38" x2="830.391" y2="64.38" gradientUnits="userSpaceOnUse"><stop stop-color="#59BBD5"/><stop offset="1" stop-color="#8DA7FF"/></linearGradient><linearGradient id="E" x1="646.552" y1="64.32" x2="830.381" y2="64.32" gradientUnits="userSpaceOnUse"><stop stop-color="#59BBD5"/><stop offset="1" stop-color="#8DA7FF"/></linearGradient><linearGradient id="F" x1="826.479" y1="71.391" x2="643.083" y2="71.391" gradientUnits="userSpaceOnUse"><stop stop-color="#FFFADF"/><stop offset="1" stop-color="#6BCBEE"/></linearGradient><linearGradient id="G" x1="826.468" y1="71.391" x2="643.092" y2="71.391" gradientUnits="userSpaceOnUse"><stop stop-color="#FFFADF"/><stop offset="1" stop-color="#6BCBEE"/></linearGradient><linearGradient id="H" x1="826.478" y1="71.391" x2="643.082" y2="71.391" gradientUnits="userSpaceOnUse"><stop stop-color="#FFFADF"/><stop offset="1" stop-color="#6BCBEE"/></linearGradient><linearGradient id="I" x1="826.473" y1="71.391" x2="643.089" y2="71.391" gradientUnits="userSpaceOnUse"><stop stop-color="#FFFADF"/><stop offset="1" stop-color="#6BCBEE"/></linearGradient><linearGradient id="J" x1="826.463" y1="71.391" x2="643.109" y2="71.391" gradientUnits="userSpaceOnUse"><stop stop-color="#FFFADF"/><stop offset="1" stop-color="#6BCBEE"/></linearGradient><linearGradient id="K" x1="826.472" y1="71.391" x2="643.088" y2="71.391" gradientUnits="userSpaceOnUse"><stop stop-color="#FFFADF"/><stop offset="1" stop-color="#6BCBEE"/></linearGradient><linearGradient id="L" x1="826.482" y1="71.391" x2="643.078" y2="71.391" gradientUnits="userSpaceOnUse"><stop stop-color="#FFFADF"/><stop offset="1" stop-color="#6BCBEE"/></linearGradient><linearGradient id="M" x1="826.452" y1="71.391" x2="643.128" y2="71.391" gradientUnits="userSpaceOnUse"><stop stop-color="#FFFADF"/><stop offset="1" stop-color="#6BCBEE"/></linearGradient><linearGradient id="N" x1="826.471" y1="71.391" x2="643.077" y2="71.391" gradientUnits="userSpaceOnUse"><stop stop-color="#FFFADF"/><stop offset="1" stop-color="#6BCBEE"/></linearGradient><linearGradient id="O" x1="826.471" y1="71.391" x2="643.087" y2="71.391" gradientUnits="userSpaceOnUse"><stop stop-color="#FFFADF"/><stop offset="1" stop-color="#6BCBEE"/></linearGradient><linearGradient id="P" x1="826.469" y1="71.391" x2="643.073" y2="71.391" gradientUnits="userSpaceOnUse"><stop stop-color="#FFFADF"/><stop offset="1" stop-color="#6BCBEE"/></linearGradient><linearGradient id="Q" x1="826.472" y1="71.391" x2="643.087" y2="71.391" gradientUnits="userSpaceOnUse"><stop stop-color="#FFFADF"/><stop offset="1" stop-color="#6BCBEE"/></linearGradient><linearGradient id="R" x1="826.482" y1="71.391" x2="643.057" y2="71.391" gradientUnits="userSpaceOnUse"><stop stop-color="#FFFADF"/><stop offset="1" stop-color="#6BCBEE"/></linearGradient><linearGradient id="S" x1="826.471" y1="71.391" x2="643.057" y2="71.391" gradientUnits="userSpaceOnUse"><stop stop-color="#FFFADF"/><stop offset="1" stop-color="#6BCBEE"/></linearGradient><linearGradient id="T" x1="826.471" y1="71.391" x2="643.067" y2="71.391" gradientUnits="userSpaceOnUse"><stop stop-color="#FFFADF"/><stop offset="1" stop-color="#6BCBEE"/></linearGradient><linearGradient id="U" x1="826.471" y1="71.391" x2="643.067" y2="71.391" gradientUnits="userSpaceOnUse"><stop stop-color="#FFFADF"/><stop offset="1" stop-color="#6BCBEE"/></linearGradient><linearGradient id="V" x1="826.47" y1="71.391" x2="643.078" y2="71.391" gradientUnits="userSpaceOnUse"><stop stop-color="#FFFADF"/><stop offset="1" stop-color="#6BCBEE"/></linearGradient><linearGradient id="W" x1="826.47" y1="71.391" x2="643.111" y2="71.391" gradientUnits="userSpaceOnUse"><stop stop-color="#FFFADF"/><stop offset="1" stop-color="#6BCBEE"/></linearGradient><linearGradient id="X" x1="646.55" y1="70.541" x2="830.392" y2="70.541" gradientUnits="userSpaceOnUse"><stop stop-color="#59BBD5"/><stop offset="1" stop-color="#8DA7FF"/></linearGradient><linearGradient id="Y" x1="646.551" y1="70.541" x2="830.382" y2="70.541" gradientUnits="userSpaceOnUse"><stop stop-color="#59BBD5"/><stop offset="1" stop-color="#8DA7FF"/></linearGradient><linearGradient id="Z" x1="646.55" y1="64.4" x2="830.382" y2="64.4" gradientUnits="userSpaceOnUse"><stop stop-color="#59BBD5"/><stop offset="1" stop-color="#8DA7FF"/></linearGradient><linearGradient id="aa" x1="646.541" y1="64.4" x2="830.392" y2="64.4" gradientUnits="userSpaceOnUse"><stop stop-color="#59BBD5"/><stop offset="1" stop-color="#8DA7FF"/></linearGradient><linearGradient id="ab" x1="646.552" y1="64.38" x2="830.381" y2="64.38" gradientUnits="userSpaceOnUse"><stop stop-color="#59BBD5"/><stop offset="1" stop-color="#8DA7FF"/></linearGradient><linearGradient id="ac" x1="646.55" y1="64.38" x2="830.392" y2="64.38" gradientUnits="userSpaceOnUse"><stop stop-color="#59BBD5"/><stop offset="1" stop-color="#8DA7FF"/></linearGradient><linearGradient id="ad" x1="646.562" y1="64.38" x2="830.35" y2="64.38" gradientUnits="userSpaceOnUse"><stop stop-color="#59BBD5"/><stop offset="1" stop-color="#8DA7FF"/></linearGradient><linearGradient id="ae" x1="646.542" y1="64.4" x2="830.391" y2="64.4" gradientUnits="userSpaceOnUse"><stop stop-color="#59BBD5"/><stop offset="1" stop-color="#8DA7FF"/></linearGradient><linearGradient id="af" x1="646.544" y1="64.4" x2="830.39" y2="64.4" gradientUnits="userSpaceOnUse"><stop stop-color="#59BBD5"/><stop offset="1" stop-color="#8DA7FF"/></linearGradient><linearGradient id="ag" x1="646.553" y1="64.38" x2="830.392" y2="64.38" gradientUnits="userSpaceOnUse"><stop stop-color="#59BBD5"/><stop offset="1" stop-color="#8DA7FF"/></linearGradient><linearGradient id="ah" x1="646.552" y1="64.38" x2="830.391" y2="64.38" gradientUnits="userSpaceOnUse"><stop stop-color="#59BBD5"/><stop offset="1" stop-color="#8DA7FF"/></linearGradient><linearGradient id="ai" x1="646.553" y1="64.38" x2="830.391" y2="64.38" gradientUnits="userSpaceOnUse"><stop stop-color="#59BBD5"/><stop offset="1" stop-color="#8DA7FF"/></linearGradient><linearGradient id="aj" x1="646.552" y1="64.32" x2="830.382" y2="64.32" gradientUnits="userSpaceOnUse"><stop stop-color="#59BBD5"/><stop offset="1" stop-color="#8DA7FF"/></linearGradient><linearGradient id="ak" x1="826.482" y1="71.391" x2="643.082" y2="71.391" gradientUnits="userSpaceOnUse"><stop stop-color="#FFFADF"/><stop offset="1" stop-color="#6BCBEE"/></linearGradient><linearGradient id="al" x1="826.431" y1="71.391" x2="643.101" y2="71.391" gradientUnits="userSpaceOnUse"><stop stop-color="#FFFADF"/><stop offset="1" stop-color="#6BCBEE"/></linearGradient><linearGradient id="am" x1="826.483" y1="71.391" x2="643.079" y2="71.391" gradientUnits="userSpaceOnUse"><stop stop-color="#FFFADF"/><stop offset="1" stop-color="#6BCBEE"/></linearGradient><linearGradient id="an" x1="826.471" y1="71.391" x2="643.091" y2="71.391" gradientUnits="userSpaceOnUse"><stop stop-color="#FFFADF"/><stop offset="1" stop-color="#6BCBEE"/></linearGradient><linearGradient id="ao" x1="826.483" y1="71.391" x2="643.082" y2="71.391" gradientUnits="userSpaceOnUse"><stop stop-color="#FFFADF"/><stop offset="1" stop-color="#6BCBEE"/></linearGradient><linearGradient id="ap" x1="826.482" y1="71.391" x2="643.082" y2="71.391" gradientUnits="userSpaceOnUse"><stop stop-color="#FFFADF"/><stop offset="1" stop-color="#6BCBEE"/></linearGradient><linearGradient id="aq" x1="826.482" y1="71.391" x2="643.082" y2="71.391" gradientUnits="userSpaceOnUse"><stop stop-color="#FFFADF"/><stop offset="1" stop-color="#6BCBEE"/></linearGradient><linearGradient id="ar" x1="826.482" y1="71.391" x2="643.081" y2="71.391" gradientUnits="userSpaceOnUse"><stop stop-color="#FFFADF"/><stop offset="1" stop-color="#6BCBEE"/></linearGradient><linearGradient id="as" x1="826.439" y1="71.391" x2="643.113" y2="71.391" gradientUnits="userSpaceOnUse"><stop stop-color="#FFFADF"/><stop offset="1" stop-color="#6BCBEE"/></linearGradient><linearGradient id="at" x1="826.479" y1="71.391" x2="643.083" y2="71.391" gradientUnits="userSpaceOnUse"><stop stop-color="#FFFADF"/><stop offset="1" stop-color="#6BCBEE"/></linearGradient><linearGradient id="au" x1="646.551" y1="70.541" x2="830.39" y2="70.541" gradientUnits="userSpaceOnUse"><stop stop-color="#59BBD5"/><stop offset="1" stop-color="#8DA7FF"/></linearGradient><linearGradient id="av" x1="646.551" y1="70.541" x2="830.381" y2="70.541" gradientUnits="userSpaceOnUse"><stop stop-color="#59BBD5"/><stop offset="1" stop-color="#8DA7FF"/></linearGradient><linearGradient id="aw" x1="646.55" y1="64.4" x2="830.379" y2="64.4" gradientUnits="userSpaceOnUse"><stop stop-color="#59BBD5"/><stop offset="1" stop-color="#8DA7FF"/></linearGradient><linearGradient id="ax" x1="646.55" y1="64.4" x2="830.369" y2="64.4" gradientUnits="userSpaceOnUse"><stop stop-color="#59BBD5"/><stop offset="1" stop-color="#8DA7FF"/></linearGradient><linearGradient id="ay" x1="646.551" y1="64.38" x2="830.393" y2="64.38" gradientUnits="userSpaceOnUse"><stop stop-color="#59BBD5"/><stop offset="1" stop-color="#8DA7FF"/></linearGradient><linearGradient id="az" x1="646.55" y1="64.38" x2="830.388" y2="64.38" gradientUnits="userSpaceOnUse"><stop stop-color="#59BBD5"/><stop offset="1" stop-color="#8DA7FF"/></linearGradient><linearGradient id="aA" x1="646.55" y1="64.38" x2="830.392" y2="64.38" gradientUnits="userSpaceOnUse"><stop stop-color="#59BBD5"/><stop offset="1" stop-color="#8DA7FF"/></linearGradient><linearGradient id="aB" x1="646.551" y1="64.4" x2="830.39" y2="64.4" gradientUnits="userSpaceOnUse"><stop stop-color="#59BBD5"/><stop offset="1" stop-color="#8DA7FF"/></linearGradient><linearGradient id="aC" x1="646.551" y1="64.4" x2="830.39" y2="64.4" gradientUnits="userSpaceOnUse"><stop stop-color="#59BBD5"/><stop offset="1" stop-color="#8DA7FF"/></linearGradient><linearGradient id="aD" x1="646.552" y1="64.38" x2="830.393" y2="64.38" gradientUnits="userSpaceOnUse"><stop stop-color="#59BBD5"/><stop offset="1" stop-color="#8DA7FF"/></linearGradient><linearGradient id="aE" x1="646.551" y1="64.38" x2="830.39" y2="64.38" gradientUnits="userSpaceOnUse"><stop stop-color="#59BBD5"/><stop offset="1" stop-color="#8DA7FF"/></linearGradient><linearGradient id="aF" x1="646.541" y1="64.38" x2="830.403" y2="64.38" gradientUnits="userSpaceOnUse"><stop stop-color="#59BBD5"/><stop offset="1" stop-color="#8DA7FF"/></linearGradient><linearGradient id="aG" x1="646.552" y1="64.32" x2="830.382" y2="64.32" gradientUnits="userSpaceOnUse"><stop stop-color="#59BBD5"/><stop offset="1" stop-color="#8DA7FF"/></linearGradient><linearGradient id="aH" x1="826.474" y1="71.391" x2="643.091" y2="71.391" gradientUnits="userSpaceOnUse"><stop stop-color="#FFFADF"/><stop offset="1" stop-color="#6BCBEE"/></linearGradient><linearGradient id="aI" x1="826.45" y1="71.391" x2="643.09" y2="71.391" gradientUnits="userSpaceOnUse"><stop stop-color="#FFFADF"/><stop offset="1" stop-color="#6BCBEE"/></linearGradient><linearGradient id="aJ" x1="826.5" y1="71.391" x2="643.08" y2="71.391" gradientUnits="userSpaceOnUse"><stop stop-color="#FFFADF"/><stop offset="1" stop-color="#6BCBEE"/></linearGradient><linearGradient id="aK" x1="826.482" y1="71.391" x2="643.082" y2="71.391" gradientUnits="userSpaceOnUse"><stop stop-color="#FFFADF"/><stop offset="1" stop-color="#6BCBEE"/></linearGradient><linearGradient id="aL" x1="826.502" y1="71.391" x2="643.081" y2="71.391" gradientUnits="userSpaceOnUse"><stop stop-color="#FFFADF"/><stop offset="1" stop-color="#6BCBEE"/></linearGradient><linearGradient id="aM" x1="826.471" y1="71.391" x2="643.091" y2="71.391" gradientUnits="userSpaceOnUse"><stop stop-color="#FFFADF"/><stop offset="1" stop-color="#6BCBEE"/></linearGradient><linearGradient id="aN" x1="826.451" y1="71.391" x2="643.091" y2="71.391" gradientUnits="userSpaceOnUse"><stop stop-color="#FFFADF"/><stop offset="1" stop-color="#6BCBEE"/></linearGradient><linearGradient id="aO" x1="826.471" y1="71.391" x2="643.091" y2="71.391" gradientUnits="userSpaceOnUse"><stop stop-color="#FFFADF"/><stop offset="1" stop-color="#6BCBEE"/></linearGradient><linearGradient id="aP" x1="826.49" y1="71.391" x2="643.081" y2="71.391" gradientUnits="userSpaceOnUse"><stop stop-color="#FFFADF"/><stop offset="1" stop-color="#6BCBEE"/></linearGradient><linearGradient id="aQ" x1="826.48" y1="71.391" x2="643.08" y2="71.391" gradientUnits="userSpaceOnUse"><stop stop-color="#FFFADF"/><stop offset="1" stop-color="#6BCBEE"/></linearGradient><linearGradient id="aR" x1="586.84" y1="70.42" x2="921.15" y2="70.42" gradientUnits="userSpaceOnUse"><stop stop-color="#72CFED"/><stop offset="1" stop-color="#6366F3"/></linearGradient><linearGradient id="aS" x1="2025.48" y1="14.42" x2="525.369" y2="119.75" gradientUnits="userSpaceOnUse"><stop stop-color="#2CE6C4"/><stop offset="1" stop-color="#99DFFF"/></linearGradient><linearGradient id="aT" x1="471.159" y1="23.669" x2="421.749" y2="159.429" gradientUnits="userSpaceOnUse"><stop stop-color="#2CE6C4"/><stop offset="1" stop-color="#99DFFF"/></linearGradient><linearGradient id="aU" x1="309.289" y1="23.709" x2="266.969" y2="139.989" gradientUnits="userSpaceOnUse"><stop stop-color="#2CE6C4"/><stop offset="1" stop-color="#99DFFF"/></linearGradient><linearGradient id="aV" x1="229.55" y1="26.919" x2="190.44" y2="134.39" gradientUnits="userSpaceOnUse"><stop stop-color="#2CE6C4"/><stop offset="1" stop-color="#99B0FF"/></linearGradient><linearGradient id="aW" x1="356.229" y1="23.7" x2="319.829" y2="123.69" gradientUnits="userSpaceOnUse"><stop stop-color="#2CE6C4"/><stop offset="1" stop-color="#99B0FF"/></linearGradient><linearGradient id="aX" x1="411.36" y1="26.27" x2="370.82" y2="137.65" gradientUnits="userSpaceOnUse"><stop stop-color="#59BBD5"/><stop offset="1" stop-color="#8DA7FF"/></linearGradient><linearGradient id="aY" x1="2025.48" y1="18.369" x2="297.498" y2="100.669" gradientUnits="userSpaceOnUse"><stop stop-color="#99B0FF"/><stop offset="1" stop-color="#7A99FF"/></linearGradient><linearGradient id="aZ" x1="204.63" y1="27.239" x2="166.71" y2="131.419" gradientUnits="userSpaceOnUse"><stop stop-color="#72CFED"/><stop offset="1" stop-color="#6366F3"/></linearGradient><linearGradient id="ba" x1="521.819" y1="18.52" x2="481.139" y2="130.29" gradientUnits="userSpaceOnUse"><stop stop-color="#2CE6C4"/><stop offset="1" stop-color="#99B0FF"/></linearGradient><linearGradient id="bb" x1="270.548" y1="16.43" x2="233.658" y2="117.769" gradientUnits="userSpaceOnUse"><stop stop-color="#72CFED"/><stop offset="1" stop-color="#6366F3"/></linearGradient><linearGradient id="bc" x1="539.838" y1="10.45" x2="503.448" y2="110.44" gradientUnits="userSpaceOnUse"><stop stop-color="#72CFED"/><stop offset="1" stop-color="#6366F3"/></linearGradient><linearGradient id="bd" x1="335.139" y1="28.1" x2="297.889" y2="130.44" gradientUnits="userSpaceOnUse"><stop stop-color="#59BBD5"/><stop offset="1" stop-color="#8DA7FF"/></linearGradient><linearGradient id="be" x1="476.77" y1="21.38" x2="437.26" y2="129.929" gradientUnits="userSpaceOnUse"><stop stop-color="#59BBD5"/><stop offset="1" stop-color="#8DA7FF"/></linearGradient><linearGradient id="bf" x1="432.34" y1="5.199" x2="388.35" y2="126.079" gradientUnits="userSpaceOnUse"><stop stop-color="#2CE6C4"/><stop offset="1" stop-color="#99B0FF"/></linearGradient><linearGradient id="bg" x1="384.529" y1="21.5" x2="347.079" y2="124.389" gradientUnits="userSpaceOnUse"><stop stop-color="#99B0FF"/><stop offset="1" stop-color="#7A99FF"/></linearGradient><linearGradient id="bh" x1="447.619" y1="25.849" x2="403.509" y2="147.039" gradientUnits="userSpaceOnUse"><stop stop-color="#72CFED"/><stop offset="1" stop-color="#6366F3"/></linearGradient><linearGradient id="bi" x1="495.22" y1="22.579" x2="461.49" y2="115.249" gradientUnits="userSpaceOnUse"><stop stop-color="#99B0FF"/><stop offset="1" stop-color="#7A99FF"/></linearGradient><linearGradient id="bj" x1="173.239" y1="23.759" x2="141.059" y2="112.179" gradientUnits="userSpaceOnUse"><stop stop-color="#99B0FF"/><stop offset="1" stop-color="#7A99FF"/></linearGradient><linearGradient id="bk" x1="131.42" y1="14.42" x2="93.08" y2="119.75" gradientUnits="userSpaceOnUse"><stop stop-color="#2CE6C4"/><stop offset="1" stop-color="#99DFFF"/></linearGradient><linearGradient id="bl" x1="38.87" y1="23.669" x2="-10.54" y2="159.429" gradientUnits="userSpaceOnUse"><stop stop-color="#2CE6C4"/><stop offset="1" stop-color="#99DFFF"/></linearGradient><linearGradient id="bm" x1="89.53" y1="18.52" x2="48.85" y2="130.29" gradientUnits="userSpaceOnUse"><stop stop-color="#2CE6C4"/><stop offset="1" stop-color="#99B0FF"/></linearGradient><linearGradient id="bn" x1="107.549" y1="10.45" x2="71.149" y2="110.44" gradientUnits="userSpaceOnUse"><stop stop-color="#72CFED"/><stop offset="1" stop-color="#6366F3"/></linearGradient><linearGradient id="bo" x1="44.481" y1="21.38" x2="4.971" y2="129.929" gradientUnits="userSpaceOnUse"><stop stop-color="#59BBD5"/><stop offset="1" stop-color="#8DA7FF"/></linearGradient><linearGradient id="bp" x1=".049" y1="5.199" x2="-43.951" y2="126.079" gradientUnits="userSpaceOnUse"><stop stop-color="#2CE6C4"/><stop offset="1" stop-color="#99B0FF"/></linearGradient><linearGradient id="bq" x1="15.33" y1="25.849" x2="-28.78" y2="147.039" gradientUnits="userSpaceOnUse"><stop stop-color="#72CFED"/><stop offset="1" stop-color="#6366F3"/></linearGradient><linearGradient id="br" x1="62.931" y1="22.579" x2="29.201" y2="115.249" gradientUnits="userSpaceOnUse"><stop stop-color="#99B0FF"/><stop offset="1" stop-color="#7A99FF"/></linearGradient><linearGradient id="bs" x1="741.602" y1="45.088" x2="418.612" y2="59.698" gradientUnits="userSpaceOnUse"><stop stop-color="#99B0FF"/><stop offset="1" stop-color="#2CE6C4"/></linearGradient><linearGradient id="bt" x1="92.599" y1="27.36" x2="575.149" y2="27.36" gradientUnits="userSpaceOnUse"><stop stop-color="#99B0FF"/><stop offset="1" stop-color="#2CE6C4"/></linearGradient><linearGradient id="bu" x1="722.08" y1="33.63" x2="317.93" y2="33.63" gradientUnits="userSpaceOnUse"><stop stop-color="#59BBD5"/><stop offset="1" stop-color="#8DA7FF"/></linearGradient><linearGradient id="bv" x1="2025.48" y1="1.99" x2="2024.48" y2="128.79" gradientUnits="userSpaceOnUse"><stop stop-color="#99F1FF"/><stop offset="1" stop-color="#75FFF6"/></linearGradient><linearGradient id="bw" x1="-296.5" y1="-13.271" x2="1453.77" y2="57.96" gradientUnits="userSpaceOnUse"><stop stop-color="#99F1FF"/><stop offset="1" stop-color="#2CE6C4"/></linearGradient><linearGradient id="bx" x1="1390.77" y1="24.95" x2="1603.08" y2="118.53" gradientUnits="userSpaceOnUse"><stop stop-color="#99B0FF"/><stop offset="1" stop-color="#2CE6C4"/></linearGradient><linearGradient id="by" x1="1636.4" y1="-95.27" x2="1367.34" y2="173.79" gradientUnits="userSpaceOnUse"><stop stop-color="#59BBD5"/><stop offset="1" stop-color="#8DA7FF"/></linearGradient><linearGradient id="bz" x1="-979.47" y1="-136.141" x2="-978.47" y2="232.199" gradientUnits="userSpaceOnUse"><stop stop-color="#6E8EFF"/><stop offset="1" stop-color="#49B5D1"/></linearGradient><linearGradient id="bA" x1="1446.85" y1="-94.04" x2="1702.45" y2="161.56" gradientUnits="userSpaceOnUse"><stop stop-color="#6366F3"/><stop offset="1" stop-color="#72CFED"/></linearGradient><linearGradient id="bB" x1="1170.05" y1="112.87" x2="502.35" y2="-99.28" gradientUnits="userSpaceOnUse"><stop stop-color="#6366F3"/><stop offset="1" stop-color="#72CFED"/></linearGradient><linearGradient id="bC" x1="183.431" y1="32.87" x2="17.111" y2="32.87" gradientUnits="userSpaceOnUse"><stop stop-color="#3FE8C9"/><stop offset="1" stop-color="#59BBD5"/></linearGradient><linearGradient id="bD" x1="2025.48" y1="19.7" x2="2024.48" y2="19.7" gradientUnits="userSpaceOnUse"><stop stop-color="#49B5D1"/><stop offset="1" stop-color="#829FFF"/></linearGradient><clipPath id="a"><path fill="#fff" d="M0 0h1728v218H0z"/></clipPath></defs></svg>