<svg xmlns="http://www.w3.org/2000/svg" width="100" height="100" fill="none"><path fill="url(#a)" fill-rule="evenodd" d="M11 94.461A5.539 5.539 0 0 0 16.539 100l.01-.01a5.539 5.539 0 0 0 5.538-5.539V61.494l1.078.366c3.374 1.158 6.88 1.717 10.7 1.717 7.084 0 14.198-1.951 21.068-3.841l.102-.03c7.052-1.942 13.72-3.771 20.416-3.771 4.553 0 8.669.864 12.551 2.632.173.081.356.122.549.122.244 0 .488-.071.711-.213.366-.234.59-.64.59-1.088V6.565c0-.508-.305-.986-.752-1.189-4.238-1.92-8.7-2.856-13.639-2.856-7.154 0-14.278 1.972-21.168 3.882l-.049.014c-7.025 1.926-13.666 3.747-20.358 3.747-4.085 0-7.774-.681-11.3-2.094l-.509-.203V5.539a5.539 5.539 0 1 0-11.077 0V94.46ZM13.612 5.54a2.928 2.928 0 0 1 5.853 0V94.46a2.928 2.928 0 0 1-5.853 0V5.54Zm8.973 53.343-.508-.203h.01V10.71l1.078.366c3.364 1.138 6.86 1.697 10.68 1.697 7.106 0 14.232-1.961 21.157-3.867l.053-.015.017-.004c7.036-1.93 13.698-3.756 20.38-3.756 4.074 0 7.753.681 11.27 2.083l.508.204v47.998l-1.078-.366c-3.374-1.149-6.88-1.708-10.721-1.708-7.155 0-14.258 1.952-21.179 3.862l-.079.022c-7.023 1.923-13.655 3.738-20.317 3.738-4.076 0-7.754-.68-11.27-2.083Zm18.06-25.813c0 7.724 6.28 14.004 14.003 14.004 7.724 0 14.004-6.28 14.004-14.004 0-7.724-6.28-14.004-14.004-14.004-7.723 0-14.004 6.28-14.004 14.004Zm2.6 0c0-6.29 5.123-11.402 11.403-11.402 6.29 0 11.403 5.111 11.403 11.402 0 6.29-5.112 11.402-11.403 11.402-6.29 0-11.402-5.111-11.402-11.402Z" clip-rule="evenodd"/><defs><linearGradient id="a" x1="12.947" x2="96.97" y1="-6.429" y2="72.525" gradientUnits="userSpaceOnUse"><stop stop-color="#E6007A"/><stop offset=".21" stop-color="#703AC2"/><stop offset=".46" stop-color="#0070EB"/><stop offset=".77" stop-color="#0297FB"/><stop offset="1" stop-color="#0AE2FF"/></linearGradient></defs></svg>