<svg xmlns="http://www.w3.org/2000/svg" width="100" height="100" fill="none"><path fill="url(#a)" d="M84.873 100a15.116 15.116 0 0 1-9.627-3.47 1.1 1.1 0 0 1-.252-.222c-3.35-2.918-5.262-7.083-5.262-11.469 0-3.511 1.238-6.932 3.471-9.638l.171-.211-4.426-4.477-.212.191a27.276 27.276 0 0 1-1.89 1.56c-.092.08-.172.14-.242.18a27.231 27.231 0 0 1-14.628 5.222l-.282.02v4.537l.252.04a8.685 8.685 0 0 1 7.293 8.602c0 4.809-3.913 8.723-8.722 8.723-4.809 0-8.722-3.914-8.722-8.723a8.685 8.685 0 0 1 7.294-8.601l.251-.04v-4.538l-.282-.02a27.22 27.22 0 0 1-14.607-5.201c-.302-.171-.574-.403-.825-.624l-.272-.231c-.362-.302-.724-.604-1.076-.916l-.212-.191-4.416 4.416.17.212a15.179 15.179 0 0 1 3.472 9.638c0 8.35-6.791 15.15-15.141 15.15S1 93.14 1 84.79c0-8.35 6.79-15.151 15.14-15.151 3.502 0 6.922 1.227 9.629 3.47l.21.172 4.417-4.417-.19-.211c-4.166-4.638-6.64-10.594-6.962-16.79l-.02-.282h-4.528l-.04.251a8.684 8.684 0 0 1-8.602 7.304c-4.809 0-8.722-3.914-8.722-8.722 0-4.81 3.913-8.723 8.722-8.723a8.685 8.685 0 0 1 8.602 7.294l.04.251h4.527l.02-.281a27.34 27.34 0 0 1 6.962-16.781l.191-.211-4.527-4.527-.211.14a15.027 15.027 0 0 1-8.662 2.737 15.12 15.12 0 0 1-9.658-3.491c-.09-.06-.15-.12-.211-.181-3.35-2.918-5.262-7.093-5.262-11.49C1.865 6.8 8.655 0 17.006 0c8.35 0 15.14 6.8 15.14 15.15 0 3.945-1.518 7.687-4.275 10.534l-.211.211 4.386 4.387.212-.192c4.627-4.164 10.583-6.64 16.78-6.961l.282-.02V18.58l-.252-.04a8.687 8.687 0 0 1-7.293-8.611c0-4.81 3.913-8.723 8.722-8.723 4.809 0 8.722 3.914 8.722 8.723a8.703 8.703 0 0 1-7.294 8.611l-.251.04v4.538l.282.02A27.348 27.348 0 0 1 64.26 26.82a27.491 27.491 0 0 1 4.466 3.27l.212.19 4.356-4.406-.201-.211c-2.737-2.847-4.246-6.57-4.246-10.503 0-8.35 6.79-15.15 15.14-15.15 4.035 0 7.838 1.579 10.705 4.446A15.038 15.038 0 0 1 99.13 15.16c0 4.396-1.912 8.571-5.252 11.459-.08.08-.14.14-.211.18a15.168 15.168 0 0 1-9.678 3.502c-3.129 0-6.137-.956-8.702-2.757l-.212-.15-4.486 4.537.19.21a27.78 27.78 0 0 1 3.26 4.438c.09.16.181.311.272.472l.06.111c.312.563.11 1.278-.453 1.6-.17.1-.372.15-.573.15-.422 0-.815-.23-1.026-.603l-.07-.12c-.081-.142-.151-.273-.232-.403-4.477-7.626-12.726-12.354-21.54-12.354-13.762 0-24.949 11.197-24.949 24.97 0 6.92 2.777 13.37 7.827 18.138l.443.423.07-.604c.604-5.573 5.302-6.84 9.085-7.847l.734-.201c.342-.09.624-.423.906-1.036l.1-.232-.211-.14c-3.692-2.536-6.278-6.771-6.278-10.313v-3.4c0-3.058.704-5.744 2.093-7.978.211-.342.583-.553.996-.553.221 0 .432.06.613.181.544.342.715 1.066.373 1.61-.865 1.388-1.409 3.008-1.63 4.829l-.06.543.492-.231c.634-.302 1.047-.725 1.48-1.167.653-.664 1.458-1.49 2.877-1.49.362 0 .744.05 1.157.162.563.14 1.036.271 1.448.382 1.288.342 1.912.513 2.435.513.523 0 1.157-.171 2.394-.503.423-.11.916-.241 1.49-.392.402-.101.794-.161 1.156-.161 1.419 0 2.223.825 2.877 1.489.433.442.845.865 1.48 1.167l.492.23-.07-.542c-.785-6.419-5.493-9.377-9.82-9.457a10.13 10.13 0 0 0-4.094.946 1.26 1.26 0 0 1-.503.11c-.452 0-.865-.261-1.056-.674a1.173 1.173 0 0 1 .553-1.56 12.484 12.484 0 0 1 5.07-1.176c3.26.05 6.258 1.318 8.492 3.551 2.495 2.505 3.813 6.016 3.813 10.151v3.4c0 3.542-2.576 7.777-6.278 10.312l-.211.141.1.231c.282.614.564.946.906 1.037l.734.201c3.773 1.016 8.47 2.274 9.084 7.847l.07.604.444-.423c5.04-4.769 7.827-11.217 7.827-18.139 0-2.032-.242-4.034-.715-5.965a1.178 1.178 0 0 1 .855-1.419c.09-.02.192-.03.282-.03.543 0 1.006.362 1.137.895.402 1.64.654 3.34.744 5.07l.02.282h4.528l.04-.251a8.685 8.685 0 0 1 8.602-7.294c4.808 0 8.722 3.913 8.722 8.722 0 4.81-3.914 8.723-8.722 8.723a8.685 8.685 0 0 1-8.602-7.304l-.04-.252H77.75l-.02.282a27.43 27.43 0 0 1-6.972 16.8l-.19.212 4.426 4.477.211-.171a15.163 15.163 0 0 1 9.628-3.46c4.034 0 7.837 1.579 10.704 4.446a15.038 15.038 0 0 1 4.437 10.704 15.16 15.16 0 0 1-5.232 11.439c-.09.1-.17.17-.251.221a15.17 15.17 0 0 1-9.658 3.48l.04.011ZM80.92 88.773a7.916 7.916 0 0 0-3.853 6.046l-.02.17.131.102a12.693 12.693 0 0 0 7.686 2.575c2.797 0 5.453-.885 7.686-2.575l.131-.101-.02-.171a7.896 7.896 0 0 0-3.843-6.046l-.151-.09-.15.09a7.053 7.053 0 0 1-3.643 1.016 7.053 7.053 0 0 1-3.642-1.016l-.15-.09-.151.09h-.01Zm-68.732-.07a7.88 7.88 0 0 0-3.843 6.046l-.02.17.13.101a12.693 12.693 0 0 0 7.687 2.576c2.797 0 5.453-.886 7.686-2.576l.13-.1-.02-.171a7.88 7.88 0 0 0-3.853-6.047l-.15-.09-.151.09a7.026 7.026 0 0 1-3.642 1.016 7.088 7.088 0 0 1-3.652-1.016l-.151-.09-.15.09Zm38.32-4.216a6.38 6.38 0 0 0-6.378 6.378 6.38 6.38 0 0 0 6.378 6.379 6.387 6.387 0 0 0 6.378-6.379 6.387 6.387 0 0 0-6.378-6.378Zm34.366-12.445c-7.062 0-12.797 5.745-12.797 12.807 0 2.797.886 5.453 2.576 7.686l.352.463.181-.553a10.307 10.307 0 0 1 3.853-5.242l.252-.17-.171-.252a7.015 7.015 0 0 1-1.288-4.065 7.076 7.076 0 0 1 7.072-7.072 7.076 7.076 0 0 1 7.073 7.072 7.015 7.015 0 0 1-1.288 4.065l-.17.251.25.171a10.272 10.272 0 0 1 3.844 5.252l.18.553.353-.463a12.693 12.693 0 0 0 2.575-7.686c0-7.062-5.744-12.807-12.796-12.807l-.05-.01Zm-68.732 3.541c3.893 0 7.072 3.17 7.072 7.073a7.016 7.016 0 0 1-1.287 4.064l-.171.252.251.17a10.306 10.306 0 0 1 3.853 5.242l.181.554.352-.463a12.693 12.693 0 0 0 2.576-7.686c0-7.063-5.745-12.807-12.797-12.807-7.052 0-12.797 5.744-12.797 12.807 0 2.796.886 5.452 2.566 7.686l.352.463.18-.554a10.265 10.265 0 0 1 3.854-5.241l.252-.171-.172-.252a7.016 7.016 0 0 1-1.287-4.064 7.076 7.076 0 0 1 7.072-7.073h-.05Zm68.732 2.415a4.736 4.736 0 0 0-4.728 4.728 4.736 4.736 0 0 0 4.728 4.729 4.736 4.736 0 0 0 4.729-4.729 4.736 4.736 0 0 0-4.729-4.728Zm-68.732-.07a4.736 4.736 0 0 0-4.728 4.728 4.736 4.736 0 0 0 4.728 4.728 4.736 4.736 0 0 0 4.728-4.728 4.736 4.736 0 0 0-4.728-4.728ZM41.815 63.27c-3.582 1.096-5.654 2.484-5.654 6.318v1.237l.13.09a24.767 24.767 0 0 0 14.216 4.457c5.11 0 10.02-1.539 14.215-4.457l.131-.09v-1.237c0-3.834-2.072-5.212-5.654-6.318l-.13-.04-6.44 3.772c-.794.513-1.468.755-2.122.755-.654 0-1.328-.232-2.113-.745l-6.448-3.783-.131.04Zm4.839-2.858c-.352.715-.765 1.248-1.268 1.63l-.362.272 4.568 2.676c.382.251.633.412.915.412.282 0 .523-.16.865-.382l4.618-2.706-.362-.272c-.503-.382-.916-.915-1.268-1.63l-.12-.251-.544.211c-1.157.433-2.173.634-3.189.634s-2.032-.201-3.19-.634l-.482-.19-.171.23h-.01ZM45.487 43.28c-.453 0-.694.251-1.217.784-.684.705-1.63 1.66-3.461 2.093l-.231.05v2.364c0 3.552 3.601 8.13 7.565 9.598.895.332 1.65.493 2.374.493.724 0 1.479-.15 2.374-.483 3.964-1.469 7.566-6.036 7.566-9.598v-2.364l-.232-.05c-1.83-.433-2.776-1.388-3.46-2.093-.534-.543-.775-.784-1.228-.784-.18 0-.372.04-.543.09-.563.151-1.046.272-1.469.383-1.398.372-2.173.583-3.008.583s-1.6-.211-2.998-.583c-.442-.121-.915-.242-1.469-.393a2.116 2.116 0 0 0-.543-.09h-.02Zm45.463.744a6.38 6.38 0 0 0-6.379 6.378 6.38 6.38 0 0 0 6.379 6.379c3.52 0 6.378-2.867 6.378-6.379 0-3.51-2.857-6.378-6.378-6.378Zm-80.896 0a6.38 6.38 0 0 0-6.378 6.378 6.38 6.38 0 0 0 6.378 6.379 6.387 6.387 0 0 0 6.379-6.379 6.387 6.387 0 0 0-6.379-6.378Zm70-24.95a7.87 7.87 0 0 0-3.843 6.047l-.02.17.13.101a12.693 12.693 0 0 0 7.687 2.576c2.797 0 5.453-.886 7.686-2.576l.13-.1-.02-.171a7.912 7.912 0 0 0-3.842-6.047l-.151-.09-.151.09a7.053 7.053 0 0 1-3.642 1.016 7.052 7.052 0 0 1-3.642-1.016l-.15-.09-.152.09h-.02Zm-67.002 0A7.88 7.88 0 0 0 9.2 25.121l-.02.17.13.101a12.693 12.693 0 0 0 7.687 2.576c2.797 0 5.453-.886 7.686-2.576l.13-.1-.02-.171a7.881 7.881 0 0 0-3.852-6.047l-.151-.09-.151.09a7.026 7.026 0 0 1-7.284 0l-.15-.09-.152.09Zm3.954-13.128c3.893 0 7.072 3.169 7.072 7.072a7.015 7.015 0 0 1-1.287 4.064l-.171.252.251.171a10.306 10.306 0 0 1 3.853 5.242l.181.553.352-.463a12.693 12.693 0 0 0 2.576-7.686c0-7.062-5.744-12.807-12.797-12.807C9.984 2.344 4.21 8.09 4.21 15.151c0 2.797.886 5.453 2.576 7.686l.352.463.18-.553a10.307 10.307 0 0 1 3.854-5.242l.252-.171-.171-.252a7.015 7.015 0 0 1-1.288-4.064 7.076 7.076 0 0 1 7.072-7.072h-.03Zm67.002 0c3.893 0 7.073 3.169 7.073 7.072a6.931 6.931 0 0 1-1.298 4.064l-.171.242.251.171a10.306 10.306 0 0 1 3.853 5.241l.181.554.352-.463a12.693 12.693 0 0 0 2.576-7.686c0-7.063-5.745-12.807-12.797-12.807-7.052 0-12.797 5.744-12.797 12.807 0 2.797.886 5.453 2.576 7.686l.352.463.181-.554a10.306 10.306 0 0 1 3.853-5.241l.252-.171-.171-.252a7.016 7.016 0 0 1-1.288-4.064 7.076 7.076 0 0 1 7.072-7.072l-.05.01Zm0 2.344a4.736 4.736 0 0 0-4.728 4.728 4.736 4.736 0 0 0 4.728 4.729 4.736 4.736 0 0 0 4.728-4.729 4.736 4.736 0 0 0-4.728-4.728Zm-67.002 0a4.736 4.736 0 0 0-4.728 4.728 4.736 4.736 0 0 0 4.728 4.729 4.736 4.736 0 0 0 4.728-4.729 4.736 4.736 0 0 0-4.728-4.728ZM50.507 3.55a6.38 6.38 0 0 0-6.378 6.379 6.38 6.38 0 0 0 6.378 6.378 6.387 6.387 0 0 0 6.378-6.378 6.387 6.387 0 0 0-6.378-6.379Z"/><defs><linearGradient id="a" x1="3.444" x2="86.495" y1="-6.429" y2="91.527" gradientUnits="userSpaceOnUse"><stop stop-color="#E6007A"/><stop offset=".21" stop-color="#703AC2"/><stop offset=".46" stop-color="#0070EB"/><stop offset=".77" stop-color="#0297FB"/><stop offset="1" stop-color="#0AE2FF"/></linearGradient></defs></svg>