<svg xmlns="http://www.w3.org/2000/svg" width="100" height="100" fill="none"><g clip-path="url(#a)"><path fill="url(#b)" d="M65.126 99.97a4.57 4.57 0 0 1-4.563-4.563v-6.742c0-2.03.626-6.996 6.42-9.196l.313-.121V77.47l-.152-.142c-.13-.121-.262-.272-.393-.414-1.888-2.09-2.816-4.905-2.827-8.428v-.474H52.863v.474c0 3.523-.94 6.339-2.776 8.368-.182.202-.313.353-.444.474l-.152.142v1.877l.313.121c5.794 2.2 6.42 7.167 6.42 9.196v6.742a4.57 4.57 0 0 1-4.563 4.563H34.834a4.57 4.57 0 0 1-4.563-4.563v-6.742c0-2.03.626-6.996 6.42-9.196l.313-.121V77.47l-.151-.142c-.132-.121-.263-.272-.394-.414-1.888-2.09-2.826-4.905-2.826-8.438 0-5.29 4.31-9.6 9.61-9.6a9.61 9.61 0 0 1 9.053 6.41l.111.323h6.45V45.584l-7.964-6.44a1.192 1.192 0 0 1-.444-.929v-8.418a1.21 1.21 0 0 1 1.201-1.201h7.41l.07-.394c.898-4.996 4.088-9.387 8.53-11.739l.524-.272-.373-.455A9.468 9.468 0 0 1 65.6 9.6C65.6 4.31 69.91 0 75.218 0c5.31 0 9.62 4.31 9.62 9.6 0 2.27-.767 4.39-2.21 6.136l-.374.455.525.272c4.441 2.352 7.62 6.743 8.53 11.74l.07.393h4.532l-.02-.505a16.624 16.624 0 0 0-.818-4.41 16.116 16.116 0 0 0-2.352-4.503c-.999-1.352-2.2-2.533-3.563-3.492a1.179 1.179 0 0 1-.484-1.312c.11-.404.454-.838 1.08-.879h.02c.323 0 .575.081.777.233a18.334 18.334 0 0 1 4.108 4.037 18.05 18.05 0 0 1 2.695 5.168c.545 1.646.879 3.452.94 5.219l.02.464h.464c.676 0 1.221.535 1.221 1.201v8.419c0 .363-.162.706-.444.928l-7.964 6.44V65.63h7.207c.827 0 1.201.606 1.201 1.202 0 .595-.374 1.2-1.201 1.2H83.173v.475c0 3.523-.938 6.34-2.775 8.368-.182.202-.313.353-.444.474l-.152.142v1.877l.313.121c5.794 2.2 6.42 7.167 6.42 9.196v6.742a4.57 4.57 0 0 1-4.563 4.563H65.146l-.02-.02Zm13.465-7.45c.323 0 .626.112.838.303.242.212.363.515.363.909v3.846h2.17c1.171 0 2.16-.99 2.16-2.16v-6.743c0-1.716-.565-5.845-5.834-7.258a1.209 1.209 0 0 1-.898-1.16v-1.212l-.636.222c-.99.343-2.07.525-3.21.525-1.14 0-2.21-.171-3.21-.525l-.636-.222v1.211c0 .546-.363 1.02-.898 1.161-5.27 1.413-5.834 5.542-5.834 7.258v6.742c0 1.171.989 2.16 2.16 2.16h2.17v-3.845c0-.384.121-.687.363-.909.212-.191.515-.303.838-.303.596 0 1.201.374 1.201 1.202v3.845h7.692v-3.845c0-.828.605-1.202 1.2-1.202Zm-30.282 0c.323 0 .626.112.838.303.242.212.363.515.363.909v3.846h2.17c1.172 0 2.16-.99 2.16-2.16v-6.743c0-1.716-.565-5.845-5.834-7.258a1.209 1.209 0 0 1-.898-1.16v-1.212l-.636.222c-.989.343-2.07.525-3.21.525-1.14 0-2.21-.171-3.21-.525l-.635-.222v1.211c0 .546-.364 1.02-.899 1.161-5.269 1.413-5.834 5.542-5.834 7.258v6.742c0 1.171.99 2.16 2.16 2.16h2.17v-3.845c0-.384.121-.687.364-.909.212-.191.514-.303.837-.303.596 0 1.202.374 1.202 1.202v3.845h7.691v-3.845c0-.828.606-1.202 1.201-1.202Zm25.235-31.24c-3.977 0-7.207 3.23-7.207 7.197 0 2.877.747 5.218 2.15 6.773 1.282 1.413 2.978 2.13 5.057 2.14 2.08 0 3.775-.717 5.057-2.14 1.403-1.555 2.15-3.896 2.15-6.773 0-3.967-3.23-7.187-7.207-7.197Zm-30.282 0c-3.977 0-7.207 3.23-7.207 7.197 0 2.877.747 5.218 2.15 6.773 1.282 1.413 2.978 2.13 5.057 2.14 2.08 0 3.775-.717 5.057-2.14 1.403-1.555 2.15-3.896 2.15-6.773 0-3.967-3.23-7.187-7.207-7.197Zm30.282-2.402a9.624 9.624 0 0 1 9.054 6.4l.111.322h6.45V36.52c.02-.798.616-1.171 1.201-1.171.586 0 1.181.363 1.201 1.18v5.966l6.006-4.845V31.02H52.872v6.631l6.006 4.855V36.53c.02-.798.615-1.171 1.2-1.171.586 0 1.182.363 1.202 1.18V65.61h3.089l.11-.323c1.353-3.825 4.997-6.39 9.055-6.4l.01-.01Zm-3.412-40.9c-4.27 1.695-7.439 5.45-8.479 10.043l-.13.585h27.404l-.131-.585c-1.04-4.593-4.21-8.348-8.48-10.044l-.211-.08-.202.11a9.706 9.706 0 0 1-4.684 1.222 9.677 9.677 0 0 1-4.683-1.221l-.202-.112-.212.081h.01ZM75.23 2.411c-3.977 0-7.218 3.23-7.218 7.197s3.24 7.217 7.218 7.217c3.977 0 7.217-3.24 7.217-7.217 0-3.977-3.24-7.197-7.217-7.197ZM4.562 99.97A4.57 4.57 0 0 1 0 95.407v-6.742c0-2.04.626-6.996 6.42-9.206l.313-.121V77.46l-.152-.14c-.131-.122-.262-.273-.393-.415C4.3 74.815 3.36 71.99 3.36 68.467c0-5.29 4.31-9.6 9.61-9.6 5.299 0 9.609 4.31 9.609 9.6 0 3.533-.929 6.349-2.766 8.378-.181.201-.313.353-.444.474l-.151.141v1.878l.313.121c5.794 2.2 6.42 7.167 6.42 9.195v6.743a4.57 4.57 0 0 1-4.563 4.563H4.562v.01Zm13.466-7.45c.323 0 .626.112.837.303.243.212.364.515.364.909v3.846h2.17c1.17 0 2.16-.99 2.16-2.16v-6.743c0-1.716-.565-5.845-5.834-7.258a1.209 1.209 0 0 1-.899-1.16v-1.212l-.635.222c-.99.343-2.07.525-3.21.525-1.14 0-2.21-.171-3.21-.525l-.636-.222v1.211c0 .546-.363 1.02-.898 1.161-5.27 1.413-5.835 5.542-5.835 7.258v6.742c0 1.171.99 2.16 2.16 2.16h2.17v-3.845c0-.384.122-.687.364-.909.212-.191.515-.303.838-.303.595 0 1.2.374 1.2 1.202v3.845h7.692v-3.845c0-.828.606-1.202 1.202-1.202ZM12.98 61.28c-3.977 0-7.207 3.23-7.207 7.197 0 2.877.747 5.218 2.15 6.773 1.282 1.413 2.977 2.13 5.057 2.14 2.08 0 3.775-.717 5.057-2.14 1.403-1.555 2.15-3.896 2.15-6.773 0-3.967-3.23-7.187-7.207-7.197ZM1.2 56.233c-.323 0-.626-.121-.848-.353A1.159 1.159 0 0 1 0 55.032V29.787c0-3.442 2.806-6.248 6.248-6.248h3.846v-2.17c0-3.442 2.806-6.248 6.258-6.248h21.379l6.359-6.38a1.19 1.19 0 0 1 .818-.353c.353 0 .656.121.878.353.232.232.353.535.353.858v25.235c0 3.442-2.806 6.248-6.248 6.248h-3.846v2.17c0 3.452-2.806 6.248-6.258 6.248H8.408L2.05 55.87a1.19 1.19 0 0 1-.818.353h-.03v.01Zm5.047-30.282a3.851 3.851 0 0 0-3.846 3.846v22.338l4.644-4.674c.222-.222.534-.353.857-.353h21.894a3.851 3.851 0 0 0 3.846-3.846v-2.17h-17.29a6.237 6.237 0 0 1-6.258-6.258v-8.883H6.247Zm10.104-8.428a3.851 3.851 0 0 0-3.846 3.846v13.465a3.84 3.84 0 0 0 3.856 3.856h23.54a3.866 3.866 0 0 0 3.845-3.856V12.496l-4.643 4.684a1.2 1.2 0 0 1-.848.353H16.352v-.01Zm18.502 11.79a1.198 1.198 0 0 1-1.201-1.202c0-.666.535-1.2 1.201-1.2s1.201.534 1.201 1.2c0 .667-.535 1.202-1.2 1.202Zm-6.732 0a1.198 1.198 0 0 1-1.202-1.202c0-.666.535-1.2 1.201-1.2.667 0 1.202.534 1.202 1.2 0 .667-.535 1.202-1.201 1.202Zm-6.733 0a1.198 1.198 0 0 1-1.201-1.202c0-.666.535-1.2 1.2-1.2.667 0 1.202.534 1.202 1.2 0 .667-.535 1.202-1.201 1.202Z"/></g><defs><linearGradient id="b" x1="2.469" x2="85.366" y1="-6.429" y2="92.37" gradientUnits="userSpaceOnUse"><stop stop-color="#E6007A"/><stop offset=".21" stop-color="#703AC2"/><stop offset=".46" stop-color="#0070EB"/><stop offset=".77" stop-color="#0297FB"/><stop offset="1" stop-color="#0AE2FF"/></linearGradient><clipPath id="a"><path fill="#fff" d="M0 0h100v100H0z"/></clipPath></defs></svg>