<svg xmlns="http://www.w3.org/2000/svg" width="100" height="100" fill="none"><path fill="url(#a)" fill-rule="evenodd" d="M68.893 59.643a8.055 8.055 0 0 0 3.861.986l-.01-.01c1.335 0 2.67-.34 3.85-.976l4.704-2.598a1.237 1.237 0 0 0 .472-1.695 1.272 1.272 0 0 0-1.088-.626c-.216 0-.421.051-.616.164l-4.714 2.608a5.705 5.705 0 0 1-2.68.678 5.587 5.587 0 0 1-2.68-.678L51.158 47.032a5.654 5.654 0 0 1-2.772-4.857V18.454a5.639 5.639 0 0 1 2.854-4.837L70.075 3.142a5.706 5.706 0 0 1 2.68-.677c.924 0 1.859.225 2.68.677l18.813 10.444a5.621 5.621 0 0 1 3.04 4.867v23.732a5.65 5.65 0 0 1-2.855 4.857l-7.979 4.416c-.585.329-.811 1.068-.493 1.654.216.39.627.636 1.078.636.206 0 .4-.051.586-.154l7.99-4.436a8.087 8.087 0 0 0 4.117-6.983V18.454a7.964 7.964 0 0 0-4.128-6.984L76.78.986A8.085 8.085 0 0 0 72.918 0c-1.335 0-2.67.339-3.85.976L50.06 11.47a8.087 8.087 0 0 0-4.118 6.982v23.712a8.062 8.062 0 0 0 4.128 7.003l18.823 10.475ZM10 95.358A4.643 4.643 0 0 0 14.642 100H24.91c.677 0 1.222-.544 1.222-1.222 0-.678-.545-1.222-1.222-1.222H14.64a2.2 2.2 0 0 1-2.197-2.198V20.045a2.2 2.2 0 0 1 2.198-2.197h25.796c.677 0 1.221-.545 1.221-1.222 0-.678-.544-1.222-1.221-1.222H14.642A4.643 4.643 0 0 0 10 20.045v75.313Zm20.538 3.42c0 .678.544 1.222 1.222 1.222h37.657a4.643 4.643 0 0 0 4.641-4.642V66.266c0-.678-.544-1.222-1.222-1.222-.677 0-1.222.544-1.222 1.222v29.092a2.2 2.2 0 0 1-2.197 2.198H31.76c-.678 0-1.222.544-1.222 1.222Zm11.511-7.332c-.174 0-.338-.03-.492-.103l-5.197-2.29-5.175 2.3a1.21 1.21 0 0 1-.473.093 1.21 1.21 0 0 1-.472-.093l-5.289-2.33-6.294 1.868c-.113.031-.237.052-.35.052a1.13 1.13 0 0 1-.318-.041 1.23 1.23 0 0 1-.863-1.5l2.198-8.205-2.403-7.465a1.171 1.171 0 0 1 0-.75l2.393-7.455-2.393-7.425a1.171 1.171 0 0 1 0-.75l2.434-7.455-2.393-7.445a1.17 1.17 0 0 1 0-.75l2.413-7.485-2.197-8.195a1.228 1.228 0 0 1 0-.668 1.233 1.233 0 0 1 1.17-.872c.113 0 .237.02.35.05l6.264 1.87 5.196-2.25c.154-.071.318-.102.493-.102.174 0 .339.031.493.103l5.196 2.29 3.481-1.54c.154-.062.318-.103.483-.103.493 0 .934.287 1.13.74.133.297.133.636.02.944-.113.308-.35.544-.657.678l-3.975 1.715a1.147 1.147 0 0 1-.492.102c-.175 0-.34-.03-.493-.102l-5.197-2.29-5.175 2.3c-.103.03-.247.061-.38.061-.134 0-.277-.02-.41-.071l-4.643-1.366 1.736 6.439a1.19 1.19 0 0 1 0 .708l-2.393 7.435 2.393 7.445a1.17 1.17 0 0 1 0 .75l-2.393 7.455 2.393 7.445a1.17 1.17 0 0 1 0 .75l-1.047 3.245.81.492 11.091-11.09c.237-.236.545-.36.873-.36.329 0 .637.134.873.36l29.883 29.78-1.828-6.788a1.157 1.157 0 0 1 0-.698l2.393-7.517-2.444-7.476a1.172 1.172 0 0 1 0-.75l.688-2.115a1.249 1.249 0 0 1 1.191-.852 1.255 1.255 0 0 1 1.191 1.643l-.565 1.725 2.393 7.445a1.11 1.11 0 0 1 0 .73l-2.464 7.557 2.197 8.154c.062.216.052.452 0 .667a1.233 1.233 0 0 1-1.17.873c-.114 0-.237-.02-.35-.051l-6.264-1.869-5.299 2.331a1.315 1.315 0 0 1-.996-.01l-5.175-2.29-5.176 2.3a1.312 1.312 0 0 1-.483.103l-.04-.031Zm5.669-4.96c.174 0 .339.03.493.103l5.196 2.29 5.422-2.393-25.344-25.354-13.617 13.74 1.92 5.966c.062.216.062.462 0 .688l-1.735 6.47 4.631-1.376c.165-.062.298-.083.442-.083.144 0 .277.02.41.072l5.145 2.27 5.176-2.28c.154-.072.319-.103.493-.103.175 0 .339.031.493.103l5.196 2.29 5.196-2.29c.154-.072.319-.103.483-.103v-.01Zm16.564-48.1c-.421 0-.811-.216-1.037-.575l-8-10.67v10.023c0 .678-.544 1.222-1.222 1.222a1.218 1.218 0 0 1-1.222-1.222V23.475c0-.678.544-1.222 1.222-1.222.431 0 .811.216 1.037.575l8 10.67V23.475c0-.678.544-1.222 1.222-1.222.678 0 1.222.544 1.222 1.222v13.689c0 .678-.544 1.222-1.222 1.222Zm5.617-1.222c0 .678.545 1.222 1.222 1.222.678 0 1.223-.544 1.223-1.222v-5.628h5.627c.678 0 1.222-.544 1.222-1.222 0-.677-.544-1.222-1.222-1.222h-5.627v-4.395h5.627c.678 0 1.222-.544 1.222-1.222 0-.678-.544-1.222-1.222-1.222h-6.85c-.677 0-1.222.544-1.222 1.222v13.689Zm18.34 1.222a1.218 1.218 0 0 1-1.221-1.222V24.697H84.82a1.218 1.218 0 0 1-1.222-1.222c0-.678.544-1.222 1.222-1.222h6.85c.677 0 1.222.544 1.222 1.222 0 .678-.545 1.222-1.222 1.222h-2.198v12.467c0 .678-.544 1.222-1.222 1.222h-.01Zm-61.12 7.332c0 3.501 2.854 6.356 6.356 6.356s6.356-2.855 6.356-6.356c0-3.502-2.854-6.357-6.356-6.357s-6.357 2.855-6.357 6.357Zm2.444 0a3.918 3.918 0 0 1 3.912-3.913 3.918 3.918 0 0 1 3.913 3.913 3.918 3.918 0 0 1-3.913 3.912 3.918 3.918 0 0 1-3.913-3.912Z" clip-rule="evenodd"/><defs><linearGradient id="a" x1="12.216" x2="96.212" y1="-6.429" y2="83.39" gradientUnits="userSpaceOnUse"><stop stop-color="#E6007A"/><stop offset=".21" stop-color="#703AC2"/><stop offset=".46" stop-color="#0070EB"/><stop offset=".77" stop-color="#0297FB"/><stop offset="1" stop-color="#0AE2FF"/></linearGradient></defs></svg>