<svg xmlns="http://www.w3.org/2000/svg" width="670" height="564" fill="none"><path fill="#EDEDED" d="M619.11 159.903h-4.705a1.064 1.064 0 0 1 0-2.125h4.705a5.784 5.784 0 0 0 5.779-5.779 5.784 5.784 0 0 0-5.779-5.779h-80.385a5.784 5.784 0 0 0-5.779 5.779 5.784 5.784 0 0 0 5.779 5.779h40.19a1.063 1.063 0 0 1 0 2.125h-40.19c-4.355 0-7.905-3.544-7.905-7.904 0-4.36 3.544-7.905 7.905-7.905h80.385c4.355 0 7.904 3.545 7.904 7.905s-3.544 7.904-7.904 7.904Z"/><path fill="#EDEDED" d="M614.404 159.903a1.063 1.063 0 0 1 0-2.125 5.784 5.784 0 0 0 5.779-5.779 5.784 5.784 0 0 0-5.779-5.779h-70.975a5.784 5.784 0 0 0-5.779 5.779 5.784 5.784 0 0 0 5.779 5.779h35.49a1.064 1.064 0 0 1 0 2.125h-35.49c-4.355 0-7.905-3.544-7.905-7.904 0-4.36 3.544-7.905 7.905-7.905h70.975c4.354 0 7.904 3.545 7.904 7.905s-3.544 7.904-7.904 7.904ZM661.868 187.27h-5.784a1.064 1.064 0 0 1 0-2.125h5.784a5.784 5.784 0 0 0 5.779-5.779 5.783 5.783 0 0 0-5.779-5.779h-51.737a1.064 1.064 0 0 1-1.063-1.063c0-.586.477-1.063 1.063-1.063h51.737c4.355 0 7.904 3.544 7.904 7.905 0 4.36-3.544 7.904-7.904 7.904Z"/><path fill="#EDEDED" d="M657.162 173.587H607.72c-4.355 0-7.905-3.545-7.905-7.905s3.545-7.904 7.905-7.904h6.683a1.063 1.063 0 0 1 0 2.125h-6.683a5.784 5.784 0 0 0-5.779 5.779 5.784 5.784 0 0 0 5.779 5.779h49.442a1.064 1.064 0 0 1 0 2.126Z"/><path fill="#EDEDED" d="M659.267 173.587h-46.84c-4.355 0-7.905-3.545-7.905-7.905s3.545-7.904 7.905-7.904a1.063 1.063 0 0 1 0 2.125 5.784 5.784 0 0 0-5.779 5.779 5.784 5.784 0 0 0 5.779 5.779h46.84a1.064 1.064 0 0 1 0 2.126Z"/><path fill="#EDEDED" d="M482.544 200.953h-5.385c-4.355 0-7.904-3.544-7.904-7.904 0-4.36 3.544-7.904 7.904-7.904h180.009a5.784 5.784 0 0 0 5.779-5.779 5.783 5.783 0 0 0-5.779-5.779h-47.032a1.064 1.064 0 0 1 0-2.126h47.032c4.355 0 7.904 3.544 7.904 7.905 0 4.36-3.544 7.904-7.904 7.904H477.159a5.784 5.784 0 0 0-5.779 5.779 5.784 5.784 0 0 0 5.779 5.779h5.385a1.064 1.064 0 0 1 0 2.125Z"/><path fill="#EDEDED" d="M603.289 228.386h-41.017c-4.355 0-7.905-3.544-7.905-7.905 0-4.36 3.544-7.904 7.905-7.904h4.743a5.784 5.784 0 0 0 5.779-5.779 5.784 5.784 0 0 0-5.779-5.779h-80.38l-4.787-.071c-4.344 0-7.888-3.544-7.888-7.904 0-4.361 3.544-7.905 7.904-7.905h70.975c.586 0 1.063.477 1.063 1.063s-.477 1.063-1.063 1.063h-70.975a5.783 5.783 0 0 0-5.779 5.779 5.784 5.784 0 0 0 5.779 5.779l4.788.071h80.369c4.355 0 7.904 3.544 7.904 7.904 0 4.36-3.544 7.904-7.904 7.904h-4.744a5.784 5.784 0 0 0-5.779 5.779 5.784 5.784 0 0 0 5.779 5.779h41.017c.586 0 1.063.477 1.063 1.063s-.477 1.063-1.063 1.063h-.005Z"/><path fill="#EDEDED" d="M562.31 214.702a1.064 1.064 0 0 1 0-2.125 5.784 5.784 0 0 0 5.779-5.779 5.784 5.784 0 0 0-5.779-5.779h-70.975a1.064 1.064 0 0 1 0-2.125h70.975c4.355 0 7.904 3.544 7.904 7.904 0 4.36-3.544 7.904-7.904 7.904Z"/><path fill="#EDEDED" d="M603.289 228.386h-45.723c-4.354 0-7.904-3.544-7.904-7.905 0-4.36 3.544-7.904 7.904-7.904h4.744a1.064 1.064 0 0 1 0 2.125h-4.744a5.784 5.784 0 0 0-5.779 5.779 5.784 5.784 0 0 0 5.779 5.779h45.723c.586 0 1.063.477 1.063 1.063s-.477 1.063-1.063 1.063Z"/><path fill="#EDEDED" d="M607.994 242.064h-68.411a1.064 1.064 0 0 1 0-2.126h68.411a5.784 5.784 0 0 0 5.779-5.779 5.784 5.784 0 0 0-5.779-5.779h-45.722a1.064 1.064 0 0 1 0-2.125h45.722c4.355 0 7.905 3.544 7.905 7.904 0 4.36-3.544 7.905-7.905 7.905Z"/><path fill="#EDEDED" d="M603.289 242.064h-63.706a1.064 1.064 0 0 1 0-2.126h63.706a5.784 5.784 0 0 0 5.779-5.779 5.784 5.784 0 0 0-5.779-5.779h-43.334a1.064 1.064 0 0 1 0-2.125h43.334c4.355 0 7.904 3.544 7.904 7.904 0 4.36-3.544 7.905-7.904 7.905Z"/><path fill="#EDEDED" d="M603.289 255.747h-68.411c-4.355 0-7.904-3.544-7.904-7.905 0-4.36 3.544-7.904 7.904-7.904h68.411a1.064 1.064 0 0 1 0 2.125h-68.411a5.784 5.784 0 0 0-5.779 5.779 5.784 5.784 0 0 0 5.779 5.779h68.411c.586 0 1.063.477 1.063 1.063s-.477 1.063-1.063 1.063Z"/><path fill="#EDEDED" d="M605.584 255.747h-66.001c-4.36 0-7.904-3.544-7.904-7.905 0-4.36 3.544-7.904 7.904-7.904h66.001a1.064 1.064 0 0 1 0 2.125h-66.001a5.784 5.784 0 0 0-5.779 5.779 5.784 5.784 0 0 0 5.779 5.779h66.001c.586 0 1.063.477 1.063 1.063s-.477 1.063-1.063 1.063ZM255.119 177.322h-48.615c-4.135 0-7.504-3.369-7.504-7.504 0-4.136 3.369-7.505 7.504-7.505h5.44c.591 0 1.073.482 1.073 1.074 0 .591-.482 1.074-1.073 1.074h-5.44a5.355 5.355 0 0 0-5.351 5.351 5.355 5.355 0 0 0 5.351 5.352h48.615c.592 0 1.074.482 1.074 1.074 0 .591-.482 1.073-1.074 1.073v.011Z"/><path fill="#EDEDED" d="M234.173 177.322h-25.225a1.075 1.075 0 0 1-1.074-1.073c0-.592.482-1.074 1.074-1.074h25.225c.591 0 1.073.482 1.073 1.074 0 .591-.482 1.073-1.073 1.073Z"/><path fill="#EDEDED" d="M234.172 177.322h-23.248c-4.135 0-7.504-3.368-7.504-7.504 0-4.136 3.369-7.505 7.504-7.505h169.158a5.355 5.355 0 0 0 5.351-5.351 5.355 5.355 0 0 0-5.351-5.352h-5.062a1.075 1.075 0 0 1-1.073-1.074c0-.591.482-1.073 1.073-1.073h5.062c4.135 0 7.504 3.368 7.504 7.504 0 4.136-3.369 7.505-7.504 7.505H210.924a5.355 5.355 0 0 0-5.351 5.351 5.355 5.355 0 0 0 5.351 5.352h23.248c.591 0 1.073.482 1.073 1.074 0 .591-.482 1.073-1.073 1.073Z"/><path fill="#EDEDED" d="M375.661 164.466h-66.696a1.075 1.075 0 0 1-1.074-1.074c0-.591.482-1.073 1.074-1.073h66.696a5.356 5.356 0 0 0 5.352-5.352 5.356 5.356 0 0 0-5.352-5.352l-4.497-.065h-75.521c-4.136 0-7.505-3.369-7.505-7.505 0-4.136 3.369-7.504 7.505-7.504h4.459c2.952 0 5.351-2.4 5.351-5.352a5.355 5.355 0 0 0-5.351-5.352h-38.547a1.075 1.075 0 0 1-1.074-1.073c0-.592.482-1.074 1.074-1.074h38.547c4.135 0 7.504 3.363 7.504 7.504 0 4.142-3.369 7.505-7.504 7.505h-4.459a5.356 5.356 0 0 0-5.352 5.352 5.355 5.355 0 0 0 5.352 5.351h75.538l4.497.066c4.125 0 7.488 3.369 7.488 7.505 0 4.135-3.369 7.504-7.505 7.504v-.011Z"/><path fill="#EDEDED" d="M366.755 151.544h-66.697c-4.135 0-7.504-3.369-7.504-7.504 0-4.136 3.369-7.505 7.504-7.505.592 0 1.074.482 1.074 1.074 0 .591-.482 1.073-1.074 1.073a5.357 5.357 0 0 0-5.352 5.352c0 2.953 2.4 5.352 5.352 5.352h66.697c.591 0 1.073.482 1.073 1.074 0 .591-.482 1.073-1.073 1.073v.011Z"/><path fill="#EDEDED" d="M304.517 138.688h-4.458a1.075 1.075 0 0 1-1.074-1.074c0-.591.482-1.073 1.074-1.073h4.458c2.953 0 5.352-2.4 5.352-5.352a5.356 5.356 0 0 0-5.352-5.352H261.55a1.075 1.075 0 0 1-1.073-1.073c0-.592.482-1.074 1.073-1.074h42.967c4.136 0 7.505 3.363 7.505 7.504 0 4.142-3.369 7.505-7.505 7.505v-.011Z"/><path fill="#EDEDED" d="M270.955 125.826h-42.967c-4.136 0-7.505-3.368-7.505-7.504 0-4.136 3.369-7.505 7.505-7.505h64.286c.592 0 1.074.482 1.074 1.074 0 .592-.482 1.074-1.074 1.074h-64.286a5.355 5.355 0 0 0-5.352 5.351 5.356 5.356 0 0 0 5.352 5.352h42.967c.592 0 1.074.482 1.074 1.074 0 .591-.482 1.073-1.074 1.073v.011Z"/><path fill="#EDEDED" d="M273.129 125.826h-40.721c-4.136 0-7.505-3.368-7.505-7.504 0-4.136 3.369-7.505 7.505-7.505h59.866c.591 0 1.073.482 1.073 1.074 0 .592-.482 1.074-1.073 1.074h-59.866a5.355 5.355 0 0 0-5.352 5.351 5.356 5.356 0 0 0 5.352 5.352h40.721c.592 0 1.074.482 1.074 1.074 0 .591-.482 1.073-1.074 1.073v.011ZM488.668 1h-8.14v31.606h8.14V1ZM488.668 38.352h-8.14v32.083h8.14V38.352ZM488.668 78.575h-8.14V109.7h8.14V78.575ZM488.668 117.127h-8.14v49.086h8.14v-49.086ZM503.995 13.21h-7.663v28.254h7.663V13.21ZM503.995 49.604h-7.663v44.534h7.663V49.604ZM503.995 100.125h-7.663v24.184h7.663v-24.184ZM503.995 130.772h-7.663v35.436h7.663v-35.436ZM518.357 52.48h-7.899v33.523h7.899V52.48ZM518.357 93.185h-7.899v38.546h7.899V93.185ZM518.357 139.394h-7.899v26.819h7.899v-26.819ZM452.274 49.604s5.506 11.015 24.185 12.691c0 0-10.058-13.409-24.185-12.691ZM468.554 38.352s-1.676 11.252 7.899 18.915c0 0 2.876-10.298-7.899-18.915ZM464.369 85.998s-2.777 15.085 12.44 28.013c0 0-.827-19.397-12.44-28.013ZM446.77 112.461s17.479-3.95 29.689 5.625c0 0-17.956 4.07-29.689-5.625ZM458.979 129.578s5.269-10.298 17.479-8.622c0 0-2.153 6.946-17.479 8.622ZM506.63 27.337s10.298-20.114 22.984-21.309c0 0-7.898 18.197-22.984 21.309ZM510.458 30.213s17.479-8.622 30.407-2.876c0 0-11.733 6.946-30.407 2.876ZM508.307 34.042s13.409-3.112 19.873 5.987c0 0-12.928 1.676-19.873-5.987ZM523.627 78.575s1.2-12.21 12.451-16.28c0 0-2.394 11.016-12.451 16.28Z"/><path fill="#EDEDED" d="M523.627 80.016s11.733-12.21 23.943-8.14c0 0-9.098 7.664-23.943 8.14ZM523.627 84.086s24.425-5.028 30.407 4.311c0 0-17.239 3.353-30.407-4.31ZM184.822 563.76H80.752c-5.78 0-10.48-4.7-10.48-10.479 0-5.779 4.7-10.479 10.48-10.479h6.09a1.62 1.62 0 1 1 0 3.243h-6.09c-3.988 0-7.237 3.242-7.237 7.236 0 3.993 3.249 7.236 7.236 7.236h104.071c3.988 0 7.237-3.249 7.237-7.236a7.244 7.244 0 0 0-7.237-7.236H132.79a1.622 1.622 0 1 1 0-3.243h52.032c5.779 0 10.479 4.7 10.479 10.479 0 5.779-4.7 10.479-10.479 10.479Z"/><path fill="#EDEDED" d="M178.731 563.76H86.842c-5.779 0-10.479-4.7-10.479-10.479 0-5.779 4.7-10.479 10.48-10.479a1.62 1.62 0 1 1 0 3.243c-3.989 0-7.237 3.242-7.237 7.236a7.24 7.24 0 0 0 7.236 7.236h91.889c3.988 0 7.236-3.249 7.236-7.236 0-3.988-3.248-7.236-7.236-7.236h-45.947a1.622 1.622 0 1 1 0-3.243h45.947c5.779 0 10.479 4.7 10.479 10.479 0 5.779-4.7 10.479-10.479 10.479ZM115.55 421.958h-6.091a1.622 1.622 0 1 1 0-3.243h6.091c3.988 0 7.236-3.243 7.236-7.236s-3.248-7.236-7.236-7.236H11.479c-3.988 0-7.236 3.243-7.236 7.236s3.248 7.236 7.236 7.236h52.033a1.62 1.62 0 1 1 0 3.243H11.479c-5.78 0-10.479-4.7-10.479-10.479C1 405.7 5.7 401 11.479 401H115.55c5.779 0 10.479 4.7 10.479 10.479 0 5.779-4.7 10.479-10.479 10.479Z"/><path fill="#EDEDED" d="M109.458 421.958a1.622 1.622 0 0 1 0-3.243c3.988 0 7.236-3.243 7.236-7.236s-3.248-7.236-7.236-7.236H17.57c-3.988 0-7.236 3.243-7.236 7.236a7.24 7.24 0 0 0 7.236 7.236H63.51a1.62 1.62 0 1 1 0 3.243H17.57c-5.78 0-10.48-4.7-10.48-10.479C7.09 405.7 11.79 401 17.57 401h91.888c5.779 0 10.479 4.7 10.479 10.479 0 5.779-4.7 10.479-10.479 10.479ZM92.38 528.335H25.4c-5.78 0-10.48-4.7-10.48-10.479 0-5.779 4.7-10.479 10.48-10.479h7.493a1.622 1.622 0 0 1 0 3.243H25.4c-3.988 0-7.236 3.243-7.236 7.236 0 3.994 3.248 7.236 7.236 7.236H92.38a1.622 1.622 0 0 1 0 3.243Z"/><path fill="#EDEDED" d="M95.497 546.044h-8.655a1.62 1.62 0 1 1 0-3.242h8.655c3.987 0 7.236-3.243 7.236-7.236a7.24 7.24 0 0 0-7.236-7.236H31.49a1.622 1.622 0 0 1 0-3.243h64.007c5.779 0 10.479 4.7 10.479 10.479 0 5.779-4.7 10.478-10.48 10.478Z"/><path fill="#EDEDED" d="M89.405 546.044a1.62 1.62 0 1 1 0-3.242c3.988 0 7.236-3.243 7.236-7.236 0-3.994-3.248-7.236-7.236-7.236H28.76a1.622 1.622 0 0 1 0-3.243h60.644c5.779 0 10.479 4.7 10.479 10.479 0 5.779-4.7 10.478-10.48 10.478Z"/><path fill="#EDEDED" d="M92.379 528.335H31.483c-5.78 0-10.48-4.7-10.48-10.479 0-5.779 4.7-10.479 10.48-10.479h233.049c3.988 0 7.236-3.248 7.236-7.236 0-3.988-3.248-7.236-7.236-7.236h-6.973a1.62 1.62 0 1 1 0-3.243h6.973c5.779 0 10.479 4.7 10.479 10.479 0 5.779-4.7 10.479-10.479 10.479H31.482c-3.987 0-7.235 3.243-7.235 7.236a7.24 7.24 0 0 0 7.236 7.236h60.89a1.622 1.622 0 0 1 0 3.243h.006Z"/><path fill="#EDEDED" d="M258.446 510.62h-91.889a1.621 1.621 0 0 1 0-3.243h91.889c3.988 0 7.236-3.248 7.236-7.236 0-3.988-3.248-7.236-7.236-7.236l-6.201-.088H148.202c-5.779 0-10.479-4.699-10.479-10.478s4.7-10.479 10.479-10.479h6.14c3.988 0 7.236-3.249 7.236-7.236 0-3.988-3.248-7.236-7.236-7.236h-53.106a1.621 1.621 0 1 1 0-3.243h53.106c5.779 0 10.479 4.7 10.479 10.479 0 5.779-4.7 10.479-10.479 10.479h-6.14c-3.988 0-7.236 3.242-7.236 7.236a7.24 7.24 0 0 0 7.236 7.236h104.071l6.201.087c5.757 0 10.456 4.7 10.456 10.479 0 5.779-4.699 10.479-10.478 10.479h-.006Z"/><path fill="#EDEDED" d="M246.177 492.818h-91.889c-5.779 0-10.478-4.7-10.478-10.479 0-5.779 4.699-10.479 10.478-10.479a1.62 1.62 0 1 1 0 3.243c-3.987 0-7.236 3.242-7.236 7.236 0 3.993 3.249 7.236 7.236 7.236h91.889a1.622 1.622 0 1 1 0 3.243Z"/><path fill="#EDEDED" d="M160.428 475.103h-6.141a1.622 1.622 0 0 1 0-3.243h6.141c3.988 0 7.236-3.249 7.236-7.236 0-3.988-3.243-7.236-7.236-7.236h-59.192a1.621 1.621 0 1 1 0-3.243h59.192c5.779 0 10.479 4.7 10.479 10.479 0 5.779-4.7 10.479-10.479 10.479Z"/><path fill="#EDEDED" d="M154.337 457.388H95.145c-5.78 0-10.479-4.7-10.479-10.479 0-5.779 4.7-10.479 10.479-10.479h88.569a1.62 1.62 0 1 1 0 3.243h-88.57c-3.987 0-7.235 3.248-7.235 7.236 0 3.988 3.248 7.236 7.236 7.236h59.192a1.62 1.62 0 1 1 0 3.243Z"/><path fill="#EDEDED" d="M157.334 457.388h-56.103c-5.78 0-10.479-4.7-10.479-10.479 0-5.779 4.7-10.479 10.479-10.479h82.483a1.62 1.62 0 1 1 0 3.243h-82.478c-3.987 0-7.236 3.248-7.236 7.236 0 3.988 3.249 7.236 7.236 7.236h56.103a1.62 1.62 0 1 1 0 3.243h-.005Z"/><path fill="#EDEDED" d="M189.805 439.673h-88.574a1.621 1.621 0 1 1 0-3.243H189.8c3.988 0 7.236-3.243 7.236-7.236 0-3.994-3.248-7.236-7.236-7.236h-88.569a1.621 1.621 0 1 1 0-3.243H189.8c5.779 0 10.479 4.7 10.479 10.479 0 5.779-4.7 10.479-10.479 10.479h.005Z"/><path fill="#EDEDED" d="M183.714 439.673H98.262a1.622 1.622 0 0 1 0-3.243h85.452c3.988 0 7.236-3.243 7.236-7.236 0-3.994-3.248-7.236-7.236-7.236H98.262a1.622 1.622 0 0 1 0-3.243h85.452c5.779 0 10.479 4.7 10.479 10.479 0 5.779-4.7 10.479-10.479 10.479Z"/><path fill="url(#a)" stroke="#220E6E" d="m343.699 368.28 197.3-110.547-320.102 77.062 122.802 33.485Z"/><path fill="url(#b)" stroke="#220E6E" d="m381.567 179.769-37.374 272.238-69.398-10.324 86.627-261.914h20.145Z"/><path fill="url(#c)" stroke="#220E6E" d="m489.801 204.182-102.19-55.632-52.38 31.219 154.57 24.413Z"/><path fill="url(#d)" stroke="#220E6E" d="m369.481 195.882 12.087-23.162 108.235 31.462-120.322-8.3Z"/><path fill="url(#e)" stroke="#220E6E" d="m319.656 480.7 61.911-307.98-9.026-11.195-37.308 18.244-60.438 162.139L319.656 480.7Z"/><path fill="url(#f)" stroke="#220E6E" d="m200.287 455.63 119.369 25.07-11.165-94.012-139.979-40.707 31.775 109.649Z"/><path fill="url(#g)" stroke="#220E6E" d="M225.408 319.784C225.408 316.753 92.623 17 92.623 17l79.179 339.939 53.606-37.155Z"/><path fill="url(#h)" stroke="#220E6E" d="m294.752 330.881-86.837-21.123-39.401 42.208 41.636 9.349 98.342 25.373-13.74-55.807Z"/><path fill="url(#i)" stroke="#220E6E" d="m83 230.503 85.513 121.462 139.978 34.723L83 230.503Z"/><defs><linearGradient id="a" x1="518.992" x2="447.994" y1="34.514" y2="169.192" gradientUnits="userSpaceOnUse"><stop stop-color="#E9A194"/><stop offset="1" stop-color="#EB867C"/></linearGradient><linearGradient id="b" x1="559.703" x2="443.383" y1="224.438" y2="275.875" gradientUnits="userSpaceOnUse"><stop stop-color="#CC564E"/><stop offset="1" stop-color="#DB746F"/></linearGradient><linearGradient id="c" x1="469.811" x2="445.332" y1="-131.671" y2="6.67" gradientUnits="userSpaceOnUse"><stop stop-color="#FF928E"/><stop offset="1" stop-color="#F3BCBB"/></linearGradient><linearGradient id="d" x1="469.43" x2="448.621" y1="-3.539" y2="102.97" gradientUnits="userSpaceOnUse"><stop stop-color="#F3ABA8"/><stop offset="1" stop-color="#ED897F"/></linearGradient><linearGradient id="e" x1="328.018" x2="277.833" y1="307.685" y2="476.634" gradientUnits="userSpaceOnUse"><stop stop-color="#FF928E"/><stop offset="1" stop-color="#FE7062"/></linearGradient><linearGradient id="f" x1="244.084" x2="244.084" y1="488.205" y2="387.818" gradientUnits="userSpaceOnUse"><stop stop-color="#BE4C44"/><stop offset="1" stop-color="#D76F6A"/></linearGradient><linearGradient id="g" x1="84.418" x2="189.684" y1="2.475" y2="312.219" gradientUnits="userSpaceOnUse"><stop stop-color="#F4AEAB"/><stop offset="1" stop-color="#F4C1BF"/></linearGradient><linearGradient id="h" x1="316.325" x2="294.292" y1="200.744" y2="248.493" gradientUnits="userSpaceOnUse"><stop stop-color="#AD5B56"/><stop offset="1" stop-color="#E25D57"/></linearGradient><linearGradient id="i" x1="229.316" x2="172.399" y1="102.886" y2="451.81" gradientUnits="userSpaceOnUse"><stop stop-color="#EBAFAD"/><stop offset="1" stop-color="#ED8F86"/></linearGradient></defs></svg>