<svg xmlns="http://www.w3.org/2000/svg" width="100" height="100" fill="none"><g clip-path="url(#a)"><path fill="url(#b)" fill-rule="evenodd" d="M15.075 12.07a12.243 12.243 0 0 0-4.442 5.95 2.756 2.756 0 0 1-5.08 0 12.242 12.242 0 0 0-4.443-5.95 2.77 2.77 0 0 1 0-4.435 12.237 12.237 0 0 0 4.443-5.948 2.755 2.755 0 0 1 5.08 0 12.236 12.236 0 0 0 4.442 5.95 2.77 2.77 0 0 1 0 4.433ZM2.512 10.185a14.532 14.532 0 0 1 5.226 6.972v-.003a.38.38 0 0 0 .71.003 14.533 14.533 0 0 1 5.225-6.972c.244-.242.243-.418 0-.66A14.535 14.535 0 0 1 8.448 2.55a.38.38 0 0 0-.71 0 14.537 14.537 0 0 1-5.226 6.973c-.244.243-.244.419 0 .66ZM66.76 24.852a5.317 5.317 0 0 0-2.302-7.78c1.474-2.996 3.14-6.475 3.833-8.273 2.11-5.18-3.701-10.613-8.333-7.316-1.242.883-5.04 2.095-5.754.323-.948-2.35-7.443-2.35-8.392 0-.716 1.772-4.51.561-5.753-.323-4.635-3.29-10.436 2.135-8.334 7.314.61 1.589 1.982 4.512 3.309 7.25l-7.668-3.478a4.22 4.22 0 0 0-3.487 7.688l4.76 2.157-7.928 2.87a4.474 4.474 0 1 0 3.045 8.413l.966-.35c-7.64 8.528-15.999 20.68-16.63 33.529-.509 10.408 1.705 18.064 6.769 23.406 7.397 7.802 19.4 9.419 35.141 9.519 15.121.095 27.848-1.462 35.071-9.184 5.12-5.349 7.36-13.115 6.848-23.739-.873-18.143-17.234-34.925-25.16-42.026ZM33.92 7.956c-1.312-3.567 2.228-6.184 5.093-4.361a9.073 9.073 0 0 0 4.492 1.5c2.596 0 3.695-.768 4.203-1.899.519-1.153 4.084-1.152 4.602 0 .51 1.131 1.608 1.898 4.204 1.898A8.83 8.83 0 0 0 61 3.596c2.906-1.765 6.415.794 5.099 4.357-.711 1.844-2.531 5.619-4.052 8.697a6.015 6.015 0 0 1-.095.005l-.051.002c-.122.005-.244.01-.367.029a74.908 74.908 0 0 1-23.05 0 5.282 5.282 0 0 0-.543-.038c-1.511-3.084-3.317-6.86-4.02-8.692Zm1.027 12.823a2.97 2.97 0 0 1 3.174-1.773 76.58 76.58 0 0 0 23.773 0c3.743-.51 4.75 4.907 1.097 5.792a62.31 62.31 0 0 1-25.966 0 2.99 2.99 0 0 1-2.078-4.019ZM24.85 18.116a1.87 1.87 0 1 1 1.545-3.406l7.571 3.433a5.211 5.211 0 0 0-1.524 2.893l-.639.235-6.953-3.155Zm-1.895 13.372a2.125 2.125 0 1 1-1.444-3.996l11.097-4.017c.142.48.353.935.627 1.352a113.102 113.102 0 0 0-4.955 4.73l-5.325 1.93Zm60.42 57.505c-6.809 7.112-18.247 8.523-33.363 8.457-13.102-.057-26.221-1.164-33.446-8.785-4.598-4.847-6.602-11.941-6.124-21.675.853-17.393 16.871-33.71 24.496-40.526a5.249 5.249 0 0 0 1.586.627 62.923 62.923 0 0 0 26.968 0 5.26 5.26 0 0 0 1.562-.617c7.633 6.816 23.685 23.14 24.522 40.512.476 9.95-1.552 17.145-6.202 22.003v.004ZM68.045 59.29c-1.28-14.363-8.904-25.26-18.039-25.26-9.135 0-16.76 10.897-18.038 25.26a11.969 11.969 0 0 0-6.993 10.927v11.957c-.075 2.707 3.237 4.707 5.511 3.026 1.271-.861 3.858-3.111 5.507-4.574.48.448 1.015.831 1.593 1.142.983 2.36 3.097 5.054 6.136 5.473 4.172.559 8.399.559 12.57 0 3.038-.42 5.15-3.114 6.135-5.473a7.63 7.63 0 0 0 1.592-1.142c1.65 1.463 4.236 3.711 5.507 4.574 2.272 1.682 5.587-.32 5.512-3.026V70.216a11.967 11.967 0 0 0-6.993-10.927Zm-18.039-22.91c3.33 0 6.432 1.77 8.994 4.793-2.193 1.248-5.268 1.906-8.994 1.906s-6.8-.658-8.995-1.906c2.564-3.023 5.665-4.792 8.995-4.792Zm-20.84 46.873c-.799.613-1.85-.212-1.84-1.081V70.216a9.622 9.622 0 0 1 4.477-8.164 45.87 45.87 0 0 0 2.131 15.342c.16.473.367.93.615 1.364-1.494 1.33-4.18 3.677-5.383 4.495Zm26.807 1.656c-3.96.53-7.972.53-11.931 0a5.039 5.039 0 0 1-3.147-2.086 42.425 42.425 0 0 0 18.224 0 5.035 5.035 0 0 1-3.147 2.086h.001Zm7.872-8.246a5.34 5.34 0 0 1-3.66 3.495 40.185 40.185 0 0 1-20.358 0 5.342 5.342 0 0 1-3.719-3.69c-.017-.057-.033-.114-.051-.17a46.73 46.73 0 0 0 13.95 2.042c4.726.029 9.429-.66 13.949-2.042a7.268 7.268 0 0 0-.05.168l-.06.197Zm-13.839-.673a43.357 43.357 0 0 1-14.705-2.434 44.462 44.462 0 0 1-1.149-11.523c.25-7.593 2.308-14.315 5.434-18.972 2.585 1.55 6.15 2.367 10.42 2.367s7.839-.816 10.42-2.367c3.125 4.657 5.184 11.38 5.433 18.972a44.431 44.431 0 0 1-1.148 11.523 43.349 43.349 0 0 1-14.705 2.434Zm22.681 6.182c.01.87-1.04 1.694-1.84 1.081-1.204-.817-3.89-3.165-5.384-4.491.249-.434.455-.891.615-1.365a45.864 45.864 0 0 0 2.133-15.344 9.623 9.623 0 0 1 4.476 8.164V82.17ZM46.767 51.465a5.836 5.836 0 1 1 6.485 9.705 5.836 5.836 0 0 1-6.485-9.705Zm1.306 7.752a3.486 3.486 0 1 0 3.874-5.797 3.486 3.486 0 0 0-3.874 5.797Zm50.803-34.351a13.804 13.804 0 0 1-5.176-6.98 2.758 2.758 0 0 0-5.122 0 13.8 13.8 0 0 1-5.177 6.98 2.762 2.762 0 0 0 0 4.446 13.809 13.809 0 0 1 5.178 6.98 2.758 2.758 0 0 0 5.122 0 13.807 13.807 0 0 1 5.176-6.98 2.762 2.762 0 0 0 0-4.446Zm-1.384 2.543a16.125 16.125 0 0 0-5.986 8.038.386.386 0 0 1-.734 0 16.127 16.127 0 0 0-5.987-8.038.384.384 0 0 1 0-.646 16.119 16.119 0 0 0 5.987-8.037.387.387 0 0 1 .733 0 16.119 16.119 0 0 0 5.986 8.037.383.383 0 0 1 .001.646Z" clip-rule="evenodd"/></g><defs><linearGradient id="b" x1="2.469" x2="85.186" y1="-6.417" y2="92.35" gradientUnits="userSpaceOnUse"><stop stop-color="#E6007A"/><stop offset=".21" stop-color="#703AC2"/><stop offset=".46" stop-color="#0070EB"/><stop offset=".77" stop-color="#0297FB"/><stop offset="1" stop-color="#0AE2FF"/></linearGradient><clipPath id="a"><path fill="#fff" d="M0 0h100v100H0z"/></clipPath></defs></svg>