<svg xmlns="http://www.w3.org/2000/svg" width="100" height="100" fill="none"><path fill="url(#a)" fill-rule="evenodd" d="M44.436 99.98c-4.98 0-9.033-4.054-9.033-9.032v-.222l-.21-.11a4.116 4.116 0 0 1-2.847-3.913V84.72h-.302c-.694 0-1.227-.523-1.227-1.176 0-.654.523-1.177 1.177-1.177h.301l.05-.302v-3.46h-4.928a1.178 1.178 0 0 1-1.177-1.177c0-.654.523-1.177 1.177-1.177h1.458l-.22-.442a4.865 4.865 0 0 1-.232-.523l-3.59-9.586c-1.017-2.706-2.586-5.22-4.648-7.463-6.015-6.498-9.274-14.977-9.183-23.859.07-6.759 2.062-13.277 5.763-18.859.221-.332.584-.523.976-.523.231 0 .453.07.644.191a1.164 1.164 0 0 1 .332 1.62A32.328 32.328 0 0 0 13.345 34.4a32.29 32.29 0 0 0 8.56 22.269c2.273 2.474 4.003 5.24 5.12 8.237l3.59 9.586a2.779 2.779 0 0 0 2.586 1.79h6.638c.644 0 1.177.523 1.177 1.177s-.523 1.177-1.177 1.177H34.7v3.762h22.068v-3.762H46.72a1.178 1.178 0 0 1-1.177-1.177c0-.654.523-1.177 1.177-1.177h11.547a2.764 2.764 0 0 0 2.585-1.79l3.45-9.193c1.217-3.26 2.987-6.146 5.24-8.6a32.302 32.302 0 0 0 8.58-21.957c0-17.864-14.534-32.388-32.388-32.388-8.59 0-16.666 3.299-22.752 9.294a1.147 1.147 0 0 1-.825.332c-.311 0-.613-.121-.834-.353a1.167 1.167 0 0 1 .01-1.66C27.86 3.542 36.53 0 45.733 0c19.151 0 34.732 15.58 34.732 34.731 0 8.761-3.27 17.12-9.204 23.557-2.052 2.223-3.66 4.858-4.777 7.826l-3.45 9.193c-.07.18-.151.352-.232.523l-.221.442h1.459c.643 0 1.176.523 1.176 1.177s-.523 1.177-1.176 1.177h-4.93v3.762h.303c.694 0 1.227.523 1.227 1.177s-.523 1.177-1.177 1.177h-.302l-.05.301v1.68c0 1.79-1.147 3.36-2.847 3.913l-.21.07v.221c0 5.02-4.054 9.073-9.033 9.073h-2.595l.01-.02Zm-6.689-8.841c.1 3.58 3.098 6.497 6.689 6.497h2.595c3.59 0 6.588-2.917 6.689-6.497v-.312H37.757v.312h-.01Zm-3.048-4.426c0 .976.795 1.77 1.77 1.77h18.518c.976 0 1.77-.794 1.77-1.77V84.73H34.7v1.982Zm47.576-69.885c-.412 0-.785-.212-.996-.554a1.14 1.14 0 0 1-.14-.885c.07-.301.26-.563.522-.724l2.596-1.61a1.24 1.24 0 0 1 .613-.18c.412 0 .785.21.996.553.16.261.221.583.14.885-.07.302-.26.563-.522.724l-2.596 1.61a1.24 1.24 0 0 1-.613.18Zm-6.558-7.222c.171.09.362.14.554.14h.01c.432 0 .834-.24 1.036-.623l1.438-2.686a1.16 1.16 0 0 0 .09-.895 1.19 1.19 0 0 0-1.126-.835c-.432 0-.835.242-1.036.624l-1.438 2.686a1.16 1.16 0 0 0-.09.895c.08.301.29.543.562.694Zm10.049 15.821a1.166 1.166 0 0 1-1.167-1.156c0-.644.513-1.177 1.156-1.187l3.048-.03c.654 0 1.177.523 1.187 1.157 0 .311-.12.603-.332.834a1.166 1.166 0 0 1-.825.352l-3.047.03h-.02Zm-46.59 32.76a7.228 7.228 0 0 0 5.14 2.123l-.02-.01a7.227 7.227 0 0 0 5.139-2.123l4.395-4.395c.222-.221.343-.513.343-.825 0-.312-.121-.603-.343-.825a1.157 1.157 0 0 0-.824-.342c-.312 0-.604.121-.825.342l-4.395 4.396a4.9 4.9 0 0 1-3.49 1.448 4.9 4.9 0 0 1-3.491-1.448L30.022 45.745a4.9 4.9 0 0 1-1.448-3.49 4.9 4.9 0 0 1 1.448-3.49 4.932 4.932 0 0 1 3.49-1.438c1.318 0 2.566.512 3.49 1.438l6.478 6.477c.222.222.514.342.825.342.312 0 .604-.12.825-.342l12.945-12.945a4.932 4.932 0 0 1 3.49-1.438c1.318 0 2.565.513 3.49 1.438a4.932 4.932 0 0 1 1.439 3.49 4.915 4.915 0 0 1-1.438 3.49L57.1 47.235a1.156 1.156 0 0 0-.343.825c0 .312.121.603.343.825.22.22.512.341.824.341.312 0 .604-.12.825-.342l7.956-7.956c2.837-2.836 2.837-7.453 0-10.29a7.227 7.227 0 0 0-5.14-2.122 7.227 7.227 0 0 0-5.14 2.123l-12.12 12.12-5.642-5.643a7.196 7.196 0 0 0-5.14-2.132 7.213 7.213 0 0 0-5.14 2.132 7.196 7.196 0 0 0-2.132 5.14c0 1.941.754 3.762 2.132 5.14l10.793 10.792Z" clip-rule="evenodd"/><defs><linearGradient id="a" x1="12.95" x2="96.982" y1="-6.429" y2="72.672" gradientUnits="userSpaceOnUse"><stop stop-color="#E6007A"/><stop offset=".21" stop-color="#703AC2"/><stop offset=".46" stop-color="#0070EB"/><stop offset=".77" stop-color="#0297FB"/><stop offset="1" stop-color="#0AE2FF"/></linearGradient></defs></svg>