<svg xmlns="http://www.w3.org/2000/svg" width="912" height="114" fill="none"><g clip-path="url(#a)"><path fill="url(#b)" fill-rule="evenodd" d="M0 89.073 29.4 1h28.1L87 89.073H64.3L58.5 70.61H28.4l-5.7 18.462H0Zm43.1-65.777-9.7 31.173h20.1l-9.7-31.173h-.7Zm335.5 38.639c0 2.522-.4 4.64-1.2 6.355-.7 1.715-1.8 3.027-3.2 3.935-1.4.908-3.1 1.311-5.1 1.311-1.9 0-3.6-.403-5-1.21-1.4-.807-2.5-2.018-3.3-3.531-.8-1.615-1.2-3.531-1.3-5.852h-21c0 6.255 1.3 11.501 3.9 15.537 2.6 4.035 6.2 7.062 10.6 8.978 4.5 1.917 9.4 2.926 14.9 2.926 6.2 0 11.6-1.21 16.3-3.53 4.7-2.321 8.4-5.65 11.1-9.888 2.7-4.237 4-9.281 4-14.93V1h-20.8v60.934h.1Zm-70.8-39.75c-3.6 0-6.7 1.11-9.4 3.23-2.7 2.118-4.6 5.346-5.8 9.684h-.7V22.993h-20.2v66.08h20.8V53.258c0-2.623.6-4.943 1.7-6.86 1.1-2.018 2.7-3.53 4.6-4.64 2-1.11 4.2-1.716 6.7-1.716 1.2 0 2.7.101 4.3.303 1.6.202 2.9.505 3.9.807v-18.26c-.675-.227-1.35-.34-2.109-.468-.253-.043-.516-.087-.791-.137-1-.101-2-.101-3-.101Zm-54.7 5.751c-2.6-1.917-5.7-3.329-9.2-4.338-3.5-1.009-7.4-1.513-11.5-1.513-5.9 0-10.9.908-15 2.724-4.1 1.816-7.4 4.338-9.8 7.465-2.4 3.128-3.8 6.76-4.4 10.795l19.2.706c.5-2.118 1.5-3.833 3.2-4.943 1.7-1.21 3.9-1.816 6.6-1.816 2.6 0 4.6.605 6.1 1.816 1.5 1.21 2.3 2.925 2.3 5.145v.202c0 1.311-.5 2.421-1.6 3.127-1 .706-2.7 1.312-4.9 1.715-2.013.353-4.563.63-7.65.963h-.003l-1.347.147c-3.3.303-6.4.807-9.4 1.715-2.9.807-5.5 2.018-7.8 3.531-2.2 1.614-4 3.632-5.3 6.154-1.3 2.522-1.9 5.65-1.9 9.281 0 4.338.9 7.97 2.8 10.896 1.9 2.825 4.4 5.044 7.6 6.457 3.2 1.412 6.9 2.118 11.1 2.118 3 0 5.8-.403 8.2-1.21 2.4-.808 4.6-1.917 6.3-3.531 1.8-1.514 3.3-3.43 4.5-5.65h.5v9.18h19.6V44.18c0-3.531-.7-6.558-2.2-9.282-1.4-2.724-3.4-5.044-6-6.96Zm-12.4 37.63c0 2.119-.5 4.036-1.6 5.65-1.1 1.614-2.5 2.825-4.3 3.834-1.8.907-3.8 1.412-6.1 1.412-2.4 0-4.4-.605-5.9-1.715s-2.3-2.825-2.3-4.944c0-1.412.4-2.623 1.1-3.732.7-1.11 1.8-1.917 3.2-2.623 1.4-.706 3.1-1.11 5-1.413 1-.1 2-.302 3-.504 1.1-.202 2.1-.404 3.1-.605.641-.13 1.241-.3 1.8-.46.313-.089.613-.174.9-.247l.177-.059.16-.053c.741-.245 1.34-.444 1.863-.795v6.254h-.1Zm-122-17.957 12.6 2.421c6.5 1.312 11.4 3.33 14.4 6.356 3.3 2.925 4.9 6.76 4.9 11.602 0 4.54-1.4 8.474-4 11.803-2.6 3.43-6.2 6.053-10.7 7.87-4.5 1.815-9.7 2.723-15.6 2.723-9.3 0-16.7-2.018-22.1-5.851-5.4-3.935-8.4-9.08-9.2-15.638l20.7-.605c.4 2.421 1.6 4.338 3.5 5.549 1.9 1.311 4.3 1.917 7.3 1.917 2.7 0 4.8-.505 6.5-1.514 1.7-1.008 2.6-2.42 2.6-4.035-.1-1.412-.7-2.623-2-3.53-1.3-.909-3.3-1.615-6-2.12l-11.4-2.219c-6.6-1.21-11.5-3.43-14.7-6.658-3.2-3.33-4.8-7.466-4.8-12.51 0-4.44 1.1-8.172 3.5-11.3 2.4-3.228 5.8-5.649 10.1-7.263 4.4-1.715 9.5-2.522 15.4-2.522 8.9 0 15.9 1.917 21 5.65 5.1 3.732 8 8.877 8.5 15.435l-19.1.504a7.406 7.406 0 0 0-1.6-3.632c-.9-1.11-2.1-1.916-3.5-2.522-1.4-.605-3.1-.908-4.9-.908-2.4 0-4.5.404-6.2 1.413-1.7.908-2.5 2.32-2.5 3.934-.1 1.312.4 2.421 1.5 3.33 1.1 1.008 3 1.715 5.8 2.32Zm72.8 25.726-.27.03c-.792.09-1.511.171-2.23.171-1.1 0-2.1-.201-2.9-.504-.8-.303-1.4-.908-1.8-1.715-.4-.807-.6-1.816-.6-3.128V38.53h11.8V22.993h-11.8V7.255h-20.8v15.839h-8.6v15.435h8.6v32.082c-.1 4.439.8 8.171 2.6 11.097s4.5 5.145 8 6.558c3.5 1.412 7.7 1.916 12.6 1.715 2.5-.101 4.6-.404 6.4-.807 1.8-.404 3.2-.808 4.2-1.11l-3.2-15.133-.172.044c-.415.108-1.046.272-1.828.36Zm627.2-49.737c3.5 1.009 6.6 2.421 9.2 4.338 2.6 1.917 4.7 4.237 6 6.961 1.5 2.724 2.2 5.75 2.2 9.282v44.894h-19.6v-9.181h-.5c-1.2 2.22-2.7 4.136-4.5 5.65-1.7 1.614-3.9 2.723-6.3 3.53-2.4.808-5.2 1.211-8.2 1.211-4.2 0-7.9-.706-11.1-2.118-3.2-1.413-5.7-3.632-7.6-6.457-1.9-2.926-2.8-6.558-2.8-10.896 0-3.632.6-6.759 1.9-9.281 1.3-2.522 3.1-4.54 5.3-6.154 2.3-1.513 4.9-2.724 7.8-3.531 3-.908 6.1-1.412 9.4-1.715l1.35-.147c3.086-.334 5.636-.61 7.65-.963 2.2-.403 3.9-1.009 4.9-1.715 1.1-.706 1.6-1.816 1.6-3.127v-.202c0-2.22-.8-3.935-2.3-5.145-1.5-1.21-3.5-1.816-6.1-1.816-2.7 0-4.9.605-6.6 1.816-1.7 1.11-2.7 2.825-3.2 4.943L778 43.07c.6-4.035 2-7.667 4.4-10.795 2.4-3.127 5.7-5.65 9.8-7.465 4.1-1.816 9.1-2.724 15-2.724 4.1 0 8 .504 11.5 1.513Zm-4.8 47.618c1.1-1.614 1.6-3.531 1.6-5.65h.1v-6.255c-.523.352-1.122.55-1.863.796l-.005.002-.332.11c-.287.073-.587.158-.9.247-.559.16-1.159.33-1.8.46-1 .201-2 .403-3.1.605-1 .202-2 .404-3 .504-1.9.303-3.6.707-5 1.413-1.4.706-2.5 1.513-3.2 2.623-.7 1.11-1.1 2.32-1.1 3.733 0 2.118.8 3.833 2.3 4.943 1.5 1.11 3.5 1.715 5.9 1.715 2.3 0 4.3-.505 6.1-1.413 1.8-1.008 3.2-2.219 4.3-3.833ZM733.8 1h-21.1v88.073h57.4V71.82h-36.3V1Zm164.099 24.818c3.9 2.32 7.2 6.053 9.6 11.097 2.4 5.044 3.6 11.4 3.8 19.27 0 7.465-1.1 13.72-3.5 18.764-2.4 5.044-5.5 8.777-9.5 11.299-4 2.623-8.4 3.833-13.2 3.833-3.3 0-6.2-.504-8.6-1.614-2.4-1.11-4.5-2.522-6.1-4.338a20.467 20.467 0 0 1-3.8-5.75h-.6v10.694h-20.6V1.1h20.8v33.292h.4c.8-2.018 2-4.035 3.6-5.851 1.6-1.816 3.7-3.33 6.1-4.54 2.5-1.21 5.5-1.816 8.9-1.816 4.5 0 8.8 1.21 12.7 3.632Zm-13.6 45.7c1.7-1.513 3.1-3.53 4-6.153 1-2.623 1.4-5.75 1.4-9.282 0-3.632-.5-6.658-1.4-9.281-.9-2.623-2.2-4.641-4-6.053-1.7-1.413-3.9-2.119-6.5-2.119-2.5 0-4.7.706-6.5 2.119-1.8 1.412-3.1 3.43-4.1 6.053-.9 2.522-1.4 5.65-1.4 9.281 0 3.531.5 6.659 1.4 9.282.9 2.623 2.3 4.741 4.1 6.154 1.8 1.412 4 2.118 6.5 2.118s4.7-.706 6.5-2.118ZM668 25.314c-3.4-2.118-7.4-3.127-12-3.127-4.8 0-9 1.21-12.5 3.53-3.5 2.321-6 5.449-7.4 9.484h-.7V23.094h-19.8v65.979h20.8v-37.63c0-2.523.5-4.641 1.4-6.457.9-1.816 2.2-3.128 3.8-4.036 1.7-1.008 3.6-1.412 5.8-1.412 3.3 0 5.9 1.009 7.7 3.128 1.9 2.017 2.8 4.943 2.8 8.575v37.832h20.9v-42.07c0-4.943-.9-9.28-2.8-13.014-1.9-3.732-4.6-6.658-8-8.676Zm-218.8-1.715c3.5 1.009 6.6 2.421 9.2 4.338 2.6 1.917 4.6 4.237 6 6.961 1.5 2.724 2.2 5.75 2.2 9.282v44.894H447v-9.181h-.5c-1.2 2.22-2.7 4.136-4.5 5.65-1.7 1.614-3.9 2.723-6.3 3.53-2.4.808-5.2 1.211-8.2 1.211-4.2 0-7.9-.706-11.1-2.118-3.2-1.413-5.7-3.632-7.6-6.457-1.9-2.926-2.8-6.558-2.8-10.896 0-3.632.6-6.759 1.9-9.281 1.3-2.522 3.1-4.54 5.3-6.154 2.3-1.513 4.9-2.724 7.8-3.531 3-.908 6.1-1.412 9.4-1.715l.493-.054.857-.093c3.086-.334 5.636-.61 7.65-.963 2.2-.403 3.9-1.009 4.9-1.715 1.1-.706 1.6-1.816 1.6-3.127v-.202c0-2.22-.8-3.935-2.3-5.145-1.5-1.21-3.5-1.816-6.1-1.816-2.7 0-4.9.605-6.6 1.816-1.7 1.11-2.7 2.825-3.2 4.943l-19.2-.706c.6-4.035 2-7.667 4.4-10.795 2.4-3.127 5.7-5.65 9.8-7.465 4.1-1.816 9.1-2.724 15-2.724 4.1 0 8 .504 11.5 1.513Zm-4.9 47.618c1.1-1.614 1.6-3.531 1.6-5.65h.1v-6.255c-.523.352-1.122.55-1.863.796l-.13.043-.207.07c-.287.072-.587.157-.9.246-.559.16-1.159.33-1.8.46h-.001c-1 .201-1.999.403-3.099.605-1 .202-2 .404-3 .504-1.9.303-3.6.707-5 1.413-1.4.706-2.5 1.513-3.2 2.623-.7 1.11-1.1 2.32-1.1 3.733 0 2.118.8 3.833 2.3 4.943 1.5 1.11 3.5 1.715 5.9 1.715 2.3 0 4.3-.505 6.1-1.413 1.8-1.008 3.2-2.219 4.3-3.833Zm84-45.398c-3.9-2.422-8.2-3.632-12.7-3.632-3.4 0-6.4.605-8.9 1.816-2.4 1.21-4.5 2.724-6.1 4.54a20.12 20.12 0 0 0-3.6 5.85h-.6v-11.4h-20.6v90.797h20.8v-35.41h.4c.9 2.017 2.1 3.934 3.8 5.75 1.6 1.816 3.7 3.228 6.1 4.338 2.4 1.11 5.3 1.614 8.6 1.614 4.8 0 9.2-1.21 13.2-3.833 4-2.522 7.1-6.255 9.5-11.3 2.4-5.044 3.5-11.298 3.5-18.764 0-7.768-1.2-14.124-3.7-19.168-2.5-5.145-5.7-8.777-9.7-11.198Zm-9.5 39.547c-.9 2.623-2.3 4.64-4 6.154-1.8 1.412-4 2.118-6.5 2.118s-4.7-.706-6.5-2.118c-1.8-1.413-3.2-3.531-4.1-6.154-.9-2.623-1.4-5.75-1.4-9.282 0-3.632.5-6.76 1.4-9.281 1-2.623 2.3-4.64 4.1-6.053 1.8-1.413 4-2.119 6.5-2.119 2.6 0 4.8.706 6.5 2.119 1.8 1.412 3.1 3.43 4 6.053.9 2.623 1.4 5.65 1.4 9.281 0 3.531-.5 6.659-1.4 9.282Zm70.299-41.767c3.5 1.009 6.6 2.421 9.2 4.338 2.6 1.917 4.6 4.237 6 6.961 1.5 2.724 2.2 5.75 2.2 9.282v44.894h-19.6v-9.181h-.5c-1.2 2.22-2.7 4.136-4.5 5.65-1.7 1.614-3.9 2.723-6.3 3.53-2.4.808-5.2 1.211-8.2 1.211-4.2 0-7.9-.706-11.1-2.118-3.2-1.413-5.7-3.632-7.6-6.457-1.9-2.926-2.8-6.558-2.8-10.896 0-3.632.6-6.759 1.9-9.281 1.3-2.522 3-4.64 5.3-6.154 2.3-1.513 4.9-2.724 7.8-3.531 3-.908 6.1-1.412 9.4-1.715l1.35-.147c3.087-.334 5.637-.61 7.65-.963 2.2-.403 3.9-1.009 4.9-1.715 1.1-.706 1.6-1.816 1.6-3.127v-.202c0-2.22-.8-3.935-2.3-5.145-1.5-1.21-3.5-1.816-6.1-1.816-2.7 0-4.9.605-6.6 1.816-1.7 1.11-2.7 2.825-3.2 4.943l-19.2-.706c.6-4.035 2-7.667 4.4-10.795 2.4-3.127 5.7-5.65 9.8-7.465 4.1-1.816 9.1-2.724 15-2.724 4.1 0 8 .504 11.5 1.513Zm-4.9 47.618c1.1-1.614 1.6-3.531 1.6-5.65h.1v-6.255c-.523.352-1.121.55-1.863.796l-.337.112c-.287.073-.587.158-.9.247-.558.16-1.158.33-1.8.46-1 .201-2 .403-3.1.605-1 .202-2 .404-3 .504-1.9.303-3.6.707-5 1.413-1.4.706-2.5 1.513-3.2 2.623-.7 1.11-1.1 2.32-1.1 3.733 0 2.118.8 3.833 2.3 4.943 1.5 1.11 3.5 1.715 5.9 1.715 2.3 0 4.3-.505 6.1-1.413 1.8-1.008 3.2-2.219 4.3-3.833Z" clip-rule="evenodd"/><path fill="#220E6E" d="M29.4 1V.5h-.36l-.114.342L29.4 1ZM0 89.073l-.474-.159-.22.659H0v-.5ZM57.5 1l.474-.159L57.86.5h-.36V1ZM87 89.073v.5h.695l-.22-.66-.475.16Zm-22.7 0-.477.15.11.35h.367v-.5ZM58.5 70.61l.477-.15-.11-.35H58.5v.5Zm-30.1 0v-.5h-.369l-.109.352.478.148Zm-5.7 18.462v.5h.369l.109-.353-.478-.147Zm10.7-34.604-.477-.148-.202.648h.679v-.5Zm9.7-31.173v-.5h-.368l-.11.351.478.149Zm10.4 31.173v.5h.68l-.203-.648-.477.148Zm-9.7-31.173.477-.149-.109-.351H43.8v.5ZM377.4 68.29l-.453-.211-.005.011-.005.011.463.19Zm1.2-6.356h.5v-.5h-.5v.5Zm-4.4 10.29.272.42-.272-.42Zm-10.1.102-.25.433.25-.433Zm-3.3-3.531-.448.222.006.011.442-.233Zm-1.3-5.852.5-.021-.021-.479h-.479v.5Zm-21 0v-.5h-.5v.5h.5ZM353 87.458l-.2.459.004.001.196-.46Zm31.2-.605.221.449-.221-.449ZM399.3 1h.5V.5h-.5V1Zm-20.8 0V.5h-.5V1h.5Zm0 60.934h-.5v.5h.5v-.5ZM292.6 35.1v.5h.381l.101-.367-.482-.133Zm-.7 0h-.5v.5h.5v-.5Zm0-12.106h.5v-.5h-.5v.5Zm-20.2 0v-.5h-.5v.5h.5Zm0 66.08h-.5v.5h.5v-.5Zm20.8 0v.5h.5v-.5h-.5Zm1.7-42.675.434.25.005-.01-.439-.24Zm4.6-4.64-.242-.438-.01.006.252.431Zm14.9-.606-.145.479.645.195v-.674h-.5Zm0-18.26h.5v-.36l-.34-.114-.16.474Zm-2.109-.468-.083.493.083-.493Zm-.791-.137.09-.492-.019-.004-.021-.002-.05.498Zm-66.9 1.311-.138.48.138-.48Zm9.2 4.338.297-.402-.297.402ZM203.2 43.07l-.494-.074-.083.553.559.02.018-.499Zm19.2.706-.018.5.41.015.095-.4-.487-.115Zm3.2-4.943.274.419.008-.006.008-.006-.29-.407Zm13.4 8.474-.27-.42-.009.005-.009.007.288.408Zm-4.9 1.715.087.493.003-.001-.09-.492Zm-7.65.963-.053-.497-.009.001.062.496Zm0 0 .054.498.008-.001-.062-.497Zm-.003 0-.053-.496.053.497Zm-1.347.147.046.498.008-.001-.054-.497Zm-9.4 1.715.134.482.011-.004-.145-.478Zm-7.8 3.531-.275-.418-.01.007-.011.008.296.403Zm-5.3 6.154.445.229-.445-.23Zm.9 20.177-.419.272.004.007.415-.28Zm7.6 6.457.202-.458-.202.458Zm19.3.907-.159-.473.159.474Zm6.3-3.53-.322-.383-.011.01-.011.01.344.363Zm4.5-5.65v-.5h-.298l-.142.262.44.238Zm.5 0h.5v-.5h-.5v.5Zm0 9.18h-.5v.5h.5v-.5Zm19.6 0v.5h.5v-.5h-.5Zm-2.2-54.175-.445.229.004.006.003.007.438-.242Zm-18.4 30.67v-.5h-.5v.5h.5Zm-5.9 9.483.225.446.01-.005.01-.005-.245-.437Zm-12-.303.298-.402-.298.402Zm2-11.3.225.447-.225-.446Zm5-1.412-.05-.497-.014.001-.014.003.078.493Zm3-.504-.09-.492-.009.002.099.49Zm3.1-.605.099.49-.099-.49Zm1.8-.46-.137-.48.137.48Zm.9-.247.122.485.019-.005.019-.006-.16-.474Zm.177-.059-.157-.474.157.474Zm.16-.053-.157-.474.157.474Zm1.863-.795h.5v-.94l-.779.525.279.415Zm0 6.254v.5h.5v-.5h-.5ZM131.3 50.03l.099-.49-.005-.001-.094.491Zm-12.6-2.421-.106.489.012.002.094-.491Zm27 8.777-.355.352.011.011.012.01.332-.373Zm.9 23.405-.394-.308-.004.006.398.302Zm-10.7 7.87-.187-.465.187.464Zm-37.7-3.128-.294.404.005.003.289-.407ZM89 68.895l-.015-.5-.548.017.067.544.496-.06Zm20.7-.605.493-.081-.071-.431-.437.012.015.5Zm3.5 5.549.284-.412-.008-.005-.007-.005-.269.422Zm13.8.403-.255-.43.255.43Zm2.6-4.035h.5v-.018l-.001-.017-.499.035Zm-8-5.65-.096.491.004.001.092-.492Zm-11.4-2.219.096-.49-.006-.002-.09.492ZM95.5 55.68l-.36.346.005.006.355-.352Zm-1.3-23.81.397.305.004-.006-.401-.298Zm10.1-7.263.176.468.006-.002-.182-.466Zm36.4 3.128.295-.404-.295.404Zm8.5 15.435.013.5.526-.014-.04-.524-.499.038Zm-19.1.504-.494.076.066.436.441-.012-.013-.5Zm-1.6-3.632.388-.315-.388.315Zm-14.6-2.017.236.44.009-.005.01-.005-.255-.43Zm-2.5 3.934.499.038.001-.019v-.019h-.5Zm1.5 3.33.338-.369-.01-.009-.01-.008-.318.386Zm78.33 28.076-.056-.497.056.497Zm.27-.03-.056-.497.056.497Zm-5.4-.303.177-.468-.177.468Zm-1.8-1.715-.448.222.448-.222Zm-.6-32.788v-.5h-.5v.5h.5Zm11.8 0v.5h.5v-.5h-.5Zm0-15.536h.5v-.5h-.5v.5Zm-11.8 0h-.5v.5h.5v-.5Zm0-15.738h.5v-.5h-.5v.5Zm-20.8 0v-.5h-.5v.5h.5Zm0 15.839v.5h.5v-.5h-.5Zm-8.6 0v-.5h-.5v.5h.5Zm0 15.435h-.5v.5h.5v-.5Zm8.6 0h.5v-.5h-.5v.5Zm0 32.082.5.01v-.01h-.5Zm2.6 11.097-.426.262.426-.262Zm8 6.558.187-.464-.187.463Zm12.6 1.715-.02-.5h-.001l.021.5Zm10.6-1.917.145.478.439-.133-.095-.449-.489.104Zm-3.2-15.133.489-.103-.108-.509-.503.127.122.485Zm-.172.044-.126-.484-.016.005-.016.005.158.474Zm0 0 .126.484.016-.004.016-.005-.158-.475ZM827.9 27.936l.297-.402-.297.402Zm-9.2-4.338-.138.48.138-.48Zm15.2 11.3-.451.215.006.013.007.013.438-.242Zm2.2 54.175v.5h.5v-.5h-.5Zm-19.6 0h-.5v.5h.5v-.5Zm0-9.181h.5v-.5h-.5v.5Zm-.5 0v-.5h-.298l-.142.262.44.238Zm-4.5 5.65-.322-.383-.011.01-.011.01.344.363Zm-6.3 3.53-.159-.473.159.474Zm-19.3-.907.202-.458-.202.458Zm-7.6-6.457-.419.272.004.007.415-.28Zm-.9-20.177.444.229-.444-.23Zm5.3-6.154-.275-.418-.01.007-.011.008.296.403Zm7.8-3.531.134.482.011-.004-.145-.478Zm9.4-1.715.046.498.008-.001-.054-.497Zm1.35-.147-.054-.497.054.497Zm7.65-.963.086.493.004-.001-.09-.492Zm4.9-1.715-.27-.42-.009.005-.009.007.288.408Zm-13.4-8.474.273.419.009-.006.008-.006-.29-.407Zm-3.2 4.943-.018.5.41.015.095-.4-.487-.115ZM778 43.07l-.495-.074-.082.553.559.02.018-.499Zm37.5 22.497v-.5h-.5v.5h.5Zm.1 0v.5h.5v-.5h-.5Zm0-6.255h.5v-.938l-.779.524.279.415Zm-1.863.796.156.475h.001l-.157-.475Zm-.005.002-.156-.475h-.001l.157.475Zm-.332.11.122.485.019-.005.018-.006-.159-.474Zm-.9.247.137.481-.137-.48Zm-1.8.46-.099-.49.099.49Zm-3.1.605-.09-.492-.009.002.099.49Zm-3 .504-.05-.497-.014.001-.015.003.079.493Zm-5 1.413.225.446-.225-.446Zm-2 11.299.297-.402-.297.402Zm12 .302.225.447.01-.005.009-.005-.244-.437ZM712.7 1V.5h-.5V1h.5Zm21.1 0h.5V.5h-.5V1Zm-21.1 88.073h-.5v.5h.5v-.5Zm57.4 0v.5h.5v-.5h-.5Zm0-17.252h.5v-.5h-.5v.5Zm-36.3 0h-.5v.5h.5v-.5Zm173.699-34.906.452-.215-.452.215Zm-9.6-11.097-.263.424.008.005.255-.43Zm13.4 30.366h.501l-.001-.013-.5.013Zm-3.5 18.765-.451-.215.451.215Zm-9.5 11.299-.266-.423-.008.005.274.418Zm-21.8 2.22-.209.453.209-.454Zm-6.1-4.339.376-.33-.005-.006-.006-.006-.365.342Zm-3.8-5.75.457-.204-.132-.296h-.325v.5Zm-.6 0v-.5h-.5v.5h.5Zm0 10.694v.5h.5v-.5h-.5Zm-20.6 0h-.5v.5h.5v-.5Zm0-87.972V.6h-.5v.5h.5Zm20.8 0h.5V.6h-.5v.5Zm0 33.292h-.5v.5h.5v-.5Zm.4 0v.5h.34l.125-.316-.465-.184Zm9.7-10.391-.218-.45-.007.003.225.447Zm12 41.363-.467-.178-.003.007-.002.008.472.163Zm-4 6.154.309.393.012-.01.012-.01-.333-.373Zm0-30.77-.319.384.011.009.308-.393Zm-17.1 6.053-.467-.178-.003.01.47.168Zm0 18.563.473-.163-.473.163Zm4.1 6.154-.308.393.308-.393ZM668 25.313l-.265.425.009.005.256-.43ZM636.1 35.2v.5h.355l.117-.336-.472-.164Zm-.7 0h-.5v.5h.5v-.5Zm0-12.106h.5v-.5h-.5v.5Zm-19.8 0v-.5h-.5v.5h.5Zm0 65.979h-.5v.5h.5v-.5Zm20.8 0v.5h.5v-.5h-.5Zm1.4-44.087-.448-.222.448.222Zm3.8-4.036.246.435.009-.005-.255-.43Zm13.5 1.715-.381.324.008.01.009.01.364-.343Zm2.8 46.408h-.5v.5h.5v-.5Zm20.9 0v.5h.5v-.5h-.5ZM458.4 27.936l.297-.402-.297.402Zm-9.2-4.338-.139.48.139-.48Zm15.2 11.3-.445.228.004.006.003.007.438-.242Zm2.2 54.175v.5h.5v-.5h-.5Zm-19.6 0h-.5v.5h.5v-.5Zm0-9.181h.5v-.5h-.5v.5Zm-.5 0v-.5h-.298l-.142.262.44.238Zm-4.5 5.65-.322-.383-.011.01-.011.01.344.363Zm-6.3 3.53-.159-.473.159.474Zm-19.3-.907.202-.458-.202.458Zm-7.6-6.457-.419.272.004.007.415-.28Zm-.9-20.177.444.229-.444-.23Zm5.3-6.154-.275-.418-.011.007-.01.008.296.403Zm7.8-3.531.134.482.011-.004-.145-.478Zm9.4-1.715.046.498.008-.001-.054-.497Zm.493-.054-.053-.497h-.001l.054.497Zm.857-.093-.054-.497.054.497Zm7.65-.963.086.493.004-.001-.09-.492Zm4.9-1.715-.27-.42-.009.005-.009.007.288.408Zm-13.4-8.474.273.419.009-.006.008-.006-.29-.407Zm-3.2 4.943-.018.5.41.015.095-.4-.487-.115Zm-19.2-.706-.495-.074-.082.553.559.02.018-.499Zm37.4 22.497v-.5h-.5v.5h.5Zm.1 0v.5h.5v-.5h-.5Zm0-6.255h.5v-.938l-.779.524.279.415Zm-1.863.796-.157-.474.157.474Zm-.13.043-.158-.474.158.474Zm-.207.07.122.484.019-.005.018-.006-.159-.474Zm-.9.246-.137-.48.137.48Zm-1.8.46.092.491.007-.001-.099-.49Zm-.001 0-.092-.492-.007.002.099.49ZM438 61.53l-.09-.492-.009.002.099.49Zm-3 .504-.05-.497-.014.001-.015.003.079.493Zm-5 1.413.225.446-.225-.446Zm-2 11.299.297-.402-.297.402Zm12 .302.225.447.01-.005.009-.005-.244-.437Zm88.3-49.231-.264.424.005.003.259-.427Zm-21.6-1.816-.218-.45-.007.003.225.447Zm-9.7 10.39v.5h.339l.126-.315-.465-.184Zm-.6 0h-.5v.5h.5v-.5Zm0-11.4h.5v-.5h-.5v.5Zm-20.6 0v-.5h-.5v.5h.5Zm0 90.797h-.5v.5h.5v-.5Zm20.8 0v.5h.5v-.5h-.5Zm0-35.41v-.5h-.5v.5h.5Zm.4 0 .456-.204-.132-.296H497v.5Zm3.8 5.75.375-.33-.005-.006-.005-.006-.365.342Zm6.1 4.338.21-.454-.21.454Zm21.8-2.22-.267-.422-.007.005.274.418Zm9.5-11.298.451.215-.451-.215Zm-.2-37.933-.45.218.002.004.448-.222Zm-23.2 34.503.308.393.013-.01.011-.01-.332-.373Zm4-6.154-.473-.163.473.163Zm-21.1 0 .473-.163-.473.163Zm0-18.563-.468-.178-.003.01.471.168Zm4.1-6.053.308.393-.308-.393Zm13 0-.32.384.011.009.309-.393Zm83.499-12.813.297-.402-.297.402Zm-9.2-4.338-.138.48.138-.48Zm15.2 11.3-.444.228.003.006.003.007.438-.242Zm2.2 54.175v.5h.5v-.5h-.5Zm-19.6 0h-.5v.5h.5v-.5Zm0-9.181h.5v-.5h-.5v.5Zm-.5 0v-.5h-.298l-.141.262.439.238Zm-4.5 5.65-.321-.383-.012.01-.011.01.344.363Zm-6.3 3.53-.159-.473.159.474Zm-19.3-.907.202-.458-.202.458Zm-7.6-6.457-.419.272.005.007.414-.28Zm-.9-20.177.445.229-.445-.23Zm13.1-9.685.135.482.01-.004-.145-.478Zm9.4-1.715.046.498.009-.001-.055-.497Zm1.35-.147-.054-.497.054.497Zm7.65-.963.087.493.004-.001-.091-.492Zm4.9-1.715-.27-.42-.009.005-.009.007.288.408Zm-13.4-8.474.274.419.008-.006.008-.006-.29-.407Zm-3.2 4.943-.018.5.411.015.094-.4-.487-.115Zm-19.2-.706-.494-.074-.082.553.558.02.018-.499Zm37.4 22.497v-.5h-.5v.5h.5Zm.1 0v.5h.5v-.5h-.5Zm0-6.255h.5v-.938l-.779.524.279.415Zm-1.863.796-.157-.474.157.474Zm-.337.112.123.485.018-.005.019-.006-.16-.474Zm-.9.247-.136-.48.136.48Zm-1.8.46.099.49-.099-.49Zm-3.1.605-.09-.492-.008.002.098.49Zm-3 .504-.05-.497-.014.001-.014.003.078.493Zm-5 1.413.226.446-.226-.446Zm-2 11.299.298-.402-.298.402Zm12 .302.226.447.009-.005.01-.005-.245-.437ZM28.926.843l-29.4 88.072.948.317 29.4-88.073-.948-.316ZM57.5.5H29.4v1h28.1v-1Zm29.974 88.414L57.974.84l-.948.318 29.5 88.072.948-.317Zm-23.174.659H87v-1H64.3v1ZM58.023 70.76l5.8 18.462.954-.3-5.8-18.461-.954.3Zm-29.623.35h30.1v-1H28.4v1Zm-5.222 18.11 5.7-18.462-.956-.295-5.7 18.462.956.295ZM0 89.573h22.7v-1H0v1Zm33.877-34.955 9.7-31.174-.954-.297-9.7 31.174.954.297Zm19.623-.649H33.4v1h20.1v-1ZM43.323 23.444l9.7 31.174.954-.297-9.7-31.174-.954.297Zm-.223.352h.7v-1h-.7v1Zm334.753 44.706c.839-1.8 1.247-3.995 1.247-6.567h-1c0 2.472-.392 4.513-1.153 6.144l.906.423Zm-3.381 4.142c1.489-.965 2.654-2.358 3.391-4.165l-.926-.378c-.663 1.624-1.698 2.854-3.009 3.704l.544.84Zm-5.372 1.392c2.066 0 3.869-.417 5.372-1.392l-.544-.839c-1.297.841-2.894 1.231-4.828 1.231v1Zm-5.25-1.277c1.49.859 3.28 1.277 5.25 1.277v-1c-1.83 0-3.441-.388-4.75-1.144l-.5.867Zm-3.492-3.73c.838 1.584 2 2.87 3.492 3.73l.5-.867c-1.308-.753-2.346-1.889-3.108-3.331l-.884.467ZM359 62.964c.102 2.363.511 4.355 1.352 6.052l.896-.444c-.759-1.532-1.15-3.374-1.248-5.651l-1 .043Zm-20.5.478h21v-1h-21v1Zm4.32 14.766c-2.533-3.933-3.82-9.076-3.82-15.266h-1c0 6.32 1.313 11.669 3.98 15.808l.84-.542ZM353.2 87c-4.312-1.878-7.834-4.84-10.38-8.791l-.84.541c2.654 4.12 6.332 7.211 10.82 9.167l.4-.917Zm14.7 2.884c-5.436 0-10.269-.996-14.704-2.886l-.392.92c4.565 1.945 9.532 2.966 15.096 2.966v-1Zm16.079-3.48c-4.623 2.283-9.946 3.48-16.079 3.48v1c6.267 0 11.744-1.224 16.521-3.582l-.442-.897Zm10.899-9.706c-2.65 4.159-6.28 7.426-10.899 9.707l.442.897c4.781-2.36 8.551-5.752 11.301-10.067l-.844-.537Zm3.922-14.663c0 5.572-1.282 10.52-3.922 14.663l.844.537c2.76-4.331 4.078-9.472 4.078-15.2h-1ZM398.8 1v61.035h1V1h-1Zm-20.3.5h20.8v-1h-20.8v1Zm.5 60.434V1h-1v60.934h1Zm-.4-.5h-.1v1h.1v-1Zm-79.891-35.626c2.613-2.05 5.604-3.122 9.091-3.122v-1c-3.713 0-6.921 1.148-9.708 3.335l.617.787Zm-5.627 9.424c1.182-4.271 3.036-7.392 5.627-9.424l-.617-.787c-2.81 2.204-4.755 5.54-5.974 9.945l.964.266Zm-1.182.367h.7v-1h-.7v1Zm-.5-12.606v12.106h1V22.993h-1Zm-19.7.5h20.2v-1h-20.2v1Zm.5 65.58v-66.08h-1v66.08h1Zm20.3-.5h-20.8v1h20.8v-1Zm-.5-35.315v35.815h1V53.258h-1Zm1.767-7.109c-1.149 2.002-1.767 4.41-1.767 7.11h1c0-2.547.582-4.78 1.634-6.612l-.867-.498Zm4.781-4.823c-1.967 1.149-3.637 2.724-4.787 4.833l.878.479c1.051-1.927 2.581-3.378 4.413-4.449l-.504-.863Zm6.952-1.784c-2.586 0-4.869.628-6.942 1.778l.485.875c1.927-1.07 4.043-1.653 6.457-1.653v-1Zm4.363.307c-1.616-.204-3.138-.306-4.363-.306v1c1.175 0 2.654.099 4.238.298l.125-.992Zm3.982.825a24.254 24.254 0 0 0-3.982-.825l-.125.992c1.571.198 2.844.495 3.817.79l.29-.957Zm-.645-17.782v18.26h1v-18.26h-1Zm-1.692.025c.766.129 1.402.237 2.033.449l.319-.948c-.719-.242-1.434-.36-2.186-.487l-.166.986Zm-.798-.139c.279.052.545.097.798.139l.166-.986a51.558 51.558 0 0 1-.784-.136l-.18.983Zm-2.91-.092c1.004 0 1.979 0 2.95.098l.1-.995c-1.029-.104-2.054-.103-3.05-.103v1Zm-64.038 1.393c3.457.996 6.5 2.386 9.042 4.26l.593-.805c-2.658-1.96-5.816-3.395-9.358-4.416l-.277.96ZM232.4 22.585c4.06 0 7.913.5 11.362 1.494l.277-.961c-3.552-1.024-7.499-1.533-11.639-1.533v1Zm-14.797 2.681c4.019-1.78 8.946-2.681 14.797-2.681v-1c-5.949 0-11.022.915-15.202 2.767l.405.914Zm-9.606 7.313c2.343-3.053 5.572-5.527 9.606-7.313l-.405-.914c-4.167 1.845-7.537 4.416-9.994 7.618l.793.609Zm-4.302 10.563c.589-3.964 1.961-7.513 4.302-10.563l-.793-.61c-2.46 3.206-3.888 6.92-4.498 11.026l.989.148Zm18.724.133-19.2-.706-.037 1 19.2.706.037-1Zm2.908-4.862c-1.835 1.198-2.893 3.04-3.413 5.247l.973.23c.479-2.03 1.422-3.618 2.987-4.64l-.547-.837Zm6.873-1.897c-2.773 0-5.083.622-6.89 1.909l.58.814c1.594-1.135 3.684-1.723 6.31-1.723v-1Zm6.414 1.927c-1.614-1.303-3.737-1.927-6.414-1.927v1c2.523 0 4.4.586 5.786 1.705l.628-.778Zm2.486 5.534c0-2.354-.856-4.219-2.486-5.534l-.628.778c1.371 1.106 2.114 2.671 2.114 4.756h1Zm0 .202v-.202h-1v.202h1Zm-1.83 3.548c1.268-.814 1.83-2.098 1.83-3.548h-1c0 1.172-.438 2.108-1.37 2.706l.54.842Zm-5.08 1.786c2.226-.408 4.01-1.03 5.099-1.798l-.577-.817c-.912.644-2.528 1.232-4.702 1.631l.18.984Zm-7.686.968c3.08-.333 5.649-.61 7.683-.967l-.173-.985c-1.994.35-4.525.624-7.617.958l.107.994Zm.008 0-.124-.993.124.993Zm-.011 0h.003l-.108-.994h-.002l.107.995Zm-1.347.147 1.347-.146-.107-.994-1.348.146.108.994Zm-9.309 1.697c2.958-.896 6.022-1.396 9.301-1.696l-.091-.996c-3.322.305-6.457.814-9.5 1.734l.29.958Zm-7.67 3.47a27.084 27.084 0 0 1 7.659-3.467l-.268-.964a28.086 28.086 0 0 0-7.941 3.595l.55.836Zm-5.13 5.965c1.262-2.448 3.009-4.408 5.151-5.98l-.592-.806c-2.257 1.656-4.11 3.732-5.448 6.328l.889.458Zm-1.845 9.052c0-3.58.592-6.623 1.845-9.052l-.889-.458c-1.348 2.615-1.956 5.828-1.956 9.51h1Zm2.72 10.624c-1.834-2.824-2.72-6.354-2.72-10.624h-1c0 4.407.915 8.14 2.881 11.168l.839-.544Zm7.382 6.271c-3.106-1.37-5.535-3.524-7.387-6.278l-.83.558c1.948 2.896 4.519 5.181 7.813 6.635l.404-.915Zm10.898 2.076c-4.144 0-7.773-.697-10.898-2.076l-.404.915c3.275 1.445 7.046 2.161 11.302 2.161v-1Zm8.041-1.184c-2.339.786-5.083 1.184-8.041 1.184v1c3.043 0 5.898-.409 8.36-1.237l-.319-.947Zm6.115-3.42c-1.628 1.546-3.754 2.626-6.115 3.42l.319.947c2.439-.82 4.713-1.96 6.484-3.642l-.688-.725Zm4.404-5.525c-1.174 2.172-2.636 4.038-4.382 5.505l.644.765c1.855-1.559 3.393-3.528 4.618-5.794l-.88-.476Zm.94-.262h-.5v1h.5v-1Zm.5 9.68v-9.18h-1v9.18h1Zm19.1-.5h-19.6v1h19.6v-1Zm-.5-44.393v44.894h1V44.179h-1Zm-2.138-9.04c1.453 2.638 2.138 5.579 2.138 9.04h1c0-3.601-.715-6.713-2.262-9.523l-.876.483Zm-5.858-6.8c2.541 1.873 4.489 4.135 5.851 6.787l.89-.457c-1.437-2.796-3.489-5.175-6.148-7.135l-.593.805Zm-13.291 43.159c1.168-1.713 1.687-3.733 1.687-5.932h-1c0 2.04-.48 3.853-1.513 5.368l.826.564Zm-4.468 3.988c1.856-1.041 3.318-2.301 4.468-3.989l-.826-.563c-1.05 1.541-2.388 2.702-4.131 3.68l.489.872Zm-6.345 1.476c2.378 0 4.455-.523 6.325-1.466l-.45-.893c-1.729.873-3.652 1.359-5.875 1.359v1Zm-6.197-1.813c1.603 1.186 3.714 1.813 6.197 1.813v-1c-2.317 0-4.206-.584-5.602-1.617l-.595.804ZM220 69.803c0 2.254.857 4.128 2.503 5.346l.595-.804c-1.355-1.002-2.098-2.557-2.098-4.541h-1Zm1.177-3.999c-.745 1.182-1.177 2.484-1.177 4h1c0-1.31.368-2.429 1.023-3.466l-.846-.534Zm3.398-2.803c-1.437.725-2.628 1.583-3.398 2.803l.846.534c.631-1 1.639-1.756 3.002-2.444l-.45-.893Zm5.147-1.46c-1.915.306-3.676.719-5.147 1.46l.45.893c1.33-.67 2.968-1.064 4.854-1.365l-.157-.987Zm2.979-.5c-1.004.203-1.98.399-2.951.497l.1.995c1.029-.104 2.053-.311 3.049-.512l-.198-.98Zm3.1-.605c-1 .201-1.996.402-3.091.603l.18.984a172.93 172.93 0 0 0 3.109-.607l-.198-.98Zm1.762-.45c-.561.16-1.143.325-1.762.45l.198.98c.663-.134 1.281-.31 1.838-.469l-.274-.962Zm.915-.251c-.296.074-.603.162-.915.25l.274.962c.315-.09.607-.172.885-.243l-.244-.97Zm.142-.05-.179.06.319.948c.059-.02.117-.04.175-.058l-.315-.95Zm.16-.052-.16.053.315.949.16-.053-.315-.95Zm1.741-.736c-.455.306-.985.485-1.741.736l.315.949c.725-.24 1.394-.459 1.984-.856l-.558-.83Zm.779 6.67v-6.255h-1v6.254h1Zm-.6.5h.1v-1h-.1v1ZM131.394 49.538l-12.6-2.421-.188.982 12.6 2.421.188-.982Zm14.661 6.495c-3.106-3.133-8.125-5.176-14.656-6.494l-.198.98c6.469 1.305 11.25 3.298 14.144 6.218l.71-.704Zm5.045 11.954c0-4.968-1.648-8.944-5.068-11.976l-.664.748c3.18 2.82 4.732 6.51 4.732 11.228h1Zm-4.106 12.11c2.669-3.417 4.106-7.46 4.106-12.11h-1c0 4.429-1.363 8.255-3.894 11.495l.788.616Zm-10.907 8.026c4.571-1.845 8.249-4.518 10.911-8.03l-.796-.605c-2.538 3.348-6.06 5.92-10.489 7.707l.374.928Zm-15.787 2.76c5.951 0 11.216-.916 15.787-2.76l-.374-.927c-4.429 1.787-9.564 2.687-15.413 2.687v1ZM97.91 84.94c5.51 3.912 13.022 5.944 22.39 5.944v-1c-9.232 0-16.52-2.003-21.81-5.759l-.58.815Zm-9.406-15.984c.816 6.695 3.89 11.965 9.402 15.98l.588-.807c-5.287-3.853-8.214-8.874-8.998-15.294l-.992.121Zm21.181-1.166-20.7.606.03 1 20.7-.606-.03-1Zm3.784 5.627c-1.767-1.126-2.896-2.911-3.276-5.208l-.986.163c.42 2.545 1.691 4.593 3.724 5.889l.538-.844Zm7.031 1.839c-2.934 0-5.225-.592-7.016-1.829l-.568.823c2.009 1.387 4.518 2.006 7.584 2.006v-1Zm6.245-1.444c-1.602.951-3.607 1.444-6.245 1.444v1c2.762 0 4.957-.517 6.755-1.584l-.51-.86Zm2.355-3.605c0 1.399-.77 2.665-2.355 3.606l.51.86c1.815-1.078 2.845-2.636 2.845-4.466h-1Zm-1.786-3.121c1.167.816 1.697 1.884 1.787 3.156l.998-.07c-.11-1.552-.78-2.906-2.213-3.906l-.572.82Zm-5.806-2.037c2.674.5 4.592 1.19 5.806 2.037l.572-.82c-1.386-.968-3.468-1.69-6.194-2.2l-.184.983Zm-11.404-2.22 11.4 2.22.192-.982-11.4-2.22-.192.982Zm-14.96-6.797c3.3 3.328 8.311 5.577 14.966 6.798l.18-.984c-6.545-1.2-11.334-3.39-14.435-6.518l-.71.704ZM90.2 43.17c0 5.162 1.642 9.426 4.94 12.856l.72-.693c-3.102-3.228-4.66-7.236-4.66-12.163h-1Zm3.603-11.604c-2.48 3.231-3.603 7.077-3.603 11.604h1c0-4.351 1.076-7.97 3.397-10.995l-.794-.609Zm10.321-7.427c-4.374 1.642-7.859 4.116-10.325 7.434l.802.596c2.334-3.139 5.649-5.508 9.875-7.094l-.352-.936Zm15.576-2.554c-5.944 0-11.109.813-15.582 2.556l.364.932c4.327-1.687 9.362-2.488 15.218-2.488v-1Zm21.295 5.746c-5.212-3.815-12.328-5.746-21.295-5.746v1c8.833 0 15.717 1.903 20.705 5.553l.59-.807Zm8.704 15.8c-.511-6.701-3.485-11.98-8.704-15.8l-.59.807c4.981 3.646 7.807 8.657 8.296 15.07l.998-.076Zm-19.586 1.043 19.1-.504-.026-1-19.1.505.026 1Zm-2.001-3.817a6.91 6.91 0 0 1 1.494 3.393l.988-.151a7.9 7.9 0 0 0-1.706-3.871l-.776.63Zm-3.31-2.378c1.347.583 2.474 1.347 3.31 2.378l.776-.63c-.964-1.188-2.237-2.038-3.69-2.666l-.396.918Zm-4.702-.867c1.748 0 3.378.295 4.702.867l.396-.918c-1.476-.638-3.246-.949-5.098-.949v1Zm-5.945 1.343c1.595-.947 3.595-1.343 5.945-1.343v-1c-2.45 0-4.65.411-6.455 1.483l.51.86Zm-2.255 3.504c0-1.42.689-2.668 2.236-3.493l-.472-.882c-1.853.99-2.764 2.567-2.764 4.375h1Zm1.318 2.944c-.987-.815-1.406-1.772-1.319-2.906l-.998-.076c-.113 1.49.468 2.752 1.681 3.753l.636-.771Zm5.588 2.217c-2.796-.604-4.576-1.29-5.568-2.2l-.676.737c1.208 1.108 3.228 1.834 6.032 2.44l.212-.977Zm72.48 26.742.27-.03-.112-.994-.27.03.112.994Zm-2.286.174c.752 0 1.5-.085 2.287-.174l-.113-.994c-.798.09-1.488.168-2.174.168v1Zm-3.077-.537c.857.325 1.918.537 3.077.537v-1a7.793 7.793 0 0 1-2.723-.472l-.354.936Zm-2.071-1.96c.445.898 1.132 1.605 2.071 1.96l.354-.935c-.661-.25-1.175-.754-1.529-1.47l-.896.445Zm-.652-3.35c0 1.36.207 2.452.652 3.35l.896-.444c-.355-.716-.548-1.642-.548-2.906h-1Zm0-29.66v29.66h1V38.53h-1Zm12.3-.5h-11.8v1h11.8v-1Zm-.5-15.036v15.536h1V22.993h-1Zm-11.3.5h11.8v-1h-11.8v1Zm-.5-16.238v15.738h1V7.255h-1Zm-20.3.5h20.8v-1h-20.8v1Zm.5 15.339V7.254h-1v15.84h1Zm-9.1.5h8.6v-1h-8.6v1Zm.5 14.935V23.094h-1v15.435h1Zm8.1-.5h-8.6v1h8.6v-1Zm.5 32.582V38.529h-1v32.082h1Zm2.526 10.835c-1.739-2.825-2.625-6.457-2.526-10.824l-1-.023c-.102 4.512.812 8.345 2.674 11.371l.852-.524Zm7.761 6.356c-3.411-1.376-6.023-3.53-7.761-6.356l-.852.524c1.861 3.025 4.649 5.31 8.239 6.76l.374-.928Zm12.392 1.679c-4.858.2-8.981-.303-12.392-1.68l-.374.928c3.588 1.448 7.866 1.955 12.807 1.751l-.041-.999Zm6.311-.795c-1.77.396-3.84.695-6.31.795l.04 1c2.53-.103 4.659-.41 6.489-.82l-.219-.975Zm4.165-1.1c-.993.3-2.38.7-4.165 1.1l.219.975a58.287 58.287 0 0 0 4.236-1.119l-.29-.957Zm-3.544-14.552 3.2 15.133.978-.207-3.2-15.132-.978.206Zm.443.425.168-.043-.244-.97-.176.045.252.968Zm.032-.01-.316-.948.316.949Zm-1.93.382c.82-.092 1.481-.264 1.898-.372l-.252-.968c-.412.107-1.014.263-1.758.347l.112.993Zm636.641-46.297c-2.659-1.96-5.816-3.395-9.359-4.416l-.276.96c3.457.997 6.5 2.387 9.041 4.26l.594-.804Zm6.154 7.148c-1.343-2.814-3.504-5.194-6.154-7.148l-.594.805c2.55 1.88 4.589 4.14 5.846 6.774l.902-.431Zm2.249 9.497c0-3.601-.715-6.713-2.262-9.523l-.876.483c1.453 2.638 2.138 5.579 2.138 9.04h1Zm0 44.894V44.179h-1v44.894h1Zm-20.1.5h19.6v-1h-19.6v1Zm-.5-9.681v9.18h1v-9.18h-1Zm0 .5h.5v-1h-.5v1Zm-4.178 5.532c1.854-1.559 3.392-3.528 4.618-5.794l-.88-.476c-1.174 2.172-2.637 4.038-4.382 5.505l.644.765Zm-6.463 3.622c2.44-.82 4.714-1.96 6.485-3.642l-.688-.725c-1.629 1.546-3.754 2.626-6.115 3.42l.318.947ZM797 90.783c3.042 0 5.898-.409 8.359-1.237l-.318-.947c-2.339.786-5.083 1.184-8.041 1.184v1Zm-11.302-2.161c3.275 1.445 7.046 2.161 11.302 2.161v-1c-4.144 0-7.773-.697-10.898-2.076l-.404.915Zm-7.813-6.635c1.948 2.896 4.519 5.181 7.813 6.635l.404-.915c-3.106-1.37-5.535-3.524-7.387-6.278l-.83.558ZM775 70.812c0 4.407.914 8.14 2.881 11.168l.838-.544C776.886 78.612 776 75.082 776 70.812h-1Zm1.956-9.51c-1.348 2.615-1.956 5.828-1.956 9.51h1c0-3.58.592-6.623 1.844-9.052l-.888-.458Zm5.448-6.328c-2.257 1.656-4.11 3.732-5.448 6.328l.888.458c1.262-2.448 3.009-4.408 5.152-5.98l-.592-.806Zm7.962-3.61a28.086 28.086 0 0 0-7.941 3.595l.55.836a27.084 27.084 0 0 1 7.659-3.467l-.268-.964Zm9.488-1.731c-3.321.305-6.457.814-9.499 1.734l.29.958c2.958-.896 6.022-1.396 9.301-1.696l-.092-.996Zm1.342-.146-1.35.147.108.994 1.349-.146-.107-.995Zm7.618-.958c-1.994.35-4.525.624-7.618.958l.107.995c3.081-.334 5.65-.611 7.683-.968l-.172-.985Zm4.698-1.631c-.912.644-2.528 1.232-4.702 1.631l.18.984c2.226-.408 4.01-1.03 5.098-1.798l-.576-.817Zm1.388-2.72c0 1.173-.438 2.109-1.37 2.707l.54.842c1.268-.814 1.83-2.098 1.83-3.548h-1Zm0-.201v.202h1v-.202h-1Zm-2.114-4.756c1.37 1.106 2.114 2.671 2.114 4.756h1c0-2.354-.856-4.219-2.486-5.534l-.628.778ZM807 37.516c2.523 0 4.4.586 5.786 1.705l.628-.778c-1.614-1.303-3.737-1.927-6.414-1.927v1Zm-6.31 1.723c1.593-1.135 3.683-1.723 6.31-1.723v-1c-2.774 0-5.084.622-6.89 1.909l.58.814Zm-3.003 4.651c.479-2.03 1.422-3.618 2.986-4.64l-.546-.837c-1.836 1.198-2.893 3.04-3.414 5.247l.974.23Zm-19.705-.321 19.2.706.036-1-19.2-.706-.036 1Zm4.021-11.6c-2.459 3.206-3.887 6.92-4.498 11.026l.99.148c.589-3.965 1.961-7.514 4.302-10.564l-.794-.61Zm9.995-7.617c-4.167 1.845-7.538 4.416-9.995 7.618l.794.609c2.343-3.053 5.572-5.527 9.605-7.313l-.404-.914Zm15.202-2.767c-5.949 0-11.022.915-15.202 2.767l.404.914c4.02-1.78 8.947-2.681 14.798-2.681v-1Zm11.638 1.533c-3.551-1.024-7.498-1.533-11.638-1.533v1c4.06 0 7.913.5 11.362 1.494l.276-.961ZM815 65.566c0 2.04-.48 3.853-1.513 5.368l.826.564c1.167-1.713 1.687-3.733 1.687-5.932h-1Zm.6-.5h-.1v1h.1v-1Zm-.5-5.755v6.255h1v-6.255h-1Zm-1.206 1.27c.726-.24 1.395-.458 1.985-.855l-.558-.83c-.456.307-.985.486-1.741.737l.314.949Zm-.007.003.006-.002-.312-.95-.005.002.311.95Zm-.328.11.33-.11-.314-.95a50.06 50.06 0 0 0-.334.111l.318.948Zm-.922.253c.314-.09.607-.172.885-.243l-.244-.97c-.296.075-.604.163-.915.251l.274.962Zm-1.838.469c.663-.134 1.281-.31 1.838-.469l-.274-.962c-.561.16-1.143.326-1.762.45l.198.98Zm-3.109.607c1.105-.203 2.109-.406 3.109-.607l-.198-.98c-1 .201-1.996.402-3.091.603l.18.984Zm-3.04.51c1.029-.104 2.053-.311 3.049-.512l-.198-.98c-1.004.203-1.98.399-2.951.497l.1.995Zm-4.825 1.361c1.33-.67 2.968-1.064 4.854-1.365l-.158-.987c-1.914.304-3.676.718-5.146 1.46l.45.892Zm-3.002 2.444c.631-1 1.639-1.756 3.002-2.444l-.45-.893c-1.437.725-2.629 1.583-3.398 2.803l.846.534Zm-1.023 3.466c0-1.31.368-2.429 1.023-3.466l-.846-.534c-.745 1.182-1.177 2.484-1.177 4h1Zm2.097 4.54c-1.354-1.001-2.097-2.556-2.097-4.54h-1c0 2.253.857 4.127 2.503 5.345l.594-.804Zm5.603 1.618c-2.317 0-4.206-.584-5.603-1.617l-.594.804c1.603 1.186 3.714 1.813 6.197 1.813v-1Zm5.875-1.359c-1.73.873-3.652 1.359-5.875 1.359v1c2.377 0 4.455-.523 6.325-1.466l-.45-.893Zm4.112-3.669c-1.05 1.541-2.388 2.702-4.131 3.68l.488.872c1.857-1.041 3.319-2.301 4.469-3.989l-.826-.563ZM712.7 1.5h21.1v-1h-21.1v1Zm.5 87.573V1h-1v88.073h1Zm56.9-.5h-57.4v1h57.4v-1Zm-.5-16.752v17.252h1V71.82h-1Zm-35.8.5h36.3v-1h-36.3v1ZM733.3 1v70.821h1V1h-1Zm174.651 35.7c-2.435-5.118-5.797-8.933-9.796-11.312l-.511.86c3.801 2.261 7.039 5.912 9.404 10.882l.903-.43Zm3.848 19.471c-.201-7.907-1.407-14.34-3.848-19.47l-.903.429c2.359 4.957 3.553 11.236 3.752 19.067l.999-.026Zm-3.548 18.992c2.443-5.133 3.548-11.47 3.548-18.979h-1c0 7.421-1.094 13.595-3.451 18.55l.903.43Zm-9.685 11.508c4.096-2.583 7.253-6.397 9.685-11.508l-.903-.43c-2.368 4.978-5.411 8.63-9.315 11.092l.533.846Zm-13.467 3.91c4.89 0 9.387-1.234 13.475-3.915l-.549-.836c-3.912 2.565-8.215 3.751-12.926 3.751v1Zm-8.809-1.66c2.485 1.15 5.462 1.66 8.809 1.66v-1c-3.252 0-6.075-.497-8.39-1.568l-.419.908Zm-6.266-4.461c1.658 1.882 3.822 3.331 6.266 4.461l.419-.908c-2.356-1.09-4.393-2.465-5.934-4.214l-.751.66Zm-3.881-5.878a20.97 20.97 0 0 0 3.891 5.889l.73-.684a19.98 19.98 0 0 1-3.708-5.612l-.913.407Zm-.144.297h.6v-1h-.6v1Zm.5 10.194V78.379h-1v10.694h1Zm-21.1.5h20.6v-1h-20.6v1Zm-.5-88.472v87.972h1V1.1h-1Zm21.3-.5h-20.8v1h20.8v-1Zm.5 33.792V1.1h-1v33.292h1Zm-.1-.5h-.4v1h.4v-1Zm3.225-5.682a20.606 20.606 0 0 0-3.689 5.998l.929.368a19.638 19.638 0 0 1 3.511-5.705l-.751-.661Zm6.25-4.656c-2.443 1.233-4.598 2.782-6.25 4.656l.751.661c1.548-1.757 3.592-3.235 5.95-4.424l-.451-.893Zm9.125-1.87c-3.457 0-6.535.616-9.117 1.867l.435.9c2.418-1.171 5.34-1.766 8.682-1.766v-1Zm12.964 3.708c-3.979-2.47-8.371-3.707-12.964-3.707v1c4.407 0 8.616 1.184 12.437 3.556l.527-.85Zm-10.336 39.81c-.873 2.543-2.226 4.487-3.86 5.942l.665.747c1.766-1.572 3.213-3.663 4.14-6.365l-.945-.325Zm1.372-9.12c0 3.499-.397 6.559-1.367 9.103l.935.357c1.03-2.702 1.432-5.896 1.432-9.46h-1Zm-1.372-9.119c.879 2.563 1.372 5.534 1.372 9.12h1c0-3.68-.506-6.762-1.427-9.445l-.945.325Zm-3.836-5.822c1.705 1.338 2.958 3.264 3.836 5.822l.945-.325c-.922-2.688-2.269-4.797-4.164-6.284l-.617.787Zm-6.192-2.012c2.508 0 4.588.68 6.181 2.003l.639-.769c-1.807-1.501-4.127-2.234-6.82-2.234v1Zm-6.191 2.012c1.702-1.335 3.79-2.012 6.191-2.012v-1c-2.598 0-4.91.736-6.808 2.225l.617.787Zm-3.941 5.838c.979-2.57 2.235-4.5 3.941-5.838l-.617-.787c-1.894 1.486-3.238 3.592-4.259 6.269l.935.356Zm-1.368 9.103c0-3.588.495-6.657 1.371-9.113l-.941-.336c-.924 2.587-1.43 5.774-1.43 9.45h1Zm1.373 9.12c-.879-2.563-1.373-5.635-1.373-9.12h-1c0 3.577.507 6.76 1.428 9.444l.945-.325Zm3.936 5.922c-1.708-1.34-3.059-3.37-3.936-5.923l-.945.325c.923 2.692 2.372 4.9 4.264 6.385l.617-.787Zm6.191 2.012c-2.401 0-4.489-.676-6.191-2.012l-.617.787c1.898 1.49 4.21 2.225 6.808 2.225v-1Zm6.192-2.012c-1.702 1.336-3.79 2.012-6.192 2.012v1c2.599 0 4.911-.736 6.809-2.225l-.617-.787ZM656 22.685c4.525 0 8.429.992 11.735 3.053l.529-.85c-3.494-2.176-7.589-3.202-12.264-3.202v1Zm-12.224 3.449c3.409-2.26 7.51-3.448 12.224-3.448v-1c-4.887 0-9.186 1.233-12.777 3.614l.553.834Zm-7.204 9.23c1.363-3.928 3.792-6.968 7.204-9.23l-.553-.834c-3.587 2.379-6.158 5.593-7.596 9.736l.945.328Zm-1.172.336h.7v-1h-.7v1Zm-.5-12.606V35.2h1V23.094h-1Zm-19.3.5h19.8v-1h-19.8v1Zm.5 65.479v-65.98h-1v65.98h1Zm20.3-.5h-20.8v1h20.8v-1Zm-.5-37.13v37.63h1v-37.63h-1Zm1.452-6.68c-.938 1.893-1.452 4.089-1.452 6.68h1c0-2.454.485-4.495 1.348-6.235l-.896-.444Zm4.001-4.247c-1.684.955-3.056 2.34-4.001 4.248l.896.444c.854-1.724 2.083-2.962 3.598-3.823l-.493-.87Zm6.047-1.478c-2.264 0-4.258.416-6.056 1.483l.511.86c1.602-.952 3.408-1.343 5.545-1.343v-1Zm8.081 3.304c-1.918-2.258-4.675-3.304-8.081-3.304v1c3.193 0 5.637.972 7.319 2.951l.762-.647Zm2.919 8.899c0-3.708-.919-6.776-2.936-8.918l-.728.685c1.782 1.893 2.664 4.677 2.664 8.233h1Zm0 37.832V51.24h-1v37.832h1Zm20.4-.5h-20.9v1h20.9v-1Zm-.5-41.57v42.07h1v-42.07h-1Zm-2.746-12.787c1.857 3.648 2.746 7.905 2.746 12.788h1c0-5.004-.912-9.424-2.855-13.241l-.891.453Zm-7.81-8.473c3.314 1.967 5.95 4.82 7.81 8.473l.891-.453c-1.94-3.812-4.704-6.81-8.19-8.88l-.511.86Zm-209.047 1.79c-2.659-1.959-5.816-3.394-9.359-4.415l-.277.96c3.458.997 6.501 2.387 9.042 4.26l.594-.804Zm6.148 7.136c-1.437-2.796-3.49-5.175-6.148-7.135l-.594.805c2.542 1.873 4.489 4.135 5.852 6.787l.89-.457Zm2.255 9.51c0-3.601-.715-6.713-2.262-9.523l-.876.483c1.453 2.638 2.138 5.579 2.138 9.04h1Zm0 44.894V44.179h-1v44.894h1Zm-20.1.5h19.6v-1H447v1Zm-.5-9.681v9.18h1v-9.18h-1Zm0 .5h.5v-1h-.5v1Zm-4.178 5.532c1.854-1.559 3.392-3.528 4.618-5.794l-.88-.476c-1.174 2.172-2.637 4.038-4.382 5.505l.644.765Zm-6.463 3.622c2.439-.82 4.714-1.96 6.485-3.642l-.688-.725c-1.629 1.546-3.754 2.626-6.115 3.42l.318.947Zm-8.359 1.237c3.042 0 5.898-.409 8.359-1.237l-.318-.947c-2.339.786-5.083 1.184-8.041 1.184v1Zm-11.302-2.161c3.275 1.445 7.046 2.161 11.302 2.161v-1c-4.144 0-7.773-.697-10.898-2.076l-.404.915Zm-7.813-6.635c1.948 2.896 4.519 5.181 7.813 6.635l.404-.915c-3.106-1.37-5.535-3.524-7.387-6.278l-.83.558ZM405.5 70.812c0 4.407.914 8.14 2.881 11.168l.838-.544c-1.833-2.824-2.719-6.354-2.719-10.624h-1Zm1.956-9.51c-1.348 2.615-1.956 5.828-1.956 9.51h1c0-3.58.592-6.623 1.844-9.052l-.888-.458Zm5.448-6.328c-2.257 1.656-4.11 3.732-5.448 6.328l.888.458c1.262-2.448 3.009-4.408 5.152-5.98l-.592-.806Zm7.962-3.61a28.086 28.086 0 0 0-7.941 3.595l.55.836a27.084 27.084 0 0 1 7.659-3.467l-.268-.964Zm9.488-1.731c-3.321.305-6.457.814-9.499 1.734l.29.958c2.958-.896 6.022-1.396 9.301-1.696l-.092-.996Zm.485-.053-.493.054.108.994.494-.054-.109-.994Zm.857-.093-.856.093.107.994.857-.092-.108-.995Zm7.618-.958c-1.994.35-4.525.624-7.618.958l.108.995c3.08-.334 5.649-.611 7.682-.968l-.172-.985Zm4.698-1.631c-.912.644-2.528 1.232-4.702 1.631l.18.984c2.226-.408 4.01-1.03 5.098-1.798l-.576-.817Zm1.388-2.72c0 1.173-.438 2.109-1.37 2.707l.54.842c1.268-.814 1.83-2.098 1.83-3.548h-1Zm0-.201v.202h1v-.202h-1Zm-2.114-4.756c1.37 1.106 2.114 2.671 2.114 4.756h1c0-2.354-.856-4.219-2.486-5.534l-.628.778Zm-5.786-1.705c2.523 0 4.4.586 5.786 1.705l.628-.778c-1.614-1.303-3.737-1.927-6.414-1.927v1Zm-6.31 1.723c1.594-1.135 3.683-1.723 6.31-1.723v-1c-2.774 0-5.084.622-6.89 1.909l.58.814Zm-3.003 4.651c.479-2.03 1.422-3.618 2.986-4.64l-.546-.837c-1.836 1.198-2.893 3.04-3.414 5.247l.974.23Zm-19.705-.321 19.2.706.036-1-19.2-.706-.036 1Zm4.021-11.6c-2.459 3.206-3.887 6.92-4.498 11.026l.99.148c.589-3.965 1.961-7.514 4.302-10.564l-.794-.61Zm9.994-7.617c-4.166 1.845-7.537 4.416-9.994 7.618l.794.609c2.343-3.053 5.572-5.527 9.605-7.313l-.405-.914Zm15.203-2.767c-5.949 0-11.022.915-15.203 2.767l.405.914c4.02-1.78 8.947-2.681 14.798-2.681v-1Zm11.638 1.533c-3.551-1.024-7.498-1.533-11.638-1.533v1c4.06 0 7.913.5 11.361 1.494l.277-.961ZM445.4 65.566c0 2.04-.48 3.853-1.513 5.368l.826.564c1.167-1.713 1.687-3.733 1.687-5.932h-1Zm.6-.5h-.1v1h.1v-1Zm-.5-5.755v6.255h1v-6.255h-1Zm-1.206 1.27c.726-.24 1.395-.458 1.985-.855l-.558-.83c-.456.307-.985.486-1.741.736l.314.95Zm-.13.044.13-.043-.314-.95-.131.044.315.949Zm-.205.068.205-.068-.315-.95c-.068.024-.137.047-.208.07l.318.948Zm-.922.254c.314-.09.607-.172.885-.243l-.244-.97c-.296.075-.604.163-.915.251l.274.962Zm-1.838.469c.663-.134 1.281-.31 1.838-.469l-.274-.962c-.561.16-1.143.326-1.762.45l.198.98Zm-.007.001-.184-.983h-.001l.185.983Zm-.001 0h.001l-.185-.983.184.983Zm0 0-.184-.983.184.983Zm-3.101.606c1.105-.203 2.109-.405 3.108-.607l-.198-.98c-1 .202-1.996.402-3.09.603l.18.984Zm-3.04.51c1.029-.104 2.053-.311 3.049-.512l-.198-.98c-1.004.203-1.98.399-2.951.497l.1.995Zm-4.825 1.361c1.33-.67 2.968-1.064 4.854-1.365l-.158-.987c-1.914.304-3.676.718-5.146 1.46l.45.892Zm-3.002 2.444c.631-1 1.639-1.756 3.002-2.444l-.45-.893c-1.437.725-2.629 1.583-3.398 2.803l.846.534Zm-1.023 3.466c0-1.31.368-2.429 1.023-3.466l-.846-.534c-.745 1.182-1.177 2.484-1.177 4h1Zm2.097 4.54c-1.354-1.001-2.097-2.556-2.097-4.54h-1c0 2.253.857 4.127 2.503 5.345l.594-.804Zm5.603 1.618c-2.317 0-4.206-.584-5.603-1.617l-.594.804c1.603 1.186 3.714 1.813 6.197 1.813v-1Zm5.875-1.359c-1.73.873-3.652 1.359-5.875 1.359v1c2.377 0 4.455-.523 6.325-1.466l-.45-.893Zm4.112-3.669c-1.05 1.541-2.388 2.702-4.131 3.68l.488.872c1.857-1.041 3.319-2.301 4.469-3.989l-.826-.563ZM515.6 22.686c4.407 0 8.615 1.184 12.436 3.556l.528-.85c-3.98-2.47-8.371-3.706-12.964-3.706v1Zm-8.682 1.766c2.417-1.171 5.339-1.766 8.682-1.766v-1c-3.458 0-6.536.615-9.118 1.866l.436.9Zm-5.943 4.42c1.549-1.757 3.593-3.235 5.95-4.424l-.45-.893c-2.443 1.233-4.599 2.782-6.25 4.656l.75.661Zm-3.51 5.705a19.614 19.614 0 0 1 3.51-5.705l-.75-.661a20.63 20.63 0 0 0-3.69 5.998l.93.368Zm-1.065.316h.6v-1h-.6v1Zm-.5-11.9v11.4h1v-11.4h-1Zm-20.1.5h20.6v-1h-20.6v1Zm.5 90.296V22.993h-1v90.796h1Zm20.3-.5h-20.8v1h20.8v-1Zm-.5-34.91v35.41h1v-35.41h-1Zm.9-.5h-.4v1h.4v-1Zm4.165 5.908a19.962 19.962 0 0 1-3.709-5.612l-.913.407a20.973 20.973 0 0 0 3.892 5.889l.73-.684Zm5.945 4.226c-2.357-1.09-4.393-2.465-5.935-4.214l-.75.66c1.658 1.883 3.821 3.332 6.265 4.462l.42-.908Zm8.39 1.568c-3.253 0-6.076-.497-8.39-1.568l-.42.908c2.485 1.15 5.463 1.66 8.81 1.66v-1Zm12.926-3.751c-3.913 2.565-8.216 3.751-12.926 3.751v1c4.889 0 9.386-1.234 13.474-3.915l-.548-.836Zm9.322-11.096c-2.368 4.977-5.411 8.63-9.315 11.09l.534.847c4.096-2.583 7.253-6.397 9.684-11.508l-.903-.43Zm3.452-18.55c0 7.421-1.094 13.595-3.452 18.55l.903.43c2.443-5.135 3.549-11.47 3.549-18.98h-1Zm-3.648-18.946c2.454 4.953 3.648 11.225 3.648 18.946h1c0-7.815-1.207-14.254-3.752-19.39l-.896.444Zm-9.511-10.993c3.904 2.364 7.044 5.916 9.509 10.99l.9-.438c-2.535-5.216-5.795-8.928-9.891-11.407l-.518.855Zm-12.909 45.647c1.766-1.572 3.214-3.663 4.141-6.365l-.946-.325c-.873 2.544-2.225 4.488-3.86 5.943l.665.747Zm-6.832 2.245c2.598 0 4.91-.736 6.808-2.225l-.617-.787c-1.702 1.336-3.79 2.012-6.191 2.012v1Zm-6.809-2.225c1.898 1.49 4.21 2.225 6.809 2.225v-1c-2.402 0-4.49-.676-6.192-2.012l-.617.787Zm-4.264-6.385c.924 2.692 2.372 4.9 4.264 6.385l.617-.787c-1.707-1.34-3.059-3.37-3.935-5.923l-.946.325Zm-1.427-9.444c0 3.577.506 6.76 1.427 9.444l.946-.325c-.88-2.562-1.373-5.634-1.373-9.119h-1Zm1.429-9.45c-.924 2.588-1.429 5.775-1.429 9.45h1c0-3.588.494-6.657 1.371-9.113l-.942-.336Zm4.262-6.278c-1.894 1.486-3.238 3.592-4.258 6.269l.934.356c.98-2.57 2.235-4.5 3.941-5.838l-.617-.787Zm6.809-2.225c-2.599 0-4.911.736-6.809 2.225l.617.787c1.702-1.335 3.79-2.012 6.192-2.012v-1Zm6.819 2.234c-1.806-1.501-4.127-2.234-6.819-2.234v1c2.507 0 4.587.68 6.18 2.003l.639-.769Zm4.154 6.276c-.923-2.689-2.27-4.798-4.165-6.285l-.617.787c1.705 1.338 2.958 3.264 3.836 5.822l.946-.325Zm1.427 9.443c0-3.678-.507-6.76-1.427-9.444l-.946.325c.879 2.563 1.373 5.534 1.373 9.12h1Zm-1.427 9.444c.92-2.684 1.427-5.867 1.427-9.444h-1c0 3.485-.494 6.557-1.373 9.12l.946.324Zm79.323-37.993c-2.658-1.96-5.815-3.395-9.358-4.416l-.277.96c3.457.997 6.5 2.387 9.042 4.26l.593-.804Zm6.148 7.135c-1.437-2.796-3.489-5.175-6.148-7.135l-.593.805c2.541 1.873 4.489 4.135 5.852 6.787l.889-.457Zm2.255 9.51c0-3.601-.714-6.713-2.262-9.523l-.876.483c1.453 2.638 2.138 5.579 2.138 9.04h1Zm0 44.894V44.179h-1v44.894h1Zm-20.1.5h19.6v-1h-19.6v1Zm-.5-9.681v9.18h1v-9.18h-1Zm0 .5h.5v-1h-.5v1Zm-4.178 5.532c1.855-1.559 3.393-3.528 4.618-5.794l-.879-.476c-1.175 2.172-2.637 4.038-4.382 5.505l.643.765Zm-6.462 3.622c2.439-.82 4.713-1.96 6.485-3.642l-.689-.725c-1.628 1.546-3.754 2.626-6.115 3.42l.319.947Zm-8.36 1.237c3.043 0 5.898-.409 8.36-1.237l-.319-.947c-2.339.786-5.083 1.184-8.041 1.184v1Zm-11.301-2.161c3.275 1.445 7.046 2.161 11.301 2.161v-1c-4.144 0-7.773-.697-10.898-2.076l-.403.915Zm-7.813-6.635c1.947 2.896 4.518 5.181 7.813 6.635l.403-.915c-3.105-1.37-5.534-3.524-7.387-6.278l-.829.558Zm-2.886-11.175c0 4.407.915 8.14 2.881 11.168l.839-.544c-1.834-2.824-2.72-6.354-2.72-10.624h-1Zm1.956-9.51c-1.348 2.615-1.956 5.828-1.956 9.51h1c0-3.58.593-6.623 1.845-9.052l-.889-.458Zm5.47-6.343c-2.389 1.572-4.141 3.764-5.47 6.343l.889.458c1.271-2.465 2.918-4.51 5.13-5.965l-.549-.836Zm7.94-3.595a28.08 28.08 0 0 0-7.94 3.595l.549.836a27.097 27.097 0 0 1 7.659-3.467l-.268-.964Zm9.489-1.731c-3.322.305-6.457.814-9.499 1.734l.289.958c2.958-.896 6.022-1.396 9.301-1.696l-.091-.996Zm1.341-.146-1.35.147.109.994 1.349-.146-.108-.995Zm7.618-.958c-1.994.35-4.525.624-7.618.958l.108.995c3.08-.334 5.649-.611 7.683-.968l-.173-.985Zm4.698-1.631c-.912.644-2.527 1.232-4.702 1.631l.181.984c2.225-.408 4.01-1.03 5.098-1.798l-.577-.817Zm1.388-2.72c0 1.173-.438 2.109-1.37 2.707l.541.842c1.267-.814 1.829-2.098 1.829-3.548h-1Zm0-.201v.202h1v-.202h-1Zm-2.114-4.756c1.371 1.106 2.114 2.671 2.114 4.756h1c0-2.354-.856-4.219-2.486-5.534l-.628.778Zm-5.786-1.705c2.523 0 4.4.586 5.786 1.705l.628-.778c-1.614-1.303-3.736-1.927-6.414-1.927v1Zm-6.31 1.723c1.594-1.135 3.684-1.723 6.31-1.723v-1c-2.773 0-5.083.622-6.89 1.909l.58.814Zm-3.003 4.651c.479-2.03 1.422-3.618 2.987-4.64l-.547-.837c-1.835 1.198-2.892 3.04-3.413 5.247l.973.23Zm-19.705-.321 19.2.706.037-1-19.2-.706-.037 1Zm4.022-11.6c-2.46 3.206-3.888 6.92-4.498 11.026l.989.148c.589-3.965 1.961-7.514 4.302-10.564l-.793-.61Zm9.994-7.617c-4.167 1.845-7.537 4.416-9.994 7.618l.793.609c2.343-3.053 5.573-5.527 9.606-7.313l-.405-.914Zm15.202-2.767c-5.948 0-11.022.915-15.202 2.767l.405.914c4.019-1.78 8.946-2.681 14.797-2.681v-1Zm11.639 1.533c-3.551-1.024-7.499-1.533-11.639-1.533v1c4.061 0 7.913.5 11.362 1.494l.277-.961Zm-3.939 42.448c0 2.04-.48 3.853-1.513 5.368l.827.564c1.167-1.713 1.686-3.733 1.686-5.932h-1Zm.6-.5h-.1v1h.1v-1Zm-.5-5.755v6.255h1v-6.255h-1Zm-1.205 1.27c.726-.24 1.394-.458 1.984-.855l-.558-.83c-.455.307-.985.486-1.741.737l.315.949Zm-.335.112.335-.111-.315-.95-.339.114.319.947Zm-.923.254c.315-.09.607-.172.886-.243l-.245-.97c-.296.075-.603.163-.914.251l.273.962Zm-1.838.469c.663-.134 1.282-.31 1.838-.469l-.273-.962c-.561.16-1.143.326-1.762.45l.197.98Zm-3.108.607c1.105-.203 2.109-.406 3.108-.607l-.197-.98c-1.001.201-1.997.402-3.092.603l.181.984Zm-3.04.51c1.028-.104 2.053-.311 3.048-.512l-.197-.98c-1.005.203-1.98.399-2.952.497l.101.995Zm-4.825 1.361c1.329-.67 2.967-1.064 4.853-1.365l-.157-.987c-1.914.304-3.676.718-5.147 1.46l.451.892Zm-3.003 2.444c.631-1 1.639-1.756 3.003-2.444l-.451-.893c-1.437.725-2.628 1.583-3.397 2.803l.845.534Zm-1.023 3.466c0-1.31.369-2.429 1.023-3.466l-.845-.534c-.746 1.182-1.178 2.484-1.178 4h1Zm2.098 4.54c-1.355-1.001-2.098-2.556-2.098-4.54h-1c0 2.253.857 4.127 2.503 5.345l.595-.804Zm5.602 1.618c-2.317 0-4.206-.584-5.602-1.617l-.595.804c1.604 1.186 3.715 1.813 6.197 1.813v-1Zm5.875-1.359c-1.729.873-3.652 1.359-5.875 1.359v1c2.378 0 4.455-.523 6.326-1.466l-.451-.893Zm4.112-3.669c-1.05 1.541-2.388 2.702-4.131 3.68l.489.872c1.857-1.041 3.319-2.301 4.469-3.989l-.827-.563Z"/></g><defs><linearGradient id="b" x1="36.69" x2="875.486" y1="35.589" y2="102.502" gradientUnits="userSpaceOnUse"><stop stop-color="#fff"/><stop offset=".547" stop-color="#EC9691"/><stop offset="1" stop-color="#fff"/></linearGradient><clipPath id="a"><path fill="#fff" d="M0 0h912v114H0z"/></clipPath></defs></svg>