<svg xmlns="http://www.w3.org/2000/svg" viewBox="0 0 116 34"><title>GSR Trading</title><g fill="none"><path fill="#000" d="M58.037 16.818h8.525v.792c-2.02.307-2.725.615-2.725 3.384v8.877a17.664 17.664 0 0 1-9.711 2.771c-9.617 0-15.777-6.371-15.777-15.38 0-9.23 7.032-15.865 16.831-15.865 4.088 0 7.252.836 9.976 2.197v4.923h-.835c-1.45-3.958-4.482-5.808-9.273-5.808-8.525 0-14.507 6.021-14.507 14.37 0 8.659 5.89 14.24 14.018 14.24 2.636 0 5.097-.529 7.294-1.63v-8.65c0-2.814-.614-3.122-3.822-3.424l.006-.797Zm11.029 12.833v-5.185h.835c1.758 5.138 5.01 6.856 8.665 6.856 3.558 0 7.335-2.241 7.335-6.373 0-2.68-1.583-4.219-5.185-5.89l-4.483-2.065c-3.78-1.757-6.11-4.174-6.11-7.824 0-4.174 3.473-7.778 9.23-7.778 3.032 0 6.194.967 8.13 2.153v4.88h-.836c-1.405-4.4-4.4-5.705-7.514-5.705-4.219 0-7.076 2.55-7.076 6.242 0 3.12 1.979 4.789 5.01 6.151l4.527 2.065c4.043 1.847 6.24 3.956 6.24 7.428 0 4.657-4.13 8.041-9.454 8.041a15.91 15.91 0 0 1-9.314-2.996ZM116 32.156v.132h-2.681l-14.985-15.6h-2.373v10.81c0 3.604.652 3.824 2.77 3.998v.792h-7.517v-.792c2.198-.174 2.771-.394 2.771-3.998V6.8c0-3.297-.489-4-2.77-4.264v-.79h9.49c6.55 0 10.725 2.813 10.725 7.335 0 4.44-4 7.472-10.328 7.692L116 32.156ZM95.96 15.368h4.351c5.757 0 8.965-2.282 8.965-6.242 0-3.822-3.164-6.063-8.92-6.063h-4.402l.007 12.305Z"></path><path fill="#5E93C6" d="M16.952 11.754V.59h-1.255v11.164a5.053 5.053 0 0 1 1.255 0ZM7.987 2.856l-1.056.678 6.03 9.39a5.3 5.3 0 0 1 1.057-.678l-6.031-9.39ZM1.666 9.612l-.522 1.141 10.153 4.637c.128-.4.303-.783.522-1.14L1.666 9.611ZM0 18.714l.18 1.242 11.047-1.59a5.379 5.379 0 0 1-.177-1.241L0 18.714Zm11.954 1.247L3.52 27.27l.815.947 8.437-7.309a5.319 5.319 0 0 1-.817-.948Zm-.847 12.606 1.203.354 3.146-10.71a5.237 5.237 0 0 1-1.205-.353l-3.144 10.71Zm9.245.354 1.205-.354-3.138-10.709a5.26 5.26 0 0 1-1.205.352l3.138 10.71Zm-.466-12.012 8.435 7.311.823-.949-8.443-7.31a5.245 5.245 0 0 1-.815.948Zm1.55-2.542 11.048 1.589.18-1.242-11.052-1.59c-.01.42-.068.837-.176 1.243Zm10.083-7.614-.521-1.141-10.154 4.637c.22.358.395.741.522 1.141l10.153-4.637Zm-5.788-7.22-1.056-.677-6.031 9.39a5.3 5.3 0 0 1 1.056.678l6.031-9.39ZM11.107 1.433l1.205-.353 2.068 7.044-1.205.354zM18.284 8.122l2.067-7.044 1.205.353-2.068 7.044zM3.519 6.727l.822-.948 5.55 4.81-.821.948zM0 15.284l.178-1.242 7.268 1.045-.179 1.242zM1.241 23.246l6.683-3.084.527 1.142-6.683 3.084zM6.933 30.466l3.97-6.177 1.056.678-3.97 6.178zM15.703 26.067h1.255v7.341h-1.255zM20.703 24.964l1.057-.68 3.97 6.178-1.056.68zM24.32 21.338l.522-1.141 6.679 3.05L31 24.39zM25.215 15.089l7.268-1.045.179 1.242-7.268 1.045zM22.77 10.59l5.552-4.811.821.949-5.55 4.81z"></path></g></svg>
