<svg width="1578" height="1078" viewBox="0 0 1578 1078" fill="none" xmlns="http://www.w3.org/2000/svg">
<path opacity="0.5" d="M862.332 411.269C849.64 331.85 779.721 327.134 720.566 343.121C665.692 357.952 441.646 345.911 414.943 251.383C389.035 159.674 440.644 144.5 457.647 186.153C470.888 218.596 446.244 213.531 446.244 213.531C446.244 213.531 481.289 211.319 466.4 165.142C466.4 165.142 482.637 126.408 454.499 113.489C421.5 98.3383 389.992 133.323 389.181 194.025C388.37 254.728 416.705 325.698 487.162 364.468C557.618 403.238 650.715 411.947 733.622 374.496C782.836 352.265 841.066 369.653 862.292 411.139L862.336 411.267L862.332 411.269Z" fill="url(#paint0_linear_321_719)" stroke="#220E6E"/>
<path d="M862.32 411.137C873.561 433.101 874.422 461.819 858.08 494.992C810.873 590.803 629.943 644.947 558.758 517.546C491.755 397.632 600.193 345.197 600.193 345.197C600.193 345.197 595.616 161.844 758.791 126.598C758.791 126.598 1067.27 -144.471 1297.96 119.741C1297.96 119.741 1495.34 223.278 1459.4 466.039C1423.46 708.801 1241.18 905.723 921.405 965.525C601.627 1025.33 205.638 875.454 108.117 325.995L151.651 305.665C151.651 305.665 312.814 601.346 559.692 667.608C798.974 731.827 1013.43 654.574 1130.87 497.983C1218.48 381.162 1223.06 237.657 1124.49 187.871C1077.83 164.304 922.754 135.223 760.158 244.774C597.566 354.327 548.873 484.778 633.478 548.89C718.084 612.997 867.794 521.015 864.202 430.569C863.928 423.655 863.322 417.291 862.361 411.264L862.317 411.136L862.32 411.137Z" fill="url(#paint1_linear_321_719)" stroke="#220E6E"/>
<path d="M194.722 419.982C194.722 419.982 361.596 720.787 751.245 723.405C1160.12 726.153 1231.48 396.196 1231.48 396.196C1231.48 396.196 1243.89 475.883 1162.32 580.631C1080.75 685.379 1228.91 658.046 1255.92 603.524C1282.92 549.001 1305.59 600.13 1263.2 630.4C1220.8 660.67 1150.06 701.272 1062.39 690.529C974.719 679.786 920.773 783.421 781.264 797.714C682.437 807.839 523.434 753.415 449.56 702.585C364.397 643.987 287.01 578.657 194.722 419.982Z" fill="url(#paint2_linear_321_719)" stroke="#220E6E"/>
<path d="M300.925 620.516C300.925 620.516 465.93 857.893 797.166 871.921C797.166 871.921 958.721 865.326 1040.62 792.59C1040.62 792.59 996.364 935.079 876.659 924.411C876.659 924.411 764.679 966.083 684.23 900.855C684.23 900.855 547.974 902.305 487.805 806.996C487.805 806.996 369.326 730.316 300.924 620.52L300.925 620.516Z" fill="url(#paint3_linear_321_719)" stroke="#220E6E"/>
<path d="M1005.2 144.338C1005.2 144.338 823.223 150.418 718.764 251.676C614.299 352.936 604.857 387.477 591.057 423.778C591.057 423.778 607.557 326.674 690.993 249.638C690.993 249.638 710.833 156.475 787.626 156.764C787.626 156.764 852.422 55.0966 928.814 99.7162C928.814 99.7162 990.134 96.7541 1005.2 144.339L1005.2 144.338Z" fill="url(#paint4_linear_321_719)" stroke="#220E6E"/>
<path d="M165.961 507.455C166.262 507.585 179.307 482.233 195.888 476.518C212.47 470.804 209.709 455.276 228.627 445.657C228.627 445.657 269.059 415.084 283.471 440.147C283.471 440.147 305.638 453.855 272.853 472.857C272.112 471.565 271.137 470.443 270.105 469.381C274.686 462.971 279.007 455.191 272.919 455.245C262.584 455.338 193.359 464.443 161.328 522.829C157.713 529.418 160.659 531.113 164.601 531.13C164.656 532.05 164.818 532.971 165.058 533.864C156.88 537.147 145.51 539.117 142.3 526.735C137.126 506.77 165.656 507.323 165.954 507.452L165.961 507.455Z" fill="#D699F9" stroke="#220E6E"/>
<path d="M329.32 676.743C350.528 649.633 362.342 596.944 367.545 584.966C372.749 572.989 395.46 529.335 401.624 552.841C401.624 552.841 435.892 527.529 428.91 561.349C425.647 577.161 419.711 589.911 414.431 598.883C412.418 597.462 410.337 596.097 408.469 594.478C411.438 577.631 410.609 560.885 383.73 595.809C348.443 641.662 306.692 734.182 304.594 777.524C303.458 800.974 313.766 794.981 323.466 784.54C324.971 786.152 326.379 787.779 327.791 789.492C320.662 802.459 310.601 816.558 298.845 821.282C292.463 823.847 285.423 820.769 282.916 814.273C280.516 808.051 279.637 798.093 285.834 783.216C298.146 753.661 289.538 771.739 284.086 766.192C278.635 760.641 308.114 703.846 329.321 676.739L329.32 676.743Z" fill="#47DCFF" stroke="#220E6E"/>
<path d="M555.518 744.819C576.414 731.215 581.167 729.419 591.852 701.841C602.538 674.263 621.395 657.226 632.666 662.066C650.511 669.729 633.186 669.96 595.087 736.891C595.087 736.891 518.395 877.185 582.13 951.404C584.242 953.864 587.932 953.986 590.35 951.689C591.076 950.997 591.824 950.164 592.546 949.165C593.264 949.349 593.985 949.537 594.692 949.757C590.47 965.404 579.824 979.024 553.118 937.229C553.118 937.229 537.853 910.86 537.732 891.423C537.732 891.423 523.296 907.802 523.011 875.298C522.725 842.794 534.62 758.431 555.517 744.823L555.518 744.819Z" fill="#80FFFF" stroke="#220E6E"/>
<path d="M676.221 658.457C676.221 658.457 649.913 662.934 649.614 653.468C649.315 644.003 658.027 638.286 678.034 641.572C698.038 644.856 716.976 620.211 747.906 630.751C747.906 630.751 712.043 623.725 693.203 653.2C693.203 653.2 688.488 662.477 676.221 658.457Z" fill="url(#paint5_linear_321_719)" stroke="#220E6E"/>
<path d="M838.834 660.225L845.147 656.755C845.147 656.755 849.539 635.901 868.482 637.777C868.482 637.777 897.392 633.812 890.24 664.963L885.66 666.561C883.624 659.081 879.378 649.407 870.503 650.743C856.122 652.913 844.042 746.616 859.687 815.505C875.329 884.394 904.265 952.319 921.235 968.787C931.017 978.28 935.931 971.095 938.521 962.882C946.272 961.223 953.698 959.39 960.916 957.362C961.037 957.603 960.838 957.711 960.95 957.966C961.008 958.102 961.065 958.238 961.121 958.378C966.493 971.742 958.129 977.749 958.129 977.749C958.129 977.749 953.128 1007.1 916.551 992.226C879.97 977.351 886.175 936.201 886.175 936.201C886.175 936.201 853.788 935.644 846.409 875.519C839.03 815.393 846.525 848.828 835.362 826.545C820.231 796.345 840.808 743.138 840.808 743.138C840.808 743.138 815.263 709.248 827.186 674.237C829.238 668.215 833.428 663.192 838.836 660.222L838.834 660.225Z" fill="#FFE666" stroke="#220E6E"/>
<path d="M460.411 578.732C460.411 578.732 515.361 608.924 570.449 566.256C625.537 523.587 642.489 575.709 621.965 591.859C621.965 591.859 653.615 624.099 670.405 571.286C670.405 571.286 671.109 614.261 625.691 615.477C613.201 615.813 601.089 612.008 590.868 604.838C583.281 599.519 573.686 596.743 564.394 598.251C555.277 599.729 546.334 602.631 537.134 603.379C528.319 604.097 519.349 603.342 510.735 601.718C492.47 598.276 475.098 590.308 460.416 578.729L460.411 578.732Z" fill="url(#paint6_linear_321_719)" stroke="#220E6E"/>
<path d="M1006.75 539.134C1035.05 522.795 1052.36 511.525 1073 492.304C1116.38 451.885 1148.49 407.147 1157.68 347.515C1160.99 326.056 1157.45 297.47 1148.09 278.086C1129.67 239.959 1085.96 219.611 1046.11 234.42C1046.11 234.42 1160.88 265.944 1128.41 369.36C1092.81 482.782 1041.44 515.098 1006.75 539.129L1006.75 539.134Z" fill="#FFE666" stroke="#220E6E"/>
<path d="M274.092 794.981C271.499 792.2 516.124 1070.5 935.799 1033.39C1162.19 1013.37 1377.54 906.653 1477.69 690.087C1528.53 580.126 1542.21 410.947 1494.92 275.601C1494.92 275.601 1683.3 556.557 1478.76 838.801C1397.73 950.603 1286.16 1007.01 1157.43 1040.44C971.76 1088.67 595.606 1139.94 274.092 794.981Z" fill="url(#paint7_linear_321_719)" stroke="#220E6E"/>
<path d="M114.158 415.603C114.158 415.603 108.151 429.664 106.789 438.508C105.331 447.977 106.111 457.611 107.907 467.001C109.716 476.472 112.709 485.438 112.505 495.196C112.219 509.069 108.988 522.821 103.257 535.33C98.4263 545.878 91.3299 555.456 89.341 558.053C89.0889 558.381 89.2929 558.872 89.7032 558.91C90.6928 558.999 92.338 558.87 93.7878 557.435C96.0468 555.202 85.1041 567.473 94.3693 578.248C94.3693 578.248 100.678 584.571 107.783 578.457C107.783 578.457 110.497 596.682 92.9744 602.037C92.4224 602.206 92.5794 603.044 93.1538 602.999C95.9444 602.78 98.8831 602.085 101.587 601.59C105.297 600.909 109.3 599.042 112.432 596.977C119.002 592.644 124.043 586.147 127.412 578.917C138.77 554.55 131.901 511.929 127.858 499.048C122.48 481.916 112.246 464.637 110.912 446.529C110.078 435.202 110.419 426.516 114.152 415.597L114.158 415.603Z" fill="url(#paint8_linear_321_719)" stroke="#220E6E"/>
<path d="M73.5336 350.39L36.6976 427.516C36.6872 427.537 36.6767 427.559 36.6639 427.575C36.52 427.827 36.25 427.966 35.9772 427.93L29.4624 427.066C29.1791 427.027 28.9525 426.805 28.897 426.516L28.8934 426.502L3.8311 296.582C3.48058 294.765 3.86757 292.848 4.90461 291.296L30.9183 252.126C30.9183 252.126 30.9277 252.146 30.9289 252.154C31.447 253.865 31.972 255.566 32.5122 257.256C44.8116 296.11 60.7508 328.159 73.536 350.395L73.5336 350.39Z" fill="#3D3EE8" stroke="#220E6E"/>
<path d="M36.6587 427.572C36.1175 427.891 29.8088 426.859 29.3588 426.8C29.1641 426.772 28.9948 426.662 28.8884 426.499C28.8451 426.429 28.8099 426.344 28.7922 426.253L3.72936 296.314C3.37885 294.497 3.76468 292.584 4.79935 291.027L30.8158 251.859L30.8838 252.01C30.8874 252.048 30.9026 252.085 30.9144 252.122C30.9191 252.131 30.9237 252.141 30.9249 252.149C31.443 253.86 31.968 255.561 32.5082 257.251L9.32198 291.803C8.28847 293.356 7.90265 295.269 8.252 297.09L36.6912 427.517C36.6959 427.538 36.6855 427.56 36.6575 427.575L36.6587 427.572Z" fill="#6061EE" stroke="#220E6E"/>
<path d="M276.455 318.157L272.344 323.705C272.172 323.936 271.893 324.04 271.63 323.974C271.609 323.968 271.584 323.96 271.567 323.955L195.903 296.75C190.769 271.178 181.569 236.126 165.36 198.936C164.691 197.402 164.011 195.863 163.317 194.321L162.859 194.239L162.779 193.978L163.199 194.06L184.908 198.19L206.631 202.327C208.371 202.658 209.882 203.735 210.799 205.302L276.499 317.316L276.506 317.331C276.657 317.585 276.636 317.912 276.457 318.153L276.455 318.157Z" fill="#3D3EE8" stroke="#220E6E"/>
<path d="M276.353 317.893C276.07 318.273 272.234 323.772 271.629 323.974C271.599 323.985 271.575 323.978 271.566 323.955L207.956 209.021C207.04 207.454 205.529 206.377 203.789 206.046L165.36 198.937C164.69 197.402 164.011 195.864 163.317 194.321L184.908 198.19L206.533 202.065C208.272 202.396 209.785 203.469 210.701 205.036L276.412 317.066C276.457 317.141 276.488 317.228 276.502 317.317C276.533 317.514 276.487 317.724 276.361 317.892L276.353 317.893Z" fill="#6061EE" stroke="#220E6E"/>
<path d="M80.7547 191.058C64.1968 195.637 47.6766 185.389 43.8564 168.172C40.0361 150.955 50.3605 133.288 66.9173 128.713C83.4706 124.136 99.9907 134.384 103.816 151.598C107.641 168.813 97.3162 186.48 80.7582 191.059L80.7547 191.058Z" fill="#3D3EE8" stroke="#220E6E"/>
<path d="M97.2556 93.051C83.8682 100.083 69.8322 106.867 55.2568 113.301C41.0121 119.585 26.9058 125.242 13.0963 130.254C13.5842 100.954 17.6704 70.2498 26.8122 38.7872C27.0422 37.9885 27.9272 37.6014 28.6065 37.9962C55.3802 53.5925 78.0578 72.4589 97.2545 93.0547L97.2556 93.051Z" fill="#3D3EE8" stroke="#220E6E"/>
<path d="M129.248 341.324L133.058 352.323C116.18 359.512 100.19 365.679 85.9845 370.569C84.0681 367.641 81.9211 364.27 79.6017 360.48C94.4444 355.443 111.351 348.96 129.248 341.324Z" fill="#98EDD9" stroke="#220E6E"/>
<path d="M199.926 320.211C185.835 327.922 169.335 336.143 151.399 344.278L147.018 333.533C165.996 324.941 183.371 316.241 197.996 308.147C198.775 312.616 199.411 316.658 199.928 320.207L199.926 320.211Z" fill="#98EDD9" stroke="#220E6E"/>
<path d="M160.148 374.781L157.833 375.8L157.459 374.797L152.737 376.884L148.014 378.966L148.391 379.97L146.498 380.808C144.789 381.56 142.873 380.711 142.255 378.927L141.327 376.251L133.047 352.335L129.237 341.337L91.3809 231.989C90.2013 228.583 91.8565 224.718 95.1131 223.277C95.1131 223.277 95.1201 223.279 95.1224 223.272C98.3814 221.835 102.052 223.338 103.406 226.664L147.007 333.524L151.387 344.27L160.908 367.608L161.973 370.213C162.683 371.96 161.858 374.025 160.148 374.781Z" fill="#3D3EE8" stroke="#220E6E"/>
<path d="M91.8618 172.492C98.9916 161.703 96.6145 147.184 86.5524 140.062C76.4903 132.939 62.5536 135.911 55.4238 146.7C48.294 157.488 50.6711 172.008 60.7332 179.13C70.7952 186.252 84.732 183.28 91.8618 172.492Z" fill="#98EDD9" stroke="#220E6E"/>
<path d="M68.1122 177.317C77.3484 180.197 87.3108 174.6 90.3637 164.817C93.4166 155.033 88.404 144.767 79.1678 141.888C69.9315 139.008 59.9692 144.604 56.9163 154.388C53.8634 164.172 58.8759 174.437 68.1122 177.317Z" fill="#D5FCF3" stroke="#220E6E"/>
<path d="M185.014 342.213L202.047 337.697C202.047 337.697 200.911 321.748 195.886 296.728C190.752 271.158 181.552 236.108 165.344 198.922C164.675 197.387 163.995 195.849 163.302 194.307L162.843 194.225L162.763 193.964L163.183 194.046C147.871 160.043 126.648 124.531 97.2936 93.0482C83.9063 100.08 69.8704 106.864 55.2951 113.298C41.0504 119.582 26.9442 125.239 13.1347 130.251C12.3945 174.844 20.0061 216.187 30.8739 252.03C30.8775 252.067 30.8927 252.105 30.9045 252.141C30.9091 252.15 30.9138 252.16 30.915 252.169C31.4332 253.88 31.9583 255.581 32.4985 257.271C44.799 296.127 60.7397 328.178 73.5259 350.415C86.105 372.283 95.6284 384.648 95.6284 384.648L110.292 375.175L110.409 375.488C118.713 370.374 127.301 365.669 136.159 361.374L133.029 352.332C116.152 359.521 100.162 365.688 85.9575 370.577C84.0413 367.649 81.8943 364.279 79.575 360.489C94.4171 355.452 111.323 348.969 129.219 341.334L91.3626 231.985C90.183 228.579 91.8381 224.714 95.0948 223.273C95.0948 223.273 95.1018 223.275 95.1041 223.268C98.3631 221.831 102.034 223.334 103.388 226.66L146.989 333.521C165.966 324.93 183.342 316.229 197.967 308.135C198.746 312.604 199.381 316.646 199.898 320.196C185.807 327.907 169.307 336.128 151.371 344.263L154.95 353.034C164.707 349.096 174.777 345.61 185.157 342.579L185.014 342.201L185.014 342.213ZM80.7774 191.053C64.2197 195.631 47.6997 185.384 43.8795 168.167C40.0593 150.95 50.3835 133.283 66.9401 128.708C83.4932 124.132 100.013 134.379 103.838 151.594C107.663 168.808 97.3387 186.475 80.7809 191.054L80.7774 191.053Z" fill="#D7DCF7" stroke="#220E6E"/>
<path d="M112.989 382.275C114.138 385.347 117.477 386.77 120.442 385.462L141.339 376.244L136.189 361.37C127.325 365.668 118.743 370.37 110.438 375.485L112.985 382.274L112.989 382.275Z" fill="#98EDD9" stroke="#220E6E"/>
<path d="M185.186 342.593C174.807 345.621 164.741 349.108 154.979 353.048L160.922 367.612L184.424 357.243C187.39 355.934 188.862 352.387 187.711 349.319L185.186 342.593Z" fill="#98EDD9" stroke="#220E6E"/>
<path opacity="0.2" d="M25.2117 37.3072C134.967 148.787 174.725 346.075 174.725 346.075L188.919 340.345C188.919 340.345 170.653 145.901 25.1046 37.3551L25.2117 37.3072Z" fill="white"/>
<defs>
<linearGradient id="paint0_linear_321_719" x1="372.417" y1="121.871" x2="813.931" y2="377.584" gradientUnits="userSpaceOnUse">
<stop stop-color="#D84FC8"/>
<stop offset="0.53125" stop-color="#62A7FF"/>
<stop offset="1" stop-color="#25E4F0"/>
</linearGradient>
<linearGradient id="paint1_linear_321_719" x1="140.154" y1="39.1756" x2="725.626" y2="172.99" gradientUnits="userSpaceOnUse">
<stop stop-color="#E6007A"/>
<stop offset="0.21" stop-color="#703AC2"/>
<stop offset="0.46" stop-color="#0070EB"/>
<stop offset="0.77" stop-color="#0297FB"/>
<stop offset="1" stop-color="#0AE2FF"/>
</linearGradient>
<linearGradient id="paint2_linear_321_719" x1="163.217" y1="325.94" x2="725.662" y2="703.099" gradientUnits="userSpaceOnUse">
<stop stop-color="#D84FC8"/>
<stop offset="0.53125" stop-color="#62A7FF"/>
<stop offset="1" stop-color="#25E4F0"/>
</linearGradient>
<linearGradient id="paint3_linear_321_719" x1="248.917" y1="652.326" x2="561.734" y2="955.963" gradientUnits="userSpaceOnUse">
<stop stop-color="#D84FC8"/>
<stop offset="0.53125" stop-color="#62A7FF"/>
<stop offset="1" stop-color="#25E4F0"/>
</linearGradient>
<linearGradient id="paint4_linear_321_719" x1="349.28" y1="277.111" x2="914.093" y2="177.043" gradientUnits="userSpaceOnUse">
<stop stop-color="#D84FC8"/>
<stop offset="0.53125" stop-color="#62A7FF"/>
<stop offset="1" stop-color="#25E4F0"/>
</linearGradient>
<linearGradient id="paint5_linear_321_719" x1="624.101" y1="595.093" x2="758.475" y2="695.758" gradientUnits="userSpaceOnUse">
<stop stop-color="#D84FC8"/>
<stop offset="0.53125" stop-color="#62A7FF"/>
<stop offset="1" stop-color="#25E4F0"/>
</linearGradient>
<linearGradient id="paint6_linear_321_719" x1="376.214" y1="451.928" x2="722.799" y2="619.773" gradientUnits="userSpaceOnUse">
<stop stop-color="#D84FC8"/>
<stop offset="0.53125" stop-color="#62A7FF"/>
<stop offset="1" stop-color="#25E4F0"/>
</linearGradient>
<linearGradient id="paint7_linear_321_719" x1="335.615" y1="385.754" x2="1005.88" y2="734.868" gradientUnits="userSpaceOnUse">
<stop stop-color="#D84FC8"/>
<stop offset="0.53125" stop-color="#62A7FF"/>
<stop offset="1" stop-color="#25E4F0"/>
</linearGradient>
<linearGradient id="paint8_linear_321_719" x1="82.7011" y1="415.872" x2="137.109" y2="648.606" gradientUnits="userSpaceOnUse">
<stop stop-color="#D84FC8"/>
<stop offset="0.53125" stop-color="#62A7FF"/>
<stop offset="1" stop-color="#25E4F0"/>
</linearGradient>
</defs>
</svg>
