<svg width="498" height="339" viewBox="0 0 498 339" fill="none" xmlns="http://www.w3.org/2000/svg">
<g clip-path="url(#clip0_460_2248)">
<mask id="mask0_460_2248" style="mask-type:luminance" maskUnits="userSpaceOnUse" x="3" y="198" width="494" height="141">
<path d="M496.88 198.946H3V338.946H496.88V198.946Z" fill="white"/>
</mask>
<g mask="url(#mask0_460_2248)">
<path d="M141.084 264.196C138.493 225.627 105.519 196.487 67.4324 199.11C48.4595 200.417 31.8005 209.363 20.1754 222.777L20.143 222.754C20.0647 222.863 19.9915 222.972 19.9137 223.081C8.36626 236.561 1.87166 254.485 3.16199 273.696C3.28495 275.527 3.49773 277.328 3.75484 279.114C3.75492 279.115 3.75492 279.115 3.755 279.115C3.76658 279.196 3.7784 279.276 3.78959 279.357C3.96341 280.535 4.16522 281.703 4.39549 282.86C4.39564 282.86 4.39572 282.861 4.39587 282.861C4.40009 282.882 4.40408 282.903 4.40814 282.924C4.61778 283.972 4.85065 285.01 5.10546 286.039L5.10592 286.041C5.10615 286.042 5.10638 286.043 5.10654 286.044C13.0894 318.283 42.9173 341.117 76.8138 338.782C114.9 336.159 143.675 302.765 141.084 264.196ZM126.038 265.232C126.357 269.981 126.062 274.63 125.227 279.103C125.217 279.077 125.209 279.05 125.198 279.025V279.025C120.187 266.62 110.274 257.665 101.557 252.718C103.322 231.699 96.2803 222.844 88.3109 221.403C88.0943 221.361 87.8763 221.325 87.6546 221.297C81.3299 220.475 75.5457 225.003 74.7355 231.408C73.924 237.813 78.3949 243.671 84.7197 244.492C85.2713 244.563 85.8169 244.583 86.3574 244.574C86.3925 245.284 86.4146 246.037 86.4206 246.825C79.052 244.976 72.1637 244.614 65.8836 245.186C63.5353 245.345 61.1851 245.644 58.8478 246.087C59.6317 238.989 62.2611 231.021 67.3633 225.19C72.2955 219.553 79.6285 216.322 87.6279 217.151C89.1445 217.308 90.7624 217.685 92.2191 218.181C92.2859 218.203 92.3573 218.223 92.4232 218.246C92.4241 218.245 92.4255 218.243 92.4264 218.242C110.955 225.885 124.591 243.693 126.038 265.232ZM77.8599 275.924C77.8548 275.931 77.8498 275.939 77.8447 275.947C76.1954 278.356 74.2337 280.731 71.931 283.029C68.4794 279.309 65.7062 275.304 63.6026 271.16C63.4947 270.938 63.3795 270.727 63.2745 270.501C63.2703 270.493 63.2666 270.485 63.2625 270.477C62.0265 267.825 60.9759 264.915 60.1625 261.746C65.0744 260.576 69.8914 260.146 74.4913 260.372C74.7351 260.389 74.9733 260.393 75.2189 260.414C75.2277 260.414 75.2369 260.415 75.2461 260.416C78.1272 260.657 81.1354 261.189 84.2473 262.058C82.7925 266.949 80.7525 271.387 78.2594 275.307C78.1235 275.512 78.0004 275.719 77.8599 275.924ZM54.2405 217.314C54.2276 217.33 54.2133 217.346 54.2004 217.363C46.1019 227.955 43.3982 241.118 43.5233 251.235C24.6676 260.197 20.6159 270.8 23.3685 278.509C23.4406 278.72 23.5189 278.929 23.6058 279.137C26.0658 285.095 32.8297 287.904 38.712 285.412C44.5952 282.921 47.3691 276.071 44.9097 270.114C44.6942 269.595 44.4382 269.106 44.1606 268.637C44.7565 268.246 45.3965 267.846 46.076 267.442C48.179 274.83 51.2899 281.08 54.9198 286.302C56.2271 288.279 57.6552 290.186 59.1985 292.011C52.7364 294.874 44.6057 296.553 37.0662 294.994C29.7794 293.487 23.35 288.671 20.0594 281.241C19.4356 279.832 18.9492 278.225 18.6444 276.7C18.4568 275.367 18.2997 274.024 18.2081 272.66C16.5238 247.585 31.8855 225.262 54.2405 217.314ZM75.7903 323.545C61.0869 324.558 47.3425 319.479 36.9548 310.451C50.0618 312.258 62.6703 308.047 71.2596 302.879C88.3588 314.944 99.4558 313.198 104.674 306.927C104.818 306.759 104.958 306.585 105.093 306.405C108.958 301.269 107.978 293.932 102.906 290.019C97.8337 286.105 90.5891 287.097 86.7242 292.233C86.3878 292.682 86.098 293.15 85.8353 293.628C85.2081 293.303 84.5496 292.944 83.869 292.553C89.1408 287.012 92.8969 281.148 95.5499 275.35C96.5886 273.212 97.5074 271.001 98.2982 268.729C103.98 272.966 109.486 279.26 111.924 286.655C114.278 293.8 113.375 301.846 108.666 308.447C107.774 309.699 106.642 310.929 105.49 311.959C105.473 311.974 105.457 311.99 105.44 312.005C97.2024 318.562 87.0095 322.772 75.7903 323.545Z" fill="url(#paint0_linear_460_2248)"/>
<path style="mix-blend-mode:overlay" opacity="0.9" d="M88.3108 221.403C88.0942 221.361 87.8762 221.325 87.6546 221.297C86.5357 221.152 85.4353 221.182 84.3745 221.352C90.9872 224.995 95.8083 235.145 93.2738 255.167C92.4342 261.798 90.4868 268.109 87.6753 273.9C85.3966 278.878 82.2971 283.905 78.1299 288.735C80.1312 290.255 82.0823 291.527 83.8689 292.553C89.1407 287.012 92.8969 281.148 95.5498 275.35C98.3618 269.56 100.309 263.249 101.148 256.618C104.166 232.779 96.7572 222.93 88.3108 221.403Z" fill="url(#paint1_radial_460_2248)"/>
<g style="mix-blend-mode:overlay" opacity="0.8">
<path d="M93.2739 255.167C95.8084 235.145 90.9873 224.995 84.3745 221.352C84.1165 221.393 83.863 221.449 83.61 221.508C90.0841 225.277 94.7421 235.417 92.2417 255.167C91.4021 261.798 89.4551 268.109 86.6432 273.9C84.4404 278.714 81.4612 283.571 77.5005 288.254C77.7115 288.419 77.9208 288.576 78.13 288.735C82.2972 283.905 85.3971 278.878 87.6754 273.9C90.4869 268.109 92.4343 261.798 93.2739 255.167Z" fill="white"/>
</g>
<path style="mix-blend-mode:overlay" opacity="0.5" d="M68.1398 300.578C67.5186 300.099 66.9204 299.597 66.3223 299.095C56.5639 303.218 43.0363 305.803 29.6041 302.647C31.8037 305.486 34.2584 308.108 36.9547 310.451C50.0618 312.258 62.6703 308.047 71.2595 302.879C70.2402 302.16 69.2024 301.398 68.1398 300.578Z" fill="url(#paint2_radial_460_2248)"/>
<path style="mix-blend-mode:overlay" opacity="0.6" d="M66.3223 299.095C66.0237 298.844 65.7228 298.596 65.4297 298.34C55.5972 302.319 42.0081 304.697 28.6061 301.315C28.9326 301.764 29.2646 302.209 29.6042 302.647C43.0364 305.803 56.564 303.218 66.3223 299.095Z" fill="url(#paint3_linear_460_2248)"/>
<path style="mix-blend-mode:overlay" opacity="0.9" d="M23.3716 278.521C23.4437 278.731 23.522 278.941 23.6089 279.149C24.0442 280.203 24.62 281.153 25.296 281.998C25.1051 274.377 31.3748 265.074 49.7645 257.286C55.8552 254.707 62.2251 253.259 68.5831 252.83C73.9802 252.338 79.829 252.544 86.0431 253.783C86.3422 251.268 86.4546 248.921 86.4385 246.841C79.064 244.988 72.171 244.626 65.8868 245.198C59.5289 245.627 53.1585 247.075 47.068 249.654C25.1721 258.927 20.4542 270.349 23.3716 278.521Z" fill="url(#paint4_radial_460_2248)"/>
<g style="mix-blend-mode:overlay" opacity="0.8">
<path d="M49.7646 257.286C31.3749 265.074 25.1052 274.377 25.2961 281.998C25.4606 282.204 25.635 282.398 25.8117 282.59C25.7977 275.029 32.1407 265.873 50.2803 258.191C56.3709 255.612 62.7413 254.164 69.0993 253.735C74.3176 253.26 79.9613 253.444 85.946 254.576C85.9819 254.308 86.0119 254.046 86.0432 253.783C79.829 252.544 73.9803 252.338 68.5831 252.83C62.2252 253.259 55.8553 254.707 49.7646 257.286Z" fill="white"/>
</g>
<path style="mix-blend-mode:overlay" opacity="0.4" d="M101.166 256.623C101.067 257.408 100.936 258.183 100.807 258.959C109.211 265.455 118.186 276.027 122.202 289.385C123.531 286.037 124.546 282.573 125.201 279.036C120.193 266.638 110.288 257.685 101.573 252.737C101.468 253.991 101.336 255.281 101.166 256.623Z" fill="url(#paint5_radial_460_2248)"/>
<path style="mix-blend-mode:overlay" opacity="0.5" d="M100.806 258.959C100.741 259.346 100.679 259.734 100.606 260.119C108.926 266.753 117.755 277.481 121.563 290.926C121.783 290.415 121.998 289.902 122.202 289.385C118.186 276.027 109.211 265.455 100.806 258.959Z" fill="url(#paint6_linear_460_2248)"/>
<path style="mix-blend-mode:overlay" opacity="0.9" d="M104.682 306.912C104.826 306.743 104.966 306.57 105.1 306.389C105.784 305.48 106.309 304.5 106.693 303.485C100.272 307.463 89.1814 306.616 73.3264 294.382C68.0749 290.33 63.6519 285.467 60.1059 280.106C56.987 275.618 54.2387 270.386 52.1908 264.317C49.8909 265.312 47.8271 266.387 46.0565 267.441C48.1595 274.834 51.2959 281.061 54.9276 286.286C58.4737 291.648 62.8966 296.511 68.1477 300.563C87.0257 315.129 99.1526 313.556 104.682 306.912Z" fill="url(#paint7_radial_460_2248)"/>
<g style="mix-blend-mode:overlay" opacity="0.8">
<path d="M73.3263 294.382C89.1813 306.616 100.272 307.463 106.693 303.485C106.787 303.238 106.866 302.987 106.942 302.736C100.483 306.529 89.4818 305.544 73.842 293.477C68.5909 289.425 64.168 284.562 60.622 279.2C57.6064 274.862 54.9424 269.82 52.9175 264.005C52.6714 264.108 52.4318 264.213 52.1908 264.317C54.2387 270.386 56.987 275.618 60.1059 280.106C63.6519 285.467 68.0748 290.33 73.3263 294.382Z" fill="white"/>
</g>
<path style="mix-blend-mode:overlay" opacity="0.3" d="M47.0583 249.633C47.779 249.328 48.5073 249.055 49.2355 248.781C50.5885 238.161 55.1418 225.005 64.5573 214.803C61.0298 215.312 57.5602 216.154 54.2078 217.347C46.1096 227.939 43.406 241.102 43.5311 251.219C44.6562 250.685 45.826 250.155 47.0583 249.633Z" fill="url(#paint8_radial_460_2248)"/>
<path style="mix-blend-mode:overlay" opacity="0.4" d="M49.2356 248.781C49.5996 248.645 49.9623 248.505 50.3282 248.376C51.8411 237.763 56.6018 224.656 66.1956 214.594C65.6482 214.655 65.1021 214.724 64.5574 214.803C55.1419 225.005 50.5886 238.161 49.2356 248.781Z" fill="url(#paint9_linear_460_2248)"/>
<path style="mix-blend-mode:multiply" opacity="0.4" d="M67.4325 199.11C48.4595 200.417 31.8006 209.363 20.1754 222.777C20.0876 222.879 20.0003 222.98 19.9131 223.082L19.9138 223.081C22.1771 225.355 29.5737 229.838 32.5716 231.707C38.4578 225.296 45.8575 220.294 54.2406 217.314C54.8263 216.55 55.4332 215.796 56.076 215.061C63.8837 206.139 74.5466 201.423 86.9137 201.423C88.2902 201.423 91.0938 201.645 91.1542 201.649C83.6566 199.468 75.666 198.543 67.4325 199.11Z" fill="url(#paint10_linear_460_2248)"/>
<path style="mix-blend-mode:multiply" opacity="0.4" d="M75.7904 323.545C61.087 324.558 47.3425 319.479 36.9548 310.451L36.9547 310.451C35.9878 310.318 35.0188 310.158 34.0482 309.957C22.514 307.57 13.1496 300.577 6.96599 289.731C6.27771 288.524 5.66185 287.294 5.10681 286.045C13.0899 318.284 42.9176 341.117 76.8139 338.782C76.9641 335.247 75.9351 327.045 75.7904 323.545Z" fill="url(#paint11_linear_460_2248)"/>
<path style="mix-blend-mode:multiply" opacity="0.4" d="M141.084 264.196C138.961 263.975 128.588 264.805 126.038 265.232C126.357 269.981 126.062 274.63 125.227 279.103C125.585 279.992 125.924 280.896 126.23 281.821C129.956 293.13 128.657 304.839 122.474 315.685C121.798 316.87 121.069 318.005 120.295 319.097C120.28 319.118 120.263 319.142 120.25 319.159C120.25 319.16 120.282 319.132 120.301 319.115C134.34 305.282 142.518 285.537 141.084 264.196Z" fill="url(#paint12_linear_460_2248)"/>
<path style="mix-blend-mode:multiply" opacity="0.5" d="M87.6279 217.151C89.1444 217.308 90.7624 217.685 92.219 218.181C92.2858 218.203 92.3573 218.223 92.4232 218.246C92.4241 218.245 92.4255 218.243 92.4264 218.241C98.3894 220.701 103.841 224.219 108.547 228.57C108.557 228.578 108.568 228.585 108.578 228.594C110.846 225.968 115.213 223.082 115.213 223.082C115.213 223.082 108.526 216.155 98.2982 214.005C91.1379 212.5 74.988 211.041 64.8025 228.594C64.8025 228.594 64.843 228.555 64.9025 228.499C65.6559 227.346 66.4573 226.225 67.3633 225.19C72.2954 219.553 79.6285 216.322 87.6279 217.151Z" fill="url(#paint13_linear_460_2248)"/>
<path style="mix-blend-mode:multiply" opacity="0.5" d="M108.664 308.441C107.772 309.692 106.64 310.923 105.488 311.953C105.435 312 105.383 312.053 105.33 312.1C105.331 312.101 105.332 312.103 105.333 312.105C100.247 316.104 94.5135 319.127 88.4399 321.079C88.4274 321.083 88.4164 321.088 88.4039 321.093C89.5154 324.395 89.7998 329.668 89.7998 329.668C89.7998 329.668 99.0673 327.267 106.02 319.372C110.887 313.845 120.209 300.411 110.292 282.702C110.292 282.702 110.304 282.757 110.322 282.837C110.932 284.074 111.49 285.337 111.922 286.649C114.277 293.794 113.374 301.84 108.664 308.441Z" fill="url(#paint14_linear_460_2248)"/>
<path style="mix-blend-mode:multiply" opacity="0.5" d="M20.0835 281.261C19.4597 279.853 18.973 278.245 18.6683 276.72C18.6543 276.65 18.6353 276.578 18.6221 276.508C18.6205 276.508 18.6183 276.508 18.6167 276.508C17.739 270.048 18.0212 263.508 19.3888 257.206C19.391 257.192 19.3919 257.18 19.3941 257.167C16.0144 256.491 11.3631 254.103 11.3631 254.103C11.3631 254.103 8.78272 263.432 12.0581 273.476C14.3511 280.509 21.1785 295.402 41.2817 295.558C41.2817 295.558 41.2284 295.542 41.151 295.517C39.7879 295.433 38.4288 295.291 37.0904 295.014C29.8036 293.507 23.3741 288.692 20.0835 281.261Z" fill="url(#paint15_linear_460_2248)"/>
<path style="mix-blend-mode:multiply" opacity="0.6" d="M84.7196 244.492C85.2713 244.563 85.8169 244.583 86.3574 244.574C86.3574 244.574 85.9966 237.301 85.1146 233.569C84.2326 229.838 82.9321 227.366 81.5031 225.968C80.4796 224.966 77.2484 223.718 74.7355 231.408C73.924 237.813 78.3949 243.671 84.7196 244.492Z" fill="url(#paint16_linear_460_2248)"/>
<path style="mix-blend-mode:multiply" opacity="0.5" d="M44.913 270.126C44.6975 269.606 44.4414 269.118 44.1638 268.648C44.1638 268.648 38.1244 272.601 35.3741 275.241C32.6239 277.88 31.161 280.256 30.6793 282.209C30.3342 283.607 30.8827 287.065 38.7153 285.424C44.5984 282.933 47.3724 276.083 44.913 270.126Z" fill="url(#paint17_linear_460_2248)"/>
<path style="mix-blend-mode:multiply" opacity="0.6" d="M86.7334 292.214C86.397 292.663 86.1076 293.131 85.8445 293.61C85.8445 293.61 92.2453 296.93 95.8775 298.022C99.5092 299.115 102.273 299.209 104.184 298.656C105.552 298.259 108.235 296.049 102.915 290.001C97.8433 286.086 90.5988 287.078 86.7334 292.214Z" fill="url(#paint18_linear_460_2248)"/>
<path style="mix-blend-mode:multiply" opacity="0.3" d="M84.2473 262.058C82.7925 266.949 80.7524 271.387 78.2594 275.307C78.1234 275.512 78.0004 275.719 77.8598 275.924C77.8548 275.931 77.8497 275.939 77.8446 275.947C76.1953 278.356 74.2336 280.731 71.9309 283.029C73.5134 284.733 75.2249 286.384 77.1041 287.95C79.464 289.836 81.7773 291.352 83.8689 292.553C89.1407 287.012 92.8969 281.148 95.5498 275.35C96.5885 273.212 97.5074 271.001 98.2982 268.729C95.8659 266.916 93.4024 265.474 91.1324 264.494C88.785 263.48 86.4901 262.685 84.2473 262.058Z" fill="url(#paint19_linear_460_2248)"/>
<path style="mix-blend-mode:multiply" opacity="0.3" d="M36.9548 310.451C50.0618 312.258 62.6704 308.047 71.2596 302.879C70.2403 302.16 69.2025 301.398 68.1398 300.578C64.8247 298.02 61.8413 295.138 59.1985 292.011C52.7364 294.874 44.6058 296.553 37.0663 294.994C29.7795 293.487 23.35 288.671 20.0594 281.241C19.4356 279.832 18.9492 278.225 18.6444 276.7C20.5487 290.232 27.2914 302.053 36.9548 310.451Z" fill="url(#paint20_linear_460_2248)"/>
<path style="mix-blend-mode:multiply" opacity="0.3" d="M71.931 283.029C68.4795 279.309 65.7067 275.304 63.6026 271.16C63.4948 270.938 63.3796 270.727 63.2745 270.501C63.2703 270.493 63.2667 270.485 63.2625 270.477C62.0266 267.825 60.9759 264.915 60.1626 261.746C57.9184 262.281 55.6562 262.955 53.3825 263.818C50.5955 264.942 48.1462 266.21 46.076 267.442C48.179 274.83 51.2899 281.08 54.9198 286.302C56.2272 288.279 57.6552 290.186 59.1985 292.011C61.9694 290.785 64.4385 289.343 66.4141 287.84C68.4513 286.291 70.2767 284.679 71.931 283.029Z" fill="url(#paint21_linear_460_2248)"/>
<path style="mix-blend-mode:multiply" opacity="0.3" d="M54.2004 217.363C46.1019 227.955 43.3982 241.118 43.5233 251.235C44.6526 250.698 45.8276 250.166 47.0649 249.642C50.9055 248.016 54.858 246.842 58.8478 246.087C59.6316 238.989 62.2611 231.021 67.3633 225.19C72.2955 219.553 79.6285 216.322 87.6279 217.151C89.1445 217.308 90.7624 217.685 92.2191 218.181C92.2863 218.203 92.3573 218.223 92.4232 218.246C92.4241 218.245 92.4255 218.243 92.4264 218.242C85.057 215.201 76.9157 213.764 68.4559 214.347C63.4873 214.689 58.7266 215.719 54.2405 217.314C54.2281 217.33 54.2133 217.346 54.2004 217.363Z" fill="url(#paint22_linear_460_2248)"/>
<path style="mix-blend-mode:multiply" opacity="0.3" d="M125.198 279.025C120.187 266.62 110.274 257.665 101.557 252.718C101.452 253.976 101.319 255.272 101.148 256.618C100.619 260.8 99.6475 264.853 98.2982 268.729C103.98 272.966 109.486 279.26 111.924 286.655C114.278 293.8 113.375 301.846 108.666 308.447C107.774 309.699 106.642 310.929 105.49 311.959C105.473 311.974 105.457 311.99 105.44 312.005C115.589 303.928 122.766 292.287 125.227 279.103C125.217 279.077 125.209 279.05 125.198 279.025V279.025Z" fill="url(#paint23_linear_460_2248)"/>
<path style="mix-blend-mode:multiply" opacity="0.3" d="M58.8068 254.505C59.1132 257.065 59.5782 259.471 60.1625 261.746C65.0744 260.576 69.8914 260.146 74.4913 260.372C74.7351 260.389 74.9733 260.393 75.2189 260.414C75.2277 260.414 75.2369 260.415 75.2461 260.416C78.1272 260.657 81.1354 261.189 84.2473 262.058C84.9132 259.821 85.468 257.498 85.8671 255.071C86.3007 252.054 86.4399 249.263 86.4206 246.825C79.052 244.976 72.1637 244.614 65.8836 245.186C63.5353 245.345 61.1851 245.644 58.8478 246.087C58.5114 249.132 58.5091 252.019 58.8068 254.505Z" fill="url(#paint24_linear_460_2248)"/>
<path d="M396.4 247.896L386.009 277.211H386.086L396.461 248.071L396.4 247.896Z" fill="url(#paint25_linear_460_2248)"/>
<path d="M211.862 247.896L201.471 277.211H201.503L211.901 248.007L211.862 247.896Z" fill="url(#paint26_linear_460_2248)"/>
<path d="M205.241 255.219L213.037 277.212H197.411L193.463 288.299H217.026L223.707 307.089H238.644L211.406 237.903L205.241 255.219Z" fill="url(#paint27_linear_460_2248)"/>
<path d="M192.255 277.211L202.646 247.896L202.685 248.007L207.073 235.682H195.595L167.575 307.088H181.649L192.287 277.211H192.255Z" fill="url(#paint28_linear_460_2248)"/>
<path d="M283.92 270.304C280.518 268.272 276.003 266.374 270.375 264.62C267.159 263.557 264.637 262.571 262.813 261.66C260.988 260.755 259.721 259.72 259.01 258.562C258.298 257.403 257.943 256.04 257.943 254.475C257.943 251.717 258.993 249.589 261.098 248.085C263.199 246.581 266.138 245.83 269.911 245.83C273.004 245.83 276.235 246.3 279.606 247.238C282.976 248.178 285.962 249.462 288.56 251.09L290.508 239.536C287.848 237.906 284.617 236.607 280.812 235.637C277.009 234.664 273.219 234.18 269.448 234.18C264.312 234.18 259.859 235.024 256.087 236.716C252.314 238.408 249.391 240.82 247.32 243.95C245.247 247.084 244.211 250.778 244.211 255.037C244.211 258.671 244.908 261.818 246.299 264.479C247.691 267.142 249.965 269.444 253.118 271.387C256.273 273.329 260.416 275.083 265.55 276.646C269.261 277.774 272.137 278.842 274.179 279.843C276.22 280.844 277.642 281.957 278.447 283.177C279.25 284.4 279.653 285.856 279.653 287.545C279.653 290.491 278.461 292.794 276.081 294.452C273.699 296.111 270.405 296.94 266.2 296.94C262.55 296.94 258.731 296.364 254.742 295.203C250.753 294.045 247.273 292.557 244.304 290.742L243.005 302.672C244.736 303.864 246.902 304.896 249.5 305.773C252.098 306.65 254.896 307.339 257.897 307.839C260.896 308.34 263.88 308.593 266.85 308.593C275.2 308.593 281.755 306.667 286.518 302.813C291.281 298.961 293.662 293.623 293.662 286.795C293.662 283.162 292.888 280.014 291.343 277.352C289.797 274.69 287.322 272.342 283.92 270.304Z" fill="url(#paint29_linear_460_2248)"/>
<path d="M357.958 235.682H298.302V247.327H357.958V235.682Z" fill="url(#paint30_linear_460_2248)"/>
<path d="M335.227 252.208H321.032V307.088H335.227V252.208Z" fill="url(#paint31_linear_460_2248)"/>
<path d="M376.793 277.211L387.183 247.896L387.245 248.071L391.656 235.682H380.132L352.113 307.088H366.216L372.895 288.299H372.923L376.87 277.211H376.793Z" fill="url(#paint32_linear_460_2248)"/>
<path d="M389.801 255.281L397.575 277.211H381.993L378.046 288.299H401.564L408.245 307.088H423.183L395.967 237.96L389.801 255.281Z" fill="url(#paint33_linear_460_2248)"/>
<path d="M469.106 278.15C472.507 276.21 475.291 273.593 477.457 270.304C479.622 267.018 480.705 263.181 480.705 258.795C480.705 254.036 479.65 249.932 477.549 246.488C475.447 243.044 472.447 240.38 468.549 238.501C464.655 236.621 460.014 235.682 454.637 235.682H449.704V246.488H452.778C462.18 246.488 466.881 250.559 466.881 258.703C466.881 266.844 462.024 270.917 452.314 270.917H449.704V281.72H456.955L471.798 307.088H487.664L469.106 278.15Z" fill="url(#paint34_linear_460_2248)"/>
<path d="M444.884 235.682H431.439V307.088H444.884V235.682Z" fill="url(#paint35_linear_460_2248)"/>
</g>
</g>
<g clip-path="url(#clip1_460_2248)">
<path d="M177.105 89.5373C159.08 89.5373 142.376 84.1084 131.241 73.9845C127.259 70.3666 124.086 65.9313 121.934 60.9746C119.783 56.018 118.701 50.6543 118.763 45.2415C118.751 39.8511 119.854 34.5177 122.003 29.5847C124.152 24.6516 127.299 20.2282 131.241 16.599C141.581 7.0984 159.875 1.06628 177.105 1.06628C196.165 1.06628 211.427 5.92214 223.089 16.6191C227.016 20.247 230.141 24.6713 232.262 29.6032C234.383 34.5351 235.452 39.8638 235.398 45.2415C235.372 50.6246 234.267 55.9464 232.152 60.8863C230.037 65.8262 226.954 70.2818 223.089 73.9845C212.222 84.1688 195.161 89.5373 177.105 89.5373V77.8954C186.66 77.8954 195.529 74.5576 201.723 68.3244C207.917 62.0912 210.731 54.531 210.731 45.2013C210.731 36.2939 207.639 27.9695 201.723 22.0782C195.608 15.9958 186.531 12.5675 177.105 12.5675C167.68 12.5675 158.563 15.9656 152.448 22.0782C146.552 27.9796 143.5 36.3341 143.5 45.2013C143.411 49.4616 144.156 53.6975 145.692 57.6658C147.228 61.634 149.524 65.2563 152.448 68.3244C158.563 74.4872 167.62 77.8954 177.105 77.8954V89.5373ZM45.4869 1.06628C35.8527 1.06628 24.906 2.89603 15.6595 7.0984C7.0294 10.9992 6.12633e-05 17.2625 6.12633e-05 27.6478C-0.0129044 33.0863 2.03259 38.3237 5.71699 42.2858C8.21255 44.6182 12.2393 48.5793 22.7584 50.9117C27.4612 51.917 37.513 53.5357 47.5251 54.6013C57.5372 55.667 67.2411 56.612 71.2181 57.6878C74.3798 58.5021 79.699 59.608 79.699 65.6401C79.699 71.6722 74.1014 73.4819 73.127 73.8739C72.1527 74.266 65.4315 77.3826 53.3614 77.3826C45.3641 77.1581 37.4396 75.7803 29.8275 73.2908C25.3236 71.6622 20.6009 69.5208 16.1964 64.0818C14.4188 61.5205 13.4327 58.4836 13.3628 55.3553H2.42603V86.3202H14.5757V82.1279C14.5738 81.8169 14.6539 81.5111 14.8078 81.2418C14.9616 80.9726 15.1837 80.7496 15.4511 80.596C15.7185 80.4424 16.0215 80.3636 16.329 80.3678C16.6365 80.372 16.9374 80.459 17.2006 80.6199C22.9247 83.1384 28.8788 85.0847 34.9777 86.4308C41.3608 87.778 45.4869 88.7532 53.421 88.7532C61.7932 88.9141 70.1372 87.7229 78.138 85.2244C83.4509 83.7519 88.4357 81.264 92.8231 77.8954C95.2908 75.9787 97.2853 73.5095 98.6499 70.6818C100.014 67.8541 100.712 64.7449 100.688 61.5986C100.729 55.6212 98.4476 49.8665 94.3343 45.5733C92.0472 43.3288 89.3975 41.4961 86.4997 40.1544C83.3845 38.7312 80.1504 37.5907 76.8356 36.7463C70.532 35.188 56.3739 33.2376 49.6031 32.5539C42.5042 31.81 30.1854 30.7745 25.2639 29.2363C23.7725 28.7638 20.7301 27.306 20.7301 23.737C20.7301 21.1934 22.1221 19.042 24.8662 17.3027C29.231 14.538 38.04 12.8189 47.2269 12.8189C56.1192 12.7103 64.9386 14.4521 73.137 17.9361C75.3396 18.9064 77.411 20.1564 79.3013 21.6559C82.3827 24.3171 84.5166 27.9263 85.3762 31.9306H95.1894V4.97711H84.2527V8.10375C84.2527 9.10911 83.2584 10.4362 81.2699 9.34034C76.3384 6.74653 62.4786 1.13666 45.4869 1.06628ZM285.588 6.01262L339.039 54.7823L338.492 21.9475C338.432 17.6345 337.657 15.8349 333.043 15.8349H323.001V6.01262H368.737V15.8349H358.924C354.231 15.8349 353.952 17.3631 353.873 21.9475L354.698 84.6915H339.039L277.465 29.1357V68.5556C277.515 72.8485 277.713 74.8692 282.078 74.8692H293.015V84.6915H248.184V74.8692H258.684C262.601 74.8692 262.442 71.0891 262.442 68.3345V22.3194C262.442 19.3034 262.024 15.845 255.88 15.845H247.369V6.01262H285.588ZM420.915 74.8491C421.819 74.8492 422.722 74.7921 423.619 74.6782C424.085 74.5368 424.515 74.2945 424.879 73.9681C425.243 73.6417 425.533 73.239 425.727 72.7882C425.865 72.0896 425.934 71.3791 425.936 70.6669V55.1342C425.936 54.6114 425.936 54.6013 425.28 53.7769C424.624 52.9526 397.282 21.6056 396.039 20.1982C394.488 18.4891 391.764 15.845 387.618 15.845H378.123V6.01262H431.713V15.8249H425.25C423.759 15.8249 422.764 17.2625 424.037 18.8409C424.037 18.8409 442.073 40.6571 442.242 40.8883C442.411 41.1195 442.56 41.1698 442.789 40.9587C443.017 40.7476 461.272 19.042 461.411 18.8409C461.627 18.5546 461.756 18.2116 461.785 17.8528C461.814 17.494 461.74 17.1344 461.572 16.8168C461.405 16.4991 461.151 16.2368 460.84 16.061C460.529 15.8851 460.175 15.8032 459.82 15.8249H453.188V6.01262H497.124V15.845H487.311C483.752 15.845 482.34 16.5085 479.625 19.5648L450.047 53.6865C449.757 54.1089 449.63 54.6236 449.689 55.1342V70.6568C449.694 71.3694 449.767 72.0798 449.907 72.7781C450.099 73.2294 450.386 73.6327 450.748 73.9593C451.111 74.286 451.54 74.528 452.005 74.6682C452.895 74.7871 453.792 74.8442 454.69 74.8391H464.722V84.6714H411.41V74.8391L420.915 74.8491Z" fill="white"/>
</g>
<g clip-path="url(#clip2_460_2248)">
<path d="M14.6727 116.57L11.8788 118.332C11.5062 117.353 10.9475 116.766 10.5749 116.57C10.0161 116.179 9.45734 116.179 8.71228 116.179C7.59469 115.983 6.84963 116.374 6.29084 116.766C5.73204 117.353 5.35951 118.136 5.35951 118.919C5.35951 120.094 6.10457 121.073 7.78095 121.66L10.0161 122.639C11.8788 123.422 13.1826 124.401 13.9277 125.379C14.6727 126.358 15.2315 127.924 15.2315 129.49C15.2315 131.644 14.4865 133.406 13.1826 134.972C11.8788 136.342 10.0161 137.125 7.96722 137.125C6.10457 137.125 4.42819 136.538 3.12434 135.363C2.00675 134.189 1.26169 132.427 0.88916 130.273L4.24192 129.49C4.42819 130.861 4.61445 131.839 4.98698 132.427C5.73204 133.406 6.66337 133.993 7.96722 133.993C9.08481 133.993 9.82986 133.601 10.5749 132.818C11.32 132.035 11.6925 131.056 11.6925 130.078C11.6925 129.686 11.6925 129.295 11.5062 128.903C11.5062 128.316 11.32 127.924 11.1337 127.533C10.9475 127.141 10.5749 126.945 10.2024 126.75C9.6436 126.358 9.27107 126.162 8.71228 125.771L6.4771 124.988C3.49687 123.618 1.82048 121.464 1.82048 118.919C1.82048 117.157 2.37928 115.591 3.68313 114.417C4.98698 113.242 6.66337 112.655 8.52601 112.655C11.32 112.655 13.1826 114.025 14.6727 116.57ZM18.7706 129.099C18.7706 126.945 19.5156 125.184 21.0057 123.618C22.4959 122.051 24.1722 121.268 26.4074 121.268C28.4563 121.268 30.319 122.051 31.8091 123.618C33.2992 125.184 34.0443 126.945 34.0443 129.295C34.0443 131.448 33.2992 133.406 31.8091 134.972C30.319 136.538 28.4563 137.125 26.4074 137.125C24.3585 137.125 22.4959 136.342 21.0057 134.776C19.3294 133.406 18.7706 131.448 18.7706 129.099ZM22.1233 129.295C22.1233 130.861 22.4959 132.035 23.2409 132.818C23.986 133.601 25.1036 134.189 26.2212 134.189C27.525 134.189 28.4563 133.797 29.2014 132.818C29.9465 132.035 30.319 130.861 30.319 129.295C30.319 127.729 29.9465 126.75 29.2014 125.771C28.4563 124.988 27.3387 124.401 26.2212 124.401C24.9173 124.401 23.986 124.792 23.2409 125.771C22.4959 126.75 22.1233 127.924 22.1233 129.295ZM37.2108 121.856H40.5635V123.226C41.6811 122.051 42.985 121.464 44.4751 121.464C46.1515 121.464 47.4553 122.051 48.3867 123.03C49.1317 124.009 49.5042 125.379 49.5042 127.533V136.733H46.1515V128.316C46.1515 126.75 45.9652 125.771 45.5927 125.184C45.2202 124.792 44.4751 124.596 43.5438 124.596C42.4262 124.596 41.6811 124.988 41.3086 125.771C40.9361 126.554 40.5635 127.729 40.5635 129.686V136.929H37.2108V121.856ZM58.8175 133.993L52.4845 121.856H56.2098L60.4939 130.469L64.5917 121.856H68.317L56.9548 144.955H53.2295L58.8175 133.993ZM82.6594 136.733V111.48L99.0506 129.49V113.046H102.403V138.104L86.0121 120.094V136.538H82.6594V136.733ZM120.471 130.078H110.227C110.227 131.252 110.599 132.231 111.344 133.014C112.089 133.797 112.834 133.993 113.952 133.993C114.697 133.993 115.442 133.797 116.001 133.406C116.56 133.014 117.118 132.231 117.863 131.056L120.657 132.623C120.285 133.406 119.726 133.993 119.353 134.58C118.795 135.167 118.422 135.559 117.863 135.95C117.305 136.342 116.746 136.538 116.187 136.733C115.628 136.929 114.883 136.929 114.138 136.929C112.089 136.929 110.413 136.146 109.109 134.776C107.805 133.406 107.246 131.448 107.246 129.099C107.246 126.75 107.805 124.792 109.109 123.422C110.413 122.051 112.089 121.268 114.138 121.268C116.187 121.268 117.863 122.051 119.167 123.422C120.285 124.792 121.03 126.75 121.03 129.099L120.471 130.078ZM117.118 127.337C116.746 125.379 115.628 124.596 113.766 124.596C113.393 124.596 113.02 124.596 112.648 124.792C112.275 124.988 111.903 125.184 111.717 125.379C111.344 125.575 111.158 125.967 110.972 126.162C110.785 126.358 110.599 126.945 110.599 127.337H117.118ZM128.294 124.988V136.733H124.941V124.988H123.451V121.856H124.941V116.374H128.294V121.856H130.902V124.988H128.294ZM137.235 121.856L140.96 130.273L144.872 120.485L148.97 130.273L152.695 121.856H156.42L148.97 137.908L145.058 128.316L141.146 137.908L133.696 121.856H137.235ZM157.351 129.099C157.351 126.945 158.097 125.184 159.587 123.618C161.077 122.247 162.753 121.464 164.802 121.464C166.851 121.464 168.714 122.247 170.204 123.813C171.694 125.379 172.439 127.141 172.439 129.49C172.439 131.644 171.694 133.601 170.204 135.167C168.714 136.733 166.851 137.321 164.802 137.321C162.753 137.321 160.891 136.538 159.4 134.972C158.097 133.406 157.351 131.448 157.351 129.099ZM160.704 129.295C160.704 130.861 161.077 132.035 161.822 132.818C162.567 133.601 163.684 134.189 164.802 134.189C166.106 134.189 167.037 133.797 167.782 132.818C168.527 132.035 168.9 130.861 168.9 129.295C168.9 127.729 168.527 126.75 167.782 125.771C167.224 124.988 166.106 124.596 164.802 124.596C163.498 124.596 162.567 124.988 161.822 125.967C161.077 126.75 160.704 127.924 160.704 129.295ZM175.978 121.856H179.331V123.226C179.89 122.639 180.448 122.051 181.007 121.856C181.566 121.66 182.125 121.464 182.683 121.464C183.615 121.464 184.36 121.856 185.477 122.443L183.987 125.575C183.429 125.184 182.683 124.792 182.125 124.792C180.262 124.792 179.517 126.162 179.517 129.099V136.733H175.978V121.856ZM191.438 110.893V126.554L196.095 121.66H200.565L194.418 127.924L200.937 136.538H196.653L191.997 130.273L191.438 130.861V136.538H188.085V110.893H191.438ZM231.671 114.417V118.724C229.622 116.962 227.76 116.179 225.524 116.179C223.289 116.179 221.24 116.962 219.75 118.724C218.074 120.485 217.329 122.639 217.329 124.988C217.329 127.533 218.074 129.49 219.75 131.252C221.427 133.014 223.289 133.797 225.524 133.797C226.642 133.797 227.76 133.601 228.505 133.21C228.877 133.014 229.436 132.818 229.995 132.427C230.554 132.035 231.112 131.644 231.485 131.252V135.559C229.622 136.733 227.573 137.321 225.338 137.321C222.172 137.321 219.378 136.146 217.142 133.797C214.907 131.448 213.79 128.512 213.79 125.184C213.79 122.247 214.721 119.507 216.584 117.157C218.819 114.221 221.985 112.851 225.711 112.851C227.946 112.655 229.808 113.242 231.671 114.417ZM235.396 129.099C235.396 126.945 236.141 125.184 237.632 123.618C239.122 122.051 240.798 121.268 243.033 121.268C245.082 121.268 246.945 122.051 248.435 123.618C249.925 125.184 250.67 126.945 250.67 129.295C250.67 131.448 249.925 133.406 248.435 134.972C246.945 136.538 245.082 137.125 243.033 137.125C240.984 137.125 239.122 136.342 237.632 134.776C236.141 133.406 235.396 131.448 235.396 129.099ZM238.749 129.295C238.749 130.861 239.122 132.035 239.867 132.818C240.612 133.601 241.729 134.189 242.847 134.189C244.151 134.189 245.082 133.797 245.827 132.818C246.572 132.035 246.945 130.861 246.945 129.295C246.945 127.729 246.572 126.75 245.827 125.771C245.082 124.988 243.965 124.401 242.847 124.401C241.543 124.401 240.612 124.792 239.867 125.771C239.122 126.75 238.749 127.924 238.749 129.295ZM253.278 121.856H256.631V123.226C257.189 122.443 257.748 122.051 258.307 121.856C258.866 121.66 259.425 121.464 260.17 121.464C261.846 121.464 262.964 122.247 263.895 123.618C265.012 122.051 266.316 121.464 267.993 121.464C271.159 121.464 272.836 123.422 272.836 127.533V136.733H269.483V128.512C269.483 127.141 269.297 126.162 268.924 125.575C268.738 124.792 268.179 124.596 267.248 124.596C266.316 124.596 265.758 124.988 265.199 125.575C264.64 126.162 264.64 127.533 264.64 129.099V136.733H261.287V128.512C261.287 125.771 260.542 124.596 259.052 124.596C258.121 124.596 257.376 124.988 257.003 125.771C256.631 126.554 256.444 127.729 256.444 129.295V136.929H253.092V121.856H253.278ZM276.375 121.856H279.727V123.226C280.286 122.443 280.845 122.051 281.404 121.856C281.963 121.66 282.521 121.464 283.266 121.464C284.943 121.464 286.06 122.247 286.992 123.618C288.109 122.051 289.413 121.464 291.09 121.464C294.256 121.464 295.932 123.422 295.932 127.533V136.733H292.58V128.512C292.58 127.141 292.393 126.162 292.021 125.575C291.648 124.988 291.09 124.596 290.344 124.596C289.413 124.596 288.854 124.988 288.296 125.575C287.923 126.358 287.737 127.533 287.737 129.099V136.733H284.384V128.512C284.384 125.771 283.639 124.596 282.149 124.596C281.218 124.596 280.472 124.988 280.1 125.771C279.727 126.554 279.541 127.729 279.541 129.295V136.929H276.188V121.856H276.375ZM303.197 121.856V130.469C303.197 133.014 304.128 134.189 305.991 134.189C307.853 134.189 308.785 133.014 308.785 130.469V121.856H312.137V130.469C312.137 131.644 311.951 132.623 311.765 133.601C311.579 134.384 311.02 135.167 310.275 135.755C309.157 136.733 307.853 137.321 305.991 137.321C304.314 137.321 302.824 136.733 301.707 135.755C300.962 135.167 300.589 134.384 300.216 133.601C300.03 132.818 299.844 131.839 299.844 130.469V121.856H303.197ZM316.049 121.856H319.402V123.226C320.519 122.051 321.823 121.464 323.313 121.464C324.99 121.464 326.294 122.051 327.225 123.03C327.97 124.009 328.342 125.379 328.342 127.533V136.733H324.99V128.316C324.99 126.75 324.803 125.771 324.431 125.184C324.058 124.596 323.313 124.401 322.382 124.401C321.264 124.401 320.519 124.792 320.147 125.575C319.774 126.358 319.402 127.533 319.402 129.49V136.733H316.049V121.856ZM332.627 115.591C332.627 115.004 332.813 114.417 333.185 114.025C333.558 113.634 334.117 113.438 334.675 113.438C335.234 113.438 335.793 113.634 336.166 114.025C336.538 114.417 336.724 115.004 336.724 115.591C336.724 116.179 336.538 116.766 336.166 117.157C335.793 117.549 335.234 117.745 334.675 117.745C334.117 117.745 333.558 117.549 333.185 117.157C332.813 116.766 332.627 116.179 332.627 115.591ZM336.352 121.856V136.733H332.999V121.856H336.352ZM351.439 122.443V126.945C350.694 125.967 349.949 125.379 349.39 124.988C348.832 124.596 348.087 124.401 347.341 124.401C346.038 124.401 345.106 124.792 344.361 125.771C343.616 126.75 343.057 127.729 343.057 129.099C343.057 130.469 343.43 131.644 344.175 132.623C344.92 133.601 346.038 133.993 347.155 133.993C347.9 133.993 348.645 133.797 349.204 133.406C349.763 133.014 350.508 132.427 351.253 131.448V135.95C349.949 136.733 348.645 137.125 347.341 137.125C345.106 137.125 343.244 136.342 341.754 134.972C340.263 133.406 339.518 131.644 339.518 129.295C339.518 126.945 340.263 125.184 341.754 123.618C343.244 122.051 345.106 121.268 347.341 121.268C349.018 121.464 350.322 121.856 351.439 122.443ZM365.782 121.856H369.134V136.733H365.782V135.167C364.478 136.538 362.988 137.125 361.498 137.125C359.449 137.125 357.959 136.342 356.655 134.972C355.351 133.406 354.792 131.644 354.792 129.295C354.792 127.141 355.351 125.184 356.655 123.618C357.959 122.051 359.449 121.464 361.498 121.464C363.174 121.464 364.664 122.247 365.968 123.618V121.856H365.782ZM357.959 129.295C357.959 130.665 358.331 131.839 359.076 132.818C359.821 133.797 360.753 134.189 361.87 134.189C363.174 134.189 364.105 133.797 364.85 132.818C365.595 131.839 365.968 130.665 365.968 129.295C365.968 127.924 365.595 126.75 364.85 125.771C364.105 124.988 363.174 124.596 361.87 124.596C360.753 124.596 359.821 124.988 359.076 125.967C358.331 126.75 357.959 127.924 357.959 129.295ZM377.703 124.988V136.733H374.35V124.988H372.86V121.856H374.35V116.374H377.703V121.856H380.31V124.988H377.703ZM383.104 115.591C383.104 115.004 383.291 114.417 383.663 114.025C384.036 113.634 384.594 113.438 385.153 113.438C385.712 113.438 386.271 113.634 386.643 114.025C387.016 114.417 387.202 115.004 387.202 115.591C387.202 116.179 387.016 116.766 386.643 117.157C386.271 117.549 385.712 117.745 385.153 117.745C384.594 117.745 384.036 117.549 383.663 117.157C383.477 116.766 383.104 116.179 383.104 115.591ZM387.016 121.856V136.733H383.663V121.856H387.016ZM391.114 129.099C391.114 126.945 391.859 125.184 393.349 123.618C394.839 122.051 396.515 121.268 398.751 121.268C400.799 121.268 402.662 122.051 404.152 123.618C405.642 125.184 406.387 126.945 406.387 129.295C406.387 131.448 405.642 133.406 404.152 134.972C402.662 136.538 400.799 137.125 398.751 137.125C396.702 137.125 394.839 136.342 393.349 134.776C391.672 133.406 391.114 131.448 391.114 129.099ZM394.466 129.295C394.466 130.861 394.839 132.035 395.584 132.818C396.329 133.601 397.447 134.189 398.564 134.189C399.868 134.189 400.799 133.797 401.545 132.818C402.29 131.839 402.662 130.861 402.662 129.295C402.662 127.729 402.29 126.75 401.545 125.771C400.799 124.988 399.682 124.401 398.564 124.401C397.26 124.401 396.329 124.792 395.584 125.771C394.839 126.75 394.466 127.924 394.466 129.295ZM409.554 121.856H412.907V123.226C414.024 122.051 415.328 121.464 416.818 121.464C418.495 121.464 419.798 122.051 420.73 123.03C421.475 124.009 421.847 125.379 421.847 127.533V136.733H418.495V128.316C418.495 126.75 418.308 125.771 417.936 125.184C417.563 124.596 416.818 124.401 415.887 124.401C414.769 124.401 414.024 124.792 413.652 125.575C413.279 126.358 412.907 127.533 412.907 129.49V136.733H409.554V121.856ZM434.7 124.401L431.906 125.967C431.719 124.988 431.161 124.596 430.416 124.596C430.043 124.596 429.857 124.792 429.67 124.988C429.484 125.184 429.298 125.379 429.298 125.771C429.298 126.358 429.857 126.945 431.161 127.533C432.837 128.316 434.141 129.099 434.7 129.686C435.258 130.273 435.631 131.252 435.631 132.427C435.631 133.797 435.072 134.972 434.141 135.95C433.209 136.929 431.906 137.321 430.602 137.321C428.18 137.321 426.504 136.146 425.573 133.601L428.367 132.231C428.739 133.014 429.112 133.406 429.298 133.601C429.67 133.993 430.229 134.189 430.788 134.189C431.906 134.189 432.464 133.601 432.464 132.623C432.464 132.035 432.092 131.448 431.161 130.861C430.788 130.665 430.416 130.469 430.229 130.273C429.857 130.078 429.484 129.882 429.298 129.686C428.367 129.295 427.622 128.707 427.249 128.12C426.69 127.533 426.504 126.75 426.504 125.771C426.504 124.401 426.876 123.422 427.808 122.639C428.739 121.856 429.67 121.464 430.974 121.464C432.464 121.464 433.955 122.443 434.7 124.401ZM454.257 113.046V136.733H450.905V113.046H454.257ZM459.659 121.856H463.012V123.226C464.129 122.051 465.433 121.464 466.923 121.464C468.6 121.464 469.904 122.051 470.835 123.03C471.58 124.009 471.953 125.379 471.953 127.533V136.733H468.6V128.316C468.6 126.75 468.414 125.771 468.041 125.184C467.668 124.596 466.923 124.401 465.992 124.401C464.874 124.401 464.129 124.792 463.757 125.575C463.384 126.358 463.012 127.533 463.012 129.49V136.733H459.659V121.856ZM487.04 122.443V126.945C486.295 125.967 485.55 125.379 484.991 124.988C484.432 124.596 483.687 124.401 482.942 124.401C481.638 124.401 480.707 124.792 479.962 125.771C479.217 126.75 478.658 127.729 478.658 129.099C478.658 130.469 479.031 131.644 479.776 132.623C480.521 133.601 481.638 133.993 482.756 133.993C483.501 133.993 484.246 133.797 484.805 133.406C485.364 133.014 486.109 132.427 486.854 131.448V135.95C485.55 136.733 484.246 137.125 482.942 137.125C480.707 137.125 478.844 136.342 477.354 134.972C475.864 133.406 475.119 131.644 475.119 129.295C475.119 126.945 475.864 125.184 477.354 123.618C478.844 122.051 480.707 121.268 482.942 121.268C484.432 121.464 485.736 121.856 487.04 122.443ZM491.324 134.972C491.324 134.384 491.51 133.993 491.883 133.406C492.255 132.818 492.814 132.818 493.373 132.818C493.932 132.818 494.491 133.014 494.863 133.406C495.236 133.797 495.422 134.384 495.422 134.972C495.422 135.559 495.236 136.146 494.863 136.538C494.491 136.929 493.932 137.125 493.373 137.125C492.814 137.125 492.255 136.929 491.883 136.538C491.51 136.146 491.324 135.559 491.324 134.972Z" fill="white"/>
</g>
<defs>
<linearGradient id="paint0_linear_460_2248" x1="24.9506" y1="316.72" x2="114.205" y2="228.584" gradientUnits="userSpaceOnUse">
<stop offset="0.001139" stop-color="#E6007A"/>
<stop offset="0.207149" stop-color="#703AC2"/>
<stop offset="0.456011" stop-color="#0070EB"/>
<stop offset="0.768132" stop-color="#0297FB"/>
<stop offset="1" stop-color="#0AE2FF"/>
</linearGradient>
<radialGradient id="paint1_radial_460_2248" cx="0" cy="0" r="1" gradientUnits="userSpaceOnUse" gradientTransform="translate(91.8259 254.777) scale(26.2819 26.6154)">
<stop stop-color="white"/>
<stop offset="1" stop-color="white" stop-opacity="0"/>
</radialGradient>
<radialGradient id="paint2_radial_460_2248" cx="0" cy="0" r="1" gradientUnits="userSpaceOnUse" gradientTransform="translate(52.9778 304.151) scale(15.2911 15.485)">
<stop stop-color="white"/>
<stop offset="1" stop-color="white" stop-opacity="0"/>
</radialGradient>
<linearGradient id="paint3_linear_460_2248" x1="30.0307" y1="301.532" x2="44.7703" y2="301.33" gradientUnits="userSpaceOnUse">
<stop stop-color="white" stop-opacity="0"/>
<stop offset="1" stop-color="white"/>
</linearGradient>
<radialGradient id="paint4_radial_460_2248" cx="0" cy="0" r="1" gradientUnits="userSpaceOnUse" gradientTransform="translate(50.1539 258.751) rotate(-119.688) scale(26.5324 26.3641)">
<stop stop-color="white"/>
<stop offset="1" stop-color="white" stop-opacity="0"/>
</radialGradient>
<radialGradient id="paint5_radial_460_2248" cx="0" cy="0" r="1" gradientUnits="userSpaceOnUse" gradientTransform="translate(111.803 268.133) rotate(-119.688) scale(15.4368 15.3389)">
<stop stop-color="white"/>
<stop offset="1" stop-color="white" stop-opacity="0"/>
</radialGradient>
<linearGradient id="paint6_linear_460_2248" x1="121.036" y1="289.568" x2="113.348" y2="276.831" gradientUnits="userSpaceOnUse">
<stop stop-color="white" stop-opacity="0"/>
<stop offset="1" stop-color="white"/>
</linearGradient>
<radialGradient id="paint7_radial_460_2248" cx="0" cy="0" r="1" gradientUnits="userSpaceOnUse" gradientTransform="translate(73.143 292.077) rotate(119.688) scale(26.5324 26.3641)">
<stop stop-color="white"/>
<stop offset="1" stop-color="white" stop-opacity="0"/>
</radialGradient>
<radialGradient id="paint8_radial_460_2248" cx="0" cy="0" r="1" gradientUnits="userSpaceOnUse" gradientTransform="translate(51.5839 234.55) rotate(119.688) scale(15.4368 15.3389)">
<stop stop-color="white"/>
<stop offset="1" stop-color="white" stop-opacity="0"/>
</radialGradient>
<linearGradient id="paint9_linear_460_2248" x1="65.2975" y1="215.734" x2="57.9659" y2="228.686" gradientUnits="userSpaceOnUse">
<stop stop-color="white" stop-opacity="0"/>
<stop offset="1" stop-color="white"/>
</linearGradient>
<linearGradient id="paint10_linear_460_2248" x1="68.502" y1="209.111" x2="45.9392" y2="215.592" gradientUnits="userSpaceOnUse">
<stop stop-color="#231F20"/>
<stop offset="1" stop-color="white"/>
</linearGradient>
<linearGradient id="paint11_linear_460_2248" x1="25.9456" y1="296.085" x2="45.0272" y2="315.747" gradientUnits="userSpaceOnUse">
<stop stop-color="#231F20"/>
<stop offset="1" stop-color="white"/>
</linearGradient>
<linearGradient id="paint12_linear_460_2248" x1="127.028" y1="293.086" x2="133.729" y2="272.957" gradientUnits="userSpaceOnUse">
<stop stop-color="#231F20"/>
<stop offset="1" stop-color="white"/>
</linearGradient>
<linearGradient id="paint13_linear_460_2248" x1="78.7626" y1="220.65" x2="108.991" y2="227.485" gradientUnits="userSpaceOnUse">
<stop stop-color="#231F20"/>
<stop offset="1" stop-color="white"/>
</linearGradient>
<linearGradient id="paint14_linear_460_2248" x1="110.105" y1="298.917" x2="88.7373" y2="321.626" gradientUnits="userSpaceOnUse">
<stop stop-color="#231F20"/>
<stop offset="1" stop-color="white"/>
</linearGradient>
<linearGradient id="paint15_linear_460_2248" x1="27.5081" y1="287.287" x2="18.1872" y2="257.375" gradientUnits="userSpaceOnUse">
<stop stop-color="#231F20"/>
<stop offset="1" stop-color="white"/>
</linearGradient>
<linearGradient id="paint16_linear_460_2248" x1="85.363" y1="231.926" x2="75.6893" y2="241.479" gradientUnits="userSpaceOnUse">
<stop stop-color="#231F20"/>
<stop offset="1" stop-color="white"/>
</linearGradient>
<linearGradient id="paint17_linear_460_2248" x1="33.845" y1="275.844" x2="46.917" y2="279.303" gradientUnits="userSpaceOnUse">
<stop stop-color="#231F20"/>
<stop offset="1" stop-color="white"/>
</linearGradient>
<linearGradient id="paint18_linear_460_2248" x1="97.1581" y1="299.062" x2="93.5778" y2="285.868" gradientUnits="userSpaceOnUse">
<stop stop-color="#231F20"/>
<stop offset="1" stop-color="white"/>
</linearGradient>
<linearGradient id="paint19_linear_460_2248" x1="77.2935" y1="287.31" x2="83.1208" y2="279.364" gradientUnits="userSpaceOnUse">
<stop stop-color="#231F20"/>
<stop offset="1" stop-color="white"/>
</linearGradient>
<linearGradient id="paint20_linear_460_2248" x1="57.5562" y1="283.84" x2="46.0392" y2="289.255" gradientUnits="userSpaceOnUse">
<stop stop-color="#231F20"/>
<stop offset="1" stop-color="white"/>
</linearGradient>
<linearGradient id="paint21_linear_460_2248" x1="53.3963" y1="264.514" x2="57.0178" y2="271.942" gradientUnits="userSpaceOnUse">
<stop stop-color="#231F20"/>
<stop offset="1" stop-color="white"/>
</linearGradient>
<linearGradient id="paint22_linear_460_2248" x1="69.9033" y1="241.465" x2="67.389" y2="232.913" gradientUnits="userSpaceOnUse">
<stop stop-color="#231F20"/>
<stop offset="1" stop-color="white"/>
</linearGradient>
<linearGradient id="paint23_linear_460_2248" x1="96.3794" y1="280.698" x2="103.485" y2="282.317" gradientUnits="userSpaceOnUse">
<stop stop-color="#231F20"/>
<stop offset="1" stop-color="white"/>
</linearGradient>
<linearGradient id="paint24_linear_460_2248" x1="85.2418" y1="256.42" x2="76.2274" y2="254.801" gradientUnits="userSpaceOnUse">
<stop stop-color="#231F20"/>
<stop offset="1" stop-color="white"/>
</linearGradient>
<linearGradient id="paint25_linear_460_2248" x1="169.408" y1="313.966" x2="485.424" y2="242.55" gradientUnits="userSpaceOnUse">
<stop offset="0.001139" stop-color="#E6007A"/>
<stop offset="0.207149" stop-color="#703AC2"/>
<stop offset="0.456011" stop-color="#0070EB"/>
<stop offset="0.768132" stop-color="#0297FB"/>
<stop offset="1" stop-color="#0AE2FF"/>
</linearGradient>
<linearGradient id="paint26_linear_460_2248" x1="160.223" y1="273.321" x2="476.24" y2="201.905" gradientUnits="userSpaceOnUse">
<stop offset="0.001139" stop-color="#E6007A"/>
<stop offset="0.207149" stop-color="#703AC2"/>
<stop offset="0.456011" stop-color="#0070EB"/>
<stop offset="0.768132" stop-color="#0297FB"/>
<stop offset="1" stop-color="#0AE2FF"/>
</linearGradient>
<linearGradient id="paint27_linear_460_2248" x1="154.513" y1="288.838" x2="470.53" y2="217.421" gradientUnits="userSpaceOnUse">
<stop offset="0.001139" stop-color="#E6007A"/>
<stop offset="0.207149" stop-color="#703AC2"/>
<stop offset="0.456011" stop-color="#0070EB"/>
<stop offset="0.768132" stop-color="#0297FB"/>
<stop offset="1" stop-color="#0AE2FF"/>
</linearGradient>
<linearGradient id="paint28_linear_460_2248" x1="152.463" y1="279.766" x2="468.48" y2="208.349" gradientUnits="userSpaceOnUse">
<stop offset="0.001139" stop-color="#E6007A"/>
<stop offset="0.207149" stop-color="#703AC2"/>
<stop offset="0.456011" stop-color="#0070EB"/>
<stop offset="0.768132" stop-color="#0297FB"/>
<stop offset="1" stop-color="#0AE2FF"/>
</linearGradient>
<linearGradient id="paint29_linear_460_2248" x1="156.436" y1="297.347" x2="472.452" y2="225.93" gradientUnits="userSpaceOnUse">
<stop offset="0.001139" stop-color="#E6007A"/>
<stop offset="0.207149" stop-color="#703AC2"/>
<stop offset="0.456011" stop-color="#0070EB"/>
<stop offset="0.768132" stop-color="#0297FB"/>
<stop offset="1" stop-color="#0AE2FF"/>
</linearGradient>
<linearGradient id="paint30_linear_460_2248" x1="152.989" y1="282.095" x2="469.005" y2="210.678" gradientUnits="userSpaceOnUse">
<stop offset="0.001139" stop-color="#E6007A"/>
<stop offset="0.207149" stop-color="#703AC2"/>
<stop offset="0.456011" stop-color="#0070EB"/>
<stop offset="0.768132" stop-color="#0297FB"/>
<stop offset="1" stop-color="#0AE2FF"/>
</linearGradient>
<linearGradient id="paint31_linear_460_2248" x1="161.18" y1="318.34" x2="477.198" y2="246.924" gradientUnits="userSpaceOnUse">
<stop offset="0.001139" stop-color="#E6007A"/>
<stop offset="0.207149" stop-color="#703AC2"/>
<stop offset="0.456011" stop-color="#0070EB"/>
<stop offset="0.768132" stop-color="#0297FB"/>
<stop offset="1" stop-color="#0AE2FF"/>
</linearGradient>
<linearGradient id="paint32_linear_460_2248" x1="161.648" y1="320.409" x2="477.664" y2="248.992" gradientUnits="userSpaceOnUse">
<stop offset="0.001139" stop-color="#E6007A"/>
<stop offset="0.207149" stop-color="#703AC2"/>
<stop offset="0.456011" stop-color="#0070EB"/>
<stop offset="0.768132" stop-color="#0297FB"/>
<stop offset="1" stop-color="#0AE2FF"/>
</linearGradient>
<linearGradient id="paint33_linear_460_2248" x1="163.704" y1="329.507" x2="479.724" y2="258.091" gradientUnits="userSpaceOnUse">
<stop offset="0.001139" stop-color="#E6007A"/>
<stop offset="0.207149" stop-color="#703AC2"/>
<stop offset="0.456011" stop-color="#0070EB"/>
<stop offset="0.768132" stop-color="#0297FB"/>
<stop offset="1" stop-color="#0AE2FF"/>
</linearGradient>
<linearGradient id="paint34_linear_460_2248" x1="166.401" y1="341.442" x2="482.396" y2="270.03" gradientUnits="userSpaceOnUse">
<stop offset="0.001139" stop-color="#E6007A"/>
<stop offset="0.207149" stop-color="#703AC2"/>
<stop offset="0.456011" stop-color="#0070EB"/>
<stop offset="0.768132" stop-color="#0297FB"/>
<stop offset="1" stop-color="#0AE2FF"/>
</linearGradient>
<linearGradient id="paint35_linear_460_2248" x1="164.882" y1="334.72" x2="480.899" y2="263.304" gradientUnits="userSpaceOnUse">
<stop offset="0.001139" stop-color="#E6007A"/>
<stop offset="0.207149" stop-color="#703AC2"/>
<stop offset="0.456011" stop-color="#0070EB"/>
<stop offset="0.768132" stop-color="#0297FB"/>
<stop offset="1" stop-color="#0AE2FF"/>
</linearGradient>
<clipPath id="clip0_460_2248">
<rect width="494" height="140" fill="white" transform="translate(3 198.946)"/>
</clipPath>
<clipPath id="clip1_460_2248">
<rect width="497.124" height="89.5675" fill="white"/>
</clipPath>
<clipPath id="clip2_460_2248">
<rect width="494.346" height="33.8665" fill="white" transform="translate(0.88916 110.893)"/>
</clipPath>
</defs>
</svg>
