<svg width="70" height="70" viewBox="0 0 70 70" fill="none" xmlns="http://www.w3.org/2000/svg">
<path d="M68.8516 47.2977C68.1567 46.6028 67.2333 46.1957 66.2516 46.1514C65.2696 46.1075 64.3135 46.4295 63.5589 47.059L54.3844 54.7122C53.6808 53.8853 52.6332 53.3597 51.465 53.3597H45.5955C44.7301 53.3597 43.9165 53.0227 43.3046 52.4108L43.2889 52.3951C42.724 51.8302 42.0633 51.3887 41.3252 51.083C40.5871 50.7772 39.8078 50.6222 39.0089 50.6222H33.8349C32.6787 50.6222 31.5508 50.8466 30.4826 51.289C29.4144 51.7315 28.4582 52.3704 27.6406 53.188L13.7515 67.0771C13.3239 67.5047 13.3239 68.198 13.7515 68.6256C13.9653 68.8394 14.2456 68.9464 14.5258 68.9464C14.806 68.9464 15.0863 68.8394 15.3001 68.6256L29.1892 54.7365C30.4301 53.4956 32.08 52.8122 33.8349 52.8122H39.0089C40.0407 52.8122 41.0107 53.214 41.7403 53.9436L41.7561 53.9594C42.2628 54.4661 42.8555 54.8621 43.5176 55.1364C44.1797 55.4106 44.8788 55.5497 45.5954 55.5497H51.465C52.3706 55.5497 53.1074 56.2865 53.1074 57.1922C53.1074 58.0979 52.3706 58.8347 51.465 58.8347H39.9674C39.3627 58.8347 38.8724 59.325 38.8724 59.9297C38.8724 60.5345 39.3627 61.0247 39.9674 61.0247H51.465C53.5782 61.0247 55.2975 59.3055 55.2975 57.1922C55.2975 57.0659 55.2911 56.941 55.2791 56.8178L64.9617 48.7407C65.6566 48.161 66.6631 48.2065 67.303 48.8463C67.9803 49.5236 67.9803 50.6258 67.303 51.3031L52.8417 65.7643C52.0145 66.5916 50.9146 67.0472 49.7446 67.0472H34.4924C33.8877 67.0472 33.3974 67.5375 33.3974 68.1422C33.3974 68.747 33.8877 69.2372 34.4924 69.2372H49.7446C50.6118 69.2372 51.4577 69.069 52.2589 68.7371C53.06 68.4052 53.7771 67.9261 54.3903 67.3129L68.8515 52.8517C70.3828 51.3204 70.3828 48.8289 68.8516 47.2977Z" fill="black"/>
<path d="M34.0662 31.5025C33.7142 32.5861 34.0022 33.7532 34.8181 34.5485L39.4803 39.0929L38.3797 45.5098C38.1871 46.6327 38.64 47.7463 39.5618 48.416C40.0826 48.7945 40.692 48.9867 41.3055 48.9867C41.7777 48.9867 42.2524 48.8728 42.691 48.6422L48.4538 45.6126L54.2165 48.6422C54.6551 48.8729 55.1297 48.9868 55.602 48.9867C56.2154 48.9867 56.8249 48.7944 57.3457 48.416C58.2675 47.7464 58.7205 46.6328 58.5279 45.5098L57.4273 39.0929L62.0894 34.5485C62.9052 33.7532 63.1934 32.586 62.8413 31.5025C62.4892 30.4189 61.5701 29.644 60.4426 29.4802L53.9997 28.5439L51.1183 22.7057C50.6141 21.684 49.5931 21.0493 48.4538 21.0493C47.3144 21.0493 46.2934 21.684 45.7892 22.7057L42.9078 28.5439L36.4649 29.4802C35.3374 29.644 34.4183 30.4189 34.0662 31.5025ZM36.149 32.1792C36.1942 32.0403 36.346 31.7104 36.7798 31.6474L43.7925 30.6284C44.1491 30.5766 44.4574 30.3526 44.6169 30.0294L47.7531 23.6749C47.9471 23.2818 48.3077 23.2393 48.4538 23.2393C48.5998 23.2393 48.9604 23.2818 49.1545 23.6749L52.2906 30.0294C52.4501 30.3526 52.7584 30.5766 53.1151 30.6284L60.1277 31.6474C60.5616 31.7105 60.7134 32.0403 60.7585 32.1792C60.8036 32.3181 60.8747 32.6742 60.5607 32.9803L55.4864 37.9266C55.2283 38.1781 55.1105 38.5406 55.1715 38.8958L56.3694 45.8801C56.4435 46.3122 56.1766 46.5585 56.0585 46.6443C55.9403 46.7302 55.6236 46.9078 55.2356 46.7038L48.9633 43.4063C48.8038 43.3224 48.6288 43.2805 48.4537 43.2805C48.2787 43.2805 48.1037 43.3224 47.9442 43.4063L41.6719 46.7038C41.2839 46.9079 40.9672 46.7302 40.849 46.6443C40.7309 46.5585 40.464 46.3122 40.5381 45.8801L41.7361 38.8958C41.797 38.5406 41.6792 38.1781 41.4211 37.9266L36.3467 32.9803C36.0328 32.6742 36.1039 32.3181 36.149 32.1792Z" fill="black"/>
<path d="M13.7087 52.4794C13.8111 52.9912 14.2605 53.3596 14.7825 53.3596H22.4475C23.0523 53.3596 23.5425 52.8694 23.5425 52.2646C23.5425 51.6599 23.0523 51.1696 22.4475 51.1696H15.6802L15.0232 47.8846H32.3025C33.8119 47.8846 35.04 46.6566 35.04 45.1471V39.1246C35.04 38.5199 34.5497 38.0296 33.945 38.0296C33.3402 38.0296 32.85 38.5199 32.85 39.1246V45.1471C32.85 45.449 32.6044 45.6946 32.3025 45.6946H13.7006C13.6949 45.6946 13.6891 45.6946 13.6834 45.6946H12.5925C12.2906 45.6946 12.045 45.449 12.045 45.1471V42.9571H29.565C30.1697 42.9571 30.66 42.4669 30.66 41.8621C30.66 41.2574 30.1697 40.7671 29.565 40.7671H12.045V26.9516C12.045 26.9502 12.045 26.9489 12.045 26.9476V22.7742C12.045 19.0873 13.0373 15.4602 14.8794 12.2949H30.0156C31.8577 15.4602 32.85 19.0873 32.85 22.7742V26.5321C32.85 27.1369 33.3403 27.6271 33.945 27.6271C34.5498 27.6271 35.04 27.1369 35.04 26.5321V22.7742C35.04 20.1573 34.5979 17.5794 33.7259 15.112C32.8539 12.6447 31.5781 10.3614 29.9338 8.32563L25.0031 2.22092C24.3763 1.44501 23.4449 1 22.4475 1C21.4501 1 20.5187 1.44501 19.892 2.22092L14.9612 8.32563C13.3169 10.3614 12.0411 12.6447 11.1691 15.112C10.2971 17.5794 9.855 20.1573 9.855 22.7742V26.3891L4.90453 30.0332C3.39145 31.147 2.14359 32.622 1.29583 34.2986C0.44809 35.9753 0 37.8547 0 39.7335V48.9796C0 49.3978 0.238215 49.7795 0.613904 49.9632C0.766578 50.0379 0.931114 50.0746 1.09484 50.0746C1.33394 50.0746 1.5713 49.9963 1.76728 49.8439L9.855 43.5535V45.1471C9.855 46.6565 11.083 47.8846 12.5925 47.8846H12.7898L13.7087 52.4794ZM21.5956 3.59697C21.8046 3.33835 22.115 3.19 22.4475 3.19C22.7799 3.19 23.0905 3.33832 23.2993 3.59697L28.2301 9.70168C28.3376 9.8348 28.4431 9.9693 28.5472 10.1049H16.3478C16.4519 9.9693 16.5574 9.8348 16.6649 9.70168L21.5956 3.59697ZM2.19 39.7335C2.19 36.6135 3.69012 33.6465 6.20281 31.7969L9.855 29.1085V40.7791L2.19 46.7407V39.7335Z" fill="black"/>
<path d="M17.8017 19.6965C16.5608 20.9374 15.8774 22.5873 15.8774 24.3422C15.8774 26.0971 16.5608 27.747 17.8017 28.9879C19.0427 30.2288 20.6925 30.9122 22.4474 30.9122C24.2024 30.9122 25.8522 30.2288 27.0931 28.9879C28.3341 27.747 29.0174 26.0971 29.0174 24.3422C29.0174 22.5873 28.3341 20.9374 27.0931 19.6965C25.8522 18.4556 24.2024 17.7722 22.4474 17.7722C20.6925 17.7722 19.0426 18.4556 17.8017 19.6965ZM26.8274 24.3422C26.8274 26.7574 24.8626 28.7222 22.4474 28.7222C20.0323 28.7222 18.0674 26.7574 18.0674 24.3422C18.0674 21.9271 20.0323 19.9622 22.4474 19.9622C24.8626 19.9622 26.8274 21.9271 26.8274 24.3422Z" fill="black"/>
<path d="M14.235 56.6446V60.4771C14.235 61.0818 14.7252 61.5721 15.33 61.5721C15.9347 61.5721 16.425 61.0818 16.425 60.4771V56.6446C16.425 56.0398 15.9347 55.5496 15.33 55.5496C14.7252 55.5496 14.235 56.0398 14.235 56.6446Z" fill="black"/>
</svg>
