<svg width="60" height="60" viewBox="0 0 60 60" fill="none" xmlns="http://www.w3.org/2000/svg">
<path fill-rule="evenodd" clip-rule="evenodd" d="M18.183 2H48.0569C50.8726 2 53.2121 4.27434 53.2121 7.15517V45.8156C53.2121 48.1527 51.6444 50.1605 49.4641 50.7759V14.1844C49.4641 9.53254 45.6796 5.74795 41.0277 5.74795H13.2245C13.8338 3.60114 15.8004 2 18.183 2ZM35.8754 24.3527V35.6477L26.0937 41.2955L16.312 35.6477V24.3527L26.0937 18.7049L35.8754 24.3527ZM20.6279 30.9098L24.7286 37.0613C25.3486 38.0272 26.8386 38.0274 27.4587 37.0613L31.5594 30.9098C31.9268 30.3587 31.9268 29.6407 31.5594 29.0896L27.4587 22.9391C26.8386 21.9732 25.3487 21.973 24.7286 22.9391L20.6279 29.0896C20.2605 29.6407 20.2605 30.3587 20.6279 30.9098ZM41.0292 9.02926H11.1552C8.27467 9.02926 6 11.3688 6 14.1844V52.8449C6 55.7255 8.33953 58 11.1552 58H41.0292C43.9101 58 46.1843 55.6603 46.1843 52.8449V14.1844C46.1843 11.3036 43.8447 9.02926 41.0292 9.02926ZM13.0292 23.4057C13.0292 22.8196 13.3419 22.278 13.8495 21.9849L25.2719 15.3899C25.7796 15.0967 26.4049 15.0967 26.9126 15.3899L38.3349 21.9849C38.8426 22.2781 39.1553 22.8196 39.1553 23.4057V36.595C39.1553 37.1812 38.8426 37.7228 38.3349 38.0158L26.9126 44.6109C26.4049 44.904 25.7796 44.904 25.2719 44.6109L13.8495 38.0158C13.3419 37.7227 13.0292 37.1812 13.0292 36.595V23.4057ZM37.5145 50.9708H14.6698C12.4953 50.8901 12.497 47.7695 14.6698 47.6896H37.5145C39.689 47.7703 39.6874 50.891 37.5145 50.9708ZM26.0932 26.8075L28.2221 30.0005L26.0932 33.194L23.9644 30.0005L26.0932 26.8075Z" fill="url(#paint0_linear_353_9489)"/>
<defs>
<linearGradient id="paint0_linear_353_9489" x1="6" y1="4.8" x2="43.7307" y2="55.2293" gradientUnits="userSpaceOnUse">
<stop stop-color="#E6007A"/>
<stop offset="0.21" stop-color="#703AC2"/>
<stop offset="0.46" stop-color="#0070EB"/>
<stop offset="0.77" stop-color="#0297FB"/>
<stop offset="1" stop-color="#0AE2FF"/>
</linearGradient>
</defs>
</svg>
