<svg width="60" height="60" viewBox="0 0 60 60" fill="none" xmlns="http://www.w3.org/2000/svg">
<path fill-rule="evenodd" clip-rule="evenodd" d="M17.4193 14.1612C16.5771 14.1612 15.7538 14.4109 15.0536 14.8788C14.3534 15.3467 13.8076 16.0117 13.4853 16.7898C13.1631 17.5678 13.0787 18.424 13.243 19.25C13.4073 20.0759 13.8129 20.8347 14.4084 21.4302C15.0039 22.0257 15.7626 22.4312 16.5886 22.5955C17.4145 22.7598 18.2707 22.6755 19.0487 22.3532C19.8268 22.0309 20.4918 21.4851 20.9597 20.7849C21.4276 20.0847 21.6773 19.2614 21.6773 18.4193C21.6768 17.2901 21.228 16.2074 20.4296 15.409C19.6311 14.6105 18.5484 14.1618 17.4193 14.1612ZM13.4879 3.99396L14.1083 1.86978C14.1603 1.69187 14.2623 1.53262 14.4021 1.41097C14.5419 1.28933 14.7138 1.21039 14.8971 1.18355C16.5696 0.938815 18.2689 0.938815 19.9414 1.18355C20.1248 1.21039 20.2966 1.28933 20.4364 1.41097C20.5763 1.53262 20.6782 1.69187 20.7302 1.86978L21.3506 3.99396C22.57 4.32617 23.7424 4.81179 24.8396 5.43918L26.7804 4.37583C26.9429 4.28676 27.1276 4.24624 27.3125 4.25909C27.4974 4.27194 27.6748 4.33762 27.8234 4.44832C29.179 5.45797 30.3805 6.65949 31.3902 8.01511C31.5009 8.16377 31.5666 8.34109 31.5794 8.52599C31.5923 8.71089 31.5518 8.89559 31.4627 9.05814L30.3993 10.9989C31.0268 12.0961 31.5124 13.2685 31.8446 14.4879L33.9687 15.1083C34.1467 15.1603 34.3059 15.2623 34.4275 15.4021C34.5492 15.5419 34.6281 15.7138 34.655 15.8971C34.8997 17.5696 34.8997 19.2689 34.655 20.9414C34.6281 21.1248 34.5492 21.2966 34.4275 21.4364C34.3059 21.5763 34.1467 21.6782 33.9687 21.7302L31.8446 22.3506C31.5123 23.57 31.0267 24.7424 30.3993 25.8396L31.4627 27.7804C31.5518 27.9429 31.5923 28.1276 31.5794 28.3125C31.5666 28.4974 31.5009 28.6748 31.3902 28.8234C30.3805 30.179 29.179 31.3805 27.8234 32.3902C27.6748 32.5009 27.4974 32.5666 27.3125 32.5794C27.1276 32.5923 26.9429 32.5518 26.7804 32.4627L24.8396 31.3993C23.7424 32.0268 22.5701 32.5124 21.3506 32.8446L20.7302 34.9687C20.6782 35.1467 20.5763 35.3059 20.4364 35.4275C20.2966 35.5492 20.1248 35.6281 19.9414 35.655C18.2689 35.8997 16.5696 35.8997 14.8971 35.655C14.7138 35.6281 14.5419 35.5492 14.4021 35.4275C14.2623 35.3059 14.1603 35.1467 14.1083 34.9687L13.4879 32.8446C12.2685 32.5123 11.0961 32.0267 9.99893 31.3993L8.05814 32.4627C7.89559 32.5518 7.71089 32.5923 7.52599 32.5794C7.34109 32.5666 7.16377 32.5009 7.01511 32.3902C5.65949 31.3805 4.45797 30.179 3.44832 28.8234C3.33762 28.6748 3.27194 28.4974 3.25909 28.3125C3.24624 28.1276 3.28676 27.9429 3.37583 27.7804L4.43918 25.8396C3.81175 24.7424 3.32613 23.5701 2.99396 22.3506L0.869778 21.7302C0.691868 21.6782 0.532623 21.5763 0.410975 21.4364C0.289326 21.2966 0.210391 21.1248 0.183554 20.9414C-0.0611848 19.2689 -0.0611848 17.5696 0.183554 15.8971C0.210391 15.7138 0.289326 15.5419 0.410975 15.4021C0.532623 15.2623 0.691868 15.1603 0.869778 15.1083L2.99396 14.4879C3.32617 13.2685 3.81179 12.0961 4.43918 10.9989L3.37583 9.05814C3.28676 8.89559 3.24624 8.71089 3.25909 8.52599C3.27194 8.34109 3.33762 8.16377 3.44832 8.01511C4.45797 6.65949 5.65949 5.45797 7.01511 4.44832C7.16377 4.33762 7.34109 4.27194 7.52599 4.25909C7.71089 4.24624 7.89559 4.28676 8.05814 4.37583L9.99893 5.43918C11.0961 4.81175 12.2685 4.32613 13.4879 3.99396ZM33.629 44.2578C33.0452 44.2578 32.4746 44.4309 31.9892 44.7553C31.5038 45.0796 31.1255 45.5406 30.9021 46.0799C30.6787 46.6192 30.6202 47.2127 30.7341 47.7852C30.848 48.3578 31.1291 48.8837 31.5419 49.2965C31.9547 49.7093 32.4806 49.9904 33.0532 50.1043C33.6257 50.2182 34.2192 50.1597 34.7585 49.9363C35.2979 49.7129 35.7589 49.3346 36.0832 48.8492C36.4075 48.3639 36.5806 47.7932 36.5806 47.2094C36.5802 46.4267 36.2691 45.6762 35.7157 45.1227C35.1622 44.5693 34.4117 44.2582 33.629 44.2578ZM30.9493 38.2004L31.2639 37.1234C31.3158 36.9454 31.4178 36.7862 31.5576 36.6645C31.6974 36.5428 31.8693 36.4639 32.0527 36.437C33.098 36.2841 34.16 36.2841 35.2054 36.437C35.3888 36.4639 35.5606 36.5428 35.7004 36.6645C35.8403 36.7862 35.9422 36.9454 35.9942 37.1234L36.3087 38.2004C36.9314 38.3856 37.5332 38.6349 38.1045 38.9443L39.0886 38.405C39.2511 38.316 39.4358 38.2755 39.6207 38.2884C39.8056 38.3012 39.9829 38.3669 40.1315 38.4776C40.9789 39.1086 41.7299 39.8596 42.3608 40.7069C42.4715 40.8555 42.5372 41.0328 42.5501 41.2177C42.5629 41.4026 42.5224 41.5873 42.4334 41.7498L41.8942 42.7339C42.2036 43.3052 42.4529 43.907 42.6381 44.5298L43.7151 44.8443C43.893 44.8962 44.0523 44.9982 44.1739 45.138C44.2956 45.2778 44.3745 45.4497 44.4014 45.6331C44.5543 46.6784 44.5543 47.7404 44.4014 48.7858C44.3745 48.9692 44.2956 49.141 44.1739 49.2808C44.0523 49.4207 43.893 49.5226 43.7151 49.5746L42.6381 49.8891C42.4528 50.5118 42.2035 51.1136 41.8942 51.6849L42.4334 52.669C42.5224 52.8316 42.5629 53.0162 42.5501 53.2011C42.5372 53.386 42.4715 53.5633 42.3608 53.7119C41.7299 54.5593 40.9789 55.3103 40.1315 55.9412C39.9829 56.0519 39.8056 56.1176 39.6207 56.1305C39.4358 56.1433 39.2511 56.1028 39.0886 56.0138L38.1045 55.4746C37.5332 55.784 36.9314 56.0333 36.3087 56.2185L35.9942 57.2955C35.9422 57.4734 35.8403 57.6327 35.7004 57.7543C35.5606 57.876 35.3888 57.955 35.2054 57.9818C34.16 58.1347 33.098 58.1347 32.0527 57.9818C31.8693 57.955 31.6974 57.876 31.5576 57.7543C31.4178 57.6327 31.3158 57.4734 31.2639 57.2955L30.9493 56.2185C30.3266 56.0333 29.7248 55.784 29.1535 55.4746L28.1694 56.0138C28.0069 56.1028 27.8222 56.1433 27.6373 56.1305C27.4524 56.1176 27.2751 56.0519 27.1265 55.9412C26.2791 55.3103 25.5282 54.5593 24.8972 53.7119C24.7865 53.5633 24.7208 53.386 24.708 53.2011C24.6951 53.0162 24.7356 52.8316 24.8246 52.669L25.3638 51.6849C25.0544 51.1136 24.8051 50.5118 24.62 49.8891L23.543 49.5746C23.365 49.5226 23.2058 49.4207 23.0841 49.2808C22.9624 49.141 22.8835 48.9692 22.8566 48.7858C22.7037 47.7404 22.7037 46.6784 22.8566 45.6331C22.8835 45.4497 22.9624 45.2778 23.0841 45.138C23.2058 44.9982 23.365 44.8962 23.543 44.8443L24.62 44.5298C24.8052 43.907 25.0545 43.3052 25.3638 42.7339L24.8246 41.7498C24.7356 41.5873 24.6951 41.4026 24.708 41.2177C24.7208 41.0328 24.7865 40.8555 24.8972 40.7069C25.5282 39.8596 26.2791 39.1086 27.1265 38.4776C27.2751 38.3669 27.4524 38.3012 27.6373 38.2884C27.8222 38.2755 28.0069 38.316 28.1694 38.405L29.1535 38.9443C29.7248 38.6349 30.3266 38.3856 30.9493 38.2004ZM44.5159 23.2643C45.0888 22.8815 45.7624 22.6771 46.4514 22.6771C47.3753 22.6776 48.2612 23.0448 48.9144 23.698C49.5677 24.3513 49.9349 25.2371 49.9353 26.161C49.9353 26.85 49.731 27.5236 49.3482 28.0965C48.9653 28.6694 48.4212 29.116 47.7846 29.3797C47.1481 29.6433 46.4476 29.7123 45.7718 29.5779C45.096 29.4435 44.4752 29.1117 43.988 28.6245C43.5007 28.1372 43.1689 27.5165 43.0345 26.8407C42.9001 26.1649 42.9691 25.4644 43.2328 24.8278C43.4965 24.1912 43.943 23.6471 44.5159 23.2643ZM43.701 13.4415L43.2619 14.9449C42.396 15.1906 41.5617 15.5362 40.7757 15.9748L39.4022 15.2222C39.2397 15.1331 39.055 15.0926 38.8701 15.1055C38.6852 15.1183 38.5079 15.184 38.3592 15.2947C37.3048 16.08 36.3703 17.0145 35.5851 18.0689C35.4744 18.2175 35.4087 18.3948 35.3958 18.5797C35.3829 18.7646 35.4235 18.9493 35.5125 19.1119L36.2651 20.4854C35.8266 21.2713 35.481 22.1056 35.2354 22.9714L33.732 23.4106C33.5541 23.4625 33.3948 23.5645 33.2732 23.7043C33.1515 23.8442 33.0726 24.016 33.0457 24.1994C32.8554 25.5002 32.8554 26.8218 33.0457 28.1226C33.0726 28.306 33.1515 28.4778 33.2732 28.6176C33.3948 28.7575 33.5541 28.8594 33.732 28.9114L35.2354 29.3506C35.481 30.2164 35.8266 31.0507 36.2652 31.8367L35.5126 33.2102C35.4235 33.3727 35.383 33.5574 35.3959 33.7423C35.4088 33.9272 35.4745 34.1046 35.5852 34.2532C36.3704 35.3076 37.3049 36.2421 38.3593 37.0273C38.508 37.138 38.6853 37.2037 38.8702 37.2166C39.0551 37.2295 39.2398 37.189 39.4023 37.0999L40.7758 36.3473C41.5618 36.7858 42.3961 37.1314 43.2619 37.3771L43.701 38.8805C43.753 39.0584 43.8549 39.2176 43.9948 39.3393C44.1346 39.4609 44.3064 39.5398 44.4898 39.5667C45.7906 39.757 47.1122 39.757 48.413 39.5667C48.5964 39.5398 48.7683 39.4609 48.9081 39.3393C49.0479 39.2176 49.1499 39.0584 49.2018 38.8805L49.641 37.3771C50.5069 37.1314 51.3412 36.7858 52.1271 36.3472L53.5006 37.0998C53.6632 37.1889 53.8479 37.2294 54.0328 37.2165C54.2177 37.2036 54.395 37.138 54.5437 37.0272C55.598 36.242 56.5325 35.3075 57.3178 34.2531C57.4285 34.1045 57.4942 33.9272 57.5071 33.7423C57.5199 33.5574 57.4794 33.3726 57.3904 33.2101L56.6378 31.8366C57.0763 31.0506 57.4218 30.2164 57.6675 29.3506L59.1709 28.9114C59.3488 28.8594 59.5081 28.7575 59.6297 28.6176C59.7514 28.4778 59.8303 28.306 59.8571 28.1226C60.0475 26.8218 60.0475 25.5002 59.8571 24.1994C59.8303 24.016 59.7514 23.8442 59.6297 23.7043C59.5081 23.5645 59.3488 23.4625 59.1709 23.4106L57.6675 22.9714C57.4218 22.1056 57.0762 21.2712 56.6377 20.4853L57.3903 19.1118C57.4793 18.9492 57.5198 18.7645 57.507 18.5796C57.4941 18.3947 57.4284 18.2174 57.3177 18.0688C56.5324 17.0144 55.5979 16.0799 54.5436 15.2946C54.3949 15.1839 54.2176 15.1182 54.0327 15.1054C53.8478 15.0925 53.6631 15.133 53.5005 15.2221L52.127 15.9747C51.3411 15.5362 50.5068 15.1906 49.641 14.9449L49.2018 13.4415C49.1499 13.2636 49.0479 13.1044 48.9081 12.9827C48.7683 12.8611 48.5964 12.7821 48.413 12.7553C47.1122 12.5649 45.7906 12.5649 44.4898 12.7553C44.3064 12.7821 44.1346 12.8611 43.9948 12.9827C43.8549 13.1044 43.753 13.2636 43.701 13.4415Z" fill="url(#paint0_linear_353_9499)"/>
<defs>
<linearGradient id="paint0_linear_353_9499" x1="3.56941e-07" y1="3.85483" x2="35.389" y2="62.8116" gradientUnits="userSpaceOnUse">
<stop stop-color="#E6007A"/>
<stop offset="0.21" stop-color="#703AC2"/>
<stop offset="0.46" stop-color="#0070EB"/>
<stop offset="0.77" stop-color="#0297FB"/>
<stop offset="1" stop-color="#0AE2FF"/>
</linearGradient>
</defs>
</svg>
