<svg width="231" height="60" viewBox="0 0 231 60" fill="none" xmlns="http://www.w3.org/2000/svg">
<g clip-path="url(#clip0_2045_533)">
<path d="M66.8858 30.5974L67.3187 30.1667C68.2853 29.2047 68.5515 28.643 68.5515 27.1836V25.7588C68.5515 24.1338 68.3181 23.6709 67.3515 22.709L66.4189 21.7809C65.5535 20.9201 64.9198 20.72 63.5203 20.72H54.4267C53.6935 20.72 53.3945 21.019 53.3945 21.747V40.2407C53.3945 40.9704 53.6947 41.2677 54.4267 41.2677H64.1528C65.5523 41.2677 66.1854 41.0693 67.0514 40.2068L67.9834 39.2793C68.95 38.3173 69.1835 37.8539 69.1835 36.2295V34.6713C69.1835 33.0469 68.95 32.6501 67.9834 31.6882L66.8858 30.5974ZM57.1269 23.9032H62.8228C63.223 23.9032 63.4565 23.9694 63.6882 24.2022L64.5881 25.0969C64.8215 25.3292 64.8882 25.4948 64.8882 25.7599V27.5827C64.8882 27.8477 64.8215 28.0139 64.5881 28.2456L63.7555 29.0748C63.522 29.3065 63.2886 29.3738 62.8895 29.3738H57.1269V23.9032ZM65.4879 36.2324C65.4879 36.4969 65.4207 36.6625 65.1872 36.8948L64.2879 37.7901C64.0545 38.0224 63.821 38.0891 63.4208 38.0891H57.1257V32.4529H63.4875C63.8877 32.4529 64.1212 32.5196 64.3535 32.7519L65.1861 33.5805C65.4195 33.8128 65.4868 33.9784 65.4868 34.2435V36.2324H65.4879ZM96.6667 32.354C96.6667 32.6852 96.5655 32.9175 96.366 33.182L92.6021 38.1868L88.8381 33.1826C88.6386 32.9181 88.538 32.6852 88.538 32.354V20.7195H84.8079V32.3534C84.8079 32.6846 84.7079 32.9169 84.5072 33.1814L80.7433 38.1862L76.9793 33.182C76.7798 32.9175 76.6792 32.6846 76.6792 32.3534V20.7195H72.9491V32.1873C72.9491 33.6788 73.2154 34.209 73.9485 35.1704L77.8792 40.3408C78.4116 41.0365 79.0453 41.4678 80.3109 41.4678H81.1774C82.443 41.4678 83.0766 41.0377 83.6091 40.3408L86.6744 36.3307L89.7391 40.3408C90.2716 41.0365 90.9052 41.4678 92.1708 41.4678H93.0373C94.3029 41.4678 94.9366 41.0377 95.469 40.3408L99.3997 35.1704C100.133 34.2101 100.399 33.6788 100.399 32.1873V20.72H96.669V32.354H96.6667ZM117.02 22.3444C116.12 20.9196 115.687 20.5217 113.755 20.5217H111.957C110.026 20.5217 109.593 20.9196 108.693 22.3444L105.429 27.5815C104.563 28.9397 104.429 30.0005 104.429 31.5588V41.27H108.126V36.0001H117.586V41.27H121.284V31.5582C121.284 30.0005 121.15 28.9408 120.284 27.5815L117.02 22.3444ZM117.585 32.7519H108.125V31.4927C108.125 30.4979 108.292 29.9344 108.724 29.2387L111.755 24.2666C111.922 24.0021 112.022 23.9676 112.322 23.9676H113.388C113.688 23.9676 113.788 24.0021 113.955 24.2666L116.986 29.2387C117.418 29.9344 117.585 30.4979 117.585 31.4927V32.7519ZM139.537 33.5477L140.47 32.6202C141.436 31.66 141.669 31.1948 141.669 29.5704V25.7582C141.669 24.1338 141.435 23.6709 140.47 22.709L139.537 21.7809C138.672 20.9201 137.939 20.72 136.439 20.72H126.679C125.946 20.72 125.647 21.019 125.647 21.747V41.27H129.378V34.6074H135.208L137.906 41.2694H141.869L138.871 34.1106C139.109 33.9428 139.332 33.7544 139.537 33.5477ZM137.971 29.5037C137.971 29.7682 137.905 29.935 137.671 30.1667L136.771 31.062C136.538 31.2943 136.304 31.361 135.906 31.361H129.377V23.9694H135.873C136.34 23.9694 136.572 24.0688 136.872 24.3678L137.573 25.0636C137.873 25.362 137.972 25.5604 137.972 25.9583V29.5037H137.971ZM149.963 32.5863H158.459V29.3376H149.963V23.9682H160.189V20.72H147.264C146.531 20.72 146.232 21.019 146.232 21.747V40.2407C146.232 40.9704 146.533 41.2677 147.264 41.2677H160.422V38.0201H149.962V32.5863H149.963ZM165.92 20.72H164.82V40.7392C164.82 41.1032 164.954 41.2694 165.353 41.2694H176.245V40.3091H165.92V20.7195V20.72ZM189.936 21.847C189.303 20.72 188.67 20.5217 187.505 20.5217H186.139C184.974 20.5217 184.341 20.72 183.707 21.847L180.344 27.846C179.61 29.172 179.478 29.801 179.478 31.4582V41.2688H180.544V35.0715H193.102V41.2688H194.168V31.4582C194.168 29.801 194.034 29.1708 193.301 27.846L189.936 21.847ZM193.101 34.0773H180.543V31.4593C180.543 30.0672 180.709 29.2726 181.276 28.2778L184.573 22.4111C185.006 21.6487 185.339 21.5158 186.239 21.5158H187.405C188.304 21.5158 188.637 21.6487 189.07 22.4111L192.367 28.2778C192.934 29.2726 193.101 30.0672 193.101 31.4593V34.0773ZM210.555 31.2937C210.289 31.0292 210.123 30.8636 209.889 30.7647C210.056 30.6652 210.256 30.4996 210.423 30.3335L211.057 29.7033C211.823 28.9414 211.956 28.5107 211.956 27.3831V24.8974C211.956 23.7704 211.823 23.3392 211.057 22.5773L210.09 21.6153C209.357 20.8862 208.825 20.72 207.524 20.72H199.365C198.964 20.72 198.83 20.8862 198.83 21.2502V40.7392C198.83 41.1032 198.964 41.2694 199.365 41.2694H208.091C209.39 41.2694 209.923 41.1032 210.656 40.3741L211.623 39.4121C212.389 38.6503 212.523 38.2196 212.523 37.092V34.6724C212.523 33.5454 212.389 33.1142 211.623 32.3523L210.555 31.2943V31.2937ZM199.93 21.6492H207.458C208.39 21.6492 208.79 21.7826 209.256 22.2455L210.156 23.1408C210.755 23.7371 210.855 23.9354 210.855 24.8646V27.4498C210.855 28.3779 210.755 28.5768 210.156 29.1737L209.623 29.7033C209.056 30.2668 208.79 30.3001 208.124 30.3001H199.93V21.6492ZM211.421 37.1271C211.421 38.0551 211.321 38.2547 210.722 38.8509L209.822 39.7462C209.355 40.2108 208.957 40.3425 208.024 40.3425H199.93V31.1948H208.157C208.957 31.1948 209.223 31.3932 209.855 32.0234L210.722 32.8847C211.321 33.481 211.421 33.6811 211.421 34.6086V37.1271ZM229.343 31.6583C228.744 31.0948 227.944 30.8619 226.578 30.7302L220.45 30.2006C219.317 30.1012 218.717 29.9356 218.351 29.5699C217.951 29.172 217.752 28.509 217.752 27.4159V24.9296C217.752 24.0021 217.851 23.8026 218.452 23.2058L219.518 22.1449C219.985 21.6803 220.384 21.5486 221.318 21.5486H224.582C225.615 21.5486 226.148 21.6153 227.147 22.1449L229.012 23.1051L229.512 22.3105L227.913 21.3491C226.815 20.6861 226.215 20.5205 224.816 20.5205H221.251C219.951 20.5205 219.419 20.6861 218.686 21.4152L217.554 22.5428C216.788 23.3052 216.654 23.7359 216.654 24.8629V27.3814C216.654 28.839 216.888 29.7343 217.487 30.2984C218.086 30.8619 218.886 31.0942 220.251 31.2259L226.38 31.756C227.513 31.8549 228.113 32.0205 228.479 32.3862C228.879 32.7841 229.078 33.4471 229.078 34.5407V37.0592C229.078 37.9873 228.978 38.1862 228.379 38.7831L227.312 39.844C226.846 40.3086 226.446 40.4402 225.513 40.4402H221.45C220.417 40.4402 219.884 40.3735 218.885 39.844L217.02 38.8837L216.52 39.6784L218.119 40.6398C219.218 41.3027 219.817 41.4683 221.217 41.4683H225.582C226.88 41.4683 227.414 41.3027 228.147 40.5736L229.278 39.4461C230.045 38.6836 230.178 38.2529 230.178 37.1259V34.5729C230.174 33.117 229.943 32.2218 229.343 31.6577V31.6583Z" fill="white"/>
<path d="M24.2541 1.35461L23.4008 0.66748L22.5481 1.35461L22.5147 1.38106L0.250732 19.3107V40.4316L23.4008 59.0766L46.5503 40.4316V19.3107L24.2857 1.38106L24.2535 1.35461H24.2541ZM24.2863 3.70406L43.6661 19.3107L31.9953 28.7108L33.4374 29.8723L44.777 20.7396L44.7989 39.2373L43.815 40.3195L24.2863 56.0406V37.2432L31.9971 31.0338L30.5544 29.8723L23.4002 35.635L16.2725 29.8947L14.8304 31.0562L22.5124 37.2432V56.0423L3.13493 40.4322L2.02403 39.1367V20.7396L13.4044 29.885L14.8465 28.7235L3.13436 19.3107L22.5147 3.70291" fill="#FDB913"/>
<path d="M24.299 2.00562H22.5286V22.5389L0.287598 40.4524L23.4141 59.0778L46.5406 40.4524L24.2996 22.5389V2.00562H24.299ZM23.4135 56.7583L3.16835 40.4524L23.4141 24.146L43.6604 40.4524L23.4147 56.7583H23.4135Z" fill="url(#paint0_radial_2045_533)"/>
</g>
<defs>
<radialGradient id="paint0_radial_2045_533" cx="0" cy="0" r="1" gradientUnits="userSpaceOnUse" gradientTransform="translate(23.4141 24.9648) scale(25.4674 25.4674)">
<stop stop-color="#FAFBFB" stop-opacity="0"/>
<stop offset="0.169" stop-color="#FBE6B0" stop-opacity="0.262"/>
<stop offset="0.337" stop-color="#FCD36D" stop-opacity="0.524"/>
<stop offset="0.477" stop-color="#FCC53C" stop-opacity="0.742"/>
<stop offset="0.584" stop-color="#FDBC1E" stop-opacity="0.907"/>
<stop offset="0.644" stop-color="#FDB913"/>
</radialGradient>
<clipPath id="clip0_2045_533">
<rect width="230" height="60" fill="white" transform="translate(0.1875)"/>
</clipPath>
</defs>
</svg>
