<svg width="192" height="48" viewBox="0 0 192 48" fill="none" xmlns="http://www.w3.org/2000/svg">
<path d="M47.9995 23.993C48.0128 27.6479 47.1889 31.2572 45.5908 34.5439C43.9929 37.8305 41.6635 40.7071 38.7814 42.9527C35.8992 45.1983 32.5411 46.7531 28.9649 47.498C25.3887 48.2429 21.6894 48.1578 18.1511 47.2493V20.532L26.6421 30.6215C27.2195 31.3082 27.994 31.8006 28.8605 32.032C29.7272 32.2635 30.6438 32.2225 31.4864 31.915C32.329 31.6074 33.0566 31.048 33.5707 30.3126C34.0847 29.5772 34.3603 28.7014 34.3601 27.8041V2.36375C38.4414 4.31414 41.8881 7.38017 44.3016 11.2075C46.7152 15.0349 47.9973 19.4675 47.9995 23.993ZM21.3703 17.3678L29.8613 27.4572V0.736636C24.0944 -0.727463 17.9895 0.00691174 12.7338 2.79693C7.47819 5.58694 3.4476 10.2331 1.42599 15.8318C-0.595616 21.4305 -0.463696 27.5814 1.7961 33.0881C4.05589 38.5948 8.28199 43.0637 13.6524 45.6256V20.1853C13.6521 19.2879 13.9277 18.4121 14.4418 17.6767C14.9558 16.9413 15.6834 16.3819 16.5259 16.0743C17.3686 15.7667 18.2852 15.7259 19.1519 15.9574C20.0184 16.1887 20.7929 16.6811 21.3703 17.3678Z" fill="url(#paint0_linear_2045_544)"/>
<path d="M66.2589 31.8889C61.5935 31.8889 58.0645 28.5865 58.0645 23.3612C58.0645 18.1361 61.7301 14.897 66.3954 14.897C71.0608 14.897 74.7098 18.1693 74.7098 23.3612C74.7098 28.5531 70.9408 31.8889 66.2589 31.8889ZM66.2589 29.4862C69.1113 29.4862 71.9039 27.5368 71.9039 23.3612C71.9039 19.1858 69.1713 17.2697 66.3489 17.2697C63.4663 17.2697 60.8537 19.219 60.8537 23.3612C60.8537 27.5034 63.4063 29.4862 66.2589 29.4862Z" fill="white"/>
<path d="M90.0953 22.3106C90.0953 18.9483 88.2658 17.2387 85.5032 17.2387C82.7407 17.2387 80.7912 18.9782 80.7912 22.5205V31.6181H78.0586V15.166H80.7912V17.4986C81.8709 15.7857 83.8537 14.856 86.0731 14.856C89.8854 14.856 92.7978 17.1887 92.7978 21.9107V31.608H90.0953V22.3106Z" fill="white"/>
<path d="M97.5389 17.4192H95.4062V15.1666H97.5389V13.9969C97.5389 10.3312 99.3384 8.66504 103.537 8.66504V10.9477C101.078 10.9477 100.265 11.8475 100.265 13.9802V15.1499H103.721V17.4027H100.268V31.602H97.5389V17.4192Z" fill="white"/>
<path d="M106.213 10.6342C106.219 10.2742 106.331 9.92386 106.535 9.62702C106.739 9.33017 107.025 9.09993 107.359 8.96503C107.693 8.83014 108.059 8.79656 108.412 8.86849C108.765 8.94043 109.089 9.1147 109.343 9.36953C109.597 9.62436 109.771 9.94848 109.842 10.3014C109.914 10.6543 109.879 11.0205 109.744 11.3541C109.608 11.6877 109.378 11.974 109.08 12.1772C108.783 12.3805 108.433 12.4917 108.073 12.497C107.827 12.5011 107.583 12.4556 107.356 12.3634C107.128 12.2712 106.921 12.1341 106.748 11.9602C106.574 11.7864 106.437 11.5794 106.346 11.3516C106.254 11.1237 106.209 10.8798 106.213 10.6342ZM106.663 15.1663H109.392V31.6184H106.653L106.663 15.1663Z" fill="white"/>
<path d="M125.841 22.3106C125.841 18.9483 124.011 17.2387 121.249 17.2387C118.487 17.2387 116.537 18.9782 116.537 22.5205V31.6181H113.804V15.166H116.537V17.4986C117.617 15.7857 119.596 14.856 121.819 14.856C125.631 14.856 128.543 17.1887 128.543 21.9107V31.608H125.841V22.3106Z" fill="white"/>
<path d="M139.553 14.897C142.615 14.897 144.714 16.4598 145.677 18.1693V15.1701H148.44V31.6222H145.677V28.5598C144.678 30.3294 142.555 31.8922 139.523 31.8922C135.141 31.8922 131.748 28.4399 131.748 23.3346C131.748 18.2293 135.141 14.897 139.553 14.897ZM140.095 17.2697C137.096 17.2697 134.541 19.4591 134.541 23.3312C134.541 27.2035 137.09 29.4862 140.095 29.4862C143.102 29.4862 145.677 27.2335 145.677 23.3612C145.677 19.549 143.094 17.2697 140.095 17.2697Z" fill="white"/>
<path d="M152.821 9.40332H155.55V31.6172H152.821V9.40332Z" fill="white"/>
<path d="M159.508 10.6341C159.514 10.2742 159.626 9.92409 159.83 9.62733C160.032 9.33055 160.319 9.10032 160.653 8.96533C160.987 8.83034 161.353 8.79658 161.706 8.86825C162.059 8.93993 162.383 9.11386 162.637 9.36837C162.891 9.62286 163.065 9.94668 163.137 10.2994C163.208 10.6521 163.174 11.0181 163.04 11.3518C162.904 11.6854 162.674 11.9719 162.378 12.1756C162.08 12.3793 161.731 12.491 161.371 12.497C161.125 12.501 160.881 12.4556 160.653 12.3634C160.425 12.2712 160.218 12.1342 160.044 11.9604C159.87 11.7866 159.734 11.5796 159.641 11.3518C159.549 11.1239 159.503 10.8799 159.508 10.6341ZM159.958 15.1662H162.691V31.6183H159.964L159.958 15.1662Z" fill="white"/>
<path d="M167.706 17.4179H165.573V15.1652H167.706V11.0229H170.438V15.1652H174.731V17.4179H170.438V27.1118C170.438 28.7347 171.038 29.3045 172.718 29.3045H174.718V31.6173H172.255C169.342 31.6173 167.692 30.4142 167.692 27.1118L167.706 17.4179Z" fill="white"/>
<path d="M189.139 15.1655H191.962L182.055 39.3621H179.233L182.475 31.4377L175.84 15.1655H178.873L184.037 28.4951L189.139 15.1655Z" fill="white"/>
<defs>
<linearGradient id="paint0_linear_2045_544" x1="10.2567" y1="43.6383" x2="37.7761" y2="4.36524" gradientUnits="userSpaceOnUse">
<stop stop-color="#031FEF"/>
<stop offset="0.13" stop-color="#0326EE"/>
<stop offset="0.24" stop-color="#032CED"/>
<stop offset="0.74108" stop-color="#0DE5C8"/>
<stop offset="0.876097" stop-color="#0CFACA"/>
<stop offset="0.97" stop-color="#0CFACA"/>
</linearGradient>
</defs>
</svg>
