<svg width="167" height="23" viewBox="0 0 167 23" fill="none" xmlns="http://www.w3.org/2000/svg">
<g clip-path="url(#clip0_360_90)">
<path fill-rule="evenodd" clip-rule="evenodd" d="M0 22.3288H57.7852V0H0V22.3288ZM37.8962 3.91779H53.8176V6.05481H47.1791V18.386H44.7198V6.05481H37.8962V3.91779ZM26.1174 3.91779H28.5948V16.2484H39.153V18.386H26.1174V3.91779ZM12.6739 3.91779H14.4678L23.0662 18.386H20.2926L13.5807 6.73325L6.75712 18.386H4.02023L12.6739 3.91779Z" fill="#07233B"/>
<path fill-rule="evenodd" clip-rule="evenodd" d="M75.5578 7.39159C75.5578 6.50121 75.0148 6.05601 73.9303 6.05601H65.332C64.247 6.05601 63.705 6.50121 63.705 7.39159V14.9135C63.705 15.8039 64.247 16.2491 65.332 16.2491H73.9303C75.0148 16.2491 75.5578 15.8039 75.5578 14.9135V7.39159ZM65.332 18.3866C64.5922 18.3866 63.9635 18.3014 63.446 18.13C62.928 17.9585 62.5057 17.7189 62.1792 17.4105C61.8526 17.1022 61.6154 16.7358 61.4676 16.3109C61.3197 15.8864 61.2452 15.4136 61.2452 14.8927V7.41236C61.2452 6.89155 61.3197 6.41866 61.4676 5.99424C61.6154 5.56982 61.8526 5.20291 62.1792 4.89458C62.5057 4.58624 62.928 4.34661 63.446 4.17513C63.9635 4.00419 64.5922 3.91846 65.332 3.91846H73.9303C74.6701 3.91846 75.2988 4.00419 75.8168 4.17513C76.3343 4.34661 76.7566 4.58624 77.0836 4.89458C77.4097 5.20291 77.6469 5.56982 77.7953 5.99424C77.9431 6.41866 78.0176 6.89155 78.0176 7.41236V14.8927C78.0176 15.4136 77.9431 15.8864 77.7953 16.3109C77.6469 16.7358 77.4097 17.1022 77.0836 17.4105C76.7566 17.7189 76.3343 17.9585 75.8168 18.13C75.2988 18.3014 74.6701 18.3866 73.9303 18.3866H65.332Z" fill="#07233B"/>
<path fill-rule="evenodd" clip-rule="evenodd" d="M98.2094 18.3866L84.3228 7.12479V18.3866H82.1774V3.91846H84.3037L97.2669 14.667V3.91846H99.4119V18.3866H98.2094Z" fill="#07233B"/>
<path fill-rule="evenodd" clip-rule="evenodd" d="M117.884 7.39159C117.884 6.50121 117.341 6.05601 116.256 6.05601H107.658C106.573 6.05601 106.031 6.50121 106.031 7.39159V14.9135C106.031 15.8039 106.573 16.2491 107.658 16.2491H116.256C117.341 16.2491 117.884 15.8039 117.884 14.9135V7.39159ZM107.658 18.3866C106.918 18.3866 106.29 18.3014 105.772 18.13C105.254 17.9585 104.832 17.7189 104.505 17.4105C104.178 17.1022 103.941 16.7358 103.793 16.3109C103.645 15.8864 103.572 15.4136 103.572 14.8927V7.41236C103.572 6.89155 103.645 6.41866 103.793 5.99424C103.941 5.56982 104.178 5.20291 104.505 4.89458C104.832 4.58624 105.254 4.34661 105.772 4.17513C106.29 4.00419 106.918 3.91846 107.658 3.91846H116.256C116.996 3.91846 117.625 4.00419 118.143 4.17513C118.661 4.34661 119.082 4.58624 119.409 4.89458C119.735 5.20291 119.973 5.56982 120.121 5.99424C120.269 6.41866 120.343 6.89155 120.343 7.41236V14.8927C120.343 15.4136 120.269 15.8864 120.121 16.3109C119.973 16.7358 119.735 17.1022 119.409 17.4105C119.082 17.7189 118.661 17.9585 118.143 18.13C117.625 18.3014 116.996 18.3866 116.256 18.3866H107.658Z" fill="#07233B"/>
<path fill-rule="evenodd" clip-rule="evenodd" d="M142.052 18.3866V8.25481L135.432 18.3866H133.417L126.778 8.27558V18.3866H124.504V3.91846H126.796L134.526 15.7352L142.218 3.91846H144.326V18.3866H142.052Z" fill="#07233B"/>
<path fill-rule="evenodd" clip-rule="evenodd" d="M155.735 18.3866V12.5086L147.377 3.91846H150.52L156.956 10.5362L163.391 3.91846H166.497L158.194 12.5086V18.3866H155.735Z" fill="#07233B"/>
</g>
<defs>
<clipPath id="clip0_360_90">
<rect width="167" height="22.3661" fill="white"/>
</clipPath>
</defs>
</svg>
