<svg width="600" height="181" viewBox="0 0 600 181" fill="none" xmlns="http://www.w3.org/2000/svg">
<path d="M420.998 180.4H361.398V120.3L420.998 180.4Z" fill="#006DAC"/>
<path d="M361.398 120.3H420.998V180.4L361.398 120.3Z" fill="#0075B3"/>
<path d="M480.7 180.4H421V120.3L480.7 180.4Z" fill="#0079B6"/>
<path d="M421 120.3H480.7V180.4L421 120.3Z" fill="#007FBC"/>
<path d="M540.299 180.4H480.699V120.3L540.299 180.4Z" fill="#0087C1"/>
<path d="M480.699 120.3H540.299V180.4L480.699 120.3Z" fill="#0090C8"/>
<path d="M599.999 180.4H540.299V120.3L599.999 180.4Z" fill="#00A3D5"/>
<path d="M540.299 120.3H599.999V180.4L540.299 120.3Z" fill="#00ABD3"/>
<path d="M380.199 148.4V148.3C380.199 137.3 388.499 128.2 400.399 128.2C407.699 128.2 412.099 130.6 415.699 134.2L410.299 140.5C407.299 137.8 404.299 136.1 400.399 136.1C393.899 136.1 389.099 141.5 389.099 148.2V148.3C389.099 155 393.699 160.5 400.399 160.5C404.799 160.5 407.599 158.7 410.599 156L415.999 161.5C411.999 165.8 407.599 168.4 400.099 168.4C388.599 168.4 380.199 159.6 380.199 148.4ZM421.199 159.2C421.199 165.1 425.799 168.3 431.399 168.3C435.499 168.3 438.299 166.8 440.399 164.5V167.7H448.499V150.5C448.499 146.5 447.499 143.2 445.299 141C443.199 138.9 439.899 137.7 435.299 137.7C430.299 137.7 426.999 138.6 423.799 140.1L425.899 146.5C428.599 145.5 430.899 144.9 434.099 144.9C438.299 144.9 440.499 146.8 440.499 150.3V150.8C438.399 150.1 436.199 149.6 433.199 149.6C426.199 149.6 421.199 152.6 421.199 159.1V159.2ZM440.599 157.2C440.599 160.2 437.899 162.4 433.999 162.4C431.299 162.4 429.399 161.1 429.399 158.8V158.7C429.399 156 431.599 154.6 435.199 154.6C437.299 154.6 439.099 155 440.599 155.7V157.2M456.999 176.6H465.399V163.8C467.399 166.2 470.199 168.2 474.699 168.2C481.699 168.2 488.199 162.8 488.199 152.8V152.7C488.199 142.8 481.599 137.3 474.699 137.3C470.299 137.3 467.499 139.4 465.399 142.1V137.8H456.999V176.6ZM479.699 152.9C479.699 157.9 476.399 161.1 472.399 161.1C468.499 161.1 465.199 157.8 465.199 152.9V152.8C465.199 147.9 468.499 144.6 472.399 144.6C476.299 144.6 479.699 147.9 479.699 152.8V152.9ZM495.699 134.7H504.599V127.2H495.699V134.7ZM495.899 167.7H504.299V138H495.899V167.7ZM514.699 159.3C514.699 166.2 518.199 168.2 523.299 168.2C526.099 168.2 528.199 167.5 529.999 166.5V159.7C528.799 160.4 527.399 160.8 525.799 160.8C523.899 160.8 523.099 159.9 523.099 157.9V145.2H530.099V138H523.099V130.4H514.699V138H511.199V145.2H514.699V159.3ZM535.699 159.2C535.699 165.1 540.299 168.3 545.899 168.3C549.999 168.3 552.799 166.8 554.899 164.5V167.7H562.999V150.5C562.999 146.5 561.999 143.2 559.799 141C557.699 138.9 554.399 137.7 549.799 137.7C544.799 137.7 541.499 138.6 538.299 140.1L540.399 146.5C543.099 145.5 545.399 144.9 548.599 144.9C552.799 144.9 554.999 146.8 554.999 150.3V150.8C552.899 150.1 550.699 149.6 547.699 149.6C540.699 149.6 535.699 152.6 535.699 159.1V159.2M554.999 157.2C554.999 160.2 552.299 162.4 548.399 162.4C545.699 162.4 543.799 161.1 543.799 158.8V158.7C543.799 156 545.999 154.6 549.599 154.6C551.699 154.6 553.499 155 554.999 155.7V157.2M571.799 167.7H580.199V127.2H571.799V167.7Z" fill="white"/>
<path d="M0 1.39999H20.8V38.8H59.2V1.39999H80V96H59.2V58H20.8V96H0V1.39999ZM277.9 96H298.7V58H337.1V96H357.9V1.39999H337.1V38.8H298.7V1.39999H277.9V96ZM89.2 96H110.4L119 74.8H159L167.6 96H189.4L148.8 0.699997H129.6L89.2 96ZM126.5 56.4L139.1 25.7L151.7 56.4H126.5ZM190.9 82.2C202.3 92.3 216.7 97.3 231 97.3C251.4 97.3 265.7 86.8 265.7 68V67.7C265.7 51.2 254.9 44.3 235.7 39.3C219.3 35.1 215.3 33.1 215.3 26.9V26.6C215.3 22 219.5 18.4 227.5 18.4C235.5 18.4 243.7 21.9 252.1 27.7L262.9 12C253.3 4.3 241.5 0 227.7 0C208.4 0 194.6 11.4 194.6 28.5V28.8C194.6 47.6 206.9 52.9 226 57.7C241.8 61.8 245.1 64.5 245.1 69.7V70C245.1 75.5 240 78.9 231.4 78.9C220.6 78.9 211.7 74.4 203.2 67.4L190.9 82.2ZM429.9 96H502V77.5H450.6V57.6H495.2V39.1H450.6V19.9H501.3V1.39999H429.9V96V96ZM541.7 96H562.5V58.3L598.9 1.39999H575.2L552.2 39.4L529.6 1.39999H505.3L541.7 58.7V96V96Z" fill="#004065"/>
<path d="M392.7 66.9L378.2 52.4L363.6 66.9H392.7Z" fill="#0079B6"/>
<path d="M363.6 66.9L378.2 81.5L392.7 66.9H363.6Z" fill="#007FBC"/>
<path d="M407.199 81.5L392.699 66.9L378.199 81.5H407.199Z" fill="#0087C1"/>
<path d="M378.199 81.5L392.699 96L407.199 81.5H378.199Z" fill="#0090C8"/>
<path d="M421.699 96L407.199 81.5L392.699 96H421.699Z" fill="#00A1D4"/>
<path d="M392.699 30.8L377.999 45.5001L363.299 30.8H392.699Z" fill="#004065"/>
<path d="M363.299 30.8L377.999 16.1L392.699 30.8H363.299Z" fill="#004065"/>
<path d="M407.4 16.1L392.7 30.8L378 16.1H407.4Z" fill="#004065"/>
<path d="M378 16.1L392.7 1.40002L407.4 16.1H378Z" fill="#004065"/>
<path d="M422.099 1.40002L407.399 16.1L392.699 1.40002H422.099Z" fill="#004065"/>
</svg>
