<svg width="1225" height="787" viewBox="0 0 1225 787" fill="none" xmlns="http://www.w3.org/2000/svg">
<path opacity="0.5" d="M551.038 323.223C577.516 272.89 627.958 284.286 666.23 307.252C701.732 328.558 862.691 367.123 902.399 309.626C940.924 253.844 907.804 232.989 886.607 257.236C870.099 276.121 888.629 277.869 888.629 277.869C888.629 277.869 864.354 269.105 885.055 241.401C885.055 241.401 882.122 212.188 904.852 209.423C931.508 206.181 946.058 236.069 933.248 276.726C920.438 317.384 884.77 358.829 826.44 370.035C768.11 381.241 700.411 367.688 650.088 325.465C620.216 300.401 575.239 299.888 551.095 323.145L551.035 323.221L551.038 323.223Z" fill="url(#paint0_linear_288_559)" stroke="#220E6E"/>
<path d="M551.098 323.148C538.312 335.461 531.371 354.439 535.604 379.966C547.836 453.697 663.744 527.448 742.134 457.268C815.92 391.213 750.858 333.681 750.858 333.681C750.858 333.681 794.519 212.324 686.99 154.873C686.99 154.873 528.788 -90.1086 307.521 38.1565C307.521 38.1565 145.225 66.1697 117.092 235.584C88.9595 404.997 174.339 574.27 387.111 680.673C599.882 787.079 912.737 769.464 1102.8 423.221L1076.52 400.604C1076.52 400.604 897.444 564.323 708.388 557.176C525.149 550.246 390.646 454.107 342.19 325.223C306.042 229.074 334.446 132.393 415.072 119.683C453.239 113.668 569.231 126.524 659.967 233.421C750.701 340.318 756.345 437.466 682.426 462.635C608.508 487.802 523.003 395.305 545.483 335.719C547.201 331.163 549.033 327.044 551.041 323.224L551.1 323.148H551.098Z" fill="url(#paint1_linear_288_559)" stroke="#220E6E"/>
<path d="M1020.86 467.919C1020.86 467.919 836.634 633.854 560.741 554.56C271.232 471.354 293.561 236.425 293.561 236.425C293.561 236.425 267.225 286.997 301.766 373.831C336.308 460.666 237.643 411.618 230.583 369.634C223.523 327.649 196.231 357.038 219.515 386.047C242.799 415.056 283.828 456.851 348.144 467.919C412.457 478.987 427.725 559.333 523.147 597.882C590.743 625.19 715.09 621.958 778.494 603.418C851.588 582.044 920.671 554.563 1020.86 467.919Z" fill="url(#paint2_linear_288_559)" stroke="#220E6E"/>
<path d="M901.617 579.658C901.617 579.658 732.703 703.661 495.576 644.129C495.576 644.129 382.883 606.13 341.05 540.585C341.05 540.585 340.909 644.823 427.839 662.604C427.839 662.604 497.771 713.687 568.992 686.914C568.992 686.914 664.944 716.218 728.467 665.166C728.467 665.166 829.083 638.664 901.617 579.661V579.658Z" fill="url(#paint3_linear_288_559)" stroke="#220E6E"/>
<path d="M508.937 115.418C508.937 115.418 636.193 157.326 687.682 246.605C739.174 335.887 738.23 360.894 739.977 387.981C739.977 387.981 749.729 319.769 707.756 251.023C707.756 251.023 714.279 184.745 659.948 168.964C659.948 168.964 636.578 87.6624 572.756 101.539C572.756 101.539 530.077 86.8076 508.934 115.418H508.937Z" fill="url(#paint4_linear_288_559)" stroke="#220E6E"/>
<path d="M1021.86 532.31C1021.62 532.334 1017.99 512.708 1007.54 505.447C997.078 498.186 1002.45 488.402 991.206 478.05C991.206 478.05 969.377 449.244 953.666 462.966C953.666 462.966 934.979 467.5 953.956 486.996C954.765 486.288 955.701 485.742 956.664 485.249C954.841 480.02 953.503 473.931 957.793 475.233C965.076 477.445 1011.99 497.917 1021.75 543.53C1022.85 548.677 1020.39 549.195 1017.6 548.387C1017.36 548.989 1017.04 549.57 1016.68 550.115C1021.73 554.006 1029.33 557.686 1034.33 550.093C1042.39 537.851 1022.11 532.285 1021.87 532.31H1021.86Z" fill="#D699F9" stroke="#220E6E"/>
<path d="M869.143 611.27C860.132 588.77 863.402 551.16 862.365 542.086C861.329 533.013 854.903 499.163 845.363 513.563C845.363 513.563 826.725 489.547 824.201 513.563C823.021 524.791 824.405 534.532 826.158 541.617C827.894 541.088 829.666 540.61 831.343 539.918C832.96 528.061 837.239 517.061 848.535 545.953C863.364 583.886 872.47 654.299 864.395 683.653C860.026 699.534 854.062 693.391 849.509 684.407C848.09 685.169 846.736 685.962 845.36 686.811C847.539 696.945 851.542 708.445 858.808 714.043C862.753 717.082 868.408 716.493 871.613 712.681C874.681 709.028 877.498 702.568 876.399 691.353C874.215 669.073 876.312 682.925 881.389 680.358C886.466 677.789 878.155 633.764 869.143 611.267V611.27Z" fill="#47DCFF" stroke="#220E6E"/>
<path d="M694.341 609.618C682.573 596.194 679.61 594.007 678.139 573.386C676.668 552.764 667.098 537.474 658.065 538.358C643.763 539.758 655.957 543.516 668.124 596.097C668.124 596.097 691.388 705.65 629.976 741.907C627.941 743.109 625.306 742.422 624.104 740.387C623.743 739.774 623.399 739.063 623.108 738.246C622.56 738.219 622.01 738.195 621.461 738.195C620.995 749.512 625.515 760.814 653.607 738.485C653.607 738.485 670.21 724.069 674.582 711.126C674.582 711.126 681.173 725.056 688.542 703.431C695.912 681.805 706.109 623.046 694.341 609.62V609.618Z" fill="#80FFFF" stroke="#220E6E"/>
<path d="M628.08 526.87C628.08 526.87 645.681 535.327 647.98 529.076C650.278 522.824 645.383 517.199 630.522 515.229C615.663 513.259 607.715 492.882 583.536 493.479C583.536 493.479 610.426 496.252 617.24 519.831C617.24 519.831 618.526 527 628.08 526.87Z" fill="url(#paint5_linear_288_559)" stroke="#220E6E"/>
<path d="M512.833 494.219L509.137 490.591C509.137 490.591 510.632 475.765 496.832 473.076C496.832 473.076 477.277 464.418 475.461 486.687L478.346 488.706C481.434 484.139 486.567 478.568 492.545 481.306C502.229 485.745 490.103 550.769 463.856 593.473C437.612 636.176 402.186 675.472 386.562 682.928C377.556 687.226 375.668 681.411 375.649 675.393C370.537 672.674 365.693 669.906 361.04 667.052C360.902 667.188 361.018 667.302 360.883 667.448C360.812 667.527 360.742 667.605 360.671 667.687C353.928 675.485 358.514 681.232 358.514 681.232C358.514 681.232 355.575 701.857 384.703 699.539C413.835 697.225 418.523 668.482 418.523 668.482C418.523 668.482 441.533 674.848 460.006 636.271C478.479 597.695 465.81 618.441 478.612 605.897C495.964 588.898 493.155 549.122 493.155 549.122C493.155 549.122 518.68 531.827 517.975 505.99C517.853 501.545 516 497.323 512.833 494.216V494.219Z" fill="#FFE666" stroke="#220E6E"/>
<path d="M798.126 518.58C798.126 518.58 752.644 527.29 723.128 487.373C693.611 447.456 670.143 478.696 681.083 493.736C681.083 493.736 651.613 508.657 651.393 469.94C651.393 469.94 641.422 498.458 673.244 508.714C681.995 511.536 691.392 511.517 700.194 508.861C706.728 506.891 714.119 507.035 720.352 509.973C726.468 512.855 732.147 516.651 738.483 519.063C744.553 521.375 751.057 522.737 757.501 523.445C771.166 524.948 785.197 523.247 798.123 518.577L798.126 518.58Z" fill="url(#paint6_linear_288_559)" stroke="#220E6E"/>
<path d="M420.846 378.457C404.449 361.67 394.7 350.55 384.356 333.434C362.608 297.443 349.785 260.918 356.435 219.222C358.829 204.216 367.633 185.882 378.528 174.898C399.953 153.294 435.33 148.812 460.226 166.98C460.226 166.98 372.165 164.137 372.303 239.884C372.455 322.96 401.632 355.206 420.849 378.455L420.846 378.457Z" fill="#FFE666" stroke="#220E6E"/>
<path d="M882.152 701.547C884.597 700.231 650.379 834.998 362.015 722.951C206.456 662.507 77.8188 546.531 54.8064 381.236C43.1225 297.308 70.7612 181.608 134.021 101.159C134.021 101.159 -61.0422 249.394 21.2579 480.215C53.8594 571.649 120.259 632.48 203.853 681.56C324.415 752.348 578.905 864.788 882.152 701.547Z" fill="url(#paint7_linear_288_559)" stroke="#220E6E"/>
<path d="M1078.71 481.819C1078.71 481.819 1079.86 492.45 1078.87 498.634C1077.81 505.255 1075.14 511.52 1071.8 517.411C1068.43 523.353 1064.34 528.712 1062.33 535.265C1059.47 544.58 1058.72 554.427 1060.01 563.965C1061.1 572.007 1064.01 579.873 1064.84 582.02C1064.94 582.291 1064.69 582.576 1064.39 582.516C1063.67 582.37 1062.54 581.941 1061.83 580.682C1060.73 578.723 1065.76 589.186 1056.83 594.447C1056.83 594.447 1050.98 597.353 1047.3 591.796C1047.3 591.796 1041.37 603.39 1052.57 610.608C1052.92 610.836 1052.63 611.362 1052.23 611.213C1050.31 610.486 1048.38 609.411 1046.58 608.519C1044.11 607.292 1041.69 605.214 1039.94 603.184C1036.25 598.927 1034.12 593.543 1033.33 588.019C1030.68 569.4 1044.93 542.393 1050.63 534.641C1058.21 524.33 1069.25 514.931 1074.19 503.128C1077.27 495.744 1078.95 489.878 1078.72 481.817L1078.71 481.819Z" fill="url(#paint8_linear_288_559)" stroke="#220E6E"/>
<path d="M1121.76 446.762L1130.79 505.879C1130.79 505.895 1130.79 505.912 1130.8 505.925C1130.84 506.123 1131 506.273 1131.2 506.305L1136 507.084C1136.21 507.117 1136.42 507.016 1136.52 506.834L1136.52 506.826L1182.89 425.364C1183.53 424.225 1183.68 422.865 1183.29 421.615L1173.55 390.071C1173.55 390.071 1173.54 390.082 1173.53 390.088C1172.79 391.121 1172.04 392.147 1171.29 393.162C1154.03 416.524 1135.7 434.59 1121.76 446.765L1121.76 446.762Z" fill="#3D3EE8" stroke="#220E6E"/>
<path d="M1130.8 505.925C1131.11 506.251 1135.8 506.875 1136.13 506.929C1136.27 506.951 1136.42 506.913 1136.53 506.826C1136.57 506.788 1136.62 506.739 1136.65 506.682L1183.02 425.207C1183.66 424.067 1183.81 422.71 1183.43 421.457L1173.68 389.914L1173.6 390C1173.58 390.025 1173.57 390.047 1173.55 390.068C1173.54 390.074 1173.54 390.079 1173.54 390.084C1172.79 391.118 1172.05 392.144 1171.29 393.159L1180.06 421.034C1180.45 422.284 1180.3 423.641 1179.65 424.783L1130.79 505.882C1130.78 505.895 1130.78 505.911 1130.8 505.928V505.925Z" fill="#6061EE" stroke="#220E6E"/>
<path d="M985.496 383.019L987.179 387.575C987.249 387.765 987.423 387.892 987.624 387.903C987.64 387.903 987.659 387.903 987.672 387.903L1047.13 385.494C1056.4 369.504 1070.63 348.035 1090.28 326.599C1091.09 325.715 1091.91 324.83 1092.74 323.946L1093.09 323.986L1093.2 323.829L1092.88 323.796L1076.63 322.035L1060.37 320.277C1059.07 320.136 1057.76 320.54 1056.77 321.395L985.651 382.449L985.643 382.457C985.48 382.596 985.423 382.818 985.496 383.016V383.019Z" fill="#3D3EE8" stroke="#220E6E"/>
<path d="M985.626 382.864C985.743 383.176 987.241 387.642 987.623 387.903C987.642 387.916 987.661 387.916 987.672 387.903L1057.96 324.466C1058.95 323.611 1060.26 323.207 1061.56 323.348L1090.28 326.599C1091.09 325.714 1091.91 324.83 1092.74 323.945L1076.63 322.035L1060.5 320.122C1059.2 319.981 1057.89 320.382 1056.9 321.237L985.767 382.3C985.719 382.34 985.678 382.392 985.648 382.449C985.583 382.574 985.569 382.723 985.621 382.861L985.626 382.864Z" fill="#6061EE" stroke="#220E6E"/>
<path d="M1151.78 338.945C1162.47 345.444 1176.4 342.044 1182.9 331.353C1189.39 320.662 1185.99 306.729 1175.3 300.233C1164.61 293.737 1150.68 297.137 1144.18 307.825C1137.68 318.513 1141.08 332.446 1151.77 338.945H1151.78Z" fill="#3D3EE8" stroke="#220E6E"/>
<path d="M1161.72 270.128C1169.62 277.603 1178.05 285.049 1186.93 292.372C1195.61 299.528 1204.33 306.235 1212.98 312.452C1219.1 292.804 1222.98 271.471 1223.46 248.581C1223.47 248 1222.93 247.558 1222.37 247.68C1200.01 252.515 1179.82 260.384 1161.72 270.131V270.128Z" fill="#3D3EE8" stroke="#220E6E"/>
<path d="M1084.4 429.12L1079.29 435.664C1089.63 443.97 1099.57 451.41 1108.53 457.627C1110.53 456.072 1112.79 454.27 1115.26 452.224C1105.88 445.777 1095.37 437.935 1084.4 429.12Z" fill="#98EDD9" stroke="#220E6E"/>
<path d="M1039.12 400.322C1047.38 408.397 1057.22 417.313 1068.11 426.471L1073.57 420.214C1062.05 410.535 1051.69 401.117 1043.14 392.676C1041.61 395.495 1040.27 398.059 1039.12 400.319V400.322Z" fill="#98EDD9" stroke="#220E6E"/>
<path d="M1055.19 445.003L1056.6 446.165L1057.08 445.573L1059.96 447.947L1062.84 450.319L1062.35 450.911L1063.5 451.863C1064.55 452.72 1066.09 452.552 1066.92 451.491L1068.16 449.898L1079.29 435.667L1084.4 429.122L1135.27 364.049C1136.85 362.022 1136.53 359.1 1134.55 357.461C1134.55 357.461 1134.55 357.461 1134.55 357.456C1132.56 355.819 1129.63 356.058 1127.94 357.996L1073.57 420.214L1068.11 426.471L1056.23 440.06L1054.9 441.576C1054.02 442.594 1054.14 444.143 1055.19 445.003Z" fill="#3D3EE8" stroke="#220E6E"/>
<path d="M1148.02 324.251C1145.36 315.57 1150.24 306.378 1158.93 303.72C1167.61 301.061 1176.8 305.942 1179.46 314.622C1182.12 323.303 1177.23 332.495 1168.55 335.154C1159.87 337.812 1150.68 332.931 1148.02 324.251Z" fill="#98EDD9" stroke="#220E6E"/>
<path d="M1163.74 332.408C1156.58 332.408 1150.77 326.603 1150.77 319.441C1150.77 312.279 1156.58 306.474 1163.74 306.474C1170.9 306.474 1176.71 312.279 1176.71 319.441C1176.71 326.603 1170.9 332.408 1163.74 332.408Z" fill="#D5FCF3" stroke="#220E6E"/>
<path d="M1044.79 418.1L1033.75 411.545C1033.75 411.545 1038.07 401.142 1047.13 385.496C1056.4 369.506 1070.63 348.038 1090.28 326.602C1091.09 325.717 1091.91 324.833 1092.74 323.948L1093.09 323.989L1093.2 323.832L1092.88 323.799C1111.2 304.301 1134.03 285.024 1161.72 270.128C1169.63 277.603 1178.05 285.049 1186.93 292.372C1195.61 299.528 1204.33 306.235 1212.98 312.452C1203.67 342.353 1189.18 368.35 1173.59 390.001C1173.58 390.025 1173.56 390.047 1173.55 390.068C1173.54 390.074 1173.54 390.079 1173.54 390.085C1172.79 391.118 1172.05 392.144 1171.29 393.159C1154.03 416.521 1135.7 434.587 1121.76 446.762C1108.05 458.734 1098.59 465.002 1098.59 465.002L1090.32 455.632L1090.17 455.817C1085.43 450.678 1080.4 445.753 1075.08 441.045L1079.29 435.664C1089.63 443.97 1099.57 451.41 1108.53 457.627C1110.53 456.072 1112.79 454.27 1115.26 452.224C1105.89 445.777 1095.37 437.935 1084.41 429.12L1135.27 364.047C1136.86 362.02 1136.54 359.098 1134.55 357.459C1134.55 357.459 1134.55 357.459 1134.55 357.453C1132.56 355.817 1129.64 356.056 1127.95 357.993L1073.57 420.212C1062.06 410.533 1051.7 401.115 1043.15 392.673C1041.61 395.492 1040.27 398.057 1039.12 400.317C1047.38 408.392 1057.23 417.308 1068.11 426.466L1063.65 431.573C1057.62 426.916 1051.27 422.496 1044.61 418.315L1044.79 418.092L1044.79 418.1ZM1151.78 338.942C1162.47 345.441 1176.4 342.041 1182.9 331.35C1189.39 320.66 1185.99 306.726 1175.3 300.23C1164.61 293.735 1150.68 297.134 1144.18 307.822C1137.68 318.511 1141.08 332.444 1151.77 338.942H1151.78Z" fill="#D7DCF7" stroke="#220E6E"/>
<path d="M1086.87 459.819C1085.38 461.629 1082.71 461.884 1080.9 460.394L1068.17 449.899L1075.08 441.048C1080.4 445.758 1085.43 450.68 1090.17 455.82L1086.87 459.819H1086.87Z" fill="#98EDD9" stroke="#220E6E"/>
<path d="M1044.6 418.323C1051.27 422.501 1057.62 426.922 1063.64 431.58L1056.23 440.06L1041.91 428.254C1040.11 426.764 1039.85 424.091 1041.34 422.284L1044.6 418.323Z" fill="#98EDD9" stroke="#220E6E"/>
<path opacity="0.2" d="M1224.93 247.933C1122.8 299.471 1051.2 422.811 1051.2 422.811L1042.43 416.036C1042.43 416.036 1098.22 290.123 1225 247.987L1224.93 247.933Z" fill="white"/>
<defs>
<linearGradient id="paint0_linear_288_559" x1="961.001" y1="232.085" x2="594.829" y2="319.857" gradientUnits="userSpaceOnUse">
<stop stop-color="#D84FC8"/>
<stop offset="0.53125" stop-color="#62A7FF"/>
<stop offset="1" stop-color="#25E4F0"/>
</linearGradient>
<linearGradient id="paint1_linear_288_559" x1="1143.4" y1="225.229" x2="700.53" y2="188.67" gradientUnits="userSpaceOnUse">
<stop stop-color="#E6007A"/>
<stop offset="0.21" stop-color="#703AC2"/>
<stop offset="0.46" stop-color="#0070EB"/>
<stop offset="0.77" stop-color="#0297FB"/>
<stop offset="1" stop-color="#0AE2FF"/>
</linearGradient>
<linearGradient id="paint2_linear_288_559" x1="1063.86" y1="411.743" x2="587.972" y2="561.229" gradientUnits="userSpaceOnUse">
<stop stop-color="#D84FC8"/>
<stop offset="0.53125" stop-color="#62A7FF"/>
<stop offset="1" stop-color="#25E4F0"/>
</linearGradient>
<linearGradient id="paint3_linear_288_559" x1="931.351" y1="611.69" x2="650.378" y2="762.186" gradientUnits="userSpaceOnUse">
<stop stop-color="#D84FC8"/>
<stop offset="0.53125" stop-color="#62A7FF"/>
<stop offset="1" stop-color="#25E4F0"/>
</linearGradient>
<linearGradient id="paint4_linear_288_559" x1="943.172" y1="340.428" x2="575.629" y2="138.828" gradientUnits="userSpaceOnUse">
<stop stop-color="#D84FC8"/>
<stop offset="0.53125" stop-color="#62A7FF"/>
<stop offset="1" stop-color="#25E4F0"/>
</linearGradient>
<linearGradient id="paint5_linear_288_559" x1="678.878" y1="495.444" x2="563.304" y2="538.823" gradientUnits="userSpaceOnUse">
<stop stop-color="#D84FC8"/>
<stop offset="0.53125" stop-color="#62A7FF"/>
<stop offset="1" stop-color="#25E4F0"/>
</linearGradient>
<linearGradient id="paint6_linear_288_559" x1="885.572" y1="451.514" x2="604.429" y2="496.086" gradientUnits="userSpaceOnUse">
<stop stop-color="#D84FC8"/>
<stop offset="0.53125" stop-color="#62A7FF"/>
<stop offset="1" stop-color="#25E4F0"/>
</linearGradient>
<linearGradient id="paint7_linear_288_559" x1="928.91" y1="415.766" x2="380.393" y2="520.145" gradientUnits="userSpaceOnUse">
<stop stop-color="#D84FC8"/>
<stop offset="0.53125" stop-color="#62A7FF"/>
<stop offset="1" stop-color="#25E4F0"/>
</linearGradient>
<linearGradient id="paint8_linear_288_559" x1="1100.89" y1="488.543" x2="1018.6" y2="636.657" gradientUnits="userSpaceOnUse">
<stop stop-color="#D84FC8"/>
<stop offset="0.53125" stop-color="#62A7FF"/>
<stop offset="1" stop-color="#25E4F0"/>
</linearGradient>
</defs>
</svg>
