<svg width="1728" height="700" viewBox="0 0 1728 700" fill="none" xmlns="http://www.w3.org/2000/svg">
<g clip-path="url(#clip0_288_593)">
<path d="M1418.95 168.726C1410.26 167.41 1409.42 167.906 1406.44 176.198C1407.76 167.506 1407.26 166.667 1398.97 163.693C1407.66 165.009 1408.5 164.513 1411.48 156.221C1410.16 164.913 1410.66 165.752 1418.95 168.726Z" fill="#AEAECF"/>
<path d="M1663.16 71.912C1656.44 74.1612 1656.02 74.8284 1656.95 81.8621C1654.7 75.1334 1654.03 74.714 1647 75.648C1653.73 73.3988 1654.15 72.7316 1653.21 65.6979C1655.46 72.4266 1656.13 72.846 1663.16 71.912Z" fill="#AEAECF"/>
<path d="M1598.51 627.499C1595.63 630.282 1595.59 630.72 1597.76 634.075C1594.98 631.197 1594.54 631.158 1591.19 633.332C1594.07 630.549 1594.1 630.11 1591.93 626.755C1594.71 629.634 1595.15 629.672 1598.51 627.499Z" fill="#AEAECF"/>
<path d="M1301.34 144.765C1295.14 145.375 1294.65 145.852 1294.06 152.047C1293.45 145.852 1292.97 145.356 1286.77 144.765C1292.97 144.155 1293.47 143.679 1294.06 137.484C1294.67 143.679 1295.14 144.174 1301.34 144.765Z" fill="#AEAECF"/>
<path d="M1272.88 278.52C1270.27 284.162 1270.44 284.829 1275.49 288.489C1269.85 285.878 1269.18 286.049 1265.52 291.101C1268.13 285.458 1267.96 284.791 1262.91 281.132C1268.55 283.743 1269.22 283.571 1272.88 278.52Z" fill="#AEAECF"/>
<path d="M1442.51 663.678C1436.75 661.333 1436.08 661.524 1432.67 666.727C1435.02 660.971 1434.83 660.304 1429.62 656.892C1435.38 659.236 1436.05 659.046 1439.46 653.842C1437.11 659.598 1437.3 660.266 1442.51 663.678Z" fill="#AEAECF"/>
<path d="M1606.36 507.792C1603.56 502.226 1602.93 501.959 1596.93 503.637C1602.49 500.835 1602.76 500.206 1601.08 494.201C1603.88 499.767 1604.51 500.034 1610.52 498.357C1604.95 501.159 1604.68 501.788 1606.36 507.792Z" fill="#AEAECF"/>
<path d="M1629.83 609.543C1625.36 613.87 1625.29 614.556 1628.68 619.779C1624.34 615.318 1623.67 615.242 1618.45 618.635C1622.91 614.308 1622.98 613.622 1619.59 608.399C1623.92 612.859 1624.6 612.936 1629.83 609.543Z" fill="#AEAECF"/>
<path d="M1383.68 665.241C1380 663.735 1379.59 663.868 1377.39 667.185C1378.9 663.506 1378.77 663.087 1375.45 660.895C1379.13 662.4 1379.55 662.267 1381.74 658.95C1380.23 662.629 1380.37 663.048 1383.68 665.241Z" fill="#AEAECF"/>
<path d="M1152.81 184.966C1148.85 185.347 1148.54 185.652 1148.16 189.617C1147.78 185.652 1147.45 185.347 1143.51 184.966C1147.47 184.585 1147.78 184.28 1148.16 180.315C1148.54 184.28 1148.85 184.585 1152.81 184.966Z" fill="#AEAECF"/>
<path d="M1370.63 384.273C1366.66 384.655 1366.36 384.96 1365.98 388.924C1365.59 384.96 1365.29 384.655 1361.32 384.273C1365.29 383.892 1365.59 383.587 1365.98 379.622C1366.36 383.587 1366.66 383.892 1370.63 384.273Z" fill="#AEAECF"/>
<path d="M1305.07 238.815C1301.11 239.196 1300.8 239.52 1300.42 243.466C1300.04 239.501 1299.74 239.196 1295.77 238.815C1299.74 238.434 1300.04 238.129 1300.42 234.164C1300.8 238.129 1301.11 238.434 1305.07 238.815Z" fill="#AEAECF"/>
<path d="M1231 324.573C1228.05 321.904 1227.61 321.885 1224.42 324.268C1227.09 321.313 1227.11 320.875 1224.73 317.692C1227.68 320.36 1228.12 320.379 1231.31 317.996C1228.64 320.951 1228.62 321.389 1231 324.573Z" fill="#AEAECF"/>
<path d="M1239.5 296.247C1237.35 294.303 1237.04 294.284 1234.72 296.019C1236.66 293.865 1236.68 293.56 1234.95 291.234C1237.1 293.178 1237.41 293.197 1239.73 291.463C1237.79 293.617 1237.77 293.922 1239.5 296.247Z" fill="#AEAECF"/>
<path d="M1242.52 559.075C1230.21 557.212 1229.02 557.914 1224.81 569.662C1226.67 557.347 1225.97 556.159 1214.22 551.946C1226.54 553.809 1227.72 553.107 1231.94 541.359C1230.07 553.674 1230.78 554.863 1242.52 559.075Z" fill="#AEAECF"/>
<path d="M1094.05 579.609C1085.28 580.473 1084.57 581.148 1083.74 589.925C1082.87 581.148 1082.2 580.446 1073.42 579.609C1082.2 578.744 1082.9 578.069 1083.74 569.292C1084.6 578.069 1085.28 578.771 1094.05 579.609Z" fill="#AEAECF"/>
<path d="M1109.07 645.756C1105.37 653.75 1105.61 654.695 1112.77 659.88C1104.77 656.18 1103.83 656.423 1098.64 663.58C1102.34 655.586 1102.1 654.641 1094.94 649.456C1102.94 653.156 1103.88 652.913 1109.07 645.756Z" fill="#AEAECF"/>
<path d="M1154.68 589.502C1149.06 590.042 1148.63 590.501 1148.09 596.091C1147.55 590.474 1147.12 590.042 1141.5 589.502C1147.12 588.962 1147.55 588.529 1148.09 582.912C1148.63 588.529 1149.06 588.962 1154.68 589.502Z" fill="#AEAECF"/>
<path d="M1061.78 670.872C1058.73 668.117 1058.29 668.09 1055 670.548C1057.75 667.496 1057.78 667.064 1055.32 663.769C1058.38 666.524 1058.81 666.551 1062.1 664.093C1059.35 667.145 1059.32 667.577 1061.78 670.872Z" fill="#AEAECF"/>
<path d="M692.032 94.3054C683.033 92.9437 682.165 93.4568 679.086 102.041C680.448 93.0423 679.935 92.174 671.35 89.0954C680.349 90.4571 681.217 89.944 684.296 81.3594C682.934 90.3584 683.447 91.2267 692.032 94.3054Z" fill="#AEAECF"/>
<path d="M583.539 109.31C577.125 109.941 576.612 110.435 576 116.848C575.369 110.435 574.875 109.922 568.461 109.31C574.875 108.678 575.388 108.185 576 101.771C576.632 108.185 577.125 108.698 583.539 109.31Z" fill="#AEAECF"/>
<path d="M594.509 157.647C591.805 163.488 591.983 164.179 597.212 167.968C591.371 165.264 590.68 165.442 586.891 170.672C589.595 164.83 589.417 164.139 584.188 160.35C590.029 163.054 590.72 162.876 594.509 157.647Z" fill="#AEAECF"/>
<path d="M627.841 116.539C623.736 116.934 623.42 117.269 623.026 121.354C622.631 117.25 622.315 116.934 618.21 116.539C622.315 116.145 622.631 115.829 623.026 111.724C623.42 115.829 623.736 116.145 627.841 116.539Z" fill="#AEAECF"/>
<path d="M559.953 176C557.723 173.987 557.408 173.967 555 175.763C557.013 173.533 557.033 173.217 555.237 170.81C557.467 172.823 557.783 172.842 560.19 171.047C558.177 173.277 558.158 173.592 559.953 176Z" fill="#AEAECF"/>
<path d="M1449.27 52.393C1446.4 52.6789 1446.17 52.9076 1445.88 55.7859C1445.6 52.9076 1445.37 52.6789 1442.49 52.393C1445.37 52.107 1445.6 51.8783 1445.88 49C1446.17 51.8783 1446.4 52.107 1449.27 52.393Z" fill="#AEAECF"/>
<path d="M1071.82 322.552C1068.94 322.838 1068.71 323.067 1068.43 325.945C1068.14 323.067 1067.91 322.838 1065.03 322.552C1067.91 322.266 1068.14 322.037 1068.43 319.159C1068.71 322.037 1068.94 322.266 1071.82 322.552Z" fill="#AEAECF"/>
<path d="M1040.79 310.963C1037.91 311.249 1037.68 311.477 1037.39 314.356C1037.11 311.477 1036.88 311.249 1034 310.963C1036.88 310.677 1037.11 310.448 1037.39 307.57C1037.68 310.448 1037.91 310.677 1040.79 310.963Z" fill="#AEAECF"/>
<path d="M1402.38 288.203C1399.51 288.489 1399.28 288.718 1398.99 291.596C1398.7 288.718 1398.48 288.489 1395.6 288.203C1398.48 287.917 1398.7 287.689 1398.99 284.81C1399.28 287.689 1399.51 287.917 1402.38 288.203Z" fill="#AEAECF"/>
<path d="M1452.67 364.964C1449.79 365.25 1449.56 365.479 1449.27 368.357C1448.99 365.479 1448.76 365.25 1445.88 364.964C1448.76 364.678 1448.99 364.449 1449.27 361.571C1449.56 364.449 1449.79 364.678 1452.67 364.964Z" fill="#AEAECF"/>
<path d="M1501.22 251.643C1498.34 251.929 1498.11 252.158 1497.82 255.036C1497.54 252.158 1497.31 251.929 1494.43 251.643C1497.31 251.357 1497.54 251.129 1497.82 248.25C1498.11 251.129 1498.34 251.357 1501.22 251.643Z" fill="#AEAECF"/>
<path d="M1679.5 234.145C1676.62 234.431 1676.39 234.659 1676.11 237.538C1675.82 234.659 1675.59 234.431 1672.71 234.145C1675.59 233.859 1675.82 233.63 1676.11 230.752C1676.39 233.63 1676.62 233.859 1679.5 234.145Z" fill="#AEAECF"/>
<path d="M1355.97 458.156C1353.09 458.442 1352.86 458.671 1352.58 461.549C1352.29 458.671 1352.06 458.442 1349.18 458.156C1352.06 457.87 1352.29 457.641 1352.58 454.763C1352.86 457.641 1353.09 457.87 1355.97 458.156Z" fill="#AEAECF"/>
<path d="M1571.92 528.703C1570.62 526.11 1570.32 525.996 1567.53 526.777C1570.12 525.481 1570.24 525.176 1569.46 522.393C1570.75 524.986 1571.06 525.1 1573.84 524.319C1571.25 525.615 1571.13 525.92 1571.92 528.703Z" fill="#AEAECF"/>
<path d="M1672.22 324.401C1666.02 325.011 1665.53 325.488 1664.94 331.683C1664.33 325.488 1663.85 324.992 1657.66 324.401C1663.85 323.791 1664.35 323.315 1664.94 317.12C1665.55 323.315 1666.02 323.81 1672.22 324.401Z" fill="#AEAECF"/>
<path d="M1668.33 352.765C1665.45 353.051 1665.22 353.279 1664.94 356.158C1664.65 353.279 1664.42 353.051 1661.54 352.765C1664.42 352.479 1664.65 352.25 1664.94 349.372C1665.22 352.25 1665.45 352.479 1668.33 352.765Z" fill="#AEAECF"/>
<path d="M1633.2 452.685C1631.9 450.093 1631.6 449.979 1628.82 450.76C1631.41 449.464 1631.52 449.159 1630.74 446.376C1632.04 448.968 1632.34 449.083 1635.12 448.301C1632.53 449.597 1632.42 449.902 1633.2 452.685Z" fill="#AEAECF"/>
<path d="M1676.13 112.99C1672.16 113.371 1671.86 113.676 1671.47 117.641C1671.09 113.676 1670.79 113.371 1666.82 112.99C1670.79 112.608 1671.09 112.303 1671.47 108.339C1671.86 112.303 1672.16 112.608 1676.13 112.99Z" fill="#AEAECF"/>
<path d="M1585.45 63.3533C1583.03 64.9355 1582.93 65.2404 1584.02 67.9281C1582.44 65.5073 1582.13 65.412 1579.45 66.4985C1581.87 64.9164 1581.96 64.6114 1580.87 61.9237C1582.46 64.3445 1582.76 64.4399 1585.45 63.3533Z" fill="#AEAECF"/>
<path d="M1559.26 87.1422C1556.84 88.7243 1556.74 89.0293 1557.83 91.7169C1556.25 89.2961 1555.94 89.2008 1553.25 90.2873C1555.68 88.7052 1555.77 88.4002 1554.68 85.7126C1556.27 88.1334 1556.57 88.2287 1559.26 87.1422Z" fill="#AEAECF"/>
<path d="M1686 310.715C1683.12 311.001 1682.89 311.23 1682.61 314.108C1682.32 311.23 1682.09 311.001 1679.21 310.715C1682.09 310.429 1682.32 310.2 1682.61 307.322C1682.89 310.2 1683.12 310.429 1686 310.715Z" fill="#AEAECF"/>
<path d="M1654.99 299.106C1652.11 299.392 1651.88 299.621 1651.59 302.499C1651.31 299.621 1651.08 299.392 1648.2 299.106C1651.08 298.821 1651.31 298.592 1651.59 295.714C1651.88 298.592 1652.11 298.821 1654.99 299.106Z" fill="#AEAECF"/>
<path d="M1428.69 648.161C1426 647.075 1425.7 647.17 1424.11 649.591C1425.2 646.903 1425.1 646.598 1422.7 645.016C1425.39 646.103 1425.7 646.007 1427.28 643.606C1426.19 646.293 1426.29 646.598 1428.69 648.18V648.161Z" fill="#AEAECF"/>
<path d="M300.052 530.459C308.744 531.774 309.583 531.279 312.556 522.987C311.241 531.679 311.737 532.518 320.028 535.492C311.336 534.176 310.498 534.672 307.524 542.964C308.839 534.272 308.344 533.433 300.052 530.459Z" fill="#AEAECF"/>
<path d="M55.8358 627.273C62.5645 625.024 62.9839 624.356 62.0499 617.323C64.2991 624.051 64.9663 624.471 72 623.537C65.2713 625.786 64.8519 626.453 65.7859 633.487C63.5367 626.758 62.8695 626.339 55.8358 627.273Z" fill="#AEAECF"/>
<path d="M417.662 554.42C423.857 553.81 424.353 553.333 424.944 547.138C425.554 553.333 426.03 553.829 432.225 554.42C426.03 555.03 425.535 555.506 424.944 561.701C424.334 555.506 423.857 555.011 417.662 554.42Z" fill="#AEAECF"/>
<path d="M446.121 420.665C448.732 415.023 448.561 414.355 443.509 410.696C449.151 413.307 449.819 413.135 453.478 408.084C450.867 413.726 451.039 414.393 456.09 418.053C450.448 415.442 449.78 415.613 446.121 420.665Z" fill="#AEAECF"/>
<path d="M276.492 16.5072C282.249 18.8518 282.916 18.6612 286.328 13.4574C283.984 19.214 284.174 19.8811 289.378 23.2931C283.621 20.9486 282.954 21.1392 279.542 26.343C281.887 20.5864 281.696 19.9193 276.492 16.5072Z" fill="#AEAECF"/>
<path d="M335.316 14.9443C338.995 16.4501 339.414 16.3167 341.606 13C340.101 16.6789 340.234 17.0982 343.551 19.2903C339.872 17.7844 339.453 17.9179 337.26 21.2346C338.766 17.5557 338.633 17.1363 335.316 14.9443Z" fill="#AEAECF"/>
<path d="M348.373 314.911C352.338 314.53 352.643 314.225 353.024 310.26C353.406 314.225 353.71 314.53 357.675 314.911C353.71 315.293 353.406 315.598 353.024 319.562C352.643 315.598 352.338 315.293 348.373 314.911Z" fill="#AEAECF"/>
<path d="M413.926 460.37C417.89 459.989 418.195 459.665 418.577 455.719C418.958 459.684 419.263 459.989 423.228 460.37C419.263 460.751 418.958 461.056 418.577 465.021C418.195 461.056 417.89 460.751 413.926 460.37Z" fill="#AEAECF"/>
<path d="M487.999 374.612C490.954 377.281 491.392 377.3 494.575 374.917C491.907 377.872 491.888 378.31 494.27 381.493C491.316 378.825 490.877 378.806 487.694 381.188C490.363 378.234 490.382 377.795 487.999 374.612Z" fill="#AEAECF"/>
<path d="M479.497 402.938C481.651 404.882 481.956 404.901 484.282 403.166C482.337 405.32 482.318 405.625 484.053 407.951C481.899 406.006 481.594 405.987 479.269 407.722C481.213 405.568 481.232 405.263 479.497 402.938Z" fill="#AEAECF"/>
<path d="M269.725 646.792C272.604 646.506 272.832 646.277 273.118 643.399C273.404 646.277 273.633 646.506 276.511 646.792C273.633 647.078 273.404 647.307 273.118 650.185C272.832 647.307 272.604 647.078 269.725 646.792Z" fill="#AEAECF"/>
<path d="M316.616 410.981C319.495 410.696 319.723 410.467 320.009 407.589C320.295 410.467 320.524 410.696 323.402 410.981C320.524 411.267 320.295 411.496 320.009 414.374C319.723 411.496 319.495 411.267 316.616 410.981Z" fill="#AEAECF"/>
<path d="M266.332 334.221C269.211 333.935 269.439 333.706 269.725 330.828C270.011 333.706 270.24 333.935 273.118 334.221C270.24 334.507 270.011 334.735 269.725 337.614C269.439 334.735 269.211 334.507 266.332 334.221Z" fill="#AEAECF"/>
<path d="M217.783 447.541C220.661 447.256 220.89 447.027 221.176 444.149C221.462 447.027 221.691 447.256 224.569 447.541C221.691 447.827 221.462 448.056 221.176 450.934C220.89 448.056 220.661 447.827 217.783 447.541Z" fill="#AEAECF"/>
<path d="M39.5002 465.04C42.3785 464.754 42.6073 464.525 42.8932 461.647C43.1791 464.525 43.4078 464.754 46.2861 465.04C43.4078 465.326 43.1791 465.555 42.8932 468.433C42.6073 465.555 42.3785 465.326 39.5002 465.04Z" fill="#AEAECF"/>
<path d="M363.031 241.029C365.91 240.743 366.139 240.514 366.424 237.636C366.71 240.514 366.939 240.743 369.817 241.029C366.939 241.315 366.71 241.544 366.424 244.422C366.139 241.544 365.91 241.315 363.031 241.029Z" fill="#AEAECF"/>
<path d="M46.7813 374.784C52.9763 374.174 53.4719 373.697 54.0628 367.502C54.6727 373.697 55.1492 374.193 61.3442 374.784C55.1492 375.394 54.6537 375.87 54.0628 382.065C53.4528 375.87 52.9763 375.375 46.7813 374.784Z" fill="#AEAECF"/>
<path d="M50.6702 346.42C53.5484 346.134 53.7772 345.905 54.0631 343.027C54.349 345.905 54.5778 346.134 57.4561 346.42C54.5778 346.706 54.349 346.935 54.0631 349.813C53.7772 346.935 53.5484 346.706 50.6702 346.42Z" fill="#AEAECF"/>
<path d="M42.8743 586.195C46.8391 585.814 47.144 585.509 47.5252 581.544C47.9065 585.509 48.2115 585.814 52.1763 586.195C48.2115 586.576 47.9065 586.881 47.5252 590.846C47.144 586.881 46.8391 586.576 42.8743 586.195Z" fill="#AEAECF"/>
<path d="M133.55 635.831C135.971 634.249 136.066 633.944 134.979 631.257C136.562 633.677 136.867 633.773 139.554 632.686C137.133 634.268 137.038 634.573 138.125 637.261C136.542 634.84 136.238 634.745 133.55 635.831Z" fill="#AEAECF"/>
<path d="M159.74 612.043C162.161 610.461 162.256 610.156 161.17 607.468C162.752 609.889 163.057 609.984 165.745 608.897C163.324 610.48 163.229 610.785 164.315 613.472C162.733 611.051 162.428 610.956 159.74 612.043Z" fill="#AEAECF"/>
<path d="M33.0002 388.47C35.8785 388.184 36.1073 387.955 36.3932 385.077C36.6791 387.955 36.9078 388.184 39.7861 388.47C36.9078 388.756 36.6791 388.984 36.3932 391.863C36.1073 388.984 35.8785 388.756 33.0002 388.47Z" fill="#AEAECF"/>
<path d="M64.0129 400.078C66.8912 399.792 67.12 399.564 67.4059 396.685C67.6918 399.564 67.9205 399.792 70.7988 400.078C67.9205 400.364 67.6918 400.593 67.4059 403.471C67.12 400.593 66.8912 400.364 64.0129 400.078Z" fill="#AEAECF"/>
<path d="M290.312 32.0234C293 33.1099 293.305 33.0146 294.887 30.5938C293.8 33.2815 293.896 33.5864 296.297 35.1686C293.61 34.082 293.305 34.1773 291.723 36.5791C292.809 33.8914 292.714 33.5864 290.312 32.0043L290.312 32.0234Z" fill="#AEAECF"/>
</g>
<defs>
<clipPath id="clip0_288_593">
<rect width="1728" height="700" fill="white"/>
</clipPath>
</defs>
</svg>
