<svg width="150" height="130" fill="none" xmlns="http://www.w3.org/2000/svg"><path d="m79.47 21-30.527-6 8.978 17.575c0 14.917 5.635 32.358 15.453 47.796l14.62 23.009-11.07 6.394v2.144l7.683-3.215c.558-.239 1.109-.492 1.645-.767l1.31-.759 8.664-4.98 1.318-.76c2.501-1.54 4.66-3.61 6.439-6.126 3.9-5.493 6.014-13.138 6.014-22.272V50.246L79.47 21Z" fill="url(#a)"/><path opacity=".5" d="m79.47 21-30.527-6 8.978 17.575c0 14.917 5.635 32.358 15.453 47.796l14.62 23.009-11.07 6.394v2.144l7.683-3.215c.558-.239 1.109-.492 1.645-.767l1.31-.759 8.664-4.98 1.318-.76c2.501-1.54 4.66-3.61 6.439-6.126 3.9-5.493 6.014-13.138 6.014-22.272V50.246L79.47 21Z" fill="#20376B"/><path d="m79.47 21-30.527-6 8.978 17.575c0 14.917 5.635 32.358 15.453 47.796l14.62 23.009-11.07 6.394v2.144l7.683-3.215c.558-.239 1.109-.492 1.645-.767l1.31-.759 8.664-4.98 1.318-.76c2.501-1.54 4.66-3.61 6.439-6.126 3.9-5.493 6.014-13.138 6.014-22.272V50.246L79.47 21Z" stroke="#220E6E" stroke-linecap="round" stroke-linejoin="round"/><path d="M100.054 55.956 69.527 26.702l-30.527-6v22.786c0 14.917 5.635 32.35 15.453 47.796L69.527 115l15.074-6.312c9.818-4.109 15.453-15.037 15.453-29.954V55.949v.007Z" fill="url(#b)" stroke="#220E6E" stroke-linejoin="round"/><path d="M94.984 58.435 69.526 34.034l-25.458-4.995v18.997c0 12.438 4.705 26.976 12.886 39.854l12.572 19.778 12.565-5.263c8.189-3.424 12.886-12.535 12.886-24.974V58.435h.007Z" fill="url(#c)" stroke="#220E6E" stroke-linejoin="round"/><path opacity=".2" d="M94.978 58.427v19.004c0 12.439-4.698 21.543-12.878 24.967l-9.58 4.012V36.885l22.465 21.542h-.007Z" fill="#fff"/><path d="M60.03 86.743C51.842 73.867 47.145 59.328 47.145 46.89V29.642l-3.067-.603v18.997c0 12.438 4.705 26.976 12.885 39.854l12.573 19.778 3-1.258-12.498-19.666h-.008Z" fill="url(#d)" stroke="#220E6E" stroke-linejoin="round"/><path opacity=".5" d="M60.03 86.744c-8.188-12.878-12.885-27.416-12.885-39.855V29.642l-3.067-.603v18.997c0 12.438 4.705 26.976 12.885 39.854l12.573 19.778 3-1.258-12.498-19.666h-.008Z" fill="#20376B"/><path d="M100.054 55.956 69.527 26.702l-30.527-6v22.786c0 14.917 5.635 32.35 15.453 47.796L69.527 115l15.074-6.312c9.818-4.109 15.453-15.037 15.453-29.954V55.949v.007Z" stroke="#220E6E" stroke-linecap="round" stroke-linejoin="round"/><path d="m94.984 58.435-25.458-24.4-25.458-4.996v18.997c0 12.438 4.705 26.976 12.886 39.854l12.572 19.778 12.565-5.263c8.189-3.424 12.886-12.535 12.886-24.974V58.436h.007Z" stroke="#220E6E" stroke-linecap="round" stroke-linejoin="round"/><path d="M60.03 86.744c-8.188-12.878-12.885-27.416-12.885-39.855V29.642l-3.067-.603v18.997c0 12.438 4.705 26.976 12.885 39.854l12.573 19.778 3-1.258-12.498-19.666h-.008Z" stroke="#220E6E" stroke-linecap="round" stroke-linejoin="round"/><path d="m39 20.702 30.527 5.992L79.472 21l-30.534-6L39 20.702Z" fill="url(#e)" stroke="#220E6E" stroke-linejoin="round"/><path d="m100.054 55.956 9.945-5.702L79.472 21l-9.945 5.694 30.527 29.262Z" fill="url(#f)" stroke="#220E6E" stroke-linejoin="round"/><path d="m86.774 63.668-1.54-.886v-1.556c.022-6.603-4.638-14.68-10.385-17.992-5.746-3.32-10.436-.647-10.458 5.955v1.556l-.804-.461c-1.236-.715-2.24-.142-2.248 1.28l-.06 20.255c0 1.421.998 3.156 2.233 3.863L86.7 89.066c1.236.714 2.24.141 2.248-1.28l.06-20.255c0-1.422-.998-3.156-2.234-3.863ZM66.341 50.313c.015-5.374 3.826-7.548 8.5-4.846 4.676 2.703 8.465 9.26 8.45 14.635v1.556l-16.95-9.789v-1.556Z" fill="#220E6E"/><path d="M84.07 61.725 60.883 48.34c-.618-.358-1.184-.395-1.593-.157l-7.355 4.273c.41-.238.968-.2 1.593.156l23.188 13.384c1.236.715 2.233 2.442 2.233 3.864l-.06 20.254c0 .707-.252 1.206-.654 1.437l7.354-4.273c.402-.23.655-.73.655-1.436l.06-20.255c0-1.422-.998-3.156-2.234-3.863Z" fill="url(#g)" stroke="#220E6E" stroke-linejoin="round"/><path opacity=".3" d="M69.354 53.224H58.359v-3.96h4.132l6.863 3.96ZM84.07 61.725l-4.145 2.412H77.26v-3.96h4.131l2.68 1.548Z" fill="#220E6E"/><path d="M76.716 65.997c1.235.715 2.233 2.442 2.233 3.864l-.06 20.254c0 1.422-1.012 1.995-2.248 1.28L53.454 78.013c-1.236-.715-2.233-2.442-2.233-3.864l.06-20.254c0-1.422 1.012-1.995 2.247-1.28l23.188 13.383Z" fill="url(#h)" stroke="#220E6E" stroke-linejoin="round"/><path d="M60.699 68.29c0-2.285 1.652-3.171 3.662-1.928 1.883 1.169 3.41 3.893 3.387 6.037-.015 1.332-.595 2.18-1.481 2.39v7.1c0 .44-.305.611-.692.395l-2.71-1.563c-.38-.223-.692-.752-.692-1.191v-7.101c-.894-1.251-1.482-2.784-1.482-4.147l.008.008Z" fill="#220E6E" stroke="#220E6E" stroke-linecap="round" stroke-linejoin="round"/><path d="M62.508 65.804c-.276.417-.432.982-.432 1.69 0 1.354.588 2.895 1.481 4.146v7.101c0 .44.305.968.692 1.191l2.018 1.169v.804c0 .439-.305.61-.692.394l-2.71-1.563c-.38-.223-.692-.752-.692-1.191v-7.101c-.894-1.25-1.482-2.784-1.482-4.147 0-1.518.73-2.411 1.81-2.486l.007-.007ZM60.848 45.742c-1.526.886-2.464 2.762-2.471 5.434v2.055l2.702-1.578v-2.055c.015-2.672.96-4.548 2.479-5.434l-2.71 1.578Z" fill="#5E62C7" stroke="#220E6E" stroke-linecap="round" stroke-linejoin="round"/><path d="M69.585 42.512c-2.889-1.667-5.516-1.824-7.414-.722l-2.71 1.578c1.898-1.102 4.518-.953 7.414.722 5.747 3.32 10.414 11.39 10.391 17.992v2.054l2.703-1.578v-2.054c.022-6.603-4.638-14.68-10.384-17.992Z" fill="url(#i)" stroke="#220E6E" stroke-linejoin="round"/><path d="M66.876 44.09c5.747 3.32 10.414 11.39 10.392 17.992v2.054l-1.958-1.124v-2.054c.022-5.375-3.767-11.933-8.441-14.635-4.675-2.702-8.486-.52-8.501 4.846v2.055L56.41 52.1v-2.055c.023-6.602 4.72-9.275 10.459-5.955h.007Z" fill="url(#j)" stroke="#220E6E" stroke-linejoin="round"/><defs><linearGradient id="a" x1="80.51" y1="115.514" x2="101.343" y2="53.434" gradientUnits="userSpaceOnUse"><stop stop-color="#E6007A"/><stop offset=".21" stop-color="#703AC2"/><stop offset=".46" stop-color="#0070EB"/><stop offset=".77" stop-color="#0297FB"/><stop offset="1" stop-color="#0AE2FF"/></linearGradient><linearGradient id="b" x1="47.253" y1="15.955" x2="84.114" y2="114.352" gradientUnits="userSpaceOnUse"><stop stop-color="#F964B3"/><stop offset=".21" stop-color="#9B6AE6"/><stop offset=".46" stop-color="#59A7FD"/><stop offset=".77" stop-color="#63C0FF"/><stop offset="1" stop-color="#7CF0FF"/></linearGradient><linearGradient id="c" x1="50.951" y1="25.081" x2="81.684" y2="107.13" gradientUnits="userSpaceOnUse"><stop stop-color="#E6007A"/><stop offset=".21" stop-color="#703AC2"/><stop offset=".46" stop-color="#0070EB"/><stop offset=".77" stop-color="#0297FB"/><stop offset="1" stop-color="#0AE2FF"/></linearGradient><linearGradient id="d" x1="47.925" y1="25.081" x2="91.193" y2="89.644" gradientUnits="userSpaceOnUse"><stop stop-color="#E6007A"/><stop offset=".21" stop-color="#703AC2"/><stop offset=".46" stop-color="#0070EB"/><stop offset=".77" stop-color="#0297FB"/><stop offset="1" stop-color="#0AE2FF"/></linearGradient><linearGradient id="e" x1="42" y1="17" x2="50.104" y2="34.564" gradientUnits="userSpaceOnUse"><stop stop-color="#F964B3"/><stop offset=".531" stop-color="#9B6AE6"/><stop offset="1" stop-color="#59A7FD"/></linearGradient><linearGradient id="f" x1="76.002" y1="21.002" x2="90.306" y2="55.339" gradientUnits="userSpaceOnUse"><stop stop-color="#59A7FD"/><stop offset=".505" stop-color="#63C0FF"/><stop offset="1" stop-color="#7CF0FF"/></linearGradient><linearGradient id="g" x1="53.514" y1="49.895" x2="78.703" y2="92.892" gradientUnits="userSpaceOnUse"><stop stop-color="#E8A6FF"/><stop offset="1" stop-color="#6FFFF6"/></linearGradient><linearGradient id="h" x1="52.495" y1="53.992" x2="76.493" y2="90.5" gradientUnits="userSpaceOnUse"><stop stop-color="#BB7FDF"/><stop offset="1" stop-color="#57E6DD"/></linearGradient><linearGradient id="i" x1="60.403" y1="42.072" x2="72.924" y2="66.151" gradientUnits="userSpaceOnUse"><stop stop-color="#E8A6FF"/><stop offset="1" stop-color="#6FFFF6"/></linearGradient><linearGradient id="j" x1="57.368" y1="43.582" x2="68.431" y2="66.809" gradientUnits="userSpaceOnUse"><stop stop-color="#BB7FDF"/><stop offset="1" stop-color="#57E6DD"/></linearGradient></defs></svg>