<svg width="150" height="130" fill="none" xmlns="http://www.w3.org/2000/svg"><path d="M107.681 66.24 74.152 55.85 42.068 68.587l33.154 10.278 32.459-12.626Z" fill="url(#a)" stroke="#220E6E" stroke-linecap="round" stroke-linejoin="round"/><path d="m75.222 78.866 1.477 43.024 30.982-55.65-32.459 12.626Z" fill="url(#b)" stroke="#220E6E" stroke-miterlimit="10" stroke-linejoin="round"/><path d="m42.066 68.588 34.63 53.302-1.476-43.024-33.154-10.278Z" fill="url(#c)" stroke="#220E6E" stroke-linecap="round" stroke-linejoin="round"/><path d="m42.204 61.95 32.698 9.68-2.27-64.71-30.428 55.03Z" fill="url(#d)" stroke="#220E6E" stroke-linecap="round" stroke-linejoin="round"/><path d="m72.633 6.92 2.27 64.71 31.917-12.133L72.633 6.92Z" fill="url(#e)" stroke="#220E6E" stroke-linecap="round" stroke-linejoin="round"/><defs><linearGradient id="a" x1="104.489" y1="64.208" x2="54.466" y2="69.992" gradientUnits="userSpaceOnUse"><stop stop-color="#CAB3F5"/><stop offset="1" stop-color="#87A9F0"/></linearGradient><linearGradient id="b" x1="91.441" y1="73.335" x2="78.129" y2="122.274" gradientUnits="userSpaceOnUse"><stop stop-color="#C8B2F5"/><stop offset="1" stop-color="#EBE7FE"/></linearGradient><linearGradient id="c" x1="64.884" y1="74.702" x2="53.878" y2="115.776" gradientUnits="userSpaceOnUse"><stop stop-color="#EECBC0"/><stop offset="1" stop-color="#B8FBF6"/></linearGradient><linearGradient id="d" x1="67.77" y1="31.647" x2="59.312" y2="63.212" gradientUnits="userSpaceOnUse"><stop stop-color="#EECBC0"/><stop offset="1" stop-color="#B7D0F8"/></linearGradient><linearGradient id="e" x1="89.131" y1="34.846" x2="79.128" y2="72.762" gradientUnits="userSpaceOnUse"><stop stop-color="#B8FBF6"/><stop offset="1" stop-color="#CAB3F5"/></linearGradient></defs></svg>