<svg width="150" height="130" fill="none" xmlns="http://www.w3.org/2000/svg"><g clip-path="url(#a)"><path d="M133.567 38.882c-3.147-7.55-23.65-6.196-45.788 3.038-22.137 9.233-37.517 22.844-34.37 30.394.524 1.269 2.524 6.05 3.049 7.319 3.146 7.562 23.65 6.196 45.787-3.037 22.138-9.234 37.518-22.845 34.371-30.395-.524-1.269-2.525-6.05-3.049-7.319Z" fill="url(#b)" stroke="#29256A" stroke-linejoin="round"/><g style="mix-blend-mode:multiply" opacity=".3"><path d="M133.567 38.882c-3.147-7.55-23.65-6.196-45.788 3.038-22.137 9.233-37.517 22.844-34.37 30.394.524 1.269 2.524 6.05 3.049 7.319 3.146 7.562 23.65 6.196 45.787-3.037 22.138-9.234 37.518-22.845 34.371-30.395-.524-1.269-2.525-6.05-3.049-7.319Z" fill="url(#c)"/><path d="M133.567 38.882c-3.147-7.55-23.65-6.196-45.788 3.038-22.137 9.233-37.517 22.844-34.37 30.394.524 1.269 2.524 6.05 3.049 7.319 3.146 7.562 23.65 6.196 45.787-3.037 22.138-9.234 37.518-22.845 34.371-30.395-.524-1.269-2.525-6.05-3.049-7.319Z" stroke="#29256A" stroke-linejoin="round"/></g><path d="M133.567 38.882c-3.147-7.55-23.65-6.196-45.788 3.038-22.137 9.233-37.517 22.844-34.37 30.394.524 1.269 2.524 6.05 3.049 7.319 3.146 7.562 23.65 6.196 45.787-3.037 22.138-9.234 37.518-22.845 34.371-30.395-.524-1.269-2.525-6.05-3.049-7.319Z" stroke="#29256A" stroke-linejoin="round"/><mask id="e" style="mask-type:alpha" maskUnits="userSpaceOnUse" x="53" y="34" width="85" height="51"><path d="M133.567 38.882c-3.147-7.55-23.65-6.196-45.788 3.038-22.137 9.233-37.517 22.844-34.37 30.394.524 1.269 2.524 6.05 3.049 7.319 3.146 7.562 23.65 6.196 45.787-3.037 22.138-9.234 37.518-22.845 34.371-30.395-.524-1.269-2.525-6.05-3.049-7.319Z" fill="url(#d)"/></mask><g mask="url(#e)" stroke="#29256A"><path d="m42.41 30.002 29.074 80.264M48.034 28.677l29.074 80.264M53.655 27.354l29.074 80.264M59.276 26.03l29.074 80.265M70.52 23.383l29.074 80.265M76.143 22.06l29.074 80.264M64.9 24.707l29.073 80.264M81.766 20.736l29.074 80.265M87.39 19.413l29.073 80.264M93.01 18.09l29.074 80.264M98.634 16.766l29.073 80.264M104.255 15.443l29.073 80.264M109.876 14.119l29.073 80.264M115.497 12.794 144.57 93.06M121.121 11.471l28.373 80.422"/></g><path d="M53.408 72.314c3.147 7.563 23.65 6.197 45.788-3.037 22.137-9.233 37.518-22.845 34.371-30.395-3.147-7.55-23.65-6.196-45.788 3.038-22.137 9.233-37.517 22.844-34.37 30.394Z" fill="url(#f)" stroke="#29256A" stroke-linejoin="round"/><path opacity=".2" d="M75.62 76.328c7.062-1.183 15.197-3.55 23.576-7.038 21.882-9.123 37.152-22.528 34.457-30.127C87.67 46.97 64.983 58.788 75.62 76.328Z" fill="#fff"/><path d="M88.55 43.75C69.865 51.542 56.9 63.093 59.595 69.557c1.012 2.44 4.135 3.806 8.61 4.135-3.427-.476-5.805-1.695-6.634-3.708-2.537-6.086 9.867-17.064 27.7-24.504 17.843-7.44 34.358-8.538 36.895-2.44.842 2.013.037 4.563-2.037 7.331 2.915-3.415 4.147-6.598 3.122-9.038-2.695-6.464-20.027-5.379-38.713 2.403l.012.012Z" fill="url(#g)" style="mix-blend-mode:multiply" opacity=".5"/><path d="M88.55 43.75C69.865 51.542 56.9 63.093 59.595 69.557c1.012 2.44 4.135 3.806 8.61 4.135-3.427-.476-5.805-1.695-6.634-3.708-2.537-6.086 9.867-17.064 27.7-24.504 17.843-7.44 34.358-8.538 36.895-2.44.842 2.013.037 4.563-2.037 7.331 2.915-3.415 4.147-6.598 3.122-9.038-2.695-6.464-20.027-5.379-38.713 2.403l.012.012Z" stroke="#29256A" stroke-linejoin="round"/><path d="M113.221 55.654c10.032-7.574 9.743-13.58-.64-13.443-5.166.076-11.875 1.668-18.534 4.176-.05.025-.1.038-.15.063-6.66 2.52-13.268 5.969-18.271 9.743-.477.364-.916.715-1.355 1.066-.025.013-.037.038-.062.05-.289.239-.552.464-.815.69h-.013l-.69.615c-6.909 6.382-5.668 11.135 3.574 11.01 10.383-.15 26.924-6.408 36.943-13.97h.013Zm-4.101.063a44.685 44.685 0 0 1-4.05 2.709l.012-.013c2.17-2.47 2.132-4.326 1.292-5.38 6.27-4.1 6.934-5.894 5.317-6.257-.038 0-.088-.025-.138-.025-1.38-.226-4.101.614-6.069 1.856-1.982 1.241-2.471 2.432-1.091 2.658.125.025.25.025.388.038-.188.138-.388.288-.602.439-1.354-.44-2.997-.565-4.752-.514-.64 0-1.317.05-2.032.112 2.17-1.379 5.041-2.909 7.951-4 2.809-1.053 5.567-1.618 7.361-1.38.338.05.652.139.877.252 0 0 .025 0 .038.012 2.583 1.668 1.103 5.292-4.502 9.518v-.025Zm-15.173 1.63a67.072 67.072 0 0 1-3.461 1.33c.15-.766.564-1.568 1.178-2.408.038-.05.063-.088.1-.138.427-.527.966-1.116 1.631-1.743 1.568-.176 2.91-.226 4.013-.126.063 0 .113 0 .175.013.665.075 1.28.213 1.831.414a61.723 61.723 0 0 1-5.191 2.533 6.2 6.2 0 0 1-.276.112v.013Zm10.245-11.7h-.025c-4.991 1.994-9.317 4.54-12.089 6.521-7.26 1.568-11.223 3.612-12.665 5.141-.038.038-.075.088-.113.126-1.028 1.191-.088 1.806 2.094 1.367 2.182-.427 4.778-1.743 5.806-2.935.088-.1.163-.2.213-.3.264-.076.527-.139.816-.214-1.518 1.467-2.458 2.721-2.985 3.775-.213.401-.376.79-.502 1.153-2.432.502-4.953.753-6.433.377-1.43-.364-1.73-1.367-.501-2.86.225-.275.552-.601.903-.902.326-.264.652-.527 1.003-.79 6.533-4.904 16.615-9.117 24.478-10.459ZM80.241 66.64c-4.013.063-6.082-1.066-6.22-2.934 2.821.476 7.185-.226 10.797-1.154.99 2.52 4.288 2.295 7.348 1.116.088-.037.163-.063.25-.1 2.409-.966 4.19-2.408 3.989-3.223-.201-.815-2.308-.69-4.715.276-.214.088-.414.176-.615.263-.063-.075-.138-.15-.2-.225a78.505 78.505 0 0 0 7.724-3.248c.853-.414 1.706-.828 2.533-1.267.263.878-.075 2.17-1.517 3.637-1.38 1.417-3.837 2.984-6.86 4.226-.576.238-1.203.464-1.78.652h-.025c-3.9 1.204-7.65 1.931-10.71 1.969v.012Z" fill="url(#h)" stroke="#3442C0" stroke-linejoin="round"/><path style="mix-blend-mode:overlay" opacity=".9" d="M111.7 46.776s-.088-.025-.138-.025a3.71 3.71 0 0 0-.853-.025c.665.778-.928 2.809-7.11 6.696-2.044 1.292-4.289 2.508-6.609 3.612a76.761 76.761 0 0 1-6.533 2.809c.088.313.226.59.401.802a78.484 78.484 0 0 0 7.725-3.248 64.967 64.967 0 0 0 6.609-3.611c7.373-4.64 8.213-6.634 6.495-7.01h.013Z" fill="url(#i)"/><path d="M103.603 53.435c6.182-3.887 7.774-5.919 7.11-6.696-.076 0-.151.012-.239.025.602.802-1.028 2.834-7.135 6.671-2.044 1.292-4.288 2.508-6.608 3.611a78.796 78.796 0 0 1-6.295 2.722c0 .037.012.062.025.1a76.728 76.728 0 0 0 6.533-2.809 64.977 64.977 0 0 0 6.609-3.611v-.013Z" fill="#fff" style="mix-blend-mode:overlay" opacity=".8"/><path style="mix-blend-mode:overlay" opacity=".5" d="M84.654 62.075a2.33 2.33 0 0 1-.05-.314c-3.612.715-7.763 1.091-10.296.34-.226.576-.339 1.115-.3 1.592 2.82.476 7.184-.226 10.796-1.154a3.01 3.01 0 0 1-.15-.477v.013Z" fill="url(#j)"/><path style="mix-blend-mode:overlay" opacity=".6" d="M84.603 61.761s-.012-.1-.012-.15c-3.6.69-7.7 1.016-10.158.226-.037.088-.075.175-.113.276 2.533.752 6.672.376 10.296-.339l-.013-.013Z" fill="url(#k)"/><path style="mix-blend-mode:overlay" opacity=".9" d="M79.43 57.322s-.076.088-.113.126c-.176.213-.301.4-.364.577 2.057-1.493 6.233-3.248 13.042-4.603 2.257-.451 4.276-.664 6.006-.69 1.505-.05 2.935.05 4.164.352a43.324 43.324 0 0 0 2.019-1.355c-1.355-.438-2.998-.576-4.753-.514-1.73.025-3.75.251-6.007.69-8.113 1.605-12.477 3.787-14.007 5.417h.013Z" fill="url(#l)"/><path d="M91.993 53.422c-6.822 1.342-10.985 3.11-13.041 4.602-.013.038-.025.088-.038.126 2.094-1.48 6.232-3.21 12.954-4.54 2.257-.451 4.276-.664 6.007-.69 1.454-.037 2.834.05 4.037.326.088-.05.163-.1.239-.15-1.229-.3-2.659-.401-4.164-.351-1.73.025-3.75.25-6.006.69l.012-.013Z" fill="#fff" style="mix-blend-mode:overlay" opacity=".8"/><path style="mix-blend-mode:overlay" opacity=".4" d="M105.21 53.786c-.238.15-.489.301-.739.452.326 1.354-.327 3.511-3.01 6.157a54.717 54.717 0 0 0 3.624-1.994c2.169-2.47 2.132-4.326 1.292-5.367-.377.238-.765.502-1.179.752h.012Z" fill="url(#m)"/><path style="mix-blend-mode:overlay" opacity=".5" d="m104.47 54.238-.376.226c.276 1.379-.464 3.56-3.223 6.232.201-.1.389-.2.589-.301 2.684-2.646 3.336-4.803 3.01-6.157Z" fill="url(#n)"/><path style="mix-blend-mode:overlay" opacity=".9" d="M92.166 63.668c.087-.038.163-.063.25-.1.427-.176.828-.364 1.204-.552-2.734.714-5.304.439-5.931-2.107-.213-.84.012-1.843.602-2.922.451-.903 1.204-1.956 2.37-3.16-.853.176-1.68.364-2.42.552-1.518 1.467-2.446 2.72-2.972 3.774-.59 1.079-.816 2.082-.602 2.922.752 3.035 4.263 2.847 7.499 1.593Z" fill="url(#o)"/><path d="M87.687 60.908c.627 2.546 3.21 2.822 5.931 2.107.088-.05.176-.1.276-.138-2.683.677-5.204.377-5.83-2.132-.214-.84.012-1.843.601-2.921.439-.878 1.154-1.894 2.257-3.047-.087.012-.175.037-.276.05-1.166 1.204-1.918 2.257-2.37 3.16-.589 1.078-.815 2.081-.602 2.921h.013Z" fill="#fff" style="mix-blend-mode:overlay" opacity=".8"/><path style="mix-blend-mode:overlay" opacity=".3" d="m93.417 51.906.79-.15c3.286-2.07 8.088-4.59 13.293-6.496a31.03 31.03 0 0 0-3.324.4c-4.99 1.995-9.317 4.54-12.088 6.522.439-.088.878-.189 1.33-.276Z" fill="url(#p)"/><path style="mix-blend-mode:overlay" opacity=".4" d="M94.21 51.755c.126-.025.264-.05.39-.063 3.323-2.056 8.163-4.577 13.38-6.458-.151 0-.314.013-.477.025-5.216 1.906-10.007 4.44-13.292 6.496Z" fill="url(#q)"/><path d="M113.221 55.654c10.032-7.574 9.743-13.58-.64-13.443-5.166.076-11.875 1.668-18.534 4.176-.05.025-.1.038-.15.063-6.66 2.52-13.268 5.969-18.271 9.743-.477.364-.916.715-1.355 1.066-.025.013-.037.038-.062.05-.289.239-.552.464-.815.69h-.013l-.69.615c-6.909 6.382-5.668 11.135 3.574 11.01 10.383-.15 26.924-6.408 36.943-13.97h.013Zm-4.101.063a44.685 44.685 0 0 1-4.05 2.709l.012-.013c2.17-2.47 2.132-4.326 1.292-5.38 6.27-4.1 6.934-5.894 5.317-6.257-.038 0-.088-.025-.138-.025-1.38-.226-4.101.614-6.069 1.856-1.982 1.241-2.471 2.432-1.091 2.658.125.025.25.025.388.038-.188.138-.388.288-.602.439-1.354-.44-2.997-.565-4.752-.514-.64 0-1.317.05-2.032.112 2.17-1.379 5.041-2.909 7.951-4 2.809-1.053 5.567-1.618 7.361-1.38.338.05.652.139.877.252 0 0 .025 0 .038.012 2.583 1.668 1.103 5.292-4.502 9.518v-.025Zm-15.173 1.63a67.072 67.072 0 0 1-3.461 1.33c.15-.766.564-1.568 1.178-2.408.038-.05.063-.088.1-.138.427-.527.966-1.116 1.631-1.743 1.568-.176 2.91-.226 4.013-.126.063 0 .113 0 .175.013.665.075 1.28.213 1.831.414a61.723 61.723 0 0 1-5.191 2.533 6.2 6.2 0 0 1-.276.112v.013Zm10.245-11.7h-.025c-4.991 1.994-9.317 4.54-12.089 6.521-7.26 1.568-11.223 3.612-12.665 5.141-.038.038-.075.088-.113.126-1.028 1.191-.088 1.806 2.094 1.367 2.182-.427 4.778-1.743 5.806-2.935.088-.1.163-.2.213-.3.264-.076.527-.139.816-.214-1.518 1.467-2.458 2.721-2.985 3.775-.213.401-.376.79-.502 1.153-2.432.502-4.953.753-6.433.377-1.43-.364-1.73-1.367-.501-2.86.225-.275.552-.601.903-.902.326-.264.652-.527 1.003-.79 6.533-4.904 16.615-9.117 24.478-10.459ZM80.241 66.64c-4.013.063-6.082-1.066-6.22-2.934 2.821.476 7.185-.226 10.797-1.154.99 2.52 4.288 2.295 7.348 1.116.088-.037.163-.063.25-.1 2.409-.966 4.19-2.408 3.989-3.223-.201-.815-2.308-.69-4.715.276-.214.088-.414.176-.615.263-.063-.075-.138-.15-.2-.225a78.505 78.505 0 0 0 7.724-3.248c.853-.414 1.706-.828 2.533-1.267.263.878-.075 2.17-1.517 3.637-1.38 1.417-3.837 2.984-6.86 4.226-.576.238-1.203.464-1.78.652h-.025c-3.9 1.204-7.65 1.931-10.71 1.969v.012Z" stroke="#3442C0" stroke-linejoin="round"/><path d="M18.559 49.133C7.393 62.14 12.457 84.823 29.86 99.795c17.403 14.972 40.556 16.559 51.716 3.542 1.869-2.18 3.702-4.309 5.565-6.498 11.16-13.017 6.095-35.7-11.309-50.672-17.397-14.963-40.55-16.55-51.709-3.533-1.869 2.18-3.703 4.31-5.565 6.499Z" fill="url(#r)"/><path d="M18.559 49.133C7.393 62.14 12.457 84.823 29.86 99.795c17.403 14.972 40.556 16.559 51.716 3.542 1.869-2.18 3.702-4.309 5.565-6.498 11.16-13.017 6.095-35.7-11.309-50.672-17.397-14.963-40.55-16.55-51.709-3.533-1.869 2.18-3.703 4.31-5.565 6.499Z" fill="url(#s)" style="mix-blend-mode:multiply" opacity=".3"/><mask id="u" style="mask-type:alpha" maskUnits="userSpaceOnUse" x="12" y="33" width="82" height="80"><path d="M18.559 49.133C7.393 62.139 12.457 84.822 29.86 99.794c17.403 14.972 40.556 16.558 51.716 3.542 1.869-2.18 3.702-4.31 5.565-6.499 11.16-13.016 6.095-35.7-11.309-50.672-17.397-14.962-40.55-16.549-51.709-3.532-1.869 2.18-3.703 4.309-5.565 6.498Z" fill="url(#t)"/></mask><g mask="url(#u)" stroke="#29256A"><path d="m67.184 4.914-60.31 56.89M70.534 9.413l-60.31 56.89M73.883 13.912l-60.31 56.89M77.233 18.411l-60.31 56.89M83.932 27.41 23.622 84.3M87.282 31.91 26.972 88.8M80.582 22.911l-60.309 56.89M90.633 36.41 30.323 93.3M93.981 40.91 33.671 97.8M97.33 45.41 37.022 102.3M100.68 49.91 40.37 106.8M104.03 54.41l-60.31 56.889M107.379 58.908l-60.31 56.89M110.729 63.407l-60.31 56.89M114.079 67.907l-60.72 56.327"/></g><path d="M18.559 49.133C7.393 62.14 12.457 84.823 29.86 99.795c17.403 14.972 40.556 16.559 51.716 3.542 1.869-2.18 3.702-4.309 5.565-6.498 11.16-13.017 6.095-35.7-11.309-50.672-17.397-14.963-40.55-16.55-51.709-3.533-1.869 2.18-3.703 4.31-5.565 6.499Z" stroke="#29256A" stroke-linejoin="round"/><path d="M81.582 103.345c11.158-13.014 6.094-35.7-11.311-50.67-17.406-14.97-40.561-16.556-51.72-3.542-11.158 13.014-6.093 35.7 11.312 50.67 17.405 14.971 40.56 16.556 51.719 3.542Z" fill="url(#v)" stroke="#29256A" stroke-linejoin="round"/><path opacity=".1" d="M16.73 51.564c-8.68 13.267-3.236 34.158 13.13 48.232 16.367 14.074 37.809 16.319 49.588 5.727L16.73 51.564Z" fill="#fff"/><path d="M32.56 96.65c14.696 12.636 34.341 13.86 43.882 2.733 3.607-4.203 5.253-9.57 5.114-15.312-.234 4.655-1.768 8.975-4.74 12.44-8.995 10.488-27.652 9.208-41.68-2.856C21.11 81.59 17.027 63.302 26.02 52.814c2.972-3.465 7.003-5.644 11.572-6.567-5.682.728-10.733 3.164-14.349 7.374-9.541 11.127-5.37 30.387 9.317 43.029Z" fill="url(#w)" style="mix-blend-mode:multiply" opacity=".5"/><path d="M32.56 96.65c14.696 12.636 34.341 13.86 43.882 2.733 3.607-4.203 5.253-9.57 5.114-15.312-.234 4.655-1.768 8.975-4.74 12.44-8.995 10.488-27.652 9.208-41.68-2.856C21.11 81.59 17.027 63.302 26.02 52.814c2.972-3.465 7.003-5.644 11.572-6.567-5.682.728-10.733 3.164-14.349 7.374-9.541 11.127-5.37 30.387 9.317 43.029Z" stroke="#29256A" stroke-linejoin="round"/><path d="M76.505 98.98s.219-.297.628-.873c.2-.285.463-.64.756-1.056.309-.412.535-.95.86-1.527.158-.285.313-.596.493-.91.165-.316.265-.688.414-1.05.268-.747.626-1.525.798-2.417.22-.882.476-1.815.55-2.836.068-.504.124-1.027.19-1.556.007-.533.018-1.082.023-1.64.076-1.121-.107-2.278-.19-3.473-.037-.6-.2-1.202-.3-1.816-.127-.61-.183-1.24-.384-1.858-.36-1.235-.66-2.508-1.183-3.76-.249-.627-.443-1.277-.743-1.898-.29-.628-.59-1.25-.88-1.877-.271-.64-.658-1.246-1.01-1.861-.36-.609-.68-1.26-1.085-1.852-.821-1.18-1.588-2.423-2.547-3.54-1.771-2.343-3.953-4.43-6.139-6.415-2.343-1.91-4.689-3.721-7.277-5.122-1.246-.774-2.582-1.35-3.889-1.986-.653-.318-1.336-.533-1.983-.8-.66-.244-1.31-.537-1.993-.71-.67-.197-1.33-.4-1.994-.586-.66-.202-1.333-.299-1.987-.45-1.311-.328-2.616-.438-3.886-.599-.631-.096-1.273-.061-1.892-.096-.625-.004-1.228-.077-1.831-.026-1.197.096-2.374.096-3.459.341a95.93 95.93 0 0 1-1.617.277c-.513.145-1.017.284-1.505.426-.998.23-1.878.616-2.726.968-.863.307-1.576.779-2.27 1.154-.34.197-.684.369-.977.576-.286.217-.562.427-.825.615-.508.405-1.022.717-1.38 1.078-.363.352-.668.665-.919.914-.502.498-.771.76-.771.76s.263-.272.742-.783c.245-.259.54-.565.891-.936.344-.38.836-.705 1.347-1.126.25-.208.527-.418.816-.651.286-.217.63-.389.967-.611.684-.411 1.395-.908 2.255-1.24.844-.379 1.724-.807 2.723-1.078a127.51 127.51 0 0 0 1.52-.464c.53-.1 1.086-.203 1.64-.306 1.114-.264 2.304-.287 3.514-.406.606-.067 1.228-.006 1.863-.009.629.029 1.274-.022 1.925.061 1.298.142 2.632.233 3.972.542 1.36.212 2.696.62 4.058 1.026.692.168 1.349.47 2.025.717.673.264 1.372.483 2.025.8 1.317.63 2.685 1.213 3.963 1.993 2.636 1.411 5.088 3.277 7.405 5.148 2.253 2.067 4.432 4.17 6.231 6.577.963 1.142 1.742 2.405 2.563 3.626.403.61.738 1.263 1.096 1.888.348.63.734 1.237 1.008 1.903.6 1.284 1.203 2.552 1.623 3.858.51 1.275.795 2.586 1.132 3.85.19.624.234 1.276.351 1.893.082.627.244 1.228.268 1.851.061 1.224.222 2.41.126 3.543a177.98 177.98 0 0 0-.062 1.666c-.075.535-.157 1.062-.229 1.581-.108 1.03-.4 1.973-.645 2.858-.208.901-.582 1.676-.882 2.417-.158.368-.28.727-.455 1.05-.18.314-.351.622-.525.903-.348.564-.59 1.098-.905 1.501-.315.403-.576.742-.792 1.024-.43.563-.656.85-.656.85l.032-.035Z" fill="#29256A"/><path d="M58.873 55.807c-12.77-7.7-26.76-5.37-31.275 5.201-2.246 5.27-1.715 11.585.968 17.556l-.007.006c.032.04.049.091.074.137 2.712 5.96 7.555 11.565 13.914 15.39.61.366 1.214.708 1.82 1.023.028.017.055.034.083.037.402.207.804.414 1.215.601a22.001 22.001 0 0 0 1.124.506c11.484 4.904 23.01 2.031 27.027-7.376 4.51-10.578-2.18-25.39-14.943-33.081Zm-1.78 4.172a29.559 29.559 0 0 1 4.347 3.224s-.02-.009-.034-.01c-4.69-1.374-8.962-.724-11.78.489-6.51-5.031-10.34-5.102-11.925-3.33-.053.045-.086.098-.125.144-1.158 1.484-.509 3.99 1.435 5.594 1.943 1.605 4.457 1.698 5.607.22.096-.132.185-.272.26-.413.237.146.48.3.737.47a13.74 13.74 0 0 0-3.413 5.037c-.28.654-.513 1.333-.699 2.04-2.173-1.744-4.363-4.173-5.515-6.775-1.124-2.52-1.13-5.149.268-7.07.264-.363.611-.703.975-.977l.045-.038c5.061-3.2 12.702-2.924 19.832 1.383l-.016.012ZM53.76 74.957l.007.008c.547.956 1.031 1.99 1.446 3.096a18.47 18.47 0 0 1-4.983-.394c-.083-.024-.167-.033-.257-.064a22.433 22.433 0 0 1-3.243-1.083c.31-1.547.853-2.905 1.573-4.067.04-.06.074-.127.114-.187a10.99 10.99 0 0 1 1.79-2.007c1.366 1.45 2.51 2.94 3.416 4.455.044.083.094.16.145.237l-.008.006ZM31.598 68.43l.012.016c2.269 4.431 6.12 8 9.382 10.16.229 6.896 3.066 10.264 5.936 11.22.076.03.159.054.236.069 2.255.649 4.111-.518 4.14-2.608.027-2.09-1.79-4.301-4.045-4.95a4.426 4.426 0 0 0-.58-.127c-.044-.24-.08-.5-.115-.76 2.67 1.057 5.112 1.59 7.306 1.777.817.088 1.63.126 2.433.12.01 2.322-.59 4.82-2.157 6.46-1.507 1.59-3.967 2.229-6.81 1.474a10.413 10.413 0 0 1-1.663-.614c-.456-.241-.904-.489-1.358-.759-8.295-5.002-13.312-13.888-12.724-21.486l.006.008Zm37.166 17.42c-1.738 4.085-5.308 6.591-9.667 7.353 2.428-3.049 2.842-7.276 2.392-10.657 6.281-1.865 7.28-5.168 5.997-7.898l-.11-.225c-1.106-2.127-3.603-3.472-5.574-2.986-1.972.485-2.67 2.603-1.563 4.73.099.181.212.364.326.533a13.47 13.47 0 0 1-.627.282 29.14 29.14 0 0 0-3.887-6.806 32.259 32.259 0 0 0-1.735-2.16c2.156-.571 4.953-.647 7.674.315 2.63.932 5.083 2.92 6.549 5.59.278.508.516 1.074.68 1.598l.013.015c.952 3.585.873 7.179-.46 10.296l-.008.02Z" fill="url(#x)" stroke="#3442C0" stroke-linejoin="round"/><path d="M49.247 66.402c-6.077-5.02-10.02-5.957-12.122-5.009-.028.075-.04.152-.062.235 2.117-.882 6.036.103 12.034 5.043a31.133 31.133 0 0 1 5.24 5.541 29.16 29.16 0 0 1 3.323 5.52c.087-.018.16-.04.246-.058a29.01 29.01 0 0 0-3.427-5.724 30.185 30.185 0 0 0-5.24-5.542l.008-.006Z" fill="#fff" style="mix-blend-mode:overlay" opacity=".8"/><path style="mix-blend-mode:overlay" opacity=".6" d="m59.574 83.025-.367.067c-.102 3.442-1.244 7.534-4.226 10.317.19.013.375.019.573.026 2.909-2.84 3.975-6.962 4.02-10.41Z" fill="url(#y)"/><path style="mix-blend-mode:overlay" opacity=".9" d="M46.934 89.834c.076.03.16.053.236.069.403.114.782.17 1.158.174-2.476-1.612-4.586-5.279-4.504-11.8.026-2.154.457-4.144 1.212-5.914a13.864 13.864 0 0 1 2.763-4.38 25.176 25.176 0 0 0-2.178-1.609 13.785 13.785 0 0 0-3.42 5.043c-.762 1.762-1.185 3.746-1.212 5.914-.098 7.772 2.91 11.486 5.953 12.497l-.008.006Z" fill="url(#z)"/><path d="M43.808 78.29c-.082 6.52 2.028 10.187 4.504 11.8.092.003.178-.002.263-.007-2.431-1.637-4.485-5.297-4.403-11.725.025-2.154.457-4.144 1.211-5.914a13.865 13.865 0 0 1 2.638-4.237l-.24-.197a13.864 13.864 0 0 0-2.763 4.38c-.76 1.762-1.184 3.746-1.211 5.915v-.015Z" fill="#fff" style="mix-blend-mode:overlay" opacity=".8"/><path style="mix-blend-mode:overlay" opacity=".4" d="M50.825 64.65c.24.197.471.4.704.603 3.267-.794 7.924-.855 12.788.994a28.37 28.37 0 0 0-2.907-3.033c-4.69-1.375-8.961-.724-11.773.496.388.298.78.619 1.194.948l-.006-.008Z" fill="url(#A)"/><path style="mix-blend-mode:overlay" opacity=".5" d="M51.522 65.245c.112.105.232.203.344.308 3.3-.741 7.986-.734 12.845 1.185l-.414-.5c-4.864-1.85-9.521-1.789-12.79-.995l.015.002Z" fill="url(#B)"/><path style="mix-blend-mode:overlay" opacity=".9" d="m67.487 74.65-.11-.226a5.425 5.425 0 0 0-.71-1.045c.375 2.547-1.452 5.283-7.619 6.79-2.036.5-4.225.599-6.45.373-1.885-.153-3.946-.568-6.184-1.35a17.28 17.28 0 0 0 .14 2.294c2.67 1.056 5.12 1.584 7.308 1.763 2.218.232 4.407.133 6.45-.373 7.341-1.794 8.537-5.324 7.173-8.213l.002-.014Z" fill="url(#C)"/><path d="M59.048 80.156c6.16-1.5 7.987-4.237 7.619-6.79-.065-.079-.13-.157-.202-.229.314 2.519-1.551 5.195-7.63 6.682-2.037.5-4.226.599-6.452.373-1.82-.153-3.812-.546-5.968-1.277-.007.085 0 .171-.007.256 2.238.782 4.307 1.19 6.183 1.35 2.219.232 4.407.133 6.451-.373l.006.008Z" fill="#fff" style="mix-blend-mode:overlay" opacity=".8"/><path style="mix-blend-mode:overlay" opacity=".3" d="M40.966 77.338c.007-.256.02-.504.033-.752-3.229-2.662-6.813-6.715-8.77-11.404a14.524 14.524 0 0 0-.641 3.27c2.268 4.43 6.119 8 9.381 10.16a17.469 17.469 0 0 1-.01-1.268l.007-.006Z" fill="url(#D)"/><path style="mix-blend-mode:overlay" opacity=".4" d="M41.007 76.58c.01-.127.013-.248.023-.375-3.197-2.701-6.742-6.8-8.626-11.51a6.08 6.08 0 0 0-.159.474c1.956 4.69 5.54 8.743 8.77 11.404l-.008.007Z" fill="url(#E)"/><path d="M58.873 55.807c-12.77-7.7-26.76-5.37-31.275 5.201-2.246 5.27-1.715 11.585.968 17.556l-.007.006c.032.04.049.091.074.137 2.712 5.96 7.555 11.565 13.914 15.39.61.366 1.214.708 1.82 1.023.028.017.055.034.083.037.402.207.804.414 1.215.601a22.001 22.001 0 0 0 1.124.506c11.484 4.904 23.01 2.031 27.027-7.376 4.51-10.578-2.18-25.39-14.943-33.081Zm-1.78 4.172a29.559 29.559 0 0 1 4.347 3.224s-.02-.009-.034-.01c-4.69-1.374-8.962-.724-11.78.489-6.51-5.031-10.34-5.102-11.925-3.33-.053.045-.086.098-.125.144-1.158 1.484-.509 3.99 1.435 5.594 1.943 1.605 4.457 1.698 5.607.22.096-.132.185-.272.26-.413.237.146.48.3.737.47a13.74 13.74 0 0 0-3.413 5.037c-.28.654-.513 1.333-.699 2.04-2.173-1.744-4.363-4.173-5.515-6.775-1.124-2.52-1.13-5.149.268-7.07.264-.363.611-.703.975-.977l.045-.038c5.061-3.2 12.702-2.924 19.832 1.383l-.016.012ZM53.76 74.957l.007.008c.547.956 1.031 1.99 1.446 3.096a18.47 18.47 0 0 1-4.983-.394c-.083-.024-.167-.033-.257-.064a22.433 22.433 0 0 1-3.243-1.083c.31-1.547.853-2.905 1.573-4.067.04-.06.074-.127.114-.187a10.99 10.99 0 0 1 1.79-2.007c1.366 1.45 2.51 2.94 3.416 4.455.044.083.094.16.145.237l-.008.006ZM31.598 68.43l.012.016c2.269 4.431 6.12 8 9.382 10.16.229 6.896 3.066 10.264 5.936 11.22.076.03.159.054.236.069 2.255.649 4.111-.518 4.14-2.608.027-2.09-1.79-4.301-4.045-4.95a4.426 4.426 0 0 0-.58-.127c-.044-.24-.08-.5-.115-.76 2.67 1.057 5.112 1.59 7.306 1.777.817.088 1.63.126 2.433.12.01 2.322-.59 4.82-2.157 6.46-1.507 1.59-3.967 2.229-6.81 1.474a10.413 10.413 0 0 1-1.663-.614c-.456-.241-.904-.489-1.358-.759-8.295-5.002-13.312-13.888-12.724-21.486l.006.008Zm37.166 17.42c-1.738 4.085-5.308 6.591-9.667 7.353 2.428-3.049 2.842-7.276 2.392-10.657 6.281-1.865 7.28-5.168 5.997-7.898l-.11-.225c-1.106-2.127-3.603-3.472-5.574-2.986-1.972.485-2.67 2.603-1.563 4.73.099.181.212.364.326.533a13.47 13.47 0 0 1-.627.282 29.14 29.14 0 0 0-3.887-6.806 32.259 32.259 0 0 0-1.735-2.16c2.156-.571 4.953-.647 7.674.315 2.63.932 5.083 2.92 6.549 5.59.278.508.516 1.074.68 1.598l.013.015c.952 3.585.873 7.179-.46 10.296l-.008.02Z" stroke="#3442C0" stroke-linejoin="round"/></g><defs><linearGradient id="b" x1="46.884" y1="80" x2="133.567" y2="62.983" gradientUnits="userSpaceOnUse"><stop stop-color="#E6007A"/><stop offset=".21" stop-color="#703AC2"/><stop offset=".46" stop-color="#0070EB"/><stop offset=".77" stop-color="#0297FB"/><stop offset="1" stop-color="#0AE2FF"/></linearGradient><linearGradient id="c" x1="46.884" y1="80" x2="133.567" y2="62.983" gradientUnits="userSpaceOnUse"><stop stop-color="#E6007A"/><stop offset=".21" stop-color="#703AC2"/><stop offset=".46" stop-color="#0070EB"/><stop offset=".77" stop-color="#0297FB"/><stop offset="1" stop-color="#0AE2FF"/></linearGradient><linearGradient id="d" x1="72.145" y1="44.52" x2="131.45" y2="75.735" gradientUnits="userSpaceOnUse"><stop stop-color="#E6C1FF"/><stop offset=".406" stop-color="#B6C7FF"/><stop offset="1" stop-color="#AFF1FF"/></linearGradient><linearGradient id="f" x1="43.162" y1="71.757" x2="122.665" y2="53.942" gradientUnits="userSpaceOnUse"><stop stop-color="#E60068"/><stop offset=".21" stop-color="#703AC2"/><stop offset=".46" stop-color="#0070EB"/><stop offset=".77" stop-color="#0297FB"/><stop offset="1" stop-color="#0AE2FF"/></linearGradient><linearGradient id="g" x1="67.165" y1="33.661" x2="72.948" y2="78.219" gradientUnits="userSpaceOnUse"><stop stop-color="#E6007A"/><stop offset=".21" stop-color="#703AC2"/><stop offset=".46" stop-color="#0070EB"/><stop offset=".77" stop-color="#0297FB"/><stop offset="1" stop-color="#0AE2FF"/></linearGradient><linearGradient id="h" x1="80.198" y1="47.918" x2="114.739" y2="68.76" gradientUnits="userSpaceOnUse"><stop stop-color="#E6C1FF"/><stop offset=".406" stop-color="#B6C7FF"/><stop offset="1" stop-color="#AFF1FF"/></linearGradient><linearGradient id="k" x1="100.399" y1="62.93" x2="104.137" y2="63.005" gradientUnits="userSpaceOnUse"><stop stop-color="#fff" stop-opacity="0"/><stop offset="1" stop-color="#fff"/></linearGradient><linearGradient id="n" x1="70.506" y1="106.944" x2="72.187" y2="104.321" gradientUnits="userSpaceOnUse"><stop stop-color="#fff" stop-opacity="0"/><stop offset="1" stop-color="#fff"/></linearGradient><linearGradient id="q" x1="219.502" y1="-8.162" x2="214.193" y2="-5.468" gradientUnits="userSpaceOnUse"><stop stop-color="#fff" stop-opacity="0"/><stop offset="1" stop-color="#fff"/></linearGradient><linearGradient id="r" x1="13.337" y1="44.804" x2="84.927" y2="103.546" gradientUnits="userSpaceOnUse"><stop stop-color="#E6007A"/><stop offset=".21" stop-color="#703AC2"/><stop offset=".46" stop-color="#0070EB"/><stop offset=".77" stop-color="#0297FB"/><stop offset="1" stop-color="#0AE2FF"/></linearGradient><linearGradient id="s" x1="13.337" y1="44.804" x2="84.927" y2="103.546" gradientUnits="userSpaceOnUse"><stop stop-color="#E6007A"/><stop offset=".21" stop-color="#703AC2"/><stop offset=".46" stop-color="#0070EB"/><stop offset=".77" stop-color="#0297FB"/><stop offset="1" stop-color="#0AE2FF"/></linearGradient><linearGradient id="t" x1="13.337" y1="44.804" x2="84.927" y2="103.545" gradientUnits="userSpaceOnUse"><stop stop-color="#E6007A"/><stop offset=".21" stop-color="#703AC2"/><stop offset=".46" stop-color="#0070EB"/><stop offset=".77" stop-color="#0297FB"/><stop offset="1" stop-color="#0AE2FF"/></linearGradient><linearGradient id="v" x1=".637" y1="63.598" x2="87.444" y2="99.772" gradientUnits="userSpaceOnUse"><stop stop-color="#E6007A"/><stop offset=".21" stop-color="#703AC2"/><stop offset=".46" stop-color="#0070EB"/><stop offset=".77" stop-color="#0297FB"/><stop offset="1" stop-color="#0AE2FF"/></linearGradient><linearGradient id="w" x1="9.247" y1="54.122" x2="73.245" y2="103.855" gradientUnits="userSpaceOnUse"><stop stop-color="#E6007A"/><stop offset=".21" stop-color="#703AC2"/><stop offset=".46" stop-color="#0070EB"/><stop offset=".77" stop-color="#0297FB"/><stop offset="1" stop-color="#0AE2FF"/></linearGradient><linearGradient id="x" x1="31.974" y1="69.842" x2="64.295" y2="53.962" gradientUnits="userSpaceOnUse"><stop stop-color="#E6C1FF"/><stop offset=".406" stop-color="#B6C7FF"/><stop offset="1" stop-color="#AFF1FF"/></linearGradient><linearGradient id="y" x1="54.948" y1="92.887" x2="57.222" y2="89.119" gradientUnits="userSpaceOnUse"><stop stop-color="#fff" stop-opacity="0"/><stop offset="1" stop-color="#fff"/></linearGradient><linearGradient id="B" x1="64.186" y1="65.853" x2="59.041" y2="65.874" gradientUnits="userSpaceOnUse"><stop stop-color="#fff" stop-opacity="0"/><stop offset="1" stop-color="#fff"/></linearGradient><linearGradient id="E" x1="33.245" y1="64.908" x2="36.006" y2="69.88" gradientUnits="userSpaceOnUse"><stop stop-color="#fff" stop-opacity="0"/><stop offset="1" stop-color="#fff"/></linearGradient><radialGradient id="i" cx="0" cy="0" r="1" gradientUnits="userSpaceOnUse" gradientTransform="matrix(6.64388 .25291 -.20923 5.4963 116.396 53.866)"><stop stop-color="#fff"/><stop offset="1" stop-color="#fff" stop-opacity="0"/></radialGradient><radialGradient id="j" cx="0" cy="0" r="1" gradientUnits="userSpaceOnUse" gradientTransform="rotate(2.18 -1620.55 2822.232) scale(3.86231 3.19518)"><stop stop-color="#fff"/><stop offset="1" stop-color="#fff" stop-opacity="0"/></radialGradient><radialGradient id="l" cx="0" cy="0" r="1" gradientUnits="userSpaceOnUse" gradientTransform="matrix(3.05864 -4.64397 5.50208 3.62382 68.03 89.66)"><stop stop-color="#fff"/><stop offset="1" stop-color="#fff" stop-opacity="0"/></radialGradient><radialGradient id="m" cx="0" cy="0" r="1" gradientUnits="userSpaceOnUse" gradientTransform="rotate(-56.63 132.68 -16.795) scale(3.2303 3.8272)"><stop stop-color="#fff"/><stop offset="1" stop-color="#fff" stop-opacity="0"/></radialGradient><radialGradient id="o" cx="0" cy="0" r="1" gradientUnits="userSpaceOnUse" gradientTransform="rotate(155.72 98.841 25.114) scale(10.6379 3.44523)"><stop stop-color="#fff"/><stop offset="1" stop-color="#fff" stop-opacity="0"/></radialGradient><radialGradient id="p" cx="0" cy="0" r="1" gradientUnits="userSpaceOnUse" gradientTransform="rotate(155.72 105.945 20.359) scale(6.1797 2.00138)"><stop stop-color="#fff"/><stop offset="1" stop-color="#fff" stop-opacity="0"/></radialGradient><radialGradient id="z" cx="0" cy="0" r="1" gradientUnits="userSpaceOnUse" gradientTransform="matrix(-9.23742 -1.55327 1.41647 -8.42387 125.094 93.047)"><stop stop-color="#fff"/><stop offset="1" stop-color="#fff" stop-opacity="0"/></radialGradient><radialGradient id="A" cx="0" cy="0" r="1" gradientUnits="userSpaceOnUse" gradientTransform="matrix(-5.3684 -.9027 .8232 -4.8956 140.964 79.65)"><stop stop-color="#fff"/><stop offset="1" stop-color="#fff" stop-opacity="0"/></radialGradient><radialGradient id="C" cx="0" cy="0" r="1" gradientUnits="userSpaceOnUse" gradientTransform="matrix(5.54673 8.43761 -6.62226 4.35336 110.586 157.077)"><stop stop-color="#fff"/><stop offset="1" stop-color="#fff" stop-opacity="0"/></radialGradient><radialGradient id="D" cx="0" cy="0" r="1" gradientUnits="userSpaceOnUse" gradientTransform="matrix(3.22352 4.90357 -3.84859 2.53 90.574 152.479)"><stop stop-color="#fff"/><stop offset="1" stop-color="#fff" stop-opacity="0"/></radialGradient><clipPath id="a"><path fill="#fff" d="M0 0h150v130H0z"/></clipPath></defs></svg>