<svg width="182" height="184" fill="none" xmlns="http://www.w3.org/2000/svg"><path d="m36.895 160.272 88.256-50.913V71.855l-88.257 50.94v37.477Z" fill="#B4CAED" stroke="#220E6E" stroke-width=".75" stroke-linejoin="round"/><path d="M36.895 160.272v-37.477L17.93 111.843v37.477l18.965 10.952Z" fill="#DAE5F8" stroke="#220E6E" stroke-width=".75" stroke-linejoin="round"/><path d="m36.895 122.795 88.257-50.94-18.966-10.952-88.256 50.94 18.965 10.952Z" fill="#fff" stroke="#220E6E" stroke-width=".75" stroke-linejoin="round"/><path d="m35.482 121.967 88.257-50.913v-2.271l-88.257 50.94v2.244Z" fill="#295E87" stroke="#220E6E" stroke-width=".75" stroke-linejoin="round"/><path d="M35.485 121.967v-2.244l-16.08-9.296v2.244l16.08 9.296Z" fill="#536FF8" stroke="#220E6E" stroke-width=".75" stroke-linejoin="round"/><path d="m35.485 119.723 88.256-50.94-16.08-9.27-88.257 50.914 16.08 9.296Z" fill="#BDC1EE" stroke="#220E6E" stroke-width=".75" stroke-linejoin="round"/><path d="m29.982 116.544 88.256-50.94-4.995-2.885-88.257 50.94 4.995 2.885Z" fill="#220E6E"/><path d="m26.51 113.632.908.535 85.692-49.418 2.484 1.443.935-.534-3.419-1.977-86.6 49.951Z" fill="#220E6E"/><path d="m27.418 114.167 2.51 1.469 85.666-49.444-2.484-1.442-85.692 49.417Z" fill="#536FF8" stroke="#220E6E" stroke-width=".75" stroke-linejoin="round"/><path d="m64.861 181.801 104.524-80.002-47.494-27.433c-2.163-1.256-5.155-1.096-8.441.801L25.568 125.92c-6.571 3.793-11.914 13.062-11.914 20.648 0 3.793 1.336 6.438 3.473 7.693h.027l47.707 27.54Z" fill="url(#a)" stroke="#220E6E" stroke-width=".75"/><path d="M161.024 130.167 73.142 180.92c-6.571 3.793-11.913.695-11.913-6.865 0-7.559 5.342-16.855 11.913-20.648l87.882-50.753c6.572-3.793 11.914-.695 11.914 6.865 0 7.559-5.342 16.855-11.914 20.648Z" fill="#536FF8" stroke="#220E6E" stroke-width=".75" stroke-linejoin="round"/><path d="m171.606 106.18-3.099-2.137c-1.87-1.229-4.514-1.149-7.479.561l-87.883 50.752c-5.636 3.259-10.204 11.193-10.204 17.71 0 3.072 1.015 5.289 2.698 6.411l3.179 2.217.347-1.362c1.229-.107 2.565-.561 3.98-1.362l87.883-50.753c5.663-3.259 10.23-11.192 10.23-17.71 0-1.042-.133-1.977-.347-2.805l.695-1.496v-.026Z" fill="#fff" stroke="#220E6E" stroke-width=".75" stroke-linejoin="round"/><path d="M164.178 106.794 76.295 157.52c-5.636 3.259-10.23 11.193-10.23 17.71 0 6.518 4.567 9.162 10.23 5.904l87.883-50.726c5.636-3.259 10.23-11.193 10.23-17.71 0-6.518-4.568-9.163-10.23-5.904Z" fill="#BDC1EE" stroke="#220E6E" stroke-width=".75" stroke-linejoin="round"/><path d="m170.379 112.484-1.95-1.122c-1.068-.668-2.591-.588-4.247.374-3.286 1.896-5.93 6.491-5.93 10.284 0 1.79.588 3.072 1.576 3.713l2.404 1.416.614-1.122a6.394 6.394 0 0 0 1.336-.588c3.286-1.896 5.93-6.491 5.93-10.284 0-.668-.08-1.282-.24-1.79l.507-.908v.027Z" fill="#7A8EF0" stroke="#220E6E" stroke-width=".75" stroke-linejoin="round"/><path d="M172.22 116.357c0 3.793-2.672 8.388-5.931 10.284-3.285 1.897-5.93.347-5.93-3.419s2.645-8.388 5.93-10.284c3.286-1.897 5.931-.374 5.931 3.419Z" fill="#536FF8" stroke="#220E6E" stroke-width=".75" stroke-linejoin="round"/><path d="m82.487 163.21-1.923-1.122c-1.095-.668-2.591-.588-4.247.374-3.286 1.896-5.93 6.491-5.93 10.284 0 1.79.614 3.072 1.576 3.713l2.404 1.416.614-1.122a6.408 6.408 0 0 0 1.336-.588c3.285-1.897 5.93-6.491 5.93-10.284 0-.668-.107-1.282-.24-1.79l.507-.908-.027.027Z" fill="#7A8EF0" stroke="#220E6E" stroke-width=".75" stroke-linejoin="round"/><path d="M84.329 167.11c0 3.793-2.645 8.387-5.93 10.284-3.286 1.896-5.93.347-5.93-3.419 0-3.767 2.67-8.388 5.93-10.284 3.285-1.897 5.93-.348 5.93 3.419Z" fill="#536FF8" stroke="#220E6E" stroke-width=".75" stroke-linejoin="round"/><path d="M70.398 117.018v25.237l23.62-13.763v-25.209l-23.62 13.735Z" fill="url(#b)" fill-opacity=".9" stroke="#220E6E" stroke-width=".75" stroke-linejoin="round"/><path d="M70.422 117.018v25.237l-23.703-13.791v-25.209l23.703 13.763Z" fill="url(#c)" fill-opacity=".9" stroke="#220E6E" stroke-width=".75" stroke-linejoin="round"/><path d="m46.719 103.256 23.703 13.762 23.592-13.735-23.73-13.79-23.565 13.763Z" fill="url(#d)" fill-opacity=".9" stroke="#220E6E" stroke-width=".75" stroke-linejoin="round"/><path d="M128.707 82.432v25.209l23.62-13.735V68.697l-23.62 13.735Z" fill="url(#e)" fill-opacity=".9" stroke="#220E6E" stroke-width=".75" stroke-linejoin="round"/><path d="M128.736 82.432v25.209l-23.675-13.763V68.67l23.675 13.763Z" fill="url(#f)" fill-opacity=".9" stroke="#220E6E" stroke-width=".75" stroke-linejoin="round"/><path d="m105.061 68.67 23.675 13.762 23.592-13.735-23.703-13.79-23.564 13.763Z" fill="url(#g)" fill-opacity=".9" stroke="#220E6E" stroke-width=".75" stroke-linejoin="round"/><path d="M84.678 28.822c-.775-.454-1.496-.48-1.977-.16l-2.965 1.71 3.954 6.624 2.938-1.683c.48-.294.801-.908.801-1.763 0-1.736-1.228-3.873-2.724-4.755l-.027.027Z" fill="#536FF8" stroke="#220E6E" stroke-width=".75" stroke-linejoin="round"/><path d="M81.713 30.559c-1.523-.882-2.725-.16-2.725 1.576s1.229 3.846 2.725 4.728c1.496.881 2.725.16 2.725-1.576 0-1.737-1.23-3.874-2.725-4.728Z" fill="#7A8EF0" stroke="#220E6E" stroke-width=".75" stroke-linejoin="round"/><path d="M91.33 55.72c-.989-.587-1.87-.614-2.485-.186l-3.74 2.164 4.969 8.307 3.66-2.11c.614-.374.988-1.122.988-2.217 0-2.164-1.523-4.835-3.42-5.93l.027-.027Z" fill="#536FF8" stroke="#220E6E" stroke-width=".75" stroke-linejoin="round"/><path d="M87.564 57.885c-1.897-1.096-3.42-.214-3.42 1.976s1.523 4.835 3.42 5.93c1.896 1.096 3.419.214 3.419-1.976s-1.523-4.835-3.42-5.93Z" fill="#7A8EF0" stroke="#220E6E" stroke-width=".75" stroke-linejoin="round"/><path d="M86.281 34.725c-.8-3.285-3.419-6.33-5.85-6.811-.747-.134-1.388-.027-1.896.294l-4.22 2.43 3.232 6.465.614-.348 4.327 22.625c.588 2.405 1.924 4.702 3.526 6.385l2.19 4.754 4.301-2.484c1.63-.881 2.297-3.285 1.55-6.357l-7.827-26.926.053-.027Z" fill="#BDC1EE" stroke="#220E6E" stroke-width=".75" stroke-linejoin="round"/><path d="M81.874 37.263c-.801-3.286-3.42-6.304-5.85-6.812-2.43-.48-3.766 1.763-2.965 5.049l5.049 26.391c1.041 4.301 4.487 8.281 7.666 8.922 3.205.641 4.942-2.324 3.9-6.624l-7.827-26.926h.027Z" fill="#fff" stroke="#220E6E" stroke-width=".75" stroke-linejoin="round"/><path d="M81.102 60.315c-.828 1.443-.187 4.14 1.496 6.09 1.656 1.924 3.687 2.351 4.541.909.828-1.443.187-4.167-1.495-6.09-1.657-1.924-3.687-2.324-4.542-.909ZM74.954 33.363c-.694 1.176-.16 3.393 1.203 4.969 1.362 1.576 3.018 1.923 3.686.748.694-1.176.133-3.393-1.202-4.969-1.363-1.576-3.019-1.896-3.687-.748Z" fill="#7A8EF0" stroke="#220E6E" stroke-width=".75" stroke-linejoin="round"/><path d="m81.31 7.212-6.384 3.66 2.404 12.955-3.152 23.586 6.384-3.686 9.696-27.86-8.921-8.655h-.027Z" fill="#BDC1EE" stroke="#220E6E" stroke-width=".75" stroke-linejoin="round"/><path d="M80.51 18.858c-2.617-1.522-4.835-4.781-5.556-7.96l-9.696 27.887 8.948 8.628 9.697-27.86c-.962.24-2.11.026-3.366-.695h-.027Z" fill="#fff" stroke="#220E6E" stroke-width=".75" stroke-linejoin="round"/><path d="M86.866 1.79c-1.656-.962-3.152-1.016-4.22-.321l-6.304 3.66 8.414 14.076 6.224-3.579h.027c1.041-.614 1.682-1.923 1.682-3.766 0-3.687-2.59-8.2-5.823-10.044v-.027Z" fill="#536FF8" stroke="#220E6E" stroke-width=".75" stroke-linejoin="round"/><path d="M80.51 5.449c-3.206-1.843-5.797-.347-5.797 3.339s2.591 8.2 5.796 10.044c3.206 1.843 5.797.347 5.797-3.34 0-3.686-2.591-8.2-5.797-10.043Z" fill="#7A8EF0" stroke="#220E6E" stroke-width=".75" stroke-linejoin="round"/><path d="m85.076 10.684 15.413 14.184 6.411-1.576 6.384-3.66L91.46 7.026l-6.384 3.66Z" fill="#BDC1EE" stroke="#220E6E" stroke-width=".75" stroke-linejoin="round"/><path d="M106.9 23.292 85.076 10.684c.775 1.576 1.229 3.26 1.229 4.809 0 1.549-.454 2.724-1.229 3.392l21.851 12.608c-1.309-1.496-2.218-3.606-2.218-5.396s.909-2.831 2.218-2.831l-.027.026Z" fill="#fff" stroke="#220E6E" stroke-width=".75" stroke-linejoin="round"/><path d="M84.388 55.534c-2.19-1.282-4.167-1.336-5.556-.4l-6.517 3.739 2.778 4.541 2.377-1.068L85.136 90.5l6.812-3.927V68.65c0-4.835-3.393-10.712-7.586-13.116h.026Z" fill="#BDC1EE" stroke="#220E6E" stroke-width=".75" stroke-linejoin="round"/><path d="M77.576 59.46c-4.167-2.403-7.586-.453-7.586 4.382v17.923l15.146 8.762V72.603c0-4.835-3.392-10.711-7.586-13.116l.026-.026Z" fill="#7A8EF0" stroke="#220E6E" stroke-width=".75" stroke-linejoin="round"/><path d="M75.278 41.056c-.802-3.285-3.42-6.33-5.85-6.811-.748-.16-1.39-.054-1.897.267l-4.22 2.43 3.232 6.465.614-.374 4.327 22.625c.588 2.404 1.924 4.701 3.526 6.384l2.19 4.755 4.301-2.484c1.63-.882 2.298-3.26 1.55-6.331l-7.827-26.926h.053Z" fill="#BDC1EE" stroke="#220E6E" stroke-width=".75" stroke-linejoin="round"/><path d="M70.868 43.594c-.801-3.26-3.42-6.304-5.85-6.785-2.43-.481-3.766 1.763-2.965 5.048l5.049 26.365c1.041 4.3 4.487 8.28 7.666 8.922 3.205.641 4.942-2.324 3.9-6.625l-7.8-26.925Z" fill="#fff" stroke="#220E6E" stroke-width=".75" stroke-linejoin="round"/><path d="M66.435 39.373c-.801-.454-1.496-.48-2.003-.16l-2.965 1.71 3.98 6.624 2.912-1.683c.48-.293.774-.908.774-1.79 0-1.736-1.229-3.846-2.724-4.727l.026.026Z" fill="#536FF8" stroke="#220E6E" stroke-width=".75" stroke-linejoin="round"/><path d="M63.443 41.11c-1.522-.882-2.724-.16-2.724 1.576s1.228 3.873 2.724 4.728c1.496.855 2.725.16 2.725-1.576 0-1.737-1.229-3.847-2.725-4.728Z" fill="#7A8EF0" stroke="#220E6E" stroke-width=".75" stroke-linejoin="round"/><path d="M73.057 66.246c-.989-.561-1.87-.588-2.485-.187l-3.713 2.163 4.969 8.308 3.66-2.11c.614-.374.988-1.149.988-2.217 0-2.19-1.523-4.835-3.42-5.93v-.027Z" fill="#536FF8" stroke="#220E6E" stroke-width=".75" stroke-linejoin="round"/><path d="M69.318 68.436c-1.897-1.095-3.42-.214-3.42 1.977 0 2.19 1.523 4.835 3.42 5.93 1.87 1.095 3.419.213 3.419-1.977s-1.55-4.835-3.42-5.93Z" fill="#7A8EF0" stroke="#220E6E" stroke-width=".75" stroke-linejoin="round"/><path d="M142.003 40.762c0-1.522-1.041-3.339-2.377-4.114-.668-.373-1.255-.4-1.71-.16l-2.457 1.443 3.446 5.77 2.404-1.39c.427-.24.668-.774.668-1.522l.026-.027Z" fill="#220E6E" stroke="#220E6E" stroke-width=".75" stroke-linejoin="round"/><path d="M139.598 42.178c0 1.523-1.068 2.137-2.377 1.362-1.309-.748-2.377-2.59-2.377-4.113 0-1.523 1.068-2.11 2.377-1.363 1.309.775 2.377 2.591 2.377 4.114Z" fill="#7A8EF0" stroke="#220E6E" stroke-width=".75" stroke-linejoin="round"/><path d="M141.228 42.552c0-2.27-1.603-5.022-3.553-6.17-.988-.588-1.896-.615-2.537-.241l-1.523.882.534.934c0 .16-.026.294-.026.481 0 2.27 1.602 5.022 3.552 6.17.161.08.294.16.455.214l.534.935 1.549-.881c.641-.374 1.015-1.175 1.015-2.297v-.027Z" fill="#536FF8" stroke="#220E6E" stroke-width=".75" stroke-linejoin="round"/><path d="M139.65 43.433c0 2.27-1.602 3.18-3.552 2.057-1.95-1.122-3.553-3.9-3.553-6.17s1.603-3.179 3.553-2.057c1.976 1.148 3.552 3.9 3.552 6.17Z" fill="#7A8EF0" stroke="#220E6E" stroke-width=".75" stroke-linejoin="round"/><path d="M129.335 54.412v3.259c0 .427.294.881.855 1.202 1.149.667 3.019.667 4.194 0 .561-.32.855-.775.855-1.202v-3.26h-5.93.026Z" fill="#536FF8" stroke="#220E6E" stroke-width=".75" stroke-linejoin="round"/><path d="M134.383 55.614c-1.148.668-3.018.668-4.193 0-1.149-.668-1.149-1.736 0-2.43 1.148-.669 3.018-.669 4.193 0 1.149.667 1.149 1.735 0 2.43Z" fill="#220E6E" stroke="#220E6E" stroke-width=".75" stroke-linejoin="round"/><path d="M127.307 52.382v1.442h.026c0 .721.481 1.47 1.47 2.03 1.923 1.122 5.102 1.122 7.025 0 .961-.56 1.469-1.282 1.469-2.03v-1.442h-9.99Z" fill="#BDC1EE" stroke="#220E6E" stroke-width=".75" stroke-linejoin="round"/><path d="M135.826 54.412c-1.924 1.122-5.102 1.122-7.026 0-1.95-1.122-1.95-2.938 0-4.06 1.924-1.122 5.102-1.122 7.026 0 1.95 1.122 1.95 2.938 0 4.06Z" fill="#fff" stroke="#220E6E" stroke-width=".75" stroke-linejoin="round"/><path d="M128.434 49.31v2.725c0 .56.374 1.148 1.122 1.576 1.523.855 3.954.855 5.449 0 .748-.428 1.122-1.015 1.122-1.576V49.31h-7.746.053Z" fill="#BDC1EE" stroke="#220E6E" stroke-width=".75" stroke-linejoin="round"/><path d="M135.028 50.886c-1.496.855-3.926.855-5.449 0-1.496-.881-1.496-2.297 0-3.152 1.523-.854 3.953-.854 5.449 0 1.523.855 1.523 2.27 0 3.152Z" fill="#220E6E" stroke="#220E6E" stroke-width=".75" stroke-linejoin="round"/><path d="M129.045 48.161v.935c0 .481.32.962.962 1.336 1.282.748 3.339.748 4.594 0 .641-.374.962-.855.962-1.336v-.934h-6.518Z" fill="#220E6E" stroke="#220E6E" stroke-width=".75" stroke-linejoin="round"/><path d="M134.601 49.497c-1.282.748-3.339.748-4.594 0-1.283-.721-1.283-1.923 0-2.644 1.282-.748 3.339-.748 4.594 0 1.282.72 1.282 1.923 0 2.644Z" fill="#220E6E" stroke="#220E6E" stroke-width=".75" stroke-linejoin="round"/><path d="m132.303 52.89 7.88-4.541v-9.136l-8.815-5.075-7.907 4.54 8.842 5.103v9.109Z" fill="#fff" stroke="#220E6E" stroke-width=".75" stroke-linejoin="round"/><path d="m123.461 47.787 8.842 5.102v-9.108l-8.842-5.102v9.108Z" fill="#BDC1EE" stroke="#220E6E" stroke-width=".75" stroke-linejoin="round"/><path d="M127.287 35.9v2.94c0 .747.481 1.495 1.469 2.056 1.95 1.148 5.156 1.148 7.106 0 .988-.561 1.469-1.309 1.469-2.057v-2.938h-10.044Z" fill="#536FF8" stroke="#220E6E" stroke-width=".75" stroke-linejoin="round"/><path d="M135.861 37.958c-1.95 1.122-5.156 1.122-7.106 0-1.95-1.122-1.95-2.965 0-4.114 1.95-1.122 5.156-1.122 7.106 0 1.95 1.149 1.95 2.965 0 4.114Z" fill="#7A8EF0" stroke="#220E6E" stroke-width=".75" stroke-linejoin="round"/><path d="M127.814 25.91v9.724c0 .668.428 1.335 1.309 1.816 1.737 1.015 4.595 1.015 6.331 0 .882-.507 1.309-1.175 1.309-1.816V25.91h-8.949Z" fill="#536FF8" stroke="#220E6E" stroke-width=".75" stroke-linejoin="round"/><path d="M135.453 27.727c-1.736 1.015-4.567 1.015-6.33 0-1.737-1.015-1.737-2.644 0-3.66 1.736-1.014 4.594-1.014 6.33 0 1.737 1.016 1.737 2.645 0 3.66Z" fill="#7A8EF0" stroke="#220E6E" stroke-width=".75" stroke-linejoin="round"/><path d="M115.031 20.167c-1.149-.668-2.191-.694-2.912-.214l-6.277 3.633 5.823 9.563 6.09-3.5.161-.08c.667-.453 1.068-1.308 1.068-2.51 0-2.538-1.763-5.61-3.98-6.865l.027-.027Z" fill="#536FF8" stroke="#220E6E" stroke-width=".75" stroke-linejoin="round"/><path d="M108.671 23.826c-2.19-1.255-3.98-.24-3.98 2.298 0 2.537 1.763 5.61 3.98 6.865 2.191 1.255 3.981.24 3.981-2.298 0-2.537-1.79-5.61-3.981-6.891v.026Z" fill="#7A8EF0" stroke="#220E6E" stroke-width=".75" stroke-linejoin="round"/><path d="M127.878 42.258c-.855-.48-1.603-.534-2.164-.214l-6.384 3.687 4.488 7.399 6.224-3.58h.026c.535-.347.882-1.015.882-1.976 0-1.95-1.363-4.328-3.072-5.316Z" fill="#536FF8" stroke="#220E6E" stroke-width=".75" stroke-linejoin="round"/><path d="M121.519 45.917c-1.683-.988-3.072-.187-3.072 1.763s1.389 4.328 3.072 5.316c1.71.988 3.072.187 3.072-1.763s-1.362-4.327-3.072-5.316Z" fill="#7A8EF0" stroke="#220E6E" stroke-width=".75" stroke-linejoin="round"/><path d="m112.623 30.264 3.125 7.88 7.106 8.922 6.384-3.686-10.231-16.802-6.384 3.686Z" fill="#BDC1EE" stroke="#220E6E" stroke-width=".75" stroke-linejoin="round"/><path d="m119.383 31.947 4.861 7.96.561-.32-4.861-7.96-.561.32Z" fill="#fff" stroke="#220E6E" stroke-width=".75" stroke-linejoin="round"/><path d="m116.924 33.39 4.861 7.96 2.458-1.443-4.862-7.96-2.457 1.442Z" fill="#98DAC6" stroke="#220E6E" stroke-width=".75" stroke-linejoin="round"/><path d="M112.653 30.718c0 2.538-1.79 3.553-3.98 2.297 0 0-.027 0-.054-.053l10.311 16.935a5.498 5.498 0 0 1-.481-2.19c0-1.95 1.389-2.752 3.072-1.763.481.267.935.668 1.336 1.148l-10.231-16.801v.454l.027-.027Z" fill="#fff" stroke="#220E6E" stroke-width=".75" stroke-linejoin="round"/><defs><linearGradient id="a" x1="18.939" y1="144.751" x2="91.746" y2="211.784" gradientUnits="userSpaceOnUse"><stop stop-color="#E7E3FF"/><stop offset="1" stop-color="#8EB9D1"/></linearGradient><linearGradient id="b" x1="71.12" y1="97.485" x2="97.445" y2="108.679" gradientUnits="userSpaceOnUse"><stop stop-color="#FF47A9"/><stop offset="1" stop-color="#703AC2"/></linearGradient><linearGradient id="c" x1="47.443" y1="97.454" x2="73.838" y2="108.708" gradientUnits="userSpaceOnUse"><stop stop-color="#703AC2"/><stop offset=".339" stop-color="#0070EB"/><stop offset=".661" stop-color="#0297FB"/><stop offset="1" stop-color="#0AE2FF"/></linearGradient><linearGradient id="d" x1="48.164" y1="85.398" x2="73.537" y2="115.983" gradientUnits="userSpaceOnUse"><stop stop-color="#0AE2FF"/><stop offset=".328" stop-color="#0297FB"/><stop offset=".646" stop-color="#0070EB"/><stop offset="1" stop-color="#703AC2"/></linearGradient><linearGradient id="e" x1="129.429" y1="62.904" x2="155.748" y2="74.103" gradientUnits="userSpaceOnUse"><stop stop-color="#FF47A9"/><stop offset="1" stop-color="#703AC2"/></linearGradient><linearGradient id="f" x1="105.784" y1="62.872" x2="132.151" y2="74.109" gradientUnits="userSpaceOnUse"><stop stop-color="#703AC2"/><stop offset=".339" stop-color="#0070EB"/><stop offset=".661" stop-color="#0297FB"/><stop offset="1" stop-color="#0AE2FF"/></linearGradient><linearGradient id="g" x1="106.505" y1="50.812" x2="131.881" y2="81.382" gradientUnits="userSpaceOnUse"><stop stop-color="#0AE2FF"/><stop offset=".328" stop-color="#0297FB"/><stop offset=".646" stop-color="#0070EB"/><stop offset="1" stop-color="#703AC2"/></linearGradient></defs></svg>