<svg width="182" height="184" fill="none" xmlns="http://www.w3.org/2000/svg"><path d="m146.168 168.19-95.586-55.216c-3.7-2.139-6.7-7.871-6.7-12.801V13.218c0-4.935 3-7.202 6.7-5.064l95.586 55.217c3.7 2.139 6.699 7.87 6.699 12.8v86.95c0 4.936-2.999 7.203-6.699 5.064v.005Z" fill="url(#a)" stroke="#220E6E" stroke-width=".75" stroke-linejoin="round"/><path d="M154.253 58.831 58.673 3.615c-1.465-.845-2.817-1-3.919-.578-.139.054-8.191 4.577-8.325 4.652h-.005c1.139-.556 2.588-.45 4.17.46l95.586 55.216c3.7 2.14 6.699 7.871 6.699 12.8v86.951c0 3.08-1.171 5.117-2.946 5.7.144.005.326-.048.588-.198.086-.048 8.299-4.721 8.379-4.78 1.272-.893 2.064-2.722 2.064-5.262V71.632c0-4.935-3-10.667-6.7-12.8h-.011Z" fill="url(#b)" stroke="#220E6E" stroke-width=".75" stroke-linejoin="round"/><path d="M127.187 95.843c.262.15.444.516.412.828v.091c-.038.312-.262.44-.518.29l-5.971-3.514c-.251-.15-.432-.516-.411-.838v-.086c.037-.312.256-.43.513-.29l5.97 3.514v.01l.005-.005Z" fill="#C2A1D7"/><path d="M132.933 102.355a.734.734 0 0 1 .326.645l-.027.327c-.021.242-.198.339-.4.221l-5.811-3.423a.736.736 0 0 1-.326-.645l.027-.328c.022-.242.198-.339.401-.22l5.81 3.423Z" fill="#BDC0FF"/><path d="M130.668 95.225a.77.77 0 0 1 .337.683l-.027.274c-.021.258-.208.355-.416.236l-6.537-3.853a.77.77 0 0 1-.336-.682l.026-.274c.022-.258.209-.355.417-.237l6.536 3.853ZM130.029 91.598c.229.13.4.478.373.752l-.016.189c-.026.274-.229.397-.459.268l-4.886-2.88c-.235-.14-.401-.479-.374-.753l.016-.188c.027-.285.23-.397.459-.268l4.887 2.88Z" fill="#8AD4DE"/><path d="M128.09 84.839c.267.156.465.548.443.886-.026.328-.272.473-.539.312l-2.515-1.478c-.267-.156-.47-.57-.443-.897.026-.328.272-.468.55-.301l2.515 1.478h-.011Z" fill="#BDC0FF"/><path d="M128.835 77.457c.267.156.464.56.443.887-.027.328-.272.473-.539.312l-17.565-10.34c-.267-.156-.47-.57-.443-.897.027-.328.272-.468.55-.301l17.564 10.34h-.01ZM133.318 87.918c.267.156.464.548.443.887-.027.327-.272.473-.539.311l-3.846-2.262c-.267-.156-.464-.559-.443-.897.027-.328.273-.468.54-.312l3.845 2.262v.011ZM133.845 84.677c.267.156.465.548.443.887-.027.328-.272.468-.539.312l-8.646-5.09c-.267-.155-.476-.558-.443-.886.032-.328.272-.468.55-.301l8.646 5.09v-.012h-.011Z" fill="#8AD4DE"/><path d="M131.505 123.109c.267.156.465.559.443.897-.026.328-.272.468-.539.312l-3.845-2.263c-.267-.155-.465-.548-.443-.886.026-.328.272-.473.539-.312l3.845 2.262v-.01Z" fill="#BDC0FF"/><path d="M126.275 120.035c.267.156.464.559.443.897-.027.328-.272.468-.539.312l-2.516-1.478c-.267-.156-.475-.559-.443-.887.032-.327.272-.472.55-.311l2.515 1.478v-.011h-.01ZM132.02 119.868c.267.156.464.548.443.887-.027.328-.272.473-.539.312l-8.646-5.09c-.267-.155-.47-.569-.444-.897.027-.328.273-.468.55-.301l8.646 5.089h-.01ZM126.849 112.667c.267.156.465.548.443.887-.026.328-.272.462-.539.312l-17.564-10.34c-.267-.156-.476-.559-.444-.886.032-.328.273-.468.551-.301l17.564 10.339v-.011h-.011ZM114.146 109.341c.235.139.406.489.385.763l-.016.166c-.027.29-.23.409-.476.269l-11.407-6.717c-.235-.14-.405-.489-.384-.769l.016-.166c.027-.285.24-.398.475-.258l11.407 6.717v-.005ZM122.025 117.53c.267.156.47.57.443.898-.026.328-.272.467-.55.301l-16.731-9.845c-.267-.156-.465-.548-.443-.887.026-.328.272-.473.539-.312l16.731 9.845h.011Z" fill="#8AD4DE"/><path d="M121.668 113.774c.235.14.401.479.374.753l-.016.177c-.027.285-.23.408-.465.269l-6.157-3.633c-.235-.14-.401-.478-.374-.763l.016-.178c.027-.274.23-.397.459-.268l6.158 3.632v.011h.005Z" fill="#BDC0FF"/><path d="M123.806 105.547c.268.156.465.548.444.886-.027.328-.273.473-.54.312l-15.535-9.141c-.267-.156-.464-.559-.443-.897.027-.328.272-.463.539-.312l15.535 9.141v.011Z" fill="#8AD4DE"/><path d="M132.478 110.657c.267.162.465.549.443.887-.026.328-.272.473-.539.312l-6.996-4.122c-.267-.156-.464-.559-.443-.897.027-.328.272-.468.539-.312l6.996 4.122v.01ZM106.002 95.057c.267.156.475.559.443.886-.032.328-.272.473-.55.312L96.4 90.666c-.267-.156-.465-.559-.443-.897.026-.328.272-.468.539-.312l9.506 5.6ZM106.858 100.893c.267.156.475.559.443.887-.032.327-.272.462-.55.301l-10.793-6.352c-.266-.156-.464-.549-.443-.887.027-.328.273-.462.54-.312l10.792 6.352v.011h.011Z" fill="#C2A1D7"/><path d="M126.631 99.068a.735.735 0 0 1 .326.645l-.027.328c-.022.241-.198.338-.401.22l-5.805-3.423a.732.732 0 0 1-.325-.645l.026-.328c.022-.242.198-.338.401-.22l5.805 3.423ZM123.608 87.815c.23.129.39.467.369.752l-.016.188c-.027.274-.23.398-.454.258l-4.887-2.875c-.229-.129-.389-.478-.368-.752l.016-.188c.027-.285.23-.398.454-.258l4.886 2.875ZM119.533 94.887a.733.733 0 0 1 .326.645l-.027.328c-.021.241-.197.338-.4.22l-12.796-7.534a.734.734 0 0 1-.325-.645l.026-.328c.022-.242.198-.338.401-.22l12.795 7.534ZM119.754 91.56c.235.14.406.49.384.769v.07c-.032.285-.245.408-.48.263l-12.662-7.454c-.235-.14-.406-.489-.385-.768v-.07c.032-.29.235-.408.481-.269l12.662 7.454v.005Z" fill="#8AD4DE"/><path d="M123.479 78.583c.235.14.4.468.374.753l-.016.177c-.027.285-.23.398-.465.258l-6.157-3.633c-.235-.14-.401-.478-.374-.752l.016-.178c.026-.284.229-.397.459-.268l6.157 3.633v.01h.006Z" fill="#C2A1D7"/><path d="M121.717 89.538a.77.77 0 0 1 .336.682l-.027.274c-.021.258-.208.355-.416.237l-14.339-8.448a.77.77 0 0 1-.336-.683l.026-.274c.022-.257.209-.354.417-.236l14.339 8.448Z" fill="#BDC0FF"/><path d="M129.41 105.891c.251.15.437.526.411.827-.027.301-.262.441-.513.29l-32.699-19.25c-.261-.15-.438-.526-.411-.837.027-.312.251-.441.513-.29l32.704 19.254-.005.006ZM117.398 84.166c.235.14.401.478.374.752l-.016.188c-.027.275-.23.398-.459.27l-11.012-6.482c-.235-.14-.401-.478-.374-.752l.016-.188c.027-.285.23-.398.459-.269l11.012 6.481Z" fill="#C2A1D7"/><path d="M123.842 82.34c.267.156.475.56.443.887-.032.328-.273.473-.55.312l-16.732-9.846c-.267-.155-.464-.558-.443-.897.027-.328.273-.467.54-.312l16.731 9.845v.011h.011ZM105.183 82.984c.235.14.406.489.385.768v.07c-.032.285-.235.409-.481.269l-7.722-4.547c-.235-.14-.406-.489-.385-.768v-.07c.032-.29.235-.408.48-.269l7.723 4.547ZM106.46 80.98a.77.77 0 0 1 .336.682l-.026.274c-.022.258-.209.354-.417.236l-8.822-5.196a.771.771 0 0 1-.337-.683l.027-.274c.022-.258.208-.355.417-.236l8.833 5.202h-.011v-.006ZM115.965 74.156c.235.14.405.489.384.763l-.016.166c-.027.285-.23.409-.475.258l-11.407-6.717c-.235-.14-.406-.49-.385-.763l.016-.167c.027-.285.241-.397.476-.258l11.407 6.718ZM104.629 76.642c.235.14.4.479.374.753l-.017.188c-.026.274-.229.398-.459.269l-6.686-3.94c-.23-.129-.39-.478-.368-.752l.016-.188c.026-.285.23-.398.454-.258l6.686 3.94v-.012Z" fill="#8AD4DE"/><path d="M125.788 70.332c.267.155.465.548.444.886-.027.328-.273.468-.54.312l-15.54-9.141c-.267-.156-.465-.548-.443-.887.026-.328.272-.467.539-.312l15.535 9.142h.005Z" fill="#BDC0FF"/><path d="M108.833 65.678c.267.156.47.57.443.886-.027.318-.272.473-.55.312l-10.793-6.363c-.267-.155-.465-.558-.443-.897.027-.328.272-.468.54-.312l10.792 6.352v.022h.011ZM131.386 70.665c.251.15.443.515.411.827-.032.312-.262.43-.513.29L98.591 52.538c-.262-.15-.444-.515-.412-.827.032-.312.251-.44.513-.29l32.699 19.244h-.005Z" fill="#C2A1D7"/><path d="M107.976 59.847c.267.156.475.559.443.887-.032.328-.272.467-.55.3l-9.5-5.593c-.267-.156-.465-.549-.444-.887.027-.328.273-.468.54-.312l9.506 5.6h.01l-.005.005ZM134.461 75.442c.267.161.464.548.443.887-.027.328-.272.467-.539.311l-6.996-4.121c-.267-.156-.465-.549-.444-.887.027-.328.273-.468.54-.312l6.996 4.122ZM143.402 80.714c.267.156.465.548.443.887-.026.327-.272.467-.539.311l-6.996-4.122c-.267-.155-.465-.548-.443-.886.027-.328.272-.468.539-.312l6.996 4.122ZM138.85 100.046a.771.771 0 0 1 .336.683l-.026.274c-.022.258-.209.354-.417.236l-6.536-3.842a.769.769 0 0 1-.337-.683l.027-.274c.021-.258.208-.355.416-.236l6.537 3.853v-.011Z" fill="#8AD4DE"/><path d="M104.983 86.321a.732.732 0 0 1 .325.645l-.026.328c-.022.242-.198.338-.401.22l-7.871-4.638a.734.734 0 0 1-.326-.645l.026-.327c.022-.242.198-.339.401-.226l7.866 4.627v.01l.006.006ZM105.247 71.393c.235.14.406.49.385.78l-.011.15c-.027.29-.23.419-.475.269l-7.183-4.23c-.235-.14-.417-.5-.39-.779l.01-.15c.027-.29.24-.409.476-.275l7.183 4.23v.01l.005-.005Z" fill="#C2A1D7"/><path d="M103.13 66.594a.733.733 0 0 1 .326.645l-.027.328c-.021.242-.197.339-.4.22l-4.844-2.848a.734.734 0 0 1-.326-.645l.027-.328c.022-.241.198-.338.4-.215l4.844 2.849v-.011.005ZM141.431 115.918c.267.156.465.549.444.887-.027.328-.273.473-.54.312l-6.996-4.122c-.267-.156-.464-.559-.443-.897.027-.328.272-.468.539-.312l6.996 4.122v.01Z" fill="#8AD4DE"/><path d="M103.442 106.584c.235.14.406.489.385.779l-.011.151c-.027.29-.229.419-.475.268l-7.183-4.229c-.235-.14-.416-.494-.39-.779l.01-.151c.028-.29.241-.408.476-.274l7.183 4.23v.01l.005-.005ZM101.32 101.785a.734.734 0 0 1 .326.645l-.027.327c-.021.242-.198.339-.401.226l-4.843-2.848a.734.734 0 0 1-.326-.645l.027-.328c.021-.242.197-.338.4-.22l4.844 2.848v-.005Z" fill="#C2A1D7"/><path d="M103.893 63.3v69.568l4.245-2.486v-69.68l-4.245 2.598Z" fill="#6368D7" stroke="#220E6E" stroke-width=".75" stroke-linecap="round" stroke-linejoin="round"/><path d="M103.911 63.3v69.568L24.045 87.569V17.89L103.91 63.3Z" fill="url(#c)" stroke="#220E6E" stroke-width=".75" stroke-linejoin="round"/><path d="M24.045 17.89 103.91 63.3l4.229-2.598-79.892-45.368-4.203 2.555Z" fill="#67A3FD" stroke="#220E6E" stroke-width=".75" stroke-linecap="round" stroke-linejoin="round"/><path d="m48.637 40.01-14.773-8.545c-2.582-1.492-4.678.09-4.678 3.534v17.1c0 3.443 2.096 7.442 4.678 8.934l14.773 8.544c2.583 1.492 4.679-.09 4.679-3.534v-17.1c0-3.442-2.096-7.442-4.679-8.934v0Z" fill="#0977AB" stroke="#220E6E" stroke-width=".75" stroke-linecap="round" stroke-linejoin="round"/><path d="m50.46 68.182-14.773-8.544c-2.583-1.492-4.679-5.491-4.679-8.935V33.604c0-1.09.209-1.989.578-2.668-1.433.235-2.406 1.716-2.406 4.058v17.1c0 3.443 2.096 7.442 4.678 8.934l14.774 8.544c1.764 1.021 3.304.599 4.095-.866-.674.112-1.449-.048-2.272-.524h.005Z" fill="#084C94" stroke="#220E6E" stroke-width=".75" stroke-linecap="round" stroke-linejoin="round"/><path d="m34.75 39.657-14.773-8.545c-2.582-1.491-4.678.091-4.678 3.535v17.099c0 3.443 2.096 7.443 4.678 8.934l14.774 8.545c2.582 1.491 4.678-.091 4.678-3.535V48.591c0-3.443-2.096-7.443-4.678-8.934v0Z" fill="url(#d)" stroke="#220E6E" stroke-width=".75" stroke-linecap="round" stroke-linejoin="round"/><path d="m37.158 38.245-14.773-8.55c-1.107-.636-2.123-.71-2.92-.315l-.026-.027-2.556 1.503.01.032c.824-.492 1.899-.46 3.086.224l14.773 8.545c2.582 1.491 4.678 5.49 4.678 8.934v17.1c0 1.673-.497 2.903-1.304 3.555l1.427-.941c1.198-.684 2.289-1.754 2.289-4.032V47.174c0-3.443-2.096-7.443-4.679-8.934l-.005.005Z" fill="#23A0DC" stroke="#220E6E" stroke-width=".75" stroke-linecap="round" stroke-linejoin="round"/><path d="M31.728 48.56c0 1.283-.904 1.796-2.021 1.154-1.118-.647-2.021-2.208-2.021-3.491s.903-1.797 2.02-1.155c1.118.647 2.022 2.208 2.022 3.491ZM19.756 50.2l4.17-5.389 4.235 10.715 3.08-2.502 3.4 9.24-.064.935-14.757-7.892-.064-5.106ZM64.536 51.699c.193.11.353.457.347.744v.623c-.01.286-.17.44-.369.314l-4.094-2.486c-.204-.127-.353-.457-.348-.744v-.622c.011-.287.171-.441.37-.314l4.094 2.49V51.7ZM76.974 75.997c.193.11.353.446.347.744v.612c-.01.297-.17.44-.369.314l-1.493-.899c-.204-.126-.353-.446-.347-.744v-.611c.01-.298.17-.441.369-.314l1.493.898ZM77.137 71.313c.193.11.353.457.347.744v.622c-.01.287-.17.441-.374.314l-3.698-2.242c-.193-.11-.353-.458-.347-.745v-.622c.01-.287.17-.441.374-.314l3.698 2.243ZM74.214 64.76c.193.11.353.457.347.744v.623c-.01.286-.17.44-.375.314l-7.798-4.734c-.193-.11-.352-.458-.347-.744v-.623c.011-.287.171-.44.37-.314l7.797 4.734h.006Z" fill="#fff"/><path d="M72.686 56.643c.204.127.364.468.358.76v.623c-.01.287-.17.441-.375.314l-6.86-4.166c-.194-.11-.353-.457-.348-.744v-.623c.011-.286.176-.424.37-.314l6.86 4.166-.01-.01.005-.006Z" fill="#91E7FF"/><path d="M75.2 54.168c.181.11.335.43.33.706v.584c-.011.275-.16.413-.342.303l-14.736-8.934c-.182-.11-.336-.43-.33-.705v-.579c.01-.286.16-.43.34-.32L75.2 54.169Z" fill="#D591FF"/><path d="M68.954 66.347c.171.11.303.392.303.645l-.01.772c0 .248-.144.38-.315.27l-5.004-3.031c-.165-.1-.308-.392-.303-.645l.011-.772c0-.248.143-.38.314-.27l5.004 3.031ZM74.604 82.55c.165.099.297.38.292.628l-.011.771c0 .248-.143.37-.303.27l-2.017-1.218c-.165-.099-.303-.39-.303-.644l.01-.772c0-.248.144-.364.315-.253l2.017 1.218ZM72.635 73.38c.193.11.353.446.347.743v.612c-.01.298-.17.441-.369.314l-7.412-4.497c-.204-.127-.353-.446-.347-.744v-.611c.01-.298.17-.441.369-.315l7.412 4.497Z" fill="#fff"/><path d="M65.054 59.194c.193.11.352.458.347.744v.623c-.011.286-.17.44-.375.314l-4.679-2.833c-.204-.126-.352-.457-.347-.744v-.622c.011-.287.171-.441.375-.315l4.684 2.839-.005-.006Z" fill="#D591FF"/><path d="M76.672 59.062c.193.11.353.457.347.744v.622c-.01.287-.17.441-.37.315l-2.936-1.786c-.204-.127-.353-.458-.348-.744v-.623c.011-.286.171-.44.37-.314l2.937 1.786ZM80.768 61.542c.204.127.364.468.359.76v.623c-.011.287-.171.441-.37.314l-2.937-1.785c-.193-.11-.353-.458-.347-.744v-.623c.01-.287.17-.44.374-.314l2.932 1.774-.01-.005ZM63.885 80.428c.155.1.276.37.276.59l-.011.86c0 .225-.121.341-.287.23l-3.846-2.336c-.155-.099-.27-.342-.265-.567l.011-.86c0-.226.121-.353.276-.26l3.846 2.338v.005ZM62.96 75.48c.166.098.298.38.293.627l-.011.772c0 .248-.143.37-.303.27l-2.844-1.72c-.165-.099-.298-.38-.292-.628l.01-.771c0-.248.144-.364.304-.27l2.844 1.72Z" fill="#fff"/><path d="M73.431 89.819c.182.11.325.418.32.694l-.011.7c0 .276-.15.413-.337.303l-2.496-1.51c-.182-.11-.336-.43-.33-.705l.01-.7c0-.276.15-.403.337-.292l2.496 1.51h.011Z" fill="#D591FF"/><path d="M73.268 94.503c.143.082.26.325.254.55l-.011.9c0 .209-.122.319-.265.23l-2.469-1.493c-.143-.082-.259-.325-.253-.55l.01-.9c0-.209.122-.319.265-.23l2.47 1.493Z" fill="#fff"/><path d="M71.342 84.952c.154.1.276.364.276.59l-.011.86c0 .225-.133.33-.287.231l-6.37-3.874c-.155-.1-.276-.353-.276-.579l.01-.86c0-.225.122-.352.287-.242l6.371 3.874Z" fill="#91E7FF"/><path d="M68.809 79.034c.165.099.298.38.292.628l-.01.772c0 .248-.144.363-.304.27l-4.828-2.932c-.165-.1-.303-.391-.303-.645l.011-.771c0-.248.144-.37.314-.254l4.828 2.932Z" fill="#D591FF"/><path d="M71.663 80.764c.165.1.298.38.292.628l-.011.772c0 .248-.143.369-.303.27l-2.023-1.23c-.165-.098-.297-.38-.292-.627l.011-.772c0-.248.144-.364.303-.27l2.023 1.229ZM70.021 92.541c.143.083.26.326.254.551l-.011.899c0 .21-.122.32-.265.231l-5.665-3.433c-.144-.083-.26-.33-.254-.551l.011-.899c0-.209.122-.32.265-.231l5.665 3.433ZM63.345 83.828c.176.11.303.392.303.645v.623c-.011.264-.149.391-.325.28l-3.307-2.005c-.176-.11-.308-.391-.303-.656v-.623c.011-.264.149-.39.325-.28l3.307 2.005v.011ZM70.022 87.879c.176.11.308.391.303.656v.623c-.011.264-.149.39-.325.28l-5.572-3.378c-.176-.11-.303-.39-.303-.656v-.622c.011-.265.149-.391.325-.281l5.572 3.378ZM74.983 87.162c.154.1.276.37.276.59l-.011.86c0 .226-.122.341-.287.231l-2.794-1.703c-.154-.1-.27-.342-.264-.567l.01-.86c0-.226.122-.353.276-.26l2.794 1.704v.005ZM78.728 89.433c.155.094.27.353.265.579l-.011.86c0 .225-.121.341-.276.247l-2.794-1.703c-.154-.093-.275-.352-.275-.578l.01-.86c0-.226.122-.353.287-.248l2.794 1.703Z" fill="#fff"/><path d="M63.345 88.468c.144.083.26.33.254.551l-.011.899c0 .209-.121.32-.265.231l-3.411-2.078c-.143-.082-.26-.33-.254-.55l.011-.899c0-.21.122-.32.265-.231l3.411 2.077Z" fill="#D591FF"/><path d="M76.631 96.553c.144.083.26.325.254.551l-.011.898c0 .21-.121.32-.265.232L74.14 96.74c-.143-.082-.259-.33-.253-.55l.01-.899c0-.21.122-.32.265-.231l2.47 1.493Z" fill="#91E7FF"/><path d="M63.097 62.787c.138.083.26.342.254.552l-.011.898c0 .21-.122.32-.254.248l-2.033-1.235c-.144-.082-.26-.33-.254-.55l.011-.899c0-.21.121-.32.265-.232l2.033 1.235-.01-.011v-.006Z" fill="#fff"/><path d="M72.413 68.447c.166.1.298.391.293.64l-.011.771c0 .264-.144.38-.303.281l-2.602-1.576c-.165-.1-.297-.38-.292-.64l.011-.77c0-.249.144-.381.303-.282l2.602 1.576ZM64.13 68.205c.176.11.314.407.314.656l-.011.749c0 .265-.15.38-.326.27l-3.053-1.852c-.176-.11-.314-.407-.314-.655l.011-.75c0-.264.15-.38.325-.27l3.053 1.852Z" fill="#D591FF"/><path d="M74.574 74.542c.204.127.364.457.358.76v.612c-.011.298-.17.441-.37.314l-.886-.54c-.193-.11-.353-.446-.348-.744v-.612c.011-.297.171-.44.37-.314l.887.54-.011-.01v-.006Z" fill="#91E7FF"/><path d="M74.653 103.723c.182.11.336.429.33.705v.573c-.01.287-.16.43-.341.32l-14.731-8.94c-.182-.11-.336-.429-.33-.704v-.574c.01-.275.159-.413.34-.303l14.737 8.945v-.011l-.005-.011ZM63.993 101.243c.193.11.353.446.348.744v.611c-.011.298-.171.441-.37.314l-4.094-2.49c-.204-.127-.353-.447-.348-.745v-.611c.011-.298.171-.441.37-.314l4.094 2.491Z" fill="#D591FF"/><path d="M72.147 106.197c.204.127.364.457.358.76v.612c-.01.298-.17.441-.369.314l-6.86-4.166c-.194-.11-.354-.446-.348-.744v-.612c.01-.297.17-.441.37-.314l6.86 4.167-.01-.012v-.005Z" fill="#91E7FF"/><path d="M76.12 108.605c.192.111.352.447.346.744v.612c-.01.298-.176.425-.369.314l-2.937-1.785c-.204-.127-.353-.447-.347-.744v-.612c.01-.298.17-.441.369-.314l2.937 1.785Z" fill="#D591FF"/><path d="M80.222 111.096c.203.127.363.458.358.755v.612c-.011.298-.171.441-.37.314l-2.937-1.785c-.193-.111-.353-.447-.347-.744v-.612c.01-.298.176-.424.37-.314l2.936 1.785-.01-.011Z" fill="#fff"/><path d="M133.777 113.791v69.21l4.229-2.474v-69.322l-4.229 2.586Z" fill="#6368D7" stroke="#220E6E" stroke-width=".75" stroke-linecap="round" stroke-linejoin="round"/><path d="M133.793 113.79V183l-64.508-37.666V76.012l64.508 37.778Z" fill="url(#e)" stroke="#220E6E" stroke-width=".75" stroke-linejoin="round"/><path d="m69.285 76.012 64.508 37.778 4.213-2.585-64.54-37.736-4.18 2.543Z" fill="#67A3FD" stroke="#220E6E" stroke-width=".75" stroke-linecap="round" stroke-linejoin="round"/><path d="M106.605 132.869c.262.151.444.516.412.828v.091c-.038.312-.262.441-.518.29l-5.971-3.514c-.251-.151-.432-.516-.411-.838v-.086c.037-.312.256-.43.513-.291l5.97 3.515v.011l.005-.006Z" fill="#D591FF"/><path d="M112.355 139.381a.734.734 0 0 1 .326.645l-.027.327c-.021.242-.198.339-.401.221l-5.81-3.423a.736.736 0 0 1-.326-.645l.027-.328c.021-.242.198-.339.401-.221l5.81 3.424Z" fill="#91E7FF"/><path d="M110.094 132.251a.774.774 0 0 1 .337.683l-.027.274c-.021.258-.208.355-.417.236l-6.536-3.853a.77.77 0 0 1-.337-.682l.027-.274c.021-.258.208-.355.417-.237l6.536 3.853ZM109.454 128.624c.23.129.401.478.374.752l-.016.189c-.027.274-.229.397-.459.268l-4.887-2.88c-.234-.14-.4-.478-.373-.753l.016-.188c.026-.284.229-.397.459-.268l4.886 2.88Z" fill="#fff"/><path d="M107.516 121.865c.267.155.465.548.443.886-.026.328-.272.473-.539.312l-2.515-1.478c-.267-.156-.47-.569-.444-.897.027-.328.273-.468.55-.301l2.516 1.478h-.011Z" fill="#91E7FF"/><path d="M108.26 114.483c.267.156.465.559.444.887-.027.328-.273.473-.54.312L90.6 105.342c-.267-.156-.47-.569-.443-.897.026-.328.272-.468.55-.301l17.564 10.339h-.011ZM112.743 124.944c.267.156.465.548.444.887-.027.327-.273.473-.54.311l-3.845-2.262c-.267-.156-.464-.559-.443-.898.027-.327.272-.467.539-.311l3.845 2.262v.011ZM113.271 121.703c.267.156.464.549.443.887-.027.328-.272.468-.539.312l-8.646-5.089c-.267-.156-.476-.559-.444-.887.032-.328.273-.468.55-.301l8.646 5.089v-.011h-.01Z" fill="#fff"/><path d="M110.931 160.135c.267.156.465.559.443.897-.027.328-.272.468-.539.312l-3.845-2.263c-.267-.155-.465-.548-.443-.886.026-.328.272-.473.539-.312l3.845 2.262v-.01Z" fill="#91E7FF"/><path d="M105.701 157.061c.267.156.464.559.443.897-.027.328-.273.468-.54.312l-2.515-1.478c-.267-.156-.475-.559-.443-.886.032-.328.272-.473.55-.312l2.515 1.478v-.011h-.01ZM111.446 156.894c.267.156.464.548.443.887-.027.328-.273.473-.54.312l-8.646-5.09c-.267-.155-.47-.569-.443-.897.027-.328.273-.468.55-.301l8.646 5.089h-.01ZM106.269 149.693c.267.156.465.548.443.887-.026.328-.272.462-.539.312l-17.564-10.34c-.267-.156-.476-.559-.444-.886.032-.328.273-.468.55-.301l17.565 10.339v-.011h-.011ZM93.572 146.367c.235.139.406.489.385.763l-.016.166c-.027.291-.23.409-.476.269l-11.407-6.717c-.235-.14-.406-.489-.384-.769l.016-.166c.026-.285.24-.398.475-.258l11.407 6.717v-.005ZM101.451 154.556c.267.156.47.57.443.898-.027.328-.272.467-.55.301l-16.731-9.845c-.267-.156-.465-.548-.444-.887.027-.328.273-.473.54-.312l16.731 9.845h.011Z" fill="#fff"/><path d="M101.094 150.8c.235.14.401.478.374.753l-.016.177c-.027.285-.23.408-.465.269l-6.157-3.633c-.235-.14-.4-.479-.374-.763l.016-.178c.027-.274.23-.397.46-.268l6.157 3.632v.011h.005Z" fill="#91E7FF"/><path d="M103.232 142.573c.267.155.465.548.444.886-.027.328-.273.473-.54.312l-15.535-9.141c-.267-.156-.465-.559-.443-.897.026-.328.272-.463.54-.312l15.534 9.141v.011Z" fill="#fff"/><path d="M111.904 147.683c.267.162.465.548.443.887-.026.328-.272.473-.539.312l-6.996-4.122c-.267-.156-.465-.559-.443-.897.026-.328.272-.468.539-.312l6.996 4.122v.01ZM85.428 132.083c.267.156.475.559.443.887-.032.327-.272.472-.55.311l-9.495-5.589c-.267-.156-.465-.559-.444-.897.027-.328.273-.468.54-.312l9.506 5.6ZM86.284 137.919c.267.156.475.559.443.887-.032.327-.272.462-.55.301l-10.793-6.352c-.267-.156-.464-.549-.443-.887.027-.328.272-.462.54-.312l10.792 6.352v.011h.01Z" fill="#D591FF"/><path d="M106.057 136.094a.733.733 0 0 1 .325.645l-.026.328c-.022.241-.198.338-.401.22l-5.805-3.423a.736.736 0 0 1-.326-.645l.027-.328c.021-.242.198-.339.401-.22l5.805 3.423ZM103.034 124.841c.23.129.39.467.369.752l-.016.188c-.027.274-.23.398-.454.258l-4.887-2.875c-.23-.129-.39-.478-.368-.752l.016-.188c.026-.285.23-.398.454-.258l4.886 2.875ZM98.96 131.913a.733.733 0 0 1 .325.645l-.027.328c-.021.241-.197.338-.4.22l-12.796-7.534a.735.735 0 0 1-.325-.645l.026-.328c.021-.242.198-.339.4-.22l12.796 7.534ZM99.172 128.586c.235.14.406.489.384.769v.07c-.032.285-.245.408-.48.263l-12.662-7.454c-.235-.139-.406-.489-.385-.768v-.07c.032-.29.235-.408.48-.269l12.663 7.454v.005Z" fill="#fff"/><path d="M102.903 115.609c.235.14.4.468.373.753l-.016.177c-.026.285-.229.398-.464.258l-6.158-3.633c-.235-.139-.4-.478-.374-.752l.017-.177c.026-.285.23-.398.459-.269l6.157 3.633v.01h.006Z" fill="#D591FF"/><path d="M101.142 126.564a.768.768 0 0 1 .337.682l-.027.274c-.021.258-.208.355-.416.237l-14.34-8.448a.77.77 0 0 1-.336-.682l.027-.274c.022-.258.208-.355.417-.237l14.338 8.448Z" fill="#91E7FF"/><path d="M108.835 142.917c.251.15.438.526.412.827-.027.301-.262.441-.513.29l-32.699-19.249c-.262-.151-.438-.527-.411-.838.026-.312.25-.441.512-.291l32.705 19.255-.006.006ZM96.816 121.192c.235.14.4.478.374.752l-.016.189c-.027.274-.23.397-.46.268l-11.011-6.481c-.235-.139-.4-.478-.374-.752l.016-.188c.027-.285.23-.398.46-.269l11.011 6.481Z" fill="#D591FF"/><path d="M103.267 119.366c.267.156.476.559.444.887-.032.327-.273.473-.55.311l-16.732-9.845c-.267-.155-.464-.559-.443-.897.027-.328.272-.468.54-.312l16.731 9.845v.011h.01ZM84.609 120.01c.235.139.406.489.384.768v.07c-.032.285-.235.409-.48.269l-7.722-4.547c-.235-.139-.406-.489-.385-.768v-.07c.032-.29.235-.408.48-.269l7.723 4.547ZM85.886 118.005a.772.772 0 0 1 .336.683l-.027.274c-.02.258-.208.355-.416.236l-8.822-5.196a.772.772 0 0 1-.337-.683l.027-.274c.021-.258.208-.354.416-.236l8.833 5.202h-.01v-.006ZM95.39 111.182c.235.139.406.489.385.763l-.016.166c-.027.285-.23.409-.475.258l-11.408-6.717c-.234-.14-.405-.489-.384-.763l.016-.167c.027-.285.24-.398.475-.258l11.407 6.718ZM84.047 113.668c.235.14.4.479.374.753l-.017.188c-.026.274-.23.398-.459.269l-6.686-3.94c-.23-.128-.39-.478-.368-.752l.016-.188c.026-.285.23-.398.454-.258l6.686 3.939v-.011Z" fill="#fff"/><path d="M105.214 107.357c.267.156.465.549.443.887-.026.328-.272.468-.539.312l-15.54-9.141c-.267-.156-.465-.548-.444-.887.027-.328.273-.467.54-.312l15.535 9.141h.005Z" fill="#91E7FF"/><path d="M88.258 102.704c.268.155.47.569.444.886-.027.317-.273.473-.55.312l-10.793-6.363c-.267-.156-.465-.559-.443-.897.026-.328.272-.468.539-.312l10.793 6.352v.022h.01ZM110.804 107.691c.251.15.443.515.411.827-.032.312-.262.43-.513.29L78.009 89.564c-.262-.15-.444-.515-.412-.827.032-.312.251-.44.513-.29l32.699 19.244h-.005Z" fill="#D591FF"/><path d="M87.402 96.873c.267.156.475.559.443.887-.032.328-.272.467-.55.3l-9.5-5.594c-.268-.155-.465-.548-.444-.886.027-.328.273-.468.54-.312l9.505 5.6h.011l-.005.005ZM113.886 112.468c.267.161.465.548.444.887-.027.327-.273.467-.54.311l-6.996-4.121c-.267-.156-.464-.549-.443-.887.027-.328.273-.468.54-.312l6.995 4.122ZM122.828 117.74c.267.156.464.548.443.887-.027.327-.272.467-.539.311l-6.996-4.122c-.267-.155-.465-.548-.443-.886.026-.328.272-.468.539-.312l6.996 4.122ZM118.276 137.072a.771.771 0 0 1 .336.683l-.026.274c-.022.258-.209.354-.417.236l-6.537-3.842a.771.771 0 0 1-.336-.683l.027-.274c.021-.258.208-.355.416-.236l6.537 3.853v-.011Z" fill="#fff"/><path d="M84.408 123.347a.733.733 0 0 1 .326.645l-.026.328c-.022.242-.198.338-.401.22l-7.872-4.638a.733.733 0 0 1-.326-.645l.027-.327c.022-.242.198-.339.4-.226l7.867 4.627v.011l.005.005ZM84.673 108.419c.235.14.406.489.384.779l-.01.151c-.027.29-.23.419-.476.269l-7.183-4.23c-.234-.139-.416-.5-.39-.779l.011-.15c.027-.291.24-.409.476-.275l7.182 4.23v.011l.006-.006Z" fill="#D591FF"/><path d="M82.556 103.62a.734.734 0 0 1 .326.645l-.027.328c-.021.242-.197.338-.4.22l-4.844-2.848a.733.733 0 0 1-.326-.645l.027-.328c.021-.241.198-.338.4-.215l4.844 2.849v-.011.005ZM120.857 152.944c.267.156.465.548.443.887-.026.328-.272.473-.539.312l-6.996-4.122c-.267-.156-.464-.559-.443-.898.027-.327.272-.467.539-.311l6.996 4.122v.01Z" fill="#fff"/><path d="M82.868 143.61c.235.139.406.489.385.779l-.011.15c-.027.291-.23.42-.475.269l-7.183-4.229c-.235-.14-.417-.495-.39-.779l.01-.151c.027-.29.241-.408.476-.274l7.183 4.229v.011l.005-.005ZM80.74 138.811a.733.733 0 0 1 .326.645l-.027.327c-.022.242-.198.339-.4.226l-4.844-2.848a.733.733 0 0 1-.326-.645l.027-.328c.021-.242.197-.338.4-.22l4.844 2.848v-.005Z" fill="#D591FF"/><path d="M128.862 62.346c-6.17-3.56-11.169-12.185-11.169-19.264 0-2.626.695-4.657 1.876-6.005-3.384.246-5.673 3.08-5.673 7.86 0 7.08 5 15.704 11.17 19.265 3.876 2.235 7.277 1.93 9.277-.358-1.62.117-3.486-.353-5.481-1.503v.005Z" fill="#66BDFF" stroke="#220E6E" stroke-width=".75" stroke-linecap="round" stroke-linejoin="round"/><path d="M139.718 60.01c0-.888-.075-1.791-.192-2.706l4.512-.572a40.57 40.57 0 0 0-2.047-6.833l-5.144-1.556a36.14 36.14 0 0 0-3.203-5.523l1.235-5.192c-1.524-1.903-3.176-3.657-4.924-5.192l-2.77 3.583a22.455 22.455 0 0 0-2.261-1.524 17.345 17.345 0 0 0-2.262-1.085l-2.77-6.78c-1.748-.482-3.4-.642-4.924-.497l1.235 6.613A7.042 7.042 0 0 0 113 34.57l-5.144-4.385c-.892 1.236-1.588 2.733-2.047 4.47l4.512 5.786c-.112.78-.192 1.604-.192 2.486 0 .882.075 1.791.192 2.705l-4.512.573a40.663 40.663 0 0 0 2.047 6.833L113 54.594a36.14 36.14 0 0 0 3.203 5.523l-1.235 5.192c1.524 1.903 3.176 3.657 4.924 5.192l2.77-3.583c.738.556 1.492 1.08 2.262 1.524.769.444 1.523.791 2.261 1.085l2.77 6.78c1.748.481 3.4.642 4.924.497l-1.235-6.614a7.042 7.042 0 0 0 3.203-1.823l5.144 4.384c.893-1.235 1.588-2.732 2.047-4.47l-4.512-5.785c.112-.78.192-1.604.192-2.486v0Zm-14.65 4.192c-6.17-3.561-11.17-12.185-11.17-19.265 0-7.079 5-9.929 11.17-6.368s11.169 12.186 11.169 19.265c0 7.08-4.999 9.929-11.169 6.368Z" fill="#ABD9FF" stroke="#220E6E" stroke-width=".75" stroke-linecap="round" stroke-linejoin="round"/><path d="m126.986 30.918-2.77-6.78-4.325 2.486 2.764 6.78 4.331-2.486Z" fill="#66BDFF" stroke="#220E6E" stroke-width=".75" stroke-linecap="round" stroke-linejoin="round"/><path d="M122.654 33.404c.738.294 1.492.642 2.262 1.085.77.444 1.524.968 2.262 1.524l2.769-3.582s-.465-.294-.705-.428a17.332 17.332 0 0 0-2.262-1.085l-4.326 2.486v0ZM124.215 24.138c-1.749-.481-3.401-.642-4.925-.497l-4.325 2.486c1.524-.144 3.176.016 4.924.497l4.326-2.486v0ZM139.205 35.142c-1.524-1.904-3.176-3.658-4.924-5.192l-4.326 2.486c1.748 1.535 3.401 3.288 4.925 5.192l4.325-2.486Z" fill="#D1EBFF" stroke="#220E6E" stroke-width=".75" stroke-linecap="round" stroke-linejoin="round"/><path d="m134.88 37.628-1.23 5.192 4.326-2.486 1.235-5.192-4.331 2.486Z" fill="#66BDFF" stroke="#220E6E" stroke-width=".75" stroke-linecap="round" stroke-linejoin="round"/><path d="M133.65 42.82a36.14 36.14 0 0 1 3.203 5.523l4.326-2.486a36.301 36.301 0 0 0-3.203-5.523l-4.326 2.486Z" fill="#66BDFF" stroke="#220E6E" stroke-width=".75" stroke-linecap="round" stroke-linejoin="round"/><path d="m136.854 48.343 5.143 1.556 4.326-2.486-5.144-1.556-4.325 2.486Z" fill="#D1EBFF" stroke="#220E6E" stroke-width=".75" stroke-linecap="round" stroke-linejoin="round"/><path d="M141.994 49.899a40.667 40.667 0 0 1 2.048 6.833l4.326-2.486a40.667 40.667 0 0 0-2.048-6.833l-4.326 2.486ZM116.196 32.74l-.358-1.924-3.663-3.122-4.325 2.486 5.143 4.384a7.053 7.053 0 0 1 3.203-1.823ZM144.036 68.281c-.46 1.743-1.155 3.235-2.048 4.47l4.326-2.486c.893-1.235 1.588-2.733 2.048-4.47l-4.326 2.486ZM143.849 60.015c.112-.78.193-1.604.193-2.486 0-.262-.017-.524-.033-.792l-4.486.567c.113.914.193 1.823.193 2.706 0 .882-.075 1.705-.193 2.486l4.326-2.486v.005Z" fill="#66BDFF" stroke="#220E6E" stroke-width=".75" stroke-linecap="round" stroke-linejoin="round"/><path d="m139.523 62.496 4.513 5.785 4.331-2.486-4.518-5.78-4.326 2.48Z" fill="#D1EBFF" stroke="#220E6E" stroke-width=".75" stroke-linecap="round" stroke-linejoin="round"/><path d="M136.853 68.372a7.042 7.042 0 0 1-3.203 1.824l1.236 6.614 4.325-2.487-.871-4.689-1.482-1.262h-.005Z" fill="#66BDFF" stroke="#220E6E" stroke-width=".75" stroke-linecap="round" stroke-linejoin="round"/><path d="m110.155 43.654-4.352 2.555 4.512-.572a23.194 23.194 0 0 1-.16-1.983Z" fill="#D1EBFF" stroke="#220E6E" stroke-width=".75" stroke-linecap="round" stroke-linejoin="round"/><path d="m122.654 66.918-2.769 3.582 4.357-2.48a23.72 23.72 0 0 1-1.588-1.102v0Z" fill="#66BDFF" stroke="#220E6E" stroke-width=".75" stroke-linecap="round" stroke-linejoin="round"/><defs><linearGradient id="a" x1="52.323" y1="26.675" x2="129.458" y2="125.407" gradientUnits="userSpaceOnUse"><stop stop-color="#F3E0FF"/><stop offset=".406" stop-color="#DBE3FF"/><stop offset="1" stop-color="#BFF2FD"/></linearGradient><linearGradient id="b" x1="72.522" y1="37.38" x2="171.064" y2="58.897" gradientUnits="userSpaceOnUse"><stop stop-color="#E6C1FF"/><stop offset=".406" stop-color="#B6C7FF"/><stop offset="1" stop-color="#AFF1FF"/></linearGradient><linearGradient id="c" x1="24.555" y1="17.418" x2="88.834" y2="111.008" gradientUnits="userSpaceOnUse"><stop stop-color="#F45FAE"/><stop offset=".21" stop-color="#874AE4"/><stop offset=".46" stop-color="#1B87FF"/><stop offset=".77" stop-color="#1DA4FF"/><stop offset="1" stop-color="#4AEAFF"/></linearGradient><linearGradient id="d" x1="27.364" y1="30.551" x2="27.364" y2="69.786" gradientUnits="userSpaceOnUse"><stop stop-color="#43FFFD"/><stop offset="1" stop-color="#1E94D7"/></linearGradient><linearGradient id="e" x1="69.697" y1="75.573" x2="132.063" y2="154.394" gradientUnits="userSpaceOnUse"><stop stop-color="#F45FAE"/><stop offset=".21" stop-color="#874AE4"/><stop offset=".46" stop-color="#1B87FF"/><stop offset=".77" stop-color="#1DA4FF"/><stop offset="1" stop-color="#4AEAFF"/></linearGradient></defs></svg>