<svg width="182" height="184" viewBox="0 0 182 184" fill="none" xmlns="http://www.w3.org/2000/svg">
<path d="M136.958 70.9115L86.8388 68.9697L47.2676 98.4169L96.8273 100.342L136.958 70.9115Z" fill="url(#paint0_linear_353_8229)" stroke="#220E6E" stroke-linecap="round" stroke-linejoin="round"/>
<path d="M96.8262 100.342L114.776 159.179L136.957 70.9116L96.8262 100.342Z" fill="url(#paint1_linear_353_8229)" stroke="#220E6E" stroke-miterlimit="10" stroke-linejoin="round"/>
<path d="M47.2676 98.417L114.777 159.179L96.8273 100.342L47.2676 98.417Z" fill="url(#paint2_linear_353_8229)" stroke="#220E6E" stroke-linecap="round" stroke-linejoin="round"/>
<path d="M45 89.2049L93.7088 90.4728L66.6445 2L45 89.2049Z" fill="url(#paint3_linear_353_8229)" stroke="#220E6E" stroke-linecap="round" stroke-linejoin="round"/>
<path d="M66.6445 2L93.7088 90.4728L133.274 61.9223L66.6445 2Z" fill="url(#paint4_linear_353_8229)" stroke="#220E6E" stroke-linecap="round" stroke-linejoin="round"/>
<defs>
<linearGradient id="paint0_linear_353_8229" x1="131.801" y1="69.2869" x2="64.8974" y2="95.7697" gradientUnits="userSpaceOnUse">
<stop stop-color="#CAB3F5"/>
<stop offset="1" stop-color="#87A9F0"/>
</linearGradient>
<linearGradient id="paint1_linear_353_8229" x1="117.166" y1="86.71" x2="116.892" y2="159.179" gradientUnits="userSpaceOnUse">
<stop stop-color="#C8B2F5"/>
<stop offset="1" stop-color="#EBE7FE"/>
</linearGradient>
<linearGradient id="paint2_linear_353_8229" x1="81.0222" y1="98.417" x2="81.0222" y2="159.179" gradientUnits="userSpaceOnUse">
<stop stop-color="#EECBC0"/>
<stop offset="1" stop-color="#B8FBF6"/>
</linearGradient>
<linearGradient id="paint3_linear_353_8229" x1="69.079" y1="37.9258" x2="69.079" y2="84.6192" gradientUnits="userSpaceOnUse">
<stop stop-color="#EECBC0"/>
<stop offset="1" stop-color="#B7D0F8"/>
</linearGradient>
<linearGradient id="paint4_linear_353_8229" x1="99.7426" y1="34.4413" x2="99.9594" y2="90.4728" gradientUnits="userSpaceOnUse">
<stop stop-color="#B8FBF6"/>
<stop offset="1" stop-color="#CAB3F5"/>
</linearGradient>
</defs>
</svg>
