<svg xmlns="http://www.w3.org/2000/svg" width="1106" height="804" fill="none"><g clip-path="url(#a)"><path fill="url(#b)" d="m858.945-63.657-.199.142a224.626 224.626 0 0 0-31.328 25.903 219.128 219.128 0 0 0-12.639 13.605 223.097 223.097 0 0 0-10.538 13.32 221.017 221.017 0 0 0-7.299 10.652c-4.403 6.845-8.436 13.889-12.043 21.131-2.357 4.687-4.516 9.459-6.533 14.259l-.483 1.136c-4.516 11.048-8.18 22.41-10.878 33.97a226.654 226.654 0 0 0-5.624 38.627 225.557 225.557 0 0 0 2.187 47.064c4.943 32.351 17.042 64.105 36.754 92.905C869 349.376 1004.51 376.671 1106.36 312.055c2.25-1.42 4.46-2.869 6.68-4.403a235.7 235.7 0 0 0 7.92-5.652c2.9-2.158 5.74-4.402 8.52-6.703a209.04 209.04 0 0 0 14.43-13.008 226.39 226.39 0 0 0 11.9-12.668c1.08-1.221 2.13-2.471 3.18-3.721a220.47 220.47 0 0 0 15.25-20.62c2.79-4.289 5.43-8.635 7.93-13.065 13.32-23.717 22.12-49.592 26.19-76.234a224.925 224.925 0 0 0 2.47-26.187c.4-10.963 0-21.955-1.25-32.919-.88-8.01-2.22-16.019-4.01-23.943-6.05-27.154-17.27-53.625-33.94-77.966a83.653 83.653 0 0 0-2.02-2.869c-2.15-3.067-4.37-6.05-6.7-9.003-.42-.54-.88-1.108-1.3-1.648-1.08-1.335-2.16-2.67-3.24-3.976-.51-.625-1.03-1.221-1.56-1.846-.46-.54-.94-1.08-1.4-1.62-.39-.454-.79-.908-1.19-1.363-.48-.51-.97-1.05-1.42-1.59-.45-.511-.91-.994-1.36-1.506-.46-.51-.91-.994-1.39-1.505-.46-.483-.94-.994-1.4-1.477-.45-.483-.93-.994-1.42-1.477-.71-.738-1.44-1.505-2.18-2.244-.51-.51-1.03-1.022-1.54-1.533-.11-.114-.25-.256-.37-.37-.45-.454-.93-.908-1.39-1.363-1.19-1.165-2.41-2.3-3.63-3.408-.74-.654-1.45-1.335-2.22-1.989-.71-.624-1.42-1.278-2.13-1.874a198.198 198.198 0 0 0-9.26-7.64 183.826 183.826 0 0 0-4.71-3.58c-.91-.653-1.82-1.334-2.73-1.987-.71-.483-1.39-.995-2.1-1.477-.83-.568-1.62-1.136-2.44-1.676-.83-.568-1.65-1.108-2.48-1.647-.82-.54-1.64-1.08-2.5-1.62-1.64-1.079-3.35-2.13-5.02-3.124-.85-.511-1.71-1.022-2.56-1.505-.85-.511-1.7-.994-2.55-1.477-.86-.483-1.74-.966-2.59-1.449a214.28 214.28 0 0 0-5.23-2.811 228.73 228.73 0 0 0-5.28-2.642c-.71-.34-1.42-.682-2.16-1.022-.82-.37-1.64-.767-2.47-1.136-.62-.284-1.28-.597-1.93-.881-.99-.454-2.02-.909-3.04-1.335-.82-.37-1.67-.71-2.5-1.05-.94-.398-1.9-.796-2.84-1.165-1.13-.455-2.3-.91-3.44-1.335-.88-.313-1.73-.654-2.61-.966-.85-.312-1.7-.625-2.58-.937-.86-.284-1.71-.597-2.56-.88-.45-.171-.88-.313-1.33-.455-.46-.142-.91-.313-1.4-.455a225.525 225.525 0 0 0-89.664-10.168h-.056c-.54.029-1.051.085-1.591.142a222.25 222.25 0 0 0-14.968 1.96c-5.368.88-10.708 1.96-16.019 3.238a196.326 196.326 0 0 0-9.146 2.414 224.596 224.596 0 0 0-43.258 17.44 231.4 231.4 0 0 0-21.841 13.207l.028.056Z"/><g style="mix-blend-mode:screen"><mask id="c" fill="#fff"><path d="M779.473 171.092c12.27 9.287 26.13 18.263 31.868 32.521 3.153 7.839 3.55 16.644 7.527 24.085 5.027 9.317 15.081 15.026 25.335 17.553 10.282 2.557 20.99 2.415 31.555 2.869 17.951.795 36.1 3.607 52.83 10.395 8.662 3.522 21.557 8.663 26.585 17.014 1.704 2.812 2.357 6.106 3.976 8.947 1.193 2.13 2.897 3.948 2.585 6.618-.426 3.578-4.942 5.197-8.493 4.544-6.078-1.136-11.645-3.153-17.837-4.175-3.863-.625-8.805.057-8.947 4.686-.17 6.05 8.294 7.697 12.299 9.487 12.525 5.652 22.154 10.48 36.327 11.304 13.662.795 27.577-.256 40.867 2.982 6.71 1.619 13.18 4.318 20.03 5.028 13.21 1.363 17.24-8.237 27.89-12.98 10.62-4.744 22.86-2.244 34.42-.71 2.62.34 5.34.596 8.04.71-101.85 64.616-237.388 37.349-306.038-62.998-19.655-28.744-31.783-60.498-36.696-92.849 4.487 5.653 10.196 10.651 15.905 14.969h-.028ZM908.28 298.336c-.654-2.499-2.329-4.601-4.062-6.504-9.487-10.424-22.779-17.354-36.753-19.172-3.465-.454-7.953.029-9.032 3.352-.568 1.732.113 3.607.88 5.283 5.255 11.474 15.394 19.995 27.21 24.114 6.05 2.13 25.108 5.424 21.757-7.101v.028Zm82.283 4.743c.908-.142 1.874-.397 2.414-1.107.937-1.25.057-3.011-.881-4.261-4.203-5.481-10.14-9.628-16.729-11.702-6.845-2.13-5.965 7.556-2.84 10.822 4.544 4.772 11.531 7.243 18.036 6.248Zm-26.131-404.91c2.869 3.636 6.504 9.174 10.679 11.475 5.113 2.812 12.554 2.812 18.15 4.658 12.529 4.147 24.199 10.992 33.829 20.024 3.24 3.039 6.33 6.362 10.39 8.123 4.07 1.761 9.43 1.42 12.13-2.102 2.47-3.238 1.93-8.01 4.38-11.247 3.63-4.8 11.16-3.409 16.73-1.08 20.84 8.635 39.7 24.086 52.28 42.86 8.87 13.208 13.92 28.659 22.41 42.122 13.61 20.535 32.98 35.22 51.16 51.437 3.12 2.784 6.1 5.596 9 8.521-6.05-27.153-17.27-53.624-33.94-77.966a83.643 83.643 0 0 0-2.02-2.868c-2.15-3.068-4.37-6.05-6.7-9.004l-1.31-1.648c-1.08-1.334-2.15-2.67-3.23-3.976-.51-.625-1.03-1.221-1.57-1.846-.45-.54-.93-1.08-1.39-1.619-.4-.454-.79-.909-1.19-1.363-.48-.512-.97-1.051-1.42-1.59-.46-.512-.91-.995-1.36-1.506-.46-.512-.91-.994-1.4-1.506-.45-.482-.93-.994-1.39-1.476-.45-.483-.93-.995-1.42-1.477-.71-.739-1.45-1.506-2.18-2.244-.52-.512-1.03-1.023-1.54-1.534-.11-.114-.25-.256-.37-.37-.45-.454-.93-.908-1.39-1.363-1.19-1.164-2.41-2.3-3.63-3.408-.74-.653-1.45-1.335-2.22-1.988-.71-.625-1.42-1.278-2.13-1.875a198.2 198.2 0 0 0-9.26-7.64 257.901 257.901 0 0 0-4.71-3.579c-.91-.653-1.82-1.335-2.73-1.988-.71-.483-1.39-.994-2.1-1.477-.83-.568-1.62-1.136-2.45-1.676-.82-.568-1.64-1.108-2.47-1.647-.82-.54-1.64-1.08-2.5-1.62-1.67-1.078-3.35-2.1-5.02-3.123-.86-.512-1.71-1.023-2.56-1.506-.85-.511-1.7-.994-2.56-1.477-.85-.482-1.73-.965-2.58-1.448-1.73-.966-3.49-1.903-5.23-2.812a228.73 228.73 0 0 0-5.28-2.642c-.71-.34-1.42-.681-2.16-1.022-.82-.37-1.65-.767-2.47-1.136-.62-.284-1.28-.597-1.93-.88a96.77 96.77 0 0 0-3.04-1.336c-.82-.369-1.68-.71-2.5-1.05-.94-.398-1.9-.796-2.84-1.165-1.14-.454-2.3-.909-3.44-1.335-.88-.312-1.73-.653-2.61-.966-.85-.312-1.7-.625-2.58-.937-.86-.284-1.71-.596-2.56-.88-.45-.17-.88-.313-1.34-.455-.45-.142-.9-.312-1.39-.454a225.035 225.035 0 0 0-89.665-10.197h-.057c-.426.085-.88.171-1.306.256v.028Zm117.248 54.306c-4.26-1.76-22.18-6.987-21.73-.71.11 1.449.82 2.784 1.59 4.005 7.1 11.844 17.78 21.5 30.28 27.352 2.33 1.08 5.22 2.017 7.33.54 2.21-1.534 2.24-4.8 1.7-7.442-2.3-10.14-9.37-19.712-19.17-23.745ZM942.874 217.786c-3.067-4.63-7.243-8.578-12.27-10.878-5.027-2.301-10.963-2.869-16.189-1.023-2.784.994-5.539 2.897-6.363 5.737-1.022 3.522 1.165 7.101 3.323 10.055 3.636 4.999 7.783 10.055 13.52 12.327 10.31 4.061 25.563-4.8 17.979-16.218Zm-96.541 12.895c7.839 2.783 15.934 2.016 23.631 5.283 3.664 1.562 8.351 2.499 11.219-.256 2.187-2.102 2.301-5.709 1.051-8.464-1.25-2.755-3.635-4.828-6.021-6.703-10.992-8.606-23.83-14.486-36.526-20.28-3.92-1.789-8.606-3.55-12.327-1.363-2.641 1.562-3.948 4.828-3.806 7.896.142 3.067 1.505 5.936 3.181 8.521 4.573 7.129 11.645 12.554 19.626 15.394l-.028-.028Zm170.387 65.44c-.23 1.96.91 3.806 2.13 5.396 4.63 6.107 11.08 11.248 18.66 12.498 11.68 1.903 18.46-7.783 27.78-12.583 8.07-4.147 17.52-5.68 26.44-3.976 9.75 1.846 19.32 3.351 29.23 4.544 2.9-2.158 5.74-4.402 8.52-6.703-4.2-.256-8.38-.71-12.47-1.676-10.56-2.499-17.72-12.071-29.03-11.162-9.88.824-17.72 9.259-27.49 10.85-6.76 1.108-13.55-1.165-20.19-2.812-6.65-1.647-14.12-2.499-20 1.023-1.73 1.05-3.35 2.613-3.58 4.629v-.028ZM778.365 35.326l-.483 1.136c-4.516 11.049-8.18 22.41-10.878 33.97.114.199.227.398.312.568 4.886 8.606 14.344 14.969 15.736 24.767 1.335 9.345-5.226 17.724-8.266 26.642-9.088 26.727 14.855 45.189 34.851 57.317 1.817 1.108 3.72 2.159 5.851 2.414 2.101.256 4.459-.454 5.595-2.243 1.477-2.358.398-5.397-.824-7.896-6.987-14.401-22.097-28.488-19.569-46.013 1.306-9.06 8.123-16.985 7.64-26.102-.398-8.18-6.504-14.713-11.162-21.473-8.72-12.696-13.605-27.465-18.547-42.235-.114-.284-.199-.596-.284-.88l.028.028Zm18.547-35.39c-4.402 6.845-8.435 13.89-12.043 21.132 3.38 5.084 8.635 8.947 14.571 10.452 1.761.455 3.721.682 5.311-.227 1.591-.909 2.443-2.783 2.557-4.63.113-1.817-.426-3.635-.994-5.396-1.676-5.17-4.545-15.167-9.402-21.33Zm136.277-96.683c7.441 9.373 19.115 13.037 28.431 20.308 5.482 4.29 7.214 9.941 11.872 14.684 4.658 4.744 11.049 7.64 17.269 9.657 9.146 2.983 18.889 4.658 26.979 9.885 6.22 4.033 11 9.912 15.54 15.763 8.12 10.48 15.91 21.274 23.26 32.323 4.63 6.958 9.18 14.059 15.23 19.853 6.02 5.766 13.86 10.14 22.21 10.282 7.92.142 15.93-3.522 23.57-1.392 4.92 1.364 8.86 4.914 12.58 8.379 18.15 16.843 37.95 33.402 53.91 52.176 9.43 11.105 18.98 22.353 26.81 34.566.4-10.963 0-21.955-1.25-32.919-8.15-11.702-18.37-22.069-28.45-32.237-10.29-10.367-20.57-20.762-30.85-31.13-19.51-19.71-40.42-40.218-67.31-47.063-4.07-1.022-8.24-1.732-12.1-3.351-8.3-3.465-14.26-10.708-20.57-17.156-17.58-18.035-39.73-31.214-63.279-40.161-7.044-2.698-14.315-5.028-20.678-9.117-6.788-4.346-12.099-10.34-17.155-16.616-5.368.88-10.708 1.96-16.019 3.238v.028ZM1152.12 176.29c1.82-.454 3.63-1.391 4.68-2.954 2.19-3.323.06-7.725-2.18-11.02-6.17-9.117-13.72-17.78-23.26-23.489-4.29-2.556-7.62-3.238-12.33-3.891-4.38-.625-9.49-3.664-13.78-3.408-1.19.085-2.33.653-3.32 1.306-4.09 2.613-7.41 7.385-6.31 12.128.4 1.619 1.25 3.096 2.28 4.431a21.94 21.94 0 0 0 11.24 7.669c3.36.965 6.91 1.136 10.17 2.272 10.94 3.806 19.69 20.365 32.81 16.985v-.029ZM990.619-39.543c-4.459-1.194-9.202-1.96-13.69-.853-4.487 1.108-8.634 4.545-9.401 9.118-.852 5.055 2.499 9.912 6.447 13.15 3.551 2.926 7.697 5.084 11.787 7.186 13.975 7.243 27.948 14.514 41.948 21.757 2.11 1.107 5.06 2.045 6.56.198.94-1.164.74-2.84.4-4.288-4.63-20.166-24.25-40.986-44.022-46.297l-.029.029Zm89.551 99.892c3.41.767 7.05.483 10.29-.852 2.52-1.05 4.51-1.335 7.15-1.931 2.76-.625 4.97-1.847 6.02-4.602.17-.454.29-.965.12-1.391-.2-.483-.66-.767-1.08-1.051-4.57-2.784-9.26-5.567-14.52-6.675-5.22-1.08-11.19-.17-14.94 3.636-1.78 1.817-2.98 4.516-2.15 6.93 1.19 3.437 5.9 5.198 9.14 5.936h-.03ZM880.757-76.893c10.055 10.253 25.449 14.428 36.896 23.517 11.73 9.373 19.938 24.341 34.452 28.147.881.228 1.875.398 2.613-.085.625-.397.909-1.164 1.193-1.874 2.613-7.215 5.255-14.798 4.147-22.353-1.591-10.85-10.14-18.462-17.809-25.45-6.618-6.049-11.957-13.064-18.206-19.341a224.58 224.58 0 0 0-43.257 17.439h-.029Zm-13.179 32.095c5.425 9.345 13.918 16.417 20.734 24.796C904.701.107 911.631 27.97 932.394 43.592c12.241 9.202 27.92 12.951 40.19 22.097 17.439 12.98 25.732 34.935 41.126 50.244 14.74 14.656 35.79 23.063 46.87 40.673 5.51 8.777 8.01 19.115 12.78 28.318 6.87 13.236 18.15 23.347 30.76 31.016 6.5 3.948 13.37 7.299 20.36 10.31 12.87 5.51 24.23 13.52 38.26 16.331 3.86.796 7.92 1.222 11.53 2.756-4.66 7.1-9.74 14.002-15.25 20.62-11.9-4.8-22.75-12.327-32.95-19.967-10.62-7.953-21.92-12.185-35.47-10.736-11.14 1.192-19.66 5.794-30.39-.313-8.67-4.914-19.43-6.192-27.27-12.554-7.41-5.993-11.08-15.366-15.08-24.057-15.91-34.538-42.152-64.247-74.475-84.328-8.35-5.169-17.78-9.856-27.493-8.663-3.75.455-7.357 1.79-11.134 2.244-15.054 1.789-28.119-10.765-35.305-24.114-3.891-7.186-6.817-14.911-8.521-22.921-1.818-8.407-2.301-17.013-3.465-25.534-3.636-26.216-14.145-51.41-30.022-72.57a226.383 226.383 0 0 1 31.328-25.903c3.295 6.05 5.397 12.753 8.862 18.718l-.057-.057Zm48.853 120.2c4.119-1.363 8.549-.425 12.583-1.618 10.367-3.068 1.817-13.975-2.784-18.917-12.81-13.775-25.591-27.55-38.4-41.326-2.983-3.21-7.385-6.731-11.276-4.658-2.926 1.534-3.579 5.368-3.693 8.663-.767 20.933 7.442 42.036 22.126 56.976 2.528 2.585 5.539 5.084 9.146 5.311 4.573.256 8.18-3.039 12.298-4.402v-.028Zm141.839 139.345c4.24 1.761 21.51 4.033 15.6-5.425-5.34-8.521-14.71-14.116-19.29-23.063-1.79-3.494-2.75-7.357-4.29-10.992-1.53-3.607-3.83-7.158-7.35-8.919-1.37-.681-2.9-1.079-4.38-.795-.96.171-1.87.625-2.7 1.193-4.11 2.84-5.76 8.322-5.19 13.293.57 4.97 2.95 9.543 5.54 13.832 5.42 9.032 12.15 16.757 22.06 20.904v-.028ZM889.221-50.337c5.652.114 10.935 2.784 15.65 5.851 10.708 6.93 19.655 16.133 27.835 25.818 8.237 9.743 11.446 16.53 24.994 16.9 38.571 1.023 71.58 27.239 98.79 54.619 8.23 8.265 17.72 17.41 29.39 17.013 6.14-.199 11.87-3.124 17.92-4.147 10.68-1.817 21.51 2.33 30.94 7.669 12.78 7.243 24.14 16.758 34.16 27.494 14.97 16.047 28.89 35.361 39.51 55.101a225.755 225.755 0 0 1-26.19 76.233h-1.19c-17.32-.34-34.45-5.794-48.99-15.11-13.98-8.947-33.29-23.83-36.84-40.9-.71-3.465.06-8.18 3.55-8.805 1.33-.255 2.67.227 3.95.71 11.22 4.232 24.37 8.266 34.22 15.082 7.5 5.17 15.68 12.639 25.62 9.061 7.67-2.755 11.53-11.901 10.65-19.996-.91-8.095-5.54-15.281-10.53-21.728-8.47-10.935-18.67-20.99-31.36-26.528-5.03-2.187-10.37-3.664-15.23-6.277-12.61-6.788-21.47-21.132-35.64-23.035-2.64-.37-6.08.34-6.65 2.954-.2.824 0 1.704.2 2.528 1.9 7.981 5.74 15.508 11.02 21.756 1.02 1.222 2.13 2.443 2.56 3.977 1.82 6.76-6.62 10.821-11.85 9.202-8.6-2.67-15.22-10.992-22.43-15.962-10.17-7.044-20.77-13.548-31.13-20.308-3.53-2.3-7.1-4.658-9.72-7.981-2.58-3.323-4.03-7.84-2.7-11.816.57-1.647 1.57-3.153 1.68-4.857.17-2.016-.91-3.89-1.93-5.623-2.76-4.687-5.8-9.6-10.624-12.072-1.988-1.022-4.203-1.562-6.334-2.187-9.884-2.897-20.052-7.157-29.624-10.878-11.418-4.402-22.892-11.503-30.845-20.904-7.811-9.203-10.168-21.643-17.809-31.5-8.123-10.423-18.092-19.256-27.835-28.118-2.84-2.613-5.964-6.39-4.317-9.884 1.222-2.528 4.403-3.408 7.186-3.323l-.057-.029ZM1137.41 109.43c2.27.313 12.21 1.477 13.49-.369.28-.398.28-.937.2-1.449-.46-3.635-3.07-6.561-5.63-9.174-9.06-9.174-20.16-17.78-33.06-18.064-2.19-.057-4.77.37-5.85 2.272-1.45 2.528.65 5.539 2.64 7.698 4.4 4.771 8.86 9.571 14.2 13.292 4.18 2.897 8.92 5.084 13.98 5.794h.03ZM822.759-13.867c5.453 8.662 8.435 19.427 5.595 29.283-2.443 8.578-9.089 16.076-9.004 24.994.114 11.702 11.305 19.797 16.928 30.05 5.425 9.913 5.511 21.757 6.789 33.005.738 6.419 1.732 15.735 6.334 20.62 4.43 4.715 10.793 8.634 15.536 13.349 4.999 4.971 10.566 9.771 17.382 11.56 6.817 1.761 15.139-.454 18.349-6.703 2.3-4.431 1.675-10.083 4.43-14.258 2.898-4.431 8.919-5.965 14.145-4.999 5.198.966 9.799 3.948 14.145 6.959 31.271 21.728 58.879 49.705 75.862 83.788 1.68 3.38 3.3 6.987 3.18 10.765-.11 3.777-2.47 7.754-6.19 8.464-1.45.284-3.24.17-4.06 1.42-.97 1.448.28 3.323 1.53 4.573 8.89 8.833 25.05 22.211 38.6 15.792 3.67-1.733 7.1-4.374 11.16-4.715 10.31-.881 16.79 10.452 27.61 7.441 6.36-1.789 11.99-5.879 18.52-6.93 10.17-1.619 19.23 4.346 27.81 8.862 4.4 2.3 9.06 4.913 13.97 5.822 1.31.256 15.76 2.926 14.43 4.431a226.39 226.39 0 0 1-11.9 12.668 51.57 51.57 0 0 0-2.61-.483c-6.08-.937-12.47-1.42-18.44-2.613-6.87-1.363-12.49-6.249-19.25-8.208-7.05-2.074-15.11-1.989-21.33 1.931-5.43 3.408-9.55 9.657-15.91 10.339-5.51.568-10.45-3.295-15.88-4.289-5.56-1.023-11.16.994-16.76 1.96-22.72 3.947-44.872-9.714-61.203-24.143-7.328-6.476-19.996-16.502-17.241-27.778 1.023-4.118 4.09-7.583 4.857-11.759 1.505-8.236-5.368-15.025-11.815-18.575-11.248-6.192-23.149-18.036-35.873-20.791-3.38-.71-7.215-.199-9.714 2.187-5.226 4.999-1.846 14.344-5.652 20.479-6.277 10.139-17.297 3.635-24.682-1.08-15.139-9.657-29.653-18.746-41.866-32.18-8.606-9.458-20.365-22.524-18.717-36.413.767-6.305 5.396-11.417 7.583-17.382 4.601-12.469-2.016-26.074-9.032-37.378-4.63-7.47-9.742-15.707-8.379-24.398 1.648-10.51 12.185-17.61 15.025-27.863 3.039-10.964-3.408-22.183-10.253-31.272a142.782 142.782 0 0 0-2.499-3.266 214.734 214.734 0 0 1 10.537-13.321c2.869 3.181 5.652 6.447 7.981 10.14l-.028-.085Zm105.062 153.005c-2.67-.937-6.334-2.527-8.862-.852-2.13 1.392-3.834 6.249-3.664 8.663.171 2.301 1.562 4.318 3.011 6.135a84.824 84.824 0 0 0 25.165 21.416c2.499 1.392 5.623 2.67 8.123 1.221 1.874-1.079 2.727-3.465 2.585-5.623-.142-2.159-1.108-4.204-2.074-6.135-2.414-4.857-5.027-9.657-8.521-13.833-4.061-4.8-9.742-8.918-15.735-10.992h-.028Z"/></mask><path fill="#302A46" d="M779.473 171.092c12.27 9.287 26.13 18.263 31.868 32.521 3.153 7.839 3.55 16.644 7.527 24.085 5.027 9.317 15.081 15.026 25.335 17.553 10.282 2.557 20.99 2.415 31.555 2.869 17.951.795 36.1 3.607 52.83 10.395 8.662 3.522 21.557 8.663 26.585 17.014 1.704 2.812 2.357 6.106 3.976 8.947 1.193 2.13 2.897 3.948 2.585 6.618-.426 3.578-4.942 5.197-8.493 4.544-6.078-1.136-11.645-3.153-17.837-4.175-3.863-.625-8.805.057-8.947 4.686-.17 6.05 8.294 7.697 12.299 9.487 12.525 5.652 22.154 10.48 36.327 11.304 13.662.795 27.577-.256 40.867 2.982 6.71 1.619 13.18 4.318 20.03 5.028 13.21 1.363 17.24-8.237 27.89-12.98 10.62-4.744 22.86-2.244 34.42-.71 2.62.34 5.34.596 8.04.71-101.85 64.616-237.388 37.349-306.038-62.998-19.655-28.744-31.783-60.498-36.696-92.849 4.487 5.653 10.196 10.651 15.905 14.969h-.028ZM908.28 298.336c-.654-2.499-2.329-4.601-4.062-6.504-9.487-10.424-22.779-17.354-36.753-19.172-3.465-.454-7.953.029-9.032 3.352-.568 1.732.113 3.607.88 5.283 5.255 11.474 15.394 19.995 27.21 24.114 6.05 2.13 25.108 5.424 21.757-7.101v.028Zm82.283 4.743c.908-.142 1.874-.397 2.414-1.107.937-1.25.057-3.011-.881-4.261-4.203-5.481-10.14-9.628-16.729-11.702-6.845-2.13-5.965 7.556-2.84 10.822 4.544 4.772 11.531 7.243 18.036 6.248Zm-26.131-404.91c2.869 3.636 6.504 9.174 10.679 11.475 5.113 2.812 12.554 2.812 18.15 4.658 12.529 4.147 24.199 10.992 33.829 20.024 3.24 3.039 6.33 6.362 10.39 8.123 4.07 1.761 9.43 1.42 12.13-2.102 2.47-3.238 1.93-8.01 4.38-11.247 3.63-4.8 11.16-3.409 16.73-1.08 20.84 8.635 39.7 24.086 52.28 42.86 8.87 13.208 13.92 28.659 22.41 42.122 13.61 20.535 32.98 35.22 51.16 51.437 3.12 2.784 6.1 5.596 9 8.521-6.05-27.153-17.27-53.624-33.94-77.966a83.643 83.643 0 0 0-2.02-2.868c-2.15-3.068-4.37-6.05-6.7-9.004l-1.31-1.648c-1.08-1.334-2.15-2.67-3.23-3.976-.51-.625-1.03-1.221-1.57-1.846-.45-.54-.93-1.08-1.39-1.619-.4-.454-.79-.909-1.19-1.363-.48-.512-.97-1.051-1.42-1.59-.46-.512-.91-.995-1.36-1.506-.46-.512-.91-.994-1.4-1.506-.45-.482-.93-.994-1.39-1.476-.45-.483-.93-.995-1.42-1.477-.71-.739-1.45-1.506-2.18-2.244-.52-.512-1.03-1.023-1.54-1.534-.11-.114-.25-.256-.37-.37-.45-.454-.93-.908-1.39-1.363-1.19-1.164-2.41-2.3-3.63-3.408-.74-.653-1.45-1.335-2.22-1.988-.71-.625-1.42-1.278-2.13-1.875a198.2 198.2 0 0 0-9.26-7.64 257.901 257.901 0 0 0-4.71-3.579c-.91-.653-1.82-1.335-2.73-1.988-.71-.483-1.39-.994-2.1-1.477-.83-.568-1.62-1.136-2.45-1.676-.82-.568-1.64-1.108-2.47-1.647-.82-.54-1.64-1.08-2.5-1.62-1.67-1.078-3.35-2.1-5.02-3.123-.86-.512-1.71-1.023-2.56-1.506-.85-.511-1.7-.994-2.56-1.477-.85-.482-1.73-.965-2.58-1.448-1.73-.966-3.49-1.903-5.23-2.812a228.73 228.73 0 0 0-5.28-2.642c-.71-.34-1.42-.681-2.16-1.022-.82-.37-1.65-.767-2.47-1.136-.62-.284-1.28-.597-1.93-.88a96.77 96.77 0 0 0-3.04-1.336c-.82-.369-1.68-.71-2.5-1.05-.94-.398-1.9-.796-2.84-1.165-1.14-.454-2.3-.909-3.44-1.335-.88-.312-1.73-.653-2.61-.966-.85-.312-1.7-.625-2.58-.937-.86-.284-1.71-.596-2.56-.88-.45-.17-.88-.313-1.34-.455-.45-.142-.9-.312-1.39-.454a225.035 225.035 0 0 0-89.665-10.197h-.057c-.426.085-.88.171-1.306.256v.028Zm117.248 54.306c-4.26-1.76-22.18-6.987-21.73-.71.11 1.449.82 2.784 1.59 4.005 7.1 11.844 17.78 21.5 30.28 27.352 2.33 1.08 5.22 2.017 7.33.54 2.21-1.534 2.24-4.8 1.7-7.442-2.3-10.14-9.37-19.712-19.17-23.745ZM942.874 217.786c-3.067-4.63-7.243-8.578-12.27-10.878-5.027-2.301-10.963-2.869-16.189-1.023-2.784.994-5.539 2.897-6.363 5.737-1.022 3.522 1.165 7.101 3.323 10.055 3.636 4.999 7.783 10.055 13.52 12.327 10.31 4.061 25.563-4.8 17.979-16.218Zm-96.541 12.895c7.839 2.783 15.934 2.016 23.631 5.283 3.664 1.562 8.351 2.499 11.219-.256 2.187-2.102 2.301-5.709 1.051-8.464-1.25-2.755-3.635-4.828-6.021-6.703-10.992-8.606-23.83-14.486-36.526-20.28-3.92-1.789-8.606-3.55-12.327-1.363-2.641 1.562-3.948 4.828-3.806 7.896.142 3.067 1.505 5.936 3.181 8.521 4.573 7.129 11.645 12.554 19.626 15.394l-.028-.028Zm170.387 65.44c-.23 1.96.91 3.806 2.13 5.396 4.63 6.107 11.08 11.248 18.66 12.498 11.68 1.903 18.46-7.783 27.78-12.583 8.07-4.147 17.52-5.68 26.44-3.976 9.75 1.846 19.32 3.351 29.23 4.544 2.9-2.158 5.74-4.402 8.52-6.703-4.2-.256-8.38-.71-12.47-1.676-10.56-2.499-17.72-12.071-29.03-11.162-9.88.824-17.72 9.259-27.49 10.85-6.76 1.108-13.55-1.165-20.19-2.812-6.65-1.647-14.12-2.499-20 1.023-1.73 1.05-3.35 2.613-3.58 4.629v-.028ZM778.365 35.326l-.483 1.136c-4.516 11.049-8.18 22.41-10.878 33.97.114.199.227.398.312.568 4.886 8.606 14.344 14.969 15.736 24.767 1.335 9.345-5.226 17.724-8.266 26.642-9.088 26.727 14.855 45.189 34.851 57.317 1.817 1.108 3.72 2.159 5.851 2.414 2.101.256 4.459-.454 5.595-2.243 1.477-2.358.398-5.397-.824-7.896-6.987-14.401-22.097-28.488-19.569-46.013 1.306-9.06 8.123-16.985 7.64-26.102-.398-8.18-6.504-14.713-11.162-21.473-8.72-12.696-13.605-27.465-18.547-42.235-.114-.284-.199-.596-.284-.88l.028.028Zm18.547-35.39c-4.402 6.845-8.435 13.89-12.043 21.132 3.38 5.084 8.635 8.947 14.571 10.452 1.761.455 3.721.682 5.311-.227 1.591-.909 2.443-2.783 2.557-4.63.113-1.817-.426-3.635-.994-5.396-1.676-5.17-4.545-15.167-9.402-21.33Zm136.277-96.683c7.441 9.373 19.115 13.037 28.431 20.308 5.482 4.29 7.214 9.941 11.872 14.684 4.658 4.744 11.049 7.64 17.269 9.657 9.146 2.983 18.889 4.658 26.979 9.885 6.22 4.033 11 9.912 15.54 15.763 8.12 10.48 15.91 21.274 23.26 32.323 4.63 6.958 9.18 14.059 15.23 19.853 6.02 5.766 13.86 10.14 22.21 10.282 7.92.142 15.93-3.522 23.57-1.392 4.92 1.364 8.86 4.914 12.58 8.379 18.15 16.843 37.95 33.402 53.91 52.176 9.43 11.105 18.98 22.353 26.81 34.566.4-10.963 0-21.955-1.25-32.919-8.15-11.702-18.37-22.069-28.45-32.237-10.29-10.367-20.57-20.762-30.85-31.13-19.51-19.71-40.42-40.218-67.31-47.063-4.07-1.022-8.24-1.732-12.1-3.351-8.3-3.465-14.26-10.708-20.57-17.156-17.58-18.035-39.73-31.214-63.279-40.161-7.044-2.698-14.315-5.028-20.678-9.117-6.788-4.346-12.099-10.34-17.155-16.616-5.368.88-10.708 1.96-16.019 3.238v.028ZM1152.12 176.29c1.82-.454 3.63-1.391 4.68-2.954 2.19-3.323.06-7.725-2.18-11.02-6.17-9.117-13.72-17.78-23.26-23.489-4.29-2.556-7.62-3.238-12.33-3.891-4.38-.625-9.49-3.664-13.78-3.408-1.19.085-2.33.653-3.32 1.306-4.09 2.613-7.41 7.385-6.31 12.128.4 1.619 1.25 3.096 2.28 4.431a21.94 21.94 0 0 0 11.24 7.669c3.36.965 6.91 1.136 10.17 2.272 10.94 3.806 19.69 20.365 32.81 16.985v-.029ZM990.619-39.543c-4.459-1.194-9.202-1.96-13.69-.853-4.487 1.108-8.634 4.545-9.401 9.118-.852 5.055 2.499 9.912 6.447 13.15 3.551 2.926 7.697 5.084 11.787 7.186 13.975 7.243 27.948 14.514 41.948 21.757 2.11 1.107 5.06 2.045 6.56.198.94-1.164.74-2.84.4-4.288-4.63-20.166-24.25-40.986-44.022-46.297l-.029.029Zm89.551 99.892c3.41.767 7.05.483 10.29-.852 2.52-1.05 4.51-1.335 7.15-1.931 2.76-.625 4.97-1.847 6.02-4.602.17-.454.29-.965.12-1.391-.2-.483-.66-.767-1.08-1.051-4.57-2.784-9.26-5.567-14.52-6.675-5.22-1.08-11.19-.17-14.94 3.636-1.78 1.817-2.98 4.516-2.15 6.93 1.19 3.437 5.9 5.198 9.14 5.936h-.03ZM880.757-76.893c10.055 10.253 25.449 14.428 36.896 23.517 11.73 9.373 19.938 24.341 34.452 28.147.881.228 1.875.398 2.613-.085.625-.397.909-1.164 1.193-1.874 2.613-7.215 5.255-14.798 4.147-22.353-1.591-10.85-10.14-18.462-17.809-25.45-6.618-6.049-11.957-13.064-18.206-19.341a224.58 224.58 0 0 0-43.257 17.439h-.029Zm-13.179 32.095c5.425 9.345 13.918 16.417 20.734 24.796C904.701.107 911.631 27.97 932.394 43.592c12.241 9.202 27.92 12.951 40.19 22.097 17.439 12.98 25.732 34.935 41.126 50.244 14.74 14.656 35.79 23.063 46.87 40.673 5.51 8.777 8.01 19.115 12.78 28.318 6.87 13.236 18.15 23.347 30.76 31.016 6.5 3.948 13.37 7.299 20.36 10.31 12.87 5.51 24.23 13.52 38.26 16.331 3.86.796 7.92 1.222 11.53 2.756-4.66 7.1-9.74 14.002-15.25 20.62-11.9-4.8-22.75-12.327-32.95-19.967-10.62-7.953-21.92-12.185-35.47-10.736-11.14 1.192-19.66 5.794-30.39-.313-8.67-4.914-19.43-6.192-27.27-12.554-7.41-5.993-11.08-15.366-15.08-24.057-15.91-34.538-42.152-64.247-74.475-84.328-8.35-5.169-17.78-9.856-27.493-8.663-3.75.455-7.357 1.79-11.134 2.244-15.054 1.789-28.119-10.765-35.305-24.114-3.891-7.186-6.817-14.911-8.521-22.921-1.818-8.407-2.301-17.013-3.465-25.534-3.636-26.216-14.145-51.41-30.022-72.57a226.383 226.383 0 0 1 31.328-25.903c3.295 6.05 5.397 12.753 8.862 18.718l-.057-.057Zm48.853 120.2c4.119-1.363 8.549-.425 12.583-1.618 10.367-3.068 1.817-13.975-2.784-18.917-12.81-13.775-25.591-27.55-38.4-41.326-2.983-3.21-7.385-6.731-11.276-4.658-2.926 1.534-3.579 5.368-3.693 8.663-.767 20.933 7.442 42.036 22.126 56.976 2.528 2.585 5.539 5.084 9.146 5.311 4.573.256 8.18-3.039 12.298-4.402v-.028Zm141.839 139.345c4.24 1.761 21.51 4.033 15.6-5.425-5.34-8.521-14.71-14.116-19.29-23.063-1.79-3.494-2.75-7.357-4.29-10.992-1.53-3.607-3.83-7.158-7.35-8.919-1.37-.681-2.9-1.079-4.38-.795-.96.171-1.87.625-2.7 1.193-4.11 2.84-5.76 8.322-5.19 13.293.57 4.97 2.95 9.543 5.54 13.832 5.42 9.032 12.15 16.757 22.06 20.904v-.028ZM889.221-50.337c5.652.114 10.935 2.784 15.65 5.851 10.708 6.93 19.655 16.133 27.835 25.818 8.237 9.743 11.446 16.53 24.994 16.9 38.571 1.023 71.58 27.239 98.79 54.619 8.23 8.265 17.72 17.41 29.39 17.013 6.14-.199 11.87-3.124 17.92-4.147 10.68-1.817 21.51 2.33 30.94 7.669 12.78 7.243 24.14 16.758 34.16 27.494 14.97 16.047 28.89 35.361 39.51 55.101a225.755 225.755 0 0 1-26.19 76.233h-1.19c-17.32-.34-34.45-5.794-48.99-15.11-13.98-8.947-33.29-23.83-36.84-40.9-.71-3.465.06-8.18 3.55-8.805 1.33-.255 2.67.227 3.95.71 11.22 4.232 24.37 8.266 34.22 15.082 7.5 5.17 15.68 12.639 25.62 9.061 7.67-2.755 11.53-11.901 10.65-19.996-.91-8.095-5.54-15.281-10.53-21.728-8.47-10.935-18.67-20.99-31.36-26.528-5.03-2.187-10.37-3.664-15.23-6.277-12.61-6.788-21.47-21.132-35.64-23.035-2.64-.37-6.08.34-6.65 2.954-.2.824 0 1.704.2 2.528 1.9 7.981 5.74 15.508 11.02 21.756 1.02 1.222 2.13 2.443 2.56 3.977 1.82 6.76-6.62 10.821-11.85 9.202-8.6-2.67-15.22-10.992-22.43-15.962-10.17-7.044-20.77-13.548-31.13-20.308-3.53-2.3-7.1-4.658-9.72-7.981-2.58-3.323-4.03-7.84-2.7-11.816.57-1.647 1.57-3.153 1.68-4.857.17-2.016-.91-3.89-1.93-5.623-2.76-4.687-5.8-9.6-10.624-12.072-1.988-1.022-4.203-1.562-6.334-2.187-9.884-2.897-20.052-7.157-29.624-10.878-11.418-4.402-22.892-11.503-30.845-20.904-7.811-9.203-10.168-21.643-17.809-31.5-8.123-10.423-18.092-19.256-27.835-28.118-2.84-2.613-5.964-6.39-4.317-9.884 1.222-2.528 4.403-3.408 7.186-3.323l-.057-.029ZM1137.41 109.43c2.27.313 12.21 1.477 13.49-.369.28-.398.28-.937.2-1.449-.46-3.635-3.07-6.561-5.63-9.174-9.06-9.174-20.16-17.78-33.06-18.064-2.19-.057-4.77.37-5.85 2.272-1.45 2.528.65 5.539 2.64 7.698 4.4 4.771 8.86 9.571 14.2 13.292 4.18 2.897 8.92 5.084 13.98 5.794h.03ZM822.759-13.867c5.453 8.662 8.435 19.427 5.595 29.283-2.443 8.578-9.089 16.076-9.004 24.994.114 11.702 11.305 19.797 16.928 30.05 5.425 9.913 5.511 21.757 6.789 33.005.738 6.419 1.732 15.735 6.334 20.62 4.43 4.715 10.793 8.634 15.536 13.349 4.999 4.971 10.566 9.771 17.382 11.56 6.817 1.761 15.139-.454 18.349-6.703 2.3-4.431 1.675-10.083 4.43-14.258 2.898-4.431 8.919-5.965 14.145-4.999 5.198.966 9.799 3.948 14.145 6.959 31.271 21.728 58.879 49.705 75.862 83.788 1.68 3.38 3.3 6.987 3.18 10.765-.11 3.777-2.47 7.754-6.19 8.464-1.45.284-3.24.17-4.06 1.42-.97 1.448.28 3.323 1.53 4.573 8.89 8.833 25.05 22.211 38.6 15.792 3.67-1.733 7.1-4.374 11.16-4.715 10.31-.881 16.79 10.452 27.61 7.441 6.36-1.789 11.99-5.879 18.52-6.93 10.17-1.619 19.23 4.346 27.81 8.862 4.4 2.3 9.06 4.913 13.97 5.822 1.31.256 15.76 2.926 14.43 4.431a226.39 226.39 0 0 1-11.9 12.668 51.57 51.57 0 0 0-2.61-.483c-6.08-.937-12.47-1.42-18.44-2.613-6.87-1.363-12.49-6.249-19.25-8.208-7.05-2.074-15.11-1.989-21.33 1.931-5.43 3.408-9.55 9.657-15.91 10.339-5.51.568-10.45-3.295-15.88-4.289-5.56-1.023-11.16.994-16.76 1.96-22.72 3.947-44.872-9.714-61.203-24.143-7.328-6.476-19.996-16.502-17.241-27.778 1.023-4.118 4.09-7.583 4.857-11.759 1.505-8.236-5.368-15.025-11.815-18.575-11.248-6.192-23.149-18.036-35.873-20.791-3.38-.71-7.215-.199-9.714 2.187-5.226 4.999-1.846 14.344-5.652 20.479-6.277 10.139-17.297 3.635-24.682-1.08-15.139-9.657-29.653-18.746-41.866-32.18-8.606-9.458-20.365-22.524-18.717-36.413.767-6.305 5.396-11.417 7.583-17.382 4.601-12.469-2.016-26.074-9.032-37.378-4.63-7.47-9.742-15.707-8.379-24.398 1.648-10.51 12.185-17.61 15.025-27.863 3.039-10.964-3.408-22.183-10.253-31.272a142.782 142.782 0 0 0-2.499-3.266 214.734 214.734 0 0 1 10.537-13.321c2.869 3.181 5.652 6.447 7.981 10.14l-.028-.085Zm105.062 153.005c-2.67-.937-6.334-2.527-8.862-.852-2.13 1.392-3.834 6.249-3.664 8.663.171 2.301 1.562 4.318 3.011 6.135a84.824 84.824 0 0 0 25.165 21.416c2.499 1.392 5.623 2.67 8.123 1.221 1.874-1.079 2.727-3.465 2.585-5.623-.142-2.159-1.108-4.204-2.074-6.135-2.414-4.857-5.027-9.657-8.521-13.833-4.061-4.8-9.742-8.918-15.735-10.992h-.028Z"/><path stroke="#000" stroke-width="2" d="M779.473 171.092c12.27 9.287 26.13 18.263 31.868 32.521 3.153 7.839 3.55 16.644 7.527 24.085 5.027 9.317 15.081 15.026 25.335 17.553 10.282 2.557 20.99 2.415 31.555 2.869 17.951.795 36.1 3.607 52.83 10.395 8.662 3.522 21.557 8.663 26.585 17.014 1.704 2.812 2.357 6.106 3.976 8.947 1.193 2.13 2.897 3.948 2.585 6.618-.426 3.578-4.942 5.197-8.493 4.544-6.078-1.136-11.645-3.153-17.837-4.175-3.863-.625-8.805.057-8.947 4.686-.17 6.05 8.294 7.697 12.299 9.487 12.525 5.652 22.154 10.48 36.327 11.304 13.662.795 27.577-.256 40.867 2.982 6.71 1.619 13.18 4.318 20.03 5.028 13.21 1.363 17.24-8.237 27.89-12.98 10.62-4.744 22.86-2.244 34.42-.71 2.62.34 5.34.596 8.04.71-101.85 64.616-237.388 37.349-306.038-62.998-19.655-28.744-31.783-60.498-36.696-92.849 4.487 5.653 10.196 10.651 15.905 14.969h-.028ZM908.28 298.336c-.654-2.499-2.329-4.601-4.062-6.504-9.487-10.424-22.779-17.354-36.753-19.172-3.465-.454-7.953.029-9.032 3.352-.568 1.732.113 3.607.88 5.283 5.255 11.474 15.394 19.995 27.21 24.114 6.05 2.13 25.108 5.424 21.757-7.101v.028Zm82.283 4.743c.908-.142 1.874-.397 2.414-1.107.937-1.25.057-3.011-.881-4.261-4.203-5.481-10.14-9.628-16.729-11.702-6.845-2.13-5.965 7.556-2.84 10.822 4.544 4.772 11.531 7.243 18.036 6.248Zm-26.131-404.91c2.869 3.636 6.504 9.174 10.679 11.475 5.113 2.812 12.554 2.812 18.15 4.658 12.529 4.147 24.199 10.992 33.829 20.024 3.24 3.039 6.33 6.362 10.39 8.123 4.07 1.761 9.43 1.42 12.13-2.102 2.47-3.238 1.93-8.01 4.38-11.247 3.63-4.8 11.16-3.409 16.73-1.08 20.84 8.635 39.7 24.086 52.28 42.86 8.87 13.208 13.92 28.659 22.41 42.122 13.61 20.535 32.98 35.22 51.16 51.437 3.12 2.784 6.1 5.596 9 8.521-6.05-27.153-17.27-53.624-33.94-77.966a83.643 83.643 0 0 0-2.02-2.868c-2.15-3.068-4.37-6.05-6.7-9.004l-1.31-1.648c-1.08-1.334-2.15-2.67-3.23-3.976-.51-.625-1.03-1.221-1.57-1.846-.45-.54-.93-1.08-1.39-1.619-.4-.454-.79-.909-1.19-1.363-.48-.512-.97-1.051-1.42-1.59-.46-.512-.91-.995-1.36-1.506-.46-.512-.91-.994-1.4-1.506-.45-.482-.93-.994-1.39-1.476-.45-.483-.93-.995-1.42-1.477-.71-.739-1.45-1.506-2.18-2.244-.52-.512-1.03-1.023-1.54-1.534-.11-.114-.25-.256-.37-.37-.45-.454-.93-.908-1.39-1.363-1.19-1.164-2.41-2.3-3.63-3.408-.74-.653-1.45-1.335-2.22-1.988-.71-.625-1.42-1.278-2.13-1.875a198.2 198.2 0 0 0-9.26-7.64 257.901 257.901 0 0 0-4.71-3.579c-.91-.653-1.82-1.335-2.73-1.988-.71-.483-1.39-.994-2.1-1.477-.83-.568-1.62-1.136-2.45-1.676-.82-.568-1.64-1.108-2.47-1.647-.82-.54-1.64-1.08-2.5-1.62-1.67-1.078-3.35-2.1-5.02-3.123-.86-.512-1.71-1.023-2.56-1.506-.85-.511-1.7-.994-2.56-1.477-.85-.482-1.73-.965-2.58-1.448-1.73-.966-3.49-1.903-5.23-2.812a228.73 228.73 0 0 0-5.28-2.642c-.71-.34-1.42-.681-2.16-1.022-.82-.37-1.65-.767-2.47-1.136-.62-.284-1.28-.597-1.93-.88a96.77 96.77 0 0 0-3.04-1.336c-.82-.369-1.68-.71-2.5-1.05-.94-.398-1.9-.796-2.84-1.165-1.14-.454-2.3-.909-3.44-1.335-.88-.312-1.73-.653-2.61-.966-.85-.312-1.7-.625-2.58-.937-.86-.284-1.71-.596-2.56-.88-.45-.17-.88-.313-1.34-.455-.45-.142-.9-.312-1.39-.454a225.035 225.035 0 0 0-89.665-10.197h-.057c-.426.085-.88.171-1.306.256v.028Zm117.248 54.306c-4.26-1.76-22.18-6.987-21.73-.71.11 1.449.82 2.784 1.59 4.005 7.1 11.844 17.78 21.5 30.28 27.352 2.33 1.08 5.22 2.017 7.33.54 2.21-1.534 2.24-4.8 1.7-7.442-2.3-10.14-9.37-19.712-19.17-23.745ZM942.874 217.786c-3.067-4.63-7.243-8.578-12.27-10.878-5.027-2.301-10.963-2.869-16.189-1.023-2.784.994-5.539 2.897-6.363 5.737-1.022 3.522 1.165 7.101 3.323 10.055 3.636 4.999 7.783 10.055 13.52 12.327 10.31 4.061 25.563-4.8 17.979-16.218Zm-96.541 12.895c7.839 2.783 15.934 2.016 23.631 5.283 3.664 1.562 8.351 2.499 11.219-.256 2.187-2.102 2.301-5.709 1.051-8.464-1.25-2.755-3.635-4.828-6.021-6.703-10.992-8.606-23.83-14.486-36.526-20.28-3.92-1.789-8.606-3.55-12.327-1.363-2.641 1.562-3.948 4.828-3.806 7.896.142 3.067 1.505 5.936 3.181 8.521 4.573 7.129 11.645 12.554 19.626 15.394l-.028-.028Zm170.387 65.44c-.23 1.96.91 3.806 2.13 5.396 4.63 6.107 11.08 11.248 18.66 12.498 11.68 1.903 18.46-7.783 27.78-12.583 8.07-4.147 17.52-5.68 26.44-3.976 9.75 1.846 19.32 3.351 29.23 4.544 2.9-2.158 5.74-4.402 8.52-6.703-4.2-.256-8.38-.71-12.47-1.676-10.56-2.499-17.72-12.071-29.03-11.162-9.88.824-17.72 9.259-27.49 10.85-6.76 1.108-13.55-1.165-20.19-2.812-6.65-1.647-14.12-2.499-20 1.023-1.73 1.05-3.35 2.613-3.58 4.629v-.028ZM778.365 35.326l-.483 1.136c-4.516 11.049-8.18 22.41-10.878 33.97.114.199.227.398.312.568 4.886 8.606 14.344 14.969 15.736 24.767 1.335 9.345-5.226 17.724-8.266 26.642-9.088 26.727 14.855 45.189 34.851 57.317 1.817 1.108 3.72 2.159 5.851 2.414 2.101.256 4.459-.454 5.595-2.243 1.477-2.358.398-5.397-.824-7.896-6.987-14.401-22.097-28.488-19.569-46.013 1.306-9.06 8.123-16.985 7.64-26.102-.398-8.18-6.504-14.713-11.162-21.473-8.72-12.696-13.605-27.465-18.547-42.235-.114-.284-.199-.596-.284-.88l.028.028Zm18.547-35.39c-4.402 6.845-8.435 13.89-12.043 21.132 3.38 5.084 8.635 8.947 14.571 10.452 1.761.455 3.721.682 5.311-.227 1.591-.909 2.443-2.783 2.557-4.63.113-1.817-.426-3.635-.994-5.396-1.676-5.17-4.545-15.167-9.402-21.33Zm136.277-96.683c7.441 9.373 19.115 13.037 28.431 20.308 5.482 4.29 7.214 9.941 11.872 14.684 4.658 4.744 11.049 7.64 17.269 9.657 9.146 2.983 18.889 4.658 26.979 9.885 6.22 4.033 11 9.912 15.54 15.763 8.12 10.48 15.91 21.274 23.26 32.323 4.63 6.958 9.18 14.059 15.23 19.853 6.02 5.766 13.86 10.14 22.21 10.282 7.92.142 15.93-3.522 23.57-1.392 4.92 1.364 8.86 4.914 12.58 8.379 18.15 16.843 37.95 33.402 53.91 52.176 9.43 11.105 18.98 22.353 26.81 34.566.4-10.963 0-21.955-1.25-32.919-8.15-11.702-18.37-22.069-28.45-32.237-10.29-10.367-20.57-20.762-30.85-31.13-19.51-19.71-40.42-40.218-67.31-47.063-4.07-1.022-8.24-1.732-12.1-3.351-8.3-3.465-14.26-10.708-20.57-17.156-17.58-18.035-39.73-31.214-63.279-40.161-7.044-2.698-14.315-5.028-20.678-9.117-6.788-4.346-12.099-10.34-17.155-16.616-5.368.88-10.708 1.96-16.019 3.238v.028ZM1152.12 176.29c1.82-.454 3.63-1.391 4.68-2.954 2.19-3.323.06-7.725-2.18-11.02-6.17-9.117-13.72-17.78-23.26-23.489-4.29-2.556-7.62-3.238-12.33-3.891-4.38-.625-9.49-3.664-13.78-3.408-1.19.085-2.33.653-3.32 1.306-4.09 2.613-7.41 7.385-6.31 12.128.4 1.619 1.25 3.096 2.28 4.431a21.94 21.94 0 0 0 11.24 7.669c3.36.965 6.91 1.136 10.17 2.272 10.94 3.806 19.69 20.365 32.81 16.985v-.029ZM990.619-39.543c-4.459-1.194-9.202-1.96-13.69-.853-4.487 1.108-8.634 4.545-9.401 9.118-.852 5.055 2.499 9.912 6.447 13.15 3.551 2.926 7.697 5.084 11.787 7.186 13.975 7.243 27.948 14.514 41.948 21.757 2.11 1.107 5.06 2.045 6.56.198.94-1.164.74-2.84.4-4.288-4.63-20.166-24.25-40.986-44.022-46.297l-.029.029Zm89.551 99.892c3.41.767 7.05.483 10.29-.852 2.52-1.05 4.51-1.335 7.15-1.931 2.76-.625 4.97-1.847 6.02-4.602.17-.454.29-.965.12-1.391-.2-.483-.66-.767-1.08-1.051-4.57-2.784-9.26-5.567-14.52-6.675-5.22-1.08-11.19-.17-14.94 3.636-1.78 1.817-2.98 4.516-2.15 6.93 1.19 3.437 5.9 5.198 9.14 5.936h-.03ZM880.757-76.893c10.055 10.253 25.449 14.428 36.896 23.517 11.73 9.373 19.938 24.341 34.452 28.147.881.228 1.875.398 2.613-.085.625-.397.909-1.164 1.193-1.874 2.613-7.215 5.255-14.798 4.147-22.353-1.591-10.85-10.14-18.462-17.809-25.45-6.618-6.049-11.957-13.064-18.206-19.341a224.58 224.58 0 0 0-43.257 17.439h-.029Zm-13.179 32.095c5.425 9.345 13.918 16.417 20.734 24.796C904.701.107 911.631 27.97 932.394 43.592c12.241 9.202 27.92 12.951 40.19 22.097 17.439 12.98 25.732 34.935 41.126 50.244 14.74 14.656 35.79 23.063 46.87 40.673 5.51 8.777 8.01 19.115 12.78 28.318 6.87 13.236 18.15 23.347 30.76 31.016 6.5 3.948 13.37 7.299 20.36 10.31 12.87 5.51 24.23 13.52 38.26 16.331 3.86.796 7.92 1.222 11.53 2.756-4.66 7.1-9.74 14.002-15.25 20.62-11.9-4.8-22.75-12.327-32.95-19.967-10.62-7.953-21.92-12.185-35.47-10.736-11.14 1.192-19.66 5.794-30.39-.313-8.67-4.914-19.43-6.192-27.27-12.554-7.41-5.993-11.08-15.366-15.08-24.057-15.91-34.538-42.152-64.247-74.475-84.328-8.35-5.169-17.78-9.856-27.493-8.663-3.75.455-7.357 1.79-11.134 2.244-15.054 1.789-28.119-10.765-35.305-24.114-3.891-7.186-6.817-14.911-8.521-22.921-1.818-8.407-2.301-17.013-3.465-25.534-3.636-26.216-14.145-51.41-30.022-72.57a226.383 226.383 0 0 1 31.328-25.903c3.295 6.05 5.397 12.753 8.862 18.718l-.057-.057Zm48.853 120.2c4.119-1.363 8.549-.425 12.583-1.618 10.367-3.068 1.817-13.975-2.784-18.917-12.81-13.775-25.591-27.55-38.4-41.326-2.983-3.21-7.385-6.731-11.276-4.658-2.926 1.534-3.579 5.368-3.693 8.663-.767 20.933 7.442 42.036 22.126 56.976 2.528 2.585 5.539 5.084 9.146 5.311 4.573.256 8.18-3.039 12.298-4.402v-.028Zm141.839 139.345c4.24 1.761 21.51 4.033 15.6-5.425-5.34-8.521-14.71-14.116-19.29-23.063-1.79-3.494-2.75-7.357-4.29-10.992-1.53-3.607-3.83-7.158-7.35-8.919-1.37-.681-2.9-1.079-4.38-.795-.96.171-1.87.625-2.7 1.193-4.11 2.84-5.76 8.322-5.19 13.293.57 4.97 2.95 9.543 5.54 13.832 5.42 9.032 12.15 16.757 22.06 20.904v-.028ZM889.221-50.337c5.652.114 10.935 2.784 15.65 5.851 10.708 6.93 19.655 16.133 27.835 25.818 8.237 9.743 11.446 16.53 24.994 16.9 38.571 1.023 71.58 27.239 98.79 54.619 8.23 8.265 17.72 17.41 29.39 17.013 6.14-.199 11.87-3.124 17.92-4.147 10.68-1.817 21.51 2.33 30.94 7.669 12.78 7.243 24.14 16.758 34.16 27.494 14.97 16.047 28.89 35.361 39.51 55.101a225.755 225.755 0 0 1-26.19 76.233h-1.19c-17.32-.34-34.45-5.794-48.99-15.11-13.98-8.947-33.29-23.83-36.84-40.9-.71-3.465.06-8.18 3.55-8.805 1.33-.255 2.67.227 3.95.71 11.22 4.232 24.37 8.266 34.22 15.082 7.5 5.17 15.68 12.639 25.62 9.061 7.67-2.755 11.53-11.901 10.65-19.996-.91-8.095-5.54-15.281-10.53-21.728-8.47-10.935-18.67-20.99-31.36-26.528-5.03-2.187-10.37-3.664-15.23-6.277-12.61-6.788-21.47-21.132-35.64-23.035-2.64-.37-6.08.34-6.65 2.954-.2.824 0 1.704.2 2.528 1.9 7.981 5.74 15.508 11.02 21.756 1.02 1.222 2.13 2.443 2.56 3.977 1.82 6.76-6.62 10.821-11.85 9.202-8.6-2.67-15.22-10.992-22.43-15.962-10.17-7.044-20.77-13.548-31.13-20.308-3.53-2.3-7.1-4.658-9.72-7.981-2.58-3.323-4.03-7.84-2.7-11.816.57-1.647 1.57-3.153 1.68-4.857.17-2.016-.91-3.89-1.93-5.623-2.76-4.687-5.8-9.6-10.624-12.072-1.988-1.022-4.203-1.562-6.334-2.187-9.884-2.897-20.052-7.157-29.624-10.878-11.418-4.402-22.892-11.503-30.845-20.904-7.811-9.203-10.168-21.643-17.809-31.5-8.123-10.423-18.092-19.256-27.835-28.118-2.84-2.613-5.964-6.39-4.317-9.884 1.222-2.528 4.403-3.408 7.186-3.323l-.057-.029ZM1137.41 109.43c2.27.313 12.21 1.477 13.49-.369.28-.398.28-.937.2-1.449-.46-3.635-3.07-6.561-5.63-9.174-9.06-9.174-20.16-17.78-33.06-18.064-2.19-.057-4.77.37-5.85 2.272-1.45 2.528.65 5.539 2.64 7.698 4.4 4.771 8.86 9.571 14.2 13.292 4.18 2.897 8.92 5.084 13.98 5.794h.03ZM822.759-13.867c5.453 8.662 8.435 19.427 5.595 29.283-2.443 8.578-9.089 16.076-9.004 24.994.114 11.702 11.305 19.797 16.928 30.05 5.425 9.913 5.511 21.757 6.789 33.005.738 6.419 1.732 15.735 6.334 20.62 4.43 4.715 10.793 8.634 15.536 13.349 4.999 4.971 10.566 9.771 17.382 11.56 6.817 1.761 15.139-.454 18.349-6.703 2.3-4.431 1.675-10.083 4.43-14.258 2.898-4.431 8.919-5.965 14.145-4.999 5.198.966 9.799 3.948 14.145 6.959 31.271 21.728 58.879 49.705 75.862 83.788 1.68 3.38 3.3 6.987 3.18 10.765-.11 3.777-2.47 7.754-6.19 8.464-1.45.284-3.24.17-4.06 1.42-.97 1.448.28 3.323 1.53 4.573 8.89 8.833 25.05 22.211 38.6 15.792 3.67-1.733 7.1-4.374 11.16-4.715 10.31-.881 16.79 10.452 27.61 7.441 6.36-1.789 11.99-5.879 18.52-6.93 10.17-1.619 19.23 4.346 27.81 8.862 4.4 2.3 9.06 4.913 13.97 5.822 1.31.256 15.76 2.926 14.43 4.431a226.39 226.39 0 0 1-11.9 12.668 51.57 51.57 0 0 0-2.61-.483c-6.08-.937-12.47-1.42-18.44-2.613-6.87-1.363-12.49-6.249-19.25-8.208-7.05-2.074-15.11-1.989-21.33 1.931-5.43 3.408-9.55 9.657-15.91 10.339-5.51.568-10.45-3.295-15.88-4.289-5.56-1.023-11.16.994-16.76 1.96-22.72 3.947-44.872-9.714-61.203-24.143-7.328-6.476-19.996-16.502-17.241-27.778 1.023-4.118 4.09-7.583 4.857-11.759 1.505-8.236-5.368-15.025-11.815-18.575-11.248-6.192-23.149-18.036-35.873-20.791-3.38-.71-7.215-.199-9.714 2.187-5.226 4.999-1.846 14.344-5.652 20.479-6.277 10.139-17.297 3.635-24.682-1.08-15.139-9.657-29.653-18.746-41.866-32.18-8.606-9.458-20.365-22.524-18.717-36.413.767-6.305 5.396-11.417 7.583-17.382 4.601-12.469-2.016-26.074-9.032-37.378-4.63-7.47-9.742-15.707-8.379-24.398 1.648-10.51 12.185-17.61 15.025-27.863 3.039-10.964-3.408-22.183-10.253-31.272a142.782 142.782 0 0 0-2.499-3.266 214.734 214.734 0 0 1 10.537-13.321c2.869 3.181 5.652 6.447 7.981 10.14l-.028-.085Zm105.062 153.005c-2.67-.937-6.334-2.527-8.862-.852-2.13 1.392-3.834 6.249-3.664 8.663.171 2.301 1.562 4.318 3.011 6.135a84.824 84.824 0 0 0 25.165 21.416c2.499 1.392 5.623 2.67 8.123 1.221 1.874-1.079 2.727-3.465 2.585-5.623-.142-2.159-1.108-4.204-2.074-6.135-2.414-4.857-5.027-9.657-8.521-13.833-4.061-4.8-9.742-8.918-15.735-10.992h-.028Z" mask="url(#c)"/></g><path stroke="#3215AB" stroke-width=".5" d="M779.473 171.092c12.27 9.287 26.13 18.263 31.868 32.521 3.153 7.839 3.55 16.644 7.527 24.085 5.027 9.317 15.081 15.026 25.335 17.553 10.282 2.557 20.99 2.415 31.555 2.869 17.951.795 36.1 3.607 52.83 10.395 8.662 3.522 21.557 8.663 26.585 17.014 1.704 2.812 2.357 6.106 3.976 8.947 1.193 2.13 2.897 3.948 2.585 6.618-.426 3.578-4.942 5.197-8.493 4.544-6.078-1.136-11.645-3.153-17.837-4.175-3.863-.625-8.805.057-8.947 4.686-.17 6.05 8.294 7.697 12.299 9.487 12.525 5.652 22.154 10.48 36.327 11.304 13.662.795 27.577-.256 40.867 2.982 6.71 1.619 13.18 4.318 20.03 5.028 13.21 1.363 17.24-8.237 27.89-12.98 10.62-4.744 22.86-2.244 34.42-.71 2.62.34 5.34.596 8.04.71-101.85 64.616-237.388 37.349-306.038-62.998-19.655-28.744-31.783-60.498-36.696-92.849 4.487 5.653 10.196 10.651 15.905 14.969h-.028ZM908.28 298.336c-.654-2.499-2.329-4.601-4.062-6.504-9.487-10.424-22.779-17.354-36.753-19.172-3.465-.454-7.953.029-9.032 3.352-.568 1.732.113 3.607.88 5.283 5.255 11.474 15.394 19.995 27.21 24.114 6.05 2.13 25.108 5.424 21.757-7.101v.028Zm82.283 4.743c.908-.142 1.874-.397 2.414-1.107.937-1.25.057-3.011-.881-4.261-4.203-5.481-10.14-9.628-16.729-11.702-6.845-2.13-5.965 7.556-2.84 10.822 4.544 4.772 11.531 7.243 18.036 6.248Zm-26.131-404.91c2.869 3.636 6.504 9.174 10.679 11.475 5.113 2.812 12.554 2.812 18.15 4.658 12.529 4.147 24.199 10.992 33.829 20.024 3.24 3.039 6.33 6.362 10.39 8.123 4.07 1.761 9.43 1.42 12.13-2.102 2.47-3.238 1.93-8.01 4.38-11.247 3.63-4.8 11.16-3.409 16.73-1.08 20.84 8.635 39.7 24.086 52.28 42.86 8.87 13.208 13.92 28.659 22.41 42.122 13.61 20.535 32.98 35.22 51.16 51.437 3.12 2.784 6.1 5.596 9 8.521-6.05-27.153-17.27-53.624-33.94-77.966a83.643 83.643 0 0 0-2.02-2.868c-2.15-3.068-4.37-6.05-6.7-9.004l-1.31-1.648c-1.08-1.334-2.15-2.67-3.23-3.976-.51-.625-1.03-1.221-1.57-1.846-.45-.54-.93-1.08-1.39-1.619-.4-.454-.79-.909-1.19-1.363-.48-.512-.97-1.051-1.42-1.59-.46-.512-.91-.995-1.36-1.506-.46-.512-.91-.994-1.4-1.506-.45-.482-.93-.994-1.39-1.476-.45-.483-.93-.995-1.42-1.477-.71-.739-1.45-1.506-2.18-2.244-.52-.512-1.03-1.023-1.54-1.534-.11-.114-.25-.256-.37-.37-.45-.454-.93-.908-1.39-1.363-1.19-1.164-2.41-2.3-3.63-3.408-.74-.653-1.45-1.335-2.22-1.988-.71-.625-1.42-1.278-2.13-1.875a198.2 198.2 0 0 0-9.26-7.64 257.901 257.901 0 0 0-4.71-3.579c-.91-.653-1.82-1.335-2.73-1.988-.71-.483-1.39-.994-2.1-1.477-.83-.568-1.62-1.136-2.45-1.676-.82-.568-1.64-1.108-2.47-1.647-.82-.54-1.64-1.08-2.5-1.62-1.67-1.078-3.35-2.1-5.02-3.123-.86-.512-1.71-1.023-2.56-1.506-.85-.511-1.7-.994-2.56-1.477-.85-.482-1.73-.965-2.58-1.448-1.73-.966-3.49-1.903-5.23-2.812a228.73 228.73 0 0 0-5.28-2.642c-.71-.34-1.42-.681-2.16-1.022-.82-.37-1.65-.767-2.47-1.136-.62-.284-1.28-.597-1.93-.88a96.77 96.77 0 0 0-3.04-1.336c-.82-.369-1.68-.71-2.5-1.05-.94-.398-1.9-.796-2.84-1.165-1.14-.454-2.3-.909-3.44-1.335-.88-.312-1.73-.653-2.61-.966-.85-.312-1.7-.625-2.58-.937-.86-.284-1.71-.596-2.56-.88-.45-.17-.88-.313-1.34-.455-.45-.142-.9-.312-1.39-.454a225.035 225.035 0 0 0-89.665-10.197h-.057c-.426.085-.88.171-1.306.256v.028Zm117.248 54.306c-4.26-1.76-22.18-6.987-21.73-.71.11 1.449.82 2.784 1.59 4.005 7.1 11.844 17.78 21.5 30.28 27.352 2.33 1.08 5.22 2.017 7.33.54 2.21-1.534 2.24-4.8 1.7-7.442-2.3-10.14-9.37-19.712-19.17-23.745ZM942.874 217.786c-3.067-4.63-7.243-8.578-12.27-10.878-5.027-2.301-10.963-2.869-16.189-1.023-2.784.994-5.539 2.897-6.363 5.737-1.022 3.522 1.165 7.101 3.323 10.055 3.636 4.999 7.783 10.055 13.52 12.327 10.31 4.061 25.563-4.8 17.979-16.218Zm-96.541 12.895c7.839 2.783 15.934 2.016 23.631 5.283 3.664 1.562 8.351 2.499 11.219-.256 2.187-2.102 2.301-5.709 1.051-8.464-1.25-2.755-3.635-4.828-6.021-6.703-10.992-8.606-23.83-14.486-36.526-20.28-3.92-1.789-8.606-3.55-12.327-1.363-2.641 1.562-3.948 4.828-3.806 7.896.142 3.067 1.505 5.936 3.181 8.521 4.573 7.129 11.645 12.554 19.626 15.394l-.028-.028Zm170.387 65.44c-.23 1.96.91 3.806 2.13 5.396 4.63 6.107 11.08 11.248 18.66 12.498 11.68 1.903 18.46-7.783 27.78-12.583 8.07-4.147 17.52-5.68 26.44-3.976 9.75 1.846 19.32 3.351 29.23 4.544 2.9-2.158 5.74-4.402 8.52-6.703-4.2-.256-8.38-.71-12.47-1.676-10.56-2.499-17.72-12.071-29.03-11.162-9.88.824-17.72 9.259-27.49 10.85-6.76 1.108-13.55-1.165-20.19-2.812-6.65-1.647-14.12-2.499-20 1.023-1.73 1.05-3.35 2.613-3.58 4.629v-.028ZM778.365 35.326l-.483 1.136c-4.516 11.049-8.18 22.41-10.878 33.97.114.199.227.398.312.568 4.886 8.606 14.344 14.969 15.736 24.767 1.335 9.345-5.226 17.724-8.266 26.642-9.088 26.727 14.855 45.189 34.851 57.317 1.817 1.108 3.72 2.159 5.851 2.414 2.101.256 4.459-.454 5.595-2.243 1.477-2.358.398-5.397-.824-7.896-6.987-14.401-22.097-28.488-19.569-46.013 1.306-9.06 8.123-16.985 7.64-26.102-.398-8.18-6.504-14.713-11.162-21.473-8.72-12.696-13.605-27.465-18.547-42.235-.114-.284-.199-.596-.284-.88l.028.028Zm18.547-35.39c-4.402 6.845-8.435 13.89-12.043 21.132 3.38 5.084 8.635 8.947 14.571 10.452 1.761.455 3.721.682 5.311-.227 1.591-.909 2.443-2.783 2.557-4.63.113-1.817-.426-3.635-.994-5.396-1.676-5.17-4.545-15.167-9.402-21.33Zm136.277-96.683c7.441 9.373 19.115 13.037 28.431 20.308 5.482 4.29 7.214 9.941 11.872 14.684 4.658 4.744 11.049 7.64 17.269 9.657 9.146 2.983 18.889 4.658 26.979 9.885 6.22 4.033 11 9.912 15.54 15.763 8.12 10.48 15.91 21.274 23.26 32.323 4.63 6.958 9.18 14.059 15.23 19.853 6.02 5.766 13.86 10.14 22.21 10.282 7.92.142 15.93-3.522 23.57-1.392 4.92 1.364 8.86 4.914 12.58 8.379 18.15 16.843 37.95 33.402 53.91 52.176 9.43 11.105 18.98 22.353 26.81 34.566.4-10.963 0-21.955-1.25-32.919-8.15-11.702-18.37-22.069-28.45-32.237-10.29-10.367-20.57-20.762-30.85-31.13-19.51-19.71-40.42-40.218-67.31-47.063-4.07-1.022-8.24-1.732-12.1-3.351-8.3-3.465-14.26-10.708-20.57-17.156-17.58-18.035-39.73-31.214-63.279-40.161-7.044-2.698-14.315-5.028-20.678-9.117-6.788-4.346-12.099-10.34-17.155-16.616-5.368.88-10.708 1.96-16.019 3.238v.028ZM1152.12 176.29c1.82-.454 3.63-1.391 4.68-2.954 2.19-3.323.06-7.725-2.18-11.02-6.17-9.117-13.72-17.78-23.26-23.489-4.29-2.556-7.62-3.238-12.33-3.891-4.38-.625-9.49-3.664-13.78-3.408-1.19.085-2.33.653-3.32 1.306-4.09 2.613-7.41 7.385-6.31 12.128.4 1.619 1.25 3.096 2.28 4.431a21.94 21.94 0 0 0 11.24 7.669c3.36.965 6.91 1.136 10.17 2.272 10.94 3.806 19.69 20.365 32.81 16.985v-.029ZM990.619-39.543c-4.459-1.194-9.202-1.96-13.69-.853-4.487 1.108-8.634 4.545-9.401 9.118-.852 5.055 2.499 9.912 6.447 13.15 3.551 2.926 7.697 5.084 11.787 7.186 13.975 7.243 27.948 14.514 41.948 21.757 2.11 1.107 5.06 2.045 6.56.198.94-1.164.74-2.84.4-4.288-4.63-20.166-24.25-40.986-44.022-46.297l-.029.029Zm89.551 99.892c3.41.767 7.05.483 10.29-.852 2.52-1.05 4.51-1.335 7.15-1.931 2.76-.625 4.97-1.847 6.02-4.602.17-.454.29-.965.12-1.391-.2-.483-.66-.767-1.08-1.051-4.57-2.784-9.26-5.567-14.52-6.675-5.22-1.08-11.19-.17-14.94 3.636-1.78 1.817-2.98 4.516-2.15 6.93 1.19 3.437 5.9 5.198 9.14 5.936h-.03ZM880.757-76.893c10.055 10.253 25.449 14.428 36.896 23.517 11.73 9.373 19.938 24.341 34.452 28.147.881.228 1.875.398 2.613-.085.625-.397.909-1.164 1.193-1.874 2.613-7.215 5.255-14.798 4.147-22.353-1.591-10.85-10.14-18.462-17.809-25.45-6.618-6.049-11.957-13.064-18.206-19.341a224.58 224.58 0 0 0-43.257 17.439h-.029Zm-13.179 32.095c5.425 9.345 13.918 16.417 20.734 24.796C904.701.107 911.631 27.97 932.394 43.592c12.241 9.202 27.92 12.951 40.19 22.097 17.439 12.98 25.732 34.935 41.126 50.244 14.74 14.656 35.79 23.063 46.87 40.673 5.51 8.777 8.01 19.115 12.78 28.318 6.87 13.236 18.15 23.347 30.76 31.016 6.5 3.948 13.37 7.299 20.36 10.31 12.87 5.51 24.23 13.52 38.26 16.331 3.86.796 7.92 1.222 11.53 2.756-4.66 7.1-9.74 14.002-15.25 20.62-11.9-4.8-22.75-12.327-32.95-19.967-10.62-7.953-21.92-12.185-35.47-10.736-11.14 1.192-19.66 5.794-30.39-.313-8.67-4.914-19.43-6.192-27.27-12.554-7.41-5.993-11.08-15.366-15.08-24.057-15.91-34.538-42.152-64.247-74.475-84.328-8.35-5.169-17.78-9.856-27.493-8.663-3.75.455-7.357 1.79-11.134 2.244-15.054 1.789-28.119-10.765-35.305-24.114-3.891-7.186-6.817-14.911-8.521-22.921-1.818-8.407-2.301-17.013-3.465-25.534-3.636-26.216-14.145-51.41-30.022-72.57a226.383 226.383 0 0 1 31.328-25.903c3.295 6.05 5.397 12.753 8.862 18.718l-.057-.057Zm48.853 120.2c4.119-1.363 8.549-.425 12.583-1.618 10.367-3.068 1.817-13.975-2.784-18.917-12.81-13.775-25.591-27.55-38.4-41.326-2.983-3.21-7.385-6.731-11.276-4.658-2.926 1.534-3.579 5.368-3.693 8.663-.767 20.933 7.442 42.036 22.126 56.976 2.528 2.585 5.539 5.084 9.146 5.311 4.573.256 8.18-3.039 12.298-4.402v-.028Zm141.839 139.345c4.24 1.761 21.51 4.033 15.6-5.425-5.34-8.521-14.71-14.116-19.29-23.063-1.79-3.494-2.75-7.357-4.29-10.992-1.53-3.607-3.83-7.158-7.35-8.919-1.37-.681-2.9-1.079-4.38-.795-.96.171-1.87.625-2.7 1.193-4.11 2.84-5.76 8.322-5.19 13.293.57 4.97 2.95 9.543 5.54 13.832 5.42 9.032 12.15 16.757 22.06 20.904v-.028ZM889.221-50.337c5.652.114 10.935 2.784 15.65 5.851 10.708 6.93 19.655 16.133 27.835 25.818 8.237 9.743 11.446 16.53 24.994 16.9 38.571 1.023 71.58 27.239 98.79 54.619 8.23 8.265 17.72 17.41 29.39 17.013 6.14-.199 11.87-3.124 17.92-4.147 10.68-1.817 21.51 2.33 30.94 7.669 12.78 7.243 24.14 16.758 34.16 27.494 14.97 16.047 28.89 35.361 39.51 55.101a225.755 225.755 0 0 1-26.19 76.233h-1.19c-17.32-.34-34.45-5.794-48.99-15.11-13.98-8.947-33.29-23.83-36.84-40.9-.71-3.465.06-8.18 3.55-8.805 1.33-.255 2.67.227 3.95.71 11.22 4.232 24.37 8.266 34.22 15.082 7.5 5.17 15.68 12.639 25.62 9.061 7.67-2.755 11.53-11.901 10.65-19.996-.91-8.095-5.54-15.281-10.53-21.728-8.47-10.935-18.67-20.99-31.36-26.528-5.03-2.187-10.37-3.664-15.23-6.277-12.61-6.788-21.47-21.132-35.64-23.035-2.64-.37-6.08.34-6.65 2.954-.2.824 0 1.704.2 2.528 1.9 7.981 5.74 15.508 11.02 21.756 1.02 1.222 2.13 2.443 2.56 3.977 1.82 6.76-6.62 10.821-11.85 9.202-8.6-2.67-15.22-10.992-22.43-15.962-10.17-7.044-20.77-13.548-31.13-20.308-3.53-2.3-7.1-4.658-9.72-7.981-2.58-3.323-4.03-7.84-2.7-11.816.57-1.647 1.57-3.153 1.68-4.857.17-2.016-.91-3.89-1.93-5.623-2.76-4.687-5.8-9.6-10.624-12.072-1.988-1.022-4.203-1.562-6.334-2.187-9.884-2.897-20.052-7.157-29.624-10.878-11.418-4.402-22.892-11.503-30.845-20.904-7.811-9.203-10.168-21.643-17.809-31.5-8.123-10.423-18.092-19.256-27.835-28.118-2.84-2.613-5.964-6.39-4.317-9.884 1.222-2.528 4.403-3.408 7.186-3.323l-.057-.029ZM1137.41 109.43c2.27.313 12.21 1.477 13.49-.369.28-.398.28-.937.2-1.449-.46-3.635-3.07-6.561-5.63-9.174-9.06-9.174-20.16-17.78-33.06-18.064-2.19-.057-4.77.37-5.85 2.272-1.45 2.528.65 5.539 2.64 7.698 4.4 4.771 8.86 9.571 14.2 13.292 4.18 2.897 8.92 5.084 13.98 5.794h.03ZM822.759-13.867c5.453 8.662 8.435 19.427 5.595 29.283-2.443 8.578-9.089 16.076-9.004 24.994.114 11.702 11.305 19.797 16.928 30.05 5.425 9.913 5.511 21.757 6.789 33.005.738 6.419 1.732 15.735 6.334 20.62 4.43 4.715 10.793 8.634 15.536 13.349 4.999 4.971 10.566 9.771 17.382 11.56 6.817 1.761 15.139-.454 18.349-6.703 2.3-4.431 1.675-10.083 4.43-14.258 2.898-4.431 8.919-5.965 14.145-4.999 5.198.966 9.799 3.948 14.145 6.959 31.271 21.728 58.879 49.705 75.862 83.788 1.68 3.38 3.3 6.987 3.18 10.765-.11 3.777-2.47 7.754-6.19 8.464-1.45.284-3.24.17-4.06 1.42-.97 1.448.28 3.323 1.53 4.573 8.89 8.833 25.05 22.211 38.6 15.792 3.67-1.733 7.1-4.374 11.16-4.715 10.31-.881 16.79 10.452 27.61 7.441 6.36-1.789 11.99-5.879 18.52-6.93 10.17-1.619 19.23 4.346 27.81 8.862 4.4 2.3 9.06 4.913 13.97 5.822 1.31.256 15.76 2.926 14.43 4.431a226.39 226.39 0 0 1-11.9 12.668 51.57 51.57 0 0 0-2.61-.483c-6.08-.937-12.47-1.42-18.44-2.613-6.87-1.363-12.49-6.249-19.25-8.208-7.05-2.074-15.11-1.989-21.33 1.931-5.43 3.408-9.55 9.657-15.91 10.339-5.51.568-10.45-3.295-15.88-4.289-5.56-1.023-11.16.994-16.76 1.96-22.72 3.947-44.872-9.714-61.203-24.143-7.328-6.476-19.996-16.502-17.241-27.778 1.023-4.118 4.09-7.583 4.857-11.759 1.505-8.236-5.368-15.025-11.815-18.575-11.248-6.192-23.149-18.036-35.873-20.791-3.38-.71-7.215-.199-9.714 2.187-5.226 4.999-1.846 14.344-5.652 20.479-6.277 10.139-17.297 3.635-24.682-1.08-15.139-9.657-29.653-18.746-41.866-32.18-8.606-9.458-20.365-22.524-18.717-36.413.767-6.305 5.396-11.417 7.583-17.382 4.601-12.469-2.016-26.074-9.032-37.378-4.63-7.47-9.742-15.707-8.379-24.398 1.648-10.51 12.185-17.61 15.025-27.863 3.039-10.964-3.408-22.183-10.253-31.272a142.782 142.782 0 0 0-2.499-3.266 214.734 214.734 0 0 1 10.537-13.321c2.869 3.181 5.652 6.447 7.981 10.14l-.028-.085Zm105.062 153.005c-2.67-.937-6.334-2.527-8.862-.852-2.13 1.392-3.834 6.249-3.664 8.663.171 2.301 1.562 4.318 3.011 6.135a84.824 84.824 0 0 0 25.165 21.416c2.499 1.392 5.623 2.67 8.123 1.221 1.874-1.079 2.727-3.465 2.585-5.623-.142-2.159-1.108-4.204-2.074-6.135-2.414-4.857-5.027-9.657-8.521-13.833-4.061-4.8-9.742-8.918-15.735-10.992h-.028Z" opacity=".8"/><path fill="url(#d)" d="M1081.59 95.837c9.21-80.654-48.72-153.498-129.37-162.702-80.654-9.203-153.498 48.718-162.702 129.372-9.203 80.654 48.718 153.498 129.372 162.702 80.654 9.203 153.5-48.718 162.7-129.372Z" style="mix-blend-mode:screen"/><path stroke="#3215AB" stroke-width=".75" d="m858.945-63.657-.199.142a224.626 224.626 0 0 0-31.328 25.903 219.128 219.128 0 0 0-12.639 13.605 223.097 223.097 0 0 0-10.538 13.32 221.017 221.017 0 0 0-7.299 10.652c-4.403 6.845-8.436 13.889-12.043 21.131-2.357 4.687-4.516 9.459-6.533 14.259l-.483 1.136c-4.516 11.048-8.18 22.41-10.878 33.97a226.654 226.654 0 0 0-5.624 38.627 225.557 225.557 0 0 0 2.187 47.064c4.943 32.351 17.042 64.105 36.754 92.905C869 349.376 1004.51 376.671 1106.36 312.055c2.25-1.42 4.46-2.869 6.68-4.403a235.7 235.7 0 0 0 7.92-5.652c2.9-2.158 5.74-4.402 8.52-6.703a209.04 209.04 0 0 0 14.43-13.008 226.39 226.39 0 0 0 11.9-12.668c1.08-1.221 2.13-2.471 3.18-3.721a220.47 220.47 0 0 0 15.25-20.62c2.79-4.289 5.43-8.635 7.93-13.065 13.32-23.717 22.12-49.592 26.19-76.234a224.925 224.925 0 0 0 2.47-26.187c.4-10.963 0-21.955-1.25-32.919-.88-8.01-2.22-16.019-4.01-23.943-6.05-27.154-17.27-53.625-33.94-77.966a83.653 83.653 0 0 0-2.02-2.869c-2.15-3.067-4.37-6.05-6.7-9.003-.42-.54-.88-1.108-1.3-1.648-1.08-1.335-2.16-2.67-3.24-3.976-.51-.625-1.03-1.221-1.56-1.846-.46-.54-.94-1.08-1.4-1.62-.39-.454-.79-.908-1.19-1.363-.48-.51-.97-1.05-1.42-1.59-.45-.511-.91-.994-1.36-1.506-.46-.51-.91-.994-1.39-1.505-.46-.483-.94-.994-1.4-1.477-.45-.483-.93-.994-1.42-1.477-.71-.738-1.44-1.505-2.18-2.244-.51-.51-1.03-1.022-1.54-1.533-.11-.114-.25-.256-.37-.37-.45-.454-.93-.908-1.39-1.363-1.19-1.165-2.41-2.3-3.63-3.408-.74-.654-1.45-1.335-2.22-1.989-.71-.624-1.42-1.278-2.13-1.874a198.198 198.198 0 0 0-9.26-7.64 183.826 183.826 0 0 0-4.71-3.58c-.91-.653-1.82-1.334-2.73-1.987-.71-.483-1.39-.995-2.1-1.477-.83-.568-1.62-1.136-2.44-1.676-.83-.568-1.65-1.108-2.48-1.647-.82-.54-1.64-1.08-2.5-1.62-1.64-1.079-3.35-2.13-5.02-3.124-.85-.511-1.71-1.022-2.56-1.505-.85-.511-1.7-.994-2.55-1.477-.86-.483-1.74-.966-2.59-1.449a214.28 214.28 0 0 0-5.23-2.811 228.73 228.73 0 0 0-5.28-2.642c-.71-.34-1.42-.682-2.16-1.022-.82-.37-1.64-.767-2.47-1.136-.62-.284-1.28-.597-1.93-.881-.99-.454-2.02-.909-3.04-1.335-.82-.37-1.67-.71-2.5-1.05-.94-.398-1.9-.796-2.84-1.165-1.13-.455-2.3-.91-3.44-1.335-.88-.313-1.73-.654-2.61-.966-.85-.312-1.7-.625-2.58-.937-.86-.284-1.71-.597-2.56-.88-.45-.171-.88-.313-1.33-.455-.46-.142-.91-.313-1.4-.455a225.525 225.525 0 0 0-89.664-10.168h-.056c-.54.029-1.051.085-1.591.142a222.25 222.25 0 0 0-14.968 1.96c-5.368.88-10.708 1.96-16.019 3.238a196.326 196.326 0 0 0-9.146 2.414 224.596 224.596 0 0 0-43.258 17.44 231.4 231.4 0 0 0-21.841 13.207l.028.056Z"/><path stroke="#fff" stroke-linecap="round" stroke-miterlimit="10" stroke-width=".75" d="M762.5 89.5C570.413 198.349 456.193 305.059 480.737 363.092c33.996 80.341 329.088 32.268 659.093-107.426 330-139.695 569.96-318.061 535.96-398.402-22.71-53.663-161.8-50.055-349.97-.102"/><path stroke="#fff" stroke-linecap="round" stroke-miterlimit="10" stroke-width=".75" d="M762 95c-165.51 95.993-263.069 188.207-241.879 238.363 30.643 72.363 303.222 26.12 608.939-103.31 305.71-129.43 528.64-292.906 498-365.269-19.36-45.684-135.28-44.058-295.09-4.066"/><path stroke="#fff" stroke-linecap="round" stroke-miterlimit="10" stroke-width=".75" d="M761 101c-135.833 81.052-214.458 156.24-197.129 197.147 26.526 62.657 273.545 17.989 551.769-99.753 278.22-117.742 482.25-264.043 455.72-326.7-15.45-36.486-105.6-36.588-233.1-7.063"/><path stroke="#fff" stroke-linecap="round" stroke-miterlimit="10" stroke-width=".75" d="M760.5 106.5c-117.844 70.076-186.414 133.361-172.541 166.036 22.257 52.545 252.507 5.285 514.361-105.597 261.86-110.83 456.08-243.258 433.82-295.803-12.09-28.559-85.72-27.593-192.49-2.998"/><path fill="url(#e)" stroke="#220E6E" d="M327.154 330.414 504.842 325l-59.377 13.9 92.71 58.289-112.012 46.887-99.009-113.662Z"/><path fill="url(#f)" stroke="#220E6E" d="m414.426 456.948-87.272-126.534 99.009 113.662-11.737 12.872Z"/><path fill="url(#g)" stroke="#220E6E" d="M819.868 350.577c-2.714 15.43-31.003 49.648-70.887 89.842-55.265 55.707-132.784 122.864-195.268 167.372 13.458-11.067 25.828-23.509 35.389-38.03 6.55-9.944 11.713-20.856 14.82-32.378 1.59-5.832 2.415-11.7 3.072-17.7.538-5.008-.848-9.92 1.243-14.725 1.673-3.86 4.518-7.075 7.327-10.219 18.907-21.178 37.803-42.357 56.699-63.547 11.928-13.35 23.856-26.724 35.784-40.087-22.781 16.422-46.122 31.768-69.906 46.457-16.482 10.207-33.179 20.079-50.043 29.82-4.231 2.438-8.844 4.255-13.529 4.852-4.255.526-8.57.084-12.729-1.757-10.685-4.768-21.405-9.31-32.473-13.171a333.36 333.36 0 0 0-30.632-8.987c-15.442-3.765-31.099-6.454-46.947-8.295-6.932-.789-14.079-1.004-20.736 1.076-.801.251-1.59.55-2.355.896 71.663-32.784 152.421-62.591 248.335-88.216a2235.716 2235.716 0 0 1 33.811-8.689c17.079-4.219 35.091-3.574 51.62 2.39l.287.108c9.334-.43 18.561-.49 27.692-.096h.012c9.956.431 19.768 1.423 29.414 3.12v-.036Z"/><path fill="url(#h)" stroke="#220E6E" d="M529.379 457.282a333.38 333.38 0 0 0-30.633-8.987c20.27-11.749 41.772-22.219 64.922-21.968 20.211.203 39.465 8.665 59.568 10.769 4.996.526 9.98.657 14.928.442-16.482 10.207-33.178 20.079-50.042 29.82-4.231 2.438-8.845 4.255-13.53 4.852-4.255.526-8.569.084-12.728-1.757-10.685-4.768-21.406-9.31-32.473-13.171h-.012Z"/><path fill="url(#i)" stroke="#220E6E" d="M819.867 350.577c-2.713 15.43-31.003 49.648-70.886 89.841-55.265 55.708-132.784 122.865-195.268 167.373 13.458-11.067 25.828-23.509 35.389-38.03 6.55-9.944 11.713-20.856 14.82-32.378 1.59-5.832 2.415-11.7 3.072-17.7.538-5.008-.849-9.92 1.243-14.725 1.673-3.86 4.518-7.075 7.326-10.219 18.908-21.178 37.804-42.357 56.7-63.547 19.577-6.132 38.544-15.824 56.771-25.35 12.764-6.669 25.242-13.9 37.218-21.896 8.856-5.892 24.549-12.489 26.556-24.023.73-4.231-.155-8.737-2.366-12.43 9.956.419 19.768 1.411 29.413 3.096l.012-.012Z"/><path fill="#CCB1E0" d="M678.955 498.815c-31.564 31.11-66.87 58.121-102.08 85.049 9.203-22.481 18.406-44.963 27.597-67.444 2.426-5.94 4.9-11.94 8.617-17.163 4.84-6.8 11.593-11.964 18.274-16.96 15.633-11.688 31.541-23.031 47.425-34.373 12.621-9 25.242-17.999 37.851-27.011 6.203-4.422 12.406-8.844 18.609-13.278 5.701-4.076 12.119-10.351 18.526-12.944.836-.335-.574 3.92-.538 3.812-.813 2.307-2.235 4.566-3.347 6.741a296.936 296.936 0 0 1-6.824 12.562c-12.406 21.597-27.525 41.592-44.138 60.105a477.944 477.944 0 0 1-19.984 20.904h.012Z" style="mix-blend-mode:multiply"/><path fill="url(#j)" stroke="#220E6E" d="M758.041 391.165c-18.49 16.147-36.382 31.158-53.807 45.154-33.513 26.915-65.341 50.078-96.547 70.205l-6.394-3.012 106.765-112.419c2.498-.322 4.996-.609 7.482-.824 14.354-1.315 28.505-.861 42.501.884v.012Z"/><path fill="#220E6E" d="M705.285 363.174c-14.51 6.645-29.438 13.804-43.875 20.736-14.438 6.932-29.378 14.104-43.887 20.749l-.204.095-.203-.095c-8.808-4.351-19.35-9.323-30.692-13.327-40.768 14.952-84.033 31.242-125.613 51.345l-.407-.836c41.676-20.151 85.025-36.453 125.865-51.441l.155-.06.155.06c11.367 3.992 21.92 8.964 30.764 13.326 14.45-6.621 29.306-13.744 43.672-20.652 14.438-6.932 29.378-14.103 43.887-20.749l.383.849Z" style="mix-blend-mode:multiply"/><path fill="#220E6E" d="M666.072 381.64c-1.422-.789-2.808-1.698-4.159-2.57-1.279-.825-2.594-1.685-3.92-2.426-8.486 2.868-15.836 7.135-22.649 11.318l5.904 4.59-.573.729-6.956-5.415.573-.346c7.064-4.351 14.713-8.844 23.617-11.82l.191-.072.18.095c1.422.789 2.808 1.698 4.159 2.57 1.338.861 2.713 1.757 4.099 2.534l-.454.813h-.012ZM760.098 357.353l-.586.24c-3.573 1.458-7.661 3.525-11.605 5.521-1.829.921-3.597 1.817-5.247 2.618l-.31.155-.24-.263c-4.398-4.9-7.804-5.701-13.433-7.039l-.945-.228.216-.908.944.227c5.701 1.351 9.179 2.187 13.673 7.064 1.553-.753 3.215-1.602 4.924-2.462 3.753-1.901 7.613-3.849 11.079-5.307-2.498-2.737-6.215-4.04-11.342-3.968v-.932c5.713-.084 9.8 1.482 12.477 4.781l.395.49v.011Z" style="mix-blend-mode:multiply"/><path fill="#3215AB" stroke="#220E6E" stroke-linejoin="round" d="M762.749 347.565c-18.597 6.753-31.564 10.649-52.193 19.852-10.733-8.366-20.115-11.438-33.525-13.673a1984.689 1984.689 0 0 1 33.812-8.689c17.067-4.219 35.078-3.573 51.62 2.39l.286.108v.012Z"/><path fill="url(#k)" d="M758.509 348.067c-6.55 1.757-12.478 3.729-18.633 6.573-9.119-4.625-18.155-6.848-28.29-8.234 16.589-4.494 33.812-2.534 46.923 1.661Z" style="mix-blend-mode:screen"/><path fill="#CCB1E0" d="M627.823 446.024c-37.887 4.888-77.782-11.008-102.905-39.764-24.226 9.55-48.464 19.099-72.691 28.649-5.199 2.043-10.182 5.617-15.573 7.075 45.549 3.753 88.946 17.689 129.151 39.429 4.434 2.39 9.275 4.972 14.235 4.052 3.012-.562 5.617-2.355 8.115-4.124 14.402-10.23 26.294-23.784 39.68-35.317h-.012Z" style="mix-blend-mode:multiply"/><path fill="#220E6E" d="m745.074 390.305-35.341 23.222c-7.303 7.279-19.96 22.613-20.091 22.768l-.06.072-.084.048c-.251.131-25.194 12.645-38.138 17.628l-.335-.872c12.502-4.817 36.322-16.721 37.959-17.545.98-1.183 12.968-15.669 20.163-22.828l35.413-23.282.514.777v.012Z" style="mix-blend-mode:multiply"/><path fill="#CCB1E0" d="M716.964 390.771c-1.721 5.653-3.418 11.306-5.139 16.959-2.689 8.88-6.992 18.514-7.494 27.752a6.592 6.592 0 0 1-.084.837c-33.512 26.915-65.34 50.078-96.546 70.205l-6.394-3.012 106.765-112.419c2.498-.322 4.996-.609 7.482-.824.49.143.968.298 1.422.49l-.012.012Z" style="mix-blend-mode:multiply"/><path fill="url(#l)" stroke="#220E6E" d="m460.273 617.628-74.591 45.548 58.444-70.551 16.147 25.003Z"/><path fill="url(#m)" stroke="#220E6E" d="M574.566 472.21c-4.254.55-8.569.096-12.728-1.757-10.685-4.768-21.406-9.31-32.461-13.159-25.243-8.772-51.13-14.234-77.591-17.282-6.92-.801-14.068-1.004-20.713 1.064-13.374 4.171-19.457 18.943-21.238 31.863-1.638 11.964.179 24.131 2.773 35.927 5.139 23.402 13.421 46.051 23.724 67.659 8.677 18.215 18.011 39.286 35.126 51.178 8.797 6.119 19.255 8.856 29.928 7.9 15.31-1.374 28.947-9.992 41.269-19.182 17.701-13.183 34.314-28.254 46.469-46.672 6.549-9.944 11.712-20.868 14.82-32.378 1.578-5.832 2.414-11.712 3.06-17.712.537-5.008-.849-9.92 1.243-14.725 1.685-3.86 4.529-7.075 7.338-10.207l92.483-103.634c-38.557 27.8-78.786 52.493-119.96 76.265-4.231 2.438-8.845 4.243-13.53 4.852h-.012Z"/><path fill="#3215AB" stroke="#220E6E" stroke-linejoin="round" d="M477.878 580.589c2.235 2.128 4.051 4.291 5.521 6.43.359.514.694 1.016 1.016 1.518 3.407 5.438 4.697 10.589 5.128 14.438.131 1.243.167 2.342.167 3.263v.024c0 2.175-.263 3.501-.263 3.501-1.649 6.251-6.251 12.048-11.796 17.713l-38.174-46.337s15.513-10.888 29.879-5.845c1.028.359 2.068.813 3.096 1.351a24.573 24.573 0 0 1 5.414 3.944h.012Z"/><path fill="#3215AB" stroke="#220E6E" stroke-linejoin="round" d="M472.461 576.645c-7.768.896-15.334 4.111-21.286 9.131l-1.171-1.386c5.462-4.614 12.274-7.769 19.362-9.084 1.028.359 2.067.813 3.095 1.351v-.012ZM483.4 587.019c.358.514.693 1.016 1.015 1.518a108.883 108.883 0 0 1-15.585 9.55l-.812-1.614a110.927 110.927 0 0 0 15.393-9.454h-.011Z"/><path fill="#4966CE" stroke="#220E6E" stroke-linejoin="round" d="M489.541 602.987c.132 1.243.168 2.342.168 3.263v.024a41.138 41.138 0 0 1-2.94 4.027c-2.833 3.43-6.227 6.43-10.004 8.773l-.968-1.554c5.713-3.538 10.494-8.617 13.732-14.533h.012Z"/><path fill="#3215AB" stroke="#220E6E" stroke-linejoin="round" d="M431.743 595.433c-.538-6.466 1.757-12.191 9.262-14.928 8.139-2.976 17.247 1.996 23.474 6.932 10.159 8.068 26.019 38.844 5.748 45.059-8.94 2.737-18.011-3.705-24.262-9.598-5.545-5.235-13.386-17.282-14.222-27.453v-.012Z"/><path fill="#3D7985" stroke="#220E6E" stroke-linejoin="round" d="M463.652 589.23c5.414 4.279 12.597 15.645 13.912 25.422.944 6.908-1.04 13.015-8.617 15.322-2.893.872-5.797.693-8.606-.143a18.877 18.877 0 0 1-3.012-1.16c-3.884-1.793-7.457-4.661-10.362-7.41a33.277 33.277 0 0 1-3.538-3.992 34.675 34.675 0 0 1-1.852-2.522c-3.681-5.306-7.028-12.202-7.542-18.346v-.107c-.095-1.171-.095-2.319.048-3.406.514-4.375 2.904-8.02 8.319-9.992 2.079-.741 4.207-.92 6.358-.693 5.438.561 10.84 3.788 14.892 7.015v.012Z"/><path fill="#4B99A3" stroke="#220E6E" stroke-linejoin="round" d="m447.685 588.358.753 3.012c-4.925 1.207-9.765 2.892-14.414 4.948-.096-1.171-.096-2.319.047-3.406a92.107 92.107 0 0 1 13.602-4.542l.012-.012ZM457.104 604.493l1.291 2.82a57.124 57.124 0 0 0-14.976 9.956 34.384 34.384 0 0 1-1.853-2.522 61.222 61.222 0 0 1 15.526-10.254h.012ZM469.929 612.799a70.661 70.661 0 0 1-9.585 17.032 18.877 18.877 0 0 1-3.012-1.16 67.493 67.493 0 0 0 9.729-17.007l2.868 1.135Z"/><path fill="#53CFC5" stroke="#220E6E" stroke-linejoin="round" d="M463.656 589.23c4.888 3.873 11.247 13.554 13.386 22.625.215.932.418 1.876.526 2.797-1.745.621-3.586.908-5.438.92-1.494 0-2.988-.167-4.422-.514-3.789-.908-7.255-2.892-10.231-5.414a31.29 31.29 0 0 1-8.068-10.506c-1.757-3.693-3.621-8.987-2.486-13.063.395-1.374.992-2.701 1.841-3.872 1.912.203 3.813.741 5.665 1.482 3.406 1.338 6.609 3.442 9.239 5.533l-.012.012Z"/><path fill="#7FEBE2" stroke="#220E6E" stroke-linejoin="round" d="M463.653 589.23c4.888 3.873 11.247 13.554 13.386 22.625-3.813 1.47-10.159-.299-13.745-3.37-1.625-1.387-2.701-3.036-2.713-4.769 0-1.566.825-3.12 2.14-3.98-2.654-3.394-8.94-10.542-8.319-16.051 3.407 1.338 6.61 3.442 9.239 5.533l.012.012Z"/><path fill="#3215AB" stroke="#220E6E" stroke-linejoin="round" d="M519.551 483.935a68.602 68.602 0 0 1 2.02 2.175c6.896 7.625 12.49 16.458 16.171 25.685.335.764.633 1.553.908 2.342a71.989 71.989 0 0 1 2.307 7.494c.012.036.024.084.036.119 1.41 5.773 2.103 11.689 2.008 17.569a57.132 57.132 0 0 1-.18 3.813c-.525 7.566-2.378 15.012-5.581 21.979l-.024.024a60.908 60.908 0 0 1-1.219 2.534c-.287.538-.55 1.052-.849 1.566-.454.825-.992 1.649-1.565 2.486 0 .024-.012.012-.012.012l-.024.024-.012.012c-9.036 12.967-31.29 26.485-31.29 26.485s-81.666-118.741-81.69-118.765c-.168-.239 10.72-6.43 11.342-6.765 9.012-4.709 19.099-8.94 29.15-10.757 10.888-1.972 21.645-.478 31.589 3.502a67.27 67.27 0 0 1 5.39 2.415c7.912 3.968 15.227 9.513 21.525 16.039v.012Z"/><path fill="#4966CE" stroke="#220E6E" stroke-linejoin="round" d="M498.024 467.896c-18.489-.622-37.229 4.183-53.113 13.625l-1.231-2.068c14.712-8.761 31.791-13.613 48.954-13.972a67.11 67.11 0 0 1 5.39 2.415ZM519.556 483.935a69.768 69.768 0 0 1 2.019 2.175c-12.896 1.566-25.481 5.761-36.704 12.263l-1.219-2.08c11.008-6.394 23.282-10.601 35.904-12.358ZM537.753 511.795c.335.764.634 1.553.909 2.342a111.6 111.6 0 0 1-31.947 17.151l-.789-2.271a108.8 108.8 0 0 0 31.815-17.222h.012ZM543.014 539.319a57.813 57.813 0 0 1-.179 3.813 72.783 72.783 0 0 1-2.474 2.594 80.663 80.663 0 0 1-25.661 17.413l-.944-2.211c11.354-4.828 21.334-12.238 29.258-21.609ZM506.658 585.74c11.283-4.864 21.812-11.952 30.573-20.605a62.203 62.203 0 0 1-1.219 2.534c-.287.538-.55 1.052-.849 1.566-.454.825-.992 1.649-1.565 2.486 0 .024-.012.012-.012.012 0 .024-.024.024-.024.024 0 .024-.012.012-.012.012a102.355 102.355 0 0 1-25.912 16.158l-.968-2.199-.012.012Z"/><path fill="#3215AB" stroke="#220E6E" stroke-linejoin="round" d="M502.235 514.651c8.115 13.099 13.888 30.525 13.78 47.209-.096 13.494-4.064 26.522-13.78 36.394-16.303 16.577-39.501 6.442-54.441-6.418-12.561-10.805-23.425-25.685-30.549-42.071-10.278-23.664-19.445-70.36 17.127-75.32 7.889-1.076 15.848.383 23.33 3.155 2.582.957 5.116 2.092 7.578 3.311 15.119 7.566 28.063 19.386 36.967 33.74h-.012Z"/><path fill="#3D7985" stroke="#220E6E" stroke-linejoin="round" d="M498.137 518.165c8.449 13.087 14.712 30.465 14.676 46.552-.024 8.988-2.019 17.593-6.669 24.8a35.384 35.384 0 0 1-4.613 5.737c-.323.323-.657.657-1.004.956-1.721 1.602-3.574 2.857-5.486 3.777l-.024.024c-9.98 4.972-21.991 1.649-32.521-4.59a46.478 46.478 0 0 1-2.844-1.757 80.838 80.838 0 0 1-8.617-6.549c-6.777-5.916-13.112-12.98-18.657-20.796a110.434 110.434 0 0 1-1.853-2.725 124.588 124.588 0 0 1-9.394-16.518 115.398 115.398 0 0 1-5.342-13.601c-.335-1.04-.658-2.092-.968-3.155-2.929-9.992-4.685-20.964-3.383-30.25a34.96 34.96 0 0 1 .67-3.598c2.175-8.868 7.697-15.692 18.537-17.724a37.602 37.602 0 0 1 3.239-.454c6.394-.598 12.967.657 19.29 2.964 3.263 1.171 6.454 2.629 9.514 4.255 14.246 7.601 26.664 19.015 35.461 32.628l-.012.024Z"/><path fill="#4B99A3" stroke="#220E6E" stroke-linejoin="round" d="m449.574 494.966-.634 3.203c-12.31-2.366-25.433-1.685-37.504 1.913.155-1.231.394-2.426.669-3.598 12.167-3.43 24.991-3.944 37.469-1.518ZM450.684 518.834l.621 3.227a158.388 158.388 0 0 0-35.521 11.426c-.334-1.04-.657-2.092-.968-3.155a161.07 161.07 0 0 1 35.856-11.498h.012ZM467.12 542.821l1.769 2.761c-11.749 7.53-23.999 14.51-36.525 20.749a110.4 110.4 0 0 1-1.852-2.725 394.985 394.985 0 0 0 36.596-20.785h.012ZM486.054 561.359a149.222 149.222 0 0 1-23.557 34.074 46.807 46.807 0 0 1-2.845-1.757 145.844 145.844 0 0 0 23.474-33.799l2.916 1.482h.012ZM503.238 563.044c2.689 11.055 1.685 22.756-2.701 33.166-1.721 1.602-3.574 2.857-5.486 3.777 6.047-10.829 7.924-24.155 5.008-36.202l3.179-.753v.012Z"/><path fill="#53CFC5" stroke="#220E6E" stroke-linejoin="round" d="M498.136 518.165c6.633 10.243 11.892 23.138 13.84 35.963.549 3.549.836 7.087.836 10.589-4.386 3.275-9.956 5.056-16.194 4.59-6.156-.467-11.988-3.048-17.259-6.263-17.557-10.721-30.106-29.306-33.525-49.6-1.398-8.247-1.266-16.996 2.164-24.609a26.664 26.664 0 0 1 5.163-7.553 67.845 67.845 0 0 1 7.828 3.406c.574.275 1.136.55 1.674.848 14.246 7.602 26.664 19.016 35.461 32.629h.012Z"/><path fill="#7FEBE2" stroke="#220E6E" stroke-linejoin="round" d="M498.135 518.165c6.634 10.243 11.893 23.138 13.841 35.963-.67.944-1.482 1.733-2.486 2.342-3.203 1.948-7.458 1.339-10.685-.526-2.904-1.673-4.733-4.183-7.076-6.465-2.294-2.235-2.82-.598-5.641-1.315.873 1.996 1.996 3.92 3.024 5.856.49.944 1.004 2.032.657 3.036-.597 1.697-2.988 1.745-4.721 1.267-8.306-2.319-14.928-9.801-16.194-18.334-.192-1.255-.12-2.809.992-3.406 1.302-.706 2.784.49 3.776 1.589-1.972-2.546-3.956-5.044-5.557-7.84-1.016-1.781-4.064-6.442-3.622-8.546-.346 1.662-.872 3.586-2.438 4.291-1.888.86-4.004-.586-5.402-2.104-5.593-6.071-8.115-14.103-7.219-22.23.12-1.076.299-2.199.908-3.083 1.411-2.104 4.674-2.176 6.825-.825 2.139 1.338 3.442 3.669 4.613 5.904-.143-4.016-1.816-7.386-2.151-11.39-.239-2.606.155-5.438 1.422-7.649.574.275 1.136.55 1.674.848 14.246 7.602 26.664 19.016 35.46 32.629v-.012Z"/><path fill="#3215AB" stroke="#220E6E" stroke-linejoin="round" d="M578.034 502.496c2.152 2.462 3.849 4.9 5.188 7.291.334.573.633 1.147.92 1.697 3.06 6.047 3.908 11.593 4.004 15.692a32.352 32.352 0 0 1-.132 3.443v.024c-.203 2.294-.609 3.657-.609 3.657-2.343 6.406-7.745 12.071-14.127 17.485l-35.676-52.432s17.366-9.956 31.995-3.263a23.871 23.871 0 0 1 3.131 1.721 25.881 25.881 0 0 1 5.318 4.673l-.012.012Z"/><path fill="#4966CE" stroke="#220E6E" stroke-linejoin="round" d="M572.716 497.811c-8.259.191-16.53 2.844-23.282 7.541l-1.1-1.577c6.191-4.327 13.661-6.992 21.25-7.685a23.817 23.817 0 0 1 3.132 1.721ZM583.218 509.787c.335.573.634 1.147.921 1.697a115.36 115.36 0 0 1-17.319 8.545l-.705-1.781a116.67 116.67 0 0 0 17.103-8.461ZM588.131 527.177a32.37 32.37 0 0 1-.131 3.442v.024a44.039 44.039 0 0 1-3.49 3.956 43.698 43.698 0 0 1-11.366 8.258l-.861-1.721c6.347-3.167 11.868-8.055 15.86-13.959h-.012Z"/><path fill="#3215AB" stroke="#220E6E" stroke-linejoin="round" d="M528.062 513.647c.06-6.86 3.024-12.657 11.187-14.808 8.845-2.343 17.952 3.765 24.024 9.561 9.908 9.466 23.604 43.385 1.697 47.951-9.669 2.02-18.585-5.629-24.585-12.442-5.331-6.048-12.406-19.469-12.311-30.262h-.012Z"/><path fill="#3D7985" stroke="#220E6E" stroke-linejoin="round" d="M562.235 510.205c5.283 5.02 11.749 17.677 12.179 28.099.323 7.35-2.354 13.589-10.553 15.286-3.132.633-6.167.179-9.036-.992a20.152 20.152 0 0 1-3.059-1.518c-3.921-2.259-7.387-5.629-10.183-8.796a35.414 35.414 0 0 1-3.347-4.542 41.004 41.004 0 0 1-1.697-2.821c-3.359-5.94-6.215-13.517-6.155-20.031v-.108c0-1.243.131-2.45.382-3.585.968-4.554 3.837-8.163 9.717-9.705 2.259-.586 4.518-.562 6.753-.108 5.665 1.124 11.043 5.032 14.987 8.821h.012Z"/><path fill="#4B99A3" stroke="#220E6E" stroke-linejoin="round" d="m545.524 507.743.502 3.239c-5.295.801-10.554 2.103-15.633 3.812 0-1.243.131-2.45.382-3.585a98.656 98.656 0 0 1 14.749-3.466ZM553.877 525.635l1.088 3.083a60.395 60.395 0 0 0-16.721 9.024 41.004 41.004 0 0 1-1.697-2.821 64.458 64.458 0 0 1 17.33-9.286ZM566.562 535.602a75.06 75.06 0 0 1-11.725 16.996 20.162 20.162 0 0 1-3.06-1.518 71.538 71.538 0 0 0 11.88-16.948l2.905 1.47Z"/><path fill="#53CFC5" stroke="#220E6E" stroke-linejoin="round" d="M562.233 510.205c4.768 4.542 10.517 15.346 11.892 25.099.143 1.004.251 2.02.286 3-1.888.478-3.86.609-5.82.442a20.338 20.338 0 0 1-4.613-.968c-3.897-1.315-7.363-3.741-10.243-6.693a33.01 33.01 0 0 1-7.47-11.833c-1.482-4.051-2.94-9.812-1.351-13.983.55-1.41 1.315-2.749 2.319-3.896 1.996.406 3.944 1.147 5.809 2.103 3.454 1.745 6.621 4.267 9.179 6.717l.012.012Z"/><path fill="#7FEBE2" stroke="#220E6E" stroke-linejoin="round" d="M562.234 510.205c4.769 4.542 10.518 15.346 11.892 25.099-4.147 1.171-10.661-1.291-14.127-4.877-1.578-1.613-2.546-3.454-2.39-5.27.143-1.65 1.171-3.203 2.641-3.98-2.462-3.837-8.378-11.952-7.195-17.689 3.454 1.745 6.621 4.267 9.179 6.717Z"/><path fill="#220E6E" d="m511.128 380.6-71.436 12.238-.167-.155c-22.84-21.477-66.392-62.329-67.683-63.225l.239-.347v-.525c.251 0 .609-.012 67.91 63.248l70.982-12.155.155.921Z" style="mix-blend-mode:multiply"/><path fill="#220E6E" d="m490.058 402.304-61.324 15.394 14.724 17.474-.717.609-15.68-18.633 61.575-15.441-9.37-15.956.801-.478 9.991 17.031Z" style="mix-blend-mode:multiply"/><path fill="#CCB1E0" d="m333.217 333.988 62.388-1.16c25.72 32.963 62.986 56.568 106.598 75.034l-76.121 29.855-92.865-103.741v.012Z" style="mix-blend-mode:multiply"/><path fill="#fff" d="M790.464 347.481h-.012c-9.143-.418-18.37-.346-27.692.084l-.287-.108a76.684 76.684 0 0 0-2.904-.98c-15.717-5.043-32.629-5.378-48.716-1.41-2.366.586-4.697 1.183-7.039 1.781a1932.675 1932.675 0 0 0-26.76 6.908c-50.305 13.434-96.415 28.039-139.263 43.612l.395-.167-27.131-17.055-.083-.455-.514.084-62.102-39.058-5.94 1.386 64.982 40.863.514-.083.084.454 27.13 17.055-.394.167c42.847-15.573 88.945-30.166 139.262-43.612a1936.35 1936.35 0 0 1 26.76-6.908c2.355-.598 4.673-1.195 7.052-1.781 16.087-3.98 32.998-3.633 48.715 1.411.968.31 1.936.633 2.904.98l.287.107c9.335-.43 18.561-.49 27.692-.095h.012c9.956.43 19.769 1.422 29.414 3.119-2.319 13.195-23.33 40.098-54.273 72.727 32.616-34.063 54.93-62.317 57.321-75.93-9.646-1.685-19.458-2.677-29.414-3.096ZM369.021 332.255v-.466s.096 0 .622.442l119.912-3.645 15.287-3.574-132.151 4.028c-.538-.443-.586-.454-.634-.442v.466l-44.903 1.362 2.104 3.048 39.763-1.207v-.012ZM434.793 585.226c-.095-.107-.179-.215-.275-.322-.263.322-.514.669-.741 1.015.323-.239.658-.466 1.016-.693Z"/><path fill="#fff" d="M759.07 392.198a219.05 219.05 0 0 0-12.489-.837c-4.171-.167-8.331-.095-12.49-.072-8.318-.023-16.649.55-24.908 1.554l.323-.119c-18.358 12.704-36.859 25.23-55.6 37.361-9.382 6.06-18.824 12.035-28.349 17.844l-7.159 4.35c-2.379 1.459-4.877 2.737-7.303 4.1a626.586 626.586 0 0 1-14.796 7.876c4.769-2.916 9.537-5.808 14.258-8.784 2.367-1.471 4.697-3.012 7.1-4.435a439.53 439.53 0 0 0 7.159-4.314c9.525-5.809 18.955-11.773 28.326-17.832 18.728-12.119 37.217-24.633 55.563-37.338l.144-.095.179-.024a211.991 211.991 0 0 1 25.087-1.602c4.195 0 8.378.347 12.549.717 4.172.395 8.319.933 12.442 1.65h-.036Z"/><path fill="url(#n)" d="M425.002 480.122c-33.991 25.015-55.994 57.859-73.42 90.105L1 700.74l16.278 35.796L357.14 584.868c42.225 17.975 82.993 22.481 132.401 18.119 0 0 45.919-15.526 9.502-83.388-38.377-54.213-74.053-39.477-74.053-39.477h.012Z" style="mix-blend-mode:screen"/><path stroke="#220E6E" stroke-linejoin="round" d="M327.154 330.414 504.842 325l-59.377 13.9 92.71 58.289-112.012 46.887-99.009-113.662Z"/><path stroke="#220E6E" stroke-linejoin="round" d="M819.868 350.577c-2.714 15.43-31.003 49.648-70.887 89.842-55.265 55.707-132.784 122.864-195.268 167.372 13.458-11.067 25.828-23.509 35.389-38.03 6.55-9.944 11.713-20.856 14.82-32.378 1.59-5.832 2.415-11.7 3.072-17.7.538-5.008-.848-9.92 1.243-14.725 1.673-3.86 4.518-7.075 7.327-10.219 18.907-21.178 37.803-42.357 56.699-63.547 11.928-13.35 23.856-26.724 35.784-40.087-22.781 16.422-46.122 31.768-69.906 46.457-16.482 10.207-33.179 20.079-50.043 29.82-4.231 2.438-8.844 4.255-13.529 4.852-4.255.526-8.57.084-12.729-1.757-10.685-4.768-21.405-9.31-32.473-13.171a333.36 333.36 0 0 0-30.632-8.987c-15.442-3.765-31.099-6.454-46.947-8.295-6.932-.789-14.079-1.004-20.736 1.076-.801.251-1.59.55-2.355.896 71.663-32.784 152.421-62.591 248.335-88.216a2235.716 2235.716 0 0 1 33.811-8.689c17.079-4.219 35.091-3.574 51.62 2.39l.287.108c9.334-.43 18.561-.49 27.692-.096h.012c9.956.431 19.768 1.423 29.414 3.12v-.036Z"/><path stroke="#220E6E" stroke-linejoin="round" d="M758.041 391.165c-18.49 16.147-36.382 31.158-53.807 45.154-33.513 26.915-65.341 50.078-96.547 70.205l-6.394-3.012 106.765-112.419c2.498-.322 4.996-.609 7.482-.824 14.354-1.315 28.505-.861 42.501.884v.012Z"/><path fill="url(#o)" d="m340.342 736.804 77.205-31.517a1.712 1.712 0 0 0 .929-2.231 1.71 1.71 0 0 0-2.23-.929l-77.19 31.502a1.71 1.71 0 0 0-.929 2.23h-.015a1.71 1.71 0 0 0 2.23.929v.016Z" style="mix-blend-mode:lighten"/><path fill="url(#p)" d="m782.357 666.804 77.205-31.517a1.711 1.711 0 0 0 .929-2.231 1.71 1.71 0 0 0-2.23-.929l-77.205 31.517a1.71 1.71 0 0 0-.929 2.23 1.71 1.71 0 0 0 2.23.93Z"/><path fill="url(#q)" d="m210.357 332.804 77.205-31.517a1.711 1.711 0 0 0 .929-2.231 1.71 1.71 0 0 0-2.23-.929l-77.205 31.517a1.71 1.71 0 0 0-.929 2.23 1.71 1.71 0 0 0 2.23.93Z" style="mix-blend-mode:screen"/><path fill="url(#r)" d="m423.357 209.804 77.205-31.517a1.711 1.711 0 0 0 .929-2.231 1.71 1.71 0 0 0-2.23-.929l-77.205 31.517a1.71 1.71 0 0 0-.929 2.23 1.71 1.71 0 0 0 2.23.93Z" style="mix-blend-mode:screen"/><path fill="url(#s)" d="m319.351 192.155 34.212-13.97a1.709 1.709 0 0 0 .929-2.23 1.71 1.71 0 0 0-2.23-.929l-34.211 13.97a1.71 1.71 0 0 0-.93 2.23 1.711 1.711 0 0 0 2.23.929Z"/><path fill="url(#t)" d="m668.357 571.804 77.205-31.517a1.711 1.711 0 0 0 .929-2.231 1.71 1.71 0 0 0-2.23-.929l-77.205 31.517a1.71 1.71 0 0 0-.929 2.23 1.71 1.71 0 0 0 2.23.93Z" style="mix-blend-mode:lighten"/><path fill="url(#u)" d="m780.357 453.804 77.205-31.517a1.711 1.711 0 0 0 .929-2.231 1.71 1.71 0 0 0-2.23-.929l-77.205 31.517a1.71 1.71 0 0 0-.929 2.23 1.71 1.71 0 0 0 2.23.93Z" style="mix-blend-mode:lighten"/></g><defs><linearGradient id="b" x1="714" x2="1238" y1="-44" y2="580" gradientUnits="userSpaceOnUse"><stop stop-color="#E6007A"/><stop offset=".21" stop-color="#703AC2"/><stop offset=".46" stop-color="#0070EB"/><stop offset=".77" stop-color="#0297FB"/><stop offset="1" stop-color="#0AE2FF"/></linearGradient><linearGradient id="d" x1="769.569" x2="1030.66" y1="45.304" y2="98.935" gradientUnits="userSpaceOnUse"><stop stop-color="#2C698B"/><stop offset="1"/></linearGradient><linearGradient id="e" x1="516.297" x2="474.602" y1="336.139" y2="465.626" gradientUnits="userSpaceOnUse"><stop stop-color="#6D59FF"/><stop offset=".78" stop-color="#1564AB"/></linearGradient><linearGradient id="f" x1="415.898" x2="343.599" y1="342.251" y2="441.389" gradientUnits="userSpaceOnUse"><stop stop-color="#6340AE"/><stop offset=".682" stop-color="#1524AB"/></linearGradient><linearGradient id="g" x1="532.699" x2="567.23" y1="389.347" y2="516.368" gradientUnits="userSpaceOnUse"><stop stop-color="#E7E3FF"/><stop offset="1" stop-color="#8ED0D1"/></linearGradient><linearGradient id="h" x1="623.709" x2="613.631" y1="430.635" y2="484.054" gradientUnits="userSpaceOnUse"><stop stop-color="#6D59FF"/><stop offset=".78" stop-color="#1564AB"/></linearGradient><linearGradient id="i" x1="792.273" x2="659.331" y1="371.843" y2="610.057" gradientUnits="userSpaceOnUse"><stop stop-color="#6D59FF"/><stop offset=".78" stop-color="#1564AB"/></linearGradient><linearGradient id="j" x1="790.244" x2="746.055" y1="401.153" y2="490.457" gradientUnits="userSpaceOnUse"><stop stop-color="#F3D4FF"/><stop offset="1" stop-color="#828CD1"/></linearGradient><linearGradient id="k" x1="715.707" x2="739.159" y1="321.833" y2="352.7" gradientUnits="userSpaceOnUse"><stop stop-color="#3D4A4A"/><stop offset=".3" stop-color="#3A4747"/><stop offset=".51" stop-color="#333D3D"/><stop offset=".69" stop-color="#262E2E"/><stop offset=".86" stop-color="#141818"/><stop offset="1"/></linearGradient><linearGradient id="l" x1="452.539" x2="417.148" y1="599.224" y2="664.797" gradientUnits="userSpaceOnUse"><stop stop-color="#6340AE"/><stop offset=".682" stop-color="#1524AB"/></linearGradient><linearGradient id="m" x1="677.083" x2="564.455" y1="413.984" y2="655.043" gradientUnits="userSpaceOnUse"><stop stop-color="#6340AE"/><stop offset=".682" stop-color="#1524AB"/></linearGradient><linearGradient id="n" x1="256.768" x2="32.075" y1="618.536" y2="711.76" gradientUnits="userSpaceOnUse"><stop stop-color="#30BF9B"/><stop offset="1" stop-color="#30BF9B" stop-opacity="0"/></linearGradient><linearGradient id="o" x1="424.517" x2="338.007" y1="706.197" y2="742.997" gradientUnits="userSpaceOnUse"><stop stop-color="#FFFFE4"/><stop offset=".5" stop-color="#FFFFE4" stop-opacity=".17"/><stop offset="1" stop-color="#FFFFE4" stop-opacity="0"/></linearGradient><linearGradient id="p" x1="855.664" x2="777.645" y1="632.561" y2="666.51" gradientUnits="userSpaceOnUse"><stop stop-color="#FC49EF"/><stop offset=".09" stop-color="#FC49EF" stop-opacity=".96"/><stop offset=".23" stop-color="#FC49EF" stop-opacity=".86"/><stop offset=".42" stop-color="#FC49EF" stop-opacity=".68"/><stop offset=".64" stop-color="#FC49EF" stop-opacity=".45"/><stop offset=".89" stop-color="#FC49EF" stop-opacity=".15"/><stop offset="1" stop-color="#FC49EF" stop-opacity="0"/></linearGradient><linearGradient id="q" x1="294.648" x2="212" y1="297.734" y2="336" gradientUnits="userSpaceOnUse"><stop stop-color="#26FFEF"/><stop offset=".495" stop-color="#26EDE5" stop-opacity=".22"/><stop offset="1" stop-color="#27DBDA" stop-opacity="0"/></linearGradient><linearGradient id="r" x1="507.648" x2="425" y1="174.734" y2="213" gradientUnits="userSpaceOnUse"><stop stop-color="#26FFEF"/><stop offset=".495" stop-color="#26EDE5" stop-opacity=".22"/><stop offset="1" stop-color="#27DBDA" stop-opacity="0"/></linearGradient><linearGradient id="s" x1="352.307" x2="315.183" y1="175.178" y2="190.328" gradientUnits="userSpaceOnUse"><stop stop-color="#FC49EF"/><stop offset=".09" stop-color="#FC49EF" stop-opacity=".96"/><stop offset=".23" stop-color="#FC49EF" stop-opacity=".86"/><stop offset=".42" stop-color="#FC49EF" stop-opacity=".68"/><stop offset=".64" stop-color="#FC49EF" stop-opacity=".45"/><stop offset=".89" stop-color="#FC49EF" stop-opacity=".15"/><stop offset="1" stop-color="#FC49EF" stop-opacity="0"/></linearGradient><linearGradient id="t" x1="752.533" x2="666" y1="541.199" y2="578" gradientUnits="userSpaceOnUse"><stop stop-color="#FFFFE4"/><stop offset=".5" stop-color="#FFFFE4" stop-opacity=".17"/><stop offset="1" stop-color="#FFFFE4" stop-opacity="0"/></linearGradient><linearGradient id="u" x1="864.533" x2="778" y1="423.199" y2="460" gradientUnits="userSpaceOnUse"><stop stop-color="#FFFFE4"/><stop offset=".5" stop-color="#FFFFE4" stop-opacity=".17"/><stop offset="1" stop-color="#FFFFE4" stop-opacity="0"/></linearGradient><clipPath id="a"><path fill="#fff" d="M0 0h1106v804H0z"/></clipPath></defs></svg>