<svg width="60" height="60" viewBox="0 0 60 60" fill="none" xmlns="http://www.w3.org/2000/svg">
<g clip-path="url(#clip0_353_9508)">
<path d="M51.0028 42.0075C48.9623 42.0061 46.9825 42.7015 45.3911 43.9787L39.1667 37.7543C40.8731 35.7368 41.862 33.2101 41.9785 30.5703L54.2174 30.1125C54.4751 30.7747 54.9587 31.3244 55.5826 31.6644C56.2065 32.0044 56.9305 32.1127 57.6267 31.9703C58.3228 31.8279 58.9461 31.4439 59.3864 30.8862C59.8266 30.3285 60.0554 29.633 60.0324 28.9229C60.0093 28.2127 59.7358 27.5336 59.2602 27.0057C58.7847 26.4777 58.1378 26.135 57.4339 26.0381C56.73 25.9412 56.0145 26.0963 55.4139 26.4761C54.8134 26.8559 54.3666 27.4358 54.1524 28.1133L41.9116 28.5662C41.7045 26.8453 41.1265 25.1898 40.2176 23.714C39.3086 22.2382 38.0904 20.9771 36.6468 20.0177L39.5336 14.7679C40.7211 15.138 42.0038 15.0539 43.1328 14.5317C44.2619 14.0096 45.1567 13.0868 45.6438 11.9422C46.1309 10.7976 46.1755 9.51295 45.7689 8.33736C45.3624 7.16176 44.5337 6.17906 43.4437 5.57989C42.3536 4.98072 41.0798 4.80779 39.8694 5.09464C38.6591 5.38149 37.5984 6.10768 36.8931 7.13233C36.1879 8.15699 35.8884 9.40707 36.0527 10.6401C36.217 11.8731 36.8334 13.0011 37.7823 13.8053L34.8935 19.0581C32.8341 18.1357 30.5556 17.8151 28.3216 18.1335C26.0876 18.4519 23.9895 19.3963 22.2698 20.8574L16.0454 14.632C17.4828 12.8333 18.1769 10.5525 17.9852 8.25798C17.7934 5.96349 16.7303 3.82953 15.0143 2.29439C13.2982 0.759257 11.0595 -0.0605041 8.75789 0.00348269C6.45629 0.0674694 4.26656 1.01035 2.63845 2.63845C1.01035 4.26656 0.0674694 6.45629 0.00348269 8.75789C-0.0605041 11.0595 0.759258 13.2982 2.29439 15.0143C3.82953 16.7303 5.96349 17.7934 8.25798 17.9852C10.5525 18.1769 12.8333 17.4828 14.632 16.0454L20.8564 22.2708C19.0204 24.4322 18.0137 27.1766 18.0166 30.0125C18.0195 30.7304 18.0864 31.4466 18.2165 32.1527L7.48398 35.0424C6.99985 34.2086 6.22888 33.5793 5.31492 33.2721C4.40096 32.9648 3.40644 33.0006 2.51691 33.3727C1.62739 33.7448 0.903618 34.4278 0.480652 35.2943C0.0576862 36.1608 -0.0355869 37.1516 0.218236 38.0818C0.472059 39.012 1.05564 39.8181 1.86009 40.3497C2.66455 40.8813 3.63492 41.102 4.59016 40.9708C5.54541 40.8395 6.42026 40.3652 7.05151 39.6363C7.68275 38.9075 8.02726 37.9738 8.02075 37.0096C8.02075 36.9956 8.02075 36.9836 8.02075 36.9696L18.7443 34.0828C19.6739 36.6501 21.4505 38.824 23.7812 40.2463L20.7704 46.2667C19.3253 45.8193 17.7648 45.9312 16.3983 46.5803C15.0318 47.2295 13.9592 48.3684 13.3931 49.7714C12.827 51.1743 12.8087 52.7387 13.342 54.1544C13.8753 55.5702 14.9211 56.7338 16.2721 57.4146C17.6231 58.0954 19.1806 58.2436 20.6358 57.8299C22.0909 57.4162 23.3375 56.4707 24.1282 55.181C24.919 53.8913 25.1962 52.3515 24.905 50.867C24.6137 49.3825 23.7752 48.0616 22.5557 47.1664L25.5664 41.1459C27.5865 41.958 29.7901 42.2029 31.9392 41.8543C34.0884 41.5057 36.1015 40.5767 37.7613 39.1677L43.9857 45.3921C42.714 46.9856 42.0212 48.9639 42.0209 51.0027C42.0207 53.0415 42.713 55.0199 43.9843 56.6137C45.2557 58.2075 47.0308 59.3222 49.0186 59.7752C51.0064 60.2281 53.0892 59.9924 54.9255 59.1067C56.7619 58.2209 58.2429 56.7377 59.1259 54.9001C60.0089 53.0624 60.2415 50.9793 59.7856 48.9922C59.3298 47.005 58.2124 45.2316 56.6167 43.9626C55.021 42.6936 53.0416 42.0043 51.0028 42.0075ZM14.0182 14.0192H4.02243C4.02243 12.6937 4.54899 11.4225 5.48628 10.4852C6.42357 9.5479 7.69481 9.02133 9.02033 9.02133C8.42724 9.02133 7.84746 8.84546 7.35432 8.51595C6.86118 8.18645 6.47682 7.71811 6.24985 7.17016C6.02289 6.62221 5.9635 6.01926 6.07921 5.43756C6.19492 4.85586 6.48052 4.32154 6.8999 3.90216C7.31928 3.48277 7.85361 3.19717 8.43531 3.08146C9.01701 2.96576 9.61996 3.02514 10.1679 3.25211C10.7159 3.47908 11.1842 3.86343 11.5137 4.35657C11.8432 4.84972 12.0191 5.42949 12.0191 6.02259C12.0191 6.81791 11.7031 7.58065 11.1408 8.14302C10.5784 8.7054 9.81565 9.02133 9.02033 9.02133C10.3459 9.02133 11.6171 9.5479 12.5544 10.4852C13.4917 11.4225 14.0182 12.6937 14.0182 14.0192ZM30.0115 22.0159C30.8023 22.0159 31.5754 22.2504 32.2329 22.6897C32.8904 23.1291 33.4029 23.7535 33.7055 24.4841C34.0081 25.2147 34.0873 26.0187 33.9331 26.7943C33.7788 27.5699 33.398 28.2823 32.8388 28.8415C32.2796 29.4006 31.5672 29.7814 30.7916 29.9357C30.016 30.09 29.2121 30.0108 28.4815 29.7082C27.7509 29.4056 27.1264 28.8931 26.6871 28.2356C26.2477 27.5781 26.0132 26.805 26.0132 26.0142C26.0132 24.9538 26.4345 23.9368 27.1843 23.187C27.9341 22.4371 28.9511 22.0159 30.0115 22.0159V22.0159ZM24.0141 37.0096C24.0141 35.419 24.6459 33.8935 25.7707 32.7688C26.8954 31.644 28.4209 31.0121 30.0115 31.0121C31.6022 31.0121 33.1277 31.644 34.2524 32.7688C35.3772 33.8935 36.009 35.419 36.009 37.0096H24.0141ZM46.0049 56.0017C46.0049 54.6761 46.5314 53.4049 47.4687 52.4676C48.406 51.5303 49.6772 51.0038 51.0028 51.0038C50.4097 51.0038 49.8299 50.8279 49.3368 50.4984C48.8436 50.1689 48.4593 49.7005 48.2323 49.1526C48.0053 48.6046 47.9459 48.0017 48.0616 47.42C48.1773 46.8383 48.463 46.304 48.8823 45.8846C49.3017 45.4652 49.836 45.1796 50.4177 45.0639C50.9994 44.9482 51.6024 45.0076 52.1503 45.2345C52.6983 45.4615 53.1666 45.8459 53.4961 46.339C53.8256 46.8321 54.0015 47.4119 54.0015 48.005C54.0015 48.8003 53.6856 49.5631 53.1232 50.1255C52.5608 50.6878 51.7981 51.0038 51.0028 51.0038C52.3283 51.0038 53.5995 51.5303 54.5368 52.4676C55.4741 53.4049 56.0007 54.6761 56.0007 56.0017H46.0049Z" fill="url(#paint0_linear_353_9508)"/>
</g>
<defs>
<linearGradient id="paint0_linear_353_9508" x1="3.57143e-07" y1="3" x2="38.02" y2="63.3089" gradientUnits="userSpaceOnUse">
<stop stop-color="#E6007A"/>
<stop offset="0.21" stop-color="#703AC2"/>
<stop offset="0.46" stop-color="#0070EB"/>
<stop offset="0.77" stop-color="#0297FB"/>
<stop offset="1" stop-color="#0AE2FF"/>
</linearGradient>
<clipPath id="clip0_353_9508">
<rect width="60" height="60" fill="white"/>
</clipPath>
</defs>
</svg>
