<svg width="556" height="294" fill="none" xmlns="http://www.w3.org/2000/svg"><g clip-path="url(#a)"><path d="M197.379 143.545S71.991 211.481-28.773 293.186c0 0 133.112-52.585 283.672-101.4l-57.52-48.241Z" fill="url(#b)" style="mix-blend-mode:screen" opacity=".5"/><path d="M198.213 60.51s-85.4 58.578-186.164 140.283c0 0 109.597-55.332 260.158-104.146l-73.994-36.138Z" fill="url(#c)" style="mix-blend-mode:screen" opacity=".5"/><path d="M453.69 171.717s-14.82-17.681-41.706-24.962c-26.886-7.281-125.822 14.175-148.851 23.683-23.044 9.509-35.159 38.06-35.159 38.06s176.092-24.926 225.714-36.797l.002.016Z" fill="url(#d)" stroke="#220E6E" stroke-linejoin="round"/><path d="M462.57 62.482s-44.822-9.753-95.353-6.54c-50.532 3.198-176.455 91.1-176.455 91.1s210.51-82.225 271.809-84.543l-.001-.017Z" fill="url(#e)" stroke="#220E6E" stroke-linejoin="round"/><path d="M131.027 187.509s76.95-61.31 177.2-103.704c107.946-45.64 232.696-12.236 243.885.904l-421.085 102.8Z" fill="url(#f)" stroke="#220E6E" stroke-linejoin="round"/><path d="M252.708 185.577s25.952-2.949 29.43 2.824c3.478 5.774-54.159 20.129-54.159 20.129s94.083-4.614 225.714-36.797c0 0-33.422 1.759-36.991-5.256-3.551-7 57.073-21.018 57.073-21.018l-221.067 40.118Z" fill="url(#g)" stroke="#220E6E" stroke-linejoin="round"/><path d="M552.094 84.71c-10.624-17.27-120.348-3.118-120.348-3.118s-98.015 16.512-103.475 4.832c-5.461-11.679 6.645-40.326 6.645-40.326-97.351 29.917-205.994 99.274-205.994 99.274s119.723-33.111 120.524-21.764c.802 11.346-20.532 24.192-20.548 24.194-32.587 12.144-66.074 25.514-97.872 39.706l16.114 21.724s191.222-25.535 326.651-63.775c0 0 88.945-43.463 78.321-60.732l-.018-.015Z" fill="url(#h)" stroke="#220E6E" stroke-linejoin="round"/><path d="M128.922 145.372s16.023-38.725 46.743-70.16c0 0 73.264-62.795 156.33-64.108 6.159 5.962 5.777 20.266 2.923 35.01 0 0-134.405 57.226-205.994 99.275l-.002-.017Z" fill="url(#i)" stroke="#220E6E" stroke-linejoin="round"/><path d="M175.665 75.212s-7.833 13.956-3.943 18.163c3.891 4.207 43.675-27.981 109.825-55.824l11.264-21.585s-61.544 12.438-117.146 59.246Z" fill="url(#j)" stroke="#220E6E" stroke-linejoin="round"/><path d="M196.477 50.067s-17.269 23.057-18.433 34.55c0 0 45.985-28.731 95.733-50.953 0 0 7.736-22.793 16.526-28.583 0 0-48.228 14.963-93.827 44.97l.001.016Z" fill="url(#k)" stroke="#220E6E" stroke-linejoin="round"/><path d="M305.614 13.495s-6.488-11.415-15.312-8.413C281.48 8.1 276.899 25.06 273.776 33.664l2.685 1.21s4.375-13.807 5.4-16.068l23.753-5.311Z" fill="url(#l)" stroke="#220E6E" stroke-linejoin="round"/><path d="M129.444 187.406s-10.76 8.355-12.286 23.065c0 0 42.366 3.651 73.46-15.681 0 0 2.305-13.084-2.452-23.729-26.705-10.367-58.722 16.345-58.722 16.345Z" fill="url(#m)" stroke="#220E6E" stroke-linejoin="round"/><path d="M182.149 203.648s-5.459 3.707-6.332 10.123c0 0 21.245 1.3 36.991-7.339 0 0 1.251-5.708-1.056-10.315-13.333-4.325-29.603 7.531-29.603 7.531Z" fill="url(#n)" stroke="#220E6E" stroke-linejoin="round"/><path d="M213.151 205.311c.634 2.29-7.123 6.063-17.324 8.438-10.2 2.376-18.991 2.437-19.64.148-.633-2.291 7.124-6.063 17.324-8.439 10.201-2.375 18.991-2.436 19.64-.147Z" fill="url(#o)" stroke="#220E6E" stroke-linejoin="round"/><path d="M209.626 206.115c.524 1.847-5.762 4.905-14.027 6.829-8.265 1.924-15.384 1.981-15.894.117-.524-1.847 5.762-4.906 14.027-6.83 8.265-1.924 15.384-1.981 15.894-.116Z" fill="#95ECFF" stroke="#220E6E" stroke-linejoin="round"/><path d="M190.628 192.451c1.575 6.385-13.611 15.601-33.891 20.584-20.28 4.983-38.004 3.837-39.579-2.548-1.575-6.384 13.611-15.601 33.891-20.584 20.28-4.982 38.004-3.836 39.579 2.548Z" fill="url(#p)" stroke="#220E6E" stroke-linejoin="round"/><path d="M183.625 194.169c1.275 5.165-11.017 12.633-27.447 16.666-16.431 4.032-30.773 3.102-32.033-2.064-1.259-5.166 11.017-12.633 27.447-16.665 16.431-4.033 30.773-3.103 32.033 2.063Z" fill="#95ECFF" stroke="#220E6E" stroke-linejoin="round"/><path d="M171.477 166.939s-6.265 4.258-7.255 11.611c0 0 24.362 1.477 42.418-8.414 0 0 1.427-6.552-1.223-11.84-15.295-4.958-33.942 8.627-33.942 8.627l.002.016Z" fill="url(#q)" stroke="#220E6E" stroke-linejoin="round"/><path d="M206.669 168.965c1.054 3.92-7.602 9.259-19.318 11.899-11.714 2.655-22.076 1.606-23.131-2.314-1.054-3.921 7.602-9.259 19.318-11.899 11.715-2.656 22.076-1.607 23.131 2.314Z" fill="url(#r)" stroke="#220E6E" stroke-linejoin="round"/><path d="M202.624 169.886c.851 3.178-6.154 7.492-15.647 9.636-9.493 2.143-17.87 1.302-18.721-1.875-.851-3.178 6.154-7.493 15.647-9.636 9.493-2.143 17.87-1.303 18.721 1.875Z" fill="#95ECFF" stroke="#220E6E" stroke-linejoin="round"/><path d="M331.663 10.536s11.879 9.306 12.535 61.048c0 0-.915 18.253-7.512 20.14 0 0-15.409 1.903-13.988-22.372 1.06-18.105 8.981-58.817 8.981-58.817l-.016.001Z" fill="url(#s)" stroke="#220E6E" stroke-linejoin="round"/><path d="M338.876 25.466s-7.257 10.443-8.145 25.381c-.745 12.604 3.84 32.47 11.087 34.85 0 0 9.39.253 15.753-1.872 0 0 6.021-25.348-1.427-60.494l-17.284 2.137.016-.002Z" fill="url(#t)" stroke="#220E6E" stroke-linejoin="round"/><path d="M359.865 53.962c.265 16.901-1.131 30.64-3.109 30.659-1.977.034-3.789-13.647-4.054-30.55-.266-16.901 1.13-30.64 3.108-30.658 1.979-.018 3.789 13.647 4.055 30.549Z" fill="url(#u)" stroke="#220E6E" stroke-linejoin="round"/><path d="M357.029 54c.182 11.65-.439 21.094-1.377 21.122-.94.012-1.843-9.41-2.025-21.06-.183-11.652.438-21.095 1.377-21.123.94-.013 1.842 9.409 2.025 21.06Z" fill="#95ECFF" stroke="#220E6E" stroke-linejoin="round"/><path d="m536.825 91.436 2.186-2.018s-41.247-22.622-173.872 9.514c0 0-36.992 17.791-79.583 56.686l-94.955 39.174-3.568 5.093 125.924-43.075 129.762-38.424 94.089-26.964.017.014Z" fill="url(#v)" stroke="#220E6E" stroke-linejoin="round"/><path d="M365.586 104.925c-9.999 3.102-47.821 28.88-74.541 51.073-10.556 8.773-91.699 36.984-91.699 36.984l-.018 2.274 107.803-25.176c54.728-2.948 108.634-11.56 108.634-11.56 98.641-25.744 121.057-67.1 121.057-67.1-19.83-13.37-134.771 2.176-171.236 13.505Z" fill="url(#w)" stroke="#220E6E" stroke-linejoin="round"/><path d="M331.994 11.088s-60.714 53.84-153 107.632l145.231-68.006 7.771-39.61-.002-.016Z" fill="url(#x)" stroke="#220E6E" stroke-linejoin="round"/><path d="M312.886 56.839c-2.607 4.965-38.389 44.596-54.781 50.491-16.406 5.913-77.21 13.879-79.112 11.39-.596-.769-.856-2.414-.914-4.308-.153-4.156.597-9.521.597-9.521 49.767-40.5 110.811-56.507 111.393-57.02.433-.383 14.173 2.002 20.21 5.266 2.127 1.152 3.291 2.416 2.607 3.702Z" fill="url(#y)" stroke="#220E6E" stroke-linejoin="round"/><path d="M310.279 53.137c-5.476 7.782-38.588 43.902-54.165 49.506-15.357 5.533-69.6 12.88-78.053 11.755-.153-4.156.596-9.522.596-9.522 49.768-40.5 110.812-56.507 111.394-57.019.433-.384 14.173 2.002 20.21 5.266l.018.014Z" fill="url(#z)" stroke="#220E6E" stroke-linejoin="round"/><path d="M280.889 202.791c-4.954.297 44.01-17.563 67.825-23.237 23.814-5.674 69.187.47 69.187.47s-77.847 19.233-137.012 22.767Z" fill="url(#A)" stroke="#220E6E" stroke-linejoin="round"/><path d="M266.23 191.798a.422.422 0 0 1-.355-.144l-7.483-8.671-4.473 1.045-6.167-7.682.435-4.279-17.714-23.788c-2.347-13.011.587-26.952.623-27.086a.41.41 0 0 1 .503-.325c.231.041.368.271.326.503-.036.133-2.911 13.841-.633 26.664l17.781 23.798-.437 4.263 5.611 6.99 4.442-1.041 7.829 9.059a.45.45 0 0 1-.038.604.477.477 0 0 1-.233.104l-.017-.014Z" fill="url(#B)"/><path d="M266.127 190.753a.424.424 0 0 1-.356-.143l-7.482-8.671-4.473 1.044-6.167-7.681.435-4.28-17.714-23.788c-2.347-13.011.689-25.923.726-26.041a.413.413 0 0 1 .505-.309.414.414 0 0 1 .31.504c-.036.134-3.015 12.797-.738 25.604l17.781 23.798-.437 4.263 5.611 6.99 4.441-1.041 7.83 9.058a.453.453 0 0 1-.038.605.48.48 0 0 1-.233.104l-.001-.016Z" fill="#220E6E"/><path d="M459.775 149.737s-.129.013-.18-.014a.432.432 0 0 1-.265-.542l1.915-5.4 3.868-1.423c1.685-23.084-5.985-49.995-6.624-52.188l-6.26-4.361-4.697-4.81c-19.145-12.528-44.976-18.826-45.225-18.882a.414.414 0 0 1-.31-.505.408.408 0 0 1 .505-.31c.265.055 26.215 6.406 45.567 19.06l4.715 4.824 6.449 4.472.047.141c.077.285 8.499 28.728 6.678 52.898l-.021.278-3.993 1.467-1.79 5.03c-.048.168-.201.264-.361.28l-.018-.015Z" fill="url(#C)"/><path d="M459.303 149.606s-.128.013-.18-.015a.433.433 0 0 1-.265-.542l2.271-6.392 3.868-1.423c1.685-23.084-5.984-49.996-6.624-52.188l-6.259-4.362-4.698-4.809c-19.143-12.512-44.046-17.799-44.293-17.84-.232-.041-.368-.271-.326-.502.042-.232.272-.368.503-.326.249.056 25.3 5.36 44.652 18.015l4.715 4.823 6.449 4.472.046.142c.077.284 8.5 28.728 6.678 52.897l-.021.278-3.993 1.467-2.13 6.006a.43.43 0 0 1-.362.279l-.031.02Z" fill="#220E6E"/><path d="M306.767 121.425c-1.462.145-2.726.011-3.747-.472-5.954-2.752-.934-14.644 5.412-29.686 2.116-5.014 4.31-10.215 6.228-15.42 7.394-20.016 14.203-48.721 14.272-49.004a.414.414 0 0 1 .505-.31.415.415 0 0 1 .31.505c-.07.283-6.889 29.038-14.295 49.103-1.933 5.223-4.127 10.424-6.257 15.456-5.942 14.044-11.066 26.19-5.845 28.593.867.401 1.966.519 3.252.391 10.752-1.067 34.142-19.196 39.056-28.237l-1.737-5.232a.424.424 0 0 1 .272-.53.415.415 0 0 1 .53.271l1.852 5.578-.082.154c-4.371 8.29-28.009 27.678-39.74 28.858l.014-.018Z" fill="url(#D)"/><path d="M306.671 120.461c-1.462.145-2.725.011-3.747-.472-5.954-2.753-.934-14.645 5.412-29.687 2.116-5.014 4.31-10.215 6.228-15.42 7.395-20.016 14.203-48.72 14.272-49.004a.414.414 0 0 1 .505-.31c.233.059.37.288.31.505-.069.283-6.889 29.038-14.295 49.104-1.932 5.223-4.127 10.423-6.257 15.455-5.942 14.045-11.066 26.19-5.845 28.594.868.4 1.967.518 3.252.391 10.753-1.067 34.143-19.197 39.056-28.238l-1.737-5.232a.424.424 0 0 1 .272-.53.415.415 0 0 1 .53.272l1.852 5.578-.082.154c-4.371 8.29-28.009 27.677-39.74 28.857l.014-.017Z" fill="#220E6E"/><path d="M416.104 174.181c-11.539 1.145-27.162 1.381-30.067-.749-.543-.401-.651-.829-.631-1.123.17-4.171 33.611-11.304 40.305-12.699.254-.058.449.101.503.323.055.222-.102.449-.323.503-19.148 3.962-39.537 9.491-39.638 11.903-.004.13.091.267.284.41 3.97 2.884 34.082.967 40.629-1.257.321-1.022 1.771-6.035 1.866-12.439a.432.432 0 0 1 .429-.416c.228.01.426.201.416.43-.103 7.297-1.957 12.821-1.967 12.887l-.063.185-.188.067c-2.035.754-6.381 1.445-11.556 1.958l.001.017Z" fill="url(#E)"/><path d="M416.009 173.233c-11.54 1.145-27.162 1.381-30.068-.749-.543-.401-.65-.828-.631-1.122.171-4.172 33.611-11.305 40.306-12.7.254-.058.448.102.503.324.054.221-.102.448-.324.502-19.148 3.962-39.536 9.491-39.638 11.903-.003.13.092.267.284.41 3.971 2.885 34.083.967 40.63-1.257.32-1.022 1.771-6.034 1.865-12.439.01-.228.186-.424.43-.416.228.01.426.202.416.43-.105 7.281-1.958 12.821-1.967 12.887l-.063.185-.188.067c-2.035.754-6.381 1.445-11.557 1.959l.002.016ZM185.892 131.312c-19.199 1.321-30.396-.295-30.512-.316l-.345-.047-.003-.356c-.55-23.041 9.191-43.127 9.284-43.331a.421.421 0 0 1 .566-.186.42.42 0 0 1 .186.565c-.093.204-9.648 19.882-9.213 42.578 2.038.252 12.77 1.443 29.986.254a.417.417 0 0 1 .445.394.414.414 0 0 1-.378.443l-.016.002Z" fill="#220E6E"/><path d="M208.719 52.877c-9.161.91-12.272-1.655-12.448-1.8a.428.428 0 0 1-.043-.596c.145-.176.419-.187.594-.059.071.058 6.61 5.269 28.74-2.495 22.383-7.837 43.784-34.728 43.999-35.01a.402.402 0 0 1 .595-.058c.176.145.22.416.059.595-.217.264-21.761 27.349-44.379 35.274-7.23 2.535-12.843 3.709-17.118 4.133l.001.016Z" fill="url(#F)"/><path d="M208.65 52.186c-9.161.91-12.272-1.655-12.448-1.8a.428.428 0 0 1-.043-.596c.145-.176.419-.187.594-.059.071.058 6.61 5.268 28.74-2.495 22.383-7.837 43.784-34.728 43.999-35.01.145-.176.417-.219.595-.058.177.145.22.416.059.595-.217.264-21.761 27.349-44.379 35.274-7.23 2.535-12.843 3.709-17.118 4.133l.001.016Z" fill="#220E6E"/><path d="M139.911 139.672s-1.809 3.036-1.953 6.492c0 0 11.531-.414 19.58-5.823 0 0 .597-4.295-.883-6.615-7.414-1.601-16.76 5.948-16.76 5.948l.016-.002Z" fill="url(#G)" stroke="#220E6E" stroke-linejoin="round"/><path d="M157.674 139.76c.568 1.469-3.342 4.097-8.732 5.882-5.392 1.768-10.22 2.02-10.787.551-.568-1.469 3.342-4.097 8.732-5.882 5.392-1.769 10.219-2.02 10.787-.551Z" fill="url(#H)" stroke="#220E6E" stroke-linejoin="round"/><path d="M155.82 140.382c.459 1.188-2.705 3.32-7.075 4.76-4.369 1.44-8.277 1.633-8.736.445-.459-1.188 2.706-3.32 7.075-4.76s8.277-1.633 8.736-.445Z" fill="#fff" stroke="#220E6E" stroke-linejoin="round"/><path d="M234.113 206.395s-1.712 1.89-2.299 4.318c0 0 8.216 1.343 14.687-1.327 0 0 1.037-2.96.317-4.82-5.022-2.196-12.705 1.829-12.705 1.829Z" fill="url(#I)" stroke="#220E6E" stroke-linejoin="round"/><path d="M246.673 208.995c.192 1.117-2.956 2.436-7.014 2.92-4.058.483-7.518-.033-7.71-1.15-.192-1.117 2.956-2.436 7.014-2.92 4.074-.486 7.518.033 7.71 1.15Z" fill="url(#J)" stroke="#220E6E" stroke-linejoin="round"/><path d="M245.276 209.15c.156.91-2.386 1.957-5.689 2.366-3.288.391-6.089-.029-6.244-.938-.156-.91 2.386-1.958 5.689-2.367 3.288-.391 6.089.029 6.244.939Z" fill="#fff" stroke="#220E6E" stroke-linejoin="round"/><path style="mix-blend-mode:screen" opacity=".5" d="M365.589 104.924s-10.28 43.771-20.824 63.937l20.656-4.631s81.8-34.833 115.44-77.74c0 0-74.534 5.027-115.272 18.434Z" fill="url(#K)"/><path style="mix-blend-mode:screen" opacity=".5" d="M495.323 86.368s-32.057 33.662-79.081 58.146l4.581.86s70.578-25.101 105.127-57.533c0 0-11.072-3.137-30.643-1.471l.016-.002Z" fill="url(#L)"/><path style="mix-blend-mode:screen" d="M381.993 64.328s71.804-3.913 109.033 12.08c0 0 39.658-.576 51.688 2.563 0 0-71.998-29.438-160.721-14.643Z" fill="url(#M)"/><path d="M286.618 125.616c-19.736 1.959-36.932-.733-37.163-.775a.438.438 0 0 1-.356-.484c.042-.232.252-.399.484-.357.329.049 33.516 5.244 60.562-4.176.219-.087.458.036.545.254a.439.439 0 0 1-.255.545c-7.733 2.699-15.974 4.215-23.817 4.993Z" fill="url(#N)"/><path d="M285.774 124.937c-19.479 1.933-36.183-.872-36.414-.914a.415.415 0 0 1-.34-.486.414.414 0 0 1 .485-.34c.314.05 32.4 5.435 59.43-3.983.218-.087.458.036.544.254a.437.437 0 0 1-.254.545c-7.687 2.678-15.783 4.179-23.449 4.94l-.002-.016Z" fill="#220E6E"/><path d="M448.875 126.587c1.267 5.734-12.793 13.702-31.376 17.803-18.598 4.101-34.7 2.778-35.967-2.955-1.267-5.734 12.793-13.702 31.376-17.803 18.598-4.101 34.7-2.778 35.967 2.955Z" fill="url(#O)" stroke="#220E6E" stroke-linejoin="round"/><path d="M443.284 126.201c1.062 4.812-10.725 11.484-26.321 14.931-15.596 3.447-29.096 2.336-30.158-2.477-1.062-4.812 10.725-11.484 26.321-14.931 15.596-3.446 29.096-2.335 30.158 2.477Z" fill="#fff" stroke="#220E6E" stroke-linejoin="round"/><path d="m284.55 81.058 1.592 5.084 14.931-15.212-2.489-4.152-14.034 14.28ZM282.667 82.852l.313 6.266-2.737 2.512-.593-5.98 3.017-2.798ZM178.043 84.617l3.323 1.098 20.765-12.853-.184-1.849-23.904 13.604ZM204.166 70.81l1.694-2.555 11.692-6.483-2.145 3.41-11.241 5.627Z" fill="#06FFE0" stroke="#220E6E" stroke-linejoin="round"/><path d="m416.241 144.498.721-3.366s10.282-2.205 17.443-5.935l1.601 3.217s-8.252 4.179-19.749 6.083l-.016.001ZM437.082 134.201l2.965 2.4 4.165-2.685-3.907-2.404-3.223 2.689Z" fill="#FFC7FE" stroke="#220E6E" stroke-linejoin="round"/></g><defs><linearGradient id="b" x1="-35.024" y1="230.2" x2="255.846" y2="201.333" gradientUnits="userSpaceOnUse"><stop stop-color="#55D6FF" stop-opacity="0"/><stop offset=".245" stop-color="#55D6FF" stop-opacity=".08"/><stop offset=".5" stop-color="#55D6FF" stop-opacity=".28"/><stop offset="1" stop-color="#55D6FF"/></linearGradient><linearGradient id="c" x1="6.063" y1="140.475" x2="273.918" y2="113.892" gradientUnits="userSpaceOnUse"><stop stop-color="#55D6FF" stop-opacity="0"/><stop offset=".245" stop-color="#55D6FF" stop-opacity=".08"/><stop offset=".5" stop-color="#55D6FF" stop-opacity=".28"/><stop offset="1" stop-color="#55D6FF"/></linearGradient><linearGradient id="d" x1="225.592" y1="185.361" x2="452.697" y2="161.942" gradientUnits="userSpaceOnUse"><stop stop-color="#2C71BB"/><stop offset="1" stop-color="#82B0DB"/></linearGradient><linearGradient id="e" x1="329.548" y1="132.702" x2="322.106" y2="60.535" gradientUnits="userSpaceOnUse"><stop stop-color="#30409B"/><stop offset="1" stop-color="#85FFFA"/></linearGradient><linearGradient id="f" x1="126.027" y1="139.028" x2="553.15" y2="94.982" gradientUnits="userSpaceOnUse"><stop stop-color="#2868E4"/><stop offset="1" stop-color="#5CC3D1"/></linearGradient><linearGradient id="g" x1="226.087" y1="190.149" x2="475.733" y2="164.405" gradientUnits="userSpaceOnUse"><stop stop-color="#3036AF"/><stop offset="1" stop-color="#3C70CC"/></linearGradient><linearGradient id="h" x1="347.261" y1="188.58" x2="332.59" y2="46.318" gradientUnits="userSpaceOnUse"><stop stop-color="#4330AF"/><stop offset="1" stop-color="#3C62CC"/></linearGradient><linearGradient id="i" x1="123.104" y1="88.963" x2="341.132" y2="66.48" gradientUnits="userSpaceOnUse"><stop stop-color="#2868E4"/><stop offset="1" stop-color="#5CC3D1"/></linearGradient><linearGradient id="j" x1="167.657" y1="61.556" x2="296.134" y2="48.308" gradientUnits="userSpaceOnUse"><stop stop-color="#59AEEB"/><stop offset="1" stop-color="#69FFF9"/></linearGradient><linearGradient id="k" x1="174.572" y1="50.988" x2="293.763" y2="38.697" gradientUnits="userSpaceOnUse"><stop stop-color="#2868E4"/><stop offset="1" stop-color="#5CC3D1"/></linearGradient><linearGradient id="l" x1="272.467" y1="20.971" x2="306.028" y2="17.51" gradientUnits="userSpaceOnUse"><stop stop-color="#30409B"/><stop offset="1" stop-color="#559DCC"/></linearGradient><linearGradient id="m" x1="155.309" y1="208.521" x2="151.424" y2="170.847" gradientUnits="userSpaceOnUse"><stop stop-color="#5638CF"/><stop offset="1" stop-color="#341D97"/></linearGradient><linearGradient id="n" x1="194.994" y1="212.644" x2="193.306" y2="196.273" gradientUnits="userSpaceOnUse"><stop stop-color="#5638CF"/><stop offset="1" stop-color="#341D97"/></linearGradient><linearGradient id="o" x1="199.26" y1="221.732" x2="197.195" y2="213.317" gradientUnits="userSpaceOnUse"><stop stop-color="#3C23CC"/><stop offset="1" stop-color="#6843CE"/></linearGradient><linearGradient id="p" x1="157.789" y1="210.329" x2="152.126" y2="187.251" gradientUnits="userSpaceOnUse"><stop stop-color="#3C23CC"/><stop offset="1" stop-color="#6843CE"/></linearGradient><linearGradient id="q" x1="186.197" y1="177.262" x2="184.261" y2="158.482" gradientUnits="userSpaceOnUse"><stop stop-color="#5638CF"/><stop offset="1" stop-color="#341D97"/></linearGradient><linearGradient id="r" x1="188.747" y1="180.768" x2="185.233" y2="166.448" gradientUnits="userSpaceOnUse"><stop stop-color="#3C23CC"/><stop offset="1" stop-color="#6843CE"/></linearGradient><linearGradient id="s" x1="320.392" y1="52.49" x2="343.15" y2="50.232" gradientUnits="userSpaceOnUse"><stop stop-color="#3A16C1"/><stop offset="1" stop-color="#4927B8"/></linearGradient><linearGradient id="t" x1="330.665" y1="56.551" x2="360.205" y2="53.619" gradientUnits="userSpaceOnUse"><stop stop-color="#391681"/><stop offset="1" stop-color="#33278D"/></linearGradient><linearGradient id="u" x1="351.911" y1="54.443" x2="360.654" y2="53.575" gradientUnits="userSpaceOnUse"><stop stop-color="#3C23CC"/><stop offset="1" stop-color="#6843CE"/></linearGradient><linearGradient id="v" x1="366.735" y1="182.067" x2="357.881" y2="92.851" gradientUnits="userSpaceOnUse"><stop stop-color="#23247C"/><stop offset="1" stop-color="#2767BF"/></linearGradient><linearGradient id="w" x1="371.525" y1="178.183" x2="363.591" y2="98.241" gradientUnits="userSpaceOnUse"><stop stop-color="#2C2EAF"/><stop offset="1" stop-color="#3C8FCC"/></linearGradient><linearGradient id="x" x1="174.435" y1="72.948" x2="336.537" y2="56.861" gradientUnits="userSpaceOnUse"><stop stop-color="#2C8AE4"/><stop offset="1" stop-color="#46A4D1"/></linearGradient><linearGradient id="y" x1="248.32" y1="113.073" x2="242.316" y2="52.578" gradientUnits="userSpaceOnUse"><stop stop-color="#3093FB"/><stop offset="1" stop-color="#00D8F4"/></linearGradient><linearGradient id="z" x1="246.618" y1="108.357" x2="241.095" y2="52.7" gradientUnits="userSpaceOnUse"><stop stop-color="#5BAAE2"/><stop offset="1" stop-color="#55FFF8"/></linearGradient><linearGradient id="A" x1="349.707" y1="196.27" x2="347.992" y2="178.993" gradientUnits="userSpaceOnUse"><stop stop-color="#7DFFFA"/><stop offset="1" stop-color="#30A7FB"/></linearGradient><linearGradient id="B" x1="231.282" y1="158.066" x2="263.008" y2="154.918" gradientUnits="userSpaceOnUse"><stop stop-color="#2C8AE4"/><stop offset="1" stop-color="#46A4D1"/></linearGradient><linearGradient id="C" x1="406.564" y1="107.95" x2="463.507" y2="102.299" gradientUnits="userSpaceOnUse"><stop stop-color="#2C8AE4"/><stop offset="1" stop-color="#46A4D1"/></linearGradient><linearGradient id="D" x1="296.347" y1="76.122" x2="344.499" y2="71.343" gradientUnits="userSpaceOnUse"><stop stop-color="#2C8AE4"/><stop offset="1" stop-color="#46A4D1"/></linearGradient><linearGradient id="E" x1="385.191" y1="170.14" x2="430.53" y2="165.64" gradientUnits="userSpaceOnUse"><stop stop-color="#2C8AE4"/><stop offset="1" stop-color="#46A4D1"/></linearGradient><linearGradient id="F" x1="194.783" y1="37.235" x2="271.929" y2="29.579" gradientUnits="userSpaceOnUse"><stop stop-color="#2C8AE4"/><stop offset="1" stop-color="#46E0D1"/></linearGradient><linearGradient id="G" x1="148.43" y1="144.543" x2="146.478" y2="134.853" gradientUnits="userSpaceOnUse"><stop stop-color="#5638CF"/><stop offset="1" stop-color="#341D97"/></linearGradient><linearGradient id="H" x1="150.364" y1="142.612" x2="148.479" y2="137.227" gradientUnits="userSpaceOnUse"><stop stop-color="#3C23CC"/><stop offset="1" stop-color="#6843CE"/></linearGradient><linearGradient id="I" x1="239.45" y1="211.018" x2="239.449" y2="203.879" gradientUnits="userSpaceOnUse"><stop stop-color="#5638CF"/><stop offset="1" stop-color="#341D97"/></linearGradient><linearGradient id="J" x1="238.703" y1="210.073" x2="238.135" y2="205.989" gradientUnits="userSpaceOnUse"><stop stop-color="#3C23CC"/><stop offset="1" stop-color="#6843CE"/></linearGradient><linearGradient id="K" x1="416.189" y1="161.773" x2="409.395" y2="93.322" gradientUnits="userSpaceOnUse"><stop/><stop offset=".15" stop-color="#030306"/><stop offset=".35" stop-color="#0C0F17"/><stop offset=".59" stop-color="#1B2135"/><stop offset=".84" stop-color="#2F3A5D"/><stop offset="1" stop-color="#3E4C79"/></linearGradient><linearGradient id="L" x1="473.475" y1="140.149" x2="468.403" y2="89.04" gradientUnits="userSpaceOnUse"><stop/><stop offset=".15" stop-color="#030306"/><stop offset=".35" stop-color="#0C0F17"/><stop offset=".59" stop-color="#1B2135"/><stop offset=".84" stop-color="#2F3A5D"/><stop offset="1" stop-color="#3E4C79"/></linearGradient><linearGradient id="M" x1="463.849" y1="86.798" x2="460.777" y2="55.843" gradientUnits="userSpaceOnUse"><stop/><stop offset=".15" stop-color="#030306"/><stop offset=".35" stop-color="#0C0F17"/><stop offset=".59" stop-color="#1B2135"/><stop offset=".84" stop-color="#2F3A5D"/><stop offset="1" stop-color="#3E4C79"/></linearGradient><linearGradient id="N" x1="249.328" y1="126.671" x2="310.755" y2="120.575" gradientUnits="userSpaceOnUse"><stop stop-color="#2C8AE4"/><stop offset="1" stop-color="#46A4D1"/></linearGradient><linearGradient id="O" x1="381.098" y1="137.388" x2="449.291" y2="130.62" gradientUnits="userSpaceOnUse"><stop stop-color="#D166FB"/><stop offset="1" stop-color="#FF98F4"/></linearGradient><clipPath id="a"><path fill="#fff" d="M0 0h556v294H0z"/></clipPath></defs></svg>