<svg width="213" height="45" viewBox="0 0 213 45" fill="none" xmlns="http://www.w3.org/2000/svg">
<g clip-path="url(#clip0_2045_522)">
<path d="M67.1139 23.9434V23.416C67.1139 22.0907 66.6609 21.0764 65.7554 20.3731C64.877 19.6429 63.7243 19.2777 62.2971 19.2777C61.1994 19.2777 60.3347 19.4671 59.7036 19.8457C59.0997 20.1973 58.5234 20.7383 57.9745 21.4686C57.8098 21.685 57.6314 21.8337 57.4392 21.9148C57.2473 21.996 56.9865 22.0366 56.657 22.0366H55.4221C55.1201 22.0366 54.8457 21.9284 54.5987 21.712C54.379 21.4956 54.2832 21.2387 54.3104 20.9412C54.3929 20.1297 54.7907 19.3318 55.5043 18.5474C56.2454 17.736 57.2198 17.0733 58.4273 16.5594C59.635 16.0455 60.9249 15.7886 62.2971 15.7886C64.8496 15.7886 66.9078 16.4918 68.4722 17.8983C70.0641 19.3048 70.8602 21.2792 70.8602 23.8217V36.1959C70.8602 36.4935 70.7502 36.7506 70.5308 36.9669C70.3111 37.1831 70.0505 37.2914 69.7486 37.2914H68.2253C67.9234 37.2914 67.6628 37.1831 67.4431 36.9669C67.2236 36.7506 67.1139 36.4935 67.1139 36.1959V34.5325C66.6748 35.5063 65.7415 36.2772 64.3143 36.8452C62.8871 37.4133 61.4599 37.6971 60.0328 37.6971C58.6331 37.6971 57.3845 37.4536 56.2865 36.9669C55.1887 36.4528 54.3379 35.7632 53.7341 34.8976C53.1577 34.0321 52.8696 33.0585 52.8696 31.9765C52.8696 29.9479 53.6382 28.3657 55.1751 27.2296C56.712 26.0666 58.7567 25.2823 61.3091 24.8766L67.1139 23.9434ZM67.1139 27.1893L62.256 27.9599C60.4719 28.2304 59.0861 28.6768 58.0981 29.2989C57.1101 29.8939 56.6159 30.6512 56.6159 31.571C56.6159 32.247 56.9315 32.8557 57.5628 33.3967C58.1939 33.9375 59.1547 34.208 60.4447 34.208C62.4207 34.208 64.0262 33.6536 65.2612 32.5445C66.4962 31.4357 67.1139 29.9885 67.1139 28.2034V27.1893Z" fill="white"/>
<path d="M80.6127 36.1958C80.6127 36.4933 80.503 36.7505 80.2833 36.9667C80.0639 37.183 79.803 37.2913 79.5011 37.2913H77.9781C77.6762 37.2913 77.4153 37.183 77.1959 36.9667C76.9762 36.7505 76.8665 36.4933 76.8665 36.1958V9.58102C76.8665 9.28351 76.9762 9.02655 77.1959 8.81016C77.4153 8.59378 77.6762 8.4856 77.9781 8.4856H79.5011C79.803 8.4856 80.0639 8.59378 80.2833 8.81016C80.503 9.02655 80.6127 9.28351 80.6127 9.58102V36.1958Z" fill="white"/>
<path d="M95.442 34.208C98.1867 34.208 100.039 33.1532 101 31.0433C101.192 30.6378 101.384 30.3537 101.576 30.1914C101.768 30.0291 102.029 29.9479 102.358 29.9479H103.593C103.895 29.9479 104.156 30.0561 104.376 30.2727C104.595 30.4619 104.705 30.6918 104.705 30.9623C104.705 31.8819 104.335 32.869 103.593 33.9241C102.852 34.9789 101.782 35.8714 100.382 36.6017C98.9825 37.332 97.3358 37.6971 95.442 37.6971C93.4935 37.6971 91.8055 37.2914 90.3785 36.4801C88.9514 35.6685 87.8534 34.5597 87.085 33.1532C86.3165 31.7196 85.8912 30.1238 85.8087 28.3657C85.7812 28.0412 85.7676 27.4191 85.7676 26.4993C85.7676 25.8503 85.7812 25.3905 85.8087 25.12C86.0559 22.3611 87.0025 20.1162 88.6494 18.3852C90.2961 16.6541 92.5604 15.7886 95.442 15.7886C97.3358 15.7886 98.9689 16.1537 100.341 16.884C101.741 17.5872 102.797 18.4663 103.511 19.5212C104.252 20.549 104.65 21.5227 104.705 22.4423C104.732 22.7398 104.623 22.9968 104.376 23.2131C104.156 23.4295 103.895 23.5377 103.593 23.5377H102.358C102.029 23.5377 101.768 23.4566 101.576 23.2943C101.384 23.132 101.192 22.848 101 22.4423C100.039 20.3326 98.1867 19.2777 95.442 19.2777C93.9326 19.2777 92.6152 19.7781 91.4899 20.7789C90.3647 21.7796 89.7197 23.2943 89.555 25.3229C89.5277 25.6204 89.5139 26.1072 89.5139 26.7835C89.5139 27.4055 89.5277 27.8653 89.555 28.1628C89.7472 30.1914 90.3922 31.706 91.4899 32.7068C92.6152 33.7076 93.9326 34.208 95.442 34.208Z" fill="white"/>
<path d="M128.652 36.1958C128.652 36.4933 128.542 36.7505 128.323 36.9667C128.103 37.183 127.842 37.2913 127.54 37.2913H126.017C125.715 37.2913 125.454 37.183 125.235 36.9667C125.015 36.7505 124.905 36.4933 124.905 36.1958V25.485C124.905 23.4565 124.398 21.9148 123.382 20.8599C122.367 19.805 120.953 19.2776 119.142 19.2776C117.358 19.2776 115.945 19.805 114.902 20.8599C113.886 21.9148 113.379 23.4565 113.379 25.485V36.1958C113.379 36.4933 113.269 36.7505 113.049 36.9667C112.83 37.183 112.569 37.2913 112.267 37.2913H110.744C110.442 37.2913 110.181 37.183 109.961 36.9667C109.742 36.7505 109.632 36.4933 109.632 36.1958V9.58102C109.632 9.28351 109.742 9.02655 109.961 8.81016C110.181 8.59378 110.442 8.4856 110.744 8.4856H112.267C112.569 8.4856 112.83 8.59378 113.049 8.81016C113.269 9.02655 113.379 9.28351 113.379 9.58102V18.5473C113.982 17.7629 114.806 17.1138 115.849 16.5999C116.919 16.0589 118.223 15.7885 119.76 15.7885C121.489 15.7885 123.026 16.1536 124.371 16.8839C125.715 17.6142 126.758 18.669 127.499 20.0485C128.268 21.4008 128.652 23.0102 128.652 24.8764V36.1958Z" fill="white"/>
<path d="M143.078 15.7886C146.015 15.7886 148.334 16.7082 150.035 18.5474C151.737 20.3867 152.588 22.8886 152.588 26.0532V27.1486C152.588 27.4461 152.478 27.703 152.258 27.9195C152.039 28.1358 151.778 28.2441 151.476 28.2441H137.314V28.4873C137.369 30.2727 137.918 31.679 138.961 32.7068C140.032 33.7076 141.404 34.208 143.078 34.208C144.45 34.208 145.507 34.0321 146.248 33.6806C147.016 33.3291 147.702 32.8287 148.306 32.1794C148.526 31.9631 148.718 31.8142 148.883 31.7332C149.075 31.652 149.322 31.6113 149.624 31.6113H150.859C151.188 31.6113 151.463 31.7196 151.682 31.9361C151.902 32.1524 151.998 32.4093 151.97 32.7068C151.86 33.4371 151.449 34.1946 150.735 34.9789C150.049 35.7362 149.047 36.3855 147.73 36.9262C146.44 37.4403 144.889 37.6971 143.078 37.6971C141.321 37.6971 139.757 37.305 138.385 36.5205C137.012 35.7092 135.915 34.6001 135.091 33.1938C134.295 31.7872 133.815 30.205 133.65 28.4469C133.596 27.6354 133.568 27.0134 133.568 26.5806C133.568 26.1478 133.596 25.5257 133.65 24.7143C133.815 23.0373 134.295 21.5227 135.091 20.1703C135.915 18.8179 136.999 17.7495 138.344 16.9652C139.716 16.1808 141.294 15.7886 143.078 15.7886ZM148.883 24.836V24.7143C148.883 23.0644 148.347 21.7526 147.277 20.7789C146.234 19.7781 144.834 19.2777 143.078 19.2777C141.486 19.2777 140.128 19.7781 139.002 20.7789C137.904 21.7796 137.342 23.0914 137.314 24.7143V24.836H148.883Z" fill="white"/>
<path d="M161.301 18.5474C161.959 17.709 162.7 17.0463 163.524 16.5594C164.347 16.0455 165.445 15.7886 166.817 15.7886C170.028 15.7886 172.279 16.9652 173.569 19.3183C174.365 18.1823 175.27 17.3168 176.286 16.7217C177.301 16.0996 178.632 15.7886 180.279 15.7886C182.969 15.7886 184.959 16.5865 186.249 18.1823C187.566 19.7781 188.225 22.0366 188.225 24.9577V36.1959C188.225 36.4935 188.115 36.7506 187.895 36.9669C187.676 37.1831 187.415 37.2914 187.113 37.2914H185.59C185.288 37.2914 185.027 37.1831 184.808 36.9669C184.588 36.7506 184.478 36.4935 184.478 36.1959V25.3634C184.478 21.3063 182.859 19.2777 179.62 19.2777C178.138 19.2777 176.958 19.7646 176.08 20.7383C175.202 21.712 174.763 23.1591 174.763 25.0794V36.1959C174.763 36.4935 174.653 36.7506 174.433 36.9669C174.214 37.1831 173.953 37.2914 173.651 37.2914H172.128C171.826 37.2914 171.565 37.1831 171.346 36.9669C171.126 36.7506 171.016 36.4935 171.016 36.1959V25.3634C171.016 21.3063 169.397 19.2777 166.158 19.2777C164.676 19.2777 163.496 19.7646 162.618 20.7383C161.74 21.712 161.301 23.1591 161.301 25.0794V36.1959C161.301 36.4935 161.191 36.7506 160.971 36.9669C160.752 37.1831 160.491 37.2914 160.189 37.2914H158.666C158.364 37.2914 158.103 37.1831 157.884 36.9669C157.664 36.7506 157.554 36.4935 157.554 36.1959V17.2897C157.554 16.9922 157.664 16.7352 157.884 16.5189C158.103 16.3025 158.364 16.1943 158.666 16.1943H160.189C160.491 16.1943 160.752 16.3025 160.971 16.5189C161.191 16.7352 161.301 16.9922 161.301 17.2897V18.5474Z" fill="white"/>
<path d="M199.755 44.0262C199.508 44.6755 199.11 45 198.561 45H196.873C196.598 45 196.365 44.9054 196.173 44.7162C195.981 44.5266 195.885 44.2968 195.885 44.0262C195.885 43.9182 195.898 43.8234 195.926 43.7424L199.878 35.2628L191.727 17.452C191.699 17.3709 191.686 17.2762 191.686 17.1681C191.686 16.8976 191.782 16.6677 191.974 16.4783C192.166 16.289 192.399 16.1943 192.674 16.1943H194.362C194.91 16.1943 195.308 16.5189 195.555 17.1681L201.895 30.9624L208.318 17.1681C208.565 16.5189 208.963 16.1943 209.511 16.1943H211.199C211.474 16.1943 211.707 16.289 211.899 16.4783C212.091 16.6677 212.187 16.8976 212.187 17.1681C212.187 17.2762 212.174 17.3709 212.146 17.452L199.755 44.0262Z" fill="white"/>
<path d="M37.3045 23.8697L23.481 0.384387C23.4141 0.268421 23.3171 0.171821 23.2 0.104336C23.0828 0.0368509 22.9496 0.000866965 22.8138 1.5471e-05C22.6779 -0.000836023 22.5442 0.0334749 22.4262 0.099486C22.3082 0.165497 22.2101 0.260874 22.1416 0.375992L18.0016 7.4132C17.8661 7.64355 17.7947 7.90485 17.7947 8.17084C17.7947 8.43683 17.8661 8.69814 18.0016 8.92849L27.0154 24.2496C27.1511 24.4802 27.3464 24.6716 27.5815 24.8046C27.8167 24.9376 28.0834 25.0075 28.3547 25.0072H36.6349C36.7703 25.0068 36.9034 24.9715 37.0206 24.9049C37.138 24.8383 37.2354 24.7426 37.3033 24.6274C37.3711 24.5123 37.4068 24.3817 37.4071 24.2487C37.4071 24.1158 37.3719 23.9851 37.3045 23.8697Z" fill="white"/>
<path d="M1.06948 36.1439L14.893 12.6586C14.9608 12.5436 15.0583 12.448 15.1756 12.3816C15.293 12.3152 15.4261 12.2803 15.5616 12.2803C15.697 12.2803 15.8302 12.3152 15.9475 12.3816C16.0649 12.448 16.1623 12.5436 16.2302 12.6586L20.3723 19.6895C20.5079 19.9202 20.5792 20.1819 20.5792 20.4482C20.5792 20.7145 20.5079 20.9762 20.3723 21.2069L11.3584 36.5281C11.2233 36.7585 11.0284 36.9501 10.7936 37.083C10.5589 37.216 10.2924 37.2859 10.0213 37.2856H1.73916C1.60272 37.2864 1.46855 37.2514 1.35027 37.1848C1.23199 37.118 1.13384 37.0218 1.0658 36.9058C0.997759 36.7899 0.96225 36.6582 0.962899 36.5245C0.963549 36.3905 1.00032 36.2594 1.06948 36.1439Z" fill="white"/>
<path d="M16.2282 37.2806H43.8751C44.0108 37.2806 44.1439 37.2454 44.2613 37.1788C44.3788 37.1122 44.4761 37.0163 44.5437 36.9011C44.6113 36.7859 44.647 36.655 44.6468 36.5221C44.6465 36.3889 44.6108 36.2582 44.5427 36.1433L40.4069 29.1081C40.2712 28.8775 40.0759 28.6862 39.8408 28.5532C39.6056 28.42 39.3389 28.3503 39.0676 28.3506H21.04C20.7685 28.3503 20.5019 28.42 20.2667 28.5532C20.0316 28.6862 19.8363 28.8775 19.7006 29.1081L15.5607 36.1433C15.4926 36.2582 15.4567 36.3889 15.4565 36.5221C15.4564 36.655 15.4919 36.7859 15.5595 36.9011C15.6272 37.0163 15.7246 37.1122 15.842 37.1788C15.9594 37.2454 16.0925 37.2806 16.2282 37.2806Z" fill="white"/>
</g>
<defs>
<clipPath id="clip0_2045_522">
<rect width="211.224" height="45" fill="white" transform="translate(0.962891)"/>
</clipPath>
</defs>
</svg>
