<svg width="244" height="52" viewBox="0 0 244 52" fill="none" xmlns="http://www.w3.org/2000/svg">
<g clip-path="url(#clip0_2045_537)">
<path d="M216.545 18.0178C220.168 18.0178 223.508 20.6782 223.508 24.4693C223.508 28.5264 220.585 31.3863 216.545 31.3863C212.503 31.3863 209.581 28.5264 209.581 24.4693C209.581 20.6782 212.921 18.0178 216.545 18.0178ZM91.7858 18.0178C95.4095 18.0178 98.7492 20.6782 98.7492 24.4693C98.7492 28.5264 95.8273 31.3863 91.7858 31.3863C87.7452 31.3863 84.8226 28.5264 84.8226 24.4693C84.8226 20.6782 88.1621 18.0178 91.7858 18.0178ZM111.291 18.1009C112.343 18.1009 113.311 18.3337 114.28 18.7327V22.6403C113.611 21.7424 112.526 21.2602 111.407 21.2602C109.404 21.2602 108.051 22.7899 108.051 24.7353C108.051 26.714 109.42 28.1439 111.458 28.1439C112.526 28.1439 113.595 27.6285 114.28 26.8138V30.7212C113.195 31.0537 112.409 31.3032 111.39 31.3032C109.637 31.3032 107.967 30.6381 106.665 29.4575C105.279 28.2104 104.644 26.581 104.644 24.7186C104.644 23.0061 105.296 21.3599 106.498 20.1295C107.733 18.8658 109.521 18.1009 111.291 18.1009ZM233.31 18.4335L239.305 26.0988H239.339V18.4335H242.611V30.9706H239.339L233.343 23.2887H233.31V30.9706H230.037V18.4335H233.31ZM193.4 18.4335L195.954 25.1344L198.66 18.4335H201.916L203.82 30.9706H200.547L199.628 23.7543H199.595L196.572 30.9706H195.27L192.381 23.7543H192.348L191.296 30.9706H188.039L190.177 18.4335H193.4ZM181.761 18.4335V21.1937H177.869V23.2887H181.56V26.0489H177.869V28.2104H181.761V30.9706H174.597V18.4335H181.761ZM163.825 18.4335L168.568 30.9706H165.078L164.259 28.7924H159.751L158.883 30.9706H155.409L160.252 18.4335H163.825ZM143.62 18.4335C147.127 18.4335 150.015 21.177 150.015 24.7021C150.015 28.2271 147.11 30.9706 143.62 30.9706H138.977V18.4335H143.62ZM124.583 18.4335V23.6046H124.616L128.574 18.4335H132.632L127.622 24.3695L133.083 30.9706H128.841L124.616 25.5334H124.583V30.9706H121.31V18.4335H124.583ZM75.4544 18.4335V28.2104H79.3787V30.9706H72.1814V18.4335H75.4544ZM60.5422 18.4335C62.7798 18.4335 64.2828 19.2981 64.2828 21.6925C64.2828 22.8231 63.9154 23.7377 62.8967 24.2532V24.2863C64.7002 24.5191 65.4684 25.7329 65.4684 27.4788C65.4684 30.106 63.214 30.9706 60.9096 30.9706H55.8665V18.4335H60.5422ZM62.162 27.1463C62.162 25.6332 60.5422 25.7828 59.4734 25.7828H59.1395V28.4765L59.8653 28.4765C60.8364 28.4722 62.162 28.3884 62.162 27.1463ZM216.545 21.177C214.59 21.177 212.987 22.7567 212.987 24.4859C212.987 26.6474 214.59 28.2271 216.545 28.2271C218.498 28.2271 220.101 26.6474 220.101 24.4859C220.101 22.7567 218.498 21.177 216.545 21.177ZM91.7858 21.177C89.8324 21.177 88.2294 22.7567 88.2294 24.4859C88.2294 26.6474 89.8324 28.2271 91.7858 28.2271C93.74 28.2271 95.343 26.6474 95.343 24.4859C95.343 22.7567 93.74 21.177 91.7858 21.177ZM143.019 21.1937H142.25V28.2104H142.985C144.939 28.2104 146.609 27.1463 146.609 24.7021C146.609 22.4573 145.123 21.1937 143.019 21.1937ZM162.038 22.3077H162.005L160.653 26.2983H163.374L162.038 22.3077ZM59.3732 20.9276H59.1395V23.3552H59.5068C60.3752 23.3552 61.2769 23.2056 61.2769 22.1414C61.2769 20.9941 60.2583 20.9276 59.3732 20.9276Z" fill="white"/>
<path d="M13.2659 11.3904L19.2631 7.94269L25.4133 11.4783L38.3302 1.06704V18.9039V40.8264L19.2631 51.7877L0.195981 40.8264V22.1428L0.1875 22.1478V0.848877L13.2659 11.3904ZM3.5297 23.9526V38.9099L19.2631 47.9547L34.9965 38.9099V24.1859L19.2476 33.4081L3.5297 23.9526ZM4.16387 20.4559L19.2706 29.5437L34.5782 20.58L19.2631 11.7757L4.16387 20.4559ZM28.8492 12.9797L34.9965 16.5703V8.02484C32.9474 9.67644 30.8982 11.328 28.8492 12.9797ZM3.52122 16.3521L9.66852 12.7615L3.52122 7.80667C3.52122 10.6551 3.52122 13.5036 3.52122 16.3521Z" fill="white"/>
</g>
<defs>
<clipPath id="clip0_2045_537">
<rect width="243" height="52" fill="white" transform="translate(0.1875)"/>
</clipPath>
</defs>
</svg>
