<svg width="249" height="51" viewBox="0 0 249 51" fill="none" xmlns="http://www.w3.org/2000/svg">
<path d="M25.1875 51C38.9946 51 50.1875 39.8071 50.1875 26C50.1875 12.1929 38.9946 1 25.1875 1C11.3804 1 0.1875 12.1929 0.1875 26C0.1875 39.8071 11.3804 51 25.1875 51Z" fill="#FF8C00"/>
<path d="M25.1875 8.03613C17.7589 8.03613 11.6875 14.0718 11.6875 21.5361C11.6875 23.0361 11.9375 24.5004 12.4018 25.929C12.7232 26.8933 13.7946 27.429 14.7946 27.1076C15.7589 26.7861 16.2946 25.7147 15.9732 24.7147C15.5804 23.6076 15.4018 22.429 15.4375 21.2504C15.5804 16.2147 19.6518 12.0718 24.6875 11.8218C30.2946 11.5361 34.9375 16.0004 34.9375 21.5361C34.9375 26.7147 30.8661 30.9647 25.7589 31.2504C25.7589 31.2504 23.8661 31.3576 22.9375 31.5004C22.4732 31.5718 22.1161 31.6433 21.8661 31.679C21.7589 31.7147 21.6518 31.6076 21.6875 31.5004L22.0089 29.929L23.7589 21.8576C23.9732 20.8576 23.3304 19.8576 22.3304 19.6433C21.3304 19.429 20.3304 20.0718 20.1161 21.0718C20.1161 21.0718 15.9018 40.7147 15.8661 40.929C15.6518 41.929 16.2946 42.929 17.2946 43.1433C18.2946 43.3576 19.2946 42.7147 19.5089 41.7147C19.5446 41.5004 20.1161 38.8933 20.1161 38.8933C20.5446 36.8933 22.1875 35.429 24.1161 35.179C24.5446 35.1076 26.2232 35.0004 26.2232 35.0004C33.1875 34.4647 38.6875 28.6433 38.6875 21.5361C38.6875 14.0718 32.6161 8.03613 25.1875 8.03613ZM26.1518 39.1076C24.9375 38.8576 23.7232 39.6076 23.4732 40.8576C23.2232 42.0718 23.9732 43.2861 25.2232 43.5361C26.4375 43.7861 27.6518 43.0361 27.9018 41.7861C28.1518 40.5361 27.4018 39.3576 26.1518 39.1076Z" fill="white"/>
<path d="M61.642 43.5455V19.5455H64.233V22.3182H64.5511C64.7481 22.0152 65.0208 21.6288 65.3693 21.1591C65.7254 20.6818 66.233 20.2576 66.892 19.8864C67.5587 19.5076 68.4602 19.3182 69.5966 19.3182C71.0663 19.3182 72.3617 19.6856 73.483 20.4205C74.6042 21.1553 75.4792 22.197 76.108 23.5455C76.7367 24.8939 77.0511 26.4848 77.0511 28.3182C77.0511 30.1667 76.7367 31.7689 76.108 33.125C75.4792 34.4735 74.608 35.5189 73.4943 36.2614C72.3807 36.9962 71.0966 37.3636 69.642 37.3636C68.5208 37.3636 67.6231 37.178 66.9489 36.8068C66.2746 36.428 65.7557 36 65.392 35.5227C65.0284 35.0379 64.7481 34.6364 64.5511 34.3182H64.3239V43.5455H61.642ZM64.2784 28.2727C64.2784 29.5909 64.4716 30.7538 64.858 31.7614C65.2443 32.7614 65.8087 33.5455 66.5511 34.1136C67.2936 34.6742 68.2027 34.9545 69.2784 34.9545C70.3996 34.9545 71.3352 34.6591 72.0852 34.0682C72.8428 33.4697 73.411 32.6667 73.7898 31.6591C74.1761 30.6439 74.3693 29.5152 74.3693 28.2727C74.3693 27.0455 74.1799 25.9394 73.8011 24.9545C73.4299 23.9621 72.8655 23.178 72.108 22.6023C71.358 22.0189 70.4148 21.7273 69.2784 21.7273C68.1875 21.7273 67.2708 22.0038 66.5284 22.5568C65.786 23.1023 65.2254 23.8674 64.8466 24.8523C64.4678 25.8295 64.2784 26.9697 64.2784 28.2727ZM88.233 37.3636C86.6572 37.3636 85.2746 36.9886 84.0852 36.2386C82.9034 35.4886 81.9792 34.4394 81.3125 33.0909C80.6534 31.7424 80.3239 30.1667 80.3239 28.3636C80.3239 26.5455 80.6534 24.9583 81.3125 23.6023C81.9792 22.2462 82.9034 21.1932 84.0852 20.4432C85.2746 19.6932 86.6572 19.3182 88.233 19.3182C89.8087 19.3182 91.1875 19.6932 92.3693 20.4432C93.5587 21.1932 94.483 22.2462 95.142 23.6023C95.8087 24.9583 96.142 26.5455 96.142 28.3636C96.142 30.1667 95.8087 31.7424 95.142 33.0909C94.483 34.4394 93.5587 35.4886 92.3693 36.2386C91.1875 36.9886 89.8087 37.3636 88.233 37.3636ZM88.233 34.9545C89.4299 34.9545 90.4148 34.6477 91.1875 34.0341C91.9602 33.4205 92.5322 32.6136 92.9034 31.6136C93.2746 30.6136 93.4602 29.5303 93.4602 28.3636C93.4602 27.197 93.2746 26.1098 92.9034 25.1023C92.5322 24.0947 91.9602 23.2803 91.1875 22.6591C90.4148 22.0379 89.4299 21.7273 88.233 21.7273C87.036 21.7273 86.0511 22.0379 85.2784 22.6591C84.5057 23.2803 83.9337 24.0947 83.5625 25.1023C83.1913 26.1098 83.0057 27.197 83.0057 28.3636C83.0057 29.5303 83.1913 30.6136 83.5625 31.6136C83.9337 32.6136 84.5057 33.4205 85.2784 34.0341C86.0511 34.6477 87.036 34.9545 88.233 34.9545ZM102.918 13.7273V37H100.236V13.7273H102.918ZM110.33 30.6364L110.284 27.3182H110.83L118.466 19.5455H121.784L113.648 27.7727H113.42L110.33 30.6364ZM107.83 37V13.7273H110.511V37H107.83ZM118.92 37L112.102 28.3636L114.011 26.5L122.33 37H118.92ZM130.372 37.4091C129.266 37.4091 128.262 37.2008 127.361 36.7841C126.459 36.3598 125.743 35.75 125.213 34.9545C124.683 34.1515 124.418 33.1818 124.418 32.0455C124.418 31.0455 124.615 30.2348 125.009 29.6136C125.402 28.9848 125.929 28.4924 126.588 28.1364C127.247 27.7803 127.974 27.5152 128.77 27.3409C129.573 27.1591 130.38 27.0152 131.19 26.9091C132.251 26.7727 133.111 26.6705 133.77 26.6023C134.437 26.5265 134.921 26.4015 135.224 26.2273C135.535 26.053 135.69 25.75 135.69 25.3182V25.2273C135.69 24.1061 135.384 23.2348 134.77 22.6136C134.164 21.9924 133.243 21.6818 132.009 21.6818C130.728 21.6818 129.724 21.9621 128.997 22.5227C128.27 23.0833 127.759 23.6818 127.463 24.3182L124.918 23.4091C125.372 22.3485 125.978 21.5227 126.736 20.9318C127.501 20.3333 128.334 19.9167 129.236 19.6818C130.145 19.4394 131.039 19.3182 131.918 19.3182C132.478 19.3182 133.122 19.3864 133.849 19.5227C134.584 19.6515 135.293 19.9205 135.974 20.3295C136.664 20.7386 137.236 21.3561 137.69 22.1818C138.145 23.0076 138.372 24.1136 138.372 25.5V37H135.69V34.6364H135.554C135.372 35.0152 135.069 35.4205 134.645 35.8523C134.221 36.2841 133.656 36.6515 132.952 36.9545C132.247 37.2576 131.387 37.4091 130.372 37.4091ZM130.781 35C131.842 35 132.736 34.7917 133.463 34.375C134.198 33.9583 134.751 33.4205 135.122 32.7614C135.501 32.1023 135.69 31.4091 135.69 30.6818V28.2273C135.577 28.3636 135.327 28.4886 134.94 28.6023C134.562 28.7083 134.122 28.803 133.622 28.8864C133.13 28.9621 132.649 29.0303 132.179 29.0909C131.717 29.1439 131.342 29.1894 131.054 29.2273C130.357 29.3182 129.705 29.4659 129.099 29.6705C128.501 29.8674 128.016 30.1667 127.645 30.5682C127.281 30.9621 127.099 31.5 127.099 32.1818C127.099 33.1136 127.444 33.8182 128.134 34.2955C128.83 34.7652 129.713 35 130.781 35ZM149.858 37.3636C148.403 37.3636 147.119 36.9962 146.006 36.2614C144.892 35.5189 144.021 34.4735 143.392 33.125C142.763 31.7689 142.449 30.1667 142.449 28.3182C142.449 26.4848 142.763 24.8939 143.392 23.5455C144.021 22.197 144.896 21.1553 146.017 20.4205C147.138 19.6856 148.434 19.3182 149.903 19.3182C151.04 19.3182 151.938 19.5076 152.597 19.8864C153.263 20.2576 153.771 20.6818 154.119 21.1591C154.475 21.6288 154.752 22.0152 154.949 22.3182H155.176V13.7273H157.858V37H155.267V34.3182H154.949C154.752 34.6364 154.472 35.0379 154.108 35.5227C153.744 36 153.225 36.428 152.551 36.8068C151.877 37.178 150.979 37.3636 149.858 37.3636ZM150.222 34.9545C151.297 34.9545 152.206 34.6742 152.949 34.1136C153.691 33.5455 154.256 32.7614 154.642 31.7614C155.028 30.7538 155.222 29.5909 155.222 28.2727C155.222 26.9697 155.032 25.8295 154.653 24.8523C154.275 23.8674 153.714 23.1023 152.972 22.5568C152.229 22.0038 151.313 21.7273 150.222 21.7273C149.085 21.7273 148.138 22.0189 147.381 22.6023C146.631 23.178 146.066 23.9621 145.688 24.9545C145.316 25.9394 145.131 27.0455 145.131 28.2727C145.131 29.5152 145.32 30.6439 145.699 31.6591C146.085 32.6667 146.653 33.4697 147.403 34.0682C148.161 34.6591 149.1 34.9545 150.222 34.9545ZM170.233 37.3636C168.657 37.3636 167.275 36.9886 166.085 36.2386C164.903 35.4886 163.979 34.4394 163.312 33.0909C162.653 31.7424 162.324 30.1667 162.324 28.3636C162.324 26.5455 162.653 24.9583 163.312 23.6023C163.979 22.2462 164.903 21.1932 166.085 20.4432C167.275 19.6932 168.657 19.3182 170.233 19.3182C171.809 19.3182 173.188 19.6932 174.369 20.4432C175.559 21.1932 176.483 22.2462 177.142 23.6023C177.809 24.9583 178.142 26.5455 178.142 28.3636C178.142 30.1667 177.809 31.7424 177.142 33.0909C176.483 34.4394 175.559 35.4886 174.369 36.2386C173.188 36.9886 171.809 37.3636 170.233 37.3636ZM170.233 34.9545C171.43 34.9545 172.415 34.6477 173.188 34.0341C173.96 33.4205 174.532 32.6136 174.903 31.6136C175.275 30.6136 175.46 29.5303 175.46 28.3636C175.46 27.197 175.275 26.1098 174.903 25.1023C174.532 24.0947 173.96 23.2803 173.188 22.6591C172.415 22.0379 171.43 21.7273 170.233 21.7273C169.036 21.7273 168.051 22.0379 167.278 22.6591C166.506 23.2803 165.934 24.0947 165.562 25.1023C165.191 26.1098 165.006 27.197 165.006 28.3636C165.006 29.5303 165.191 30.6136 165.562 31.6136C165.934 32.6136 166.506 33.4205 167.278 34.0341C168.051 34.6477 169.036 34.9545 170.233 34.9545ZM189.827 19.5455V21.8182H180.781V19.5455H189.827ZM183.418 15.3636H186.099V32C186.099 32.7576 186.209 33.3258 186.429 33.7045C186.656 34.0758 186.944 34.3258 187.293 34.4545C187.649 34.5758 188.024 34.6364 188.418 34.6364C188.713 34.6364 188.955 34.6212 189.145 34.5909C189.334 34.553 189.486 34.5227 189.599 34.5L190.145 36.9091C189.963 36.9773 189.709 37.0455 189.384 37.1136C189.058 37.1894 188.645 37.2273 188.145 37.2273C187.387 37.2273 186.645 37.0644 185.918 36.7386C185.198 36.4129 184.599 35.9167 184.122 35.25C183.652 34.5833 183.418 33.7424 183.418 32.7273V15.3636ZM192.588 27.2273V25.8182C193.853 25.8182 194.736 25.553 195.236 25.0227C195.743 24.4924 195.997 23.6061 195.997 22.3636V18.7273C195.997 17.6818 196.096 16.7765 196.293 16.0114C196.497 15.2462 196.827 14.6136 197.281 14.1136C197.736 13.6136 198.342 13.2424 199.099 13C199.857 12.7576 200.793 12.6364 201.906 12.6364V14.8636C201.027 14.8636 200.334 15 199.827 15.2727C199.327 15.5455 198.971 15.9697 198.759 16.5455C198.554 17.1136 198.452 17.8409 198.452 18.7273V23.2727C198.452 23.8636 198.372 24.4015 198.213 24.8864C198.062 25.3712 197.777 25.7879 197.361 26.1364C196.944 26.4848 196.349 26.7538 195.577 26.9432C194.812 27.1326 193.815 27.2273 192.588 27.2273ZM201.906 41.7273C200.793 41.7273 199.857 41.6061 199.099 41.3636C198.342 41.1212 197.736 40.75 197.281 40.25C196.827 39.75 196.497 39.1174 196.293 38.3523C196.096 37.5871 195.997 36.6818 195.997 35.6364V32C195.997 30.7576 195.743 29.8712 195.236 29.3409C194.736 28.8106 193.853 28.5455 192.588 28.5455V27.1364C193.815 27.1364 194.812 27.2311 195.577 27.4205C196.349 27.6098 196.944 27.8788 197.361 28.2273C197.777 28.5758 198.062 28.9924 198.213 29.4773C198.372 29.9621 198.452 30.5 198.452 31.0909V35.6364C198.452 36.5227 198.554 37.25 198.759 37.8182C198.971 38.3864 199.327 38.8068 199.827 39.0795C200.334 39.3598 201.027 39.5 201.906 39.5V41.7273ZM192.588 28.5455V25.8182H195.27V28.5455H192.588ZM207.409 37.1818C206.848 37.1818 206.367 36.9811 205.966 36.5795C205.564 36.178 205.364 35.697 205.364 35.1364C205.364 34.5758 205.564 34.0947 205.966 33.6932C206.367 33.2917 206.848 33.0909 207.409 33.0909C207.97 33.0909 208.451 33.2917 208.852 33.6932C209.254 34.0947 209.455 34.5758 209.455 35.1364C209.455 35.5076 209.36 35.8485 209.17 36.1591C208.989 36.4697 208.742 36.7197 208.432 36.9091C208.129 37.0909 207.788 37.1818 207.409 37.1818ZM214.267 19.5455H216.949V38.2727C216.949 39.3485 216.763 40.2803 216.392 41.0682C216.028 41.8561 215.475 42.4659 214.733 42.8977C213.998 43.3295 213.07 43.5455 211.949 43.5455C211.858 43.5455 211.767 43.5455 211.676 43.5455C211.585 43.5455 211.494 43.5455 211.403 43.5455V41.0455C211.494 41.0455 211.578 41.0455 211.653 41.0455C211.729 41.0455 211.812 41.0455 211.903 41.0455C212.722 41.0455 213.32 40.803 213.699 40.3182C214.078 39.8409 214.267 39.1591 214.267 38.2727V19.5455ZM215.585 16.6364C215.063 16.6364 214.612 16.4583 214.233 16.1023C213.862 15.7462 213.676 15.3182 213.676 14.8182C213.676 14.3182 213.862 13.8902 214.233 13.5341C214.612 13.178 215.063 13 215.585 13C216.108 13 216.555 13.178 216.926 13.5341C217.305 13.8902 217.494 14.3182 217.494 14.8182C217.494 15.3182 217.305 15.7462 216.926 16.1023C216.555 16.4583 216.108 16.6364 215.585 16.6364ZM234.224 23.4545L231.815 24.1364C231.664 23.7348 231.44 23.3447 231.145 22.9659C230.857 22.5795 230.463 22.2614 229.963 22.0114C229.463 21.7614 228.823 21.6364 228.043 21.6364C226.974 21.6364 226.084 21.8826 225.372 22.375C224.668 22.8598 224.315 23.4773 224.315 24.2273C224.315 24.8939 224.558 25.4205 225.043 25.8068C225.527 26.1932 226.285 26.5152 227.315 26.7727L229.906 27.4091C231.467 27.7879 232.63 28.3674 233.395 29.1477C234.16 29.9205 234.543 30.9167 234.543 32.1364C234.543 33.1364 234.255 34.0303 233.679 34.8182C233.111 35.6061 232.315 36.2273 231.293 36.6818C230.27 37.1364 229.08 37.3636 227.724 37.3636C225.944 37.3636 224.471 36.9773 223.304 36.2045C222.137 35.4318 221.399 34.303 221.088 32.8182L223.634 32.1818C223.876 33.1212 224.334 33.8258 225.009 34.2955C225.69 34.7652 226.58 35 227.679 35C228.929 35 229.921 34.7348 230.656 34.2045C231.399 33.6667 231.77 33.0227 231.77 32.2727C231.77 31.6667 231.558 31.1591 231.134 30.75C230.709 30.3333 230.058 30.0227 229.179 29.8182L226.27 29.1364C224.671 28.7576 223.497 28.1705 222.747 27.375C222.005 26.572 221.634 25.5682 221.634 24.3636C221.634 23.3788 221.91 22.5076 222.463 21.75C223.024 20.9924 223.785 20.3977 224.747 19.9659C225.717 19.5341 226.815 19.3182 228.043 19.3182C229.77 19.3182 231.126 19.697 232.111 20.4545C233.103 21.2121 233.808 22.2121 234.224 23.4545ZM246.534 27.1364V28.5455C245.269 28.5455 244.383 28.8106 243.875 29.3409C243.375 29.8712 243.125 30.7576 243.125 32V35.6364C243.125 36.6818 243.023 37.5871 242.818 38.3523C242.621 39.1174 242.295 39.75 241.841 40.25C241.386 40.75 240.78 41.1212 240.023 41.3636C239.265 41.6061 238.33 41.7273 237.216 41.7273V39.5C238.095 39.5 238.784 39.3598 239.284 39.0795C239.792 38.8068 240.148 38.3864 240.352 37.8182C240.564 37.25 240.67 36.5227 240.67 35.6364V31.0909C240.67 30.5 240.746 29.9621 240.898 29.4773C241.057 28.9924 241.345 28.5758 241.761 28.2273C242.178 27.8788 242.769 27.6098 243.534 27.4205C244.307 27.2311 245.307 27.1364 246.534 27.1364ZM237.216 12.6364C238.33 12.6364 239.265 12.7576 240.023 13C240.78 13.2424 241.386 13.6136 241.841 14.1136C242.295 14.6136 242.621 15.2462 242.818 16.0114C243.023 16.7765 243.125 17.6818 243.125 18.7273V22.3636C243.125 23.6061 243.375 24.4924 243.875 25.0227C244.383 25.553 245.269 25.8182 246.534 25.8182V27.2273C245.307 27.2273 244.307 27.1326 243.534 26.9432C242.769 26.7538 242.178 26.4848 241.761 26.1364C241.345 25.7879 241.057 25.3712 240.898 24.8864C240.746 24.4015 240.67 23.8636 240.67 23.2727V18.7273C240.67 17.8409 240.564 17.1136 240.352 16.5455C240.148 15.9697 239.792 15.5455 239.284 15.2727C238.784 15 238.095 14.8636 237.216 14.8636V12.6364ZM246.534 25.8182V28.5455H243.852V25.8182H246.534Z" fill="white"/>
</svg>
