<svg width="1728" height="290" viewBox="0 0 1728 290" fill="none" xmlns="http://www.w3.org/2000/svg">
<path d="M92.4795 259C92.4795 259 594.744 286.105 594.958 286.119C597.95 286.296 599.346 287.156 599.29 288.114C599.234 289.07 597.745 289.761 594.753 289.582C594.538 289.572 92.4795 259 92.4795 259V259Z" fill="url(#paint0_linear_2206_3546)" style="mix-blend-mode:color-dodge"/>
<path d="M94.7647 131.783C94.7647 131.783 326.331 118.022 326.477 118.014C328.518 117.91 329.526 118.388 329.559 119.04C329.593 119.693 328.637 120.271 326.596 120.375C326.45 120.382 94.7647 131.783 94.7647 131.783V131.783Z" fill="url(#paint1_linear_2206_3546)" style="mix-blend-mode:color-dodge"/>
<path d="M1588.61 152.013C1588.62 152.084 1588.62 152.155 1588.64 152.225C1588.65 152.272 1588.66 152.319 1588.7 152.35C1588.77 152.421 1588.88 152.374 1588.95 152.327C1589.38 152.037 1589.3 151.661 1589.91 151.692C1590.13 151.7 1590.34 151.755 1590.52 151.872C1590.56 151.896 1590.95 152.303 1590.9 152.319C1590.81 152.35 1590.72 152.382 1590.64 152.437C1590.56 152.499 1590.5 152.593 1590.53 152.695C1590.57 152.938 1592.04 152.241 1592.19 152.17C1592.79 151.88 1593.37 151.535 1594.01 151.347C1595.46 150.916 1596.92 150.595 1598.43 150.603C1600.27 150.618 1602.01 151.269 1603.63 152.123C1605.14 152.915 1606.97 153.761 1608.25 154.89C1608.07 155.023 1607.83 154.976 1607.61 154.921C1605.7 154.474 1603.87 153.847 1601.89 153.667C1599.76 153.479 1597.62 153.73 1595.55 154.216C1593.67 154.655 1591.78 154.945 1589.92 155.438C1588.2 155.893 1586.41 156.324 1584.63 156.567C1584.02 156.653 1583.33 156.755 1582.98 157.264C1582.77 157.562 1582.65 158.017 1582.29 158.064C1582.27 157.602 1582.17 157.061 1581.76 156.865C1581.37 156.677 1580.94 156.818 1580.76 156.34C1581.86 156.128 1583.69 156.003 1584.03 154.553C1584.51 152.46 1581.82 151.183 1580.5 150.148C1579.76 149.568 1579 148.98 1578.16 148.573C1576.1 147.562 1573.69 147.679 1571.47 147.632C1571.23 147.632 1570.95 147.601 1570.81 147.405C1572.27 146.731 1574.33 146.809 1575.89 146.755C1578.48 146.668 1581.03 147.037 1583.54 147.695C1584.8 148.024 1586.1 148.471 1587.17 149.247C1587.62 149.568 1588.15 149.937 1588.39 150.462C1588.58 150.901 1588.55 151.512 1588.6 152.021L1588.61 152.013Z" fill="url(#paint2_linear_2206_3546)" stroke="#4D5AFF" stroke-width="0.5" stroke-miterlimit="10"/>
<path d="M1684.45 115.585C1684.44 115.648 1684.43 115.711 1684.43 115.766C1684.43 115.805 1684.43 115.852 1684.44 115.883C1684.48 115.954 1684.59 115.954 1684.66 115.93C1685.09 115.797 1685.12 115.468 1685.62 115.648C1685.79 115.711 1685.95 115.813 1686.07 115.954C1686.1 115.985 1686.32 116.424 1686.28 116.424C1686.19 116.424 1686.1 116.424 1686.02 116.455C1685.95 116.487 1685.87 116.557 1685.87 116.636C1685.84 116.855 1687.24 116.651 1687.38 116.636C1687.95 116.549 1688.52 116.416 1689.1 116.424C1690.4 116.44 1691.69 116.549 1692.95 116.957C1694.47 117.451 1695.74 118.438 1696.86 119.551C1697.91 120.593 1699.21 121.769 1699.99 123.031C1699.81 123.094 1699.61 122.992 1699.45 122.89C1697.98 122.028 1696.63 121.032 1695.03 120.374C1693.32 119.669 1691.49 119.324 1689.65 119.191C1687.98 119.065 1686.35 118.822 1684.68 118.752C1683.15 118.681 1681.55 118.579 1680.03 118.321C1679.5 118.234 1678.9 118.14 1678.49 118.469C1678.23 118.665 1678.02 119.01 1677.72 118.948C1677.82 118.564 1677.87 118.085 1677.58 117.819C1677.31 117.56 1676.91 117.568 1676.88 117.121C1677.84 117.231 1679.39 117.6 1680.03 116.487C1680.96 114.88 1679.06 113.132 1678.23 111.933C1677.76 111.259 1677.28 110.585 1676.69 110.029C1675.25 108.665 1673.22 108.132 1671.4 107.521C1671.2 107.45 1670.97 107.364 1670.91 107.16C1672.28 106.98 1673.97 107.576 1675.27 107.936C1677.43 108.532 1679.45 109.504 1681.36 110.695C1682.33 111.298 1683.28 111.996 1683.98 112.913C1684.27 113.297 1684.62 113.736 1684.68 114.229C1684.73 114.645 1684.55 115.139 1684.46 115.577L1684.45 115.585Z" fill="url(#paint3_linear_2206_3546)" stroke="#4D5AFF" stroke-width="0.5" stroke-miterlimit="10"/>
<path d="M1375 230.865C1374.99 230.927 1374.98 230.99 1374.98 231.045C1374.98 231.084 1374.98 231.131 1374.99 231.162C1375.03 231.233 1375.13 231.233 1375.21 231.209C1375.64 231.076 1375.67 230.747 1376.16 230.927C1376.34 230.99 1376.5 231.092 1376.62 231.233C1376.65 231.264 1376.87 231.703 1376.82 231.703C1376.74 231.703 1376.65 231.703 1376.57 231.735C1376.49 231.766 1376.42 231.836 1376.42 231.915C1376.39 232.134 1377.79 231.931 1377.93 231.915C1378.5 231.829 1379.06 231.695 1379.65 231.703C1380.95 231.719 1382.24 231.829 1383.5 232.236C1385.01 232.73 1386.29 233.717 1387.41 234.83C1388.46 235.873 1389.76 237.048 1390.54 238.31C1390.36 238.373 1390.16 238.271 1390 238.169C1388.53 237.307 1387.18 236.312 1385.58 235.653C1383.87 234.948 1382.04 234.603 1380.2 234.47C1378.53 234.344 1376.9 234.101 1375.23 234.031C1373.7 233.96 1372.1 233.858 1370.58 233.6C1370.05 233.514 1369.45 233.42 1369.03 233.749C1368.78 233.945 1368.57 234.29 1368.26 234.227C1368.37 233.843 1368.42 233.365 1368.13 233.098C1367.86 232.84 1367.46 232.847 1367.43 232.401C1368.4 232.51 1369.94 232.879 1370.58 231.766C1371.51 230.159 1369.61 228.412 1368.78 227.212C1368.31 226.538 1367.83 225.864 1367.24 225.308C1365.8 223.944 1363.77 223.411 1361.94 222.8C1361.75 222.729 1361.52 222.643 1361.46 222.439C1362.83 222.259 1364.51 222.855 1365.82 223.215C1367.98 223.811 1370 224.783 1371.91 225.974C1372.88 226.578 1373.83 227.275 1374.53 228.192C1374.82 228.576 1375.17 229.015 1375.23 229.509C1375.28 229.924 1375.09 230.418 1375.01 230.857L1375 230.865Z" fill="url(#paint4_linear_2206_3546)" stroke="#4D5AFF" stroke-width="0.5" stroke-miterlimit="10"/>
<path d="M1060.54 166.927C1060.54 166.99 1060.52 167.053 1060.52 167.107C1060.52 167.147 1060.52 167.194 1060.54 167.225C1060.58 167.295 1060.68 167.295 1060.76 167.272C1061.18 167.139 1061.21 166.81 1061.71 166.99C1061.88 167.053 1062.04 167.154 1062.16 167.295C1062.19 167.327 1062.41 167.766 1062.37 167.766C1062.28 167.766 1062.19 167.766 1062.12 167.797C1062.04 167.828 1061.97 167.899 1061.96 167.977C1061.93 168.197 1063.33 167.993 1063.48 167.977C1064.04 167.891 1064.61 167.758 1065.19 167.766C1066.49 167.781 1067.78 167.891 1069.04 168.299C1070.56 168.792 1071.83 169.78 1072.96 170.893C1074 171.935 1075.31 173.111 1076.08 174.373C1075.9 174.435 1075.71 174.333 1075.54 174.232C1074.07 173.369 1072.72 172.374 1071.12 171.716C1069.41 171.01 1067.58 170.666 1065.74 170.532C1064.07 170.407 1062.45 170.164 1060.77 170.093C1059.24 170.023 1057.64 169.921 1056.12 169.662C1055.59 169.576 1054.99 169.482 1054.58 169.811C1054.33 170.007 1054.11 170.352 1053.81 170.289C1053.91 169.905 1053.96 169.427 1053.67 169.161C1053.4 168.902 1053.01 168.91 1052.97 168.463C1053.93 168.573 1055.48 168.941 1056.13 167.828C1057.05 166.222 1055.15 164.474 1054.32 163.275C1053.85 162.601 1053.37 161.927 1052.79 161.37C1051.34 160.007 1049.31 159.474 1047.49 158.862C1047.29 158.792 1047.06 158.706 1047 158.502C1048.38 158.322 1050.06 158.917 1051.36 159.278C1053.52 159.873 1055.54 160.845 1057.45 162.037C1058.42 162.64 1059.37 163.338 1060.07 164.255C1060.36 164.639 1060.71 165.078 1060.77 165.571C1060.83 165.987 1060.64 166.48 1060.55 166.919L1060.54 166.927Z" fill="url(#paint5_linear_2206_3546)" stroke="#4D5AFF" stroke-width="0.5" stroke-miterlimit="10"/>
<path d="M1530.45 182.093C1530.45 182.155 1530.46 182.218 1530.47 182.273C1530.47 182.312 1530.49 182.359 1530.52 182.39C1530.57 182.453 1530.68 182.422 1530.75 182.39C1531.12 182.163 1531.07 181.834 1531.6 181.904C1531.78 181.928 1531.97 181.983 1532.12 182.093C1532.16 182.116 1532.49 182.484 1532.45 182.5C1532.37 182.516 1532.28 182.539 1532.21 182.586C1532.14 182.633 1532.09 182.712 1532.11 182.798C1532.14 183.01 1533.44 182.5 1533.58 182.453C1534.1 182.242 1534.62 181.983 1535.18 181.857C1536.45 181.575 1537.73 181.387 1539.06 181.497C1540.66 181.63 1542.15 182.296 1543.53 183.127C1544.82 183.903 1546.38 184.742 1547.47 185.792C1547.31 185.894 1547.1 185.839 1546.91 185.784C1545.26 185.275 1543.69 184.624 1541.97 184.35C1540.13 184.052 1538.26 184.138 1536.45 184.42C1534.8 184.679 1533.15 184.812 1531.52 185.118C1530.01 185.4 1528.44 185.659 1526.89 185.76C1526.35 185.792 1525.76 185.839 1525.43 186.262C1525.25 186.505 1525.12 186.889 1524.81 186.905C1524.81 186.505 1524.73 186.035 1524.38 185.839C1524.04 185.651 1523.67 185.745 1523.52 185.322C1524.48 185.212 1526.07 185.22 1526.41 183.989C1526.9 182.218 1524.59 180.956 1523.47 179.977C1522.84 179.428 1522.21 178.879 1521.49 178.472C1519.73 177.476 1517.63 177.422 1515.69 177.249C1515.48 177.233 1515.24 177.194 1515.12 177.014C1516.4 176.528 1518.19 176.724 1519.55 176.779C1521.8 176.865 1524.01 177.351 1526.17 178.072C1527.27 178.433 1528.37 178.903 1529.29 179.632C1529.66 179.937 1530.12 180.29 1530.31 180.752C1530.46 181.136 1530.41 181.662 1530.45 182.108V182.093Z" fill="url(#paint6_linear_2206_3546)" stroke="#4D5AFF" stroke-width="0.5" stroke-miterlimit="10"/>
<path d="M1171.67 169.545C1171.67 169.608 1171.65 169.671 1171.65 169.726C1171.65 169.765 1171.65 169.812 1171.67 169.843C1171.71 169.914 1171.81 169.914 1171.89 169.89C1172.31 169.757 1172.34 169.428 1172.84 169.608C1173.01 169.671 1173.18 169.773 1173.29 169.914C1173.33 169.945 1173.55 170.384 1173.5 170.384C1173.41 170.384 1173.33 170.384 1173.25 170.415C1173.17 170.447 1173.1 170.517 1173.09 170.595C1173.07 170.815 1174.46 170.611 1174.61 170.595C1175.17 170.509 1175.74 170.376 1176.32 170.384C1177.62 170.4 1178.91 170.509 1180.17 170.917C1181.69 171.411 1182.96 172.398 1184.09 173.511C1185.13 174.553 1186.44 175.729 1187.21 176.991C1187.03 177.053 1186.84 176.952 1186.67 176.85C1185.2 175.988 1183.85 174.992 1182.25 174.334C1180.54 173.629 1178.71 173.284 1176.87 173.15C1175.2 173.025 1173.58 172.782 1171.9 172.712C1170.37 172.641 1168.77 172.539 1167.25 172.281C1166.72 172.194 1166.12 172.1 1165.71 172.429C1165.46 172.625 1165.24 172.97 1164.94 172.908C1165.04 172.523 1165.1 172.045 1164.8 171.779C1164.53 171.52 1164.14 171.528 1164.1 171.081C1165.06 171.191 1166.61 171.559 1167.26 170.447C1168.18 168.84 1166.28 167.092 1165.45 165.893C1164.98 165.219 1164.51 164.545 1163.92 163.989C1162.47 162.625 1160.44 162.092 1158.62 161.481C1158.42 161.41 1158.19 161.324 1158.12 161.12C1159.5 160.94 1161.18 161.535 1162.49 161.896C1164.65 162.492 1166.67 163.463 1168.58 164.655C1169.54 165.258 1170.5 165.956 1171.19 166.873C1171.49 167.257 1171.83 167.696 1171.89 168.189C1171.95 168.605 1171.76 169.099 1171.68 169.537L1171.67 169.545Z" fill="url(#paint7_linear_2206_3546)" stroke="#4D5AFF" stroke-width="0.5" stroke-miterlimit="10"/>
<path d="M1225.63 113.783C1225.62 113.845 1225.61 113.908 1225.61 113.963C1225.61 114.002 1225.61 114.049 1225.62 114.08C1225.66 114.151 1225.76 114.151 1225.84 114.127C1226.27 113.994 1226.3 113.665 1226.79 113.845C1226.97 113.908 1227.13 114.01 1227.25 114.151C1227.28 114.182 1227.5 114.621 1227.45 114.621C1227.37 114.621 1227.28 114.621 1227.2 114.653C1227.12 114.684 1227.05 114.754 1227.04 114.833C1227.02 115.052 1228.42 114.848 1228.56 114.833C1229.13 114.747 1229.69 114.613 1230.28 114.621C1231.58 114.637 1232.87 114.747 1234.13 115.154C1235.64 115.648 1236.92 116.635 1238.04 117.748C1239.09 118.791 1240.39 119.966 1241.17 121.228C1240.99 121.291 1240.79 121.189 1240.64 121.087C1239.17 120.225 1237.81 119.23 1236.22 118.571C1234.5 117.866 1232.67 117.521 1230.83 117.388C1229.17 117.262 1227.54 117.019 1225.87 116.949C1224.33 116.878 1222.74 116.776 1221.21 116.518C1220.69 116.432 1220.09 116.338 1219.67 116.667C1219.42 116.863 1219.21 117.208 1218.9 117.145C1219 116.761 1219.06 116.283 1218.77 116.016C1218.49 115.758 1218.1 115.765 1218.07 115.319C1219.03 115.428 1220.58 115.797 1221.22 114.684C1222.15 113.077 1220.25 111.329 1219.41 110.13C1218.95 109.456 1218.47 108.782 1217.88 108.226C1216.43 106.862 1214.4 106.329 1212.58 105.718C1212.38 105.647 1212.16 105.561 1212.09 105.357C1213.47 105.177 1215.15 105.773 1216.46 106.133C1218.62 106.729 1220.64 107.701 1222.55 108.892C1223.52 109.496 1224.47 110.193 1225.17 111.11C1225.46 111.494 1225.8 111.933 1225.87 112.427C1225.92 112.842 1225.73 113.336 1225.65 113.775L1225.63 113.783Z" fill="url(#paint8_linear_2206_3546)" stroke="#4D5AFF" stroke-width="0.5" stroke-miterlimit="10"/>
<path d="M1308.29 182.533C1308.27 182.619 1308.25 182.697 1308.23 182.776C1308.23 182.83 1308.22 182.893 1308.23 182.94C1308.28 183.042 1308.42 183.05 1308.53 183.026C1309.12 182.893 1309.19 182.439 1309.85 182.736C1310.08 182.838 1310.3 182.987 1310.45 183.191C1310.49 183.238 1310.75 183.849 1310.69 183.841C1310.57 183.834 1310.46 183.826 1310.35 183.857C1310.24 183.888 1310.14 183.975 1310.12 184.092C1310.07 184.382 1311.98 184.249 1312.18 184.233C1312.96 184.171 1313.74 184.045 1314.52 184.108C1316.3 184.257 1318.04 184.531 1319.7 185.197C1321.72 186.012 1323.36 187.47 1324.78 189.1C1326.11 190.621 1327.78 192.337 1328.71 194.132C1328.46 194.195 1328.21 194.038 1328 193.897C1326.09 192.58 1324.34 191.107 1322.23 190.064C1319.97 188.944 1317.52 188.301 1315.03 187.94C1312.78 187.611 1310.59 187.125 1308.33 186.867C1306.25 186.631 1304.09 186.326 1302.04 185.832C1301.33 185.66 1300.53 185.479 1299.93 185.887C1299.57 186.13 1299.24 186.577 1298.83 186.467C1299.01 185.95 1299.12 185.315 1298.75 184.915C1298.4 184.539 1297.87 184.508 1297.87 183.904C1299.16 184.147 1301.23 184.798 1302.21 183.34C1303.63 181.247 1301.2 178.684 1300.18 176.976C1299.6 176.02 1299.02 175.056 1298.27 174.233C1296.43 172.242 1293.72 171.325 1291.3 170.322C1291.04 170.212 1290.74 170.063 1290.67 169.781C1292.54 169.664 1294.78 170.643 1296.52 171.255C1299.41 172.266 1302.06 173.778 1304.54 175.581C1305.79 176.49 1307.03 177.54 1307.89 178.849C1308.24 179.398 1308.67 180.032 1308.72 180.706C1308.75 181.271 1308.45 181.921 1308.3 182.517L1308.29 182.533Z" fill="url(#paint9_linear_2206_3546)" stroke="#4D5AFF" stroke-width="0.5" stroke-miterlimit="10"/>
<g opacity="0.6">
<path d="M258.134 192.551L257.903 192.515L257.184 197.063L256.504 192.517L256.275 192.551L257.046 197.712H245.66L246.477 192.551L246.249 192.515L245.53 197.063L244.852 192.517L244.621 192.551L245.41 197.839V203.208C245.41 203.824 245.911 204.325 246.527 204.325H256.182C256.8 204.325 257.298 203.824 257.298 203.208V197.839L258.134 192.551V192.551Z" fill="url(#paint10_linear_2206_3546)" stroke="#4D5AFF"/>
<path d="M266.821 147.801C265.009 146.646 262.94 145.781 260.681 145.176C258.703 144.647 256.579 144.314 254.357 144.161C253.378 144.094 252.384 144.062 251.374 144.062C250.803 144.062 250.234 144.073 249.673 144.094C248.347 144.146 247.046 144.255 245.792 144.429C242.601 144.872 239.673 145.734 237.157 147.082C231.7 150.005 228.188 155.218 228.188 163.451C228.188 172.903 243.695 188.068 244.582 192.214C244.608 192.336 244.624 192.45 244.624 192.551H258.137C258.137 188.971 274.565 173.184 274.565 163.451C274.565 155.854 271.575 150.828 266.824 147.798L266.821 147.801Z" fill="url(#paint11_linear_2206_3546)" stroke="#4D5AFF"/>
<path d="M245.825 144.426C245.825 144.426 245.801 144.428 245.791 144.431C242.6 144.875 239.672 145.737 237.156 147.084C237.138 147.095 237.122 147.102 237.104 147.113C231.782 154.439 233.275 164.406 236.681 174.113C238.973 180.655 243.769 184.781 244.734 192.406C244.747 192.458 244.755 192.507 244.76 192.554H246.521C246.482 190.079 246.04 188.075 245.394 185.51C241.907 171.68 238.968 154.421 245.825 144.428V144.426Z" fill="url(#paint12_linear_2206_3546)" stroke="#4D5AFF"/>
<path d="M267.79 148.462C267.476 148.231 267.154 148.008 266.821 147.8C265.165 146.743 263.296 145.931 261.263 145.339C263.381 147.977 263.864 150.962 264.204 154.098C264.944 160.929 262.828 168.746 260.186 177.17C258.791 181.62 255.429 187.456 254.902 192.55H257.402C257.865 187.963 260.962 184.45 263.916 179.754C270.427 169.392 274.065 157.255 267.787 148.465L267.79 148.462Z" fill="url(#paint13_linear_2206_3546)" stroke="#4D5AFF"/>
<path d="M254.667 144.186C254.561 144.176 254.46 144.168 254.356 144.163C253.377 144.096 252.383 144.064 251.373 144.064C250.859 144.064 250.347 144.075 249.841 144.09C249.446 146.632 248.436 151.591 248.229 157.892C248.016 164.483 248.649 172.534 248.823 179.453C248.951 184.469 249.283 189.147 249.568 192.556H252.702C252.92 188.204 253.234 184.674 253.914 180.678C256.178 167.399 258.502 155.537 254.667 144.192V144.186Z" fill="url(#paint14_linear_2206_3546)" stroke="#4D5AFF"/>
</g>
<g opacity="0.6">
<path d="M407.726 281.284L407.567 281.261L407.082 284.353L406.62 281.261L406.464 281.284L406.988 284.794H399.249L399.805 281.284L399.649 281.261L399.161 284.353L398.701 281.261L398.543 281.284L399.08 284.877V288.525C399.08 288.943 399.42 289.283 399.841 289.283H406.402C406.822 289.283 407.16 288.943 407.16 288.525V284.877L407.731 281.284H407.726Z" fill="url(#paint15_linear_2206_3546)" stroke="#4D5AFF" stroke-width="0.5"/>
<path d="M413.631 250.866C412.397 250.082 410.993 249.492 409.459 249.082C408.111 248.721 406.67 248.496 405.159 248.392C404.495 248.348 403.82 248.324 403.132 248.324C402.742 248.324 402.358 248.329 401.976 248.345C401.073 248.379 400.19 248.454 399.339 248.573C397.171 248.875 395.177 249.459 393.469 250.378C389.756 252.364 387.373 255.908 387.373 261.505C387.373 267.93 397.911 278.237 398.516 281.054C398.534 281.137 398.542 281.215 398.542 281.283H407.73C407.73 278.847 418.896 268.12 418.896 261.502C418.896 256.339 416.863 252.922 413.633 250.863L413.631 250.866Z" fill="url(#paint16_linear_2206_3546)" stroke="#4D5AFF" stroke-width="0.5"/>
<path d="M399.358 248.57C399.358 248.57 399.342 248.57 399.334 248.576C397.166 248.877 395.173 249.461 393.464 250.38C393.451 250.385 393.441 250.393 393.431 250.398C389.811 255.377 390.827 262.151 393.142 268.753C394.7 273.2 397.958 276.004 398.618 281.189C398.625 281.222 398.631 281.256 398.636 281.287H399.833C399.807 279.608 399.506 278.242 399.067 276.497C396.699 267.099 394.7 255.367 399.36 248.573L399.358 248.57Z" fill="url(#paint17_linear_2206_3546)" stroke="#4D5AFF" stroke-width="0.5"/>
<path d="M414.287 251.317C414.074 251.159 413.856 251.008 413.63 250.865C412.503 250.149 411.234 249.596 409.853 249.193C411.293 250.987 411.621 253.018 411.852 255.146C412.358 259.791 410.917 265.105 409.121 270.83C408.173 273.854 405.888 277.821 405.527 281.285H407.228C407.542 278.167 409.647 275.781 411.654 272.585C416.081 265.544 418.555 257.293 414.284 251.317H414.287Z" fill="url(#paint18_linear_2206_3546)" stroke="#4D5AFF" stroke-width="0.5"/>
<path d="M405.369 248.409C405.299 248.404 405.229 248.399 405.159 248.394C404.494 248.35 403.819 248.326 403.131 248.326C402.783 248.326 402.433 248.331 402.09 248.342C401.82 250.071 401.135 253.441 400.994 257.724C400.849 262.205 401.28 267.678 401.397 272.382C401.485 275.791 401.708 278.971 401.903 281.287H404.032C404.183 278.33 404.393 275.929 404.855 273.213C406.395 264.186 407.976 256.125 405.369 248.412V248.409Z" fill="url(#paint19_linear_2206_3546)" stroke="#4D5AFF" stroke-width="0.5"/>
</g>
<g opacity="0.5">
<path d="M589.57 250.661L589.453 250.643L589.092 252.925L588.752 250.643L588.635 250.659L589.022 253.25H583.305L583.715 250.659L583.598 250.641L583.238 252.923L582.897 250.641L582.783 250.656L583.178 253.309V256.004C583.178 256.313 583.432 256.565 583.739 256.565H588.586C588.895 256.565 589.146 256.313 589.146 256.004V253.309L589.567 250.656L589.57 250.661Z" fill="url(#paint20_linear_2206_3546)" stroke="#4D5AFF" stroke-width="0.5"/>
<path d="M593.927 228.199C593.016 227.62 591.977 227.184 590.846 226.882C589.854 226.615 588.789 226.449 587.67 226.374C587.18 226.34 586.681 226.324 586.172 226.324C585.884 226.324 585.601 226.329 585.318 226.34C584.651 226.363 583.999 226.42 583.369 226.509C581.769 226.732 580.297 227.163 579.033 227.84C576.294 229.305 574.531 231.924 574.531 236.055C574.531 240.8 582.315 248.412 582.761 250.492C582.774 250.552 582.782 250.609 582.782 250.661H589.563C589.563 248.864 597.809 240.941 597.809 236.055C597.809 232.243 596.308 229.717 593.925 228.199H593.927Z" fill="url(#paint21_linear_2206_3546)" stroke="#4D5AFF" stroke-width="0.5"/>
<path d="M583.389 226.506C583.389 226.506 583.376 226.506 583.371 226.506C581.771 226.729 580.299 227.16 579.035 227.838C579.027 227.84 579.019 227.845 579.012 227.851C576.34 231.527 577.088 236.53 578.799 241.403C579.949 244.684 582.356 246.756 582.841 250.585C582.846 250.611 582.852 250.637 582.854 250.661H583.737C583.719 249.417 583.498 248.412 583.173 247.125C581.424 240.185 579.946 231.522 583.389 226.506Z" fill="url(#paint22_linear_2206_3546)" stroke="#4D5AFF" stroke-width="0.5"/>
<path d="M594.415 228.531C594.257 228.414 594.096 228.303 593.929 228.199C593.099 227.669 592.159 227.261 591.139 226.963C592.203 228.287 592.444 229.788 592.616 231.361C592.99 234.79 591.925 238.713 590.599 242.942C589.898 245.175 588.21 248.106 587.945 250.661H589.202C589.435 248.358 590.991 246.595 592.47 244.235C595.739 239.038 597.567 232.944 594.412 228.531H594.415Z" fill="url(#paint23_linear_2206_3546)" stroke="#4D5AFF" stroke-width="0.5"/>
<path d="M587.826 226.384C587.774 226.379 587.722 226.376 587.67 226.374C587.18 226.34 586.681 226.324 586.172 226.324C585.913 226.324 585.658 226.329 585.404 226.337C585.204 227.612 584.7 230.102 584.594 233.266C584.488 236.574 584.807 240.614 584.893 244.087C584.955 246.605 585.124 248.952 585.266 250.663H586.84C586.949 248.48 587.105 246.707 587.447 244.7C588.582 238.036 589.75 232.083 587.824 226.387L587.826 226.384Z" fill="url(#paint24_linear_2206_3546)" stroke="#4D5AFF" stroke-width="0.5"/>
</g>
<path d="M140.728 79.2749L140.362 79.2178L139.217 86.4663L138.134 79.2178L137.766 79.2723L138.996 87.4996H120.852L122.155 79.2749L121.789 79.2178L120.641 86.4663L119.561 79.2178L119.195 79.2723L120.452 87.6968V96.2512C120.452 97.2326 121.249 98.0296 122.233 98.0296H137.618C138.602 98.0296 139.399 97.2326 139.399 96.2512V87.6968L140.731 79.2697L140.728 79.2749Z" fill="url(#paint25_linear_2206_3546)" stroke="#4D5AFF"/>
<path d="M154.573 7.95561C151.686 6.11493 148.387 4.73896 144.791 3.77319C141.637 2.92943 138.251 2.39982 134.71 2.15838C133.152 2.05194 131.566 2 129.954 2C129.043 2 128.137 2.01558 127.243 2.04933C125.125 2.12981 123.058 2.30635 121.054 2.58414C115.971 3.29289 111.3 4.66368 107.295 6.81331C98.5948 11.4708 93 19.7812 93 32.897C93 47.9652 117.71 72.1329 119.125 78.735C119.167 78.9297 119.188 79.1114 119.188 79.2724H140.725C140.731 73.566 166.908 48.4091 166.908 32.897C166.908 20.7937 162.141 12.7819 154.568 7.95561H154.573Z" fill="url(#paint26_linear_2206_3546)" stroke="#4D5AFF"/>
<path d="M121.113 2.5791C121.095 2.5817 121.077 2.58429 121.056 2.58688C115.973 3.29564 111.302 4.66642 107.296 6.81605C107.27 6.82903 107.242 6.8446 107.216 6.85758C98.7341 18.5326 101.112 34.4133 106.541 49.8891C110.196 60.3153 117.834 66.8914 119.379 79.0414C119.397 79.1219 119.41 79.1998 119.42 79.2777H122.224C122.167 75.3341 121.461 72.1382 120.43 68.0519C114.872 46.013 110.186 18.5092 121.116 2.58168L121.113 2.5791Z" fill="url(#paint27_linear_2206_3546)" stroke="#4D5AFF"/>
<path d="M156.112 9.01558C155.613 8.64693 155.097 8.29385 154.57 7.95894C151.932 6.27662 148.952 4.98373 145.714 4.03613C149.097 8.23933 149.863 13.0007 150.403 17.9983C151.582 28.8841 148.207 41.3405 144.001 54.7679C141.781 61.8606 136.42 71.1601 135.576 79.2783H139.564C140.301 71.9675 145.239 66.3701 149.943 58.8828C160.318 42.3737 166.123 23.0297 156.109 9.01818L156.112 9.01558Z" fill="url(#paint28_linear_2206_3546)" stroke="#4D5AFF"/>
<path d="M135.205 2.19764C135.039 2.18466 134.875 2.17168 134.709 2.16129C133.151 2.05485 131.565 2.00293 129.953 2.00293C129.132 2.00293 128.32 2.01592 127.512 2.04448C126.882 6.0919 125.275 13.9946 124.945 24.0366C124.602 34.5433 125.617 47.371 125.895 58.3995C126.095 66.3931 126.622 73.8467 127.076 79.2779H132.069C132.419 72.3435 132.915 66.715 134 60.3466C137.609 39.1827 141.314 20.2826 135.202 2.19764H135.205Z" fill="url(#paint29_linear_2206_3546)" stroke="#4D5AFF"/>
<defs>
<linearGradient id="paint0_linear_2206_3546" x1="599.415" y1="263.832" x2="92.4438" y2="288.964" gradientUnits="userSpaceOnUse">
<stop stop-color="white"/>
<stop offset="1" stop-color="white" stop-opacity="0"/>
</linearGradient>
<linearGradient id="paint1_linear_2206_3546" x1="329.617" y1="120.175" x2="94.7819" y2="132.154" gradientUnits="userSpaceOnUse">
<stop stop-color="white"/>
<stop offset="1" stop-color="white" stop-opacity="0"/>
</linearGradient>
<linearGradient id="paint2_linear_2206_3546" x1="1606.46" y1="144.852" x2="1571.67" y2="149.445" gradientUnits="userSpaceOnUse">
<stop stop-color="#6366F3"/>
<stop offset="1" stop-color="#72CFED"/>
</linearGradient>
<linearGradient id="paint3_linear_2206_3546" x1="1698.6" y1="104.468" x2="1671.25" y2="106.463" gradientUnits="userSpaceOnUse">
<stop stop-color="#6366F3"/>
<stop offset="1" stop-color="#72CFED"/>
</linearGradient>
<linearGradient id="paint4_linear_2206_3546" x1="1389.15" y1="219.748" x2="1361.8" y2="221.742" gradientUnits="userSpaceOnUse">
<stop stop-color="#6366F3"/>
<stop offset="1" stop-color="#72CFED"/>
</linearGradient>
<linearGradient id="paint5_linear_2206_3546" x1="1074.69" y1="155.81" x2="1047.34" y2="157.805" gradientUnits="userSpaceOnUse">
<stop stop-color="#6366F3"/>
<stop offset="1" stop-color="#72CFED"/>
</linearGradient>
<linearGradient id="paint6_linear_2206_3546" x1="1545.92" y1="174.988" x2="1515.82" y2="178.795" gradientUnits="userSpaceOnUse">
<stop stop-color="#6366F3"/>
<stop offset="1" stop-color="#72CFED"/>
</linearGradient>
<linearGradient id="paint7_linear_2206_3546" x1="1185.82" y1="158.428" x2="1158.46" y2="160.424" gradientUnits="userSpaceOnUse">
<stop stop-color="#6366F3"/>
<stop offset="1" stop-color="#72CFED"/>
</linearGradient>
<linearGradient id="paint8_linear_2206_3546" x1="1239.78" y1="102.666" x2="1212.43" y2="104.659" gradientUnits="userSpaceOnUse">
<stop stop-color="#6366F3"/>
<stop offset="1" stop-color="#72CFED"/>
</linearGradient>
<linearGradient id="paint9_linear_2206_3546" x1="1326.89" y1="165.702" x2="1291.06" y2="167.934" gradientUnits="userSpaceOnUse">
<stop stop-color="#6366F3"/>
<stop offset="1" stop-color="#72CFED"/>
</linearGradient>
<linearGradient id="paint10_linear_2206_3546" x1="251.376" y1="204.322" x2="251.376" y2="192.515" gradientUnits="userSpaceOnUse">
<stop stop-color="#6366F3"/>
<stop offset="1" stop-color="#72CFED"/>
</linearGradient>
<linearGradient id="paint11_linear_2206_3546" x1="251.374" y1="192.551" x2="251.374" y2="144.062" gradientUnits="userSpaceOnUse">
<stop stop-color="#6366F3"/>
<stop offset="1" stop-color="#72CFED"/>
</linearGradient>
<linearGradient id="paint12_linear_2206_3546" x1="240.067" y1="192.551" x2="240.067" y2="144.426" gradientUnits="userSpaceOnUse">
<stop stop-color="#99B0FF"/>
<stop offset="1" stop-color="#2CE6C4"/>
</linearGradient>
<linearGradient id="paint13_linear_2206_3546" x1="262.974" y1="192.55" x2="262.974" y2="145.339" gradientUnits="userSpaceOnUse">
<stop stop-color="#99B0FF"/>
<stop offset="1" stop-color="#2CE6C4"/>
</linearGradient>
<linearGradient id="paint14_linear_2206_3546" x1="252.45" y1="192.55" x2="252.45" y2="144.062" gradientUnits="userSpaceOnUse">
<stop stop-color="#99B0FF"/>
<stop offset="1" stop-color="#2CE6C4"/>
</linearGradient>
<linearGradient id="paint15_linear_2206_3546" x1="403.133" y1="289.286" x2="403.133" y2="281.261" gradientUnits="userSpaceOnUse">
<stop stop-color="#6366F3"/>
<stop offset="1" stop-color="#72CFED"/>
</linearGradient>
<linearGradient id="paint16_linear_2206_3546" x1="403.129" y1="281.285" x2="403.129" y2="248.327" gradientUnits="userSpaceOnUse">
<stop stop-color="#6366F3"/>
<stop offset="1" stop-color="#72CFED"/>
</linearGradient>
<linearGradient id="paint17_linear_2206_3546" x1="395.44" y1="281.285" x2="395.44" y2="248.57" gradientUnits="userSpaceOnUse">
<stop stop-color="#99B0FF"/>
<stop offset="1" stop-color="#2CE6C4"/>
</linearGradient>
<linearGradient id="paint18_linear_2206_3546" x1="411.013" y1="281.285" x2="411.013" y2="249.193" gradientUnits="userSpaceOnUse">
<stop stop-color="#99B0FF"/>
<stop offset="1" stop-color="#2CE6C4"/>
</linearGradient>
<linearGradient id="paint19_linear_2206_3546" x1="403.861" y1="281.285" x2="403.861" y2="248.326" gradientUnits="userSpaceOnUse">
<stop stop-color="#99B0FF"/>
<stop offset="1" stop-color="#2CE6C4"/>
</linearGradient>
<linearGradient id="paint20_linear_2206_3546" x1="586.176" y1="256.57" x2="586.176" y2="250.646" gradientUnits="userSpaceOnUse">
<stop stop-color="#6366F3"/>
<stop offset="1" stop-color="#72CFED"/>
</linearGradient>
<linearGradient id="paint21_linear_2206_3546" x1="586.172" y1="250.661" x2="586.172" y2="226.324" gradientUnits="userSpaceOnUse">
<stop stop-color="#6366F3"/>
<stop offset="1" stop-color="#72CFED"/>
</linearGradient>
<linearGradient id="paint22_linear_2206_3546" x1="580.497" y1="250.661" x2="580.497" y2="226.506" gradientUnits="userSpaceOnUse">
<stop stop-color="#99B0FF"/>
<stop offset="1" stop-color="#2CE6C4"/>
</linearGradient>
<linearGradient id="paint23_linear_2206_3546" x1="591.998" y1="250.661" x2="591.998" y2="226.965" gradientUnits="userSpaceOnUse">
<stop stop-color="#99B0FF"/>
<stop offset="1" stop-color="#2CE6C4"/>
</linearGradient>
<linearGradient id="paint24_linear_2206_3546" x1="586.715" y1="250.661" x2="586.715" y2="226.324" gradientUnits="userSpaceOnUse">
<stop stop-color="#99B0FF"/>
<stop offset="1" stop-color="#2CE6C4"/>
</linearGradient>
<linearGradient id="paint25_linear_2206_3546" x1="129.959" y1="98.0322" x2="129.959" y2="79.2178" gradientUnits="userSpaceOnUse">
<stop stop-color="#49B5D1"/>
<stop offset="1" stop-color="#829FFF"/>
</linearGradient>
<linearGradient id="paint26_linear_2206_3546" x1="129.956" y1="79.275" x2="129.956" y2="2.0026" gradientUnits="userSpaceOnUse">
<stop stop-color="#49B5D1"/>
<stop offset="1" stop-color="#829FFF"/>
</linearGradient>
<linearGradient id="paint27_linear_2206_3546" x1="111.93" y1="79.2751" x2="111.93" y2="2.5791" gradientUnits="userSpaceOnUse">
<stop stop-color="#99B0FF"/>
<stop offset="1" stop-color="#2CE6C4"/>
</linearGradient>
<linearGradient id="paint28_linear_2206_3546" x1="148.438" y1="79.2757" x2="148.438" y2="4.03613" gradientUnits="userSpaceOnUse">
<stop stop-color="#99B0FF"/>
<stop offset="1" stop-color="#2CE6C4"/>
</linearGradient>
<linearGradient id="paint29_linear_2206_3546" x1="131.669" y1="79.2753" x2="131.669" y2="2.00293" gradientUnits="userSpaceOnUse">
<stop stop-color="#99B0FF"/>
<stop offset="1" stop-color="#2CE6C4"/>
</linearGradient>
</defs>
</svg>
