<svg width="460" height="370" fill="none" xmlns="http://www.w3.org/2000/svg"><g clip-path="url(#a)"><path d="M241.501 110.181c-5.918-14.197-44.472-11.651-86.101 5.711-41.628 17.363-70.55 42.959-64.632 57.156.986 2.385 4.748 11.376 5.734 13.761 5.917 14.22 44.472 11.651 86.1-5.711 41.628-17.362 70.55-42.958 64.633-57.155-.987-2.386-4.748-11.376-5.734-13.762Z" fill="url(#b)" stroke="#29256A" stroke-linejoin="round"/><g style="mix-blend-mode:multiply" opacity=".3"><path d="M241.501 110.181c-5.918-14.197-44.472-11.651-86.101 5.711-41.628 17.363-70.55 42.959-64.632 57.156.986 2.385 4.748 11.376 5.734 13.761 5.917 14.22 44.472 11.651 86.1-5.711 41.628-17.362 70.55-42.958 64.633-57.155-.987-2.386-4.748-11.376-5.734-13.762Z" fill="url(#c)"/><path d="M241.501 110.181c-5.918-14.197-44.472-11.651-86.101 5.711-41.628 17.363-70.55 42.959-64.632 57.156.986 2.385 4.748 11.376 5.734 13.761 5.917 14.22 44.472 11.651 86.1-5.711 41.628-17.362 70.55-42.958 64.633-57.155-.987-2.386-4.748-11.376-5.734-13.762Z" stroke="#29256A" stroke-linejoin="round"/></g><path d="M241.501 110.181c-5.918-14.197-44.472-11.651-86.101 5.711-41.628 17.363-70.55 42.959-64.632 57.156.986 2.385 4.748 11.376 5.734 13.761 5.917 14.22 44.472 11.651 86.1-5.711 41.628-17.362 70.55-42.958 64.633-57.155-.987-2.386-4.748-11.376-5.734-13.762Z" stroke="#29256A" stroke-linejoin="round"/><mask id="e" style="mask-type:alpha" maskUnits="userSpaceOnUse" x="90" y="101" width="159" height="95"><path d="M241.501 110.181c-5.918-14.197-44.472-11.651-86.101 5.711-41.628 17.363-70.55 42.959-64.632 57.156.986 2.385 4.748 11.376 5.734 13.761 5.917 14.22 44.472 11.651 86.1-5.711 41.628-17.362 70.55-42.958 64.633-57.155-.987-2.386-4.748-11.376-5.734-13.762Z" fill="url(#d)"/></mask><g mask="url(#e)" stroke="#29256A"><path d="m70.087 93.483 54.671 150.931M80.66 90.991l54.67 150.932M91.228 88.502l54.671 150.932M101.8 86.014l54.671 150.931M122.945 81.037l54.671 150.931M133.517 78.547l54.671 150.932M112.373 83.525l54.67 150.932M144.091 76.06l54.671 150.931M154.664 73.57l54.67 150.932M165.236 71.082l54.671 150.931M175.808 68.593l54.671 150.931M186.378 66.104l54.671 150.932M196.949 63.615l54.671 150.932M207.521 61.125l54.671 150.931M218.095 58.636l53.355 151.228"/></g><path d="M90.768 173.048c5.917 14.22 44.472 11.651 86.1-5.711 41.628-17.362 70.55-42.959 64.633-57.156-5.918-14.197-44.472-11.651-86.101 5.711-41.628 17.363-70.55 42.959-64.632 57.156Z" fill="url(#f)" stroke="#29256A" stroke-linejoin="round"/><path opacity=".2" d="M132.535 180.595c13.28-2.225 28.578-6.674 44.335-13.234 41.146-17.156 69.862-42.362 64.793-56.651-86.467 14.679-129.128 36.903-109.128 69.885Z" fill="#fff"/><path d="M156.848 119.333c-35.137 14.656-59.518 36.376-54.449 48.532 1.904 4.587 7.775 7.156 16.193 7.775-6.445-.894-10.918-3.188-12.477-6.972-4.771-11.445 18.555-32.087 52.087-46.078 33.554-13.991 64.609-16.055 69.38-4.587 1.582 3.784.069 8.578-3.831 13.784 5.482-6.422 7.799-12.408 5.872-16.995-5.069-12.156-37.66-10.115-72.798 4.518l.023.023Z" fill="url(#g)" style="mix-blend-mode:multiply" opacity=".5"/><path d="M156.848 119.333c-35.137 14.656-59.518 36.376-54.449 48.532 1.904 4.587 7.775 7.156 16.193 7.775-6.445-.894-10.918-3.188-12.477-6.972-4.771-11.445 18.555-32.087 52.087-46.078 33.554-13.991 64.609-16.055 69.38-4.587 1.582 3.784.069 8.578-3.831 13.784 5.482-6.422 7.799-12.408 5.872-16.995-5.069-12.156-37.66-10.115-72.798 4.518l.023.023Z" stroke="#29256A" stroke-linejoin="round"/><path d="M203.243 141.719c18.864-14.242 18.322-25.537-1.203-25.278-9.715.141-22.331 3.136-34.852 7.852-.094.047-.189.071-.283.118-12.521 4.74-24.948 11.224-34.357 18.322-.896.684-1.721 1.344-2.547 2.005-.047.023-.07.07-.118.094-.542.448-1.037.872-1.532 1.297h-.024c-.448.401-.872.778-1.297 1.155-12.993 12.003-10.658 20.94 6.721 20.704 19.524-.283 50.627-12.05 69.468-26.269h.024Zm-7.711.118a83.73 83.73 0 0 1-7.617 5.094l.024-.024c4.079-4.645 4.009-8.135 2.429-10.116 11.79-7.711 13.04-11.083 9.998-11.767-.071 0-.165-.047-.26-.047-2.593-.424-7.71 1.156-11.413 3.49-3.725 2.334-4.645 4.575-2.051 4.999.236.047.472.047.731.071-.354.259-.731.542-1.132.825-2.547-.825-5.636-1.061-8.937-.967-1.203 0-2.476.095-3.82.213 4.079-2.594 9.479-5.471 14.95-7.523 5.282-1.98 10.47-3.042 13.842-2.594.637.095 1.226.26 1.65.472 0 0 .048 0 .071.024 4.858 3.136 2.075 9.951-8.465 17.897v-.047Zm-28.533 3.066a126.056 126.056 0 0 1-6.508 2.499c.283-1.438 1.061-2.947 2.217-4.527.07-.095.118-.165.188-.26a33.752 33.752 0 0 1 3.066-3.277c2.947-.33 5.47-.425 7.546-.236.117 0 .212 0 .33.023 1.249.142 2.405.401 3.442.779a115.97 115.97 0 0 1-9.762 4.763c-.165.071-.33.141-.519.212v.024Zm19.266-22.001h-.048c-9.385 3.749-17.52 8.536-22.731 12.262-13.653 2.947-21.105 6.791-23.817 9.668-.07.071-.141.165-.212.236-1.933 2.24-.165 3.395 3.938 2.57 4.103-.802 8.984-3.278 10.918-5.518.165-.188.306-.377.401-.566.495-.141.99-.259 1.533-.401-2.854 2.759-4.622 5.117-5.613 7.098a15.164 15.164 0 0 0-.943 2.17c-4.574.943-9.314 1.414-12.097.707-2.688-.684-3.254-2.57-.943-5.376.425-.519 1.038-1.132 1.698-1.698.613-.495 1.226-.991 1.886-1.486 12.286-9.22 31.245-17.143 46.03-19.666Zm-45.039 39.474c-7.546.118-11.437-2.004-11.696-5.518 5.305.896 13.511-.424 20.303-2.169 1.862 4.739 8.064 4.315 13.818 2.098.165-.07.306-.118.471-.188 4.528-1.816 7.876-4.528 7.499-6.061-.377-1.532-4.339-1.297-8.866.519-.401.165-.778.33-1.156.495-.118-.141-.259-.283-.377-.424a147.75 147.75 0 0 0 14.526-6.107c1.603-.779 3.207-1.557 4.763-2.382.495 1.651-.142 4.079-2.853 6.838-2.594 2.665-7.216 5.612-12.899 7.947a48.208 48.208 0 0 1-3.348 1.226h-.047c-7.334 2.264-14.385 3.632-20.138 3.702v.024Z" fill="url(#h)" stroke="#3442C0" stroke-linejoin="round"/><path style="mix-blend-mode:overlay" opacity=".9" d="M200.385 125.025s-.165-.047-.259-.047a6.974 6.974 0 0 0-1.604-.047c1.25 1.462-1.745 5.282-13.37 12.592-3.844 2.429-8.065 4.716-12.427 6.791a144.466 144.466 0 0 1-12.286 5.282c.166.59.425 1.108.755 1.509a147.507 147.507 0 0 0 14.526-6.107c4.362-2.075 8.559-4.363 12.427-6.791 13.865-8.725 15.445-12.474 12.214-13.182h.024Z" fill="url(#i)"/><path d="M185.158 137.547c11.625-7.31 14.62-11.13 13.37-12.592-.141 0-.283.023-.448.047 1.132 1.509-1.933 5.329-13.417 12.545-3.844 2.428-8.065 4.716-12.427 6.791a148.49 148.49 0 0 1-11.838 5.117c0 .071.024.118.048.188a143.8 143.8 0 0 0 12.285-5.282c4.362-2.075 8.56-4.362 12.427-6.791v-.023Z" fill="#fff" style="mix-blend-mode:overlay" opacity=".8"/><path style="mix-blend-mode:overlay" opacity=".5" d="M149.526 153.794a4.355 4.355 0 0 1-.095-.59c-6.791 1.344-14.596 2.052-19.359.637-.425 1.084-.637 2.098-.566 2.995 5.305.896 13.511-.425 20.302-2.17a5.661 5.661 0 0 1-.282-.896v.024Z" fill="url(#j)"/><path style="mix-blend-mode:overlay" opacity=".6" d="M149.432 153.204s-.024-.188-.024-.283c-6.767 1.297-14.478 1.91-19.1.425-.071.165-.142.33-.212.519 4.763 1.414 12.545.707 19.359-.637l-.023-.024Z" fill="url(#k)"/><path style="mix-blend-mode:overlay" opacity=".9" d="M139.699 144.856s-.142.165-.212.236c-.331.401-.566.754-.684 1.084 3.867-2.806 11.719-6.107 24.524-8.654 4.244-.849 8.041-1.249 11.295-1.297 2.829-.094 5.517.095 7.828.661a80.313 80.313 0 0 0 3.797-2.547c-2.547-.825-5.636-1.085-8.937-.967-3.254.047-7.051.472-11.295 1.297-15.257 3.018-23.463 7.121-26.34 10.187h.024Z" fill="url(#l)"/><path d="M163.325 137.522c-12.828 2.523-20.657 5.848-24.524 8.654-.023.07-.047.165-.071.235 3.938-2.782 11.72-6.036 24.359-8.536 4.245-.849 8.041-1.249 11.295-1.297 2.736-.07 5.33.095 7.593.613.165-.094.307-.188.448-.282-2.311-.566-4.999-.755-7.828-.661-3.255.047-7.051.472-11.296 1.297l.024-.023Z" fill="#fff" style="mix-blend-mode:overlay" opacity=".8"/><path style="mix-blend-mode:overlay" opacity=".4" d="M188.179 138.207c-.448.283-.919.566-1.391.849.613 2.547-.613 6.603-5.659 11.578a102.387 102.387 0 0 0 6.815-3.749c4.079-4.645 4.008-8.135 2.428-10.093-.707.449-1.438.944-2.216 1.415h.023Z" fill="url(#m)"/><path style="mix-blend-mode:overlay" opacity=".5" d="m186.787 139.056-.707.425c.519 2.593-.873 6.696-6.06 11.719.377-.188.731-.377 1.108-.566 5.046-4.975 6.272-9.031 5.659-11.578Z" fill="url(#n)"/><path style="mix-blend-mode:overlay" opacity=".9" d="M163.652 156.788c.165-.071.306-.118.471-.189.802-.33 1.557-.684 2.264-1.037-5.141 1.344-9.975.825-11.154-3.962-.4-1.58.024-3.466 1.132-5.494.849-1.698 2.264-3.679 4.457-5.942-1.603.33-3.16.683-4.551 1.037-2.853 2.759-4.598 5.117-5.589 7.098-1.108 2.028-1.532 3.914-1.132 5.494 1.415 5.707 8.018 5.353 14.102 2.995Z" fill="url(#o)"/><path d="M155.23 151.6c1.179 4.787 6.037 5.305 11.154 3.961.165-.094.33-.188.519-.259-5.047 1.273-9.786.707-10.965-4.009-.401-1.58.023-3.466 1.132-5.494.825-1.651 2.169-3.561 4.244-5.73-.165.023-.33.071-.519.094-2.193 2.264-3.608 4.245-4.456 5.942-1.109 2.028-1.533 3.915-1.132 5.495h.023Z" fill="#fff" style="mix-blend-mode:overlay" opacity=".8"/><path style="mix-blend-mode:overlay" opacity=".3" d="m166.003 134.671 1.486-.283c6.178-3.891 15.209-8.631 24.995-12.215-1.957.118-4.032.377-6.248.754-9.385 3.75-17.521 8.537-22.732 12.262.825-.165 1.651-.353 2.499-.518Z" fill="url(#p)"/><path style="mix-blend-mode:overlay" opacity=".4" d="M167.496 134.387c.236-.047.495-.094.731-.118 6.249-3.867 15.351-8.607 25.161-12.144-.283 0-.59.024-.896.047-9.81 3.584-18.818 8.348-24.996 12.215Z" fill="url(#q)"/><path d="M203.243 141.719c18.864-14.242 18.322-25.537-1.203-25.278-9.715.141-22.331 3.136-34.852 7.852-.094.047-.189.071-.283.118-12.521 4.74-24.948 11.224-34.357 18.322-.896.684-1.721 1.344-2.547 2.005-.047.023-.07.07-.118.094-.542.448-1.037.872-1.532 1.297h-.024c-.448.401-.872.778-1.297 1.155-12.993 12.003-10.658 20.94 6.721 20.704 19.524-.283 50.627-12.05 69.468-26.269h.024Zm-7.711.118a83.73 83.73 0 0 1-7.617 5.094l.024-.024c4.079-4.645 4.009-8.135 2.429-10.116 11.79-7.711 13.04-11.083 9.998-11.767-.071 0-.165-.047-.26-.047-2.593-.424-7.71 1.156-11.413 3.49-3.725 2.334-4.645 4.575-2.051 4.999.236.047.472.047.731.071-.354.259-.731.542-1.132.825-2.547-.825-5.636-1.061-8.937-.967-1.203 0-2.476.095-3.82.213 4.079-2.594 9.479-5.471 14.95-7.523 5.282-1.98 10.47-3.042 13.842-2.594.637.095 1.226.26 1.65.472 0 0 .048 0 .071.024 4.858 3.136 2.075 9.951-8.465 17.897v-.047Zm-28.533 3.066a126.056 126.056 0 0 1-6.508 2.499c.283-1.438 1.061-2.947 2.217-4.527.07-.095.118-.165.188-.26a33.752 33.752 0 0 1 3.066-3.277c2.947-.33 5.47-.425 7.546-.236.117 0 .212 0 .33.023 1.249.142 2.405.401 3.442.779a115.97 115.97 0 0 1-9.762 4.763c-.165.071-.33.141-.519.212v.024Zm19.266-22.001h-.048c-9.385 3.749-17.52 8.536-22.731 12.262-13.653 2.947-21.105 6.791-23.817 9.668-.07.071-.141.165-.212.236-1.933 2.24-.165 3.395 3.938 2.57 4.103-.802 8.984-3.278 10.918-5.518.165-.188.306-.377.401-.566.495-.141.99-.259 1.533-.401-2.854 2.759-4.622 5.117-5.613 7.098a15.164 15.164 0 0 0-.943 2.17c-4.574.943-9.314 1.414-12.097.707-2.688-.684-3.254-2.57-.943-5.376.425-.519 1.038-1.132 1.698-1.698.613-.495 1.226-.991 1.886-1.486 12.286-9.22 31.245-17.143 46.03-19.666Zm-45.039 39.474c-7.546.118-11.437-2.004-11.696-5.518 5.305.896 13.511-.424 20.303-2.169 1.862 4.739 8.064 4.315 13.818 2.098.165-.07.306-.118.471-.188 4.528-1.816 7.876-4.528 7.499-6.061-.377-1.532-4.339-1.297-8.866.519-.401.165-.778.33-1.156.495-.118-.141-.259-.283-.377-.424a147.75 147.75 0 0 0 14.526-6.107c1.603-.779 3.207-1.557 4.763-2.382.495 1.651-.142 4.079-2.853 6.838-2.594 2.665-7.216 5.612-12.899 7.947a48.208 48.208 0 0 1-3.348 1.226h-.047c-7.334 2.264-14.385 3.632-20.138 3.702v.024Z" stroke="#3442C0" stroke-linejoin="round"/><path d="M214.102 41.464c-20.997 24.458-11.473 67.113 21.253 95.267 32.726 28.153 76.263 31.137 97.248 6.66 3.514-4.099 6.962-8.103 10.465-12.22 20.984-24.477 11.461-67.132-21.265-95.286-32.714-28.135-76.252-31.118-97.236-6.642-3.515 4.1-6.963 8.103-10.465 12.22Z" fill="url(#r)"/><path d="M214.102 41.464c-20.997 24.458-11.473 67.113 21.253 95.267 32.726 28.153 76.263 31.137 97.248 6.66 3.514-4.099 6.962-8.103 10.465-12.22 20.984-24.477 11.461-67.132-21.265-95.286-32.714-28.135-76.252-31.118-97.236-6.642-3.515 4.1-6.963 8.103-10.465 12.22Z" fill="url(#s)" style="mix-blend-mode:multiply" opacity=".3"/><mask id="u" style="mask-type:alpha" maskUnits="userSpaceOnUse" x="202" y="12" width="153" height="148"><path d="M214.1 41.463c-20.997 24.458-11.473 67.114 21.253 95.267 32.726 28.154 76.263 31.137 97.248 6.661 3.515-4.1 6.962-8.103 10.465-12.221 20.984-24.476 11.461-67.131-21.265-95.285-32.714-28.135-76.252-31.119-97.236-6.642-3.515 4.1-6.962 8.102-10.465 12.22Z" fill="url(#t)"/></mask><g mask="url(#u)" stroke="#29256A"><path d="M305.536-41.686 192.128 65.292M311.837-33.226 198.429 73.752M318.136-24.767 204.728 82.21M324.434-16.306 211.026 90.672M337.03.617 223.622 107.594M343.329 9.078 229.921 116.056M330.731-7.844 217.323 99.134M349.63 17.541 236.222 124.519M355.925 26.002 242.517 132.98M362.226 34.463 248.817 141.441M368.522 42.924 255.114 149.902M374.823 51.386 261.415 158.363M381.12 59.845 267.712 166.822M387.419 68.305 274.011 175.283M393.718 76.768l-114.18 105.918"/></g><path d="M214.102 41.464c-20.997 24.458-11.473 67.113 21.253 95.267 32.726 28.153 76.263 31.137 97.248 6.66 3.514-4.099 6.962-8.103 10.465-12.22 20.984-24.477 11.461-67.132-21.265-95.286-32.714-28.135-76.252-31.118-97.236-6.642-3.515 4.1-6.963 8.103-10.465 12.22Z" stroke="#29256A" stroke-linejoin="round"/><path d="M332.612 143.405c20.982-24.472 11.46-67.132-21.27-95.282-32.73-28.15-76.272-31.132-97.254-6.66-20.983 24.473-11.46 67.132 21.27 95.283 32.729 28.15 76.272 31.132 97.254 6.659Z" fill="url(#v)" stroke="#29256A" stroke-linejoin="round"/><path opacity=".1" d="M210.661 46.036c-16.324 24.948-6.086 64.231 24.69 90.696 30.776 26.465 71.096 30.687 93.245 10.769L210.661 46.036Z" fill="#fff"/><path d="M240.428 130.816c27.635 23.761 64.576 26.063 82.518 5.139 6.781-7.904 9.876-17.995 9.614-28.793-.438 8.753-3.323 16.877-8.913 23.393-16.913 19.722-51.997 17.314-78.374-5.371-26.377-22.686-34.057-57.077-17.144-76.8 5.589-6.515 13.169-10.611 21.762-12.347-10.685 1.369-20.184 5.95-26.983 13.866-17.942 20.924-10.097 57.14 17.52 80.913Z" fill="url(#w)" style="mix-blend-mode:multiply" opacity=".5"/><path d="M240.428 130.816c27.635 23.761 64.576 26.063 82.518 5.139 6.781-7.904 9.876-17.995 9.614-28.793-.438 8.753-3.323 16.877-8.913 23.393-16.913 19.722-51.997 17.314-78.374-5.371-26.377-22.686-34.057-57.077-17.144-76.8 5.589-6.515 13.169-10.611 21.762-12.347-10.685 1.369-20.184 5.95-26.983 13.866-17.942 20.924-10.097 57.14 17.52 80.913Z" stroke="#29256A" stroke-linejoin="round"/><path d="M323.066 135.198s.412-.56 1.18-1.642c.376-.536.872-1.203 1.423-1.985.581-.776 1.005-1.788 1.617-2.872.297-.536.588-1.12.927-1.71.31-.596.498-1.296.777-1.976.505-1.405 1.178-2.868 1.502-4.545.414-1.659.895-3.413 1.033-5.333.129-.947.234-1.93.357-2.926.014-1.002.035-2.035.044-3.085.144-2.107-.2-4.282-.357-6.529-.07-1.13-.375-2.261-.565-3.415-.238-1.149-.344-2.333-.721-3.494-.675-2.322-1.242-4.716-2.225-7.07-.468-1.18-.832-2.402-1.396-3.57-.546-1.18-1.11-2.349-1.656-3.53-.51-1.203-1.237-2.342-1.897-3.5-.679-1.144-1.279-2.367-2.042-3.482-1.544-2.218-2.986-4.556-4.79-6.655-3.33-4.407-7.433-8.33-11.543-12.065-4.406-3.592-8.818-6.996-13.684-9.63-2.343-1.456-4.855-2.538-7.313-3.734-1.228-.599-2.512-1.004-3.729-1.505-1.241-.46-2.464-1.01-3.748-1.337-1.26-.368-2.501-.75-3.749-1.1-1.241-.381-2.507-.563-3.737-.847-2.465-.617-4.919-.823-7.307-1.126-1.188-.181-2.394-.115-3.558-.181-1.176-.007-2.309-.145-3.443-.049-2.251.182-4.464.182-6.504.642-1.026.182-2.051.364-3.041.521-.965.273-1.913.534-2.83.8-1.877.432-3.532 1.16-5.126 1.821-1.623.577-2.965 1.464-4.269 2.17-.64.37-1.287.693-1.836 1.083-.538.408-1.058.803-1.553 1.157-.955.762-1.922 1.348-2.593 2.027-.683.66-1.258 1.25-1.729 1.718a185.96 185.96 0 0 1-1.451 1.43s.496-.511 1.397-1.473c.459-.486 1.016-1.063 1.675-1.76.647-.715 1.571-1.326 2.532-2.118.472-.39.991-.786 1.535-1.224.538-.407 1.184-.73 1.819-1.15 1.286-.771 2.621-1.706 4.239-2.332 1.588-.71 3.243-1.517 5.12-2.026.936-.279 1.889-.57 2.861-.872.996-.188 2.04-.382 3.083-.576 2.095-.496 4.332-.538 6.607-.762 1.14-.127 2.309-.012 3.504-.018 1.182.055 2.394-.041 3.618.116 2.442.267 4.951.437 7.47 1.018 2.556.4 5.069 1.168 7.631 1.93 1.302.315 2.537.883 3.808 1.348 1.265.496 2.579.908 3.808 1.506 2.476 1.184 5.048 2.279 7.451 3.747 4.957 2.652 9.568 6.16 13.926 9.68 4.236 3.887 8.333 7.84 11.717 12.368 1.81 2.147 3.275 4.521 4.819 6.818.758 1.145 1.388 2.374 2.06 3.549.655 1.187 1.381 2.326 1.897 3.579 1.128 2.415 2.261 4.8 3.051 7.255.959 2.397 1.496 4.863 2.129 7.24.359 1.173.44 2.399.66 3.56.154 1.178.459 2.308.504 3.48.115 2.301.417 4.531.237 6.661a337.18 337.18 0 0 0-.117 3.133c-.141 1.008-.295 1.997-.43 2.975-.204 1.937-.751 3.709-1.214 5.374-.39 1.694-1.093 3.152-1.658 4.544-.297.692-.528 1.367-.855 1.976-.339.589-.66 1.167-.987 1.697-.655 1.059-1.109 2.065-1.702 2.823s-1.084 1.395-1.489 1.924c-.811 1.059-1.234 1.6-1.234 1.6l.06-.066Z" fill="#29256A"/><path d="M289.907 54.013c-24.013-14.478-50.319-10.096-58.811 9.781-4.223 9.908-3.224 21.785 1.821 33.013l-.014.012c.061.073.093.17.14.256 5.1 11.207 14.207 21.748 26.165 28.942a64.613 64.613 0 0 0 3.423 1.922c.051.032.101.064.154.07.757.39 1.513.779 2.286 1.13 0 0 .012.015.039.018.681.327 1.376.643 2.074.933 21.595 9.223 43.269 3.82 50.822-13.869 8.48-19.893-4.098-47.745-28.099-62.208Zm-3.348 7.846a55.604 55.604 0 0 1 8.176 6.063s-.039-.017-.065-.02c-8.819-2.584-16.852-1.361-22.152.92-12.24-9.46-19.442-9.594-22.423-6.26-.101.083-.162.183-.236.269-2.176 2.791-.956 7.502 2.699 10.52s8.382 3.193 10.544.413c.18-.248.348-.511.49-.777.445.276.903.566 1.384.886a25.845 25.845 0 0 0-6.418 9.47 27.203 27.203 0 0 0-1.313 3.835c-4.088-3.279-8.205-7.846-10.372-12.74-2.112-4.74-2.125-9.681.505-13.294a9.002 9.002 0 0 1 1.832-1.837l.086-.072c9.517-6.016 23.886-5.498 37.292 2.6l-.029.024Zm-6.266 28.165.012.014a39.907 39.907 0 0 1 2.719 5.823 34.724 34.724 0 0 1-9.368-.742c-.157-.043-.316-.06-.485-.119-1.938-.477-3.967-1.15-6.098-2.036.583-2.91 1.605-5.464 2.958-7.648.075-.112.139-.24.215-.352a20.681 20.681 0 0 1 3.365-3.774c2.57 2.727 4.72 5.53 6.425 8.378.081.156.176.3.271.444l-.014.012Zm-41.675-12.271.024.03c4.265 8.332 11.507 15.044 17.641 19.105.43 12.967 5.766 19.3 11.162 21.1.143.055.299.099.444.128 4.241 1.22 7.732-.974 7.784-4.905.052-3.931-3.364-8.088-7.605-9.308a8.322 8.322 0 0 0-1.089-.238c-.084-.451-.151-.94-.218-1.43 5.02 1.988 9.613 2.991 13.738 3.342a39.9 39.9 0 0 0 4.576.226c.02 4.367-1.109 9.065-4.057 12.148-2.834 2.988-7.459 4.19-12.806 2.77a19.5 19.5 0 0 1-3.125-1.153 59.238 59.238 0 0 1-2.556-1.427c-15.597-9.407-25.032-26.116-23.925-40.403l.012.015Zm69.888 32.758c-3.268 7.681-9.981 12.393-18.177 13.826 4.566-5.734 5.344-13.683 4.498-20.04 11.811-3.507 13.69-9.718 11.276-14.852l-.206-.424c-2.08-4-6.776-6.528-10.483-5.615-3.706.913-5.018 4.895-2.939 8.895.186.341.399.686.613 1.003a24.9 24.9 0 0 1-1.178.53c-1.955-4.87-4.508-9.123-7.308-12.798a60.627 60.627 0 0 0-3.263-4.06c4.054-1.077 9.314-1.22 14.429.59 4.946 1.752 9.558 5.49 12.316 10.513.523.953.971 2.02 1.278 3.003l.025.03c1.79 6.74 1.642 13.498-.864 19.36l-.017.039Z" fill="url(#x)" stroke="#3442C0" stroke-linejoin="round"/><path d="M271.81 73.937c-11.428-9.439-18.844-11.202-22.795-9.419-.052.142-.077.286-.116.443 3.981-1.66 11.35.192 22.629 9.481a58.525 58.525 0 0 1 9.852 10.421 54.816 54.816 0 0 1 6.249 10.38c.164-.035.3-.074.463-.11a54.542 54.542 0 0 0-6.445-10.763 56.736 56.736 0 0 0-9.852-10.421l.015-.012Z" fill="#fff" style="mix-blend-mode:overlay" opacity=".8"/><path style="mix-blend-mode:overlay" opacity=".6" d="m291.228 105.194-.691.126c-.192 6.473-2.339 14.168-7.946 19.401.359.026.705.036 1.078.05 5.469-5.342 7.473-13.093 7.559-19.577Z" fill="url(#y)"/><path style="mix-blend-mode:overlay" opacity=".9" d="M267.46 118c.142.056.299.099.444.128.757.216 1.47.319 2.177.329-4.656-3.033-8.624-9.927-8.47-22.188.049-4.052.86-7.794 2.279-11.122a26.072 26.072 0 0 1 5.196-8.236 47.419 47.419 0 0 0-4.095-3.026 25.93 25.93 0 0 0-6.433 9.483c-1.43 3.313-2.227 7.043-2.278 11.121-.185 14.614 5.472 21.597 11.194 23.499l-.014.012Z" fill="url(#z)"/><path d="M261.582 96.293c-.153 12.261 3.815 19.155 8.47 22.188.173.005.334-.004.495-.014-4.571-3.077-8.433-9.96-8.28-22.047.048-4.052.859-7.793 2.278-11.121a26.06 26.06 0 0 1 4.961-7.968l-.451-.37a26.054 26.054 0 0 0-5.196 8.237c-1.431 3.313-2.228 7.043-2.279 11.121l.002-.026Z" fill="#fff" style="mix-blend-mode:overlay" opacity=".8"/><path style="mix-blend-mode:overlay" opacity=".4" d="M274.775 70.643c.451.37.887.752 1.324 1.133 6.144-1.493 14.901-1.607 24.048 1.87a53.302 53.302 0 0 0-5.467-5.704c-8.818-2.584-16.851-1.361-22.139.934.729.56 1.468 1.162 2.246 1.782l-.012-.015Z" fill="url(#A)"/><path style="mix-blend-mode:overlay" opacity=".5" d="M276.087 71.762c.211.196.436.381.648.578 6.203-1.393 15.016-1.38 24.153 2.229l-.779-.941c-9.147-3.476-17.904-3.362-24.048-1.87l.026.004Z" fill="url(#B)"/><path style="mix-blend-mode:overlay" opacity=".9" d="m306.102 89.445-.206-.424c-.37-.709-.823-1.374-1.336-1.965.706 4.79-2.73 9.935-14.326 12.77-3.829.939-7.944 1.124-12.13.7-3.542-.288-7.419-1.067-11.627-2.538-.005 1.539.091 2.995.264 4.312 5.021 1.988 9.628 2.98 13.741 3.316 4.172.436 8.287.25 12.131-.701 13.803-3.373 16.051-10.012 13.487-15.443l.002-.027Z" fill="url(#C)"/><path d="M290.235 99.8c11.581-2.822 15.017-7.968 14.325-12.769a5.718 5.718 0 0 0-.379-.429c.591 4.737-2.916 9.768-14.349 12.566-3.829.939-7.944 1.125-12.13.7-3.422-.288-7.169-1.027-11.224-2.4-.013.158 0 .32-.013.48 4.208 1.47 8.099 2.238 11.627 2.538 4.172.437 8.287.251 12.131-.7l.012.014Z" fill="#fff" style="mix-blend-mode:overlay" opacity=".8"/><path style="mix-blend-mode:overlay" opacity=".3" d="M256.233 94.5c.013-.48.037-.947.061-1.413-6.071-5.005-12.811-12.627-16.489-21.445-.626 1.954-1.033 3.999-1.207 6.149 4.265 8.332 11.507 15.044 17.641 19.106a33.052 33.052 0 0 1-.02-2.385l.014-.012Z" fill="url(#D)"/><path style="mix-blend-mode:overlay" opacity=".4" d="M256.312 93.075c.019-.239.024-.466.044-.705-6.012-5.08-12.679-12.787-16.22-21.644a11.13 11.13 0 0 0-.3.892c3.679 8.818 10.419 16.44 16.49 21.445l-.014.012Z" fill="url(#E)"/><path d="M289.907 54.013c-24.013-14.478-50.319-10.096-58.811 9.781-4.223 9.908-3.224 21.785 1.821 33.013l-.014.012c.061.073.093.17.14.256 5.1 11.207 14.207 21.748 26.165 28.942a64.613 64.613 0 0 0 3.423 1.922c.051.032.101.064.154.07.757.39 1.513.779 2.286 1.13 0 0 .012.015.039.018.681.327 1.376.643 2.074.933 21.595 9.223 43.269 3.82 50.822-13.869 8.48-19.893-4.098-47.745-28.099-62.208Zm-3.348 7.846a55.604 55.604 0 0 1 8.176 6.063s-.039-.017-.065-.02c-8.819-2.584-16.852-1.361-22.152.92-12.24-9.46-19.442-9.594-22.423-6.26-.101.083-.162.183-.236.269-2.176 2.791-.956 7.502 2.699 10.52s8.382 3.193 10.544.413c.18-.248.348-.511.49-.777.445.276.903.566 1.384.886a25.845 25.845 0 0 0-6.418 9.47 27.203 27.203 0 0 0-1.313 3.835c-4.088-3.279-8.205-7.846-10.372-12.74-2.112-4.74-2.125-9.681.505-13.294a9.002 9.002 0 0 1 1.832-1.837l.086-.072c9.517-6.016 23.886-5.498 37.292 2.6l-.029.024Zm-6.266 28.165.012.014a39.907 39.907 0 0 1 2.719 5.823 34.724 34.724 0 0 1-9.368-.742c-.157-.043-.316-.06-.485-.119-1.938-.477-3.967-1.15-6.098-2.036.583-2.91 1.605-5.464 2.958-7.648.075-.112.139-.24.215-.352a20.681 20.681 0 0 1 3.365-3.774c2.57 2.727 4.72 5.53 6.425 8.378.081.156.176.3.271.444l-.014.012Zm-41.675-12.271.024.03c4.265 8.332 11.507 15.044 17.641 19.105.43 12.967 5.766 19.3 11.162 21.1.143.055.299.099.444.128 4.241 1.22 7.732-.974 7.784-4.905.052-3.931-3.364-8.088-7.605-9.308a8.322 8.322 0 0 0-1.089-.238c-.084-.451-.151-.94-.218-1.43 5.02 1.988 9.613 2.991 13.738 3.342a39.9 39.9 0 0 0 4.576.226c.02 4.367-1.109 9.065-4.057 12.148-2.834 2.988-7.459 4.19-12.806 2.77a19.5 19.5 0 0 1-3.125-1.153 59.238 59.238 0 0 1-2.556-1.427c-15.597-9.407-25.032-26.116-23.925-40.403l.012.015Zm69.888 32.758c-3.268 7.681-9.981 12.393-18.177 13.826 4.566-5.734 5.344-13.683 4.498-20.04 11.811-3.507 13.69-9.718 11.276-14.852l-.206-.424c-2.08-4-6.776-6.528-10.483-5.615-3.706.913-5.018 4.895-2.939 8.895.186.341.399.686.613 1.003a24.9 24.9 0 0 1-1.178.53c-1.955-4.87-4.508-9.123-7.308-12.798a60.627 60.627 0 0 0-3.263-4.06c4.054-1.077 9.314-1.22 14.429.59 4.946 1.752 9.558 5.49 12.316 10.513.523.953.971 2.02 1.278 3.003l.025.03c1.79 6.74 1.642 13.498-.864 19.36l-.017.039Z" stroke="#3442C0" stroke-linejoin="round"/><path d="M299.5 241.354c6.174-29.649-21.971-60.595-62.885-69.115-40.913-8.52-79.094 8.613-85.269 38.262l-3.867 18.569c-6.174 29.648 21.994 60.599 62.907 69.119 40.913 8.52 79.094-8.613 85.269-38.262l3.867-18.569-.022-.004Z" fill="url(#F)" stroke="#29256A" stroke-linejoin="round"/><g style="mix-blend-mode:multiply" opacity=".3"><path d="M299.5 241.354c6.174-29.649-21.971-60.595-62.885-69.115-40.913-8.52-79.094 8.613-85.269 38.262l-3.867 18.569c-6.174 29.648 21.994 60.599 62.907 69.119 40.913 8.52 79.094-8.613 85.269-38.262l3.867-18.569-.022-.004Z" fill="url(#G)"/><path d="M299.5 241.354c6.174-29.649-21.971-60.595-62.885-69.115-40.913-8.52-79.094 8.613-85.269 38.262l-3.867 18.569c-6.174 29.648 21.994 60.599 62.907 69.119 40.913 8.52 79.094-8.613 85.269-38.262l3.867-18.569-.022-.004Z" stroke="#29256A" stroke-linejoin="round"/></g><mask id="I" style="mask-type:alpha" maskUnits="userSpaceOnUse" x="146" y="169" width="155" height="132"><path d="M299.498 241.354c6.174-29.649-21.971-60.595-62.885-69.115-40.913-8.52-79.094 8.613-85.269 38.262l-3.867 18.569c-6.174 29.648 21.994 60.599 62.907 69.119 40.914 8.52 79.095-8.613 85.269-38.262l3.867-18.569-.022-.004Z" fill="url(#H)" stroke="#29256A" stroke-linejoin="round"/></mask><g mask="url(#I)" stroke="#29256A"><path d="m152.442 135.345-22.074 162.739M163.206 138.104l-22.075 162.739M173.968 140.864l-22.075 162.739M184.729 143.627l-22.074 162.738M206.253 149.149l-22.075 162.739M217.018 151.91l-22.074 162.739M195.491 146.387l-22.075 162.739M227.782 154.673l-22.075 162.738M238.546 157.434l-22.075 162.739M249.309 160.195l-22.074 162.739M260.071 162.957l-22.075 162.739M270.833 165.718l-22.075 162.739M281.594 168.478 259.52 331.217M292.358 171.238l-22.074 162.739M303.122 174l-23.409 162.382"/></g><path d="M299.5 241.354c6.174-29.649-21.971-60.595-62.885-69.115-40.913-8.52-79.094 8.613-85.269 38.262l-3.867 18.569c-6.174 29.648 21.994 60.599 62.907 69.119 40.913 8.52 79.094-8.613 85.269-38.262l3.867-18.569-.022-.004Z" stroke="#29256A"/><path d="M214.253 279.62c40.918 8.521 79.094-8.609 85.269-38.262 6.175-29.652-21.989-60.598-62.907-69.119-40.917-8.521-79.094 8.609-85.269 38.262-6.175 29.652 21.989 60.598 62.907 69.119Z" fill="url(#J)" stroke="#29256A" stroke-linejoin="round"/><path opacity=".2" d="M174.434 261.596c10.659 8.369 24.309 14.819 39.809 18.047 40.448 8.423 78.181-8.226 85.012-37.252-69.633-54.152-114.761-55.319-124.821 19.205Z" fill="#fff"/><path d="M235.116 179.418c-34.527-7.19-66.816 7.541-72.095 32.891-1.994 9.572.143 19.311 5.463 28.095-3.771-7.444-5.162-15.432-3.519-23.321 4.979-23.909 35.733-37.711 68.708-30.844 32.975 6.866 55.663 31.798 50.684 55.707-1.643 7.889-6.111 14.68-12.541 20 8.384-5.93 14.231-14.007 16.229-23.601 5.284-25.372-18.424-51.741-52.973-58.936l.044.009Z" fill="url(#K)" style="mix-blend-mode:multiply" opacity=".5"/><path d="M235.118 179.418c-34.527-7.19-66.816 7.541-72.095 32.891-1.994 9.572.143 19.311 5.463 28.095-3.772-7.444-5.162-15.432-3.519-23.321 4.979-23.909 35.733-37.711 68.708-30.844 32.975 6.866 55.663 31.798 50.684 55.707-1.643 7.889-6.112 14.68-12.541 20 8.384-5.93 14.231-14.007 16.229-23.601 5.284-25.372-18.424-51.741-52.973-58.936l.044.009Z" stroke="#29256A"/><path d="M275.475 233.936c1.842-19.832-18.893-38.993-46.339-42.838-13.67-1.913-26.426.337-36.005 5.546l-.021-.004-.202.138c-9.516 5.222-15.878 13.4-16.811 23.27a24.73 24.73 0 0 0-.099 2.823c-.008.043-.016.085-.003.132.013.619.048 1.243.107 1.849l-.004.021c.047.56.115 1.124.208 1.67 2.608 17.35 21.708 32.918 46.129 36.343 27.446 3.845 51.177-9.121 53.04-28.95Zm-10.84-1.507c-.224 2.447-.901 4.742-1.898 6.888l.008-.042c-2.4-6.933-8.608-12.805-14.355-16.496 3.28-10.372-.914-15.795-6.452-17.595-.144-.05-.309-.103-.452-.152-4.435-1.283-9.006.229-10.189 3.353-1.184 3.124 1.441 6.685 5.875 7.968.393.118.773.191 1.152.263-.047.365-.099.752-.171 1.135a62.836 62.836 0 0 0-14.506-3.614 67.664 67.664 0 0 0-5.106-.506c1.248-3.465 3.871-7.153 8.079-9.395 4.064-2.18 9.607-2.825 15.244-1.314 1.06.29 2.184.701 3.173 1.132.043.008.106.02.14.07 12.498 6.361 20.516 17.203 19.483 28.288l-.025.017Zm-35.416-1.128a29.762 29.762 0 0 1-4.898 2.772c-2.113-2.34-3.713-4.737-4.811-7.127a2.01 2.01 0 0 1-.168-.384 21.883 21.883 0 0 1-1.379-4.823c3.615.07 7.095.51 10.366 1.241l.527.1a48.914 48.914 0 0 1 6.278 2.051c-1.502 2.271-3.382 4.228-5.555 5.886-.126.086-.23.177-.356.263l-.004.021Zm-11.241-32.782-.025.018c-6.795 4.24-9.978 10.532-10.863 15.652-14.321 1.974-18.225 6.763-17.001 11.027.022.114.065.233.108.351 1.182 3.331 5.743 5.673 10.179 5.216 4.437-.458 7.079-3.548 5.897-6.879a6.206 6.206 0 0 0-.386-.844c.458-.112.962-.236 1.484-.335.791 4.006 2.405 7.595 4.5 10.725.738 1.175 1.59 2.329 2.51 3.473-4.895.569-10.859.318-16.09-1.491-5.066-1.755-9.184-5.048-10.815-9.236a9.028 9.028 0 0 1-.577-2.489c.003-.704.006-1.409.072-2.101 1.199-12.882 14.31-22.07 31.024-23.061l-.017-.026Zm5.198 56.554c-10.604-1.484-19.926-5.92-26.468-11.877 9.173 2.689 18.586 2.273 25.222.822 11.061 8.402 19.139 9.032 23.475 6.572.121-.065.243-.13.343-.199 3.257-2.069 3.263-5.902.01-8.569-3.254-2.666-8.52-3.137-11.776-1.068-.277.19-.532.384-.766.582-.411-.254-.843-.513-1.309-.821 4.289-2.094 7.529-4.542 9.981-7.095a28.47 28.47 0 0 0 2.596-2.966c3.643 2.917 6.987 6.835 8.007 10.906 1.001 3.936-.424 7.873-4.409 10.554-.754.518-1.673.982-2.592 1.337 0 0-.021-.004-.047.013-6.516 2.2-14.198 2.944-22.267 1.809Z" fill="url(#L)" stroke="#3442C0" stroke-linejoin="round"/><path d="M242.202 222.905c3.733-9.757 1.267-15.535-3.108-18.283-.19-.036-.367-.025-.565-.019 4.261 2.77 6.622 8.528 2.935 18.161-1.225 3.227-3.223 6.153-5.784 8.707-2.043 2.124-4.621 4.19-7.897 6.014.132.113.264.226.399.318 3.439-1.881 6.135-3.991 8.236-6.192 2.558-2.533 4.556-5.458 5.784-8.706Z" fill="#fff" style="mix-blend-mode:overlay" opacity=".8"/><path style="mix-blend-mode:overlay" opacity=".6" d="m218.773 241.436-.561-.502c-7.405.665-17.319.038-26.575-3.482.188.278.38.535.588.817 9.276 3.414 19.185 3.951 26.544 3.189l.004-.022Z" fill="url(#M)"/><path style="mix-blend-mode:overlay" opacity=".9" d="M190.069 225.212c.022.115.065.233.108.351.216.592.524 1.157.928 1.675.604-3.873 5.969-7.724 19.839-9.167 4.593-.472 9.292-.351 13.868.298a60.804 60.804 0 0 1 12.376 2.856c.454-1.236.76-2.389.941-3.457-5.097-1.937-9.977-3.062-14.506-3.613-4.577-.649-9.275-.769-13.868-.297-16.522 1.71-20.971 6.836-19.686 11.354Z" fill="url(#N)"/><path d="M210.944 218.071c-13.87 1.443-19.235 5.293-19.839 9.167l.302.366c.727-3.828 6.118-7.586 19.807-8.997 4.593-.472 9.291-.351 13.868.298a62.379 62.379 0 0 1 11.945 2.708c.045-.123.095-.268.14-.392a63.903 63.903 0 0 0-12.376-2.856c-4.577-.649-9.275-.77-13.868-.298l.021.004Z" fill="#fff" style="mix-blend-mode:overlay" opacity=".8"/><path style="mix-blend-mode:overlay" opacity=".4" d="M247.718 224.7c-.14.392-.319.755-.476 1.122 5.37 4.412 10.771 10.968 12.36 18.254a22.183 22.183 0 0 0 3.124-4.827c-2.378-6.929-8.607-12.805-14.338-16.471a37.967 37.967 0 0 1-.666 1.901l-.004.021Z" fill="url(#O)"/><path style="mix-blend-mode:overlay" opacity=".5" d="M247.22 225.841c-.079.183-.157.366-.261.567 5.295 4.464 10.574 11.085 12.007 18.386.197-.228.414-.451.614-.699-1.589-7.286-6.99-13.842-12.36-18.254Z" fill="url(#P)"/><path style="mix-blend-mode:overlay" opacity=".9" d="M245.382 250.566s.244-.13.344-.199a6.115 6.115 0 0 0 1.418-1.251c-4.958 1.13-12.81-.802-22.948-9.116-3.368-2.755-6.043-5.818-8.062-9-1.804-2.7-3.266-5.709-4.14-9.048-1.743.198-3.32.449-4.687.74.787 4.028 2.43 7.578 4.524 10.708 2.019 3.182 4.716 6.249 8.063 9 12.084 9.918 20.888 10.752 25.467 8.162l.021.004Z" fill="url(#Q)"/><path d="M224.221 240.004c10.137 8.314 17.985 10.267 22.947 9.116a3.1 3.1 0 0 0 .242-.351c-4.984 1.037-12.74-.942-22.742-9.165-3.368-2.754-6.043-5.818-8.062-9-1.736-2.599-3.151-5.511-4.049-8.722-.177.01-.358.042-.556.049.874 3.338 2.336 6.348 4.14 9.048 2.019 3.181 4.716 6.249 8.062 9l.018.025Z" fill="#fff" style="mix-blend-mode:overlay" opacity=".8"/><path style="mix-blend-mode:overlay" opacity=".3" d="M209.756 213.836a33.282 33.282 0 0 1 1.642-.129c1.988-5.175 6.497-11.193 14.188-15.087a53.51 53.51 0 0 0-7.627-.126c-6.794 4.24-9.978 10.532-10.863 15.652.854-.124 1.747-.219 2.664-.331l-.004.021Z" fill="url(#R)"/><path style="mix-blend-mode:overlay" opacity=".4" d="M211.374 213.703c.265-.016.556-.049.821-.065 2.093-5.155 6.746-11.123 14.568-14.904a19.355 19.355 0 0 0-1.181-.114c-7.707 3.868-12.22 9.908-14.187 15.087l-.021-.004Z" fill="url(#S)"/><path d="M275.475 233.936c1.842-19.833-18.893-38.994-46.339-42.839-13.67-1.912-26.426.337-36.005 5.547l-.021-.004-.202.138c-9.516 5.221-15.878 13.4-16.811 23.269-.09.931-.116 1.873-.099 2.824a.275.275 0 0 0-.003.131c.013.62.048 1.243.107 1.85l-.004.021c.047.56.115 1.123.208 1.67 2.608 17.35 21.708 32.918 46.129 36.343 27.446 3.845 51.177-9.122 53.04-28.95Zm-10.84-1.507c-.224 2.447-.901 4.742-1.898 6.888l.008-.043c-2.4-6.933-8.608-12.804-14.355-16.496 3.28-10.371-.914-15.794-6.452-17.595l-.452-.152c-4.435-1.282-9.006.229-10.189 3.354-1.184 3.124 1.441 6.685 5.875 7.967.393.119.773.191 1.152.263-.047.366-.099.752-.171 1.135a62.831 62.831 0 0 0-14.506-3.613 68.188 68.188 0 0 0-5.106-.507c1.248-3.464 3.871-7.152 8.079-9.394 4.064-2.181 9.607-2.825 15.244-1.314 1.06.289 2.184.701 3.173 1.131.043.008.106.02.14.071 12.498 6.36 20.516 17.203 19.483 28.287l-.025.018Zm-35.416-1.128a29.76 29.76 0 0 1-4.898 2.771c-2.113-2.34-3.713-4.736-4.811-7.126-.064-.123-.128-.245-.168-.385a21.874 21.874 0 0 1-1.379-4.822c3.615.069 7.095.509 10.366 1.241l.527.1a48.914 48.914 0 0 1 6.278 2.051c-1.502 2.271-3.382 4.227-5.555 5.886-.126.086-.23.176-.356.263l-.004.021Zm-11.241-32.782-.025.017c-6.795 4.24-9.978 10.532-10.863 15.652-14.321 1.974-18.225 6.763-17.001 11.028.022.114.065.232.108.351 1.182 3.331 5.743 5.673 10.179 5.215 4.437-.457 7.079-3.547 5.897-6.878a6.217 6.217 0 0 0-.386-.845c.458-.111.962-.236 1.484-.335.791 4.006 2.405 7.595 4.5 10.725.738 1.176 1.59 2.329 2.51 3.473-4.895.569-10.859.318-16.09-1.49-5.066-1.755-9.184-5.049-10.815-9.236a9.037 9.037 0 0 1-.577-2.489c.003-.705.006-1.409.072-2.102 1.199-12.882 14.31-22.07 31.024-23.061l-.017-.025Zm5.198 56.554c-10.604-1.485-19.926-5.921-26.468-11.878 9.173 2.689 18.586 2.273 25.222.823 11.061 8.401 19.139 9.032 23.475 6.572.121-.065.243-.13.343-.199 3.257-2.07 3.263-5.902.01-8.569-3.254-2.667-8.52-3.138-11.776-1.068-.277.19-.532.384-.766.581-.411-.254-.843-.512-1.309-.821 4.289-2.094 7.529-4.541 9.981-7.094a28.572 28.572 0 0 0 2.596-2.966c3.643 2.917 6.987 6.834 8.007 10.906 1.001 3.935-.424 7.873-4.409 10.554-.754.517-1.673.982-2.592 1.336 0 0-.021-.004-.047.013-6.516 2.2-14.198 2.945-22.267 1.81Z" stroke="#3442C0" stroke-linejoin="round"/></g><defs><linearGradient id="b" x1="78.5" y1="187.5" x2="241.5" y2="155.5" gradientUnits="userSpaceOnUse"><stop stop-color="#E6007A"/><stop offset=".21" stop-color="#703AC2"/><stop offset=".46" stop-color="#0070EB"/><stop offset=".77" stop-color="#0297FB"/><stop offset="1" stop-color="#0AE2FF"/></linearGradient><linearGradient id="c" x1="78.5" y1="187.5" x2="241.5" y2="155.5" gradientUnits="userSpaceOnUse"><stop stop-color="#E6007A"/><stop offset=".21" stop-color="#703AC2"/><stop offset=".46" stop-color="#0070EB"/><stop offset=".77" stop-color="#0297FB"/><stop offset="1" stop-color="#0AE2FF"/></linearGradient><linearGradient id="d" x1="126.001" y1="120.783" x2="237.521" y2="179.481" gradientUnits="userSpaceOnUse"><stop stop-color="#E6C1FF"/><stop offset=".406" stop-color="#B6C7FF"/><stop offset="1" stop-color="#AFF1FF"/></linearGradient><linearGradient id="f" x1="71.5" y1="172" x2="221" y2="138.5" gradientUnits="userSpaceOnUse"><stop stop-color="#E60068"/><stop offset=".21" stop-color="#703AC2"/><stop offset=".46" stop-color="#0070EB"/><stop offset=".77" stop-color="#0297FB"/><stop offset="1" stop-color="#0AE2FF"/></linearGradient><linearGradient id="g" x1="116.635" y1="100.363" x2="127.509" y2="184.15" gradientUnits="userSpaceOnUse"><stop stop-color="#E6007A"/><stop offset=".21" stop-color="#703AC2"/><stop offset=".46" stop-color="#0070EB"/><stop offset=".77" stop-color="#0297FB"/><stop offset="1" stop-color="#0AE2FF"/></linearGradient><linearGradient id="h" x1="141.145" y1="127.173" x2="206.098" y2="166.363" gradientUnits="userSpaceOnUse"><stop stop-color="#E6C1FF"/><stop offset=".406" stop-color="#B6C7FF"/><stop offset="1" stop-color="#AFF1FF"/></linearGradient><linearGradient id="k" x1="179.136" y1="155.401" x2="186.164" y2="155.543" gradientUnits="userSpaceOnUse"><stop stop-color="#fff" stop-opacity="0"/><stop offset="1" stop-color="#fff"/></linearGradient><linearGradient id="n" x1="122.92" y1="238.167" x2="126.081" y2="233.234" gradientUnits="userSpaceOnUse"><stop stop-color="#fff" stop-opacity="0"/><stop offset="1" stop-color="#fff"/></linearGradient><linearGradient id="q" x1="403.098" y1="21.717" x2="393.114" y2="26.783" gradientUnits="userSpaceOnUse"><stop stop-color="#fff" stop-opacity="0"/><stop offset="1" stop-color="#fff"/></linearGradient><linearGradient id="r" x1="204.283" y1="33.324" x2="338.902" y2="143.783" gradientUnits="userSpaceOnUse"><stop stop-color="#E6007A"/><stop offset=".21" stop-color="#703AC2"/><stop offset=".46" stop-color="#0070EB"/><stop offset=".77" stop-color="#0297FB"/><stop offset="1" stop-color="#0AE2FF"/></linearGradient><linearGradient id="s" x1="204.283" y1="33.324" x2="338.902" y2="143.783" gradientUnits="userSpaceOnUse"><stop stop-color="#E6007A"/><stop offset=".21" stop-color="#703AC2"/><stop offset=".46" stop-color="#0070EB"/><stop offset=".77" stop-color="#0297FB"/><stop offset="1" stop-color="#0AE2FF"/></linearGradient><linearGradient id="t" x1="204.281" y1="33.323" x2="338.9" y2="143.782" gradientUnits="userSpaceOnUse"><stop stop-color="#E6007A"/><stop offset=".21" stop-color="#703AC2"/><stop offset=".46" stop-color="#0070EB"/><stop offset=".77" stop-color="#0297FB"/><stop offset="1" stop-color="#0AE2FF"/></linearGradient><linearGradient id="v" x1="180.401" y1="68.663" x2="343.634" y2="136.688" gradientUnits="userSpaceOnUse"><stop stop-color="#E6007A"/><stop offset=".21" stop-color="#703AC2"/><stop offset=".46" stop-color="#0070EB"/><stop offset=".77" stop-color="#0297FB"/><stop offset="1" stop-color="#0AE2FF"/></linearGradient><linearGradient id="w" x1="196.589" y1="50.845" x2="316.933" y2="144.365" gradientUnits="userSpaceOnUse"><stop stop-color="#E6007A"/><stop offset=".21" stop-color="#703AC2"/><stop offset=".46" stop-color="#0070EB"/><stop offset=".77" stop-color="#0297FB"/><stop offset="1" stop-color="#0AE2FF"/></linearGradient><linearGradient id="x" x1="239.325" y1="80.406" x2="300.103" y2="50.543" gradientUnits="userSpaceOnUse"><stop stop-color="#E6C1FF"/><stop offset=".406" stop-color="#B6C7FF"/><stop offset="1" stop-color="#AFF1FF"/></linearGradient><linearGradient id="y" x1="282.529" y1="123.741" x2="286.805" y2="116.655" gradientUnits="userSpaceOnUse"><stop stop-color="#fff" stop-opacity="0"/><stop offset="1" stop-color="#fff"/></linearGradient><linearGradient id="B" x1="299.901" y1="72.906" x2="290.226" y2="72.944" gradientUnits="userSpaceOnUse"><stop stop-color="#fff" stop-opacity="0"/><stop offset="1" stop-color="#fff"/></linearGradient><linearGradient id="E" x1="241.717" y1="71.127" x2="246.908" y2="80.477" gradientUnits="userSpaceOnUse"><stop stop-color="#fff" stop-opacity="0"/><stop offset="1" stop-color="#fff"/></linearGradient><linearGradient id="F" x1="127.86" y1="269.245" x2="288.114" y2="280.052" gradientUnits="userSpaceOnUse"><stop stop-color="#E6007A"/><stop offset=".21" stop-color="#703AC2"/><stop offset=".46" stop-color="#0070EB"/><stop offset=".77" stop-color="#0297FB"/><stop offset="1" stop-color="#0AE2FF"/></linearGradient><linearGradient id="G" x1="127.86" y1="269.245" x2="288.114" y2="280.052" gradientUnits="userSpaceOnUse"><stop stop-color="#E6007A"/><stop offset=".21" stop-color="#703AC2"/><stop offset=".46" stop-color="#0070EB"/><stop offset=".77" stop-color="#0297FB"/><stop offset="1" stop-color="#0AE2FF"/></linearGradient><linearGradient id="H" x1="127.858" y1="269.245" x2="288.113" y2="280.052" gradientUnits="userSpaceOnUse"><stop stop-color="#E6007A"/><stop offset=".21" stop-color="#703AC2"/><stop offset=".46" stop-color="#0070EB"/><stop offset=".77" stop-color="#0297FB"/><stop offset="1" stop-color="#0AE2FF"/></linearGradient><linearGradient id="J" x1="124.981" y1="246.909" x2="278.829" y2="253.346" gradientUnits="userSpaceOnUse"><stop stop-color="#E60068"/><stop offset=".21" stop-color="#703AC2"/><stop offset=".46" stop-color="#0070EB"/><stop offset=".77" stop-color="#0297FB"/><stop offset="1" stop-color="#0AE2FF"/></linearGradient><linearGradient id="K" x1="188.485" y1="162.639" x2="182.468" y2="252.376" gradientUnits="userSpaceOnUse"><stop stop-color="#E6007A"/><stop offset=".21" stop-color="#703AC2"/><stop offset=".46" stop-color="#0070EB"/><stop offset=".77" stop-color="#0297FB"/><stop offset="1" stop-color="#0AE2FF"/></linearGradient><linearGradient id="L" x1="202.843" y1="201.27" x2="271.023" y2="248.287" gradientUnits="userSpaceOnUse"><stop stop-color="#E6C1FF"/><stop offset=".406" stop-color="#B6C7FF"/><stop offset="1" stop-color="#AFF1FF"/></linearGradient><linearGradient id="M" x1="192.618" y1="237.815" x2="203.152" y2="239.663" gradientUnits="userSpaceOnUse"><stop stop-color="#fff" stop-opacity="0"/><stop offset="1" stop-color="#fff"/></linearGradient><linearGradient id="P" x1="256.813" y1="244.715" x2="253.85" y2="236.713" gradientUnits="userSpaceOnUse"><stop stop-color="#fff" stop-opacity="0"/><stop offset="1" stop-color="#fff"/></linearGradient><linearGradient id="S" x1="224.878" y1="198.216" x2="219.511" y2="204.6" gradientUnits="userSpaceOnUse"><stop stop-color="#fff" stop-opacity="0"/><stop offset="1" stop-color="#fff"/></linearGradient><radialGradient id="i" cx="0" cy="0" r="1" gradientUnits="userSpaceOnUse" gradientTransform="matrix(12.49335 .47558 -.39343 10.33541 209.216 138.358)"><stop stop-color="#fff"/><stop offset="1" stop-color="#fff" stop-opacity="0"/></radialGradient><radialGradient id="j" cx="0" cy="0" r="1" gradientUnits="userSpaceOnUse" gradientTransform="matrix(7.25756 .27627 -.22855 6.00398 190.009 156.824)"><stop stop-color="#fff"/><stop offset="1" stop-color="#fff" stop-opacity="0"/></radialGradient><radialGradient id="l" cx="0" cy="0" r="1" gradientUnits="userSpaceOnUse" gradientTransform="rotate(-56.63 249.99 -6.916) scale(10.4566 12.3888)"><stop stop-color="#fff"/><stop offset="1" stop-color="#fff" stop-opacity="0"/></radialGradient><radialGradient id="m" cx="0" cy="0" r="1" gradientUnits="userSpaceOnUse" gradientTransform="rotate(-56.63 279.062 -4.082) scale(6.07436 7.19679)"><stop stop-color="#fff"/><stop offset="1" stop-color="#fff" stop-opacity="0"/></radialGradient><radialGradient id="o" cx="0" cy="0" r="1" gradientUnits="userSpaceOnUse" gradientTransform="matrix(-18.2345 8.22553 -2.66395 -5.90548 365.048 50.913)"><stop stop-color="#fff"/><stop offset="1" stop-color="#fff" stop-opacity="0"/></radialGradient><radialGradient id="p" cx="0" cy="0" r="1" gradientUnits="userSpaceOnUse" gradientTransform="rotate(155.72 190.406 55.777) scale(11.6205 3.76346)"><stop stop-color="#fff"/><stop offset="1" stop-color="#fff" stop-opacity="0"/></radialGradient><radialGradient id="z" cx="0" cy="0" r="1" gradientUnits="userSpaceOnUse" gradientTransform="matrix(-17.37034 -2.92083 2.66359 -15.84052 414.435 124.041)"><stop stop-color="#fff"/><stop offset="1" stop-color="#fff" stop-opacity="0"/></radialGradient><radialGradient id="A" cx="0" cy="0" r="1" gradientUnits="userSpaceOnUse" gradientTransform="matrix(-10.09488 -1.69746 1.54796 -9.20584 444.275 98.85)"><stop stop-color="#fff"/><stop offset="1" stop-color="#fff" stop-opacity="0"/></radialGradient><radialGradient id="C" cx="0" cy="0" r="1" gradientUnits="userSpaceOnUse" gradientTransform="matrix(10.43022 15.8663 -12.45273 8.1862 387.148 244.445)"><stop stop-color="#fff"/><stop offset="1" stop-color="#fff" stop-opacity="0"/></radialGradient><radialGradient id="D" cx="0" cy="0" r="1" gradientUnits="userSpaceOnUse" gradientTransform="rotate(56.68 -43.839 441.92) scale(11.0348 8.6607)"><stop stop-color="#fff"/><stop offset="1" stop-color="#fff" stop-opacity="0"/></radialGradient><radialGradient id="N" cx="0" cy="0" r="1" gradientUnits="userSpaceOnUse" gradientTransform="rotate(-118.128 191.519 58.89) scale(15.2528 17.2273)"><stop stop-color="#fff"/><stop offset="1" stop-color="#fff" stop-opacity="0"/></radialGradient><radialGradient id="O" cx="0" cy="0" r="1" gradientUnits="userSpaceOnUse" gradientTransform="rotate(-118.128 212.243 49.586) scale(8.8868 10.0372)"><stop stop-color="#fff"/><stop offset="1" stop-color="#fff" stop-opacity="0"/></radialGradient><radialGradient id="Q" cx="0" cy="0" r="1" gradientUnits="userSpaceOnUse" gradientTransform="rotate(139.628 319.052 64.857) scale(15.2528 17.2273)"><stop stop-color="#fff"/><stop offset="1" stop-color="#fff" stop-opacity="0"/></radialGradient><radialGradient id="R" cx="0" cy="0" r="1" gradientUnits="userSpaceOnUse" gradientTransform="rotate(139.628 324.647 45.271) scale(8.8868 10.0372)"><stop stop-color="#fff"/><stop offset="1" stop-color="#fff" stop-opacity="0"/></radialGradient><clipPath id="a"><path fill="#fff" d="M0 0h460v370H0z"/></clipPath></defs></svg>