<svg width="206" height="39" viewBox="0 0 206 39" fill="none" xmlns="http://www.w3.org/2000/svg">
<path d="M180.468 19.6653C179.407 18.9798 178.251 18.4834 177.155 17.8689C176.44 17.4789 175.677 17.1244 175.057 16.6162C174.008 15.7653 174.223 14.0753 175.319 13.3425C176.905 12.3025 179.515 12.8816 179.801 15.0089C179.801 15.0562 179.848 15.0916 179.896 15.0916H182.28C182.339 15.0916 182.387 15.0444 182.363 14.9734C182.342 14.3043 182.176 13.6475 181.876 13.0479C181.575 12.4483 181.148 11.92 180.623 11.4989C179.653 10.7571 178.463 10.3541 177.238 10.3525C170.945 10.3525 170.361 16.9589 173.758 19.0389C174.151 19.2753 177.477 20.9298 178.645 21.6507C179.837 22.3716 180.194 23.6953 179.694 24.7234C179.217 25.6807 178.025 26.3425 176.809 26.2598C175.498 26.1889 174.473 25.4798 174.116 24.3807C174.056 24.1798 174.02 23.7898 174.02 23.6362C174.018 23.612 174.007 23.5894 173.989 23.5722C173.972 23.555 173.949 23.5442 173.925 23.5416H171.339C171.303 23.5416 171.255 23.5889 171.255 23.6362C171.255 25.4798 171.72 26.508 172.983 27.4416C174.175 28.328 175.486 28.7062 176.821 28.7062C180.361 28.7062 182.185 26.7207 182.542 24.6762C182.876 22.6671 182.28 20.8589 180.468 19.6653ZM68.195 10.6953H65.7874C65.7697 10.6974 65.7527 10.704 65.7381 10.7143C65.7236 10.7246 65.7118 10.7384 65.704 10.7544L63.5825 17.6798C63.5825 17.7049 63.5724 17.7289 63.5546 17.7467C63.5367 17.7644 63.5124 17.7744 63.4871 17.7744C63.4619 17.7744 63.4376 17.7644 63.4197 17.7467C63.4018 17.7289 63.3918 17.7049 63.3918 17.6798L61.2703 10.7544C61.2584 10.7071 61.2226 10.6953 61.1749 10.6953H57.2299C57.1822 10.6953 57.1345 10.7425 57.1345 10.778V28.458C57.1345 28.5053 57.1822 28.5525 57.2299 28.5525H59.8162C59.8639 28.5525 59.9116 28.5053 59.9116 28.458V15.0089C59.9116 14.9025 60.0665 14.8907 60.0903 14.9853L62.2357 21.958L62.3906 22.4307C62.3906 22.4898 62.4264 22.5016 62.4741 22.5016H64.4645C64.5121 22.5016 64.536 22.4662 64.5479 22.4425L64.7028 21.9462L66.8482 14.9734C66.872 14.8789 67.027 14.9025 67.027 15.0089V28.4462C67.027 28.4934 67.0746 28.5407 67.1223 28.5407H69.7087C69.7563 28.5407 69.804 28.4934 69.804 28.4462V10.778C69.804 10.7425 69.7563 10.6953 69.7087 10.6953H68.195ZM140.875 10.6953C140.855 10.6954 140.835 10.701 140.819 10.7114C140.802 10.7219 140.788 10.7367 140.779 10.7544L138.658 17.6798C138.658 17.7049 138.648 17.7289 138.63 17.7467C138.612 17.7644 138.588 17.7744 138.562 17.7744C138.537 17.7744 138.513 17.7644 138.495 17.7467C138.477 17.7289 138.467 17.7049 138.467 17.6798L136.346 10.7544C136.346 10.7071 136.31 10.6953 136.262 10.6953H132.329C132.281 10.6953 132.234 10.7425 132.234 10.778V28.458C132.234 28.5053 132.281 28.5525 132.329 28.5525H134.915C134.951 28.5525 134.999 28.5053 134.999 28.458V15.0089C134.999 14.9025 135.154 14.8907 135.189 14.9853L137.335 21.958L137.478 22.4307C137.502 22.4898 137.526 22.5016 137.573 22.5016H139.552C139.571 22.5003 139.59 22.4942 139.607 22.4839C139.623 22.4736 139.637 22.4594 139.647 22.4425L139.802 21.9462L141.947 14.9734C141.971 14.8789 142.126 14.9025 142.126 15.0089V28.4462C142.126 28.4934 142.174 28.5407 142.221 28.5407H144.808C144.855 28.5407 144.903 28.4934 144.903 28.4462V10.778C144.903 10.7425 144.855 10.6953 144.808 10.6953H140.875ZM107.514 10.6953H95.2979C95.2621 10.6953 95.2145 10.7425 95.2145 10.778V12.9998C95.2145 13.0471 95.2621 13.0944 95.2979 13.0944H100.03V28.458C100.03 28.5171 100.077 28.5644 100.113 28.5644H102.699C102.747 28.5644 102.795 28.5171 102.795 28.4698V13.0825H107.514C107.562 13.0825 107.61 13.0353 107.61 12.988V10.778C107.61 10.7425 107.586 10.6953 107.514 10.6953ZM122.77 28.5525H125.13C125.19 28.5525 125.237 28.4816 125.214 28.4344L120.351 10.6953C120.351 10.648 120.315 10.6244 120.267 10.6244H116.871C116.852 10.6276 116.834 10.6359 116.819 10.6484C116.804 10.6609 116.793 10.6771 116.787 10.6953L111.924 28.4225C111.901 28.4816 111.948 28.5407 112.008 28.5407H114.368C114.415 28.5407 114.439 28.5171 114.463 28.4816L115.869 23.3289C115.881 23.2816 115.917 23.2698 115.965 23.2698H121.161C121.209 23.2698 121.245 23.2934 121.257 23.3289L122.663 28.4816C122.687 28.5171 122.735 28.5525 122.758 28.5525H122.77ZM116.596 20.7407L118.48 13.8271C118.48 13.802 118.49 13.778 118.508 13.7602C118.525 13.7425 118.55 13.7325 118.575 13.7325C118.6 13.7325 118.624 13.7425 118.642 13.7602C118.66 13.778 118.67 13.802 118.67 13.8271L120.553 20.7407C120.577 20.7998 120.53 20.8589 120.47 20.8589H116.692C116.62 20.8589 116.573 20.7998 116.596 20.7407ZM162.9 28.5525H165.26C165.32 28.5525 165.367 28.4816 165.355 28.4344L160.493 10.6834C160.469 10.6362 160.445 10.6125 160.397 10.6125H157.024C157.003 10.6137 156.983 10.621 156.966 10.6337C156.949 10.6463 156.936 10.6636 156.929 10.6834L152.066 28.4107C152.054 28.4698 152.102 28.5289 152.162 28.5289H154.51C154.557 28.5289 154.593 28.5053 154.605 28.4698L156.011 23.3171C156.035 23.2698 156.059 23.258 156.107 23.258H161.315C161.351 23.258 161.387 23.2816 161.398 23.3171L162.817 28.4698C162.817 28.5053 162.864 28.5407 162.9 28.5407V28.5525ZM156.726 20.7407L158.621 13.8271C158.628 13.809 158.64 13.7934 158.656 13.7824C158.672 13.7713 158.691 13.7654 158.711 13.7654C158.73 13.7654 158.749 13.7713 158.765 13.7824C158.781 13.7934 158.793 13.809 158.8 13.8271L160.695 20.7407C160.695 20.7998 160.66 20.8589 160.6 20.8589H156.822C156.762 20.8589 156.703 20.7998 156.726 20.7407ZM80.3043 25.9289V20.4453C80.3043 20.398 80.34 20.3507 80.3877 20.3507H87.2767C87.3243 20.3507 87.372 20.3034 87.372 20.268V18.058C87.3694 18.0338 87.3586 18.0112 87.3412 17.994C87.3239 17.9768 87.3011 17.966 87.2767 17.9634H80.3996C80.352 17.9634 80.3162 17.9162 80.3162 17.8689V13.1889C80.3162 13.1416 80.352 13.0944 80.3996 13.0944H88.2421C88.2898 13.0944 88.3374 13.0471 88.3374 12.9998V10.8016C88.3348 10.7774 88.324 10.7548 88.3066 10.7376C88.2893 10.7204 88.2665 10.7097 88.2421 10.7071H77.6345C77.6101 10.7097 77.5873 10.7204 77.57 10.7376C77.5526 10.7548 77.5418 10.7774 77.5392 10.8016V28.458C77.5392 28.5053 77.5869 28.5525 77.6345 28.5525H88.5639C88.6116 28.5525 88.6592 28.5053 88.6592 28.458V26.118C88.6566 26.0938 88.6458 26.0712 88.6284 26.054C88.6111 26.0368 88.5883 26.026 88.5639 26.0234H80.3877C80.34 26.0116 80.3162 25.9762 80.3162 25.9171L80.3043 25.9289ZM204.091 28.3989L195.152 19.2516C195.138 19.2349 195.131 19.214 195.131 19.1925C195.131 19.1711 195.138 19.1502 195.152 19.1334L203.197 10.8607C203.218 10.8513 203.234 10.8342 203.241 10.8132C203.249 10.7921 203.248 10.7688 203.239 10.7484C203.229 10.7281 203.212 10.7123 203.191 10.7045C203.17 10.6968 203.146 10.6977 203.126 10.7071H199.836C199.8 10.7071 199.788 10.7189 199.776 10.7425L192.947 17.7507C192.934 17.7614 192.918 17.7684 192.902 17.7711C192.885 17.7738 192.868 17.772 192.852 17.766C192.836 17.76 192.823 17.7499 192.812 17.7369C192.801 17.7238 192.795 17.7082 192.792 17.6916V10.8016C192.789 10.7774 192.779 10.7548 192.761 10.7376C192.744 10.7204 192.721 10.7097 192.697 10.7071H190.11C190.086 10.7097 190.063 10.7204 190.046 10.7376C190.029 10.7548 190.018 10.7774 190.015 10.8016V28.4698C190.015 28.5171 190.063 28.5644 190.11 28.5644H192.697C192.744 28.5644 192.792 28.5171 192.792 28.4698V20.6934C192.792 20.6107 192.899 20.5753 192.947 20.6344L200.694 28.5289C200.707 28.5445 200.723 28.5567 200.742 28.5644H204.043C204.103 28.5525 204.162 28.4462 204.091 28.3989Z" fill="white"/>
<path d="M39.4711 1.18164L23.8101 12.6689L26.7301 5.8971L39.4711 1.18164Z" fill="#E17726" stroke="#E17726" stroke-width="0.25" stroke-linecap="round" stroke-linejoin="round"/>
<path d="M3.35786 1.18164L18.8759 12.7635L16.0988 5.90891L3.35786 1.18164ZM33.8337 27.808L29.6622 34.1189L38.5893 36.5535L41.1398 27.9498L33.8337 27.808ZM1.70117 27.9498L4.23983 36.5535L13.143 34.1189L8.99536 27.808L1.70117 27.9498Z" fill="#E27625" stroke="#E27625" stroke-width="0.25" stroke-linecap="round" stroke-linejoin="round"/>
<path d="M12.6663 17.1482L10.1873 20.8591L19.007 21.2609L18.721 11.8418L12.6663 17.16V17.1482ZM30.1628 17.16L24.0128 11.7236L23.8102 21.2609L32.63 20.8591L30.1628 17.16ZM13.1431 34.1191L18.4945 31.5664L13.8939 28.0209L13.1431 34.1191ZM24.3466 31.5545L29.6623 34.1191L28.9471 28.0091L24.3466 31.5545Z" fill="#E27625" stroke="#E27625" stroke-width="0.25" stroke-linecap="round" stroke-linejoin="round"/>
<path d="M29.6623 34.1191L24.3466 31.5664L24.7756 34.9937L24.728 36.4473L29.6623 34.1191ZM13.1431 34.1191L18.1012 36.4473L18.0655 34.9937L18.4945 31.5664L13.1431 34.1191Z" fill="#D5BFB2" stroke="#D5BFB2" stroke-width="0.25" stroke-linecap="round" stroke-linejoin="round"/>
<path d="M18.1845 25.7401L13.7747 24.4637L16.8973 23.0455L18.1965 25.7401H18.1845ZM24.6325 25.7401L25.9436 23.0337L29.0781 24.4519L24.6325 25.7519V25.7401Z" fill="#233447" stroke="#233447" stroke-width="0.25" stroke-linecap="round" stroke-linejoin="round"/>
<path d="M13.143 34.1189L13.9177 27.808L8.99536 27.9498L13.143 34.1189ZM28.9114 27.808L29.6622 34.1189L33.8337 27.9498L28.9114 27.808ZM32.6419 20.8589L23.8221 21.2607L24.6326 25.7516L25.9436 23.0334L29.0782 24.4516L32.6419 20.8589ZM13.7747 24.4634L16.8974 23.0453L18.1965 25.7398L19.0189 21.2489L10.1991 20.8589L13.7747 24.4634Z" fill="#CC6228" stroke="#CC6228" stroke-width="0.25" stroke-linecap="round" stroke-linejoin="round"/>
<path d="M10.1992 20.8589L13.894 28.0089L13.7748 24.4634L10.1992 20.8589ZM29.0783 24.4634L28.9353 28.0089L32.63 20.8589L29.0783 24.4634ZM19.019 21.2607L18.1847 25.7516L19.2335 31.0462L19.4719 24.0616L19.019 21.2607ZM23.8103 21.2607L23.3812 24.0498L23.5957 31.0462L24.6326 25.7398L23.8103 21.2489V21.2607Z" fill="#E27525" stroke="#E27525" stroke-width="0.25" stroke-linecap="round" stroke-linejoin="round"/>
<path d="M24.6325 25.7402L23.5955 31.0466L24.3464 31.5666L28.9351 28.0211L29.0781 24.4639L24.6325 25.7402ZM13.7746 24.4639L13.8938 28.0093L18.4944 31.5548L19.2333 31.0466L18.1964 25.7402L13.7627 24.4639H13.7746Z" fill="#F5841F" stroke="#F5841F" stroke-width="0.25" stroke-linecap="round" stroke-linejoin="round"/>
<path d="M24.7399 36.4473L24.7756 34.9937L24.3704 34.6628H18.4588L18.0655 34.9937L18.1012 36.4473L13.1431 34.1191L14.8832 35.5373L18.3992 37.9364H24.4181L27.946 35.5255L29.6623 34.1191L24.728 36.4473H24.7399Z" fill="#C0AC9D" stroke="#C0AC9D" stroke-width="0.25" stroke-linecap="round" stroke-linejoin="round"/>
<path d="M24.3465 31.5546L23.5957 31.0464H19.2335L18.4945 31.5664L18.0654 34.9937L18.4587 34.6628H24.3704L24.7756 34.9937L24.3465 31.5664V31.5546Z" fill="#161616" stroke="#161616" stroke-width="0.25" stroke-linecap="round" stroke-linejoin="round"/>
<path d="M40.1387 13.4135L41.4497 7.09073L39.4713 1.18164L24.3346 12.2907L30.1628 17.148L38.3867 19.5235L40.1983 17.4316L39.4117 16.8644L40.6631 15.7298L39.7096 14.9971L40.9611 14.0516L40.1268 13.4135H40.1387ZM1.37939 7.07891L2.71428 13.4135L1.85614 14.0398L3.13143 14.9853L2.17794 15.7298L3.41748 16.8644L2.63085 17.4316L4.44248 19.5235L12.6663 17.1598L18.4945 12.2789L3.35788 1.18164L1.37939 7.07891Z" fill="#763E1A" stroke="#763E1A" stroke-width="0.25" stroke-linecap="round" stroke-linejoin="round"/>
<path d="M38.3866 19.5238L30.1628 17.1602L32.6419 20.8593L28.9471 28.0093L33.8337 27.9502H41.1398L38.3866 19.5238ZM12.6663 17.1484L4.44245 19.5238L1.70117 27.9502H9.00728L13.8939 28.0093L10.1991 20.8593L12.6782 17.1484H12.6663ZM23.8102 21.2611L24.3465 12.2793L26.7302 5.89746H16.0988L18.4826 12.2793L19.0189 21.2611L19.2215 24.0738V31.0466H23.5956L23.6195 24.0738L23.8102 21.2611Z" fill="#F5841F" stroke="#F5841F" stroke-width="0.25" stroke-linecap="round" stroke-linejoin="round"/>
</svg>
