<svg width="200" height="42" viewBox="0 0 200 42" fill="none" xmlns="http://www.w3.org/2000/svg">
<g clip-path="url(#clip0_2045_496)">
<path d="M55.2533 33.5703H60.1107V11.8197H69.3398V7.67676H46.1738V11.8197H55.2533V33.5703Z" fill="#FAFAFA"/>
<path d="M66.4868 28.8353C66.4868 32.0904 68.8782 34.1249 72.4653 34.1249C75.4918 34.1249 77.3973 32.3493 78.182 29.723H79.7887C79.8634 32.6082 80.5732 33.57 83.6373 33.57H85.5801V30.019H83.8239C82.8526 30.019 82.7031 29.834 82.7031 28.9092V21.474C82.7031 16.9981 79.9007 14.5938 74.7818 14.5938C69.7376 14.5938 66.599 17.257 66.2253 20.0314L70.3727 21.1041C70.8586 19.2176 72.2411 18.0339 74.7818 18.0339C77.1358 18.0339 78.182 19.0326 78.182 20.9193V21.5481C74.6323 21.8809 71.7926 22.5838 69.6629 23.6935C67.533 24.7663 66.4868 26.5048 66.4868 28.8353ZM78.182 25.987C78.182 29.1311 76.239 30.7217 73.9225 30.7217C72.1289 30.7217 71.1201 29.871 71.1201 28.3914C71.1201 26.024 73.7356 24.9882 78.182 24.5072V25.987Z" fill="#FAFAFA"/>
<path d="M88.5522 33.5703H93.1106V7.67676H88.5522V33.5703Z" fill="#FAFAFA"/>
<path d="M98.5093 12.2265H103.367V7.63965H98.5093V12.2265ZM98.6961 33.5702H103.217V15.1488H98.6961V33.5702Z" fill="#FAFAFA"/>
<path d="M107.087 28.8353C107.909 32.0904 111.421 34.0879 115.606 34.0879C120.725 34.0879 123.826 31.7575 123.826 28.1693C123.826 26.4678 123.191 25.1732 121.958 24.2853C120.725 23.3976 119.23 22.7688 117.474 22.4358L115.045 21.9919C112.803 21.5481 112.206 20.9932 112.206 19.9205C112.206 18.6997 113.289 17.8489 115.269 17.8489C117.399 17.8489 118.744 19.0696 119.342 20.6602L123.191 19.0326C122.331 16.7762 119.865 14.5938 115.419 14.5938C110.973 14.5938 107.871 16.9242 107.871 20.3274C107.871 23.8045 110.113 25.0991 113.887 25.8759L116.353 26.3198C118.445 26.7267 119.118 27.4666 119.118 28.6133C119.118 29.9079 117.922 30.7217 115.792 30.7217C112.841 30.7217 111.645 29.0941 111.309 27.4666L107.087 28.8353Z" fill="#FAFAFA"/>
<path d="M127.887 33.57H132.446V24.4703C132.446 22.3988 132.595 20.6972 133.753 19.3656C134.314 18.6998 135.173 18.3668 136.331 18.3668C138.573 18.3668 139.694 19.6984 139.694 22.3248V33.57H144.178V24.4703C144.178 22.3619 144.29 20.6972 145.448 19.3656C146.009 18.6998 146.906 18.3668 148.064 18.3668C150.194 18.3668 151.427 19.6245 151.427 22.3248V33.57H155.948V21.5481C155.948 17.0721 153.332 14.5938 149.745 14.5938C147.205 14.5938 145.15 16.3693 144.365 18.9217H142.758C142.123 16.1474 140.143 14.5938 137.639 14.5938C134.912 14.5938 133.305 16.4063 132.595 18.9217H130.465C131.25 17.8489 131.923 16.2214 131.923 15.1486H127.887V33.57Z" fill="#FAFAFA"/>
<path d="M160.153 28.8353C160.153 32.0904 162.545 34.1249 166.132 34.1249C169.158 34.1249 171.064 32.3493 171.848 29.723H173.455C173.529 32.6082 174.24 33.57 177.303 33.57H179.246V30.019H177.49C176.519 30.019 176.37 29.834 176.37 28.9092V21.474C176.37 16.9981 173.567 14.5938 168.448 14.5938C163.404 14.5938 160.266 17.257 159.892 20.0314L164.039 21.1041C164.525 19.2176 165.908 18.0339 168.448 18.0339C170.802 18.0339 171.848 19.0326 171.848 20.9193V21.5481C168.299 21.8809 165.459 22.5838 163.329 23.6935C161.2 24.7663 160.153 26.5048 160.153 28.8353ZM171.848 25.987C171.848 29.1311 169.905 30.7217 167.589 30.7217C165.795 30.7217 164.787 29.871 164.787 28.3914C164.787 26.024 167.402 24.9882 171.848 24.5072V25.987Z" fill="#FAFAFA"/>
<path d="M182.219 33.57H186.778V25.1361C186.778 22.9166 186.927 20.9932 188.161 19.5136C188.795 18.7368 189.766 18.3668 191.037 18.3668C193.167 18.3668 194.4 19.6615 194.4 22.3248V33.57H198.958V21.437C198.958 17.1831 196.754 14.5938 192.569 14.5938C189.505 14.5938 187.562 16.9242 186.74 19.4026H184.611C185.656 17.8859 186.404 16.2214 186.442 15.1486H182.219V33.57Z" fill="#FAFAFA"/>
<path fill-rule="evenodd" clip-rule="evenodd" d="M35.0374 23.7873C34.3815 24.4366 33.2418 24.1418 32.8549 23.3075C32.7785 23.143 32.7369 22.9666 32.7369 22.7855V8.39984C32.7369 6.66014 31.3125 5.24983 29.5551 5.24983C27.7979 5.24983 26.3733 6.66014 26.3733 8.39984V15.6809C26.3733 16.307 25.7254 16.732 25.1225 16.5433C24.7408 16.4239 24.4651 16.0799 24.4651 15.6836V3.98986C24.4651 2.25015 23.0406 0.839844 21.2833 0.839844C19.526 0.839844 18.1014 2.25015 18.1014 3.98986V15.6828C18.1014 16.0793 17.8255 16.4235 17.4436 16.543C16.8402 16.7318 16.192 16.3065 16.192 15.68V8.39984C16.192 6.66014 14.7674 5.24983 13.0101 5.24983C11.2529 5.24983 9.8283 6.66014 9.8283 8.39984L9.82832 22.7906C9.82832 22.968 9.78759 23.141 9.71268 23.3023C9.33368 24.1184 8.2199 24.4042 7.57832 23.769L6.39462 22.5972C5.15205 21.3669 3.13742 21.3669 1.89483 22.5972C0.652243 23.8273 0.652246 25.8218 1.89483 27.0519L11.2488 36.3124C13.5782 39.263 17.2066 41.1598 21.2826 41.1598C25.189 41.1598 28.6844 39.4175 31.0191 36.6749L40.7393 27.0519C41.9819 25.8218 41.9819 23.8273 40.7393 22.5972C39.4967 21.3669 37.482 21.3669 36.2395 22.5972L35.0374 23.7873ZM21.2819 36.12C26.9051 36.12 31.4637 29.82 31.4637 29.82C31.4637 29.82 26.9051 23.5198 21.2819 23.5198C15.6586 23.5198 11.1 29.82 11.1 29.82C11.1 29.82 15.6586 36.12 21.2819 36.12Z" fill="#FAFAFA"/>
<path d="M25.1001 29.8181C25.1001 31.9058 23.3906 33.5981 21.2818 33.5981C19.1731 33.5981 17.4636 31.9058 17.4636 29.8181C17.4636 27.7305 19.1731 26.0381 21.2818 26.0381C23.3906 26.0381 25.1001 27.7305 25.1001 29.8181Z" fill="#FAFAFA"/>
</g>
<defs>
<clipPath id="clip0_2045_496">
<rect width="198.545" height="42" fill="white" transform="translate(0.962891)"/>
</clipPath>
</defs>
</svg>
