<svg width="260" height="56" viewBox="0 0 260 56" fill="none" xmlns="http://www.w3.org/2000/svg">
<path d="M81.4265 29.4519V28.8031C81.4265 27.1729 80.8689 25.9253 79.7542 25.0602C78.6731 24.1619 77.2542 23.7128 75.4974 23.7128C74.1462 23.7128 73.0818 23.9457 72.305 24.4115C71.5617 24.844 70.8522 25.5094 70.1766 26.4077C69.9738 26.6739 69.7543 26.8568 69.5177 26.9566C69.2815 27.0565 68.9604 27.1064 68.5549 27.1064H67.0348C66.6631 27.1064 66.3253 26.9733 66.0213 26.7071C65.7509 26.441 65.6329 26.1249 65.6664 25.7589C65.768 24.7608 66.2576 23.7793 67.136 22.8145C68.0482 21.8164 69.2476 21.0013 70.7339 20.3691C72.2205 19.737 73.8084 19.4209 75.4974 19.4209C78.6393 19.4209 81.1728 20.286 83.0985 22.016C85.058 23.7461 86.0379 26.1748 86.0379 29.3022V44.5233C86.0379 44.8892 85.9025 45.2055 85.6324 45.4715C85.3619 45.7375 85.0412 45.8707 84.6695 45.8707H82.7945C82.4229 45.8707 82.1021 45.7375 81.8317 45.4715C81.5616 45.2055 81.4265 44.8892 81.4265 44.5233V42.4771C80.8859 43.6749 79.7371 44.6232 77.9804 45.3219C76.2237 46.0206 74.4669 46.3698 72.7102 46.3698C70.9873 46.3698 69.4504 46.0703 68.0988 45.4715C66.7476 44.8393 65.7003 43.9909 64.957 42.9263C64.2475 41.8616 63.8929 40.6641 63.8929 39.3331C63.8929 36.8378 64.839 34.8916 66.7308 33.4941C68.6226 32.0635 71.1394 31.0988 74.2812 30.5997L81.4265 29.4519ZM81.4265 33.4445L75.4468 34.3924C73.2507 34.7252 71.5449 35.2743 70.3287 36.0394C69.1126 36.7713 68.5043 37.7029 68.5043 38.8343C68.5043 39.6658 68.8927 40.4145 69.6699 41.08C70.4467 41.7452 71.6294 42.0779 73.2172 42.0779C75.6496 42.0779 77.6258 41.396 79.146 40.0318C80.6661 38.6679 81.4265 36.8877 81.4265 34.692V33.4445Z" fill="#0C0C0E"/>
<path d="M98.0425 44.5233C98.0425 44.8892 97.9075 45.2055 97.637 45.4715C97.3669 45.7375 97.0459 45.8707 96.6742 45.8707H94.7995C94.4278 45.8707 94.1068 45.7375 93.8367 45.4715C93.5662 45.2055 93.4312 44.8892 93.4312 44.5233V11.7854C93.4312 11.4194 93.5662 11.1034 93.8367 10.8372C94.1068 10.571 94.4278 10.438 94.7995 10.438H96.6742C97.0459 10.438 97.3669 10.571 97.637 10.8372C97.9075 11.1034 98.0425 11.4194 98.0425 11.7854V44.5233Z" fill="#0C0C0E"/>
<path d="M116.296 42.0779C119.674 42.0779 121.955 40.7805 123.137 38.1852C123.373 37.6864 123.61 37.3369 123.847 37.1373C124.083 36.9377 124.404 36.8378 124.809 36.8378H126.33C126.701 36.8378 127.022 36.9709 127.292 37.2373C127.563 37.4701 127.698 37.7528 127.698 38.0856C127.698 39.2167 127.242 40.431 126.33 41.7287C125.417 43.0262 124.1 44.1241 122.377 45.0224C120.654 45.9207 118.627 46.3698 116.296 46.3698C113.897 46.3698 111.82 45.8707 110.063 44.8728C108.306 43.8745 106.955 42.5106 106.009 40.7805C105.063 39.0171 104.54 37.0541 104.438 34.8916C104.404 34.4924 104.387 33.7273 104.387 32.5958C104.387 31.7975 104.404 31.2319 104.438 30.8992C104.742 27.5056 105.908 24.7442 107.935 22.6149C109.962 20.4856 112.749 19.4209 116.296 19.4209C118.627 19.4209 120.637 19.8701 122.326 20.7684C124.049 21.6334 125.35 22.7147 126.228 24.0122C127.14 25.2765 127.63 26.4742 127.698 27.6054C127.731 27.9714 127.596 28.2875 127.292 28.5536C127.022 28.8198 126.701 28.9529 126.33 28.9529H124.809C124.404 28.9529 124.083 28.853 123.847 28.6534C123.61 28.4538 123.373 28.1045 123.137 27.6054C121.955 25.0103 119.674 23.7128 116.296 23.7128C114.438 23.7128 112.816 24.3283 111.431 25.5593C110.046 26.7903 109.252 28.6534 109.049 31.1487C109.016 31.5147 108.999 32.1135 108.999 32.9454C108.999 33.7105 109.016 34.276 109.049 34.642C109.286 37.1373 110.08 39.0003 111.431 40.2314C112.816 41.4624 114.438 42.0779 116.296 42.0779Z" fill="#0C0C0E"/>
<path d="M157.174 44.5233C157.174 44.8892 157.039 45.2055 156.769 45.4715C156.499 45.7375 156.178 45.8707 155.806 45.8707H153.931C153.56 45.8707 153.239 45.7375 152.969 45.4715C152.698 45.2055 152.563 44.8892 152.563 44.5233V31.3483C152.563 28.853 151.938 26.9567 150.688 25.6591C149.438 24.3616 147.698 23.7128 145.469 23.7128C143.273 23.7128 141.533 24.3616 140.249 25.6591C138.999 26.9567 138.374 28.853 138.374 31.3483V44.5233C138.374 44.8892 138.239 45.2055 137.969 45.4715C137.699 45.7375 137.378 45.8707 137.006 45.8707H135.131C134.759 45.8707 134.439 45.7375 134.168 45.4715C133.898 45.2055 133.763 44.8892 133.763 44.5233V11.7854C133.763 11.4194 133.898 11.1034 134.168 10.8372C134.439 10.571 134.759 10.438 135.131 10.438H137.006C137.378 10.438 137.699 10.571 137.969 10.8372C138.239 11.1034 138.374 11.4194 138.374 11.7854V22.8145C139.117 21.8497 140.131 21.0512 141.415 20.419C142.732 19.7536 144.337 19.4209 146.229 19.4209C148.357 19.4209 150.249 19.8701 151.905 20.7684C153.56 21.6667 154.844 22.9642 155.756 24.661C156.702 26.3245 157.174 28.3041 157.174 30.5997V44.5233Z" fill="#0C0C0E"/>
<path d="M174.932 19.4209C178.547 19.4209 181.402 20.5521 183.496 22.8145C185.591 25.0769 186.638 28.1544 186.638 32.0471V33.3945C186.638 33.7605 186.503 34.0765 186.232 34.3428C185.962 34.6088 185.641 34.742 185.27 34.742H167.838V35.0412C167.905 37.2373 168.581 38.9671 169.864 40.2314C171.182 41.4624 172.871 42.0779 174.932 42.0779C176.621 42.0779 177.922 41.8616 178.834 41.4292C179.78 40.9968 180.624 40.3813 181.368 39.5826C181.638 39.3166 181.874 39.1335 182.077 39.0339C182.314 38.9339 182.618 38.8839 182.989 38.8839H184.509C184.915 38.8839 185.253 39.0171 185.523 39.2834C185.793 39.5494 185.911 39.8654 185.878 40.2314C185.742 41.1297 185.236 42.0615 184.357 43.0262C183.513 43.9577 182.28 44.7564 180.658 45.4216C179.07 46.0539 177.162 46.3698 174.932 46.3698C172.77 46.3698 170.844 45.8875 169.155 44.9224C167.466 43.9245 166.115 42.5603 165.101 40.8304C164.121 39.1003 163.53 37.1541 163.327 34.9915C163.26 33.9933 163.226 33.2281 163.226 32.6958C163.226 32.1635 163.26 31.3982 163.327 30.4001C163.53 28.3373 164.121 26.4742 165.101 24.8107C166.115 23.1472 167.449 21.833 169.104 20.8682C170.794 19.9034 172.736 19.4209 174.932 19.4209ZM182.077 30.5498V30.4001C182.077 28.3706 181.418 26.757 180.101 25.5593C178.817 24.3283 177.094 23.7128 174.932 23.7128C172.973 23.7128 171.3 24.3283 169.915 25.5593C168.564 26.7903 167.871 28.4039 167.838 30.4001V30.5498H182.077Z" fill="#0C0C0E"/>
<path d="M197.363 22.8145C198.174 21.7831 199.086 20.968 200.099 20.3691C201.113 19.737 202.464 19.4209 204.153 19.4209C208.106 19.4209 210.876 20.8682 212.464 23.7627C213.444 22.3654 214.558 21.3007 215.808 20.5688C217.058 19.8035 218.697 19.4209 220.724 19.4209C224.034 19.4209 226.484 20.4024 228.072 22.3654C229.693 24.3283 230.504 27.1064 230.504 30.6996V44.5233C230.504 44.8892 230.369 45.2055 230.098 45.4715C229.828 45.7375 229.507 45.8707 229.136 45.8707H227.261C226.889 45.8707 226.568 45.7375 226.298 45.4715C226.028 45.2055 225.893 44.8892 225.893 44.5233V31.1986C225.893 26.2081 223.899 23.7128 219.913 23.7128C218.089 23.7128 216.636 24.3117 215.555 25.5094C214.474 26.7071 213.933 28.4871 213.933 30.8493V44.5233C213.933 44.8892 213.798 45.2055 213.528 45.4715C213.258 45.7375 212.937 45.8707 212.565 45.8707H210.69C210.319 45.8707 209.997 45.7375 209.727 45.4715C209.457 45.2055 209.322 44.8892 209.322 44.5233V31.1986C209.322 26.2081 207.329 23.7128 203.342 23.7128C201.518 23.7128 200.065 24.3117 198.984 25.5094C197.903 26.7071 197.363 28.4871 197.363 30.8493V44.5233C197.363 44.8892 197.227 45.2055 196.957 45.4715C196.687 45.7375 196.366 45.8707 195.995 45.8707H194.119C193.748 45.8707 193.427 45.7375 193.157 45.4715C192.887 45.2055 192.751 44.8892 192.751 44.5233V21.2674C192.751 20.9014 192.887 20.5854 193.157 20.3192C193.427 20.0531 193.748 19.92 194.119 19.92H195.995C196.366 19.92 196.687 20.0531 196.957 20.3192C197.227 20.5854 197.363 20.9014 197.363 21.2674V22.8145Z" fill="#0C0C0E"/>
<path d="M244.696 54.155C244.392 54.9536 243.902 55.3528 243.227 55.3528H241.149C240.811 55.3528 240.524 55.2364 240.288 55.0036C240.051 54.7705 239.933 54.4877 239.933 54.155C239.933 54.0221 239.95 53.9054 239.983 53.8058L244.848 43.3754L234.815 21.467C234.781 21.3672 234.764 21.2508 234.764 21.1177C234.764 20.785 234.882 20.5022 235.119 20.2693C235.355 20.0364 235.643 19.92 235.98 19.92H238.058C238.733 19.92 239.223 20.3192 239.527 21.1177L247.331 38.0856L255.236 21.1177C255.541 20.3192 256.03 19.92 256.706 19.92H258.784C259.122 19.92 259.409 20.0364 259.645 20.2693C259.882 20.5022 260 20.785 260 21.1177C260 21.2508 259.983 21.3672 259.949 21.467L244.696 54.155Z" fill="#0C0C0E"/>
<path d="M44.7336 29.3612L27.7179 0.472821C27.6355 0.330175 27.5162 0.211351 27.372 0.12834C27.2278 0.0453289 27.0638 0.00106642 26.8966 1.90303e-05C26.7293 -0.00102836 26.5648 0.0411762 26.4196 0.122374C26.2743 0.203572 26.1535 0.320891 26.0693 0.462493L20.9733 9.1187C20.8064 9.40204 20.7185 9.72346 20.7185 10.0506C20.7185 10.3778 20.8064 10.6993 20.9733 10.9826L32.0685 29.8285C32.2355 30.1121 32.4759 30.3476 32.7653 30.5112C33.0547 30.6748 33.3831 30.7608 33.7171 30.7604H43.9093C44.076 30.76 44.2398 30.7165 44.384 30.6346C44.5286 30.5526 44.6485 30.4349 44.732 30.2933C44.8155 30.1516 44.8594 29.991 44.8598 29.8274C44.8598 29.6639 44.8164 29.5031 44.7336 29.3612Z" fill="#0C0C0E"/>
<path d="M0.131208 44.4594L17.1468 15.571C17.2303 15.4295 17.3503 15.312 17.4947 15.2303C17.6392 15.1486 17.803 15.1056 17.9698 15.1056C18.1365 15.1056 18.3004 15.1486 18.4449 15.2303C18.5893 15.312 18.7093 15.4295 18.7928 15.571L23.8914 24.2194C24.0583 24.5033 24.1461 24.8251 24.1461 25.1527C24.1461 25.4803 24.0583 25.8021 23.8914 26.0859L12.7961 44.932C12.6297 45.2154 12.3899 45.451 12.1009 45.6145C11.8118 45.7781 11.4839 45.8641 11.1501 45.8638H0.955519C0.787582 45.8647 0.622425 45.8217 0.476834 45.7398C0.331241 45.6576 0.210429 45.5393 0.126675 45.3966C0.0429206 45.254 -0.00078848 45.092 1.07675e-05 44.9275C0.000810017 44.7627 0.0460719 44.6014 0.131208 44.4594Z" fill="#0C0C0E"/>
<path d="M18.7904 45.8574H52.8215C52.9885 45.8574 53.1523 45.8141 53.2969 45.7322C53.4414 45.6502 53.5613 45.5323 53.6445 45.3906C53.7277 45.2489 53.7717 45.0879 53.7714 44.9243C53.771 44.7605 53.7271 44.5998 53.6432 44.4584L48.5524 35.8047C48.3854 35.521 48.145 35.2857 47.8556 35.1221C47.5661 34.9583 47.2378 34.8726 46.9038 34.8729H24.7133C24.3792 34.8726 24.0509 34.9583 23.7615 35.1221C23.4721 35.2857 23.2317 35.521 23.0647 35.8047L17.9687 44.4584C17.885 44.5998 17.8408 44.7605 17.8406 44.9243C17.8404 45.0879 17.884 45.2489 17.9673 45.3906C18.0506 45.5323 18.1705 45.6502 18.315 45.7322C18.4595 45.8141 18.6234 45.8574 18.7904 45.8574Z" fill="#0C0C0E"/>
</svg>
