<svg width="240" height="210" fill="none" xmlns="http://www.w3.org/2000/svg"><path d="M134.079 60.164s-11.281-.082-12.07-6.712c-.094-.812.495-1.083 3.085-.164 1.708.6 2.65 1.625 3.792.824 1.295-.907-1.849-3.85-.848-4.44.989-.588 7.147 3.887 7.147 3.887l1.802.953.059 6.017-2.956-.377-.011.012Z" fill="#29256A" stroke="#29256A" stroke-width=".5" stroke-linecap="round" stroke-linejoin="round"/><path d="M173.89 29.232s-3.379-4.922-7.23-.671c-3.838 4.25-10.633 24.28-12.811 25.751-1.083.718-18.263-.942-18.263-.942s2.402 2.708-1.295 7.454c0 0 21.96 8.525 25.964 4.11 6.853-7.572 16.296-27.625 13.635-35.69v-.012Z" fill="url(#a)" stroke="#29256A" stroke-width=".5" stroke-linecap="round" stroke-linejoin="round"/><path d="m166.389 157.672-.613 2.614s-4.498 4.157-6.711 5.487c-2.179 1.307-6.194 3.062-6.853 6.123-.683 3.191.977 5.005 3.838 4.44 2.862-.566 6.076-2.497 7.607-3.651 1.519-1.154 7.477-4.133 8.937-4.615 1.46-.483 2.273-2.026 2.367-4.075.129-2.567-1.766-7.842-1.766-7.842l-6.806 1.519v0Z" fill="url(#b)" stroke="#29256A" stroke-width=".5" stroke-linecap="round" stroke-linejoin="round"/><path d="m173.194 156.153-6.806 1.519-.4 1.731s3.473 2.614 5.923 1.955c2.449-.66-1.072 5.134-2.65 6.476-1.436 1.225-9.361 7.206-11.363 8.195l3.71-.777c.942-.541 2.59-1.012 3.155-1.436 1.519-1.154 6.606-4.793 7.819-5.735 1.601-1.248 2.602-2.743 2.367-4.074-.436-2.531-1.767-7.842-1.767-7.842l.012-.012Z" fill="#29256A" opacity=".15"/><path d="m162.773 80.994 1.178 37.762 1.472 40.459s5.711 2.072 8.796-.577c0 0 5.769-23.279 5.534-31.639-.247-8.349 1.707-26.47 1.707-26.47s0-16.332-3.403-19.005c-3.403-2.673-9.738-5.134-15.272-.53h-.012Z" fill="url(#c)" stroke="#29256A" stroke-width=".5" stroke-linecap="round" stroke-linejoin="round"/><path d="M181.448 100.529s0-16.332-3.403-19.005l-5.028 3.827c1.754 1.377 0 5.24 1.012 9.102 1.037 3.992 1.508 10.244 1.566 14.554.083 5.345.201 12.999.342 17.992.247 8.348-5.534 31.639-5.534 31.639-.73.636-1.625.989-2.544 1.177 1.92.306 4.569.354 6.347-1.177 0 0 5.77-23.279 5.534-31.639-.247-8.349 1.708-26.47 1.708-26.47Z" fill="#29256A" opacity=".15"/><path d="m189.209 25.982 11.645 7.971s-1.413 21.301-3.839 28.59c0 0 .047 13.588.86 19.264 0 0-1.26 7.347-12.458 6.7-4.58-.271-7.724 7.111-9.891 8.112-5.817-.659-11.304-6.982-12.47-9.478 0 0 .212-16.474-.282-23.362-.483-6.888-.86-10.468-.86-10.468s-.047-6.876 1.178-12.893c1.213-6.017 4.321-16.356 9.243-18.722 4.922-2.367 16.874 4.297 16.874 4.297v-.011Z" fill="url(#d)" stroke="#29256A" stroke-width=".5" stroke-linecap="round" stroke-linejoin="round"/><path d="m201.561 34.271-2.968-.059h-.553l-1.943 2.226s-1.943 7.041-4.804 26.117c0 0 2.367 21.124 3.65 31.38 2.897-2.226 3.297-4.428 3.297-4.428-.4-9.75-1.236-26.952-1.236-26.952 2.437-7.3 4.557-28.272 4.557-28.272v-.012Z" fill="#29256A" opacity=".15"/><path d="M197.544 73.811c-3.544 2.132-10.491 4.322-19.899 4.616-7.677.247-12.34-3.497-14.672-5.958-.059.2-.082.283-.129.412 0 0 .129 3.992.483 5.534 3.261 2.497 8.112 4.97 14.518 4.97.259 0 .518 0 .777-.012 8.666-.271 13.365-2.791 17.545-4.899.282-1.224 1.448-3.25 1.613-4.474l-.259-.2.023.011Z" fill="#29256A" stroke="#29256A" stroke-width=".5" stroke-linecap="round" stroke-linejoin="round"/><path d="M197.803 74.012c-3.544 2.131-10.374 4.957-19.782 5.251-7.677.248-12.834-3.92-15.166-6.382-.742 2.285-.424 3.969 0 5.77 3.262 2.496 8.113 4.97 14.519 4.97.259 0 .518 0 .777-.013 8.666-.27 15.684-2.543 19.876-4.65.365-1.579.388-3.31-.224-4.946v0Z" fill="url(#e)" stroke="#29256A" stroke-width=".5" stroke-linecap="round" stroke-linejoin="round"/><path d="m172.122 77.144-4.086-2.367c-.424-.248-.801-.26-1.083-.106l-.765.447c.282-.165.659-.141 1.083.106l4.086 2.367c.847.495 1.53 1.684 1.53 2.65v4.698c-.011.482-.188.824-.459.977l.766-.448c.27-.165.447-.506.447-.977v-4.698c.012-.966-.671-2.155-1.519-2.65v0Z" fill="#29256A" stroke="#29256A" stroke-width=".5" stroke-linecap="round" stroke-linejoin="round"/><path d="M171.357 77.59c.848.495 1.531 1.685 1.531 2.65v4.698c-.012.966-.707 1.366-1.554.872l-4.086-2.367c-.836-.483-1.531-1.684-1.519-2.65v-4.698c.011-.965.706-1.365 1.542-.883l4.086 2.367v.012Z" fill="url(#f)" stroke="#29256A" stroke-width=".5" stroke-linecap="round" stroke-linejoin="round"/><path d="m174.314 6.459-4.039 14.354.048 3.426s5.286-7.312 15.542-1.884L189.739 5.8l-12.234-1.59-3.191 2.249v0Z" fill="#BACFD6" stroke="#29256A" stroke-width=".5" stroke-linecap="round" stroke-linejoin="round"/><path d="m179.611 29.503.401 4.11s-.565 2.142 2.567 1.907c3.144-.236 10.456-5.11 10.456-5.11l-1.825-7.808-11.563 4.298-.047 2.603h.011Z" fill="#FFD8CC" stroke="#29256A" stroke-width=".5" stroke-linecap="round" stroke-linejoin="round"/><path d="m187.583 26.582-.883-2.308-7.042 2.614-.047 2.603.401 4.11s-.083.317 0 .682c6.429.2 7.571-7.713 7.571-7.713v.012Z" fill="#29256A" opacity=".15"/><path d="M175.373 13.418s-1.554 4.474-1.825 6.5c-.282 2.025.083 5.192-.141 6.134-.224.93-.365 2.39.412 2.991.777.589 4.369 1.625 7.418.8 3.062-.823 6.147-2.66 7.1-3.59.954-.93 4.122-3.321 5.264-5.452 1.142-2.131 2.296-7.136-.283-9.185-2.578-2.06-8.796-4.38-12.799-2.272-4.004 2.107-4.31 3.108-5.146 4.086v-.012Z" fill="#FFD8CC" stroke="#29256A" stroke-width=".5" stroke-linecap="round" stroke-linejoin="round"/><path d="M171.924 26.24s0 .024.012.036c0-.012 0-.023-.012-.035Z" fill="#C4CBEB" stroke="#29256A" stroke-width=".5" stroke-linecap="round" stroke-linejoin="round"/><path d="M182.746 15.902s-5.44-1.083-6.559-1.66c-1.99-1.024-2.284-3.732-1.295-6.04.989-2.308 4.062-4.44 5.593-4.91 1.531-.471 5.899-1.213 8.619-.354 2.72.86 6.653 3.427 7.901 5.97 1.331 2.697 1.26 4.498.895 6.924-.365 2.425-3.038 7.135-3.85 7.712-.825.577-5.299 2.332-5.299 2.332l-2.661.447s1.448-3.803 1.79-5.581c.341-1.778-4.428-1.413-5.123-4.84h-.011Z" fill="#29256A" stroke="#29256A" stroke-width=".5" stroke-linecap="round" stroke-linejoin="round"/><path d="M187.973 26.559s1.424-3.556 3.673-4.404c1.39-.518 1.508.447 1.566.777.059.33-.223 2.343-2.025 2.99-1.801.649-3.214.637-3.214.637v0Z" fill="#FFD8CC" stroke="#29256A" stroke-width=".5" stroke-linecap="round" stroke-linejoin="round"/><path d="m194.744 30.02-1.566 4.18s-6.194 4.04-13.812 1.767c-13.718-4.086-10.503-11.634-9.985-14.778l.73 1.967 1.413 3.002 2.072 2.496 3.545 2.073 5.345 1.684 12.258-2.39v0Z" fill="url(#g)" stroke="#29256A" stroke-width=".5" stroke-linecap="round" stroke-linejoin="round"/><path d="M193.342 34.554c-.059-.13.024-.872.024-.872-.059.036-6.418 4.016-13.659 1.979a5.875 5.875 0 0 1-.236-.07c-10.844-3.227-10.668-8.573-10.444-12.741-.153.247-.389.753-.589 1.165-.553 3.768.036 9.102 10.81 12.317l.259.07c7.3 2.05 13.176-1.436 13.823-1.848h.012Z" fill="#1C3B47" stroke="#29256A" stroke-width=".5" stroke-linecap="round" stroke-linejoin="round"/><path d="M191.506 2.126c-7.96-2.85-13.211.388-15.837 2.26-1.307.943-2.214 2.32-2.649 3.863l-3.639 12.94c-.035 4.416 4.345 9.938 12.811 11.47 8.466 1.53 12.552-2.65 12.552-2.65l1.036-6.359s10.916-16.108-4.262-21.536l-.012.012Zm-2.649 26.87s-1.849 4.286-9.314 2.19c-10.833-3.05-8.772-10.385-8.772-10.385l3.049-10.68s1.213-5.24 6.512-2.767c5.97 2.779 10.727 9.773 10.833 11.987.106 2.225-2.308 9.655-2.308 9.655Z" fill="url(#h)" stroke="#29256A" stroke-width=".5" stroke-linecap="round" stroke-linejoin="round"/><path d="M180.591 8.32c3.427 1.59 6.37 4.756 8.019 7.288 1.13 1.731.459 4.05-1.354 5.04-1.507.812-3.45 1.26-5.746.47-4.392-1.506-8.29-3.79-7.36-7.676l.766-2.697s1.059-4.569 5.675-2.414V8.32Z" fill="#CADDFF" opacity=".3"/><path d="M191.505 2.126a19.21 19.21 0 0 0-3.191-.848c21.914 7.018 4.958 24.303 4.958 24.303l-2.332 6.994c2.461-.883 3.804-2.543 3.804-2.543l2.178-6.44s9.773-16.015-5.417-21.455v-.011Z" fill="#29256A" opacity=".15"/><path d="m210.194 166.032.247 3.321c-1.966 5.299-6.547 14.613-11.563 15.825-.907.224-1.66.248-2.284.13.753.742 1.907.624 3.732.176 5.017-1.212 9.562-9.561 11.245-14.954.613-1.954-.977-3.98-1.377-4.521v.023Z" fill="#29256A" stroke="#29256A" stroke-width=".5" stroke-linecap="round" stroke-linejoin="round"/><path d="M206.991 161.37s3.721 4.874 2.473 8.218c-1.967 5.299-5.558 14.389-10.574 15.602-5.016 1.213-5.523-3.273-4.192-6.853 1.33-3.579 4.309-8.737 3.532-14.165-.636-4.463 8.749-2.802 8.749-2.802h.012Z" fill="url(#i)" stroke="#29256A" stroke-width=".5" stroke-linecap="round" stroke-linejoin="round"/><path d="M198.89 185.19c5.016-1.213 9.596-10.527 11.563-15.825 1.236-3.344-3.462-7.984-3.462-7.984s-1.025-.176-2.367-.259c.389 1.555.73 2.873.73 2.873s3.132 1.19 2.178 5.711c-.624 2.944-1.283 3.085-2.343 6.17-.647 1.884-6.182 9.609-10.609 8.007.659 1.225 2.002 1.884 4.321 1.331l-.011-.024Z" fill="#29256A" opacity=".15"/><path d="m202.362 129.035 2.096 11.987 3.062 20.96s-3.921 5.345-9.302 2.19l-15.543-38.104s-6.017-15.861-7.159-29.449a24.313 24.313 0 0 1 9.314-9.137c5.569-3.073 10.809-3.097 12.976-2.991l4.556 44.544Z" fill="url(#j)" stroke="#29256A" stroke-width=".5" stroke-linecap="round" stroke-linejoin="round"/><path d="m204.459 141.022-1.495-12.976-5.17-43.567h-3.991l2.202 28.649c1.495 6.817 5.051 24.574 5.31 27.035l4.027 23.797 2.178-.318v-1.684l-3.061-20.959v.023Z" fill="#29256A" opacity=".15"/><path d="M203.386 178.596c-2.296-2.119-5.899-1.99-8.125-1.637-.106.248-.2.495-.294.73 2.06-.365 5.77-.647 7.983 1.402.53.494 1.189 1.212 1.637 1.636.118-.188.247-.376.365-.565-.424-.4-1.06-1.095-1.554-1.554l-.012-.012ZM207.531 161.111c-.565.73-1.071 1.271-2.025 2.001-2.449 1.849-5.734 1.578-7.418 1.272l.2.718c.601.094 1.342.177 2.167.177 1.707 0 3.744-.353 5.451-1.637.766-.577 1.237-.965 1.767-1.566l-.142-.965v0Z" fill="#29256A" stroke="#29256A" stroke-width=".5" stroke-linecap="round" stroke-linejoin="round"/><path d="M200.901 33.788c-3.768-.494-9.867 1.92-8.537 10.504 1.331 8.584 6.794 21.536 7.948 22.925 1.154 1.39 10.103 2.085 9.514-3.944-.577-6.04-3.709-17.698-5.393-22.867-1.683-5.17-2.567-6.488-3.544-6.617h.012Z" fill="url(#k)" stroke="#29256A" stroke-width=".5" stroke-linecap="round" stroke-linejoin="round"/><path d="M205.199 62.237c-3.191 0-5.428 1.036-5.899 2.814-.471 1.766-5.982 19.028-5.982 20.311 0 1.284 5.264 6.312 6.429 5.264 1.166-1.048 12.011-24.669 10.127-26.635-1.884-1.978-4.675-1.743-4.675-1.743v-.011Z" fill="url(#l)" stroke="#29256A" stroke-width=".5" stroke-linecap="round" stroke-linejoin="round"/><path d="M197.015 87.046c-1.989-.977-2.072-.918-2.625-1-.566-.071-5.346 2.096-5.699 2.307-.354.213-2.815 1.979-3.191 2.238-.377.259-2.179 1.39-1.743 2.037.436.636 2.037 1.048 3.426.118 1.39-.93 2.238-1.555 2.414-1.625.177-.083.954 1.107.766 1.542-.189.436-2.155 3.227-2.45 3.45-.294.236-2.896 2.755-3.073 3.603-.176.836.412 1.19 1.048 1.166.636-.024 3.627-2.579 3.627-2.579s-3.662 3.686-3.627 4.263c.036.577.577 1.189 1.166.954.589-.236.836-.46.836-.46s.353.495 1.048.354c.695-.142 1.601-1.307 1.601-1.307s.412.259 1.449-.554c1.036-.812 2.637-2.79 3.391-4.039.753-1.248 3.615-5.404 3.615-6.452 0-1.06-.789-3.403-1.967-3.992l-.012-.023Z" fill="#29256A" stroke="#29256A" stroke-width=".5" stroke-linecap="round" stroke-linejoin="round"/><path d="m174.913 162.747-1.543 3.391c-4.604 4.228-13.741 11.104-18.934 9.821-.942-.236-1.637-.577-2.143-1.001.294 1.107 1.401 1.554 3.297 2.013 5.204 1.284 13.777-4.651 18.192-9.102 1.602-1.613 1.237-4.38 1.154-5.11l-.023-.012Z" fill="#29256A" stroke="#29256A" stroke-miterlimit="10"/><path d="M162.727 171.355c-1.826-2.626-5.44-3.285-7.737-3.427-.153.224-.306.448-.459.66 2.132.094 5.888.624 7.642 3.155.424.601.919 1.472 1.272 1.99.165-.153.33-.318.494-.483-.329-.494-.812-1.318-1.201-1.884l-.011-.011ZM174.62 157.908c-.659.553-1.224.942-2.249 1.413-2.602 1.189-5.534.282-7.006-.342l.036.683c.529.212 1.189.436 1.931.601 1.554.341 3.473.435 5.287-.401.812-.376 1.33-.635 1.919-1.071l.071-.907.011.024Z" fill="#29256A" stroke="#29256A" stroke-miterlimit="10"/><g opacity=".8"><path d="M43.73 68.836a2.49 2.49 0 1 0 0-4.98 2.49 2.49 0 0 0 0 4.98Z" fill="url(#m)"/><path d="M124.5 77.286a2.49 2.49 0 1 0 0-4.98 2.49 2.49 0 0 0 0 4.98Z" fill="url(#n)"/><path d="M126.951 32.506a2.49 2.49 0 1 0 0-4.98 2.49 2.49 0 0 0 0 4.98Z" fill="url(#o)"/><path d="M109.421 75.226a1.62 1.62 0 1 0 0-3.24 1.62 1.62 0 0 0 0 3.24Z" fill="url(#p)"/><path d="M119.191 105.156a2.39 2.39 0 1 0 0-4.78 2.39 2.39 0 0 0 0 4.78Z" fill="url(#q)"/><path d="M70.83 110.356a1.36 1.36 0 1 0 0-2.72 1.36 1.36 0 0 0 0 2.72Z" fill="url(#r)"/><path d="M50.72 50.246a1.36 1.36 0 1 0 0-2.72 1.36 1.36 0 0 0 0 2.72Z" fill="url(#s)"/><path d="M84.18 23.226a1.36 1.36 0 1 0 0-2.72 1.36 1.36 0 0 0 0 2.72Z" fill="url(#t)"/><path d="M81.311 43.346a1.36 1.36 0 1 0 0-2.72 1.36 1.36 0 0 0 0 2.72Z" fill="url(#u)"/><path d="M69.47 38.246a1.36 1.36 0 1 0 0-2.72 1.36 1.36 0 0 0 0 2.72Z" fill="url(#v)"/><path d="M115.62 44.196a1.36 1.36 0 1 0 0-2.72 1.36 1.36 0 0 0 0 2.72Z" fill="url(#w)"/></g><path d="m86.76 207.516-51.37-29.57c-2.3-1.33-2.35-8.28-1.42-10.63l48.17-24.98c2.65-1.53 6.7-1.7 8.99-.37l52.53 26.76c1.93 3.05.84 10.27-1.81 11.8l-46.11 26.62c-2.65 1.53-6.7 1.7-8.99.37h.01Z" fill="#B4CAED" stroke="#29256A" stroke-width=".5" stroke-linecap="round" stroke-linejoin="round"/><path d="m86.76 199.876-51.37-29.57c-2.3-1.33-2.01-3.66.65-5.19l46.11-26.62c2.65-1.53 6.7-1.7 8.99-.37l51.37 29.57c2.3 1.33 2.01 3.66-.65 5.19l-46.11 26.62c-2.65 1.53-6.7 1.7-8.99.37v0Z" fill="#fff" stroke="#29256A" stroke-width=".5" stroke-linecap="round" stroke-linejoin="round"/><path d="m86.689 196.446-45.36-26.1c-2.3-1.33-2.01-3.66.65-5.19l40.24-23.23c2.65-1.53 6.7-1.7 8.99-.37l45.36 26.1c2.3 1.33 2.01 3.66-.65 5.19l-40.24 23.23c-2.65 1.53-6.7 1.7-8.99.37v0Z" fill="url(#x)" stroke="#29256A" stroke-width=".5" stroke-linecap="round" stroke-linejoin="round"/><path d="m87.11 186.656-38.51-22.17c-1.72-.99-1.76-3.36-1.06-5.12l36.11-18.72c1.99-1.15 5.02-1.27 6.74-.28l39.379 20.06c1.45 2.28.63 4.85-1.36 6l-34.56 19.96c-1.99 1.15-5.02 1.27-6.74.28v-.01Z" fill="#B4CAED" stroke="#29256A" stroke-width=".5" stroke-linecap="round" stroke-linejoin="round"/><path d="m87.11 183.766-38.51-22.17c-1.72-.99-1.5-2.75.48-3.89l34.56-19.96c1.99-1.15 5.02-1.27 6.74-.28l38.509 22.17c1.72.99 1.5 2.75-.48 3.89l-34.56 19.96c-1.99 1.15-5.02 1.27-6.74.28v0Z" fill="#fff" stroke="#29256A" stroke-width=".5" stroke-linecap="round" stroke-linejoin="round"/><path d="m87.058 181.196-34-19.56c-1.72-.99-1.5-2.75.48-3.89l30.17-17.42c1.99-1.15 5.02-1.27 6.74-.28l34 19.56c1.72.99 1.5 2.75-.48 3.89l-30.17 17.42c-1.99 1.15-5.02 1.27-6.74.28v0Z" fill="url(#y)" stroke="#29256A" stroke-width=".5" stroke-linecap="round" stroke-linejoin="round"/><path d="m87.03 175.126-36.08-20.77c-1.61-.93-1.65-3.15-1-4.8l33.83-17.54c1.86-1.07 4.7-1.19 6.32-.26l36.9 18.79c1.35 2.14.59 4.55-1.27 5.62l-32.38 18.7c-1.86 1.07-4.7 1.19-6.32.26v0Z" fill="#B4CAED" stroke="#29256A" stroke-width=".5" stroke-linecap="round" stroke-linejoin="round"/><path d="m87.03 172.426-36.08-20.77c-1.61-.93-1.41-2.57.45-3.65l32.38-18.7c1.86-1.07 4.7-1.19 6.32-.26l36.081 20.77c1.61.93 1.41 2.57-.45 3.65l-32.38 18.7c-1.86 1.07-4.7 1.19-6.32.26v0Z" fill="#fff" stroke="#29256A" stroke-width=".5" stroke-linecap="round" stroke-linejoin="round"/><path d="m86.98 170.016-31.86-18.33c-1.61-.93-1.41-2.57.45-3.65l28.26-16.32c1.86-1.07 4.7-1.19 6.32-.26l31.861 18.33c1.61.93 1.41 2.57-.45 3.65l-28.26 16.32c-1.86 1.07-4.7 1.19-6.32.26v0Z" fill="url(#z)" stroke="#29256A" stroke-width=".5" stroke-linecap="round" stroke-linejoin="round"/><path d="m87.13 164.666-33.88-19.5c-1.51-.87-1.55-2.96-.94-4.51l31.77-16.48c1.75-1.01 4.42-1.12 5.93-.25l34.65 17.65c1.27 2.01.56 4.27-1.19 5.28l-30.41 17.56c-1.75 1.01-4.42 1.12-5.93.25Z" fill="#B4CAED" stroke="#29256A" stroke-width=".5" stroke-linecap="round" stroke-linejoin="round"/><path d="m87.131 162.126-33.88-19.5c-1.51-.87-1.32-2.42.43-3.42l30.41-17.56c1.75-1.01 4.42-1.12 5.93-.25l33.88 19.5c1.51.87 1.32 2.42-.43 3.42l-30.41 17.56c-1.75 1.01-4.42 1.12-5.93.25Z" fill="#fff" stroke="#29256A" stroke-width=".5" stroke-linecap="round" stroke-linejoin="round"/><path d="m87.081 159.866-29.92-17.21c-1.51-.87-1.32-2.42.43-3.42l26.54-15.32c1.75-1.01 4.42-1.12 5.93-.25l29.92 17.21c1.51.87 1.32 2.42-.43 3.43l-26.54 15.32c-1.75 1.01-4.42 1.12-5.93.25v-.01Z" fill="url(#A)" stroke="#29256A" stroke-width=".5" stroke-linecap="round" stroke-linejoin="round"/><path d="m88.19 152.916-19.79-11.39c-.88-.51-.9-4.79-.55-5.7l18.55-9.62c1.02-.59 2.58-.65 3.46-.14l20.231 10.3c.74 1.17.32 5.56-.7 6.15l-17.76 10.25c-1.02.59-2.58.65-3.46.14l.02.01Z" fill="url(#B)"/><path d="m88.19 148.376-19.79-11.39c-.88-.51-.77-1.41.25-2l17.76-10.25c1.02-.59 2.58-.65 3.46-.14l19.791 11.39c.88.51.77 1.41-.25 2l-17.76 10.25c-1.02.59-2.58.65-3.46.14v0Z" fill="url(#C)" stroke="#29256A" stroke-width=".5" stroke-linecap="round" stroke-linejoin="round"/><path d="m88.16 147.056-17.47-10.05c-.88-.51-.77-1.41.25-2l15.5-8.95c1.02-.59 2.58-.65 3.46-.14l17.47 10.05c.88.51.77 1.41-.25 2l-15.5 8.95c-1.02.59-2.58.65-3.46.14Z" fill="#AEF7FF"/><path opacity=".8" d="m29 80.906 38.92 54.77 19.71 11.38c1.4.81 3.13.81 4.54 0l19.71-11.38 36.75-53.42s-33.57-22.67-59.28-21.11c-27 1.66-60.35 19.76-60.35 19.76Z" fill="url(#D)"/><g opacity=".5" fill="#fff"><path d="M116.21 103.886h-.07a.12.12 0 0 0-.12.12v.07c0 .067.053.12.12.12h.07a.12.12 0 0 0 .12-.12v-.07a.12.12 0 0 0-.12-.12ZM114.651 125.446h-.07a.12.12 0 0 0-.12.12v.07c0 .067.054.12.12.12h.07a.12.12 0 0 0 .12-.12v-.07a.12.12 0 0 0-.12-.12ZM104.79 120.776h-.07a.12.12 0 0 0-.12.12v.07c0 .066.053.12.12.12h.07a.12.12 0 0 0 .12-.12v-.07a.12.12 0 0 0-.12-.12ZM98.16 122.306h-.07a.12.12 0 0 0-.12.12v.07c0 .066.054.12.12.12h.07a.12.12 0 0 0 .12-.12v-.07a.12.12 0 0 0-.12-.12ZM94.74 115.766l-.07-.03c-.06-.03-.09-.1-.06-.16l.03-.07.16-.06.07.03c.06.03.09.1.06.16l-.03.07c-.03.06-.1.09-.16.06ZM89.52 128.816l-.07-.03-.06-.16.03-.07c.03-.06.1-.09.16-.06l.07.03c.06.03.09.1.06.16l-.03.07c-.03.06-.1.09-.16.06ZM81.52 110.026l-.07-.03-.06-.16.03-.07c.03-.06.1-.09.16-.06l.07.03c.06.03.09.1.06.16l-.03.07c-.03.06-.1.09-.16.06ZM68.15 115.956l-.07-.03c-.06-.03-.09-.1-.06-.16l.03-.07.16-.06.07.03c.06.03.09.1.06.16l-.03.07c-.03.06-.1.09-.16.06ZM74.72 135.536l-.07-.03-.06-.16.03-.07c.03-.06.1-.09.16-.06l.07.03c.06.03.09.1.06.16l-.03.07-.16.06ZM77.33 121.881l-.064-.028a.12.12 0 0 0-.157.063l-.028.064a.12.12 0 0 0 .062.158l.064.028a.12.12 0 0 0 .158-.063l.028-.064a.12.12 0 0 0-.063-.158ZM68.15 106.026l-.07-.03-.06-.16.03-.07c.03-.06.1-.09.16-.06l.07.03c.06.03.09.1.06.16l-.03.07c-.03.06-.1.09-.16.06ZM57.55 119.066l-.07-.03c-.06-.03-.09-.1-.06-.16l.03-.07.16-.06.07.03c.06.03.09.1.06.16l-.03.07c-.03.06-.1.09-.16.06ZM57.55 109.146l-.07-.03c-.06-.03-.09-.1-.06-.16l.03-.07.16-.06.07.03c.06.03.09.1.06.16l-.03.07c-.03.06-.1.09-.16.06ZM122.81 115.766l-.07-.03c-.06-.03-.09-.1-.06-.16l.03-.07c.03-.06.1-.09.16-.06l.07.03c.06.03.09.1.06.16l-.03.07-.16.06ZM123.788 108.893l-.065-.028a.118.118 0 0 0-.157.062l-.028.064a.12.12 0 0 0 .062.158l.064.028a.12.12 0 0 0 .158-.062l.028-.065a.12.12 0 0 0-.062-.157ZM110.768 118.231l-.064-.027a.12.12 0 0 0-.158.062l-.028.064a.12.12 0 0 0 .062.158l.065.028a.12.12 0 0 0 .157-.062l.028-.065a.12.12 0 0 0-.062-.158ZM105.169 106.996l-.07-.03c-.06-.03-.09-.1-.06-.16l.03-.07c.03-.06.1-.09.16-.06l.07.03c.06.03.09.1.06.16l-.03.07-.16.06ZM90.72 140.336h-.07a.12.12 0 0 0-.12.12v.07c0 .066.053.12.12.12h.07a.12.12 0 0 0 .12-.12v-.07a.12.12 0 0 0-.12-.12ZM107.271 129.886l-.07-.03c-.06-.03-.09-.1-.06-.16l.03-.07c.03-.06.1-.09.16-.06l.07.03c.06.03.09.1.06.16l-.03.07-.16.06ZM68.47 124.556l-.07-.03c-.06-.03-.09-.1-.06-.16l.03-.07c.03-.06.1-.09.16-.06l.07.03c.06.03.09.1.06.16l-.03.07-.16.06ZM97.21 136.248l-.065-.028a.12.12 0 0 0-.158.062l-.027.065a.12.12 0 0 0 .062.158l.064.027a.12.12 0 0 0 .158-.062l.028-.064a.12.12 0 0 0-.063-.158ZM100.48 111.516l-.07-.03-.06-.16.03-.07c.03-.06.1-.09.16-.06l.07.03.06.16-.03.07-.16.06Z"/></g><g opacity=".5" fill="#fff"><path d="M97.24 68.056h-.07a.12.12 0 0 0-.12.12v.07c0 .066.055.12.12.12h.07a.12.12 0 0 0 .12-.12v-.07a.12.12 0 0 0-.12-.12ZM95.69 89.616h-.07a.12.12 0 0 0-.12.12v.07c0 .067.054.12.12.12h.07a.12.12 0 0 0 .12-.12v-.07a.12.12 0 0 0-.12-.12ZM86.46 78.766h-.07a.12.12 0 0 0-.12.12v.07c0 .066.053.12.12.12h.07a.12.12 0 0 0 .12-.12v-.07a.12.12 0 0 0-.12-.12ZM79.2 86.466h-.07a.12.12 0 0 0-.12.12v.07c0 .066.053.12.12.12h.07a.12.12 0 0 0 .12-.12v-.07a.12.12 0 0 0-.12-.12ZM73.1 73.306l-.07-.03c-.06-.03-.09-.1-.06-.16l.03-.07c.03-.06.1-.09.16-.06l.07.03.06.16-.03.07c-.03.06-.1.09-.16.06ZM70.668 92.694l-.064-.028a.12.12 0 0 0-.158.062l-.028.064a.12.12 0 0 0 .063.158l.064.028a.12.12 0 0 0 .158-.062l.028-.064a.12.12 0 0 0-.063-.158ZM62.672 73.902l-.064-.028a.12.12 0 0 0-.158.063l-.028.064a.12.12 0 0 0 .063.158l.064.027a.12.12 0 0 0 .158-.062l.028-.064a.12.12 0 0 0-.063-.158ZM55.751 99.696l-.07-.03c-.06-.03-.09-.1-.06-.16l.03-.07.16-.06.07.03c.06.03.09.1.06.16l-.03.07c-.03.06-.1.09-.16.06ZM58.251 86.336l-.07-.03c-.06-.03-.09-.1-.06-.16l.03-.07.16-.06.07.03c.06.03.09.1.06.16l-.03.07c-.03.06-.1.09-.16.06ZM103.851 79.936l-.07-.03-.06-.16.03-.07c.03-.06.1-.09.16-.06l.07.03c.06.03.09.1.06.16l-.03.07c-.03.06-.1.09-.16.06ZM109.771 93.256l-.07-.03-.06-.16.03-.07c.03-.06.1-.09.16-.06l.07.03c.06.03.09.1.06.16l-.03.07c-.03.06-.1.09-.16.06ZM123.72 92.016l-.07-.03c-.06-.03-.09-.1-.06-.16l.03-.07c.03-.06.1-.09.16-.06l.07.03c.06.03.09.1.06.16l-.03.07-.16.06ZM132.909 87.886l-.07-.03c-.06-.03-.09-.1-.06-.16l.03-.07c.03-.06.1-.09.16-.06l.07.03.06.16-.03.07-.16.06ZM71.76 104.496h-.07a.12.12 0 0 0-.12.12v.07c0 .066.054.12.12.12h.07a.12.12 0 0 0 .12-.12v-.07a.12.12 0 0 0-.12-.12ZM88.422 93.765l-.064-.028a.12.12 0 0 0-.158.062l-.028.064a.12.12 0 0 0 .063.158l.064.028a.12.12 0 0 0 .158-.062l.028-.064a.12.12 0 0 0-.063-.158ZM49.626 88.433l-.065-.028a.12.12 0 0 0-.158.062l-.027.064a.12.12 0 0 0 .062.158l.064.028a.12.12 0 0 0 .158-.062l.028-.064a.12.12 0 0 0-.063-.158ZM78.13 100.706l-.07-.03c-.06-.03-.09-.1-.06-.16l.03-.07.16-.06.07.03c.06.03.09.1.06.16l-.03.07c-.03.06-.1.09-.16.06ZM94.51 76.686l-.07-.03-.06-.16.03-.07c.03-.06.1-.09.16-.06l.07.03.06.16-.03.07c-.03.06-.1.09-.16.06Z"/></g><path d="M95.363 65.917c-1.697-4.071-12.753-3.34-24.69 1.638-11.938 4.979-20.232 12.319-18.535 16.39.283.684 1.362 3.263 1.645 3.947 1.696 4.077 12.752 3.34 24.69-1.638 11.938-4.98 20.231-12.32 18.534-16.39-.282-.684-1.361-3.263-1.644-3.947Z" fill="url(#E)" stroke="#29256A" stroke-width=".5" stroke-linejoin="round"/><g style="mix-blend-mode:multiply" opacity=".3"><path d="M95.363 65.917c-1.697-4.071-12.753-3.34-24.69 1.638-11.938 4.979-20.232 12.319-18.535 16.39.283.684 1.362 3.263 1.645 3.947 1.696 4.077 12.752 3.34 24.69-1.638 11.938-4.98 20.231-12.32 18.534-16.39-.282-.684-1.361-3.263-1.644-3.947Z" fill="url(#F)"/><path d="M95.363 65.917c-1.697-4.071-12.753-3.34-24.69 1.638-11.938 4.979-20.232 12.319-18.535 16.39.283.684 1.362 3.263 1.645 3.947 1.696 4.077 12.752 3.34 24.69-1.638 11.938-4.98 20.231-12.32 18.534-16.39-.282-.684-1.361-3.263-1.644-3.947Z" stroke="#29256A" stroke-width=".5" stroke-linejoin="round"/></g><path d="M95.363 65.917c-1.697-4.071-12.753-3.34-24.69 1.638-11.938 4.979-20.232 12.319-18.535 16.39.283.684 1.362 3.263 1.645 3.947 1.696 4.077 12.752 3.34 24.69-1.638 11.938-4.98 20.231-12.32 18.534-16.39-.282-.684-1.361-3.263-1.644-3.947Z" stroke="#29256A" stroke-width=".5" stroke-linejoin="round"/><mask id="H" style="mask-type:alpha" maskUnits="userSpaceOnUse" x="51" y="63" width="47" height="28"><path d="M95.363 65.917c-1.697-4.071-12.753-3.34-24.69 1.638-11.938 4.979-20.232 12.319-18.535 16.39.283.684 1.362 3.263 1.645 3.947 1.696 4.077 12.752 3.34 24.69-1.638 11.938-4.98 20.231-12.32 18.534-16.39-.282-.684-1.361-3.263-1.644-3.947Z" fill="url(#G)"/></mask><g mask="url(#H)" stroke="#29256A" stroke-width=".5"><path d="m46.21 61.128 15.677 43.282M49.242 60.414l15.678 43.282M52.272 59.7l15.678 43.283M55.303 58.987l15.678 43.282M61.367 57.56l15.678 43.281M64.399 56.846l15.677 43.282M58.336 58.273l15.678 43.282M67.43 56.132l15.678 43.282M70.461 55.419 86.14 98.7M73.494 54.705l15.678 43.282M76.528 53.991l15.677 43.282M79.559 53.277 95.237 96.56M82.59 52.564l15.678 43.282M85.621 51.85 101.3 95.132M88.653 51.136l15.3 43.367"/></g><path d="M52.138 83.945c1.697 4.078 12.753 3.341 24.69-1.637 11.938-4.98 20.232-12.32 18.535-16.39-1.697-4.072-12.753-3.342-24.69 1.637-11.938 4.979-20.232 12.319-18.535 16.39Z" fill="url(#I)" stroke="#29256A" stroke-width=".5" stroke-linejoin="round"/><path opacity=".2" d="M64.116 86.11c3.809-.639 8.196-1.915 12.714-3.796 11.8-4.92 20.034-12.148 18.58-16.245-24.795 4.21-37.029 10.582-31.294 20.04Z" fill="#fff"/><path d="M71.088 68.541C61.012 72.744 54.021 78.973 55.474 82.46c.546 1.315 2.23 2.052 4.644 2.23-1.848-.257-3.13-.915-3.578-2-1.368-3.282 5.32-9.202 14.937-13.214 9.622-4.012 18.527-4.604 19.895-1.315.454 1.085.02 2.46-1.098 3.953 1.572-1.842 2.236-3.558 1.684-4.874-1.454-3.486-10.8-2.9-20.876 1.296l.007.006Z" fill="url(#J)" style="mix-blend-mode:multiply" opacity=".5"/><path d="M71.088 68.541C61.012 72.744 54.021 78.973 55.474 82.46c.546 1.315 2.23 2.052 4.644 2.23-1.848-.257-3.13-.915-3.578-2-1.368-3.282 5.32-9.202 14.937-13.214 9.622-4.012 18.527-4.604 19.895-1.315.454 1.085.02 2.46-1.098 3.953 1.572-1.842 2.236-3.558 1.684-4.874-1.454-3.486-10.8-2.9-20.876 1.296l.007.006Z" stroke="#29256A" stroke-width=".5" stroke-linejoin="round"/><path d="M84.394 74.961c5.41-4.084 5.254-7.323-.345-7.249-2.786.04-6.403.9-9.994 2.252-.027.014-.054.02-.081.034-3.59 1.359-7.154 3.218-9.853 5.254-.256.196-.493.385-.73.575-.013.007-.02.02-.034.027-.155.128-.297.25-.44.372h-.006l-.372.331c-3.726 3.442-3.056 6.005 1.927 5.937 5.6-.081 14.519-3.455 19.921-7.533h.007Zm-2.211.034c-.663.5-1.4.994-2.184 1.46l.007-.006c1.17-1.332 1.15-2.333.696-2.901 3.381-2.211 3.74-3.178 2.867-3.374-.02 0-.047-.014-.074-.014-.744-.122-2.211.331-3.273 1-1.069.67-1.332 1.313-.588 1.434.067.014.135.014.21.02-.102.075-.21.156-.325.237-.73-.236-1.616-.304-2.563-.277-.345 0-.71.027-1.096.061 1.17-.744 2.719-1.569 4.288-2.157 1.514-.568 3.002-.872 3.969-.744.182.027.352.074.473.135 0 0 .014 0 .02.007 1.394.9.596 2.854-2.427 5.132v-.013Zm-8.182.879c-.589.244-1.21.487-1.867.717.082-.413.305-.845.636-1.298l.054-.075c.23-.284.52-.602.88-.94.845-.095 1.568-.122 2.163-.067.034 0 .061 0 .095.006.358.04.69.115.987.224-.926.507-1.873.966-2.8 1.365-.047.02-.094.041-.148.061v.007Zm5.524-6.309h-.013c-2.691 1.075-5.024 2.448-6.519 3.516-3.915.846-6.052 1.948-6.83 2.773-.02.02-.04.047-.06.067-.555.643-.048.974 1.129.737 1.177-.23 2.576-.94 3.13-1.582a.798.798 0 0 0 .116-.162c.142-.04.284-.075.44-.115-.819.791-1.326 1.467-1.61 2.035a4.347 4.347 0 0 0-.27.622c-1.312.27-2.672.406-3.47.203-.77-.196-.933-.737-.27-1.541.122-.15.298-.325.487-.487.176-.142.352-.284.54-.426 3.524-2.644 8.96-4.916 13.2-5.64ZM66.61 80.885c-2.164.034-3.28-.575-3.354-1.583 1.521.257 3.875-.121 5.822-.622.534 1.36 2.313 1.238 3.963.602.047-.02.088-.034.135-.054 1.298-.52 2.258-1.298 2.15-1.738-.108-.44-1.244-.372-2.542.149-.115.047-.224.095-.332.142-.034-.04-.074-.081-.108-.122a42.32 42.32 0 0 0 4.166-1.751c.46-.223.92-.447 1.365-.683.142.473-.04 1.17-.818 1.96-.743.765-2.069 1.61-3.699 2.28-.31.128-.649.25-.96.351h-.013c-2.103.65-4.125 1.042-5.775 1.062v.007Z" fill="url(#K)" stroke="#3442C0" stroke-width=".5" stroke-linejoin="round"/><path style="mix-blend-mode:overlay" opacity=".9" d="M83.57 70.174s-.047-.014-.074-.014a2 2 0 0 0-.46-.013c.358.419-.5 1.514-3.834 3.61a34.29 34.29 0 0 1-3.564 1.948 41.363 41.363 0 0 1-3.523 1.515c.048.169.122.318.217.433a42.32 42.32 0 0 0 4.165-1.752 35 35 0 0 0 3.564-1.947c3.976-2.502 4.429-3.577 3.502-3.78h.007Z" fill="url(#L)"/><path d="M79.206 73.764c3.333-2.096 4.192-3.191 3.834-3.61-.04 0-.081.006-.129.013.325.433-.554 1.528-3.847 3.597a34.32 34.32 0 0 1-3.564 1.948c-1.021.493-2.15.994-3.394 1.467 0 .02.006.034.013.054 1.292-.487 2.468-1 3.523-1.514a35.003 35.003 0 0 0 3.564-1.948v-.007Z" fill="#fff" style="mix-blend-mode:overlay" opacity=".8"/><path style="mix-blend-mode:overlay" opacity=".5" d="M68.987 78.423a1.268 1.268 0 0 1-.027-.169c-1.947.386-4.186.589-5.552.183-.121.311-.182.602-.162.859 1.521.257 3.875-.122 5.822-.622a1.624 1.624 0 0 1-.081-.257v.006Z" fill="url(#M)"/><path style="mix-blend-mode:overlay" opacity=".6" d="M68.96 78.254s-.006-.054-.006-.08c-1.94.371-4.152.547-5.477.121-.02.047-.04.095-.061.149 1.366.406 3.597.203 5.552-.183l-.007-.007Z" fill="url(#N)"/><path style="mix-blend-mode:overlay" opacity=".9" d="M66.171 75.86s-.04.048-.06.068a1.102 1.102 0 0 0-.197.311c1.109-.805 3.36-1.751 7.033-2.482 1.217-.243 2.305-.358 3.239-.372.811-.026 1.582.028 2.245.19.419-.264.784-.514 1.088-.73-.73-.237-1.616-.311-2.562-.278-.934.014-2.022.136-3.24.372-4.375.866-6.728 2.042-7.553 2.921h.007Z" fill="url(#O)"/><path d="M72.945 73.757c-3.678.724-5.923 1.677-7.032 2.482-.007.02-.014.047-.02.068 1.129-.798 3.36-1.731 6.985-2.448 1.217-.244 2.306-.359 3.239-.372.784-.02 1.528.027 2.177.176.048-.027.088-.054.129-.081-.663-.163-1.434-.217-2.245-.19-.933.014-2.022.135-3.24.372l.007-.007Z" fill="#fff" style="mix-blend-mode:overlay" opacity=".8"/><path style="mix-blend-mode:overlay" opacity=".4" d="M80.075 73.954c-.129.081-.264.162-.4.243.176.73-.175 1.894-1.622 3.32a29.445 29.445 0 0 0 1.954-1.075c1.17-1.332 1.15-2.333.697-2.894-.203.129-.413.27-.636.406h.007Z" fill="url(#P)"/><path style="mix-blend-mode:overlay" opacity=".5" d="m79.673 74.197-.203.122c.149.744-.25 1.92-1.738 3.36.109-.053.21-.108.318-.162 1.447-1.426 1.799-2.59 1.623-3.32Z" fill="url(#Q)"/><path style="mix-blend-mode:overlay" opacity=".9" d="M73.04 79.283c.047-.02.087-.034.135-.054.23-.095.446-.197.649-.298-1.474.386-2.86.237-3.199-1.136-.115-.453.007-.994.325-1.576.243-.486.649-1.054 1.278-1.704-.46.095-.906.197-1.305.298-.818.791-1.319 1.467-1.603 2.035-.318.582-.44 1.123-.324 1.576.405 1.636 2.299 1.535 4.043.859Z" fill="url(#R)"/><path d="M70.625 77.795c.338 1.372 1.731 1.521 3.199 1.136.047-.027.094-.054.149-.075-1.447.366-2.807.203-3.145-1.15-.115-.452.007-.993.325-1.575.236-.473.622-1.02 1.217-1.643-.047.007-.095.02-.149.027-.629.65-1.034 1.217-1.278 1.704-.318.582-.44 1.123-.324 1.576h.006Z" fill="#fff" style="mix-blend-mode:overlay" opacity=".8"/><path style="mix-blend-mode:overlay" opacity=".3" d="m73.715 72.94.426-.081c1.771-1.116 4.361-2.475 7.168-3.503-.562.034-1.157.108-1.792.216-2.692 1.075-5.024 2.448-6.519 3.517.237-.048.473-.102.717-.15Z" fill="url(#S)"/><path style="mix-blend-mode:overlay" opacity=".4" d="M74.14 72.859c.068-.014.143-.027.21-.034a40.266 40.266 0 0 1 7.215-3.483c-.08 0-.169.007-.257.014a39.833 39.833 0 0 0-7.167 3.503Z" fill="url(#T)"/><path d="M84.394 74.961c5.41-4.084 5.254-7.323-.345-7.249-2.786.04-6.403.9-9.994 2.252-.027.014-.054.02-.081.034-3.59 1.359-7.154 3.218-9.853 5.254-.256.196-.493.385-.73.575-.013.007-.02.02-.034.027-.155.128-.297.25-.44.372h-.006l-.372.331c-3.726 3.442-3.056 6.005 1.927 5.937 5.6-.081 14.519-3.455 19.921-7.533h.007Zm-2.211.034c-.663.5-1.4.994-2.184 1.46l.007-.006c1.17-1.332 1.15-2.333.696-2.901 3.381-2.211 3.74-3.178 2.867-3.374-.02 0-.047-.014-.074-.014-.744-.122-2.211.331-3.273 1-1.069.67-1.332 1.313-.588 1.434.067.014.135.014.21.02-.102.075-.21.156-.325.237-.73-.236-1.616-.304-2.563-.277-.345 0-.71.027-1.096.061 1.17-.744 2.719-1.569 4.288-2.157 1.514-.568 3.002-.872 3.969-.744.182.027.352.074.473.135 0 0 .014 0 .02.007 1.394.9.596 2.854-2.427 5.132v-.013Zm-8.182.879c-.589.244-1.21.487-1.867.717.082-.413.305-.845.636-1.298l.054-.075c.23-.284.52-.602.88-.94.845-.095 1.568-.122 2.163-.067.034 0 .061 0 .095.006.358.04.69.115.987.224-.926.507-1.873.966-2.8 1.365-.047.02-.094.041-.148.061v.007Zm5.524-6.309h-.013c-2.691 1.075-5.024 2.448-6.519 3.516-3.915.846-6.052 1.948-6.83 2.773-.02.02-.04.047-.06.067-.555.643-.048.974 1.129.737 1.177-.23 2.576-.94 3.13-1.582a.798.798 0 0 0 .116-.162c.142-.04.284-.075.44-.115-.819.791-1.326 1.467-1.61 2.035a4.347 4.347 0 0 0-.27.622c-1.312.27-2.672.406-3.47.203-.77-.196-.933-.737-.27-1.541.122-.15.298-.325.487-.487.176-.142.352-.284.54-.426 3.524-2.644 8.96-4.916 13.2-5.64ZM66.61 80.885c-2.164.034-3.28-.575-3.354-1.583 1.521.257 3.875-.121 5.822-.622.534 1.36 2.313 1.238 3.963.602.047-.02.088-.034.135-.054 1.298-.52 2.258-1.298 2.15-1.738-.108-.44-1.244-.372-2.542.149-.115.047-.224.095-.332.142-.034-.04-.074-.081-.108-.122a42.32 42.32 0 0 0 4.166-1.751c.46-.223.92-.447 1.365-.683.142.473-.04 1.17-.818 1.96-.743.765-2.069 1.61-3.699 2.28-.31.128-.649.25-.96.351h-.013c-2.103.65-4.125 1.042-5.775 1.062v.007Z" stroke="#3442C0" stroke-width=".5" stroke-linejoin="round"/><path d="M87.507 46.211c-6.021 7.014-3.29 19.246 6.094 27.32 9.385 8.073 21.87 8.928 27.888 1.91 1.007-1.176 1.996-2.324 3.001-3.505 6.017-7.019 3.286-19.251-6.098-27.325-9.382-8.068-21.867-8.923-27.884-1.904-1.008 1.175-1.997 2.323-3.001 3.504Z" fill="url(#U)"/><path d="M87.507 46.211c-6.021 7.014-3.29 19.246 6.094 27.32 9.385 8.073 21.87 8.928 27.888 1.91 1.007-1.176 1.996-2.324 3.001-3.505 6.017-7.019 3.286-19.251-6.098-27.325-9.382-8.068-21.867-8.923-27.884-1.904-1.008 1.175-1.997 2.323-3.001 3.504Z" fill="url(#V)" style="mix-blend-mode:multiply" opacity=".3"/><mask id="X" style="mask-type:alpha" maskUnits="userSpaceOnUse" x="84" y="37" width="44" height="44"><path d="M87.509 46.21c-6.022 7.015-3.29 19.247 6.094 27.32 9.385 8.074 21.87 8.93 27.888 1.91 1.007-1.175 1.996-2.323 3.001-3.504 6.017-7.02 3.286-19.251-6.098-27.325-9.382-8.068-21.867-8.923-27.884-1.904-1.008 1.175-1.997 2.323-3.001 3.504Z" fill="url(#W)"/></mask><g mask="url(#X)" stroke="#29256A" stroke-width=".5"><path d="M113.728 22.367 81.207 53.044M115.535 24.793 83.013 55.47M117.342 27.219 84.82 57.896M119.148 29.645 86.627 60.322M122.76 34.498 90.238 65.175M124.564 36.924 92.043 67.602M120.953 32.072 88.431 62.748M126.373 39.35 93.851 70.029M128.178 41.778 95.656 72.455M129.984 44.204 97.463 74.88M131.791 46.63 99.269 77.308M133.597 49.056l-32.521 30.678M135.402 51.482 102.881 82.16M137.211 53.908l-32.522 30.678M139.016 56.335 106.273 86.71"/></g><path d="M87.507 46.211c-6.021 7.014-3.29 19.246 6.094 27.32 9.385 8.073 21.87 8.928 27.888 1.91 1.007-1.176 1.996-2.324 3.001-3.505 6.017-7.019 3.286-19.251-6.098-27.325-9.382-8.068-21.867-8.923-27.884-1.904-1.008 1.175-1.997 2.323-3.001 3.504Z" stroke="#29256A" stroke-width=".5" stroke-linejoin="round"/><path d="M121.491 75.445c6.017-7.018 3.286-19.251-6.1-27.324-9.385-8.073-21.872-8.928-27.889-1.91-6.017 7.018-3.286 19.251 6.1 27.324 9.385 8.073 21.872 8.928 27.889 1.91Z" fill="url(#Y)" stroke="#29256A" stroke-width=".5" stroke-linejoin="round"/><path opacity=".1" d="M86.52 47.522c-4.682 7.155-1.746 18.42 7.08 26.009 8.825 7.59 20.387 8.8 26.739 3.088l-33.82-29.097Z" fill="#fff"/><path d="M95.056 71.834c7.925 6.814 18.519 7.474 23.664 1.474 1.944-2.266 2.832-5.16 2.757-8.257-.126 2.51-.953 4.84-2.556 6.709-4.85 5.655-14.911 4.965-22.475-1.54-7.564-6.506-9.767-16.368-4.917-22.024 1.603-1.868 3.777-3.043 6.24-3.54-3.063.392-5.787 1.705-7.737 3.975-5.145 6-2.895 16.386 5.024 23.203Z" fill="url(#Z)" style="mix-blend-mode:multiply" opacity=".5"/><path d="M95.056 71.834c7.925 6.814 18.519 7.474 23.664 1.474 1.944-2.266 2.832-5.16 2.757-8.257-.126 2.51-.953 4.84-2.556 6.709-4.85 5.655-14.911 4.965-22.475-1.54-7.564-6.506-9.767-16.368-4.917-22.024 1.603-1.868 3.777-3.043 6.24-3.54-3.063.392-5.787 1.705-7.737 3.975-5.145 6-2.895 16.386 5.024 23.203Z" stroke="#29256A" stroke-width=".5" stroke-linejoin="round"/><path d="M118.754 73.091s.118-.16.338-.47c.108-.154.25-.346.408-.57.167-.223.289-.513.464-.824.085-.153.169-.32.266-.49.089-.17.143-.371.223-.567.144-.402.337-.822.43-1.303.119-.476.257-.979.296-1.53.037-.27.068-.553.103-.838.004-.288.01-.584.013-.885.041-.604-.058-1.228-.103-1.872-.02-.324-.107-.649-.162-.98-.068-.329-.098-.669-.206-1.002-.194-.665-.357-1.352-.639-2.027-.134-.338-.238-.689-.4-1.024-.157-.338-.318-.673-.475-1.012-.146-.345-.354-.672-.544-1.003-.194-.329-.367-.68-.585-1-.443-.635-.857-1.306-1.374-1.908-.955-1.264-2.132-2.388-3.31-3.46-1.264-1.03-2.529-2.006-3.924-2.761-.672-.417-1.392-.728-2.097-1.07-.353-.172-.721-.289-1.07-.432-.356-.132-.706-.29-1.075-.384-.361-.105-.717-.215-1.075-.315-.356-.11-.719-.162-1.071-.243-.707-.177-1.411-.236-2.096-.323-.34-.052-.686-.033-1.02-.052-.337-.002-.662-.042-.987-.014-.646.052-1.28.052-1.865.184-.294.052-.589.105-.872.15-.277.078-.549.153-.812.23-.538.123-1.013.331-1.47.521-.466.166-.85.42-1.224.622-.184.107-.37.2-.527.311-.154.117-.303.23-.445.332-.274.218-.551.386-.743.581-.197.19-.361.358-.496.493-.27.268-.417.41-.417.41s.143-.147.401-.422l.48-.505c.186-.205.451-.38.727-.608.135-.111.284-.225.44-.35.154-.117.34-.21.521-.33.37-.222.752-.49 1.216-.67.456-.203.93-.434 1.468-.58.269-.08.542-.163.82-.25l.885-.165c.6-.143 1.242-.155 1.894-.219.327-.036.663-.003 1.005-.005.339.016.687-.012 1.038.033.7.077 1.419.126 2.142.292.733.115 1.454.335 2.188.554.373.09.728.253 1.092.386.363.142.74.26 1.092.432.71.34 1.448.654 2.137 1.074 1.421.761 2.744 1.767 3.993 2.776 1.215 1.115 2.39 2.248 3.36 3.547.519.616.94 1.297 1.382 1.955.218.329.398.681.591 1.018.188.34.396.667.544 1.026.323.693.649 1.377.875 2.081.275.687.429 1.394.61 2.076.103.336.127.688.19 1.02.044.339.131.663.144.999.033.66.12 1.3.068 1.91-.013.308-.024.608-.033.898-.041.29-.085.573-.124.853-.058.556-.215 1.064-.348 1.541-.112.486-.313.904-.475 1.303-.085.2-.152.393-.245.567-.098.17-.19.335-.284.487-.187.304-.318.592-.488.81-.17.217-.31.4-.427.551-.232.304-.353.459-.353.459l.017-.019Z" fill="#29256A"/><path d="M109.244 49.81c-6.886-4.152-14.43-2.895-16.865 2.805-1.211 2.841-.924 6.247.522 9.467l-.004.003c.018.021.027.05.04.074 1.463 3.214 4.075 6.236 7.503 8.3.329.196.655.38.982.55.015.01.029.019.044.02.217.112.434.224.656.325a11.744 11.744 0 0 0 .606.273c6.193 2.644 12.408 1.095 14.574-3.978 2.432-5.704-1.175-13.691-8.058-17.839Zm-.96 2.25c.847.514 1.63 1.101 2.344 1.739 0 0-.011-.005-.018-.006-2.529-.741-4.833-.39-6.353.264-3.51-2.713-5.575-2.752-6.43-1.796-.029.024-.046.053-.067.078-.625.8-.275 2.15.773 3.017 1.049.865 2.404.915 3.024.118.052-.071.1-.147.141-.223.127.08.259.162.397.254a7.418 7.418 0 0 0-1.841 2.716 7.819 7.819 0 0 0-.376 1.1c-1.173-.94-2.353-2.25-2.975-3.654-.605-1.359-.61-2.776.145-3.812a2.585 2.585 0 0 1 .55-.547c2.729-1.726 6.85-1.577 10.694.745l-.008.007Zm-1.797 8.077.003.004c.296.516.557 1.074.78 1.67a9.956 9.956 0 0 1-2.686-.213c-.045-.013-.091-.018-.139-.034a12.079 12.079 0 0 1-1.749-.584c.167-.835.46-1.567.848-2.193.022-.033.04-.069.062-.101.26-.38.581-.744.965-1.083a14.046 14.046 0 0 1 1.842 2.403c.024.045.051.086.078.127l-.004.004Zm-11.951-3.52.007.01c1.223 2.389 3.3 4.313 5.059 5.478.123 3.719 1.653 5.535 3.201 6.05a.8.8 0 0 0 .127.037c1.216.35 2.217-.279 2.232-1.406.015-1.127-.964-2.32-2.181-2.67a2.37 2.37 0 0 0-.312-.068c-.024-.129-.043-.27-.063-.41 1.44.57 2.757.858 3.94.959.441.047.879.068 1.312.065.006 1.252-.318 2.6-1.163 3.483-.813.857-2.139 1.202-3.672.795a5.62 5.62 0 0 1-.897-.331 16.36 16.36 0 0 1-.732-.41c-4.473-2.697-7.179-7.488-6.862-11.585l.004.004Zm20.042 9.395c-.937 2.202-2.863 3.554-5.213 3.965 1.309-1.645 1.533-3.924 1.29-5.747 3.387-1.006 3.926-2.787 3.233-4.26a6.76 6.76 0 0 0-.059-.12c-.596-1.148-1.943-1.873-3.006-1.611-1.063.262-1.439 1.404-.842 2.55.053.099.114.197.175.288-.103.05-.215.1-.338.152a15.686 15.686 0 0 0-2.095-3.67 17.648 17.648 0 0 0-.936-1.164 7.147 7.147 0 0 1 4.138.17 6.615 6.615 0 0 1 3.531 3.014c.151.273.279.579.367.861l.007.009c.513 1.932.471 3.87-.248 5.552l-.004.01Z" fill="url(#aa)" stroke="#3442C0" stroke-width=".5" stroke-linejoin="round"/><path d="M104.054 55.523c-3.277-2.706-5.403-3.212-6.536-2.7-.015.04-.022.081-.034.126 1.142-.475 3.255.056 6.49 2.72a16.829 16.829 0 0 1 2.825 2.988 15.73 15.73 0 0 1 1.792 2.977c.047-.01.086-.022.133-.032a15.646 15.646 0 0 0-1.849-3.087 16.256 16.256 0 0 0-2.825-2.988l.004-.004Z" fill="#fff" style="mix-blend-mode:overlay" opacity=".8"/><path style="mix-blend-mode:overlay" opacity=".6" d="m109.623 64.487-.198.036c-.055 1.857-.671 4.063-2.279 5.564.103.007.203.01.31.014 1.568-1.532 2.143-3.754 2.167-5.614Z" fill="url(#ab)"/><path style="mix-blend-mode:overlay" opacity=".9" d="M102.805 68.16a.8.8 0 0 0 .127.036c.218.062.422.091.625.094-1.335-.87-2.473-2.847-2.429-6.363a8.373 8.373 0 0 1 .653-3.189 7.49 7.49 0 0 1 1.49-2.362c-.412-.34-.81-.628-1.174-.867a7.427 7.427 0 0 0-1.844 2.719c-.41.95-.64 2.02-.654 3.19-.053 4.19 1.569 6.192 3.21 6.738l-.004.003Z" fill="url(#ac)"/><path d="M101.12 61.934c-.044 3.516 1.094 5.493 2.429 6.363.05.001.096-.001.142-.004-1.311-.882-2.418-2.856-2.374-6.322a8.354 8.354 0 0 1 .653-3.19 7.468 7.468 0 0 1 1.423-2.284l-.13-.106a7.472 7.472 0 0 0-1.49 2.361c-.41.95-.639 2.02-.653 3.19v-.008Z" fill="#fff" style="mix-blend-mode:overlay" opacity=".8"/><path style="mix-blend-mode:overlay" opacity=".4" d="M104.902 54.579c.13.106.255.215.38.325 1.762-.428 4.273-.461 6.896.536a15.27 15.27 0 0 0-1.567-1.636c-2.529-.74-4.833-.39-6.349.268.209.16.421.333.644.511l-.004-.004Z" fill="url(#ad)"/><path style="mix-blend-mode:overlay" opacity=".5" d="M105.279 54.9c.061.056.125.109.186.165 1.779-.4 4.306-.395 6.926.64a86.678 86.678 0 0 0-.223-.27c-2.623-.997-5.134-.965-6.897-.536h.008Z" fill="url(#ae)"/><path style="mix-blend-mode:overlay" opacity=".9" d="m113.887 59.97-.06-.12a2.931 2.931 0 0 0-.383-.564c.203 1.373-.783 2.849-4.108 3.661-1.098.27-2.278.323-3.478.201a13.374 13.374 0 0 1-3.335-.728c-.001.442.026.86.076 1.237 1.44.57 2.761.855 3.941.95 1.196.126 2.376.073 3.478-.2 3.958-.967 4.603-2.871 3.868-4.429l.001-.007Z" fill="url(#af)"/><path d="M109.338 62.94c3.321-.81 4.306-2.285 4.108-3.661-.035-.043-.07-.085-.109-.123.169 1.358-.836 2.8-4.115 3.603-1.098.27-2.278.322-3.478.2a13.56 13.56 0 0 1-3.219-.688c-.004.046 0 .092-.004.138 1.207.422 2.323.642 3.335.728 1.196.125 2.376.072 3.478-.201l.004.004Z" fill="#fff" style="mix-blend-mode:overlay" opacity=".8"/><path style="mix-blend-mode:overlay" opacity=".3" d="M99.586 61.42c.004-.138.01-.271.018-.405-1.741-1.435-3.674-3.621-4.729-6.15a7.83 7.83 0 0 0-.346 1.764c1.223 2.39 3.3 4.314 5.059 5.479a9.445 9.445 0 0 1-.006-.684l.004-.004Z" fill="url(#ag)"/><path style="mix-blend-mode:overlay" opacity=".4" d="M99.608 61.011c.006-.068.007-.133.013-.202-1.724-1.456-3.636-3.666-4.652-6.206-.033.084-.06.17-.085.255 1.054 2.529 2.987 4.715 4.728 6.15l-.004.003Z" fill="url(#ah)"/><path d="M109.244 49.81c-6.886-4.152-14.43-2.895-16.865 2.805-1.211 2.841-.924 6.247.522 9.467l-.004.003c.018.021.027.05.04.074 1.463 3.214 4.075 6.236 7.503 8.3.329.196.655.38.982.55.015.01.029.019.044.02.217.112.434.224.656.325a11.744 11.744 0 0 0 .606.273c6.193 2.644 12.408 1.095 14.574-3.978 2.432-5.704-1.175-13.691-8.058-17.839Zm-.96 2.25c.847.514 1.63 1.101 2.344 1.739 0 0-.011-.005-.018-.006-2.529-.741-4.833-.39-6.353.264-3.51-2.713-5.575-2.752-6.43-1.796-.029.024-.046.053-.067.078-.625.8-.275 2.15.773 3.017 1.049.865 2.404.915 3.024.118.052-.071.1-.147.141-.223.127.08.259.162.397.254a7.418 7.418 0 0 0-1.841 2.716 7.819 7.819 0 0 0-.376 1.1c-1.173-.94-2.353-2.25-2.975-3.654-.605-1.359-.61-2.776.145-3.812a2.585 2.585 0 0 1 .55-.547c2.729-1.726 6.85-1.577 10.694.745l-.008.007Zm-1.797 8.077.003.004c.296.516.557 1.074.78 1.67a9.956 9.956 0 0 1-2.686-.213c-.045-.013-.091-.018-.139-.034a12.079 12.079 0 0 1-1.749-.584c.167-.835.46-1.567.848-2.193.022-.033.04-.069.062-.101.26-.38.581-.744.965-1.083a14.046 14.046 0 0 1 1.842 2.403c.024.045.051.086.078.127l-.004.004Zm-11.951-3.52.007.01c1.223 2.389 3.3 4.313 5.059 5.478.123 3.719 1.653 5.535 3.201 6.05a.8.8 0 0 0 .127.037c1.216.35 2.217-.279 2.232-1.406.015-1.127-.964-2.32-2.181-2.67a2.37 2.37 0 0 0-.312-.068c-.024-.129-.043-.27-.063-.41 1.44.57 2.757.858 3.94.959.441.047.879.068 1.312.065.006 1.252-.318 2.6-1.163 3.483-.813.857-2.139 1.202-3.672.795a5.62 5.62 0 0 1-.897-.331 16.36 16.36 0 0 1-.732-.41c-4.473-2.697-7.179-7.488-6.862-11.585l.004.004Zm20.042 9.395c-.937 2.202-2.863 3.554-5.213 3.965 1.309-1.645 1.533-3.924 1.29-5.747 3.387-1.006 3.926-2.787 3.233-4.26a6.76 6.76 0 0 0-.059-.12c-.596-1.148-1.943-1.873-3.006-1.611-1.063.262-1.439 1.404-.842 2.55.053.099.114.197.175.288-.103.05-.215.1-.338.152a15.686 15.686 0 0 0-2.095-3.67 17.648 17.648 0 0 0-.936-1.164 7.147 7.147 0 0 1 4.138.17 6.615 6.615 0 0 1 3.531 3.014c.151.273.279.579.367.861l.007.009c.513 1.932.471 3.87-.248 5.552l-.004.01Z" stroke="#3442C0" stroke-width=".5" stroke-linejoin="round"/><path d="M111.996 103.533c1.77-8.502-6.301-17.377-18.033-19.82C82.23 81.27 71.28 86.183 69.51 94.685l-1.109 5.325c-1.77 8.502 6.307 17.378 18.04 19.821 11.733 2.443 22.682-2.47 24.452-10.972l1.109-5.325-.006-.001Z" fill="url(#ai)" stroke="#29256A" stroke-width=".5" stroke-linejoin="round"/><g style="mix-blend-mode:multiply" opacity=".3"><path d="M111.996 103.533c1.77-8.502-6.301-17.377-18.033-19.82C82.23 81.27 71.28 86.183 69.51 94.685l-1.109 5.325c-1.77 8.502 6.307 17.378 18.04 19.821 11.733 2.443 22.682-2.47 24.452-10.972l1.109-5.325-.006-.001Z" fill="url(#aj)"/><path d="M111.996 103.533c1.77-8.502-6.301-17.377-18.033-19.82C82.23 81.27 71.28 86.183 69.51 94.685l-1.109 5.325c-1.77 8.502 6.307 17.378 18.04 19.821 11.733 2.443 22.682-2.47 24.452-10.972l1.109-5.325-.006-.001Z" stroke="#29256A" stroke-width=".5" stroke-linejoin="round"/></g><mask id="al" style="mask-type:alpha" maskUnits="userSpaceOnUse" x="67" y="82" width="46" height="39"><path d="M111.998 103.533c1.77-8.502-6.301-17.377-18.034-19.82-11.732-2.443-22.681 2.47-24.452 10.973l-1.109 5.324c-1.77 8.503 6.307 17.378 18.04 19.821 11.733 2.444 22.681-2.47 24.452-10.972l1.109-5.325-.006-.001Z" fill="url(#ak)" stroke="#29256A" stroke-width=".5" stroke-linejoin="round"/></mask><g mask="url(#al)" stroke="#29256A" stroke-width=".5"><path d="m69.83 73.133-6.331 46.668M72.917 73.924l-6.33 46.668M76 74.716l-6.33 46.668M79.087 75.508l-6.33 46.668M85.26 77.092l-6.33 46.667M88.347 77.884l-6.33 46.667M82.173 76.3l-6.33 46.668M91.434 78.676l-6.33 46.667M94.522 79.468l-6.33 46.667M97.608 80.26l-6.33 46.667M100.694 81.051l-6.33 46.668M103.778 81.843l-6.33 46.668M106.866 82.635l-6.33 46.667M109.952 83.426l-6.33 46.668M113.04 84.218l-6.713 46.566"/></g><path d="M111.996 103.533c1.77-8.502-6.301-17.377-18.033-19.82C82.23 81.27 71.28 86.183 69.51 94.685l-1.109 5.325c-1.77 8.502 6.307 17.378 18.04 19.821 11.733 2.443 22.682-2.47 24.452-10.972l1.109-5.325-.006-.001Z" stroke="#29256A" stroke-width=".5"/><path d="M87.55 114.506c11.734 2.444 22.681-2.469 24.452-10.972 1.771-8.503-6.306-17.378-18.04-19.821-11.733-2.444-22.68 2.469-24.452 10.972-1.77 8.504 6.306 17.378 18.04 19.821Z" fill="url(#am)" stroke="#29256A" stroke-width=".5" stroke-linejoin="round"/><path opacity=".2" d="M76.132 109.338c3.057 2.4 6.971 4.249 11.416 5.175 11.6 2.415 22.42-2.359 24.379-10.683-19.969-15.529-32.91-15.863-35.795 5.508Z" fill="#fff"/><path d="M93.532 85.772c-9.9-2.062-19.16 2.162-20.674 9.431-.572 2.745.04 5.538 1.566 8.057-1.081-2.135-1.48-4.425-1.009-6.688 1.428-6.856 10.247-10.814 19.703-8.845 9.456 1.97 15.963 9.12 14.535 15.975-.471 2.263-1.753 4.21-3.596 5.736 2.404-1.701 4.08-4.017 4.653-6.768 1.516-7.276-5.283-14.838-15.19-16.901l.012.003Z" fill="url(#an)" style="mix-blend-mode:multiply" opacity=".5"/><path d="M93.534 85.772c-9.9-2.062-19.16 2.162-20.674 9.431-.572 2.745.04 5.538 1.566 8.057-1.081-2.135-1.48-4.425-1.009-6.688 1.428-6.856 10.247-10.814 19.703-8.845 9.456 1.97 15.962 9.12 14.535 15.975-.471 2.263-1.753 4.21-3.597 5.736 2.405-1.701 4.081-4.017 4.654-6.768 1.516-7.276-5.283-14.838-15.19-16.901l.012.003Z" stroke="#29256A" stroke-width=".5"/><path d="M105.106 101.406c.528-5.688-5.417-11.182-13.288-12.285-3.92-.548-7.578.097-10.325 1.59h-.006l-.058.04c-2.729 1.496-4.553 3.842-4.82 6.672a7.183 7.183 0 0 0-.03.81 6.967 6.967 0 0 0 .03.568v.006c.013.16.032.322.06.479.747 4.975 6.224 9.439 13.227 10.422 7.871 1.102 14.676-2.616 15.21-8.302Zm-3.108-.432a5.958 5.958 0 0 1-.545 1.975l.003-.012c-.688-1.989-2.469-3.672-4.117-4.73.941-2.975-.262-4.53-1.85-5.046-.041-.015-.089-.03-.13-.044-1.271-.368-2.582.066-2.921.962-.34.896.413 1.917 1.684 2.284.113.034.222.055.33.076a5.67 5.67 0 0 1-.048.325 18.008 18.008 0 0 0-4.16-1.036 19.507 19.507 0 0 0-1.465-.145 4.973 4.973 0 0 1 2.317-2.694c1.166-.626 2.755-.81 4.372-.377.304.083.626.201.91.324.012.003.03.006.04.02 3.584 1.825 5.883 4.934 5.587 8.113l-.007.005Zm-10.156-.324c-.405.283-.87.555-1.405.795-.606-.671-1.065-1.358-1.38-2.044-.018-.035-.036-.07-.047-.11a6.254 6.254 0 0 1-.396-1.383c1.037.02 2.034.146 2.972.356l.152.029c.58.148 1.183.338 1.8.588a6.955 6.955 0 0 1-1.593 1.688c-.036.024-.066.05-.102.075l-.001.006Zm-3.224-9.4-.007.004c-1.949 1.216-2.861 3.02-3.115 4.489-4.107.566-5.226 1.94-4.875 3.162.006.033.018.067.03.1.34.956 1.647 1.628 2.92 1.496 1.272-.131 2.03-1.017 1.69-1.972a1.736 1.736 0 0 0-.11-.242c.131-.032.276-.068.425-.096a8.468 8.468 0 0 0 1.29 3.075c.213.337.457.668.72.996-1.403.163-3.113.091-4.613-.427-1.453-.504-2.634-1.448-3.102-2.649a2.589 2.589 0 0 1-.165-.714c0-.202.001-.404.02-.602.344-3.694 4.104-6.33 8.897-6.613l-.005-.008Zm1.49 16.217c-3.04-.426-5.713-1.698-7.59-3.406 2.631.771 5.33.652 7.233.236 3.172 2.409 5.489 2.59 6.732 1.885.035-.019.07-.038.099-.058.934-.593.935-1.692.003-2.457-.933-.765-2.444-.9-3.377-.306-.08.054-.153.11-.22.167-.118-.073-.242-.147-.375-.236 1.23-.6 2.159-1.302 2.862-2.034.27-.271.518-.553.744-.851 1.045.837 2.004 1.96 2.296 3.128.287 1.128-.121 2.257-1.264 3.026-.216.149-.48.282-.743.383 0 0-.006-.001-.014.004-1.868.631-4.071.845-6.385.519Z" fill="url(#ao)" stroke="#3442C0" stroke-width=".5" stroke-linejoin="round"/><path d="M95.567 98.242c1.07-2.798.363-4.455-.892-5.243-.054-.01-.105-.007-.162-.005 1.222.794 1.9 2.445.842 5.208-.351.925-.924 1.764-1.659 2.497a9.573 9.573 0 0 1-2.264 1.724c.037.033.075.065.114.091.986-.539 1.76-1.144 2.362-1.775.733-.726 1.306-1.565 1.659-2.497Z" fill="#fff" style="mix-blend-mode:overlay" opacity=".8"/><path style="mix-blend-mode:overlay" opacity=".6" d="m88.846 103.556-.16-.144c-2.125.191-4.968.011-7.622-.998.054.08.11.153.169.234 2.66.979 5.502 1.133 7.612.915v-.007Z" fill="url(#ap)"/><path style="mix-blend-mode:overlay" opacity=".9" d="M80.616 98.904c.006.033.019.067.03.1.063.17.151.332.267.48.173-1.11 1.712-2.214 5.69-2.628 1.316-.135 2.664-.1 3.976.085 1.121.137 2.313.395 3.55.82.13-.355.217-.686.269-.992a17.726 17.726 0 0 0-4.16-1.036 16.474 16.474 0 0 0-3.977-.085c-4.738.49-6.013 1.96-5.645 3.256Z" fill="url(#aq)"/><path d="M86.604 96.856c-3.977.414-5.516 1.518-5.69 2.629l.087.104c.209-1.097 1.755-2.175 5.68-2.58 1.317-.135 2.665-.1 3.977.086 1.084.136 2.235.38 3.426.777l.04-.113a18.33 18.33 0 0 0-3.55-.819 16.468 16.468 0 0 0-3.976-.085h.006Z" fill="#fff" style="mix-blend-mode:overlay" opacity=".8"/><path style="mix-blend-mode:overlay" opacity=".4" d="M97.148 98.757c-.04.112-.09.216-.136.322 1.54 1.265 3.089 3.145 3.545 5.234.363-.43.665-.897.896-1.384-.683-1.987-2.469-3.672-4.112-4.723-.059.178-.118.357-.191.545l-.002.006Z" fill="url(#ar)"/><path style="mix-blend-mode:overlay" opacity=".5" d="M97.003 99.084a2.399 2.399 0 0 1-.075.163c1.519 1.28 3.033 3.178 3.444 5.272.056-.065.118-.129.176-.2-.456-2.09-2.005-3.97-3.545-5.235Z" fill="url(#as)"/><path style="mix-blend-mode:overlay" opacity=".9" d="M96.48 106.175s.07-.038.098-.057c.165-.108.3-.228.407-.359-1.422.324-3.674-.23-6.58-2.614a10.887 10.887 0 0 1-2.313-2.581 8.578 8.578 0 0 1-1.187-2.595c-.5.057-.952.129-1.344.213.226 1.154.697 2.173 1.297 3.07a11 11 0 0 0 2.312 2.581c3.466 2.844 5.99 3.083 7.304 2.341l.006.001Z" fill="url(#at)"/><path d="M90.412 103.146c2.907 2.384 5.158 2.944 6.58 2.614.026-.033.05-.066.07-.101-1.43.298-3.653-.27-6.522-2.628a10.867 10.867 0 0 1-2.312-2.581 8.737 8.737 0 0 1-1.16-2.501c-.051.003-.103.012-.16.014.25.957.67 1.82 1.187 2.595a10.977 10.977 0 0 0 2.312 2.58l.005.008Z" fill="#fff" style="mix-blend-mode:overlay" opacity=".8"/><path style="mix-blend-mode:overlay" opacity=".3" d="M86.263 95.642c.153-.016.313-.03.471-.037.57-1.484 1.863-3.21 4.069-4.327a15.326 15.326 0 0 0-2.188-.036c-1.948 1.216-2.86 3.02-3.115 4.489.245-.036.501-.063.764-.095v.006Z" fill="url(#au)"/><path style="mix-blend-mode:overlay" opacity=".4" d="M86.73 95.603c.076-.004.16-.013.235-.018.6-1.478 1.935-3.19 4.178-4.274-.116-.016-.228-.024-.339-.033-2.21 1.11-3.504 2.842-4.068 4.327l-.006-.002Z" fill="url(#av)"/><path d="M105.106 101.405c.528-5.687-5.417-11.181-13.288-12.284-3.92-.548-7.578.097-10.325 1.59h-.006l-.058.039c-2.729 1.497-4.553 3.843-4.82 6.673a7.182 7.182 0 0 0-.03.81 6.973 6.973 0 0 0 .03.568v.006c.013.16.032.322.06.478.747 4.976 6.224 9.44 13.227 10.422 7.871 1.103 14.676-2.615 15.21-8.302Zm-3.108-.432a5.957 5.957 0 0 1-.545 1.976l.003-.013c-.688-1.988-2.469-3.672-4.117-4.73.941-2.974-.262-4.53-1.85-5.046l-.13-.043c-1.271-.368-2.582.065-2.921.961-.34.896.413 1.917 1.684 2.285.113.034.222.055.33.076a5.66 5.66 0 0 1-.048.325 18.008 18.008 0 0 0-4.16-1.036 19.455 19.455 0 0 0-1.465-.145 4.973 4.973 0 0 1 2.317-2.694c1.166-.626 2.755-.81 4.372-.377.304.083.626.2.91.324.012.002.03.006.04.02 3.584 1.825 5.883 4.934 5.587 8.112l-.007.005Zm-10.156-.323c-.405.283-.87.555-1.405.795-.606-.671-1.065-1.359-1.38-2.044-.018-.035-.036-.07-.047-.11a6.257 6.257 0 0 1-.396-1.383c1.037.02 2.034.146 2.972.356l.152.028c.58.148 1.183.339 1.8.589a6.933 6.933 0 0 1-1.593 1.687c-.036.025-.066.051-.102.076l-.001.006Zm-3.224-9.4-.007.004c-1.949 1.216-2.861 3.02-3.115 4.489-4.107.566-5.226 1.939-4.875 3.162.006.033.018.067.03.1.34.956 1.647 1.627 2.92 1.496 1.272-.131 2.03-1.017 1.69-1.972a1.726 1.726 0 0 0-.11-.242c.131-.032.276-.068.425-.097a8.476 8.476 0 0 0 1.29 3.076c.213.337.457.668.72.996-1.403.163-3.113.091-4.613-.427-1.453-.504-2.634-1.448-3.102-2.65a2.588 2.588 0 0 1-.165-.713c0-.202.001-.404.02-.602.344-3.695 4.104-6.33 8.897-6.614l-.005-.007Zm1.49 16.217c-3.04-.426-5.713-1.698-7.59-3.406 2.631.771 5.33.652 7.233.236 3.172 2.409 5.489 2.59 6.732 1.884a.904.904 0 0 0 .099-.057c.934-.593.935-1.692.003-2.457-.933-.765-2.444-.9-3.377-.306-.08.054-.153.11-.22.166-.118-.072-.242-.147-.375-.235 1.23-.601 2.159-1.302 2.862-2.034.27-.271.518-.553.744-.851 1.045.836 2.004 1.96 2.296 3.127.287 1.129-.121 2.258-1.264 3.027-.216.148-.48.282-.743.383 0 0-.006-.001-.014.004-1.868.631-4.071.844-6.385.519Z" stroke="#3442C0" stroke-width=".5" stroke-linejoin="round"/><defs><linearGradient id="a" x1="134.291" y1="46.517" x2="174.337" y2="46.517" gradientUnits="userSpaceOnUse"><stop stop-color="#DDE7FF"/><stop offset="1" stop-color="#9FD0E3"/></linearGradient><linearGradient id="b" x1="152.059" y1="166.292" x2="174.973" y2="166.292" gradientUnits="userSpaceOnUse"><stop stop-color="#DDE7FF"/><stop offset="1" stop-color="#9FD0E3"/></linearGradient><linearGradient id="c" x1="162.773" y1="119.204" x2="181.448" y2="119.204" gradientUnits="userSpaceOnUse"><stop stop-color="#DDE7FF"/><stop offset="1" stop-color="#9FD0E3"/></linearGradient><linearGradient id="d" x1="161.914" y1="58.893" x2="200.854" y2="58.893" gradientUnits="userSpaceOnUse"><stop stop-color="#DDE7FF"/><stop offset="1" stop-color="#9FD0E3"/></linearGradient><linearGradient id="e" x1="162.419" y1="78.251" x2="198.286" y2="78.251" gradientUnits="userSpaceOnUse"><stop stop-color="#A05AC1"/><stop offset="1" stop-color="#142387"/></linearGradient><linearGradient id="f" x1="165.729" y1="80.523" x2="172.888" y2="80.523" gradientUnits="userSpaceOnUse"><stop stop-color="#A05AC1"/><stop offset="1" stop-color="#142387"/></linearGradient><linearGradient id="g" x1="168.686" y1="28.925" x2="194.744" y2="28.925" gradientUnits="userSpaceOnUse"><stop stop-color="#DDE7FF"/><stop offset="1" stop-color="#9FD0E3"/></linearGradient><linearGradient id="h" x1="169.381" y1="16.997" x2="199.572" y2="16.997" gradientUnits="userSpaceOnUse"><stop stop-color="#DDE7FF"/><stop offset="1" stop-color="#9FD0E3"/></linearGradient><linearGradient id="i" x1="194.074" y1="173.227" x2="209.711" y2="173.227" gradientUnits="userSpaceOnUse"><stop stop-color="#DDE7FF"/><stop offset="1" stop-color="#9FD0E3"/></linearGradient><linearGradient id="j" x1="175.527" y1="124.808" x2="207.532" y2="124.808" gradientUnits="userSpaceOnUse"><stop stop-color="#DDE7FF"/><stop offset="1" stop-color="#9FD0E3"/></linearGradient><linearGradient id="k" x1="192.176" y1="50.956" x2="209.862" y2="50.956" gradientUnits="userSpaceOnUse"><stop stop-color="#DDE7FF"/><stop offset="1" stop-color="#9FD0E3"/></linearGradient><linearGradient id="l" x1="193.307" y1="76.484" x2="210.086" y2="76.484" gradientUnits="userSpaceOnUse"><stop stop-color="#DDE7FF"/><stop offset="1" stop-color="#9FD0E3"/></linearGradient><linearGradient id="x" x1="136.774" y1="177.282" x2="70.674" y2="114.192" gradientUnits="userSpaceOnUse"><stop stop-color="#5971FF"/><stop offset="1" stop-color="#12CDD9"/></linearGradient><linearGradient id="y" x1="124.599" y1="166.829" x2="75.052" y2="119.542" gradientUnits="userSpaceOnUse"><stop stop-color="#5971FF"/><stop offset="1" stop-color="#12CDD9"/></linearGradient><linearGradient id="z" x1="122.153" y1="156.553" x2="75.726" y2="112.245" gradientUnits="userSpaceOnUse"><stop stop-color="#5971FF"/><stop offset="1" stop-color="#12CDD9"/></linearGradient><linearGradient id="A" x1="120.111" y1="147.233" x2="76.519" y2="105.625" gradientUnits="userSpaceOnUse"><stop stop-color="#5971FF"/><stop offset="1" stop-color="#12CDD9"/></linearGradient><linearGradient id="B" x1="90.41" y1="141.546" x2="81.71" y2="122.866" gradientUnits="userSpaceOnUse"><stop stop-color="#000054"/><stop offset=".54" stop-color="#240082"/><stop offset="1" stop-color="#254790"/></linearGradient><linearGradient id="C" x1="109.673" y1="140.061" x2="81.137" y2="112.83" gradientUnits="userSpaceOnUse"><stop stop-color="#5971FF"/><stop offset="1" stop-color="#12CDD9"/></linearGradient><linearGradient id="D" x1="88.19" y1="66.236" x2="91.09" y2="137.686" gradientUnits="userSpaceOnUse"><stop stop-color="#F3EBF9" stop-opacity="0"/><stop offset=".28" stop-color="#F3EEF9" stop-opacity="0"/><stop offset=".3" stop-color="#F4EFFA" stop-opacity="0"/><stop offset=".38" stop-color="#F0F1FA" stop-opacity=".04"/><stop offset=".5" stop-color="#E6F9FD" stop-opacity=".13"/><stop offset=".57" stop-color="#DFFFFF" stop-opacity=".2"/><stop offset=".64" stop-color="#DEFFFF" stop-opacity=".3"/><stop offset=".78" stop-color="#DFF" stop-opacity=".56"/><stop offset=".98" stop-color="#DBFFFF" stop-opacity=".96"/><stop offset="1" stop-color="#DBFFFF"/></linearGradient><linearGradient id="E" x1="48.62" y1="88.09" x2="95.363" y2="78.913" gradientUnits="userSpaceOnUse"><stop stop-color="#E6007A"/><stop offset=".21" stop-color="#703AC2"/><stop offset=".46" stop-color="#0070EB"/><stop offset=".77" stop-color="#0297FB"/><stop offset="1" stop-color="#0AE2FF"/></linearGradient><linearGradient id="F" x1="48.62" y1="88.09" x2="95.363" y2="78.913" gradientUnits="userSpaceOnUse"><stop stop-color="#E6007A"/><stop offset=".21" stop-color="#703AC2"/><stop offset=".46" stop-color="#0070EB"/><stop offset=".77" stop-color="#0297FB"/><stop offset="1" stop-color="#0AE2FF"/></linearGradient><linearGradient id="G" x1="62.242" y1="68.957" x2="94.222" y2="85.79" gradientUnits="userSpaceOnUse"><stop stop-color="#E6C1FF"/><stop offset=".406" stop-color="#B6C7FF"/><stop offset="1" stop-color="#AFF1FF"/></linearGradient><linearGradient id="I" x1="46.613" y1="83.645" x2="89.484" y2="74.038" gradientUnits="userSpaceOnUse"><stop stop-color="#E60068"/><stop offset=".21" stop-color="#703AC2"/><stop offset=".46" stop-color="#0070EB"/><stop offset=".77" stop-color="#0297FB"/><stop offset="1" stop-color="#0AE2FF"/></linearGradient><linearGradient id="J" x1="59.557" y1="63.101" x2="62.675" y2="87.129" gradientUnits="userSpaceOnUse"><stop stop-color="#E6007A"/><stop offset=".21" stop-color="#703AC2"/><stop offset=".46" stop-color="#0070EB"/><stop offset=".77" stop-color="#0297FB"/><stop offset="1" stop-color="#0AE2FF"/></linearGradient><linearGradient id="K" x1="66.587" y1="70.79" x2="85.213" y2="82.028" gradientUnits="userSpaceOnUse"><stop stop-color="#E6C1FF"/><stop offset=".406" stop-color="#B6C7FF"/><stop offset="1" stop-color="#AFF1FF"/></linearGradient><linearGradient id="N" x1="77.479" y1="78.885" x2="79.495" y2="78.925" gradientUnits="userSpaceOnUse"><stop stop-color="#fff" stop-opacity="0"/><stop offset="1" stop-color="#fff"/></linearGradient><linearGradient id="Q" x1="61.358" y1="102.619" x2="62.265" y2="101.204" gradientUnits="userSpaceOnUse"><stop stop-color="#fff" stop-opacity="0"/><stop offset="1" stop-color="#fff"/></linearGradient><linearGradient id="T" x1="141.703" y1="40.549" x2="138.84" y2="42.001" gradientUnits="userSpaceOnUse"><stop stop-color="#fff" stop-opacity="0"/><stop offset="1" stop-color="#fff"/></linearGradient><linearGradient id="U" x1="84.691" y1="43.877" x2="123.295" y2="75.553" gradientUnits="userSpaceOnUse"><stop stop-color="#E6007A"/><stop offset=".21" stop-color="#703AC2"/><stop offset=".46" stop-color="#0070EB"/><stop offset=".77" stop-color="#0297FB"/><stop offset="1" stop-color="#0AE2FF"/></linearGradient><linearGradient id="V" x1="84.691" y1="43.877" x2="123.295" y2="75.553" gradientUnits="userSpaceOnUse"><stop stop-color="#E6007A"/><stop offset=".21" stop-color="#703AC2"/><stop offset=".46" stop-color="#0070EB"/><stop offset=".77" stop-color="#0297FB"/><stop offset="1" stop-color="#0AE2FF"/></linearGradient><linearGradient id="W" x1="84.693" y1="43.877" x2="123.297" y2="75.552" gradientUnits="userSpaceOnUse"><stop stop-color="#E6007A"/><stop offset=".21" stop-color="#703AC2"/><stop offset=".46" stop-color="#0070EB"/><stop offset=".77" stop-color="#0297FB"/><stop offset="1" stop-color="#0AE2FF"/></linearGradient><linearGradient id="Y" x1="77.842" y1="54.011" x2="124.652" y2="73.518" gradientUnits="userSpaceOnUse"><stop stop-color="#E6007A"/><stop offset=".21" stop-color="#703AC2"/><stop offset=".46" stop-color="#0070EB"/><stop offset=".77" stop-color="#0297FB"/><stop offset="1" stop-color="#0AE2FF"/></linearGradient><linearGradient id="Z" x1="82.485" y1="48.901" x2="116.995" y2="75.72" gradientUnits="userSpaceOnUse"><stop stop-color="#E6007A"/><stop offset=".21" stop-color="#703AC2"/><stop offset=".46" stop-color="#0070EB"/><stop offset=".77" stop-color="#0297FB"/><stop offset="1" stop-color="#0AE2FF"/></linearGradient><linearGradient id="aa" x1="94.739" y1="57.379" x2="112.168" y2="48.815" gradientUnits="userSpaceOnUse"><stop stop-color="#E6C1FF"/><stop offset=".406" stop-color="#B6C7FF"/><stop offset="1" stop-color="#AFF1FF"/></linearGradient><linearGradient id="ab" x1="107.129" y1="69.806" x2="108.355" y2="67.774" gradientUnits="userSpaceOnUse"><stop stop-color="#fff" stop-opacity="0"/><stop offset="1" stop-color="#fff"/></linearGradient><linearGradient id="ae" x1="112.108" y1="55.228" x2="109.334" y2="55.239" gradientUnits="userSpaceOnUse"><stop stop-color="#fff" stop-opacity="0"/><stop offset="1" stop-color="#fff"/></linearGradient><linearGradient id="ah" x1="95.423" y1="54.718" x2="96.912" y2="57.399" gradientUnits="userSpaceOnUse"><stop stop-color="#fff" stop-opacity="0"/><stop offset="1" stop-color="#fff"/></linearGradient><linearGradient id="ai" x1="62.776" y1="111.531" x2="108.731" y2="114.63" gradientUnits="userSpaceOnUse"><stop stop-color="#E6007A"/><stop offset=".21" stop-color="#703AC2"/><stop offset=".46" stop-color="#0070EB"/><stop offset=".77" stop-color="#0297FB"/><stop offset="1" stop-color="#0AE2FF"/></linearGradient><linearGradient id="aj" x1="62.776" y1="111.531" x2="108.731" y2="114.63" gradientUnits="userSpaceOnUse"><stop stop-color="#E6007A"/><stop offset=".21" stop-color="#703AC2"/><stop offset=".46" stop-color="#0070EB"/><stop offset=".77" stop-color="#0297FB"/><stop offset="1" stop-color="#0AE2FF"/></linearGradient><linearGradient id="ak" x1="62.778" y1="111.531" x2="108.733" y2="114.63" gradientUnits="userSpaceOnUse"><stop stop-color="#E6007A"/><stop offset=".21" stop-color="#703AC2"/><stop offset=".46" stop-color="#0070EB"/><stop offset=".77" stop-color="#0297FB"/><stop offset="1" stop-color="#0AE2FF"/></linearGradient><linearGradient id="am" x1="61.95" y1="105.126" x2="106.068" y2="106.972" gradientUnits="userSpaceOnUse"><stop stop-color="#E60068"/><stop offset=".21" stop-color="#703AC2"/><stop offset=".46" stop-color="#0070EB"/><stop offset=".77" stop-color="#0297FB"/><stop offset="1" stop-color="#0AE2FF"/></linearGradient><linearGradient id="an" x1="80.16" y1="80.96" x2="78.434" y2="106.693" gradientUnits="userSpaceOnUse"><stop stop-color="#E6007A"/><stop offset=".21" stop-color="#703AC2"/><stop offset=".46" stop-color="#0070EB"/><stop offset=".77" stop-color="#0297FB"/><stop offset="1" stop-color="#0AE2FF"/></linearGradient><linearGradient id="ao" x1="84.278" y1="92.038" x2="103.83" y2="105.521" gradientUnits="userSpaceOnUse"><stop stop-color="#E6C1FF"/><stop offset=".406" stop-color="#B6C7FF"/><stop offset="1" stop-color="#AFF1FF"/></linearGradient><linearGradient id="ap" x1="81.345" y1="102.518" x2="84.366" y2="103.048" gradientUnits="userSpaceOnUse"><stop stop-color="#fff" stop-opacity="0"/><stop offset="1" stop-color="#fff"/></linearGradient><linearGradient id="as" x1="99.754" y1="104.497" x2="98.904" y2="102.202" gradientUnits="userSpaceOnUse"><stop stop-color="#fff" stop-opacity="0"/><stop offset="1" stop-color="#fff"/></linearGradient><linearGradient id="av" x1="90.602" y1="91.162" x2="89.063" y2="92.993" gradientUnits="userSpaceOnUse"><stop stop-color="#fff" stop-opacity="0"/><stop offset="1" stop-color="#fff"/></linearGradient><radialGradient id="m" cx="0" cy="0" r="1" gradientUnits="userSpaceOnUse" gradientTransform="matrix(0 2.49 -2.49 0 43.73 66.346)"><stop stop-color="#00DBFF"/><stop offset="1" stop-color="#00DBFF" stop-opacity="0"/></radialGradient><radialGradient id="n" cx="0" cy="0" r="1" gradientUnits="userSpaceOnUse" gradientTransform="matrix(0 2.49 -2.49 0 124.5 74.796)"><stop stop-color="#00DBFF"/><stop offset="1" stop-color="#00DBFF" stop-opacity="0"/></radialGradient><radialGradient id="o" cx="0" cy="0" r="1" gradientUnits="userSpaceOnUse" gradientTransform="rotate(90 48.467 78.484) scale(2.49)"><stop stop-color="#00DBFF"/><stop offset="1" stop-color="#00DBFF" stop-opacity="0"/></radialGradient><radialGradient id="p" cx="0" cy="0" r="1" gradientUnits="userSpaceOnUse" gradientTransform="rotate(90 17.907 91.514) scale(1.62)"><stop stop-color="#00DBFF"/><stop offset="1" stop-color="#00DBFF" stop-opacity="0"/></radialGradient><radialGradient id="q" cx="0" cy="0" r="1" gradientUnits="userSpaceOnUse" gradientTransform="rotate(90 8.212 110.979) scale(2.39)"><stop stop-color="#00DBFF"/><stop offset="1" stop-color="#00DBFF" stop-opacity="0"/></radialGradient><radialGradient id="r" cx="0" cy="0" r="1" gradientUnits="userSpaceOnUse" gradientTransform="matrix(0 1.36 -1.36 0 70.83 108.996)"><stop stop-color="#00DBFF"/><stop offset="1" stop-color="#00DBFF" stop-opacity="0"/></radialGradient><radialGradient id="s" cx="0" cy="0" r="1" gradientUnits="userSpaceOnUse" gradientTransform="rotate(90 .917 49.803) scale(1.36)"><stop stop-color="#00DBFF"/><stop offset="1" stop-color="#00DBFF" stop-opacity="0"/></radialGradient><radialGradient id="t" cx="0" cy="0" r="1" gradientUnits="userSpaceOnUse" gradientTransform="matrix(0 1.36 -1.36 0 84.18 21.866)"><stop stop-color="#00DBFF"/><stop offset="1" stop-color="#00DBFF" stop-opacity="0"/></radialGradient><radialGradient id="u" cx="0" cy="0" r="1" gradientUnits="userSpaceOnUse" gradientTransform="rotate(90 19.662 61.649) scale(1.36)"><stop stop-color="#00DBFF"/><stop offset="1" stop-color="#00DBFF" stop-opacity="0"/></radialGradient><radialGradient id="v" cx="0" cy="0" r="1" gradientUnits="userSpaceOnUse" gradientTransform="matrix(0 1.36 -1.36 0 69.47 36.886)"><stop stop-color="#00DBFF"/><stop offset="1" stop-color="#00DBFF" stop-opacity="0"/></radialGradient><radialGradient id="w" cx="0" cy="0" r="1" gradientUnits="userSpaceOnUse" gradientTransform="rotate(90 36.392 79.228) scale(1.36)"><stop stop-color="#00DBFF"/><stop offset="1" stop-color="#00DBFF" stop-opacity="0"/></radialGradient><radialGradient id="L" cx="0" cy="0" r="1" gradientUnits="userSpaceOnUse" gradientTransform="matrix(3.58267 .13638 -.11282 2.96384 86.103 73.997)"><stop stop-color="#fff"/><stop offset="1" stop-color="#fff" stop-opacity="0"/></radialGradient><radialGradient id="M" cx="0" cy="0" r="1" gradientUnits="userSpaceOnUse" gradientTransform="matrix(2.08121 .07922 -.06554 1.72173 80.596 79.293)"><stop stop-color="#fff"/><stop offset="1" stop-color="#fff" stop-opacity="0"/></radialGradient><radialGradient id="O" cx="0" cy="0" r="1" gradientUnits="userSpaceOnUse" gradientTransform="rotate(-56.63 116.594 -9.054) scale(2.99858 3.55267)"><stop stop-color="#fff"/><stop offset="1" stop-color="#fff" stop-opacity="0"/></radialGradient><radialGradient id="P" cx="0" cy="0" r="1" gradientUnits="userSpaceOnUse" gradientTransform="rotate(-56.63 124.931 -8.242) scale(1.74191 2.06379)"><stop stop-color="#fff"/><stop offset="1" stop-color="#fff" stop-opacity="0"/></radialGradient><radialGradient id="R" cx="0" cy="0" r="1" gradientUnits="userSpaceOnUse" gradientTransform="matrix(-5.229 2.35879 -.76393 -1.69349 130.793 48.921)"><stop stop-color="#fff"/><stop offset="1" stop-color="#fff" stop-opacity="0"/></radialGradient><radialGradient id="S" cx="0" cy="0" r="1" gradientUnits="userSpaceOnUse" gradientTransform="rotate(155.72 63.966 35.964) scale(3.33236 1.07923)"><stop stop-color="#fff"/><stop offset="1" stop-color="#fff" stop-opacity="0"/></radialGradient><radialGradient id="ac" cx="0" cy="0" r="1" gradientUnits="userSpaceOnUse" gradientTransform="rotate(-170.455 75.394 28.895) scale(5.05114 4.60628)"><stop stop-color="#fff"/><stop offset="1" stop-color="#fff" stop-opacity="0"/></radialGradient><radialGradient id="ad" cx="0" cy="0" r="1" gradientUnits="userSpaceOnUse" gradientTransform="matrix(-2.89487 -.48677 .4439 -2.6399 153.509 62.667)"><stop stop-color="#fff"/><stop offset="1" stop-color="#fff" stop-opacity="0"/></radialGradient><radialGradient id="af" cx="0" cy="0" r="1" gradientUnits="userSpaceOnUse" gradientTransform="rotate(56.68 -28.238 179.335) scale(5.44498 4.27352)"><stop stop-color="#fff"/><stop offset="1" stop-color="#fff" stop-opacity="0"/></radialGradient><radialGradient id="ag" cx="0" cy="0" r="1" gradientUnits="userSpaceOnUse" gradientTransform="rotate(56.68 -31.335 168.091) scale(3.16439 2.48359)"><stop stop-color="#fff"/><stop offset="1" stop-color="#fff" stop-opacity="0"/></radialGradient><radialGradient id="aq" cx="0" cy="0" r="1" gradientUnits="userSpaceOnUse" gradientTransform="rotate(-118.128 78.261 26.224) scale(4.37398 4.94018)"><stop stop-color="#fff"/><stop offset="1" stop-color="#fff" stop-opacity="0"/></radialGradient><radialGradient id="ar" cx="0" cy="0" r="1" gradientUnits="userSpaceOnUse" gradientTransform="matrix(-1.20143 -2.24744 2.53837 -1.35696 103.129 108.92)"><stop stop-color="#fff"/><stop offset="1" stop-color="#fff" stop-opacity="0"/></radialGradient><radialGradient id="at" cx="0" cy="0" r="1" gradientUnits="userSpaceOnUse" gradientTransform="matrix(-3.33234 2.83324 -3.19999 -3.7637 199.357 7.825)"><stop stop-color="#fff"/><stop offset="1" stop-color="#fff" stop-opacity="0"/></radialGradient><radialGradient id="au" cx="0" cy="0" r="1" gradientUnits="userSpaceOnUse" gradientTransform="matrix(-1.94153 1.65074 -1.86442 -2.19285 198.546 -3.11)"><stop stop-color="#fff"/><stop offset="1" stop-color="#fff" stop-opacity="0"/></radialGradient></defs></svg>