<svg width="240" height="210" fill="none" xmlns="http://www.w3.org/2000/svg"><path d="M85.81 38.955s4.468-3.342 7.927-3.188c3.46.14 7.605 2.782 8.977 6.208 1.359 3.412 7.185 17.058 7.185 17.058s8.277 4.572 14.047 11.032a316.631 316.631 0 0 0 11.456 12.109s-.238 4.152-4.804 4.935L103.933 70.61s-15-20.973-18.123-31.641v-.014Z" fill="url(#a)" stroke="#29256A" stroke-width=".5" stroke-linecap="round" stroke-linejoin="round"/><path d="M93.247 35.78c-2.31.951 6.821 11.214 6.821 11.214C103.191 57.65 107.14 69.8 107.14 69.8l26.147 16.192c-.672.503-1.54.908-2.689 1.104l-26.665-16.499s-15-20.973-18.123-31.641c0 0 4.062-3.034 7.437-3.174Z" fill="#29256A" opacity=".15"/><path d="m71.567 40.381-14.075 9.606s1.709 25.685 4.636 34.48c0 0-.434 52.391-1.415 59.228 0 0 7.087 5.943 15.476 6.32 14.495.657 22.94-2.894 26.903-8.515 0 0-.21-47.232.378-55.537s1.037-12.626 1.037-12.626.056-8.291-1.415-15.548c-1.47-7.257-5.21-19.729-11.162-22.581-5.952-2.866-20.39 5.187-20.39 5.187l.027-.014Z" fill="url(#b)" stroke="#29256A" stroke-width=".5" stroke-linecap="round" stroke-linejoin="round"/><path d="m56.639 50.379 3.585-.07h.672l2.353 2.67s2.353 8.501 5.798 31.502c0 0-2.857 25.475-4.412 37.836-3.5-2.685-3.99-5.342-3.99-5.342.475-11.759 1.498-32.494 1.498-32.494-2.941-8.795-5.504-34.102-5.504-34.102Z" fill="#29256A" opacity=".15"/><path d="M61.484 98.058c4.285 2.572 12.674 5.215 24.032 5.565 9.271.293 14.901-4.21 17.716-7.173.07.251.098.335.154.49 0 0-.154 4.809-.588 6.683-3.935 3.006-9.79 5.998-17.534 5.998-.308 0-.616 0-.938-.014-10.462-.322-16.134-3.37-21.19-5.901-.336-1.468-1.75-3.915-1.947-5.397 0 0 .127-.097.309-.251h-.014Z" fill="#29256A" stroke="#29256A" stroke-width=".5" stroke-linecap="round" stroke-linejoin="round"/><path d="M61.176 98.295c4.285 2.573 12.52 5.985 23.892 6.334 9.271.294 15.504-4.726 18.319-7.69.896 2.754.504 4.782 0 6.949-3.936 3.006-9.79 5.998-17.535 5.998-.308 0-.616 0-.938-.014-10.462-.321-18.948-3.062-24.004-5.606-.434-1.902-.462-3.985.28-5.97h-.014Z" fill="url(#c)" stroke="#29256A" stroke-width=".5" stroke-linecap="round" stroke-linejoin="round"/><path d="M98.429 99.107c-.336-.196-.799-.168-1.303.125l-4.943 2.853c-1.023.587-1.849 2.027-1.849 3.188v5.662c.014.574.224.993.56 1.189l.924.531c-.336-.195-.546-.601-.546-1.188v-5.663c-.014-1.16.813-2.601 1.835-3.188l4.944-2.852c.504-.294.966-.322 1.302-.126l-.924-.531v0Z" fill="#29256A" stroke="#29256A" stroke-width=".5" stroke-linecap="round" stroke-linejoin="round"/><path d="M93.12 102.616c-1.022.587-1.849 2.028-1.849 3.188v5.663c.014 1.16.855 1.65 1.877 1.063l4.944-2.853c1.008-.587 1.849-2.027 1.835-3.188v-5.663c-.015-1.16-.855-1.65-1.863-1.062l-4.944 2.852v0Z" fill="url(#d)" stroke="#29256A" stroke-width=".5" stroke-linecap="round" stroke-linejoin="round"/><path d="M94.957 19.716v17.98l-1.176 3.972S90.026 31.46 76.316 34.41l.91-20.484 14.748 2.153 2.983 3.65v-.014Z" fill="#CDE1F8" stroke="#29256A" stroke-width=".5" stroke-linecap="round" stroke-linejoin="round"/><path d="m81.273 44.73-1.807 4.642s-.042 2.685-3.613 1.37c-3.571-1.3-10.49-9.34-10.49-9.34l4.678-8.473 12.044 8.767-.798 3.048-.014-.014Z" fill="#E8B5A7" stroke="#29256A" stroke-width=".5" stroke-linecap="round" stroke-linejoin="round"/><path d="m72.954 38.746 1.778-2.391 7.339 5.341-.798 3.048-1.807 4.642s0 .392-.21.797c-7.535-1.86-6.288-11.423-6.288-11.423l-.014-.014Z" fill="#E8B5A7" style="mix-blend-mode:darken"/><path d="M91.453 27.448s.336 5.704 0 8.137c-.336 2.433-1.793 6.012-1.835 7.173-.041 1.16-.364 2.894-1.456 3.328-1.106.433-5.602.461-8.893-1.496-3.277-1.958-6.288-5.09-7.087-6.488-.798-1.384-3.697-5.201-4.327-8.054-.63-2.852-.336-9.032 3.333-10.57 3.67-1.552 11.652-2.223 15.615 1.552 3.964 3.775 4.006 5.02 4.65 6.418v0Z" fill="#FFD8CC" stroke="#29256A" stroke-width=".5" stroke-linecap="round" stroke-linejoin="round"/><path d="M82.07 27.923s6.68.518 8.165.224c2.647-.545 3.88-3.58 3.487-6.586-.392-3.006-3.263-6.487-4.901-7.536-1.639-1.049-6.457-3.328-9.902-3.23-3.445.112-8.85 1.818-11.134 4.348-2.422 2.699-2.94 4.81-3.305 7.747-.364 2.936 1.19 9.27 1.96 10.207.757.936 5.407 4.432 5.407 4.432l2.94 1.398s-.433-4.894-.251-7.06c.182-2.168 5.616-.197 7.548-3.944h-.014Z" fill="#29256A" stroke="#29256A" stroke-width=".5" stroke-linecap="round" stroke-linejoin="round"/><path d="M72.492 38.591s-.49-4.6-2.829-6.306c-1.442-1.062-1.904.028-2.072.392-.168.363-.504 2.782 1.386 4.125 1.89 1.342 3.53 1.79 3.53 1.79h-.015Z" fill="#E8B5A7" stroke="#29256A" stroke-width=".5" stroke-linecap="round" stroke-linejoin="round"/><path d="m63.502 40.395.448 5.37s5.882 6.71 15.49 6.557c17.282-.266 16.021-10.067 16.441-13.884l-1.484 2.055-2.62 3.02-3.234 2.223-4.804 1.245-6.764.21-13.473-6.782v-.014Z" fill="url(#e)" stroke="#29256A" stroke-width=".5" stroke-linecap="round" stroke-linejoin="round"/><path d="M63.643 46.128c.112-.126.252-1.02.252-1.02.056.069 6.148 6.753 15.223 6.753h.294c13.67-.21 15.21-6.474 16.302-11.382.098.336.21 1.007.308 1.552-.588 4.558-3.025 10.556-16.596 10.766h-.322c-9.159 0-14.845-5.97-15.475-6.655l.014-.014Z" fill="#1C3B47" stroke="#29256A" stroke-width=".5" stroke-linecap="round" stroke-linejoin="round"/><path d="m64.385 32.677-.882 7.718s3.375 6.18 13.725 7.173c10.35.979 17.24-3.999 18.654-9.13v-16.22c0-1.93-.616-3.83-1.82-5.355-2.424-3.034-7.48-8.501-17.675-7.802-19.425 1.356-12.002 23.602-12.002 23.602v.014Zm6.764-3.51c.84-2.544 8.67-9.102 16.512-10.388 6.974-1.133 6.666 5.34 6.666 5.34l.056 13.396s0 9.186-13.598 9.186c-9.355 0-10.112-5.579-10.112-5.579s-.378-9.424.476-11.969v.014Z" fill="url(#f)" stroke="#29256A" stroke-width=".5" stroke-linecap="round" stroke-linejoin="round"/><path d="M87.059 19.827c-4.496.727-8.963 3.44-11.709 5.845-1.876 1.65-1.862 4.558-.07 6.291 1.485 1.44 3.6 2.587 6.527 2.42 5.602-.308 10.868-1.692 11.078-6.516v-3.384s.252-5.649-5.826-4.656Z" fill="#CADDFF" opacity=".3"/><path d="M76.387 9.061a23.304 23.304 0 0 1 3.978.056c-27.772.993-13.711 26.594-13.711 26.594l.434 8.879c-2.577-1.832-3.585-4.195-3.585-4.195l-.42-8.194s-6.12-21.784 13.304-23.14Z" fill="#29256A" opacity=".15"/><path d="M57.494 49.987c-1.232.154-3.81 2.153-5.868 8.46-2.059 6.305-5.882 20.539-6.596 27.908a5.618 5.618 0 0 0 .042 1.468c.308 6.208 11.344 30.047 12.632 31.194 1.415 1.272 7.857-4.866 7.857-6.418 0-1.552-6.33-21.295-7.24-24.525 2.52-5.48 9.159-16.75 8.066-24.888-1.862-14.052-4.635-13.744-8.893-13.199v0Z" fill="url(#g)" stroke="#29256A" stroke-width=".5" stroke-linecap="round" stroke-linejoin="round"/><path d="m166.326 77.512 28.234 16.297 16.657-17.803-20.658-11.588-24.233 13.094Z" fill="url(#h)" stroke="#29256A" stroke-width=".5" stroke-linecap="round" stroke-linejoin="round"/><path d="m169.934 78.658 24.446-14.117-1.787-3.72-22.659-8.272-3.575 11.464 1.057 6.452 2.518 8.193Z" fill="url(#i)" stroke="#29256A" stroke-width=".5" stroke-linecap="round" stroke-linejoin="round"/><path opacity=".3" d="m169.934 78.658 24.446-14.117-1.787-3.72-22.659-8.272-3.575 11.464 1.057 6.452 2.518 8.193Z" fill="#29256A" stroke="#29256A" stroke-width=".5" stroke-linecap="round" stroke-linejoin="round"/><path d="M160.48 59.798v37.833l42.217 24.368V84.166l-8.228-24.076-25.75-14.87-8.239 14.567v.011Zm9.61-5.608 23.008 13.285v24.469L170.09 78.658v-24.48.012Z" fill="#DAE5F8" stroke="#29256A" stroke-width=".5" stroke-linecap="round" stroke-linejoin="round"/><path d="m194.469 60.09 35.023-20.22L203.73 25l-35.011 20.22 25.75 14.87Z" fill="#fff" stroke="#29256A" stroke-width=".5" stroke-linecap="round" stroke-linejoin="round"/><path d="m202.696 84.166 35.034-20.232-8.238-24.064-35.023 20.22 8.227 24.076Z" fill="#D1DBED" stroke="#29256A" stroke-width=".5" stroke-linecap="round" stroke-linejoin="round"/><path d="m202.695 121.998 35.034-20.231V63.934l-35.034 20.231v37.833Z" fill="#B4CAED" stroke="#29256A" stroke-width=".5" stroke-linecap="round" stroke-linejoin="round"/><path d="m8.025 170.586 153.239-88.664c1.559-.901 2.987-.934 4.071-.246l1.822.95c-1.034-.524-2.364-.425-3.808.394l-153.24 88.664c-3.332 1.917-6.04 7.08-6.04 11.521 0 2.508.87 1.246 2.232 1.934v-.623l-1.215 1.607C3.724 185.434 2 184.631 2 182.107c0-4.441 2.709-9.604 6.04-11.521h-.015Z" fill="#29256A" stroke="#29256A" stroke-width=".5" stroke-linecap="round" stroke-linejoin="round"/><path d="m10.11 184.746 153.239-88.664c3.332-1.917 6.04-4.064 6.04-8.522 0-4.441-2.708-6.49-6.04-4.556l-153.24 88.68c-3.332 1.918-6.04 7.08-6.04 11.522 0 4.441 2.708 3.474 6.04 1.54Z" fill="#B4CAED" stroke="#29256A" stroke-width=".5" stroke-linecap="round" stroke-linejoin="round"/><path d="M160.428 89.789c0 .918.312 1.557.821 1.868 0 0 25.296 14.586 25.312 14.603.526.295.197-.377 1.002-.852 1.625-.935 2.954-3.213 2.954-5.081 0-.918.854-.934.329-1.246 0 0-25.395-14.602-25.412-14.618-.525-.295-1.264-.23-2.051.229-1.626.934-2.955 3.212-2.955 5.08v.017Z" fill="url(#j)" stroke="#29256A" stroke-width=".5" stroke-linecap="round" stroke-linejoin="round"/><path d="M151.875 94.755c0 .918.312 1.557.821 1.868 0 0 25.296 14.586 25.313 14.603.525.295.197-.377 1.001-.852 1.625-.935 2.955-3.213 2.955-5.081 0-.918.853-.934.328-1.246 0 0-25.395-14.602-25.411-14.618-.526-.295-1.264-.23-2.052.229-1.625.934-2.955 3.212-2.955 5.08v.017Z" fill="url(#k)" stroke="#29256A" stroke-width=".5" stroke-linecap="round" stroke-linejoin="round"/><path d="M143.305 99.704c0 .918.312 1.557.82 1.869 0 0 25.297 14.586 25.313 14.602.526.295.197-.377 1.002-.852 1.625-.934 2.954-3.212 2.954-5.08 0-.918.854-.935.329-1.246 0 0-25.395-14.603-25.412-14.619-.525-.295-1.264-.23-2.052.23-1.625.934-2.954 3.212-2.954 5.08v.016Z" fill="url(#l)" stroke="#29256A" stroke-width=".5" stroke-linecap="round" stroke-linejoin="round"/><path d="M134.754 104.654c0 .917.312 1.557.821 1.868 0 0 25.296 14.586 25.312 14.603.526.295.197-.377 1.002-.853 1.625-.934 2.955-3.212 2.955-5.08 0-.918.853-.934.328-1.246 0 0-25.395-14.602-25.411-14.619-.526-.295-1.264-.23-2.052.23-1.625.934-2.955 3.212-2.955 5.08v.017Z" fill="url(#m)" stroke="#29256A" stroke-width=".5" stroke-linecap="round" stroke-linejoin="round"/><path d="M126.186 109.62c0 .918.311 1.557.82 1.868 0 0 25.297 14.586 25.313 14.603.525.295.197-.377 1.001-.853 1.626-.934 2.955-3.212 2.955-5.08 0-.918.854-.934.329-1.246 0 0-25.395-14.602-25.412-14.619-.525-.295-1.264-.229-2.052.23-1.625.934-2.954 3.212-2.954 5.08v.017Z" fill="url(#n)" stroke="#29256A" stroke-width=".5" stroke-linecap="round" stroke-linejoin="round"/><path d="M117.633 114.569c0 .918.312 1.557.821 1.868 0 0 25.296 14.586 25.312 14.603.526.295.197-.377 1.002-.852 1.625-.935 2.955-3.213 2.955-5.081 0-.918.853-.934.328-1.246 0 0-25.395-14.602-25.411-14.618-.526-.295-1.264-.23-2.052.229-1.626.934-2.955 3.212-2.955 5.081v.016Z" fill="url(#o)" stroke="#29256A" stroke-width=".5" stroke-linecap="round" stroke-linejoin="round"/><path d="M109.078 119.535c0 .918.312 1.557.821 1.868 0 0 25.296 14.586 25.313 14.603.525.295.197-.377 1.001-.852 1.625-.935 2.955-3.213 2.955-5.081 0-.918.853-.934.328-1.245 0 0-25.395-14.603-25.411-14.619-.525-.295-1.264-.23-2.052.229-1.625.934-2.955 3.212-2.955 5.081v.016Z" fill="url(#p)" stroke="#29256A" stroke-width=".5" stroke-linecap="round" stroke-linejoin="round"/><path d="M100.512 124.484c0 .918.312 1.557.82 1.869 0 0 25.297 14.586 25.313 14.602.526.295.197-.377 1.002-.852 1.625-.934 2.954-3.212 2.954-5.08 0-.918.854-.935.329-1.246 0 0-25.395-14.603-25.412-14.619-.525-.295-1.264-.229-2.051.23-1.626.934-2.955 3.212-2.955 5.08v.016Z" fill="url(#q)" stroke="#29256A" stroke-width=".5" stroke-linecap="round" stroke-linejoin="round"/><path d="M91.959 129.434c0 .918.312 1.557.82 1.868 0 0 25.297 14.586 25.314 14.603.525.295.197-.377 1.001-.852 1.625-.935 2.955-3.213 2.955-5.081 0-.918.853-.934.328-1.246 0 0-25.395-14.602-25.411-14.618-.526-.295-1.264-.23-2.052.229-1.625.934-2.955 3.212-2.955 5.081v.016Z" fill="url(#r)" stroke="#29256A" stroke-width=".5" stroke-linecap="round" stroke-linejoin="round"/><path d="M83.404 134.4c0 .917.312 1.556.821 1.868 0 0 25.296 14.586 25.313 14.602.525.295.197-.377 1.001-.852 1.625-.934 2.955-3.212 2.955-5.08 0-.918.854-.935.328-1.246 0 0-25.395-14.602-25.411-14.619-.525-.295-1.264-.229-2.052.23-1.625.934-2.955 3.212-2.955 5.08v.017Z" fill="url(#s)" stroke="#29256A" stroke-width=".5" stroke-linecap="round" stroke-linejoin="round"/><path d="M74.836 139.349c0 .918.312 1.557.82 1.868 0 0 25.297 14.586 25.314 14.603.525.295.196-.377 1.001-.852 1.625-.935 2.955-3.213 2.955-5.081 0-.918.853-.934.328-1.246 0 0-25.395-14.602-25.411-14.618-.526-.295-1.264-.23-2.052.229-1.625.934-2.955 3.212-2.955 5.081v.016Z" fill="url(#t)" stroke="#29256A" stroke-width=".5" stroke-linecap="round" stroke-linejoin="round"/><path d="M66.285 144.299c0 .917.312 1.557.82 1.868 0 0 25.297 14.586 25.314 14.603.525.295.197-.377 1.001-.853 1.625-.934 2.955-3.212 2.955-5.08 0-.918.853-.934.328-1.246 0 0-25.395-14.602-25.411-14.619-.525-.295-1.264-.229-2.052.23-1.625.934-2.955 3.212-2.955 5.08v.017Z" fill="url(#u)" stroke="#29256A" stroke-width=".5" stroke-linecap="round" stroke-linejoin="round"/><path d="M57.73 149.264c0 .918.312 1.557.821 1.868 0 0 25.297 14.586 25.313 14.603.525.295.197-.377 1.001-.852 1.626-.935 2.955-3.213 2.955-5.081 0-.918.854-.934.329-1.245 0 0-25.395-14.603-25.412-14.619-.525-.295-1.264-.23-2.052.229-1.625.934-2.955 3.212-2.955 5.081v.016Z" fill="url(#v)" stroke="#29256A" stroke-width=".5" stroke-linecap="round" stroke-linejoin="round"/><path d="M49.162 154.214c0 .918.312 1.557.82 1.868 0 0 25.297 14.586 25.314 14.603.525.295.197-.377 1.001-.852 1.625-.935 2.955-3.213 2.955-5.081 0-.918.853-.934.328-1.246 0 0-25.395-14.602-25.411-14.618-.525-.295-1.264-.23-2.052.229-1.625.934-2.955 3.212-2.955 5.081v.016Z" fill="url(#w)" stroke="#29256A" stroke-width=".5" stroke-linecap="round" stroke-linejoin="round"/><path d="M40.61 159.163c0 .918.311 1.557.82 1.869 0 0 25.297 14.586 25.313 14.602.525.295.197-.377 1.001-.852 1.625-.934 2.955-3.212 2.955-5.08 0-.918.854-.935.328-1.246 0 0-25.395-14.603-25.41-14.619-.526-.295-1.265-.229-2.053.229-1.625.935-2.955 3.213-2.955 5.081v.016Z" fill="url(#x)" stroke="#29256A" stroke-width=".5" stroke-linecap="round" stroke-linejoin="round"/><path d="M32.057 164.129c0 .918.311 1.557.82 1.869 0 0 25.297 14.586 25.313 14.602.526.295.197-.377 1.002-.852 1.625-.934 2.954-3.212 2.954-5.081 0-.917.854-.934.329-1.245 0 0-25.395-14.603-25.412-14.619-.525-.295-1.264-.23-2.052.229-1.625.934-2.954 3.213-2.954 5.081v.016Z" fill="url(#y)" stroke="#29256A" stroke-width=".5" stroke-linecap="round" stroke-linejoin="round"/><path d="M23.488 169.079c0 .917.312 1.557.821 1.868 0 0 25.296 14.586 25.313 14.603.525.295.197-.377 1.001-.853 1.625-.934 2.955-3.212 2.955-5.08 0-.918.854-.934.328-1.246 0 0-25.395-14.602-25.411-14.619-.525-.295-1.264-.229-2.052.23-1.625.934-2.955 3.212-2.955 5.08v.017Z" fill="url(#z)" stroke="#29256A" stroke-width=".5" stroke-linecap="round" stroke-linejoin="round"/><path d="M14.938 174.045c0 .918.311 1.557.82 1.868 0 0 25.297 14.586 25.313 14.603.525.295.197-.377 1.001-.853 1.626-.934 2.955-3.212 2.955-5.08 0-.918.854-.934.328-1.246 0 0-25.394-14.602-25.41-14.619-.526-.295-1.265-.229-2.053.23-1.625.934-2.954 3.212-2.954 5.08v.017Z" fill="url(#A)" stroke="#29256A" stroke-width=".5" stroke-linecap="round" stroke-linejoin="round"/><path d="M6.383 178.994c0 .918.312 1.557.82 1.868 0 0 25.297 14.586 25.313 14.603.526.295.197-.377 1.002-.853 1.625-.934 2.954-3.212 2.954-5.08 0-.918.854-.934.329-1.246 0 0-25.395-14.602-25.411-14.619-.526-.295-1.264-.229-2.052.23-1.626.934-2.955 3.212-2.955 5.08v.017Z" fill="url(#B)" stroke="#29256A" stroke-width=".5" stroke-linecap="round" stroke-linejoin="round"/><path d="m32.778 185.254 153.24-88.664c1.559-.902 2.987-.934 4.071-.246l1.822.95c-1.034-.524-2.364-.426-3.809.394L34.863 186.352c-3.332 1.917-6.04 7.08-6.04 11.521 0 2.508.87 1.246 2.232 1.934v-.623l-1.215 1.606c-1.363-.688-3.086-1.491-3.086-4.015 0-4.441 2.708-9.604 6.04-11.521h-.016Z" fill="#29256A" stroke="#29256A" stroke-width=".5" stroke-linecap="round" stroke-linejoin="round"/><path d="m34.644 199.435 153.24-88.664c3.332-1.917 6.041-4.064 6.041-8.522 0-4.441-2.709-6.49-6.041-4.556l-153.24 88.664c-3.332 1.917-6.04 7.08-6.04 11.521 0 4.442 2.708 3.475 6.04 1.541v.016Z" fill="#B4CAED" stroke="#29256A" stroke-width=".5" stroke-linecap="round" stroke-linejoin="round"/><path d="M31.963 164.525v16.994l15.905-9.259v-17.014l-15.905 9.279Z" fill="url(#C)" fill-opacity=".9"/><path d="M31.96 164.525v16.995L16 172.223v-16.995l15.96 9.297Z" fill="url(#D)" fill-opacity=".9"/><path d="m16 155.228 15.96 9.297 15.906-9.278-15.98-9.278L16 155.228Z" fill="url(#E)" fill-opacity=".9"/><path d="M71.668 141.191v17.013l15.905-9.278v-16.995l-15.905 9.26Z" fill="url(#F)" fill-opacity=".9"/><path d="M71.684 141.19v17.014l-15.979-9.297v-16.995l15.98 9.278Z" fill="url(#G)" fill-opacity=".9"/><path d="m55.705 131.912 15.98 9.278 15.886-9.259-15.98-9.297-15.886 9.278Z" fill="url(#H)" fill-opacity=".9"/><path d="M111.377 117.873v17.013l15.924-9.278v-16.995l-15.924 9.26Z" fill="url(#I)" fill-opacity=".9"/><path d="M111.394 117.873v17.013l-15.98-9.296v-16.995l15.98 9.278Z" fill="url(#J)" fill-opacity=".9"/><path d="m95.414 108.595 15.98 9.278 15.905-9.26-15.999-9.297-15.886 9.279Z" fill="url(#K)" fill-opacity=".9"/><path d="M150.689 94.557v16.995l15.924-9.26V85.297l-15.924 9.26Z" fill="url(#L)" fill-opacity=".9"/><path d="M150.707 94.556v16.995l-15.961-9.278V85.278l15.961 9.278Z" fill="url(#M)" fill-opacity=".9"/><path d="m134.746 85.278 15.961 9.279 15.905-9.26L150.632 76l-15.886 9.278Z" fill="url(#N)" fill-opacity=".9"/><path d="M152.432 94.982c-.739-.978-1.59-2.5-2.525-3.302 0 0 2.344-3.167 1.535-4.703 0 0-2.553-2.963-3.208-3.235-.865-.367-7.728-1.672-10.712-2.555-4.952-1.468-9.555 6.13-6.584 7.951 1.548.666 2.092 1.033 3.097 1.93.697.625 1.227 1.4 1.896 2.066 1.13 1.128 3.711 2.827 5.315 3.085.669.109 1.422-.095 1.618-.734.348-1.196-3.571-2.922-2.776-3.833 1.548-.557 5.9 1.55 5.9 1.55s2.525 1.74 4.059 3.955c1.381 1.998 4.129.109 2.399-2.175h-.014ZM59.775 112.152c2.38-1.161 2.465-1.105 3.137-1.189.672-.084 6.386 2.503 6.792 2.741.406.237 3.361 2.349 3.81 2.656.448.308 2.59 1.664 2.072 2.419-.518.755-2.423 1.245-4.09.14-1.666-1.105-2.66-1.846-2.87-1.944-.21-.097-1.135 1.315-.91 1.832.224.517 2.576 3.831 2.927 4.111.35.28 3.459 3.286 3.669 4.292.21 1.007-.49 1.413-1.247 1.385-.756-.028-4.327-3.076-4.327-3.076s4.37 4.39 4.327 5.075c-.042.685-.686 1.412-1.386 1.147-.7-.266-1.008-.56-1.008-.56s-.42.588-1.247.42c-.826-.168-1.905-1.552-1.905-1.552s-.49.307-1.736-.657c-1.247-.965-3.151-3.314-4.048-4.81-.896-1.482-4.313-6.432-4.313-7.69 0-1.259.938-4.055 2.353-4.754v.014Z" fill="#29256A" stroke="#29256A" stroke-width=".5" stroke-linecap="round" stroke-linejoin="round"/><path d="M224 42.5 199 28l5-3 25.5 15 8.5 24v37l-4.5 3V66.5l-9.5-24Z" fill="#29256A" fill-opacity=".1"/><path d="M199 27.5 224 43l9.5 23v38" stroke="#29256A" stroke-width=".5" stroke-linecap="round" stroke-linejoin="round"/><defs><linearGradient id="a" x1="85.811" y1="61.438" x2="135.402" y2="61.438" gradientUnits="userSpaceOnUse"><stop stop-color="#DDE7FF"/><stop offset="1" stop-color="#9FD0E3"/></linearGradient><linearGradient id="b" x1="57.403" y1="61.264" x2="104.61" y2="101.165" gradientUnits="userSpaceOnUse"><stop stop-color="#DDE7FF"/><stop offset="1" stop-color="#9FD0E3"/></linearGradient><linearGradient id="c" x1="60.588" y1="103.413" x2="103.919" y2="103.413" gradientUnits="userSpaceOnUse"><stop stop-color="#A05AC1"/><stop offset="1" stop-color="#142387"/></linearGradient><linearGradient id="d" x1="91.272" y1="106.154" x2="99.927" y2="106.154" gradientUnits="userSpaceOnUse"><stop stop-color="#A05AC1"/><stop offset="1" stop-color="#142387"/></linearGradient><linearGradient id="e" x1="63.502" y1="45.373" x2="95.881" y2="45.373" gradientUnits="userSpaceOnUse"><stop stop-color="#DDE7FF"/><stop offset="1" stop-color="#9FD0E3"/></linearGradient><linearGradient id="f" x1="62.984" y1="28.343" x2="92.247" y2="40.471" gradientUnits="userSpaceOnUse"><stop stop-color="#DDE7FF"/><stop offset="1" stop-color="#9FD0E3"/></linearGradient><linearGradient id="g" x1="45.041" y1="77" x2="72.016" y2="89.926" gradientUnits="userSpaceOnUse"><stop stop-color="#DDE7FF"/><stop offset="1" stop-color="#9FD0E3"/></linearGradient><linearGradient id="h" x1="166.326" y1="79.108" x2="211.217" y2="79.108" gradientUnits="userSpaceOnUse"><stop stop-color="#5971FF"/><stop offset="1" stop-color="#15ABAB"/></linearGradient><linearGradient id="i" x1="166.359" y1="65.598" x2="194.38" y2="65.598" gradientUnits="userSpaceOnUse"><stop stop-color="#5971FF"/><stop offset="1" stop-color="#15ABAB"/></linearGradient><linearGradient id="j" x1="190.598" y1="98.529" x2="165.771" y2="79.58" gradientUnits="userSpaceOnUse"><stop stop-color="#5971FF"/><stop offset="1" stop-color="#15ABAB"/></linearGradient><linearGradient id="k" x1="182.045" y1="103.495" x2="157.218" y2="84.546" gradientUnits="userSpaceOnUse"><stop stop-color="#5971FF"/><stop offset="1" stop-color="#15ABAB"/></linearGradient><linearGradient id="l" x1="173.475" y1="108.445" x2="148.648" y2="89.495" gradientUnits="userSpaceOnUse"><stop stop-color="#5971FF"/><stop offset="1" stop-color="#15ABAB"/></linearGradient><linearGradient id="m" x1="164.924" y1="113.394" x2="140.097" y2="94.445" gradientUnits="userSpaceOnUse"><stop stop-color="#5971FF"/><stop offset="1" stop-color="#15ABAB"/></linearGradient><linearGradient id="n" x1="156.355" y1="118.36" x2="131.528" y2="99.411" gradientUnits="userSpaceOnUse"><stop stop-color="#5971FF"/><stop offset="1" stop-color="#15ABAB"/></linearGradient><linearGradient id="o" x1="147.803" y1="123.309" x2="122.976" y2="104.36" gradientUnits="userSpaceOnUse"><stop stop-color="#5971FF"/><stop offset="1" stop-color="#15ABAB"/></linearGradient><linearGradient id="p" x1="139.248" y1="128.275" x2="114.421" y2="109.326" gradientUnits="userSpaceOnUse"><stop stop-color="#5971FF"/><stop offset="1" stop-color="#15ABAB"/></linearGradient><linearGradient id="q" x1="130.682" y1="133.225" x2="105.855" y2="114.275" gradientUnits="userSpaceOnUse"><stop stop-color="#5971FF"/><stop offset="1" stop-color="#15ABAB"/></linearGradient><linearGradient id="r" x1="122.129" y1="138.174" x2="97.302" y2="119.225" gradientUnits="userSpaceOnUse"><stop stop-color="#5971FF"/><stop offset="1" stop-color="#15ABAB"/></linearGradient><linearGradient id="s" x1="113.574" y1="143.14" x2="88.747" y2="124.19" gradientUnits="userSpaceOnUse"><stop stop-color="#5971FF"/><stop offset="1" stop-color="#15ABAB"/></linearGradient><linearGradient id="t" x1="105.006" y1="148.089" x2="80.179" y2="129.14" gradientUnits="userSpaceOnUse"><stop stop-color="#5971FF"/><stop offset="1" stop-color="#15ABAB"/></linearGradient><linearGradient id="u" x1="96.455" y1="153.039" x2="71.628" y2="134.09" gradientUnits="userSpaceOnUse"><stop stop-color="#5971FF"/><stop offset="1" stop-color="#15ABAB"/></linearGradient><linearGradient id="v" x1="87.9" y1="158.004" x2="63.073" y2="139.055" gradientUnits="userSpaceOnUse"><stop stop-color="#5971FF"/><stop offset="1" stop-color="#15ABAB"/></linearGradient><linearGradient id="w" x1="79.332" y1="162.954" x2="54.505" y2="144.005" gradientUnits="userSpaceOnUse"><stop stop-color="#5971FF"/><stop offset="1" stop-color="#15ABAB"/></linearGradient><linearGradient id="x" x1="70.779" y1="167.904" x2="45.952" y2="148.954" gradientUnits="userSpaceOnUse"><stop stop-color="#5971FF"/><stop offset="1" stop-color="#15ABAB"/></linearGradient><linearGradient id="y" x1="62.227" y1="172.869" x2="37.4" y2="153.92" gradientUnits="userSpaceOnUse"><stop stop-color="#5971FF"/><stop offset="1" stop-color="#15ABAB"/></linearGradient><linearGradient id="z" x1="53.658" y1="177.819" x2="28.831" y2="158.87" gradientUnits="userSpaceOnUse"><stop stop-color="#5971FF"/><stop offset="1" stop-color="#15ABAB"/></linearGradient><linearGradient id="A" x1="45.107" y1="182.785" x2="20.28" y2="163.836" gradientUnits="userSpaceOnUse"><stop stop-color="#5971FF"/><stop offset="1" stop-color="#15ABAB"/></linearGradient><linearGradient id="B" x1="36.553" y1="187.734" x2="11.726" y2="168.785" gradientUnits="userSpaceOnUse"><stop stop-color="#5971FF"/><stop offset="1" stop-color="#15ABAB"/></linearGradient><linearGradient id="C" x1="32.449" y1="151.338" x2="50.182" y2="158.869" gradientUnits="userSpaceOnUse"><stop stop-color="#FF47A9"/><stop offset="1" stop-color="#703AC2"/></linearGradient><linearGradient id="D" x1="16.488" y1="151.317" x2="34.267" y2="158.889" gradientUnits="userSpaceOnUse"><stop stop-color="#703AC2"/><stop offset=".339" stop-color="#0070EB"/><stop offset=".661" stop-color="#0297FB"/><stop offset="1" stop-color="#0AE2FF"/></linearGradient><linearGradient id="E" x1="16.974" y1="143.208" x2="34.081" y2="163.818" gradientUnits="userSpaceOnUse"><stop stop-color="#0AE2FF"/><stop offset=".328" stop-color="#0297FB"/><stop offset=".646" stop-color="#0070EB"/><stop offset="1" stop-color="#703AC2"/></linearGradient><linearGradient id="F" x1="72.154" y1="128.023" x2="89.887" y2="135.554" gradientUnits="userSpaceOnUse"><stop stop-color="#FF47A9"/><stop offset="1" stop-color="#703AC2"/></linearGradient><linearGradient id="G" x1="56.194" y1="128.001" x2="73.987" y2="135.588" gradientUnits="userSpaceOnUse"><stop stop-color="#703AC2"/><stop offset=".339" stop-color="#0070EB"/><stop offset=".661" stop-color="#0297FB"/><stop offset="1" stop-color="#0AE2FF"/></linearGradient><linearGradient id="H" x1="56.679" y1="119.873" x2="73.786" y2="140.483" gradientUnits="userSpaceOnUse"><stop stop-color="#0AE2FF"/><stop offset=".328" stop-color="#0297FB"/><stop offset=".646" stop-color="#0070EB"/><stop offset="1" stop-color="#703AC2"/></linearGradient><linearGradient id="I" x1="111.864" y1="104.705" x2="129.611" y2="112.251" gradientUnits="userSpaceOnUse"><stop stop-color="#FF47A9"/><stop offset="1" stop-color="#703AC2"/></linearGradient><linearGradient id="J" x1="95.903" y1="104.684" x2="113.696" y2="112.271" gradientUnits="userSpaceOnUse"><stop stop-color="#703AC2"/><stop offset=".339" stop-color="#0070EB"/><stop offset=".661" stop-color="#0297FB"/><stop offset="1" stop-color="#0AE2FF"/></linearGradient><linearGradient id="K" x1="96.389" y1="96.556" x2="113.494" y2="117.175" gradientUnits="userSpaceOnUse"><stop stop-color="#0AE2FF"/><stop offset=".328" stop-color="#0297FB"/><stop offset=".646" stop-color="#0070EB"/><stop offset="1" stop-color="#703AC2"/></linearGradient><linearGradient id="L" x1="151.176" y1="81.391" x2="168.919" y2="88.941" gradientUnits="userSpaceOnUse"><stop stop-color="#FF47A9"/><stop offset="1" stop-color="#703AC2"/></linearGradient><linearGradient id="M" x1="135.234" y1="81.37" x2="153.01" y2="88.946" gradientUnits="userSpaceOnUse"><stop stop-color="#703AC2"/><stop offset=".339" stop-color="#0070EB"/><stop offset=".661" stop-color="#0297FB"/><stop offset="1" stop-color="#0AE2FF"/></linearGradient><linearGradient id="N" x1="135.72" y1="73.24" x2="152.827" y2="93.849" gradientUnits="userSpaceOnUse"><stop stop-color="#0AE2FF"/><stop offset=".328" stop-color="#0297FB"/><stop offset=".646" stop-color="#0070EB"/><stop offset="1" stop-color="#703AC2"/></linearGradient></defs></svg>