<svg width="240" height="210" fill="none" xmlns="http://www.w3.org/2000/svg"><path d="m130.062 74.326.197-1.255-6.913 19.165.317-.378 6.399-17.532Z" fill="#CEE0E8" stroke="#29256A" stroke-width=".5" stroke-linecap="round" stroke-linejoin="round"/><path d="m137.157 77.08-2.375-.016-6.384 17.547 1.846 1.634 6.913-19.166Z" fill="#BACFD6" stroke="#29256A" stroke-width=".5" stroke-linecap="round" stroke-linejoin="round"/><path d="m134.782 77.064-4.719-2.738-6.399 17.532 4.735 2.753 6.383-17.547Z" fill="#CEE0E8" stroke="#29256A" stroke-width=".5" stroke-linecap="round" stroke-linejoin="round"/><path d="m116.675 109.889-2.345 1.543 18.636-10.74.318-.393-16.609 9.59Z" fill="#1F787D" stroke="#29256A" stroke-width=".5" stroke-linecap="round" stroke-linejoin="round"/><path d="m134.964 74.371-4.735-2.753-.167 2.708 4.72 2.738.182-2.692Z" fill="#CEE0E8" stroke="#29256A" stroke-width=".5" stroke-linecap="round" stroke-linejoin="round"/><path d="m142.164 75.885.045-.59.938-14.37-.272 2.873-.711 12.087Z" fill="#04555B" stroke="#29256A" stroke-width=".5" stroke-linecap="round" stroke-linejoin="round"/><path d="m137.415 72.753-2.45 1.618-.182 2.693 2.375.015.257-4.326Z" fill="#BACFD6" stroke="#29256A" stroke-width=".5" stroke-linecap="round" stroke-linejoin="round"/><path d="m116.659 104.096-2.345-1.362.016 8.698 2.344-1.543-.015-5.793Z" fill="#1F787D" stroke="#29256A" stroke-width=".5" stroke-linecap="round" stroke-linejoin="round"/><path d="m114.315 102.734-4.735-2.738.03 8.698 4.72 2.738-.015-8.698Z" fill="#CEE0E8" stroke="#29256A" stroke-width=".5" stroke-linecap="round" stroke-linejoin="round"/><path d="m128.398 94.611-4.735-2.753-14.083 8.138 4.735 2.738 14.083-8.123Z" fill="#EBF3F6" stroke="#29256A" stroke-width=".5" stroke-linecap="round" stroke-linejoin="round"/><path d="m130.243 96.245-1.846-1.634-14.083 8.123 2.345 1.362 13.584-7.851ZM76.906 138.993l-2.601 1.316 7.351-2.178.167-.59-4.916 1.452Z" fill="#1F787D" stroke="#29256A" stroke-width=".5" stroke-linecap="round" stroke-linejoin="round"/><path d="m88.706 100.874-.09.242 46.348-26.745 2.45-1.618-48.708 28.121Z" fill="#BACFD6" stroke="#29256A" stroke-width=".5" stroke-linecap="round" stroke-linejoin="round"/><path d="m84.727 97.364-7.82 41.629 4.916-1.452 6.882-36.667 48.708-28.121-.257 4.326-6.913 19.166-13.584 7.851.016 5.793 16.609-9.59 8.879-24.415.711-12.086-58.147 33.566Z" fill="#CEE0E8" stroke="#29256A" stroke-width=".5" stroke-linecap="round" stroke-linejoin="round"/><path d="m143.147 60.924-4.72-2.753L77.92 93.099l4.72 2.753 60.507-34.928Z" fill="#EBF3F6" stroke="#29256A" stroke-width=".5" stroke-linecap="round" stroke-linejoin="round"/><path d="m142.874 63.798.272-2.874-60.507 34.928 2.087 1.513 58.148-33.567Z" fill="#BACFD6" stroke="#29256A" stroke-width=".5" stroke-linecap="round" stroke-linejoin="round"/><path d="m84.727 97.364-2.088-1.512-8.334 44.457 2.601-1.316 7.821-41.629Z" fill="#BACFD6" stroke="#29256A" stroke-width=".5" stroke-linecap="round" stroke-linejoin="round"/><path d="m82.64 95.852-4.72-2.753-8.35 44.457 4.735 2.753 8.335-44.457Z" fill="#CEE0E8" stroke="#29256A" stroke-width=".5" stroke-linecap="round" stroke-linejoin="round"/><path d="M64.623 137.935v-6.671l3.07-1.861-3.07 8.532Z" fill="#EBF3F6" stroke="#29256A" stroke-width=".5" stroke-linecap="round" stroke-linejoin="round"/><path d="M190.402 128.299 130.197 93.31l.031 13.297 60.204 34.988-.03-13.296Z" fill="#09C8D6" stroke="#29256A" stroke-width=".5" stroke-linecap="round" stroke-linejoin="round"/><path d="m200.144 99.043-60.205-34.988-9.742 29.255 60.205 34.988 9.742-29.255Z" fill="#CEE0E8" stroke="#29256A" stroke-width=".5" stroke-linecap="round" stroke-linejoin="round"/><path d="m205.181 50.138-42.688-24.656-22.554 38.573 60.205 34.988 5.037-48.905Z" fill="#CEE0E8" stroke="#29256A" stroke-width=".5" stroke-linecap="round" stroke-linejoin="round"/><path d="M194.682 49.215 172.749 36.54c-4.781-2.768-10.907-1.15-13.69 3.63L146.02 62.452l50.387 29.286 3.358-32.553a10.274 10.274 0 0 0-5.083-9.969v0Z" fill="url(#a)" stroke="#29256A" stroke-width=".5" stroke-linecap="round" stroke-linejoin="round"/><path d="M210.777 48.248 168.089 23.59l-5.597 1.89 42.688 24.657 5.597-1.89Z" fill="#EBF3F6" stroke="#29256A" stroke-width=".5" stroke-linecap="round" stroke-linejoin="round"/><path d="m205.182 50.138 2.798-.938v48.754l-7.835 1.09 5.037-48.906ZM210.779 51.44l1.21 40.766-4.009 5.748V49.2l2.799 2.24Z" fill="#BACFD6" stroke="#29256A" stroke-width=".5" stroke-linecap="round" stroke-linejoin="round"/><path d="m200.144 99.043 7.836-1.09-14.235 39.346-3.343-9.001 9.742-29.255Z" fill="#08AAB6" stroke="#29256A" stroke-width=".5" stroke-linecap="round" stroke-linejoin="round"/><path d="m193.744 137.299 14.235-39.345 4.008-5.748-13.856 44.896-7.699 4.493 3.312-4.296Z" fill="#BACFD6" stroke="#29256A" stroke-width=".5" stroke-linecap="round" stroke-linejoin="round"/><path d="m188.631 142.215-60.205-34.973-.453.681 60.204 34.988.454-.696ZM185.878 139.81l-60.204-34.988 2.753 2.42 60.205 34.973-2.754-2.405Z" fill="#09C8D6" stroke="#29256A" stroke-width=".5" stroke-linecap="round" stroke-linejoin="round"/><path d="m185.879 139.81-60.205-34.988-4.856 7.231 60.205 34.973 4.856-7.216Z" fill="#09C8D6" stroke="#29256A" stroke-width=".5" stroke-linecap="round" stroke-linejoin="round"/><path d="m78.281 145.392-7.488-5.718-7.518 20.814 8.018 4.085 6.988-19.181Z" fill="#CEE0E8" stroke="#29256A" stroke-width=".5" stroke-linecap="round" stroke-linejoin="round"/><path d="m78.797 137.405-7.609-4.205-.393 6.474 7.488 5.718.514-7.987Z" fill="#068791" stroke="#29256A" stroke-width=".5" stroke-linecap="round" stroke-linejoin="round"/><path d="m83.213 135.272-10.135-2.98-1.89.908 7.608 4.205 4.417-2.133Z" fill="#068A94" stroke="#29256A" stroke-width=".5" stroke-linecap="round" stroke-linejoin="round"/><path d="m56.257 173.255-7.503-4.371v2.178l7.518 7.276-.015-5.083Z" fill="#CEE0E8" stroke="#29256A" stroke-width=".5" stroke-linecap="round" stroke-linejoin="round"/><path d="m71.293 164.573-8.017-4.085-14.522 8.396 7.503 4.371 15.036-8.682Z" fill="#EBF3F6" stroke="#29256A" stroke-width=".5" stroke-linecap="round" stroke-linejoin="round"/><path d="m116.537 167.628-38.256-22.236-6.988 19.181 38.256 22.236 6.988-19.181Z" fill="url(#b)" stroke="#29256A" stroke-width=".5" stroke-linecap="round" stroke-linejoin="round"/><path d="m116.537 167.628-38.256-22.236-6.988 19.181 38.256 22.236 6.988-19.181Z" fill="url(#c)" stroke="#29256A" stroke-width=".5" stroke-linecap="round" stroke-linejoin="round"/><path d="m117.066 159.641-38.27-22.236-.515 7.987 38.256 22.236.529-7.987Z" fill="#068993" stroke="#29256A" stroke-width=".5" stroke-linecap="round" stroke-linejoin="round"/><path d="m121.47 157.509-38.256-22.237-4.417 2.133 38.271 22.236 4.402-2.132Z" fill="#078C96" stroke="#29256A" stroke-width=".5" stroke-linecap="round" stroke-linejoin="round"/><path d="m126.612 172.106-10.075-4.477-6.988 19.18 9.545 6.112 7.518-20.815ZM94.527 195.492l-38.271-22.236.015 5.082 38.256 22.237v-5.083Z" fill="#CEE0E8" stroke="#29256A" stroke-width=".5" stroke-linecap="round" stroke-linejoin="round"/><path d="m109.548 186.809-38.256-22.236-15.036 8.683 38.27 22.236 15.022-8.683Z" fill="url(#d)" stroke="#29256A" stroke-width=".5" stroke-linecap="round" stroke-linejoin="round"/><path d="m127.005 165.647-9.938-6.005-.53 7.987 10.075 4.477.393-6.459Z" fill="#068993" stroke="#29256A" stroke-width=".5" stroke-linecap="round" stroke-linejoin="round"/><path d="m128.896 164.724-7.428-7.215-4.402 2.132 9.939 6.006 1.891-.923Z" fill="#078C96" stroke="#29256A" stroke-width=".5" stroke-linecap="round" stroke-linejoin="round"/><path d="m119.093 192.921-9.545-6.112-15.02 8.683 10.028 5.824 14.537-8.395Z" fill="#EBF3F6" stroke="#29256A" stroke-width=".5" stroke-linecap="round" stroke-linejoin="round"/><path d="m127.005 165.647-.394 6.459-7.518 20.814-14.536 8.396.015 2.178 15.656-9.046 8.289-22.796.379-6.928-1.891.923Z" fill="#BACFD6" stroke="#29256A" stroke-width=".5" stroke-linecap="round" stroke-linejoin="round"/><path d="m104.556 201.316-10.029-5.824v5.083l10.045 2.919-.016-2.178Z" fill="#CEE0E8" stroke="#29256A" stroke-width=".5" stroke-linecap="round" stroke-linejoin="round"/><path d="M129.926 176.538 69.721 141.55l-2.586-1.09 60.204 34.989 2.587 1.089ZM136.64 172.65l-60.205-34.988-6.413-2.708 60.204 34.989 6.414 2.707Z" fill="#09C8D6" stroke="#29256A" stroke-width=".5" stroke-linecap="round" stroke-linejoin="round"/><path d="m181.022 147.025-60.205-34.973-19.725 29.301 60.204 34.988 19.726-29.316Z" fill="#EBF3F6" stroke="#29256A" stroke-width=".5" stroke-linecap="round" stroke-linejoin="round"/><path d="m161.962 181.408-60.205-34.988-8.017 4.629 60.205 34.988 8.017-4.629Z" fill="#09C8D6" stroke="#29256A" stroke-width=".5" stroke-linecap="round" stroke-linejoin="round"/><path d="m161.297 176.341-60.205-34.988c-.983 1.467-2.178 2.586-3.358 3.282-1.27.741-2.556.953-3.57.529l60.205 34.989c1.028.423 2.299.212 3.57-.53 1.179-.68 2.374-1.815 3.358-3.282Z" fill="#EBF3F6" stroke="#29256A" stroke-width=".5" stroke-linecap="round" stroke-linejoin="round"/><path d="m154.369 180.153-60.205-34.988-17.728-7.503 60.204 34.988 17.729 7.503Z" fill="#EBF3F6" stroke="#29256A" stroke-width=".5" stroke-linecap="round" stroke-linejoin="round"/><path d="m130.227 169.942-2.889 5.506 2.587 1.089 21.555 9.122c.757.318 1.589.439 2.466.393l8.032-4.629a23.279 23.279 0 0 0 2.073-2.647l24.127-35.85.454-.681-2.753-2.405-4.856 7.215-19.725 29.316c-.984 1.467-2.179 2.587-3.359 3.283-1.27.741-2.556.953-3.57.529l-17.713-7.488-6.414-2.707-.015-.046Z" fill="#BACFD6" stroke="#29256A" stroke-width=".5" stroke-linecap="round" stroke-linejoin="round"/><path d="m130.229 169.943-60.205-34.989-2.89 5.506 60.205 34.989 2.89-5.506Z" fill="#09C8D6" stroke="#29256A" stroke-width=".5" stroke-linecap="round" stroke-linejoin="round"/><path d="m124.828 172.923-60.205-34.989 3.101 4.765 60.205 34.989-3.101-4.765Z" fill="#BACFD6" stroke="#29256A" stroke-width=".5" stroke-linecap="round" stroke-linejoin="round"/><path d="M190.402 128.299 130.197 93.31l-62.504 36.093 60.205 34.988 62.504-36.092Z" fill="#EBF3F6" stroke="#29256A" stroke-width=".5" stroke-linecap="round" stroke-linejoin="round"/><path d="m127.898 164.391-60.204-34.988-3.071 8.532 60.205 34.988 3.07-8.532Z" fill="#CEE0E8" stroke="#29256A" stroke-width=".5" stroke-linecap="round" stroke-linejoin="round"/><path d="m127.929 177.688-3.101-4.765 3.071-1.528 5.34 1.029-5.31 5.264Z" fill="#BACFD6" stroke="#29256A" stroke-width=".5" stroke-linecap="round" stroke-linejoin="round"/><path d="m190.402 128.298 3.343 9.001-60.507 35.124-5.34-8.032 62.504-36.093Z" fill="#CEE0E8" stroke="#29256A" stroke-width=".5" stroke-linecap="round" stroke-linejoin="round"/><path d="m133.237 172.423 60.507-35.124-3.312 4.296-62.504 36.093 5.309-5.265ZM200.945 91.193l6.217-1.407 12.813-20.588-10.06 3.01-8.97 18.985Z" fill="#BACFD6" stroke="#29256A" stroke-width=".5" stroke-linecap="round" stroke-linejoin="round"/><path d="m209.915 72.209 10.06-3.01-1.619-7.624-10.059 3.025 1.618 7.609Z" fill="#CEE0E8" stroke="#29256A" stroke-width=".5" stroke-linecap="round" stroke-linejoin="round"/><path d="m210.777 48.248 7.578 13.326-10.059 3.026-3.116-14.462 5.597-1.89Z" fill="#EBF3F6" stroke="#29256A" stroke-width=".5" stroke-linecap="round" stroke-linejoin="round"/><path d="M205.181 50.138 201.974 75.4l-1.029 15.792 8.97-18.984-1.618-7.608-3.116-14.462Z" fill="#CEE0E8" stroke="#29256A" stroke-width=".5" stroke-linecap="round" stroke-linejoin="round"/><path d="m140.787 27.811 4.296-5.642-3.858 4.039-4.311 5.642 3.873-4.039Z" fill="#BACFD6"/><path d="m162.492 25.482 5.597-1.891-23.008-1.422-4.296 5.642 21.707-2.33Z" fill="#EBF3F6"/><path d="m140.787 27.811-3.873 4.04 6.898 25.442 7.624-10.982 11.057-20.83-21.706 2.33Z" fill="#CEE0E8"/><path d="m160.223 27.675-18.122 2.118-2.208 2.813 4.825 21.889.061.12 15.444-26.94Z" fill="#BACFD6"/><path d="M176.229 14.424 166.2 8.6l-4.069 32.644 10.029 5.824 4.069-32.644Z" fill="#CEE0E8" stroke="#29256A" stroke-width=".5" stroke-linecap="round" stroke-linejoin="round"/><path d="m180.103 12.2-10.044-5.838-3.858 2.238 10.029 5.824 3.873-2.223Z" fill="#EBF3F6" stroke="#29256A" stroke-width=".5" stroke-linecap="round" stroke-linejoin="round"/><path d="m176.229 14.424-4.069 32.644 4.387-13.01 4.402-2.555-.847-19.302-3.873 2.223Z" fill="#BACFD6" stroke="#29256A" stroke-width=".5" stroke-linecap="round" stroke-linejoin="round"/><path d="m187.604 20.959-10.029-5.824-2.587 23.537 10.044 5.84 2.572-23.553Z" fill="url(#e)" stroke="#29256A" stroke-width=".5" stroke-linecap="round" stroke-linejoin="round"/><path d="m189.464 20.354-10.029-5.824-1.861.605 10.029 5.824 1.861-.605Z" fill="url(#f)" stroke="#29256A" stroke-width=".5" stroke-linecap="round" stroke-linejoin="round"/><path d="m187.603 20.96-2.572 23.551 5.279-7.88-.847-16.277-1.86.605Z" fill="#056B73" stroke="#29256A" stroke-width=".5" stroke-linecap="round" stroke-linejoin="round"/><path d="m194.033 24.71-10.044-5.838-4.069 32.643 10.029 5.824 4.084-32.629Z" fill="#CEE0E8" stroke="#29256A" stroke-width=".5" stroke-linecap="round" stroke-linejoin="round"/><path d="m197.892 22.472-10.029-5.84-3.873 2.24 10.044 5.838 3.858-2.238Z" fill="#EBF3F6" stroke="#29256A" stroke-width=".5" stroke-linecap="round" stroke-linejoin="round"/><path d="m194.033 24.71-4.084 32.63 4.886-13.267 3.903-2.284-.847-19.317-3.858 2.239Z" fill="#BACFD6" stroke="#29256A" stroke-width=".5" stroke-linecap="round" stroke-linejoin="round"/><path d="m196.423 91.737-50.402-29.285-11.89 33.143 50.765 29.512 11.527-33.37Z" fill="url(#g)" stroke="#29256A" stroke-width=".25" stroke-linecap="round" stroke-linejoin="round"/><path d="m72.171 132.005 61.96-36.395 50.78 29.512-60.779 37.091-.106-.061c-.847.621-6.519 4.357-14.506-.65-9.273-5.809-7.05-11.996-7.05-11.996L127.369 135l-11.496-5.174-22.993 14.401s-5.445 4.644-14.25-.59c-9.12-5.43-6.443-11.602-6.443-11.602l-.016-.03Z" fill="url(#h)" stroke="#29256A" stroke-width=".5" stroke-linecap="round" stroke-linejoin="round"/><path d="m127.899 164.391-3.071 8.532 8.411-.5-5.34-8.032Z" fill="#EBF3F6" stroke="#29256A" stroke-width=".5" stroke-linecap="round" stroke-linejoin="round"/><path d="m98.538 191.166-1.391 5.173-3.464 5.173s.045 7.957-4.856 7.095c-4.901-.862-7.609-6.187-7.609-6.187s-10.18-5.052-11.042-8.274c-.862-3.238 1.195-5.401 4.371-4.569 3.177.832 11.164 1.937 12.949.847.544-.332 1.331-2.48 1.331-2.48 1.74-1.982 4.311-4.13 4.311-4.13l5.4 7.367v-.015Z" fill="url(#i)" stroke="#29256A" stroke-width=".5" stroke-linecap="round" stroke-linejoin="round"/><path d="M89.462 208.834c-.212 0-.438-.015-.665-.061-4.916-.862-9.137-5.566-9.182-5.627-.318-.197-8.759-5.718-9.62-9 0-.046 0-.106.014-.152.015-.045.076-.075.121-.09.121-.031.273-.046.424-.046 1.618 0 4.447 1.573 4.992 1.891.348.197.877.545 1.512.953 1.755 1.119 4.417 2.814 6.49 3.676 2.723 1.134 7.73 5.93 6.807 8.229-.03.06-.076.106-.136.121-.242.045-.5.075-.772.075l.015.031Z" fill="#29256A"/><path d="M70.553 194.07c1.346 0 3.691 1.18 4.901 1.876 1.331.771 5.189 3.448 8.032 4.643 2.844 1.18 7.549 5.87 6.717 7.987a3.64 3.64 0 0 1-.726.076c-.197 0-.409-.015-.636-.06-4.9-.863-9.076-5.567-9.076-5.567s-8.728-5.673-9.59-8.91c.12-.03.242-.045.378-.045m0-.378a2.26 2.26 0 0 0-.469.045.469.469 0 0 0-.242.166.485.485 0 0 0-.045.288c.862 3.252 8.955 8.622 9.696 9.106.439.484 4.462 4.795 9.258 5.642.242.046.468.061.71.061.273 0 .53-.03.802-.076a.376.376 0 0 0 .272-.227c.984-2.465-4.16-7.321-6.912-8.471-2.073-.862-4.705-2.541-6.46-3.66-.65-.409-1.18-.741-1.527-.953-.56-.318-3.419-1.921-5.083-1.921Z" fill="#29256A"/><path d="m61.355 175.207-3.948 4.583s-2.133 10.09-6.67 8.123c-4.539-1.966-14.991-11.784-16.943-14.461-1.951-2.677.575-3.358 2.799-3.494 2.223-.121 9.847 1.785 14.189-.091 1.286-.56 2.632-2.617 2.632-2.617l11.042-7.458-3.1 15.415Z" fill="url(#j)" stroke="#29256A" stroke-width=".5" stroke-linecap="round" stroke-linejoin="round"/><path d="M150.407 28.19s-9.167-4.327-15.58.574c-6.399 4.901-7.67 9.772-9.682 12.026-1.996 2.254-11.708 10.256-11.708 10.256s-7.881 2.798-16.276 10.21c0 0 .12 3.964-1.104 9.818 0 0 14.975-2.345 24.974-9.061 9.999-6.716 20.875-17.426 20.875-17.426s7.518-10.302 8.501-16.398v0Z" fill="url(#k)" stroke="#29256A" stroke-width=".5" stroke-linecap="round" stroke-linejoin="round"/><path d="M147.911 27.282c-2.148 6.02-12.479 9.59-12.479 9.59s-2.799 13.282-16.186 21.571c-7.684 4.765-17.819 7.624-22.493 8.592a65.353 65.353 0 0 1-.696 4.039s14.975-2.345 24.974-9.06c9.999-6.717 20.875-17.427 20.875-17.427s7.518-10.301 8.501-16.397c0 0-.983-.454-2.511-.908h.015Z" fill="#29256A" opacity=".15"/><path d="M132.966 87.835s-14.28 5.173-20.875 9.363c-6.595 4.19-21.51 15.551-28.801 22.857-7.292 7.321-29.876 47.195-29.876 47.195s6.958-.68 7.942 7.957l35.079-40.086 47.014-23.9s10.059-21.95-10.498-23.371l.015-.015Z" fill="url(#l)" stroke="#29256A" stroke-width=".5" stroke-linecap="round" stroke-linejoin="round"/><path d="M143.57 92.493c1.936 6.747-6.02 7.397-6.02 7.397l-42.9 31.661-34.64 39.299c.635 1.089 1.134 2.496 1.346 4.357l35.08-40.086 47.013-23.901s5.431-11.874.121-18.712v-.015Z" fill="#29256A" opacity=".15"/><path d="M126.701 135.287s-.091 0-.121-.045l-5.839-4.856-1.346-2.45a.187.187 0 0 1 .045-.242.174.174 0 0 1 .121-.046c.045 0 .091 0 .121.046l7.609 6.338s.091.151.045.227l-.469.923s-.075.09-.136.09h-.03v.015Z" fill="#CEE0E8"/><path d="m119.577 127.845 7.609 6.338-.469.923-5.839-4.856-1.301-2.39m0-.378a.37.37 0 0 0-.242.091c-.136.121-.181.317-.091.469l1.301 2.39s.061.075.091.106l5.839 4.855s.151.091.242.091h.076c.106-.03.212-.091.257-.197l.469-.922a.397.397 0 0 0-.091-.469l-7.609-6.338s-.151-.091-.242-.091v.015Z" fill="#29256A"/><path d="M110.154 144.833s-.106-.016-.136-.061c-.06-.06-.06-.166 0-.242l10.71-14.416s.075-.075.136-.075h.015c.045 0 .091 0 .121.045l5.839 4.856s.076.106.061.166c0 .061-.046.121-.091.151l-16.549 9.545s-.06.031-.091.031h-.015Z" fill="#BACFD6"/><path d="m120.864 130.235 5.839 4.856-16.549 9.545 10.71-14.416m0-.378h-.046a.313.313 0 0 0-.257.151l-10.709 14.416a.408.408 0 0 0 .015.484.41.41 0 0 0 .287.121.364.364 0 0 0 .182-.045l16.548-9.545a.346.346 0 0 0 .182-.303.394.394 0 0 0-.136-.318l-5.839-4.855s-.152-.091-.242-.091l.015-.015Z" fill="#29256A"/><path d="M137.775 87.834s-.06 16.186-.302 21.072c0 0-19.136 19.347-23.84 29.891-4.689 10.528-24.49 49.116-24.49 49.116s7.684 0 8.32 8.411c0 0 22.432-23.129 25.458-30.087 1.754-4.039 5.052-18.032 5.052-18.032s35.624-16.397 39.98-25.836c4.357-9.439 1.286-15.732 3.207-26.986.817-4.795-24.687-15.672-33.37-7.549h-.015Z" fill="url(#m)" stroke="#29256A" stroke-width=".5" stroke-linecap="round" stroke-linejoin="round"/><path d="M169.03 96.154c-1.831 11.043 1.164 13.297-3.162 22.66-4.356 9.439-39.98 25.837-39.98 25.837s-3.298 13.992-5.052 18.031c-2.723 6.277-21.269 25.715-24.854 29.452.606 1.089 1.044 2.45 1.18 4.19 0 0 22.433-23.129 25.459-30.087 1.754-4.039 5.052-18.031 5.052-18.031s35.624-16.398 39.98-25.837c4.372-9.439 1.286-11.648 3.207-22.902.151-.847-.545-2.027-1.815-3.328l-.015.015Z" fill="#29256A" opacity=".15"/><path d="m167.199 35.375 11.012 9.197s-.514 11.254-1.966 23.567c-1.528 12.888-3.238 16.67-5.401 27.229 0 0-6.413 3.706-24.626.998-13.735-2.042-13.251-8.547-13.251-8.547s-1.059-26.245-.56-32.613c.499-6.368.272-15.051 4.765-21.374 4.493-6.323 13.251-5.658 13.251-5.658l16.791 7.2h-.015Z" fill="url(#n)" stroke="#29256A" stroke-width=".5" stroke-linecap="round" stroke-linejoin="round"/><path d="M176.442 46.947s-5.173 10.86-6.641 23.174c-1.527 12.888.832 20.24-1.346 30.798 1.588-.771 2.375-1.452 2.375-1.452 2.178-10.558 3.872-18.424 5.4-31.328 1.468-12.328 1.967-21.207 1.967-21.207h-1.785l.03.015Z" fill="#BACFD6" style="mix-blend-mode:darken"/><path d="M173.097 89.044c-4.16 2.406-12.298 4.871-23.341 5.189-9.015.272-14.476-3.933-17.214-6.701a3.602 3.602 0 0 1-.151.469s.151 4.492.574 6.232c3.828 2.798 9.515 5.597 17.033 5.597h.908c10.165-.303 15.671-3.131 20.587-5.506.333-1.377 1.71-3.661 1.891-5.038l-.302-.227.015-.015Z" fill="#29256A" stroke="#29256A" stroke-width=".5" stroke-linecap="round" stroke-linejoin="round"/><path d="M173.4 89.271c-4.16 2.406-12.162 5.582-23.205 5.9-9.015.272-15.066-4.417-17.789-7.17-.862 2.571-.499 4.462 0 6.49 3.827 2.798 9.515 5.596 17.033 5.596h.907c10.166-.303 16.337-1.513 21.254-3.888 1.633-.499 2.511-5.067 1.784-6.912l.016-.016Z" fill="url(#o)" stroke="#29256A" stroke-width=".5" stroke-linecap="round" stroke-linejoin="round"/><path d="m144.523 102.16-.892.499c.318-.182.529-.56.529-1.104l.893-.5c0 .545-.197.923-.53 1.105Z" fill="#10242B" stroke="#29256A" stroke-width=".5" stroke-linecap="round" stroke-linejoin="round"/><path d="m144.175 96.275.893-.499-.015 5.279-.893.5.015-5.28Z" fill="#10242B" stroke="#29256A" stroke-width=".5" stroke-linecap="round" stroke-linejoin="round"/><path d="m143.283 92.796-4.796-2.662c-.499-.273-.938-.303-1.27-.121l-.893.499c.333-.182.772-.151 1.271.12l4.795 2.663c.998.545 1.8 1.891 1.8 2.98l.893-.5c0-1.088-.802-2.434-1.8-2.98Z" fill="#29256A" stroke="#29256A" stroke-miterlimit="10"/><path d="M142.375 93.295c.998.545 1.8 1.891 1.8 2.98v5.279c-.015 1.09-.832 1.543-1.816.984l-4.795-2.663c-.983-.544-1.785-1.89-1.785-2.98v-5.279c.015-1.089.832-1.543 1.816-.998l4.795 2.662-.015.015Z" fill="url(#p)" stroke="#29256A" stroke-width=".5" stroke-linecap="round" stroke-linejoin="round"/><path d="M178.225 44.587s7.064 4.568 6.293 12.797c-.772 8.23-14.431 30.783-16.761 34.005-2.329 3.222-.983 2.799-11.799 11.693-2.677 2.194-13.417 11.391-13.417 11.391s-8.123-5.174-5.9-10.317l23.78-22.372s6.383-20.588 9.166-26.11c2.799-5.52 5.491-10.043 8.608-11.087h.03Z" fill="url(#q)" stroke="#29256A" stroke-width=".5" stroke-linecap="round" stroke-linejoin="round"/><path d="M51.886 188.352c-.394 0-.802-.091-1.21-.272-4.614-2.012-15.067-11.844-17.018-14.537-.409-.56-.53-.908-.394-1.165.061-.121.197-.257.53-.257.62 0 1.664.484 1.71.499 3.418 1.694 6.685 3.903 7.926 4.78l.801.56a259.796 259.796 0 0 1 5.885 4.19c2.33 1.725 4.023 4.72 4.054 5.022 0 .061 0 .121-.06.167-.697.665-1.453.998-2.224.998v.015Z" fill="#29256A"/><path d="M33.765 172.333c.59 0 1.633.484 1.633.484 3.177 1.573 6.263 3.615 7.896 4.765 1.634 1.149 4.297 2.995 6.687 4.749 2.314 1.71 3.963 4.69 3.978 4.886-.605.575-1.301.938-2.088.938-.363 0-.74-.076-1.134-.257-4.538-1.967-14.99-11.784-16.942-14.461-.62-.862-.454-1.104-.03-1.104m0-.379c-.424 0-.605.197-.696.348-.212.409.106.938.408 1.362 1.967 2.707 12.45 12.57 17.093 14.597.44.182.863.287 1.286.287.817 0 1.604-.347 2.345-1.043a.402.402 0 0 0 .12-.333c-.044-.318-1.754-3.389-4.129-5.143-2.042-1.513-4.28-3.071-5.914-4.205l-.772-.545c-1.24-.877-4.523-3.086-7.956-4.795-.197-.091-1.18-.515-1.8-.515h.015v-.015Z" fill="#29256A"/><path d="M139.697 12.367v19.06l1.24 4.205s3.979-10.831 18.485-7.7l-.968-21.722-15.611 2.284-3.161 3.873h.015Z" fill="#BACFD6" stroke="#29256A" stroke-width=".5" stroke-linecap="round" stroke-linejoin="round"/><path d="m154.205 38.9 1.921 4.915s.045 2.844 3.827 1.453c3.781-1.377 11.103-9.908 11.103-9.908l-4.947-8.986-12.752 9.303.848 3.222Z" fill="#E8B5A7" stroke="#29256A" stroke-width=".5" stroke-linecap="round" stroke-linejoin="round"/><path d="m163.008 32.546-1.891-2.541-7.775 5.657.847 3.222 1.921 4.916s0 .409.227.847c7.972-1.981 6.656-12.116 6.656-12.116l.015.015Z" fill="#E8B5A7" stroke="#29256A" stroke-width=".5" stroke-linecap="round" stroke-linejoin="round"/><path d="M143.419 20.566s-.363 6.05 0 8.637c.363 2.587 1.891 6.369 1.952 7.609.045 1.225.378 3.07 1.542 3.54 1.165.453 5.93.484 9.409-1.589 3.479-2.072 6.656-5.4 7.503-6.882.847-1.468 3.918-5.522 4.584-8.547.665-3.026.363-9.575-3.54-11.209-3.888-1.634-12.344-2.36-16.549 1.634-4.205 3.993-4.235 5.324-4.916 6.807h.015Z" fill="#FFD8CC" stroke="#29256A" stroke-width=".5" stroke-linecap="round" stroke-linejoin="round"/><path d="M143.617 37.78s-.09-.015-.121-.06c0 0-.015-.03-.03-.03-.061-.091-.045-.212.045-.273a.173.173 0 0 1 .121-.045c.046 0 .106.015.137.06.06.076.06.227-.016.287a.24.24 0 0 1-.136.046v.015Z" fill="#C4CBEB"/><path d="M143.617 37.553s0 .015.015.03c0 0 0-.015-.015-.03Zm0-.363a.284.284 0 0 0-.212.075c-.166.121-.212.333-.091.5 0 0 .031.045.046.06a.37.37 0 0 0 .529.045.38.38 0 0 0 .046-.529.427.427 0 0 0-.318-.151ZM153.357 21.08s-7.064.56-8.637.227c-2.799-.575-4.115-3.797-3.691-6.989.424-3.192 3.464-6.883 5.188-7.987 1.725-1.12 6.838-3.54 10.483-3.418 3.646.12 9.379 1.92 11.799 4.613 2.572 2.86 3.116 5.113 3.495 8.214.378 3.116-1.271 9.833-2.073 10.83-.802 1-5.718 4.705-5.718 4.705l-3.116 1.483s.454-5.189.272-7.488c-.196-2.3-5.944-.212-7.987-4.19h-.015Z" fill="#29256A"/><path d="M163.492 32.38s.529-4.871 2.995-6.687c1.528-1.119 2.012.03 2.193.409.182.378.53 2.965-1.467 4.372-1.997 1.421-3.736 1.89-3.736 1.89l.015.016Z" fill="#E8B5A7" stroke="#29256A" stroke-width=".5" stroke-linecap="round" stroke-linejoin="round"/><path d="m173.005 34.3-.484 5.689s-6.232 7.11-16.397 6.958c-18.304-.288-16.957-10.68-17.411-14.734l1.573 2.179 2.768 3.206 3.419 2.36 5.083 1.316 7.17.212 14.264-7.185h.015Z" fill="url(#r)" stroke="#29256A" stroke-width=".5" stroke-linecap="round" stroke-linejoin="round"/><path d="M172.854 40.382c-.121-.136-.272-1.09-.272-1.09-.06.076-6.504 7.17-16.125 7.17h-.318c-14.476-.226-16.11-6.867-17.259-12.07-.091.363-.212 1.058-.333 1.633.62 4.826 3.192 11.194 17.577 11.421h.348c9.696 0 15.717-6.338 16.382-7.064v0Z" fill="url(#s)" stroke="#29256A" stroke-width=".25" stroke-linecap="round" stroke-linejoin="round"/><path d="M159.377 1.067c-10.786-.756-16.141 5.053-18.712 8.275-1.286 1.603-1.936 3.615-1.936 5.672v17.2c1.497 5.445 8.788 10.724 19.755 9.696 10.967-1.03 14.537-7.61 14.537-7.61l-.938-8.183s7.866-23.613-12.706-25.05Zm6.035 34.005s-.802 5.915-10.71 5.915c-14.4 0-14.4-9.742-14.4-9.742l.06-14.204s-.317-6.867 7.049-5.657c8.305 1.361 16.594 8.32 17.487 11.012.892 2.692.499 12.691.499 12.691l.015-.015Z" fill="url(#t)" stroke="#29256A" stroke-width=".5" stroke-linecap="round" stroke-linejoin="round"/><path d="M148.076 12.488c4.765.771 9.484 3.645 12.389 6.202 1.996 1.755 1.981 4.825.075 6.67-1.573 1.529-3.812 2.739-6.913 2.572-5.929-.332-11.511-1.8-11.723-6.913v-3.585s-.272-5.99 6.172-4.946Z" fill="#CADDFF" opacity=".3"/><path d="M159.377 1.067a24.28 24.28 0 0 0-4.221.06c29.407 1.045 14.522 28.212 14.522 28.212l-.454 9.41c2.723-1.937 3.797-4.448 3.797-4.448l.454-8.698s6.474-23.099-14.098-24.536Z" fill="#BACFD6" style="mix-blend-mode:darken"/><path d="m118.641 152.199 39.223-22.69v-2.178l-39.223 22.645v2.223Z" fill="#29256A" stroke="#29256A" stroke-width=".5" stroke-linecap="round" stroke-linejoin="round"/><path d="m57.438 116.878 61.202 35.321v-2.224l-61.203-35.336v2.239Z" fill="#3F15AB" stroke="#29256A" stroke-width=".5" stroke-linecap="round" stroke-linejoin="round"/><path d="m118.64 149.975 39.224-22.644-61.203-35.337-39.224 22.645 61.203 35.336Z" fill="url(#u)" stroke="#29256A" stroke-width=".5" stroke-linecap="round" stroke-linejoin="round"/><path d="m133.993 131.021-4.265-2.465c-.091-.046-.137-.121-.137-.182 0-.06.046-.121.137-.181l2.359-1.362a.948.948 0 0 1 .439-.106c.166 0 .318.031.439.106l4.265 2.466c.091.045.137.121.137.182 0 .06-.046.121-.137.181l-2.359 1.361a.935.935 0 0 1-.439.106.82.82 0 0 1-.439-.106Zm4.221-2.374-2.814-1.619c-.091-.045-.136-.121-.136-.182 0-.06.045-.121.136-.181l2.36-1.361a.932.932 0 0 1 .439-.106c.166 0 .317.03.438.106l2.814 1.618c.091.046.136.121.136.182 0 .06-.045.121-.136.181l-2.36 1.362a.945.945 0 0 1-.439.105.825.825 0 0 1-.438-.105Zm-10.226-1.09-2.814-1.618c-.09-.046-.136-.121-.136-.182 0-.06.046-.121.136-.181l2.36-1.362a.945.945 0 0 1 .439-.105.83.83 0 0 1 .439.105l2.813 1.619c.091.045.136.121.136.182 0 .06-.045.121-.136.181l-2.36 1.361a.931.931 0 0 1-.438.106.817.817 0 0 1-.439-.106Zm14.234-1.3-4.265-2.466c-.091-.046-.137-.121-.137-.182 0-.06.046-.121.137-.181l2.359-1.362a.948.948 0 0 1 .439-.105c.166 0 .318.03.439.105l4.265 2.466c.091.045.137.121.137.182 0 .06-.046.121-.137.181l-2.359 1.362a.948.948 0 0 1-.439.105.828.828 0 0 1-.439-.105Zm-8.546-.227-2.814-1.619c-.091-.045-.136-.121-.136-.181 0-.061.045-.121.136-.182l2.36-1.361a.932.932 0 0 1 .439-.106c.166 0 .317.03.438.106l2.814 1.618c.091.046.136.121.136.182 0 .06-.045.121-.136.181l-2.36 1.362a.944.944 0 0 1-.439.106.825.825 0 0 1-.438-.106Zm-10.226-1.089-2.814-1.619c-.09-.045-.136-.121-.136-.182 0-.06.046-.121.136-.181l2.36-1.362a.945.945 0 0 1 .439-.105c.166 0 .317.03.438.105l2.814 1.619c.091.045.136.121.136.182 0 .06-.045.121-.136.181l-2.36 1.362a.943.943 0 0 1-.438.105.826.826 0 0 1-.439-.105Zm5.688-1.528-2.814-1.619c-.091-.045-.136-.121-.136-.181 0-.061.045-.121.136-.182l2.36-1.361a.931.931 0 0 1 .438-.106c.167 0 .318.03.439.106l2.814 1.618c.09.046.136.121.136.182 0 .06-.046.121-.136.181l-2.36 1.362a.944.944 0 0 1-.439.106.825.825 0 0 1-.438-.106Zm7.094-.62-2.814-1.619c-.09-.045-.136-.121-.136-.182 0-.06.046-.121.136-.181l2.36-1.362a.948.948 0 0 1 .439-.105c.166 0 .318.03.439.105l2.813 1.619c.091.045.136.121.136.182 0 .06-.045.121-.136.181l-2.36 1.362a.94.94 0 0 1-.438.105.826.826 0 0 1-.439-.105Zm-17.305-.485-2.814-1.618c-.09-.045-.136-.121-.136-.182 0-.06.046-.121.136-.181l2.36-1.362a.945.945 0 0 1 .439-.105c.166 0 .318.03.439.105l2.813 1.619c.091.045.136.121.136.182 0 .06-.045.121-.136.181l-2.36 1.361a.931.931 0 0 1-.438.106.817.817 0 0 1-.439-.106Zm5.688-1.527-2.814-1.619c-.091-.045-.136-.121-.136-.181 0-.061.045-.121.136-.182l2.36-1.361a.932.932 0 0 1 .439-.106c.166 0 .317.03.438.106l2.814 1.618c.091.046.136.121.136.182 0 .06-.045.121-.136.181l-2.36 1.362a.944.944 0 0 1-.439.106.825.825 0 0 1-.438-.106Zm7.094-.621-2.813-1.618c-.091-.046-.137-.121-.137-.182 0-.06.046-.121.137-.181l2.359-1.362a.948.948 0 0 1 .439-.105c.166 0 .318.03.439.105l2.813 1.619c.091.045.136.121.136.182 0 .06-.045.121-.136.181l-2.36 1.361a.928.928 0 0 1-.438.106.817.817 0 0 1-.439-.106Zm-17.305-.484-2.813-1.618c-.091-.046-.137-.121-.137-.182 0-.06.046-.121.137-.181l2.359-1.362a.948.948 0 0 1 .439-.106c.166 0 .318.031.439.106l2.813 1.619c.091.045.136.121.136.181 0 .061-.045.121-.136.182l-2.36 1.361a.928.928 0 0 1-.438.106.817.817 0 0 1-.439-.106Zm5.688-1.527-2.814-1.619c-.091-.045-.136-.121-.136-.181 0-.061.045-.122.136-.182l2.36-1.361a.932.932 0 0 1 .439-.106c.166 0 .317.03.438.106l2.814 1.618c.091.046.136.121.136.182 0 .06-.045.121-.136.181l-2.36 1.362a.945.945 0 0 1-.439.105.825.825 0 0 1-.438-.105Zm7.094-.621-2.813-1.618c-.091-.046-.136-.121-.136-.182 0-.06.045-.121.136-.181l2.359-1.362a.948.948 0 0 1 .439-.106c.167 0 .318.031.439.106l2.813 1.619c.091.045.137.121.137.181 0 .061-.046.121-.137.182l-2.359 1.361a.935.935 0 0 1-.439.106.82.82 0 0 1-.439-.106Zm-17.305-.484-2.813-1.618c-.091-.046-.137-.121-.137-.182 0-.06.046-.121.137-.181l2.359-1.362a.948.948 0 0 1 .439-.106c.166 0 .318.031.439.106l2.813 1.619c.091.045.136.121.136.181 0 .061-.045.121-.136.182l-2.359 1.361a.935.935 0 0 1-.439.106.817.817 0 0 1-.439-.106Zm5.688-1.527-2.814-1.619c-.09-.045-.136-.121-.136-.182 0-.06.046-.121.136-.181l2.36-1.361a.932.932 0 0 1 .439-.106c.166 0 .317.03.438.106l2.814 1.618c.091.045.136.121.136.182 0 .06-.045.121-.136.181l-2.36 1.362a.943.943 0 0 1-.438.105.826.826 0 0 1-.439-.105Zm7.094-.621-2.813-1.618c-.091-.046-.136-.121-.136-.182 0-.06.045-.121.136-.181l2.36-1.362a.94.94 0 0 1 .438-.106c.167 0 .318.031.439.106l2.813 1.619c.091.045.137.121.137.181 0 .061-.046.121-.137.182l-2.359 1.361a.935.935 0 0 1-.439.106.82.82 0 0 1-.439-.106Zm-17.305-.484-2.813-1.618c-.091-.046-.136-.121-.136-.182 0-.06.045-.121.136-.181l2.359-1.362a.948.948 0 0 1 .439-.106c.167 0 .318.031.439.106l2.813 1.619c.091.045.137.121.137.181 0 .061-.046.121-.137.182l-2.359 1.361a.935.935 0 0 1-.439.106.82.82 0 0 1-.439-.106Zm5.688-1.528-2.814-1.618c-.09-.045-.136-.121-.136-.182 0-.06.046-.121.136-.181l2.36-1.362a.945.945 0 0 1 .439-.105c.166 0 .318.03.439.105l2.813 1.619c.091.045.136.121.136.182 0 .06-.045.121-.136.181l-2.36 1.361a.931.931 0 0 1-.438.106.817.817 0 0 1-.439-.106Zm7.094-.62-2.813-1.618c-.091-.046-.136-.121-.136-.182 0-.06.045-.121.136-.181l2.36-1.362a.943.943 0 0 1 .438-.106c.167 0 .318.031.439.106l2.814 1.619c.09.045.136.121.136.181 0 .061-.046.121-.136.182l-2.36 1.361a.935.935 0 0 1-.439.106.82.82 0 0 1-.439-.106Zm-17.305-.484-2.813-1.618c-.091-.046-.136-.121-.136-.182 0-.06.045-.121.136-.181l2.36-1.362a.94.94 0 0 1 .438-.106c.167 0 .318.031.439.106l2.814 1.619c.09.045.136.121.136.181 0 .061-.046.121-.136.182l-2.36 1.361a.935.935 0 0 1-.439.106.82.82 0 0 1-.439-.106Zm5.688-1.528-2.814-1.618c-.09-.046-.136-.121-.136-.182 0-.06.046-.121.136-.181l2.36-1.362a.948.948 0 0 1 .439-.105c.166 0 .318.03.439.105l2.813 1.619c.091.045.136.121.136.181 0 .061-.045.121-.136.182l-2.36 1.361a.928.928 0 0 1-.438.106.817.817 0 0 1-.439-.106Zm7.095-.62-2.814-1.618c-.091-.046-.136-.121-.136-.182 0-.06.045-.121.136-.181l2.36-1.362a.943.943 0 0 1 .438-.106c.167 0 .318.031.439.106l2.814 1.619c.09.045.136.121.136.181 0 .061-.046.121-.136.182l-2.36 1.361a.932.932 0 0 1-.439.106.816.816 0 0 1-.438-.106Zm-17.305-.484-2.814-1.618c-.09-.046-.136-.121-.136-.182 0-.06.045-.121.136-.181l2.36-1.362a.945.945 0 0 1 .438-.106c.167 0 .318.03.439.106l2.814 1.619c.09.045.136.121.136.181 0 .061-.046.121-.136.182l-2.36 1.361a.932.932 0 0 1-.439.106.818.818 0 0 1-.439-.106ZM102 107.62l-2.813-1.618c-.091-.046-.137-.121-.137-.182 0-.06.046-.121.137-.181l2.359-1.362a.948.948 0 0 1 .439-.106c.166 0 .318.031.439.106l2.813 1.619c.091.045.136.121.136.181 0 .061-.045.121-.136.182l-2.359 1.361a.935.935 0 0 1-.439.106.817.817 0 0 1-.439-.106Zm7.095-.62-2.814-1.618c-.091-.046-.136-.121-.136-.182 0-.06.045-.121.136-.181l2.36-1.362a.943.943 0 0 1 .438-.106c.167 0 .318.03.439.106l2.814 1.619c.091.045.136.121.136.181 0 .061-.045.121-.136.182l-2.36 1.361a.932.932 0 0 1-.439.106.816.816 0 0 1-.438-.106Zm-17.305-.484-2.814-1.618c-.09-.046-.136-.121-.136-.182s.045-.121.136-.182l2.36-1.361a.944.944 0 0 1 .438-.106c.167 0 .318.03.44.106l2.813 1.619c.09.045.136.121.136.181 0 .061-.045.121-.136.182l-2.36 1.361a.933.933 0 0 1-.439.106.817.817 0 0 1-.438-.106Zm5.687-1.528-4.266-2.465c-.09-.046-.136-.121-.136-.182 0-.06.046-.121.136-.181l2.36-1.362a.944.944 0 0 1 .439-.106c.166 0 .318.031.439.106l4.265 2.466c.091.045.137.121.137.181 0 .061-.046.121-.137.182l-2.36 1.361a.933.933 0 0 1-.438.106.818.818 0 0 1-.439-.106Zm7.095-.62-2.814-1.618c-.091-.046-.136-.121-.136-.182s.045-.121.136-.182l2.36-1.361a.944.944 0 0 1 .439-.106c.166 0 .317.03.438.106l2.814 1.619c.091.045.136.121.136.181 0 .061-.045.121-.136.182l-2.36 1.361a.932.932 0 0 1-.439.106.816.816 0 0 1-.438-.106Zm-4.538-2.617-2.814-1.618c-.09-.046-.136-.121-.136-.182 0-.06.045-.12.136-.181l2.36-1.362a.939.939 0 0 1 .439-.106.82.82 0 0 1 .438.106l2.814 1.619c.091.045.136.121.136.181 0 .061-.045.121-.136.182l-2.36 1.361a.932.932 0 0 1-.439.106.816.816 0 0 1-.438-.106ZM125.599 135.937l-2.814-1.618c-.091-.046-.136-.121-.136-.182 0-.06.045-.121.136-.181l2.36-1.362a.945.945 0 0 1 .439-.105c.166 0 .317.03.438.105l2.814 1.619c.091.045.136.121.136.181 0 .061-.045.122-.136.182l-2.36 1.361a.932.932 0 0 1-.439.106.816.816 0 0 1-.438-.106Zm4.023-2.39-4.265-2.465c-.091-.046-.136-.121-.136-.182 0-.06.045-.121.136-.181l2.359-1.362a.948.948 0 0 1 .439-.106c.167 0 .318.031.439.106l4.266 2.466c.09.045.136.121.136.181 0 .061-.046.121-.136.182l-2.36 1.361a.932.932 0 0 1-.439.106.82.82 0 0 1-.439-.106Zm-8.546-.227-2.814-1.618c-.091-.045-.136-.121-.136-.182 0-.06.045-.121.136-.181l2.36-1.362a.945.945 0 0 1 .439-.105c.166 0 .317.03.438.105l2.814 1.619c.091.045.136.121.136.182 0 .06-.045.121-.136.181l-2.36 1.361a.932.932 0 0 1-.439.106.816.816 0 0 1-.438-.106Zm-4.538-2.616-2.814-1.619c-.091-.045-.136-.121-.136-.182 0-.06.045-.121.136-.181l2.36-1.361a.932.932 0 0 1 .439-.106c.166 0 .317.03.438.106l2.814 1.618c.091.045.136.121.136.182 0 .06-.045.121-.136.181l-2.36 1.362a.945.945 0 0 1-.439.105.825.825 0 0 1-.438-.105Zm7.094-.621-2.813-1.618c-.091-.046-.136-.121-.136-.182 0-.06.045-.121.136-.181l2.359-1.362a.948.948 0 0 1 .439-.106c.167 0 .318.031.439.106l2.813 1.619c.091.045.137.121.137.181 0 .061-.046.121-.137.182l-2.359 1.361a.935.935 0 0 1-.439.106.82.82 0 0 1-.439-.106ZM112 128.087l-2.814-1.619c-.091-.045-.136-.121-.136-.181 0-.061.045-.121.136-.182l2.36-1.361a.932.932 0 0 1 .439-.106c.166 0 .317.03.438.106l2.814 1.618c.091.046.136.121.136.182 0 .06-.045.121-.136.181l-2.36 1.362a.944.944 0 0 1-.439.106.825.825 0 0 1-.438-.106Zm7.094-.621-2.813-1.618c-.091-.046-.137-.121-.137-.182 0-.06.046-.121.137-.181l2.359-1.362a.948.948 0 0 1 .439-.105c.166 0 .318.03.439.105l2.813 1.619c.091.045.136.121.136.181 0 .061-.045.121-.136.182l-2.359 1.361a.935.935 0 0 1-.439.106.817.817 0 0 1-.439-.106Zm-11.632-1.996-2.814-1.619c-.091-.045-.136-.121-.136-.181 0-.061.045-.121.136-.182l2.36-1.361a.932.932 0 0 1 .439-.106c.166 0 .317.03.438.106l2.814 1.618c.091.046.136.121.136.182 0 .06-.045.121-.136.181l-2.36 1.362a.944.944 0 0 1-.439.106.825.825 0 0 1-.438-.106Zm7.094-.621-2.813-1.618c-.091-.045-.137-.121-.137-.182 0-.06.046-.121.137-.181l2.359-1.362a.948.948 0 0 1 .439-.105c.166 0 .318.03.439.105l2.813 1.619c.091.045.136.121.136.182 0 .06-.045.121-.136.181l-2.359 1.361a.935.935 0 0 1-.439.106.817.817 0 0 1-.439-.106Zm-11.632-1.996-2.814-1.619c-.091-.045-.136-.121-.136-.181 0-.061.045-.121.136-.182l2.36-1.361a.932.932 0 0 1 .439-.106c.166 0 .317.03.438.106l2.814 1.618c.091.046.136.121.136.182 0 .06-.045.121-.136.181l-2.36 1.362a.944.944 0 0 1-.439.106.825.825 0 0 1-.438-.106Zm7.094-.62-2.813-1.619c-.091-.045-.137-.121-.137-.182 0-.06.046-.121.137-.181l2.359-1.361a.935.935 0 0 1 .439-.106.82.82 0 0 1 .439.106l2.813 1.618c.091.045.136.121.136.182 0 .06-.045.121-.136.181l-2.36 1.362a.94.94 0 0 1-.438.105.826.826 0 0 1-.439-.105Zm-11.632-1.997-2.814-1.619c-.09-.045-.136-.121-.136-.181 0-.061.045-.121.136-.182l2.36-1.361a.933.933 0 0 1 .439-.106c.166 0 .317.03.438.106l2.814 1.618c.091.046.136.121.136.182 0 .06-.045.121-.136.181l-2.36 1.362a.945.945 0 0 1-.439.106.827.827 0 0 1-.438-.106Zm7.094-.62-2.813-1.619c-.091-.045-.137-.121-.137-.181 0-.061.046-.121.137-.182l2.359-1.361a.935.935 0 0 1 .439-.106.82.82 0 0 1 .439.106l2.813 1.618c.091.046.136.121.136.182 0 .06-.045.121-.136.181l-2.36 1.362a.94.94 0 0 1-.438.106.826.826 0 0 1-.439-.106Zm-11.617-1.997L91.049 116c-.09-.045-.136-.121-.136-.181 0-.061.045-.121.136-.182l2.36-1.361a.933.933 0 0 1 .439-.106c.166 0 .317.03.438.106l2.814 1.618c.09.046.136.121.136.182 0 .06-.045.121-.136.181l-2.36 1.362a.945.945 0 0 1-.439.106.818.818 0 0 1-.438-.106Zm7.094-.62-2.813-1.619c-.091-.045-.137-.121-.137-.181 0-.061.046-.121.137-.182l2.359-1.361a.935.935 0 0 1 .439-.106.82.82 0 0 1 .439.106l2.813 1.618c.091.046.136.121.136.182 0 .06-.045.121-.136.181l-2.359 1.362a.948.948 0 0 1-.439.106.826.826 0 0 1-.439-.106Zm-11.632-1.997-2.814-1.619c-.09-.045-.136-.121-.136-.181 0-.061.045-.121.136-.182l2.36-1.361a.933.933 0 0 1 .439-.106c.166 0 .317.03.438.106l2.814 1.618c.09.046.136.122.136.182 0 .061-.045.121-.136.182l-2.36 1.361a.944.944 0 0 1-.439.106.818.818 0 0 1-.438-.106Zm7.094-.62-2.813-1.619c-.091-.045-.137-.121-.137-.181 0-.061.046-.121.137-.182l2.36-1.361a.932.932 0 0 1 .438-.106c.166 0 .318.03.439.106l2.813 1.618c.091.046.136.121.136.182 0 .06-.045.121-.136.181l-2.36 1.362a.945.945 0 0 1-.438.106.826.826 0 0 1-.439-.106Zm-11.632-1.997-4.266-2.466c-.09-.045-.136-.121-.136-.181 0-.061.045-.121.136-.182l2.36-1.361a.933.933 0 0 1 .438-.106c.167 0 .318.03.439.106l4.266 2.466c.09.045.136.121.136.181 0 .061-.045.121-.136.182l-2.36 1.361a.933.933 0 0 1-.439.106.817.817 0 0 1-.438-.106Zm7.094-.62-2.814-1.619c-.09-.045-.136-.121-.136-.181 0-.061.046-.121.136-.182l2.36-1.361a.933.933 0 0 1 .439-.106c.166 0 .318.03.439.106l2.813 1.618c.091.046.136.121.136.182 0 .06-.045.121-.136.181l-2.36 1.362a.945.945 0 0 1-.438.106.827.827 0 0 1-.439-.106Zm-4.538-2.617-2.814-1.619c-.09-.045-.136-.121-.136-.181 0-.061.046-.121.136-.182l2.36-1.361a.933.933 0 0 1 .439-.106c.166 0 .318.03.439.106l2.813 1.618c.091.046.136.121.136.182 0 .06-.045.121-.136.181l-2.36 1.362a.944.944 0 0 1-.438.106.818.818 0 0 1-.439-.106Z" fill="#29256A"/><path style="mix-blend-mode:screen" d="m133.993 130.643-4.265-2.465c-.091-.046-.137-.121-.137-.182 0-.06.046-.121.137-.181l2.359-1.362a.948.948 0 0 1 .439-.106c.166 0 .318.031.439.106l4.265 2.466c.091.045.137.121.137.181 0 .061-.046.121-.137.182l-2.359 1.361a.935.935 0 0 1-.439.106.82.82 0 0 1-.439-.106Zm4.221-2.375-2.814-1.618c-.091-.046-.136-.121-.136-.182 0-.06.045-.121.136-.181l2.36-1.362a.944.944 0 0 1 .439-.106c.166 0 .317.031.438.106l2.814 1.619c.091.045.136.121.136.181 0 .061-.045.121-.136.182l-2.36 1.361a.932.932 0 0 1-.439.106.816.816 0 0 1-.438-.106Zm-10.226-1.089-2.814-1.618c-.09-.046-.136-.121-.136-.182 0-.06.046-.121.136-.181l2.36-1.362a.944.944 0 0 1 .439-.106c.166 0 .317.031.439.106l2.813 1.619c.091.045.136.121.136.181 0 .061-.045.121-.136.182l-2.36 1.361a.931.931 0 0 1-.438.106.817.817 0 0 1-.439-.106Zm14.234-1.301-4.265-2.465c-.091-.046-.137-.121-.137-.182 0-.06.046-.121.137-.181l2.359-1.362a.948.948 0 0 1 .439-.106c.166 0 .318.031.439.106l4.265 2.466c.091.045.137.121.137.181 0 .061-.046.121-.137.182l-2.359 1.361a.935.935 0 0 1-.439.106.82.82 0 0 1-.439-.106Zm-8.546-.227-2.814-1.618c-.091-.045-.136-.121-.136-.182 0-.06.045-.121.136-.181l2.36-1.362a.945.945 0 0 1 .439-.105c.166 0 .317.03.438.105l2.814 1.619c.091.045.136.121.136.182 0 .06-.045.121-.136.181l-2.36 1.361a.932.932 0 0 1-.439.106.816.816 0 0 1-.438-.106Zm-10.226-1.089-2.814-1.618c-.09-.046-.136-.121-.136-.182 0-.06.046-.121.136-.181l2.36-1.362a.944.944 0 0 1 .439-.106c.166 0 .317.031.438.106l2.814 1.619c.091.045.136.121.136.181 0 .061-.045.121-.136.182l-2.36 1.361a.931.931 0 0 1-.438.106.817.817 0 0 1-.439-.106Zm5.688-1.527-2.814-1.619c-.091-.045-.136-.121-.136-.182 0-.06.045-.121.136-.181l2.36-1.361a.931.931 0 0 1 .438-.106c.167 0 .318.03.439.106l2.814 1.618c.09.045.136.121.136.182 0 .06-.046.121-.136.181l-2.36 1.362a.945.945 0 0 1-.439.105.825.825 0 0 1-.438-.105Zm7.094-.621-2.814-1.618c-.09-.046-.136-.121-.136-.182 0-.06.046-.121.136-.181l2.36-1.362a.948.948 0 0 1 .439-.106c.166 0 .318.031.439.106l2.813 1.619c.091.045.136.121.136.181 0 .061-.045.121-.136.182l-2.36 1.361a.928.928 0 0 1-.438.106.817.817 0 0 1-.439-.106Zm-17.305-.484-2.814-1.618c-.09-.046-.136-.121-.136-.182 0-.06.046-.121.136-.181l2.36-1.362a.944.944 0 0 1 .439-.106c.166 0 .318.031.439.106l2.813 1.619c.091.045.136.121.136.181 0 .061-.045.121-.136.182l-2.36 1.361a.931.931 0 0 1-.438.106.817.817 0 0 1-.439-.106Zm5.688-1.528-2.814-1.618c-.091-.045-.136-.121-.136-.182 0-.06.045-.121.136-.181l2.36-1.362a.945.945 0 0 1 .439-.105c.166 0 .317.03.438.105l2.814 1.619c.091.045.136.121.136.182 0 .06-.045.121-.136.181l-2.36 1.361a.932.932 0 0 1-.439.106.816.816 0 0 1-.438-.106Zm7.094-.62-2.813-1.618c-.091-.046-.137-.121-.137-.182 0-.06.046-.121.137-.181l2.359-1.362a.948.948 0 0 1 .439-.106c.166 0 .318.031.439.106l2.813 1.619c.091.045.136.121.136.181 0 .061-.045.121-.136.182l-2.36 1.361a.928.928 0 0 1-.438.106.817.817 0 0 1-.439-.106Zm-17.305-.484-2.813-1.618c-.091-.046-.137-.121-.137-.182 0-.06.046-.121.137-.181l2.359-1.362a.948.948 0 0 1 .439-.106c.166 0 .318.031.439.106l2.813 1.619c.091.045.136.121.136.181 0 .061-.045.121-.136.182l-2.36 1.361a.928.928 0 0 1-.438.106.817.817 0 0 1-.439-.106Zm5.688-1.528-2.814-1.618c-.091-.046-.136-.121-.136-.182 0-.06.045-.121.136-.181l2.36-1.362a.945.945 0 0 1 .439-.105c.166 0 .317.03.438.105l2.814 1.619c.091.045.136.121.136.181 0 .061-.045.121-.136.182l-2.36 1.361a.932.932 0 0 1-.439.106.816.816 0 0 1-.438-.106Zm7.094-.62-2.813-1.618c-.091-.046-.136-.121-.136-.182 0-.06.045-.121.136-.181l2.359-1.362a.948.948 0 0 1 .439-.106c.167 0 .318.031.439.106l2.813 1.619c.091.045.137.121.137.181 0 .061-.046.121-.137.182l-2.359 1.361a.935.935 0 0 1-.439.106.82.82 0 0 1-.439-.106Zm-17.305-.484-2.813-1.618c-.091-.046-.137-.121-.137-.182 0-.06.046-.121.137-.181l2.359-1.362a.948.948 0 0 1 .439-.106c.166 0 .318.031.439.106l2.813 1.619c.091.045.136.121.136.181 0 .061-.045.121-.136.182l-2.359 1.361a.935.935 0 0 1-.439.106.817.817 0 0 1-.439-.106Zm5.688-1.528-2.814-1.618c-.09-.046-.136-.121-.136-.182 0-.06.046-.121.136-.181l2.36-1.362a.944.944 0 0 1 .439-.106c.166 0 .317.031.438.106l2.814 1.619c.091.045.136.121.136.181 0 .061-.045.121-.136.182l-2.36 1.361a.931.931 0 0 1-.438.106.817.817 0 0 1-.439-.106Zm7.094-.62-2.813-1.618c-.091-.046-.136-.121-.136-.182 0-.06.045-.121.136-.181l2.36-1.362a.94.94 0 0 1 .438-.106c.167 0 .318.031.439.106l2.813 1.619c.091.045.137.121.137.181 0 .061-.046.121-.137.182l-2.359 1.361a.935.935 0 0 1-.439.106.82.82 0 0 1-.439-.106Zm-17.305-.484-2.813-1.618c-.091-.046-.136-.121-.136-.182 0-.06.045-.121.136-.182l2.359-1.361a.948.948 0 0 1 .439-.106c.167 0 .318.03.439.106l2.813 1.619c.091.045.137.121.137.181 0 .061-.046.121-.137.182l-2.359 1.361a.935.935 0 0 1-.439.106.82.82 0 0 1-.439-.106Zm5.688-1.528-2.814-1.618c-.09-.046-.136-.121-.136-.182 0-.06.046-.121.136-.181l2.36-1.362a.944.944 0 0 1 .439-.106c.166 0 .318.031.439.106l2.813 1.619c.091.045.136.121.136.181 0 .061-.045.121-.136.182l-2.36 1.361a.931.931 0 0 1-.438.106.817.817 0 0 1-.439-.106Zm7.094-.62-2.813-1.618c-.091-.046-.136-.121-.136-.182 0-.06.045-.121.136-.182l2.36-1.361a.943.943 0 0 1 .438-.106c.167 0 .318.03.439.106l2.814 1.619c.09.045.136.121.136.181 0 .061-.046.121-.136.182l-2.36 1.361a.935.935 0 0 1-.439.106.82.82 0 0 1-.439-.106Zm-17.305-.484-2.813-1.619c-.091-.045-.136-.121-.136-.181 0-.061.045-.121.136-.182l2.36-1.361a.94.94 0 0 1 .438-.106c.167 0 .318.03.439.106l2.814 1.619c.09.045.136.121.136.181 0 .061-.046.121-.136.182l-2.36 1.361a.935.935 0 0 1-.439.106.82.82 0 0 1-.439-.106Zm5.688-1.528-2.814-1.618c-.09-.046-.136-.121-.136-.182 0-.06.046-.121.136-.181l2.36-1.362a.948.948 0 0 1 .439-.106c.166 0 .318.031.439.106l2.813 1.619c.091.045.136.121.136.181 0 .061-.045.121-.136.182l-2.36 1.361a.928.928 0 0 1-.438.106.817.817 0 0 1-.439-.106Zm7.095-.62-2.814-1.619c-.091-.045-.136-.121-.136-.181 0-.061.045-.121.136-.182l2.36-1.361a.943.943 0 0 1 .438-.106c.167 0 .318.03.439.106l2.814 1.619c.09.045.136.121.136.181 0 .061-.046.121-.136.182l-2.36 1.361a.932.932 0 0 1-.439.106.816.816 0 0 1-.438-.106Zm-17.305-.484-2.814-1.619c-.09-.045-.136-.121-.136-.181 0-.061.045-.121.136-.182l2.36-1.361a.933.933 0 0 1 .438-.106c.167 0 .318.03.439.106l2.814 1.619c.09.045.136.121.136.181 0 .061-.046.121-.136.182l-2.36 1.361a.944.944 0 0 1-.439.106.818.818 0 0 1-.439-.106Zm5.687-1.528-2.813-1.618c-.091-.046-.137-.121-.137-.182 0-.06.046-.121.137-.181l2.359-1.362a.948.948 0 0 1 .439-.106c.166 0 .318.031.439.106l2.813 1.619c.091.045.136.121.136.181 0 .061-.045.121-.136.182l-2.359 1.361a.935.935 0 0 1-.439.106.817.817 0 0 1-.439-.106Zm7.095-.62-2.814-1.619c-.091-.045-.136-.121-.136-.181 0-.061.045-.121.136-.182l2.36-1.361a.931.931 0 0 1 .438-.106c.167 0 .318.03.439.106l2.814 1.619c.091.045.136.121.136.181 0 .061-.045.121-.136.182l-2.36 1.361a.944.944 0 0 1-.439.106.816.816 0 0 1-.438-.106Zm-17.305-.484-2.814-1.619c-.09-.045-.136-.121-.136-.181 0-.061.045-.121.136-.182l2.36-1.361a.932.932 0 0 1 .438-.106c.167 0 .318.03.44.106l2.813 1.618c.09.046.136.121.136.182 0 .06-.045.121-.136.182l-2.36 1.361a.945.945 0 0 1-.439.106.817.817 0 0 1-.438-.106Zm5.687-1.528-4.266-2.466c-.09-.045-.136-.121-.136-.181 0-.061.046-.121.136-.182l2.36-1.361a.932.932 0 0 1 .439-.106c.166 0 .318.03.439.106l4.265 2.466c.091.045.137.121.137.181 0 .061-.046.121-.137.182l-2.36 1.361a.933.933 0 0 1-.438.106.818.818 0 0 1-.439-.106Zm7.095-.62-2.814-1.619c-.091-.045-.136-.121-.136-.181 0-.061.045-.121.136-.182l2.36-1.361a.932.932 0 0 1 .439-.106c.166 0 .317.03.438.106l2.814 1.618c.091.046.136.121.136.182 0 .06-.045.121-.136.182l-2.36 1.361a.944.944 0 0 1-.439.106.816.816 0 0 1-.438-.106Zm-4.538-2.617-2.814-1.619c-.09-.045-.136-.12-.136-.181 0-.06.045-.121.136-.182l2.36-1.361a.939.939 0 0 1 .439-.106c.166 0 .317.03.438.106l2.814 1.618c.091.046.136.121.136.182 0 .06-.045.121-.136.182l-2.36 1.361a.944.944 0 0 1-.439.106.816.816 0 0 1-.438-.106Z" fill="url(#v)"/><path style="mix-blend-mode:screen" d="m125.599 135.559-2.814-1.618c-.091-.046-.136-.121-.136-.182 0-.06.045-.121.136-.181l2.36-1.362a.944.944 0 0 1 .439-.106c.166 0 .317.031.438.106l2.814 1.619c.091.045.136.121.136.181 0 .061-.045.121-.136.182l-2.36 1.361a.932.932 0 0 1-.439.106.816.816 0 0 1-.438-.106Zm4.023-2.39-4.265-2.465c-.091-.046-.136-.121-.136-.182 0-.06.045-.121.136-.181l2.359-1.362a.948.948 0 0 1 .439-.106c.167 0 .318.03.439.106l4.266 2.466c.09.045.136.121.136.181 0 .061-.046.121-.136.182l-2.36 1.361a.932.932 0 0 1-.439.106.82.82 0 0 1-.439-.106Zm-8.546-.227-2.814-1.618c-.091-.046-.136-.121-.136-.182 0-.06.045-.121.136-.181l2.36-1.362a.944.944 0 0 1 .439-.106c.166 0 .317.031.438.106l2.814 1.619c.091.045.136.121.136.181 0 .061-.045.121-.136.182l-2.36 1.361a.932.932 0 0 1-.439.106.816.816 0 0 1-.438-.106Zm-4.538-2.617-2.814-1.618c-.091-.046-.136-.121-.136-.182 0-.06.045-.121.136-.181l2.36-1.362a.944.944 0 0 1 .439-.106c.166 0 .317.031.438.106l2.814 1.619c.091.045.136.121.136.181 0 .061-.045.121-.136.182l-2.36 1.361a.932.932 0 0 1-.439.106.816.816 0 0 1-.438-.106Zm7.094-.62-2.813-1.618c-.091-.046-.136-.121-.136-.182 0-.06.045-.121.136-.181l2.359-1.362a.948.948 0 0 1 .439-.106c.167 0 .318.031.439.106l2.813 1.619c.091.045.137.121.137.181 0 .061-.046.121-.137.182l-2.359 1.361a.935.935 0 0 1-.439.106.82.82 0 0 1-.439-.106ZM112 127.708l-2.814-1.618c-.091-.045-.136-.121-.136-.182 0-.06.045-.121.136-.181l2.36-1.362a.945.945 0 0 1 .439-.105c.166 0 .317.03.438.105l2.814 1.619c.091.045.136.121.136.182 0 .06-.045.121-.136.181l-2.36 1.361a.932.932 0 0 1-.439.106.816.816 0 0 1-.438-.106Zm7.094-.62-2.813-1.618c-.091-.046-.137-.121-.137-.182 0-.06.046-.121.137-.181l2.359-1.362a.948.948 0 0 1 .439-.106c.166 0 .318.031.439.106l2.813 1.619c.091.045.136.121.136.181 0 .061-.045.121-.136.182l-2.359 1.361a.935.935 0 0 1-.439.106.817.817 0 0 1-.439-.106Zm-11.632-1.996-2.814-1.619c-.091-.045-.136-.121-.136-.182 0-.06.045-.121.136-.181l2.36-1.362a.945.945 0 0 1 .439-.105c.166 0 .317.03.438.105l2.814 1.619c.091.045.136.121.136.182 0 .06-.045.121-.136.181l-2.36 1.362a.945.945 0 0 1-.439.105.825.825 0 0 1-.438-.105Zm7.094-.621-2.813-1.618c-.091-.046-.137-.121-.137-.182 0-.06.046-.121.137-.181l2.359-1.362a.948.948 0 0 1 .439-.106c.166 0 .318.031.439.106l2.813 1.619c.091.045.136.121.136.181 0 .061-.045.121-.136.182l-2.359 1.361a.935.935 0 0 1-.439.106.817.817 0 0 1-.439-.106Zm-11.632-1.996-2.814-1.619c-.091-.045-.136-.121-.136-.182 0-.06.045-.121.136-.181l2.36-1.361a.932.932 0 0 1 .439-.106c.166 0 .317.03.438.106l2.814 1.618c.091.046.136.121.136.182 0 .06-.045.121-.136.181l-2.36 1.362a.945.945 0 0 1-.439.105.825.825 0 0 1-.438-.105Zm7.094-.621-2.813-1.618c-.091-.046-.137-.121-.137-.182 0-.06.046-.121.137-.181l2.359-1.362a.948.948 0 0 1 .439-.106c.166 0 .318.031.439.106l2.813 1.619c.091.045.136.121.136.181 0 .061-.045.121-.136.182l-2.36 1.361a.928.928 0 0 1-.438.106.817.817 0 0 1-.439-.106Zm-11.632-1.996-2.814-1.619c-.09-.045-.136-.121-.136-.181 0-.061.045-.121.136-.182l2.36-1.361a.933.933 0 0 1 .439-.106c.166 0 .317.03.438.106l2.814 1.618c.091.046.136.121.136.182 0 .06-.045.121-.136.181l-2.36 1.362a.945.945 0 0 1-.439.106.827.827 0 0 1-.438-.106Zm7.094-.621-2.813-1.618c-.091-.046-.137-.121-.137-.182 0-.06.046-.121.137-.181l2.359-1.362a.948.948 0 0 1 .439-.105c.166 0 .318.03.439.105l2.813 1.619c.091.045.136.121.136.182 0 .06-.045.121-.136.181l-2.36 1.361a.928.928 0 0 1-.438.106.817.817 0 0 1-.439-.106Zm-11.617-1.996-2.814-1.619c-.09-.045-.136-.121-.136-.181 0-.061.045-.121.136-.182l2.36-1.361a.933.933 0 0 1 .439-.106c.166 0 .317.03.438.106l2.814 1.618c.09.046.136.121.136.182 0 .06-.045.121-.136.181l-2.36 1.362a.945.945 0 0 1-.439.106.827.827 0 0 1-.438-.106Zm7.094-.62-2.813-1.619c-.091-.045-.137-.121-.137-.182 0-.06.046-.121.137-.181l2.359-1.362a.948.948 0 0 1 .439-.105c.166 0 .318.03.439.105l2.813 1.619c.091.045.136.121.136.182 0 .06-.045.121-.136.181l-2.359 1.362a.948.948 0 0 1-.439.105.826.826 0 0 1-.439-.105Zm-11.632-1.997-2.814-1.619c-.09-.045-.136-.121-.136-.181 0-.061.045-.121.136-.182l2.36-1.361a.933.933 0 0 1 .439-.106c.166 0 .317.03.438.106l2.814 1.618c.09.046.136.121.136.182 0 .06-.045.121-.136.181l-2.36 1.362a.944.944 0 0 1-.439.106.827.827 0 0 1-.438-.106Zm7.094-.62-2.813-1.619c-.091-.045-.137-.121-.137-.182 0-.06.046-.121.137-.181l2.36-1.361a.932.932 0 0 1 .438-.106c.166 0 .318.03.439.106l2.813 1.618c.091.045.136.121.136.182 0 .06-.045.121-.136.181l-2.36 1.362a.945.945 0 0 1-.438.105.826.826 0 0 1-.439-.105Zm-11.632-1.997-4.266-2.466c-.09-.045-.136-.121-.136-.181 0-.061.045-.121.136-.182l2.36-1.361a.933.933 0 0 1 .438-.106c.167 0 .318.03.439.106l4.266 2.465c.09.046.136.121.136.182 0 .06-.045.121-.136.181l-2.36 1.362a.945.945 0 0 1-.439.106.826.826 0 0 1-.438-.106Zm7.094-.62-2.814-1.619c-.09-.045-.136-.121-.136-.181 0-.061.046-.121.136-.182l2.36-1.361a.933.933 0 0 1 .439-.106c.166 0 .318.03.439.106l2.813 1.618c.091.046.136.121.136.182 0 .06-.045.121-.136.181l-2.36 1.362a.945.945 0 0 1-.438.106.827.827 0 0 1-.439-.106Zm-4.538-2.617-2.814-1.619c-.09-.045-.136-.121-.136-.181 0-.061.046-.121.136-.182l2.36-1.361a.933.933 0 0 1 .439-.106c.166 0 .318.03.439.106l2.813 1.618c.091.046.136.121.136.182 0 .06-.045.121-.136.181l-2.36 1.362a.944.944 0 0 1-.438.106.827.827 0 0 1-.439-.106Z" fill="url(#w)"/><path d="M125.131 111.508c-1.27.287-2.511-.469-1.739-1.861 2.117-3.842 8.274-4.175 11.33-5.067.211-.091.347-.197.529-.288 4.508-2.132 11.118 8.093 7.321 10.166-6.035 3.297-6.05 3.146-7.034 4.341-.786.968-2.102 2.738-4.084 5.067-1.195 1.392-3.373.031-1.301-3.131a29.985 29.985 0 0 0-2.602 3.631c-1.467 2.42-3.751.06-3.282-.953a73.11 73.11 0 0 1 2.118-4.311c-1.21 1.588-2.557 3.297-3.071 3.887-1.588 1.846-3.827-.076-2.39-2.118.605-.862 1.18-1.739 1.77-2.632-1.074.984-2.496 2.254-3.51 1.21-1.497-1.558 2.239-5.082 5.96-7.956l-.015.015ZM78.253 76.762c.801-1.09 1.724-2.784 2.738-3.676 0 0-2.542-3.525-1.664-5.234 0 0 2.768-3.297 3.479-3.6.938-.408 8.38-1.86 11.617-2.844 5.37-1.634 10.362 6.822 7.14 8.85-1.679.74-2.269 1.149-3.358 2.147-.756.696-1.331 1.558-2.057 2.3-1.226 1.255-4.024 3.146-5.764 3.433-.726.121-1.543-.106-1.754-.817-.379-1.33 3.872-3.252 3.01-4.265-1.68-.62-6.399 1.724-6.399 1.724s-2.738 1.936-4.402 4.402c-1.497 2.224-4.477.121-2.601-2.42h.015Z" fill="#29256A"/><path d="m195.015 111.826.197-1.256-6.913 19.181.317-.393 6.399-17.532Z" fill="#CEE0E8" stroke="#29256A" stroke-width=".5" stroke-linecap="round" stroke-linejoin="round"/><path d="m202.11 114.579-2.375-.016-6.383 17.548 1.845 1.648 6.913-19.18Z" fill="#BACFD6" stroke="#29256A" stroke-width=".5" stroke-linecap="round" stroke-linejoin="round"/><path d="m199.735 114.563-4.719-2.738-6.399 17.532 4.735 2.753 6.383-17.547Z" fill="#CEE0E8" stroke="#29256A" stroke-width=".5" stroke-linecap="round" stroke-linejoin="round"/><path d="m181.628 147.389-2.345 1.558 18.636-10.755.318-.394-16.609 9.591Z" fill="#1F787D" stroke="#29256A" stroke-width=".5" stroke-linecap="round" stroke-linejoin="round"/><path d="m199.917 111.871-4.735-2.753-.166 2.707 4.719 2.738.182-2.692Z" fill="#CEE0E8" stroke="#29256A" stroke-width=".5" stroke-linecap="round" stroke-linejoin="round"/><path d="m207.117 113.384.046-.59.937-14.37-.272 2.873-.711 12.087Z" fill="#04555B" stroke="#29256A" stroke-width=".5" stroke-linecap="round" stroke-linejoin="round"/><path d="m202.368 110.252-2.45 1.619-.182 2.692 2.375.015.257-4.326ZM181.614 141.595l-2.344-1.361.015 8.713 2.344-1.558-.015-5.794Z" fill="#BACFD6" stroke="#29256A" stroke-width=".5" stroke-linecap="round" stroke-linejoin="round"/><path d="m179.268 140.234-4.735-2.738.03 8.698 4.72 2.753-.015-8.713Z" fill="#CEE0E8" stroke="#29256A" stroke-width=".5" stroke-linecap="round" stroke-linejoin="round"/><path d="m193.351 132.11-4.735-2.753-14.083 8.139 4.735 2.738 14.083-8.124Z" fill="#EBF3F6" stroke="#29256A" stroke-width=".5" stroke-linecap="round" stroke-linejoin="round"/><path d="m195.198 133.76-1.845-1.649-14.083 8.123 2.344 1.361 13.584-7.835ZM141.86 176.492l-2.602 1.316 7.351-2.163.167-.605-4.916 1.452ZM153.659 138.373l-.091.257 46.349-26.759 2.45-1.619-48.708 28.121Z" fill="#BACFD6" stroke="#29256A" stroke-width=".5" stroke-linecap="round" stroke-linejoin="round"/><path d="m149.68 134.864-7.821 41.629 4.917-1.453 6.882-36.667 48.709-28.121-.258 4.327-6.913 19.18-13.583 7.836.015 5.794 16.609-9.591 8.879-24.414.711-12.087-58.147 33.567Z" fill="#CEE0E8" stroke="#29256A" stroke-width=".5" stroke-linecap="round" stroke-linejoin="round"/><path d="m208.1 98.423-4.72-2.753-60.507 34.928 4.72 2.753L208.1 98.423Z" fill="#EBF3F6" stroke="#29256A" stroke-width=".5" stroke-linecap="round" stroke-linejoin="round"/><path d="m207.827 101.297.272-2.874-60.507 34.928 2.087 1.513 58.148-33.567Z" fill="#BACFD6" stroke="#29256A" stroke-width=".5" stroke-linecap="round" stroke-linejoin="round"/><path d="m149.68 134.864-2.087-1.513-8.335 44.457 2.602-1.316 7.82-41.628Z" fill="#BACFD6" stroke="#29256A" stroke-width=".5" stroke-linecap="round" stroke-linejoin="round"/><path d="m147.593 133.351-4.72-2.753-8.35 44.458 4.735 2.753 8.335-44.458Z" fill="#CEE0E8" stroke="#29256A" stroke-width=".5" stroke-linecap="round" stroke-linejoin="round"/><path d="m21 89.746 96.762 55.916V60.927L21 5v84.746Z" fill="url(#x)" fill-opacity=".7"/><g opacity=".5" fill="#fff"><path opacity=".7" d="M43.133 94.808 23.605 83.522v3.835l19.528 11.286v-3.835ZM43.133 87.258 23.605 75.972v3.824l19.528 11.287v-3.825ZM43.133 79.358 23.605 68.07v3.825l19.528 11.286v-3.824ZM43.133 71.797 23.605 60.511v3.824l19.528 11.287v-3.825ZM43.133 63.897 23.605 52.61v3.824L43.133 67.72v-3.824ZM43.133 56.336 23.605 45.05v3.835l19.528 11.286v-3.835ZM43.133 48.436 23.605 37.15v3.824L43.133 52.26v-3.824ZM43.133 40.875 23.605 29.59v3.835L43.133 44.71v-3.835ZM43.133 22.96 23.605 11.673v10.213l19.528 11.286V22.96Z"/></g><g opacity=".5" fill="#fff"><path opacity=".7" d="M106.641 74.208v10.223l7.552 4.362V78.58l-7.552-4.372ZM106.641 89.483v10.223l7.552 4.361V93.855l-7.552-4.372ZM106.641 104.758v10.223l7.552 4.361V109.13l-7.552-4.372ZM106.641 120.032v10.224l7.552 4.361v-10.212l-7.552-4.373Z"/></g><g opacity=".5" fill="#fff"><path opacity=".7" d="M114.194 64.27 94.666 52.982v10.224l19.528 11.286V64.269ZM85.701 47.8 66.174 36.514v22.77L85.7 70.57V47.8ZM87.42 88.058 67.893 76.772v22.77l19.527 11.286v-22.77Z"/></g><path opacity=".5" d="M77.657 89.494s-.033-.022-.055-.033c-.722-.406-1.379-.438-1.915-.208l-10.125-18.77-.077-.154L44.36 58.122v.745l20.907 12.087 10.016 18.562c-.547.46-.887 1.315-.887 2.465 0 2.422 1.467 5.227 3.284 6.268 1.806 1.052 3.284-.066 3.284-2.477 0-2.41-1.467-5.226-3.284-6.267l-.022-.011Z" fill="#fff"/><path opacity=".5" d="M77.656 91.51s-.022 0-.033-.011c-.93-.515-1.686.066-1.686 1.315 0 1.26.767 2.728 1.719 3.276.941.548 1.718-.033 1.718-1.293s-.766-2.728-1.718-3.276v-.011ZM75.938 51.252s-.022 0-.033-.011c-.93-.515-1.686.066-1.686 1.315 0 .405.099.81.23 1.216l-10.727 7.33-19.374-11.198v.745L63.94 61.98l10.847-7.407c.307.548.701 1.008 1.139 1.271.941.548 1.718-.033 1.718-1.293s-.766-2.728-1.718-3.276l.01-.022Z" fill="#85009B"/><path opacity=".5" d="M75.938 51.997h-.022c-.623-.35-1.127.044-1.127.887 0 .855.514 1.841 1.15 2.203.634.372 1.149-.022 1.149-.877s-.515-1.84-1.15-2.202v-.011ZM93.1 73.277s-.065-.033-.098-.055c-3.097-1.72-5.582.208-5.582 4.35 0 4.186 2.55 9.062 5.68 10.87 3.142 1.819 5.682-.11 5.682-4.306 0-4.197-2.55-9.062-5.681-10.881v.022Z" fill="#fff"/><path opacity=".5" d="M93.102 76.367s-.044-.022-.055-.033c-1.839-1.02-3.316.12-3.316 2.586 0 2.487 1.51 5.369 3.37 6.454 1.862 1.074 3.372-.066 3.372-2.553 0-2.488-1.51-5.37-3.371-6.454Z" fill="#85009B"/><path opacity=".5" d="M92.227 87.861v33.41l-28.799-17.006.142-14.07-18.673-9.325v2.05l16.824 8.404-.143 13.981 32.477 19.187v-35.59s-.482-.175-.952-.45a8.687 8.687 0 0 1-.876-.602v.011Z" fill="#fff"/><defs><linearGradient id="a" x1="199.084" y1="71.724" x2="144.84" y2="43.331" gradientUnits="userSpaceOnUse"><stop stop-color="#5971FF"/><stop offset="1" stop-color="#15ABAB"/></linearGradient><linearGradient id="b" x1="112.529" y1="176.856" x2="68.525" y2="151.443" gradientUnits="userSpaceOnUse"><stop stop-color="#5971FF"/><stop offset="1" stop-color="#15ABAB"/></linearGradient><linearGradient id="c" x1="112.529" y1="176.856" x2="68.525" y2="151.443" gradientUnits="userSpaceOnUse"><stop stop-color="#6059FF"/><stop offset=".76" stop-color="#1578AB"/><stop offset=".82" stop-color="#1776AE"/><stop offset=".87" stop-color="#2073B8"/><stop offset=".92" stop-color="#2F6DC8"/><stop offset=".96" stop-color="#4464E0"/><stop offset="1" stop-color="#6059FF"/></linearGradient><linearGradient id="d" x1="99.322" y1="190.122" x2="58.313" y2="164.921" gradientUnits="userSpaceOnUse"><stop stop-color="#5971FF"/><stop offset="1" stop-color="#15ABAB"/></linearGradient><linearGradient id="e" x1="183.716" y1="30.716" x2="172.19" y2="26.45" gradientUnits="userSpaceOnUse"><stop stop-color="#5971FF"/><stop offset="1" stop-color="#15ABAB"/></linearGradient><linearGradient id="f" x1="187.392" y1="19.824" x2="173.52" y2="12.352" gradientUnits="userSpaceOnUse"><stop stop-color="#5971FF"/><stop offset="1" stop-color="#15ABAB"/></linearGradient><linearGradient id="g" x1="190.191" y1="106.546" x2="157.093" y2="89.453" gradientUnits="userSpaceOnUse"><stop stop-color="#5971FF"/><stop offset="1" stop-color="#15ABAB"/></linearGradient><linearGradient id="h" x1="144.493" y1="143.138" x2="99.43" y2="112.173" gradientUnits="userSpaceOnUse"><stop stop-color="#5971FF"/><stop offset="1" stop-color="#15ABAB"/></linearGradient><linearGradient id="i" x1="69.964" y1="196.218" x2="98.538" y2="196.218" gradientUnits="userSpaceOnUse"><stop stop-color="#DDE7FF"/><stop offset="1" stop-color="#9FD0E3"/></linearGradient><linearGradient id="j" x1="33.099" y1="173.981" x2="64.456" y2="173.981" gradientUnits="userSpaceOnUse"><stop stop-color="#DDE7FF"/><stop offset="1" stop-color="#9FD0E3"/></linearGradient><linearGradient id="k" x1="123.194" y1="52.165" x2="122.755" y2="75.234" gradientUnits="userSpaceOnUse"><stop stop-color="#DDE7FF"/><stop offset="1" stop-color="#9FD0E3"/></linearGradient><linearGradient id="l" x1="53.414" y1="131.521" x2="145.914" y2="131.521" gradientUnits="userSpaceOnUse"><stop stop-color="#DDE7FF"/><stop offset="1" stop-color="#9FD0E3"/></linearGradient><linearGradient id="m" x1="89.143" y1="140.627" x2="171.175" y2="140.627" gradientUnits="userSpaceOnUse"><stop stop-color="#DDE7FF"/><stop offset="1" stop-color="#9FD0E3"/></linearGradient><linearGradient id="n" x1="137.823" y1="58.337" x2="175.367" y2="74.538" gradientUnits="userSpaceOnUse"><stop stop-color="#DDE7FF"/><stop offset="1" stop-color="#9FD0E3"/></linearGradient><linearGradient id="o" x1="131.892" y1="94.036" x2="173.657" y2="94.036" gradientUnits="userSpaceOnUse"><stop stop-color="#B177CC"/><stop offset=".76" stop-color="#142387"/><stop offset=".81" stop-color="#172488"/><stop offset=".85" stop-color="#21298C"/><stop offset=".88" stop-color="#313294"/><stop offset=".91" stop-color="#493F9E"/><stop offset=".95" stop-color="#674FAB"/><stop offset=".98" stop-color="#8C63BB"/><stop offset="1" stop-color="#B177CC"/></linearGradient><linearGradient id="p" x1="135.764" y1="96.593" x2="144.175" y2="96.593" gradientUnits="userSpaceOnUse"><stop stop-color="#A05AC1"/><stop offset="1" stop-color="#142387"/></linearGradient><linearGradient id="q" x1="155.338" y1="75.022" x2="173.566" y2="91.54" gradientUnits="userSpaceOnUse"><stop stop-color="#DDE7FF"/><stop offset="1" stop-color="#9FD0E3"/></linearGradient><linearGradient id="r" x1="138.728" y1="39.58" x2="173.005" y2="39.58" gradientUnits="userSpaceOnUse"><stop stop-color="#DDE7FF"/><stop offset="1" stop-color="#9FD0E3"/></linearGradient><linearGradient id="s" x1="138.547" y1="40.911" x2="172.854" y2="40.911" gradientUnits="userSpaceOnUse"><stop stop-color="#B177CC"/><stop offset=".76" stop-color="#142387"/><stop offset=".81" stop-color="#172488"/><stop offset=".85" stop-color="#21298C"/><stop offset=".88" stop-color="#313294"/><stop offset=".91" stop-color="#493F9E"/><stop offset=".95" stop-color="#674FAB"/><stop offset=".98" stop-color="#8C63BB"/><stop offset="1" stop-color="#B177CC"/></linearGradient><linearGradient id="t" x1="140.922" y1="12.987" x2="178.088" y2="33.499" gradientUnits="userSpaceOnUse"><stop stop-color="#DDE7FF"/><stop offset="1" stop-color="#9FD0E3"/></linearGradient><linearGradient id="u" x1="57.438" y1="120.977" x2="157.864" y2="120.977" gradientUnits="userSpaceOnUse"><stop stop-color="#B177CC"/><stop offset=".76" stop-color="#142387"/><stop offset=".81" stop-color="#172488"/><stop offset=".85" stop-color="#21298C"/><stop offset=".88" stop-color="#313294"/><stop offset=".91" stop-color="#493F9E"/><stop offset=".95" stop-color="#674FAB"/><stop offset=".98" stop-color="#8C63BB"/><stop offset="1" stop-color="#B177CC"/></linearGradient><linearGradient id="v" x1="88.764" y1="114.397" x2="145.611" y2="114.397" gradientUnits="userSpaceOnUse"><stop stop-color="#E7E3FF"/><stop offset="1" stop-color="#8ED0D1"/></linearGradient><linearGradient id="w" x1="80.37" y1="120.493" x2="132.996" y2="120.493" gradientUnits="userSpaceOnUse"><stop stop-color="#E7E3FF"/><stop offset="1" stop-color="#8ED0D1"/></linearGradient><linearGradient id="x" x1="23.958" y1="-15.925" x2="127.242" y2="33.921" gradientUnits="userSpaceOnUse"><stop stop-color="#E6007A"/><stop offset=".24" stop-color="#703AC2"/><stop offset=".495" stop-color="#0070EB"/><stop offset=".791" stop-color="#0297FB"/><stop offset="1" stop-color="#0AE2FF"/></linearGradient></defs></svg>