<svg width="240" height="210" fill="none" xmlns="http://www.w3.org/2000/svg"><g clip-path="url(#a)"><path d="M59.232 50.343s7.68 4.23 14.043 4.56c6.363.34 8.191 1.877 11.373.987 3.182-.89 13.104-3.877 13.104-3.877l-3.328-7.752-6.07-.464-7.997-.353-3.279-.39-9.508-3.133s-8.423-6.424-13.287-4.949c-4.864 1.475-3.888 10.959 4.95 15.371v0Z" fill="url(#b)" stroke="#29256A" stroke-width=".5" stroke-linecap="round" stroke-linejoin="round"/><path d="M59.234 47.54s7.68 4.23 14.042 4.559c6.363.341 8.192 1.877 11.374.987 2.547-.719 9.41-2.767 12.043-3.56l1.06 2.475s-9.922 2.987-13.103 3.877c-3.182.89-5.01-.646-11.374-.988-6.363-.341-14.042-4.559-14.042-4.559-6.132-3.072-8.472-8.557-7.704-12.14.56 3.242 3.023 6.996 7.704 9.337v.012Z" fill="#29256A" opacity=".15"/><path d="M94.242 53.915c.22.317 1.39.256 1.39.256s-1.025 1.585-.074 2.657c.951 1.073 2.097.451 2.097.451.317 1.22 1.377 1.244 1.804 1.097.427-.146 2.048-.865 2.048-.865 2.95 1.39 4.681-4.193 4.681-4.193l-.244-3.23c-.353-1.207-8.252-5.06-9.41-5.535-1.853-.768-3.243 0-3.243 0l1.17 3.218c-.268.866.037 2.06.22 2.658-.33-.098-1.11.317-1.11.317-.682.78.451 2.877.67 3.181v-.012Z" fill="#29256A" stroke="#29256A" stroke-width=".5" stroke-linecap="round" stroke-linejoin="round"/><path d="M70.8 40.982c-1.34 1.901-3.255 5.936-2.804 12.945-.365-.11-.719-.207-1.072-.329-.366-6.79 1.401-10.861 2.828-12.97l1.048.341v.013Z" fill="url(#c)" stroke="#29256A" stroke-width=".5" stroke-linecap="round" stroke-linejoin="round"/><path d="M98.58 49.843s1.671 1.402 2.415.914c.743-.475 1.133-1.377.182-2.242-5.826-5.376-7.874-3.962-7.874-3.962l1.17 3.218 4.12 2.072h-.012Z" fill="#29256A" stroke="#29256A" stroke-width=".5" stroke-linecap="round" stroke-linejoin="round"/><path d="m18.188 102.516 27.963-16.14V42.81L18.187 58.95v43.566Z" fill="url(#d)" stroke="#29256A" stroke-width=".5" stroke-linecap="round" stroke-linejoin="round"/><path d="m34.01 35.813 12.14 6.997-27.962 16.14-12.13-6.997 27.952-16.14Z" fill="#F5F5F5" stroke="#29256A" stroke-width=".5" stroke-linecap="round" stroke-linejoin="round"/><path d="M18.188 58.95v43.566l-12.13-6.997V51.953l12.13 6.997Z" fill="url(#e)" stroke="#29256A" stroke-width=".5" stroke-linecap="round" stroke-linejoin="round"/><path d="M18.188 58.95 46.15 42.81l-4.45-15.944-19.466 11.47-4.047 20.614Z" fill="url(#f)" stroke="#29256A" stroke-width=".5" stroke-linecap="round" stroke-linejoin="round"/><path opacity=".5" d="m18.188 102.516 27.963-16.14V42.81L18.187 58.95v43.566Z" fill="#29256A" stroke="#29256A" stroke-width=".5" stroke-linecap="round" stroke-linejoin="round"/><path opacity=".5" d="M18.188 58.95 46.15 42.81l-4.45-15.944-19.466 11.47-4.047 20.614Z" fill="#29256A" stroke="#29256A" stroke-width=".5" stroke-linecap="round" stroke-linejoin="round"/><path d="m29.573 19.857 12.129 7.009-19.468 11.47-12.129-7.009 19.468-11.47Z" fill="url(#g)" stroke="#29256A" stroke-width=".5" stroke-linecap="round" stroke-linejoin="round"/><path d="M22.235 38.336 18.188 58.95l-12.13-6.997 4.048-20.625 12.129 7.01Z" fill="url(#h)" stroke="#29256A" stroke-width=".5" stroke-linecap="round" stroke-linejoin="round"/><path d="m58.939 156.48.926 4.084c4.315 5.632 13.263 15.128 19.723 14.725 1.17-.073 2.085-.317 2.792-.682-.634 1.182-2.06 1.45-4.413 1.597-6.46.402-15.006-7.936-19.028-13.787-1.463-2.121-.305-5.132-.012-5.937h.012Z" fill="#29256A" stroke="#29256A" stroke-width=".5" stroke-linecap="round" stroke-linejoin="round"/><path d="M61.071 149.703s-2.657 7.228.061 10.788c4.316 5.631 11.995 15.213 18.456 14.81 6.46-.402 5.412-5.973 2.487-9.776-2.926-3.803-8.4-8.898-9.472-15.7-.89-5.595-11.544-.122-11.544-.122h.012Z" fill="url(#i)" stroke="#29256A" stroke-width=".5" stroke-linecap="round" stroke-linejoin="round"/><path d="M79.59 175.301c-6.461.403-15.408-9.093-19.724-14.725-2.73-3.559 1.207-10.873 1.207-10.873s1.158-.598 2.743-1.195c.097 2.011.183 3.718.183 3.718s-3.316 2.584-.5 7.655c1.828 3.304 2.243 3.547 5.095 6.534 1.731 1.804 10.971 9.252 15.7 5.693-.34 1.706-1.706 2.998-4.692 3.181l-.013.012Z" fill="#29256A" opacity=".15"/><path d="M71.75 169.036c1.975-3.401 6.339-4.571 9.155-4.974.22.256.426.512.634.768-2.609.329-7.168 1.353-9.057 4.632-.451.781-.976 1.89-1.353 2.56-.22-.183-.44-.353-.647-.536.366-.634.866-1.707 1.28-2.438l-.012-.012Z" fill="#1C3B47" stroke="#29256A" stroke-width=".5" stroke-linecap="round" stroke-linejoin="round"/><path d="m39.373 103.126 5.132-18.822 13.457 7.534c4.767 4.79 20.321 24.928 23.04 30.084a6.799 6.799 0 0 1 .5 5.12L73.7 153.067s-6.4 3.925-13.324-3.169l3.157-22.698-24.16-24.074v0Z" fill="url(#j)" stroke="#29256A" stroke-width=".5" stroke-linecap="round" stroke-linejoin="round"/><path d="m60.363 149.898 1.768-22.417-25.27-22.149 7.631-21.028 3.718-1.085-3.133 18.224 19.955 24.831-2.45 25.55a17.096 17.096 0 0 1-2.219-1.926Z" fill="#29256A" opacity=".15"/><path d="M72.225 148.63a18.345 18.345 0 0 0 2.89-.329l-.269.902c-.731.134-1.585.231-2.584.268-5.071.195-9.46-1.95-11.58-3.401l.073-1.073c1.95 1.378 6.436 3.84 11.47 3.657v-.024Z" fill="#1C3B47" stroke="#29256A" stroke-width=".5" stroke-linecap="round" stroke-linejoin="round"/><path d="m11.507 162.466-.317 4.181c2.475 6.656 8.228 18.358 14.518 19.882 1.134.28 2.085.304 2.877.17-.951.939-2.402.78-4.681.232-6.302-1.524-12.007-12.007-14.128-18.773-.768-2.462 1.219-4.997 1.73-5.68v-.012Z" fill="#29256A" stroke="#29256A" stroke-width=".5" stroke-linecap="round" stroke-linejoin="round"/><path d="M15.543 156.614s-4.669 6.12-3.109 10.325c2.475 6.656 6.985 18.065 13.287 19.589 6.302 1.524 6.936-4.12 5.254-8.606-1.67-4.498-5.412-10.983-4.437-17.785.805-5.607-10.995-3.511-10.995-3.511v-.012Z" fill="url(#k)" stroke="#29256A" stroke-width=".5" stroke-linecap="round" stroke-linejoin="round"/><path d="M25.708 186.528c-6.302-1.523-12.056-13.226-14.518-19.881-1.56-4.206 4.352-10.032 4.352-10.032s1.28-.232 2.974-.33c-.5 1.963-.926 3.609-.926 3.609s-3.925 1.487-2.73 7.167c.78 3.706 1.62 3.877 2.949 7.753.817 2.365 7.765 12.068 13.323 10.057-.828 1.535-2.51 2.364-5.424 1.67v-.013Z" fill="#29256A" opacity=".15"/><path d="m21.33 115.998-2.632 15.054-3.852 26.33s4.924 6.705 11.678 2.743l19.528-47.857s2.791-5.949 4.217-23.015l-25.684-.78-3.254 27.525Z" fill="url(#l)" stroke="#29256A" stroke-width=".5" stroke-linecap="round" stroke-linejoin="round"/><path d="m18.709 131.052 1.877-16.298 2.23-23.331 16.25-.695-9.74 5.29c-1.877 8.57-6.338 30.865-6.668 33.961L17.6 159.881l-2.73-.39v-2.109l3.851-26.33h-.012Z" fill="#29256A" opacity=".15"/><path d="M20.065 178.239c2.89-2.669 7.412-2.499 10.215-2.06.134.317.256.622.378.914-2.584-.451-7.24-.816-10.02 1.756-.658.609-1.487 1.523-2.048 2.048-.158-.232-.305-.464-.463-.707.536-.5 1.329-1.378 1.95-1.951h-.012ZM15.469 153.153c.707.914 1.34 1.596 2.548 2.511 3.084 2.328 7.204 1.987 9.313 1.597l-.244.889c-.756.122-1.694.232-2.718.232-2.146 0-4.694-.439-6.839-2.06-.963-.731-1.56-1.219-2.219-1.963l.171-1.206h-.012Z" fill="#1C3B47" stroke="#29256A" stroke-width=".5" stroke-linecap="round" stroke-linejoin="round"/><path d="M23.867 88.998V68.592s-1.414-15.664 3.218-25.099c4.974-10.13 18.09-9.593 25.453-9.484 3.474.05 6.4 2.585 6.985 6.01.719 4.169 1.17 11.105.17 22.295-2.035 22.795-1.962 26.684-1.962 26.684s-8.485 8.447-18.943 7.155c-10.46-1.292-14.275-5.217-14.92-7.155Z" fill="url(#m)" stroke="#29256A" stroke-width=".5" stroke-linecap="round" stroke-linejoin="round"/><path d="m27.084 43.493.988-1.719c12.762 11.288 6.46 31.475 6.46 31.475l-6.875 20.515c-2.365-1.84-4.193-5.278-4.522-6.253l.719-18.907S22.44 52.94 27.072 43.505l.012-.012Z" fill="#29256A" opacity=".15"/><path d="M23.709 65.69c3.889-.633 11.836-3.656 13.53-6.423 3.5-5.717 1.22-13.568 1.11-13.909l-1.06.025c.024.085 2.108 8.033-1.195 13.42-1.56 2.548-8.801 5.23-12.434 5.815l.049 1.073v0Z" fill="url(#n)" stroke="#29256A" stroke-width=".5" stroke-linecap="round" stroke-linejoin="round"/><path d="M23.147 87.498c3.56 2.146 10.52 4.34 19.943 4.632 7.704.244 12.372-3.498 14.7-5.972.062.207.074.28.123.414 0 0-.122 3.998-.488 5.558-3.267 2.5-8.13 4.986-14.555 4.986h-.78c-8.691-.268-13.397-2.791-17.59-4.912-.28-1.22-1.463-3.255-1.621-4.486 0 0 .11-.073.256-.208l.012-.012Z" fill="#29256A" stroke="#29256A" stroke-width=".5" stroke-linecap="round" stroke-linejoin="round"/><path d="M22.892 87.705c3.56 2.134 10.398 4.974 19.833 5.266 7.704.244 12.872-3.925 15.2-6.4.61 1.878.5 3.34.22 4.804a2.49 2.49 0 0 1-1 1.56c-3.242 2.292-7.838 4.413-13.774 4.413h-.78C33.9 97.079 26.866 94.8 22.673 92.69c-.366-1.572-.39-3.316.231-4.961l-.012-.025Z" fill="url(#o)" stroke="#29256A" stroke-width=".5" stroke-linecap="round" stroke-linejoin="round"/><path d="M53.818 88.376c-.28-.158-.658-.146-1.085.098l-4.095 2.364c-.854.488-1.536 1.683-1.536 2.658V98.2c.012.488.182.83.463.988l.768.45c-.28-.158-.451-.5-.451-.987v-4.705c-.012-.963.67-2.17 1.523-2.657l4.096-2.365c.427-.244.805-.269 1.085-.098l-.768-.45v0Z" fill="#29256A" stroke="#29256A" stroke-width=".5" stroke-linecap="round" stroke-linejoin="round"/><path d="M49.393 91.29c-.853.487-1.536 1.682-1.536 2.657v4.705c.013.963.707 1.366 1.56.878l4.096-2.365c.842-.488 1.524-1.682 1.524-2.657v-4.706c-.012-.963-.707-1.365-1.548-.877l-4.096 2.365Z" fill="url(#p)" stroke="#29256A" stroke-width=".5" stroke-linecap="round" stroke-linejoin="round"/><path d="m43.139 83.646 13.835-5.595 2.34-16.737-13.823 5.595-2.352 16.737Z" fill="#fff" stroke="#29256A" stroke-width=".5" stroke-linecap="round" stroke-linejoin="round"/><path d="m55.585 58.4 3.73 2.914-13.823 5.595-3.73-2.913 13.823-5.595Z" fill="#fff" stroke="#29256A" stroke-width=".5" stroke-linecap="round" stroke-linejoin="round"/><path d="M45.492 66.91 43.14 83.645l-3.718-2.913 2.34-16.737 3.73 2.913Z" fill="url(#q)" stroke="#29256A" stroke-width=".5" stroke-linecap="round" stroke-linejoin="round"/><path d="M53.087 69.409c0-1.232 1-2.804 2.218-3.511.67-.39 1.268-.427 1.67-.195l.622.353-.17.244c.048.159.085.33.085.537 0 1.23-1 2.803-2.219 3.51a2.475 2.475 0 0 1-.902.33l-.158.23-.622-.353c-.341-.207-.548-.585-.548-1.145h.024Z" fill="#BACFD6" stroke="#29256A" stroke-width=".5" stroke-linecap="round" stroke-linejoin="round"/><path d="M53.709 69.762c0 1.231 1 1.646 2.218.939 1.232-.707 2.22-2.28 2.22-3.51 0-1.232-1-1.647-2.22-.94-1.23.707-2.218 2.28-2.218 3.511Z" fill="#F5F5F5" stroke="#29256A" stroke-width=".5" stroke-linecap="round" stroke-linejoin="round"/><path d="M52.087 76.125c0-1.231 1-2.803 2.218-3.51.67-.39 1.268-.427 1.67-.196l.622.354-.17.244c.048.158.085.329.085.536 0 1.231-1 2.804-2.219 3.51a2.473 2.473 0 0 1-.902.33l-.158.231-.622-.353c-.341-.207-.548-.585-.548-1.146h.024Z" fill="#BACFD6" stroke="#29256A" stroke-width=".5" stroke-linecap="round" stroke-linejoin="round"/><path d="M52.709 76.479c0 1.23 1 1.645 2.218.938 1.232-.707 2.22-2.28 2.22-3.51 0-1.231-1-1.646-2.22-.939-1.23.707-2.218 2.28-2.218 3.51Z" fill="#F5F5F5" stroke="#29256A" stroke-width=".5" stroke-linecap="round" stroke-linejoin="round"/><path d="M57.232 16.687v16.25l-1.06 3.583s-3.39-9.227-15.762-6.558l.817-18.516 13.299 1.938 2.694 3.303h.012Z" fill="#BACFD6" stroke="#29256A" stroke-width=".5" stroke-linecap="round" stroke-linejoin="round"/><path d="m44.871 39.3-1.633 4.193s-.037 2.426-3.255 1.244c-3.218-1.183-9.471-8.448-9.471-8.448l4.217-7.655 10.874 7.923-.72 2.755-.012-.012Z" fill="#FFD8CC" stroke="#29256A" stroke-width=".5" stroke-linecap="round" stroke-linejoin="round"/><path d="m37.375 33.888 1.61-2.158 6.618 4.827-.719 2.755-1.633 4.193s0 .354-.195.732c-6.802-1.683-5.669-10.325-5.669-10.325l-.012-.024Z" fill="#29256A" opacity=".15"/><path d="M54.063 23.672s.304 5.156 0 7.35c-.305 2.207-1.61 5.437-1.658 6.486-.049 1.048-.33 2.62-1.317 3.01-1 .39-5.059.415-8.02-1.353-2.963-1.767-5.669-4.607-6.388-5.863-.72-1.255-3.34-4.705-3.913-7.277s-.305-8.167 3.01-9.557c3.316-1.402 10.52-2.011 14.104 1.402 3.584 3.4 3.609 4.534 4.194 5.802h-.012Z" fill="#FFD8CC" stroke="#29256A" stroke-width=".5" stroke-linecap="round" stroke-linejoin="round"/><path d="M53.905 38.154s-.012.024-.024.037c0 0 .012-.025.024-.037Z" fill="#C4CBEB" stroke="#29256A" stroke-width=".5" stroke-linecap="round" stroke-linejoin="round"/><path d="M45.603 24.111s6.022.476 7.363.195c2.39-.487 3.498-3.242 3.145-5.96-.366-2.719-2.95-5.864-4.413-6.815-1.475-.95-5.827-3.01-8.935-2.913-3.108.097-7.996 1.633-10.044 3.925-2.182 2.438-2.658 4.352-2.975 7.01-.329 2.656 1.085 8.373 1.768 9.227.682.853 4.876 4.01 4.876 4.01l2.657 1.256s-.39-4.425-.232-6.388c.159-1.962 5.071-.183 6.815-3.571l-.025.024Z" fill="#29256A" stroke="#29256A" stroke-width=".5" stroke-linecap="round" stroke-linejoin="round"/><path d="M36.96 33.753s-.451-4.157-2.56-5.693c-1.304-.95-1.719.025-1.877.354-.159.329-.451 2.523 1.255 3.73 1.707 1.207 3.182 1.621 3.182 1.621v-.012Z" fill="#FFD8CC" stroke="#29256A" stroke-width=".5" stroke-linecap="round" stroke-linejoin="round"/><path d="m28.842 35.387.402 4.851s5.315 6.059 13.97 5.925c15.603-.244 14.457-9.106 14.835-12.556l-1.34 1.853-2.366 2.73-2.913 2.012-4.34 1.121-6.107.183-12.153-6.12h.012Z" fill="#CEE0E8" stroke="#29256A" stroke-width=".5" stroke-linecap="round" stroke-linejoin="round"/><path d="M28.977 40.555c.097-.122.231-.926.231-.926.049.06 5.547 6.107 13.75 6.107h.269c12.336-.183 13.725-5.851 14.713-10.288.085.304.182.902.28 1.402-.536 4.12-2.718 9.544-14.981 9.727h-.293c-8.265 0-13.396-5.4-13.97-6.022v0Z" fill="url(#r)" stroke="#29256A" stroke-width=".5" stroke-linecap="round" stroke-linejoin="round"/><path d="m29.634 28.402-.792 6.985s3.047 5.583 12.384 6.472c9.338.89 15.567-3.62 16.835-8.252V18.943c0-1.744-.549-3.462-1.646-4.84-2.194-2.742-6.753-7.692-15.944-7.045C22.94 8.277 29.646 28.39 29.646 28.39l-.012.012Zm6.107-3.17c.768-2.303 7.826-8.228 14.908-9.386 6.29-1.024 6.01 4.828 6.01 4.828l.049 12.104s0 8.301-12.263 8.301c-8.448 0-9.13-5.034-9.13-5.034s-.342-8.52.426-10.812v0Z" fill="#CEE0E8" stroke="#29256A" stroke-width=".5" stroke-linecap="round" stroke-linejoin="round"/><path d="M50.102 16.797c-4.06.658-8.082 3.109-10.557 5.278-1.694 1.488-1.682 4.12-.06 5.68 1.34 1.305 3.254 2.341 5.9 2.195 5.058-.28 9.812-1.536 9.995-5.888v-3.06s.232-5.107-5.266-4.217l-.012.012Z" fill="#CADDFF" opacity=".3"/><path d="M40.472 7.07a21.857 21.857 0 0 1 3.596.049c-25.063.902-12.373 24.038-12.373 24.038l.39 8.021c-2.328-1.645-3.23-3.79-3.23-3.79l-.378-7.412S22.93 8.289 40.472 7.07Z" fill="#29256A" opacity=".15"/><path d="M34.302 75.052c8.984 0 14.92-5.29 15.005-5.375.573-.524.61-1.402.086-1.975a1.392 1.392 0 0 0-1.975-.085c-.524.475-12.422 10.922-28.061-.976a1.401 1.401 0 0 0-1.694 2.231c6.131 4.657 11.811 6.18 16.626 6.18h.013Z" fill="#fff" stroke="#29256A" stroke-width=".5" stroke-linecap="round" stroke-linejoin="round"/><path d="M34.302 82.464c8.984 0 14.92-5.29 15.005-5.376.573-.524.61-1.402.086-1.975a1.392 1.392 0 0 0-1.975-.085c-.524.475-12.422 10.922-28.061-.975a1.413 1.413 0 0 0-1.963.268 1.401 1.401 0 0 0 .269 1.963c6.131 4.656 11.811 6.18 16.626 6.18h.013Z" fill="#fff" stroke="#29256A" stroke-width=".5" stroke-linecap="round" stroke-linejoin="round"/><path d="m13.384 39.154.427-1.354s4.547-3.498 5.96-6.655l1.61-1.829s2.962-1.523 1.828-3.852c-.512-1.06-2.218-.646-3.693 1.804l-1.926 2.024-.707-.061-.293-4.303.841-6.582s.39-1.768-.414-2.085c-.805-.317-1.524 0-1.804 1.731-.28 1.719-1.329 6.278-1.329 6.278l.524-6.705s.22-2.145-.84-2.145c-1.061 0-1.415.488-1.573 1.609-.159 1.121-.61 4.12-.61 4.12l-1.255 5.522-2.597 2.609-.963 6.631-.756 1.89 1.012 5.9 4.328-1.512 2.218-3.048.012.013Z" fill="#29256A" stroke="#29256A" stroke-width=".5" stroke-linecap="round" stroke-linejoin="round"/><path d="m10.131 26.671 3.133 2.986a1.9 1.9 0 0 1 .427 1.56l-.561 3.11s-.232 1.096-1.073 1.267c-.841.17-1.17-.56-1.024-1.22.146-.657.549-2.9.549-2.9L9.814 29.28 8.9 28.012s-.159-1.475 1.243-1.341h-.012Z" fill="#3B3B89" stroke="#29256A" stroke-width=".5" stroke-linecap="round" stroke-linejoin="round"/><path d="M9.034 27.963s-.5-.353-1.158.061c-.659.402-.44 1.22-.244 1.439.195.219 1.365 2.12 1.365 2.12l.402 2.073s.086 1.207 1.17 1.194c1.085 0 .537-2.072.5-2.523-.049-.45-.475-2.035-.475-2.035s-1.048-1.95-1.548-2.329h-.012Z" fill="#3B3B89" stroke="#29256A" stroke-width=".5" stroke-linecap="round" stroke-linejoin="round"/><path d="M27.942 42.067s-5.827 3.888-10.057 9.788l-5.741 3.877s.439-14.458 1.255-16.579c0 0-4.144 1.5-7.57-1.353 0 0-6.655 14.884-5.729 27.184.914 12.287 10.41 6.826 10.41 6.826l18.541-10.642c1.804-1.036 3.291-2.572 4.193-4.437 2.194-4.522 4.633-12.714-5.29-14.664h-.012Z" fill="url(#s)" stroke="#29256A" stroke-width=".5" stroke-linecap="round" stroke-linejoin="round"/><path d="M5.828 37.813c.073.06.134.097.207.158C4.17 42.92.818 53.245 1.488 62.192c.914 12.288 10.41 6.826 10.41 6.826L30.44 58.377a10.463 10.463 0 0 0 3.535-3.316 24.393 24.393 0 0 1-.731 1.67c-.915 1.877-2.39 3.401-4.194 4.437L10.51 71.81S1 77.27.086 64.984C-.828 52.696 5.816 37.8 5.816 37.8l.012.013Z" fill="#29256A" opacity=".15"/><path d="M24.197 63.947c-.646-7.314-4.632-10.434-6.972-11.653l.658-.439c.06-.085.122-.17.195-.256 2.523 1.45 6.326 4.79 7.119 11.776l-.988.56-.012.012Z" fill="url(#t)" stroke="#29256A" stroke-width=".5" stroke-linecap="round" stroke-linejoin="round"/><path d="m115.262 103.691-4.366 1.851 7.883 18.597 4.366-1.851-7.883-18.597Z" fill="#BACFD6" stroke="#29256A" stroke-width=".5" stroke-linecap="round" stroke-linejoin="round"/><path d="m110.902 105.539 7.107-7.838-2.743 5.985-4.364 1.853Z" fill="#EBF3F6" stroke="#29256A" stroke-width=".5" stroke-linecap="round" stroke-linejoin="round"/><path d="M215.077 157.346s1.756-.72 2.438-1.158c1.914-1.219 4.023-2.195 6.802-.427 2.78 1.767 12.848 11.69 14.47 15.993 1.609 4.303 1.048 12.226-5.266 11.056-4.95-.914-9.789-4.181-13.348-8.496-2.024-2.45-4.645-4.328-7.692-5.205l-.354-.098-5.57-5.119 2.596-4.243 5.912-2.303h.012Z" fill="url(#u)" stroke="#29256A" stroke-width=".5" stroke-linecap="round" stroke-linejoin="round"/><path d="M238.787 171.754c-1.609-4.303-11.69-14.226-14.469-15.993-.244-.146-.476-.28-.695-.39a2.598 2.598 0 0 0-2.414.049c-1.463.816-2.669 2.133-2.389 4.229.67 4.864 6.814 6.205 8.118 10.021.939 2.767 3.024 8.691 7.01 12.238.902.792 2.255.975 3.242.293 2.779-1.914 2.816-7.192 1.597-10.435v-.012Z" fill="#29256A" stroke="#29256A" stroke-width=".5" stroke-linecap="round" stroke-linejoin="round"/><path d="M159.626 120.215s7.874 4.718 13.384 15.091c0 0 13.506 11.276 20.747 25.855 0 0 4.303-5.132 11.69-4.864 7.387.268 8.289 1.597 8.289 1.597s-2.462 3.693-.865 10.837c0 0-12.909 8.813-18.675 8.508-5.766-.305-15.152-6.936-18.504-10.581-3.352-3.644-25.562-20.515-25.562-20.515s-6.424-9.13-3.133-16.481c3.291-7.35 8.508-10.654 12.629-9.447Z" fill="url(#v)" stroke="#29256A" stroke-width=".5" stroke-linecap="round" stroke-linejoin="round"/><path d="M205.422 156.297c-7.387-.268-11.69 4.864-11.69 4.864-7.229-14.591-20.747-25.855-20.747-25.855-5.498-10.373-13.385-15.091-13.385-15.091-4.108-1.194-9.337 2.097-12.629 9.447-.438 1-.694 2.024-.828 3.048 3.401-6.363 9.215-7.777 13.104-6.644 0 0 6.826 3.072 12.324 13.446 0 0 13.506 11.275 20.747 25.854 0 0 4.303-5.132 11.69-4.863 7.387.268 9.118.926 9.118.926l.585-3.547s-.914-1.329-8.289-1.597v.012Z" fill="#29256A" opacity=".15"/><path d="m156.298 136.099 9.8 22.441-17.053-13.494 7.253-8.947Z" fill="#29256A" opacity=".15"/><path d="M204.473 156.31c-.317 0-.622.024-.927.048-.792 2.975-1.804 9.472 1.475 16.895.256-.146.512-.28.768-.426-3.254-7.412-2.072-13.836-1.316-16.517Z" fill="#1C3B47" stroke="#29256A" stroke-width=".5" stroke-linecap="round" stroke-linejoin="round"/><path d="M168.84 59.242s-2.913-2.828-3.949-4.827c-1.024-2-.866-4.535-2.024-5.925 0 0 0-2.194 2.438-.036 0 0 1.28 2.596 1.975 2.901 0 0 1.134-3.12.999-4.132-.134-1.012.037-5.29.72-5.949.682-.658 1.267-.195 1.206 1.268-.06 1.462.269 5.193.269 5.193l.755-4.852s-.146-2.791.305-3.206c.451-.402 1.341-.146 1.378.853.036 1-.098 4.194-.098 4.194l-.122 2.352s1.024-5.436 1.134-6.18c.11-.743 1.524-1.316 1.365.89-.158 2.194-.743 6.229-.743 6.229s.975-4.718 1.523-5.169c.549-.438 1.231-.39.817 1.683-.414 2.072-2.316 14.432-2.316 14.432l-5.632.305v-.024Z" fill="#29256A" stroke="#29256A" stroke-width=".5" stroke-linecap="round" stroke-linejoin="round"/><path d="M145.582 71.017s5.436.56 10.592 3.133l9.789.439 1.511-16.761s5.986-2.694 7.436 1.011c0 0 1.268 15.7-.463 20.613-1.743 4.913-1.719 6.193-4.583 7.619-2.865 1.426-22.064-1.524-25.185-1.853 0 0-13.128-12.982.89-14.201h.013Z" fill="url(#w)" stroke="#29256A" stroke-width=".5" stroke-linecap="round" stroke-linejoin="round"/><path d="M174.447 79.452c1.743-4.912.463-20.613.463-20.613-.219-1.072-.573-.743-1.012-1.365.122 1.512 1.17 14.701-.475 19.358-1.743 4.912-1.719 6.192-4.584 7.618-2.693 1.341-11.165-2.328-15.785-2.901.061 1.512-8.363 3.67-8.363 3.67 3.109.328 22.32 3.266 25.185 1.852 2.864-1.426 2.84-2.694 4.583-7.619h-.012Z" fill="#29256A" opacity=".15"/><path d="M120.947 82.28s-12.519 5.376-6.522 20.491c5.998 15.116 13.104 29.11 17.968 35.436 4.864 6.339 30.536-4.851 27.244-17.992 0 0-1.95-5.254-5.363-15.384-3.694-10.983 5.046-29.316-10.642-34.314l-7.484 1-15.189 10.763h-.012Z" fill="url(#x)" stroke="#29256A" stroke-width=".5" stroke-linecap="round" stroke-linejoin="round"/><path d="M123.665 96.385c5.522-9.301-6.473-9.667-5.656-12.215-3.279 3.596-7.168 9.57-3.596 18.602a269.742 269.742 0 0 0 6.985 16.091c-1.914-6.766-3.34-13.043 2.267-22.478v0ZM162.063 121.983s-4.401-7.022-7.802-17.151c-2.182-6.51-.036-15.993-1.17-23.368l-.037.073c-.719 1.353-1.475 2.95-1.853 4.461-1.072 7.619-1.621 14.677.244 20.235 2.67 7.948 6.351 16.518 7.814 19.833.683-1.865 3.303-2.072 2.804-4.096v.013Z" fill="#BACFD6" stroke="#29256A" stroke-width=".5" stroke-linecap="round" stroke-linejoin="round"/><path d="M151.091 171.547s1.865.622 4.693.536c2.828-.085 4.693 1.207 4.937 6.339.158 3.34 3.169 14.189 2.572 20.15-.39 3.888-3.474 4.717-6.046 3.498-1.365-.646-2.255-.877-3.182-1.731-3.693-3.413-6.997-8.021-7.058-19.187-.048-7.582-3.376-7.326-3.376-7.326l7.472-2.279h-.012Z" fill="url(#y)" stroke="#29256A" stroke-width=".5" stroke-linecap="round" stroke-linejoin="round"/><path d="M155.675 194.207s-3.986.89-6.546-.621c.195.439.39.853.597 1.255 1.085.39 2.243.524 3.267.524 1.548 0 2.779-.28 2.889-.304l-.207-.854v0Z" fill="#1C3B47" stroke="#29256A" stroke-width=".5" stroke-linecap="round" stroke-linejoin="round"/><path d="M160.709 178.422c-.183-3.889-1.292-5.571-3.059-6.132-.707.293-1.549 1.085-2.097 3.157-1.073 4.059-1.097 16.213-.707 19.224.268 2.047 1.243 4.973 2.389 7.387 2.572 1.206 5.656.402 6.046-3.487.598-5.961-2.413-16.809-2.572-20.149Z" fill="#29256A" stroke="#29256A" stroke-width=".5" stroke-linecap="round" stroke-linejoin="round"/><path d="M130.442 134.807s-8.191 5.558-11.482 18.833c-3.292 13.275-4.962 18.65-1.317 21.162 3.645 2.511 12.434 4.668 18.407 4.717l11.324 1.097s.085-5.168 3.182-8.862l-13.324-8.252s3.706-5.157 7.18-6.644c3.474-1.487 13.043-5.315 13.25-13.799.207-8.484-7.143-15.956-7.143-15.956s-15.566-5.205-20.089 7.704h.012Z" fill="url(#z)" stroke="#29256A" stroke-width=".5" stroke-linecap="round" stroke-linejoin="round"/><path d="M134.988 179.482c.281.012.549.024.817.024.024-3.583 1.146-8.825 6.302-13.177l-.78-.451c-5.108 4.498-6.266 9.886-6.339 13.604Z" fill="#1C3B47" stroke="#29256A" stroke-width=".5" stroke-linecap="round" stroke-linejoin="round"/><path d="M140.803 154.798c-12.763 1.706-9.411 8.74-9.057 9.715 0 0 2.011-.829 5.485-1.012 0 0 3.706-5.156 7.18-6.643 3.474-1.487 13.043-5.315 13.251-13.799.048-2.17-.391-4.279-1.085-6.217-.025.122-3.06 16.249-15.774 17.956Z" fill="#29256A" opacity=".15"/><path d="M130.138 134.99s21.844-1.853 29.621-16.993l-1.402-3.035s-9.946 14.298-30.072 17.004l1.865 3.024h-.012Z" fill="url(#A)" stroke="#29256A" stroke-width=".5" stroke-linecap="round" stroke-linejoin="round"/><path d="M126.129 120.862c-3.231 0-6.558-1.109-9.325-4.254-1.402-1.585-2.658-3.011-3.084-5.754a1.763 1.763 0 1 1 3.486-.536c.268 1.731.987 2.535 2.17 3.876 6.192 6.997 15.517.134 15.92-.159a1.768 1.768 0 0 1 2.474.354c.585.78.427 1.877-.341 2.462-2.463 1.865-6.79 4.011-11.288 4.011h-.012Z" fill="#F5F5F5" stroke="#29256A" stroke-width=".5" stroke-linecap="round" stroke-linejoin="round"/><path d="M127.75 126.884c-3.23 0-6.558-1.11-9.325-4.255-1.402-1.584-2.085-3.815-2.036-6.619.025-.975.829-1.767 1.804-1.731a1.778 1.778 0 0 1 1.731 1.804c-.024 1.305.146 3.097 1.146 4.218 6.119 6.924 15.457.049 15.847-.244a1.768 1.768 0 0 1 2.474.354c.585.78.427 1.877-.341 2.462-2.462 1.865-6.79 4.011-11.288 4.011h-.012Z" fill="#F5F5F5" stroke="#29256A" stroke-width=".5" stroke-linecap="round" stroke-linejoin="round"/><path d="M130.918 105.868c-5.168 1.036-9.41.415-12.616-1.877a16.532 16.532 0 0 1-.866-.67c-5.192-4.462-5.339-12.422-.914-17.651 2.219-2.621 4.413-3.377 4.413-3.377l.5-.305-.5-1.17c-4.547 1.402-7.119 5.193-8.521 8.448-1.536 3.535-1.487 7.594.354 10.971.963 1.791 2.401 3.681 4.498 5.18 2.523 1.792 5.558 2.694 9.081 2.694 1.548 0 3.194-.171 4.913-.524l-.354-1.731.012.012Z" fill="url(#B)" stroke="#29256A" stroke-width=".5" stroke-linecap="round" stroke-linejoin="round"/><path d="M122.63 69.494c0-10.02-2.047-12.214-3.62-13.458a22.741 22.741 0 0 0-.829 2.719c-1.329 5.473-.914 11.226.792 16.59l.878 2.755c1.731-.341 2.779-3.84 2.779-8.594v-.012Z" fill="url(#C)"/><path d="M144.194 52.745c-2.072-2.596-4.169-5.132-13.141-5.132-6.875 0-10.337 3.913-12.043 8.423 1.036 1.78 3.584 6.888 2.682 12.556-.512 3.194-.11 9.167-1.841 9.496l1.097 2.73s1.036 1.902 8.399 1.914c8.179 0 14.908-3.974 16.103-8.362l.633-15.859c0-1.658-.865-4.462-1.901-5.754l.012-.012Z" fill="url(#D)" stroke="#29256A" stroke-width=".5" stroke-linecap="round" stroke-linejoin="round"/><path d="m119.852 78.088.475 1.17-.475-1.17Z" fill="#CEE0E8" stroke="#29256A" stroke-width=".5" stroke-linecap="round" stroke-linejoin="round"/><path d="M129.348 82.732c-7.363 0-8.399-1.914-8.399-1.914v1.463s1.036 1.902 8.399 1.914c8.179 0 14.908-3.974 16.103-8.362V74.37c-1.207 4.388-7.924 8.374-16.103 8.362v0Z" fill="#1C3B47" stroke="#29256A" stroke-width=".5" stroke-linecap="round" stroke-linejoin="round"/><path d="M134.454 47.565a19.533 19.533 0 0 0-3.401.048c23.709.854 11.702 22.746 11.702 22.746l-.512 8.387c2.194-1.56 3.206-4.376 3.206-4.376l.366-7.01s5.229-18.638-11.361-19.783v-.012Z" fill="#29256A" opacity=".15"/><path d="M85.182 96.238s.975-2.56 1.853-3.486c.878-.927 2.304-.744 2.584.073 0 0 1.573-.866 2.17.426 0 0 1.914-.414 2.743 1.122 0 0 1.523.28 1.45 1.828-.073 1.549-.329 3.28-.329 3.28l1.207 4.729-4.62 2.255-3.377-5.144-3.279-2.803-.414-2.292.012.012Z" fill="#29256A" stroke="#29256A" stroke-width=".5" stroke-linecap="round" stroke-linejoin="round"/><path d="M95.165 110.317s-2.523-.658-4.144-1.914c-1.634-1.255-2.767-3.169-2.767-3.169s-5.559-7.948-5.742-9.655c-.183-1.694 1.719-1.316 3.194.61 1.463 1.938 1.755 2.657 1.755 2.657s5.023.707 5.705 3.645l.366 1.048 3.352.659 2.121 4.095-3.828 2-.012.024Z" fill="#29256A" stroke="#29256A" stroke-width=".5" stroke-linecap="round" stroke-linejoin="round"/><path d="M114.218 87.01s-2.145 10.923-.768 13.933l-1.012 5.23-15.578-1.975s-3.17 1.731-1.707 6.107c0 0 13.47 6.363 18.968 6.339 5.497-.037 7.289.244 9.032-3.535 1.731-3.779 5.096-10.069 7.07-17.468 2.646-9.923-13.043-18.419-16.017-8.618l.012-.013Z" fill="url(#E)" stroke="#29256A" stroke-width=".5" stroke-linecap="round" stroke-linejoin="round"/><path d="m113.462 100.956-1.012 5.229-15.578-1.975s-3.17 1.731-1.707 6.107c0 0 .402.195 1.097.5-.768-3.705 1.95-5.193 1.95-5.193l15.579 1.975 1.012-5.229c-1.378-3.011-.573-15.36-.573-15.36s-2.146 10.923-.768 13.933v.013Z" fill="#29256A" opacity=".15"/><path d="m151.874 139.073-10.825-.158-12.69-37.106 10.825.159 12.69 37.105Z" fill="url(#F)" stroke="#29256A" stroke-width=".5" stroke-linecap="round" stroke-linejoin="round"/><path d="m136.623 82.464-7.277-.085 14.213-7.997 7.277.073-14.213 8.009Z" fill="url(#G)" stroke="#29256A" stroke-width=".5" stroke-linecap="round" stroke-linejoin="round"/><path d="m139.184 101.968-10.825-.159.988-19.43 7.277.085 2.56 19.504Z" fill="url(#H)" stroke="#29256A" stroke-width=".5" stroke-linecap="round" stroke-linejoin="round"/><path d="m150.838 74.455-14.213 8.009 2.56 19.504 24.014-13.86-12.361-13.653Z" fill="url(#I)" stroke="#29256A" stroke-width=".5" stroke-linecap="round" stroke-linejoin="round"/><path d="m163.198 88.108-24.014 13.86 12.689 37.105 24.026-13.872-12.701-37.093Z" fill="url(#J)" stroke="#29256A" stroke-width=".5" stroke-linecap="round" stroke-linejoin="round"/><path d="m163.796 131.979-12.129-37.325-8.972-15.603 1.536-.878 9.082 15.847 12.165 37.411-1.682.548Z" stroke="#29256A" stroke-width=".5" stroke-linecap="round" stroke-linejoin="round"/><path d="m163.796 131.979-12.129-37.325-8.972-15.603 1.536-.878 9.082 15.847 12.165 37.411-1.682.548Z" fill="#29256A" fill-opacity=".2"/><path d="M233.034 170.121c-4.072 5.644-8.289 6.655-10.423 6.765.305.281.598.561.915.817 2.474-.329 6.411-1.768 10.227-7.07l-.719-.512Z" fill="#1C3B47" stroke="#29256A" stroke-width=".5" stroke-linecap="round" stroke-linejoin="round"/></g><defs><linearGradient id="b" x1="51.382" y1="45.455" x2="97.752" y2="45.455" gradientUnits="userSpaceOnUse"><stop stop-color="#DDE7FF"/><stop offset="1" stop-color="#9FD0E3"/></linearGradient><linearGradient id="c" x1="66.887" y1="47.284" x2="70.8" y2="47.284" gradientUnits="userSpaceOnUse"><stop stop-color="#A05AC1"/><stop offset="1" stop-color="#142387"/></linearGradient><linearGradient id="d" x1="18.188" y1="72.663" x2="46.151" y2="72.663" gradientUnits="userSpaceOnUse"><stop stop-color="#F3D4FF"/><stop offset="1" stop-color="#828CD1"/></linearGradient><linearGradient id="e" x1="6.059" y1="77.234" x2="18.188" y2="77.234" gradientUnits="userSpaceOnUse"><stop stop-color="#F3D4FF"/><stop offset="1" stop-color="#828CD1"/></linearGradient><linearGradient id="f" x1="18.188" y1="42.908" x2=".915" y2="42.908" gradientUnits="userSpaceOnUse"><stop stop-color="#F3D4FF"/><stop offset="1" stop-color="#828CD1"/></linearGradient><linearGradient id="g" x1="10.105" y1="29.097" x2="41.702" y2="29.097" gradientUnits="userSpaceOnUse"><stop stop-color="#F3D4FF"/><stop offset="1" stop-color="#828CD1"/></linearGradient><linearGradient id="h" x1="6.059" y1="45.138" x2="22.235" y2="45.138" gradientUnits="userSpaceOnUse"><stop stop-color="#F3D4FF"/><stop offset="1" stop-color="#828CD1"/></linearGradient><linearGradient id="i" x1="59.901" y1="161.307" x2="84.378" y2="161.307" gradientUnits="userSpaceOnUse"><stop stop-color="#DDE7FF"/><stop offset="1" stop-color="#9FD0E3"/></linearGradient><linearGradient id="j" x1="39.373" y1="119.216" x2="81.769" y2="119.216" gradientUnits="userSpaceOnUse"><stop stop-color="#DDE7FF"/><stop offset="1" stop-color="#9FD0E3"/></linearGradient><linearGradient id="k" x1="12.105" y1="171.51" x2="31.767" y2="171.51" gradientUnits="userSpaceOnUse"><stop stop-color="#DDE7FF"/><stop offset="1" stop-color="#9FD0E3"/></linearGradient><linearGradient id="l" x1="14.846" y1="124.933" x2="50.282" y2="124.933" gradientUnits="userSpaceOnUse"><stop stop-color="#DDE7FF"/><stop offset="1" stop-color="#9FD0E3"/></linearGradient><linearGradient id="m" x1="23.66" y1="65.13" x2="60.266" y2="65.13" gradientUnits="userSpaceOnUse"><stop stop-color="#DDE7FF"/><stop offset="1" stop-color="#9FD0E3"/></linearGradient><linearGradient id="n" x1="23.66" y1="55.525" x2="39.178" y2="55.525" gradientUnits="userSpaceOnUse"><stop stop-color="#A05AC1"/><stop offset="1" stop-color="#142387"/></linearGradient><linearGradient id="o" x1="22.404" y1="91.96" x2="58.364" y2="91.96" gradientUnits="userSpaceOnUse"><stop stop-color="#A05AC1"/><stop offset="1" stop-color="#142387"/></linearGradient><linearGradient id="p" x1="47.87" y1="94.227" x2="55.049" y2="94.227" gradientUnits="userSpaceOnUse"><stop stop-color="#A05AC1"/><stop offset="1" stop-color="#142387"/></linearGradient><linearGradient id="q" x1="39.422" y1="73.821" x2="45.492" y2="73.821" gradientUnits="userSpaceOnUse"><stop stop-color="#DDE7FF"/><stop offset="1" stop-color="#9FD0E3"/></linearGradient><linearGradient id="r" x1="28.977" y1="41.019" x2="58.208" y2="41.019" gradientUnits="userSpaceOnUse"><stop stop-color="#A05AC1"/><stop offset="1" stop-color="#142387"/></linearGradient><linearGradient id="s" x1=".003" y1="55.415" x2="35.195" y2="55.415" gradientUnits="userSpaceOnUse"><stop stop-color="#DDE7FF"/><stop offset="1" stop-color="#9FD0E3"/></linearGradient><linearGradient id="t" x1="17.225" y1="57.779" x2="25.185" y2="57.779" gradientUnits="userSpaceOnUse"><stop stop-color="#A05AC1"/><stop offset="1" stop-color="#142387"/></linearGradient><linearGradient id="u" x1="206.569" y1="168.865" x2="239.555" y2="168.865" gradientUnits="userSpaceOnUse"><stop stop-color="#DDE7FF"/><stop offset="1" stop-color="#9FD0E3"/></linearGradient><linearGradient id="v" x1="146.058" y1="148.618" x2="213.724" y2="148.618" gradientUnits="userSpaceOnUse"><stop stop-color="#DDE7FF"/><stop offset="1" stop-color="#9FD0E3"/></linearGradient><linearGradient id="w" x1="139.109" y1="72.163" x2="175.361" y2="72.163" gradientUnits="userSpaceOnUse"><stop stop-color="#DDE7FF"/><stop offset="1" stop-color="#9FD0E3"/></linearGradient><linearGradient id="x" x1="112.792" y1="105.282" x2="159.906" y2="105.282" gradientUnits="userSpaceOnUse"><stop stop-color="#DDE7FF"/><stop offset="1" stop-color="#9FD0E3"/></linearGradient><linearGradient id="y" x1="143.619" y1="187.065" x2="163.366" y2="187.065" gradientUnits="userSpaceOnUse"><stop stop-color="#DDE7FF"/><stop offset="1" stop-color="#9FD0E3"/></linearGradient><linearGradient id="z" x1="115.583" y1="153.335" x2="157.674" y2="153.335" gradientUnits="userSpaceOnUse"><stop stop-color="#DDE7FF"/><stop offset="1" stop-color="#9FD0E3"/></linearGradient><linearGradient id="A" x1="128.273" y1="124.982" x2="159.747" y2="124.982" gradientUnits="userSpaceOnUse"><stop stop-color="#A05AC1"/><stop offset="1" stop-color="#142387"/></linearGradient><linearGradient id="B" x1="111.329" y1="94.471" x2="131.272" y2="94.471" gradientUnits="userSpaceOnUse"><stop stop-color="#A05AC1"/><stop offset="1" stop-color="#142387"/></linearGradient><linearGradient id="C" x1="116.807" y1="55.01" x2="124.231" y2="76.787" gradientUnits="userSpaceOnUse"><stop stop-color="#FF3AA3"/><stop offset=".21" stop-color="#A165FE"/><stop offset=".46" stop-color="#3394FF"/><stop offset=".77" stop-color="#4EB8FF"/><stop offset="1" stop-color="#0AE2FF"/></linearGradient><linearGradient id="D" x1="119.01" y1="65.167" x2="146.083" y2="65.167" gradientUnits="userSpaceOnUse"><stop stop-color="#DDE7FF"/><stop offset="1" stop-color="#9FD0E3"/></linearGradient><linearGradient id="E" x1="94.775" y1="99.663" x2="130.528" y2="99.663" gradientUnits="userSpaceOnUse"><stop stop-color="#DDE7FF"/><stop offset="1" stop-color="#9FD0E3"/></linearGradient><linearGradient id="F" x1="128.686" y1="100.049" x2="140.565" y2="122.817" gradientUnits="userSpaceOnUse"><stop stop-color="#F3D4FF"/><stop offset="1" stop-color="#828CD1"/></linearGradient><linearGradient id="G" x1="136.11" y1="76.787" x2="150.463" y2="88.171" gradientUnits="userSpaceOnUse"><stop stop-color="#F3D4FF"/><stop offset="1" stop-color="#828CD1"/></linearGradient><linearGradient id="H" x1="128.686" y1="80.747" x2="139.575" y2="102.029" gradientUnits="userSpaceOnUse"><stop stop-color="#F3D4FF"/><stop offset="1" stop-color="#828CD1"/></linearGradient><linearGradient id="I" x1="144.525" y1="81.737" x2="160.363" y2="98.565" gradientUnits="userSpaceOnUse"><stop stop-color="#F3D4FF"/><stop offset="1" stop-color="#828CD1"/></linearGradient><linearGradient id="J" x1="141.554" y1="104.504" x2="171.746" y2="118.362" gradientUnits="userSpaceOnUse"><stop stop-color="#F3D4FF"/><stop offset="1" stop-color="#828CD1"/></linearGradient><clipPath id="a"><path fill="#fff" d="M0 0h240v210H0z"/></clipPath></defs></svg>