<svg width="614" height="382" fill="none" xmlns="http://www.w3.org/2000/svg"><path opacity=".3" d="M174.257 375.821c-45.734 0-93.044-3.726-93.044-9.956 0-6.23 47.31-9.956 93.044-9.956 45.734 0 93.044 3.726 93.044 9.956 0 6.23-47.31 9.956-93.044 9.956Z" fill="url(#a)"/><path d="M313.621 103.55H27l72.413 230.398h145.539l68.669-230.398Z" fill="url(#b)"/><path d="M129.647 336.49 89.141 195.004l59.172-9.929 7.356 148.878s-17.541 4.276-26.015 2.527l-.007.01Z" fill="url(#c)" style="mix-blend-mode:multiply" opacity=".7"/><path d="m188.636 331.599 10.366-146.805 58.997 10.924-44.045 142.403s-17.945-1.985-25.308-6.529l-.01.007Z" fill="url(#d)" style="mix-blend-mode:multiply" opacity=".7"/><path fill-rule="evenodd" clip-rule="evenodd" d="M261.081 364.17c0 4.148-38.536 7.511-86.072 7.511s-86.072-3.363-86.072-7.511c0-.093.02-.186.058-.278h-.227l-.32-5.792h35.851c14.222-.906 31.75-1.441 50.71-1.441s36.488.535 50.71 1.441h35.842l-.63 5.622c.1.148.15.298.15.448Z" fill="url(#e)"/><path d="m88.995 363.892.461.192a.5.5 0 0 0-.461-.692v.5Zm-.227 0-.5.027a.5.5 0 0 0 .5.473v-.5Zm-.32-5.792v-.5a.503.503 0 0 0-.5.528l.5-.028Zm35.851 0v.5l.032-.001-.032-.499Zm101.42 0-.032.499.032.001v-.5Zm35.842 0 .497.056a.498.498 0 0 0-.497-.556v.5Zm-.63 5.622-.497-.055a.503.503 0 0 0 .082.335l.415-.28Zm-85.922 8.459c23.778 0 45.311-.841 60.906-2.202 7.794-.68 14.119-1.491 18.503-2.396 2.188-.451 3.918-.931 5.111-1.439.594-.254 1.084-.526 1.434-.827.345-.297.618-.679.618-1.147h-1c0 .051-.028.181-.27.389-.238.204-.622.429-1.175.665-1.1.469-2.752.933-4.92 1.38-4.327.893-10.607 1.7-18.388 2.379-15.558 1.358-37.061 2.198-60.819 2.198v1Zm-86.572-8.011c0 .468.273.85.618 1.147.35.301.84.573 1.434.827 1.193.508 2.923.988 5.11 1.439 4.385.905 10.71 1.716 18.504 2.396 15.595 1.361 37.128 2.202 60.906 2.202v-1c-23.758 0-45.261-.84-60.819-2.198-7.781-.679-14.061-1.486-18.388-2.379-2.168-.447-3.82-.911-4.92-1.38-.553-.236-.937-.461-1.175-.665-.242-.208-.27-.338-.27-.389h-1Zm.097-.471a1.215 1.215 0 0 0-.097.471h1c0-.022.004-.049.02-.086l-.923-.385Zm.234.693h.227v-1h-.227v1Zm-.82-6.264.32 5.791.999-.055-.32-5.792-.999.056Zm36.351-.528H88.447v1H124.3v-1Zm50.71-1.441c-18.968 0-36.507.535-50.742 1.442l.064.998c14.21-.906 31.727-1.44 50.678-1.44v-1Zm50.742 1.442c-14.235-.907-31.774-1.442-50.742-1.442v1c18.951 0 36.468.534 50.678 1.44l.064-.998Zm35.81-.001h-35.842v1h35.842v-1Zm-.133 6.178.63-5.622-.994-.112-.63 5.623.994.111Zm.153.392a1.3 1.3 0 0 0-.235-.727l-.83.559c.056.082.065.136.065.168h1Z" fill="#3442C0"/><path fill-rule="evenodd" clip-rule="evenodd" d="m88.447 358.1 10.968-24.152h145.539l15.953 23.201c.487.322.738.651.738.985 0 4.149-38.755 7.511-86.561 7.511-47.806 0-86.561-3.362-86.561-7.511v-.034h-.076Z" fill="url(#f)"/><path d="M99.415 333.948v-.5a.499.499 0 0 0-.455.293l.455.207ZM88.447 358.1l-.455-.207a.501.501 0 0 0 .455.707v-.5Zm156.507-24.152.412-.284a.503.503 0 0 0-.412-.216v.5Zm15.953 23.201-.412.283a.496.496 0 0 0 .136.134l.276-.417Zm-172.383.951.5.026a.5.5 0 0 0-.5-.526v.5Zm10.436-24.359-10.968 24.152.91.414 10.968-24.153-.91-.413Zm145.994-.293H99.414v1h145.54v-1Zm16.365 23.417-15.953-23.201-.824.567 15.953 23.201.824-.567Zm.826 1.269c0-.6-.445-1.059-.962-1.402l-.552.834c.456.302.514.5.514.568h1Zm-87.061 8.011c23.913 0 45.568-.841 61.251-2.201 7.839-.681 14.2-1.492 18.608-2.396 2.2-.452 3.94-.931 5.139-1.44.597-.253 1.09-.526 1.441-.826.347-.296.622-.679.622-1.148h-1c0 .05-.028.18-.272.388-.239.205-.626.43-1.182.666-1.107.469-2.769.933-4.949 1.38-4.352.893-10.668 1.7-18.493 2.379-15.646 1.358-37.272 2.198-61.165 2.198v1Zm-87.061-8.011c0 .469.275.852.622 1.148.351.3.844.573 1.441.826 1.2.509 2.939.988 5.139 1.44 4.408.904 10.769 1.715 18.608 2.396 15.683 1.36 37.338 2.201 61.251 2.201v-1c-23.894 0-45.519-.84-61.165-2.198-7.825-.679-14.141-1.486-18.493-2.379-2.18-.447-3.842-.911-4.95-1.38-.555-.236-.942-.461-1.181-.666-.244-.208-.272-.338-.272-.388h-1Zm.001-.059-.001.059h1v-.008l-.999-.051Zm.423.525h.077v-1h-.077v1Z" fill="#3442C0"/><path d="M172.135 342.033c40.277 0 72.929-3.363 72.929-7.511 0-4.149-32.652-7.512-72.929-7.512-40.278 0-72.93 3.363-72.93 7.512 0 4.148 32.652 7.511 72.93 7.511Z" fill="url(#g)" stroke="#3442C0" stroke-linejoin="round"/><path fill-rule="evenodd" clip-rule="evenodd" d="m98.374 348.099 5.149-11.057.596.277-5.076 10.902c10.129 1.825 19.641 2.464 20.629 2.528l10.765-5.066h.093c15.057 1.431 41.73 2.018 45.493 2.098l-.125-5.644.658-.014.287 13.066c3.676-.016 22.526-.124 40.424-1.287l3.38-5.412.16-.017.087-.01c.749-.09 6.175-.737 12.662-1.635l-2.552-7.808.625-.205 2.589 7.921c6.041-.843 12.88-1.889 17.688-2.899l.135.649c-10.091 2.116-29.076 4.392-31.006 4.619l-3.389 5.429h-.169c-17.945 1.189-36.894 1.304-40.619 1.314l.209 9.537-.657.014-.373-16.959c-3.704-.072-30.363-.665-45.482-2.083l-10.748 5.058h-.084l-.159-.011c-1.575-.111-14.536-1.021-26.337-3.69l.143-.64c1.656.376 3.336.716 5.004 1.025Zm67.94 17.167h-.666v-4.738l-37.742-2.023-9.459 5.227-.32-.582 9.627-5.311h.093l38.467 2.057v5.37Zm75.097-2.092.002.001-.008.009.006-.01Zm3.695-5.394-3.695 5.394-.546-.37 3.853-5.614.126-.025.07-.016c.824-.178 8.654-1.869 14.371-2.615l.084.658c-5.311.69-12.456 2.205-14.063 2.545l-.2.043Z" fill="url(#h)"/><g style="mix-blend-mode:screen" opacity=".5" fill="#28FFF2"><path d="M129.146 293.838a4.915 4.915 0 1 1-9.83-.002 4.915 4.915 0 0 1 9.83.002Z"/><path d="M127.847 291.334c.456.876.397 1.804-.126 2.082-.531.278-1.324-.202-1.787-1.079-.455-.877-.396-1.804.126-2.082.531-.279 1.324.202 1.787 1.079ZM121.525 295.97c.186.354.16.734-.05.852-.22.109-.54-.084-.725-.438-.186-.355-.161-.734.05-.852.219-.11.54.084.725.438ZM228.177 196.325a1.83 1.83 0 1 0 0-3.658 1.83 1.83 0 0 0 0 3.658Z"/><path d="M229.525 193.56c.168.329.152.675-.051.776-.194.101-.497-.076-.666-.405-.168-.328-.151-.674.051-.775.194-.101.497.076.666.404ZM227.172 195.289c.068.134.059.269-.017.311-.084.043-.202-.033-.269-.16-.068-.135-.059-.269.016-.312.085-.042.203.034.27.161ZM227.543 291.081a1.827 1.827 0 0 1-1.829 1.829 1.827 1.827 0 0 1-1.829-1.829c0-1.012.817-1.83 1.829-1.83s1.829.818 1.829 1.83Z"/><path d="M227.054 290.145c.169.329.152.674-.05.776-.194.101-.498-.076-.666-.405-.169-.329-.152-.675.05-.776.194-.101.498.076.666.405ZM224.703 291.874c.068.134.059.269-.016.311-.085.043-.203-.033-.27-.16-.068-.135-.059-.269.017-.312.084-.042.202.034.269.161ZM237.254 314.256a1.827 1.827 0 0 1-1.829 1.829 1.827 1.827 0 0 1-1.829-1.829c0-1.012.817-1.83 1.829-1.83s1.829.818 1.829 1.83Z"/><path d="M236.775 313.319c.168.329.152.675-.051.776-.202.101-.497-.076-.666-.405-.168-.329-.151-.674.051-.775.202-.102.497.076.666.404ZM234.424 315.048c.068.135.059.27-.017.312-.084.042-.202-.034-.269-.16-.068-.127-.059-.27.016-.312.076-.042.203.033.27.16ZM153.206 327.196a1.828 1.828 0 0 1-1.83 1.829 1.828 1.828 0 0 1-1.829-1.829c0-1.012.818-1.83 1.829-1.83 1.012 0 1.83.818 1.83 1.83Z"/><path d="M152.726 326.26c.169.328.152.674-.051.775-.193.101-.497-.076-.666-.404-.168-.329-.151-.675.051-.776.194-.101.497.076.666.405ZM150.375 327.988c.068.135.059.27-.017.312-.084.042-.202-.034-.269-.16-.068-.135-.059-.27.017-.312.084-.042.202.034.269.16ZM203.635 311.592a1.827 1.827 0 0 1-1.829 1.829 1.827 1.827 0 0 1-1.829-1.829c0-1.012.817-1.83 1.829-1.83s1.829.818 1.829 1.83Z"/><path d="M203.156 310.664c.168.329.151.674-.051.776-.194.101-.497-.076-.666-.405-.168-.329-.152-.674.051-.776.194-.101.497.076.666.405ZM200.795 312.384c.068.135.059.27-.017.312-.084.042-.202-.034-.269-.16-.068-.135-.059-.27.016-.312.085-.043.203.033.27.16ZM198.147 300.944a1.828 1.828 0 0 1-1.829 1.829 1.828 1.828 0 0 1-1.83-1.829c0-1.012.818-1.83 1.83-1.83 1.011 0 1.829.818 1.829 1.83Z"/><path d="M197.666 300.008c.168.329.151.675-.051.776-.194.101-.497-.076-.666-.405-.169-.329-.152-.674.051-.775.193-.102.497.075.666.404ZM195.315 301.737c.067.135.059.27-.017.312-.076.042-.202-.034-.27-.16-.067-.135-.059-.27.017-.312.084-.043.202.033.27.16ZM152.069 171.044a1.828 1.828 0 0 1-1.829 1.829 1.828 1.828 0 0 1-1.83-1.829c0-1.012.818-1.83 1.83-1.83 1.011 0 1.829.818 1.829 1.83Z"/><path d="M151.589 170.108c.169.329.152.674-.05.775-.194.102-.498-.075-.666-.404-.169-.329-.152-.675.05-.776.203-.101.498.076.666.405ZM149.237 171.836c.067.135.059.27-.017.312-.085.042-.203-.034-.27-.16-.067-.127-.059-.27.017-.312.084-.042.202.033.27.16ZM186.008 268.681c0 1.012-.817 1.83-1.829 1.83a1.827 1.827 0 0 1-1.829-1.83c0-1.011.817-1.829 1.829-1.829s1.829.818 1.829 1.829Z"/><path d="M185.529 267.746c.168.329.152.674-.051.776-.194.101-.497-.076-.666-.405-.168-.329-.152-.674.051-.776.202-.101.497.076.666.405ZM183.176 269.475c.068.134.059.269-.017.312-.084.042-.202-.034-.27-.161-.067-.135-.059-.269.017-.312.076-.042.203.034.27.161ZM153.983 321.101a1.828 1.828 0 0 1-1.829 1.829 1.828 1.828 0 0 1-1.83-1.829c0-1.012.818-1.83 1.83-1.83 1.011 0 1.829.818 1.829 1.83Z"/><path d="M153.501 320.165c.169.329.152.674-.05.776-.194.101-.498-.076-.666-.405-.169-.329-.152-.675.05-.776.194-.101.498.076.666.405ZM151.141 321.893c.067.135.059.27-.017.312-.084.042-.202-.034-.27-.16-.067-.127-.059-.27.017-.312.084-.042.203.034.27.16ZM155.028 181.227c0 1.012-.818 1.83-1.83 1.83a1.828 1.828 0 0 1-1.829-1.83c0-1.011.818-1.829 1.829-1.829 1.012 0 1.83.818 1.83 1.829Z"/><path d="M154.539 180.291c.168.329.151.675-.051.776-.194.101-.497-.076-.666-.405-.169-.328-.152-.674.051-.775.193-.101.497.076.666.404ZM152.188 182.02c.067.134.059.269-.017.311-.084.043-.202-.033-.27-.16-.067-.135-.059-.269.017-.312.076-.042.202.034.27.161ZM160.643 169.425a1.827 1.827 0 0 1-1.829 1.829 1.827 1.827 0 0 1-1.83-1.829c0-1.012.818-1.829 1.83-1.829 1.011 0 1.829.817 1.829 1.829Z"/><path d="M160.154 168.489c.168.329.152.675-.051.776-.194.101-.497-.076-.666-.405-.168-.329-.152-.674.051-.775.202-.102.497.075.666.404ZM157.801 170.217c.068.135.059.27-.017.312-.084.042-.202-.034-.27-.16-.067-.135-.059-.27.017-.312.076-.042.203.034.27.16ZM198.147 292.717a1.828 1.828 0 0 1-1.829 1.829 1.828 1.828 0 0 1-1.83-1.829c0-1.012.818-1.83 1.83-1.83 1.011 0 1.829.818 1.829 1.83Z"/><path d="M197.666 291.789c.168.329.151.674-.051.776-.194.101-.497-.076-.666-.405-.169-.329-.152-.674.051-.776.193-.101.497.076.666.405ZM195.315 293.517c.067.135.059.27-.017.312-.084.042-.202-.034-.27-.16-.067-.135-.059-.27.017-.312.084-.042.202.034.27.16ZM176.693 270.317a1.83 1.83 0 1 0 0-3.658 1.83 1.83 0 0 0 0 3.658Z"/><path d="M178.042 267.56c.169.329.152.675-.05.776-.202.101-.498-.076-.666-.405-.169-.328-.152-.674.05-.775.194-.101.498.076.666.404ZM175.69 269.28c.067.135.059.27-.017.312-.084.042-.202-.034-.27-.16-.067-.135-.059-.27.017-.312.084-.042.202.034.27.16ZM147.297 245.229c0 1.012-.817 1.83-1.829 1.83a1.827 1.827 0 0 1-1.829-1.83c0-1.011.817-1.829 1.829-1.829s1.829.818 1.829 1.829Z"/><path d="M146.818 244.293c.168.329.152.675-.051.776-.194.101-.497-.076-.666-.405-.168-.328-.151-.674.051-.775.194-.101.497.076.666.404ZM144.465 246.021c.068.135.059.27-.017.312-.084.043-.202-.033-.269-.16-.068-.126-.059-.27.016-.312.085-.042.203.034.27.16ZM231.204 223.184c0 1.012-.818 1.83-1.83 1.83a1.828 1.828 0 0 1-1.829-1.83c0-1.011.818-1.829 1.829-1.829 1.012 0 1.83.818 1.83 1.829Z"/><path d="M230.722 222.257c.169.329.152.674-.05.775-.194.102-.498-.076-.666-.404-.169-.329-.152-.675.05-.776.194-.101.498.076.666.405ZM228.369 223.985c.068.135.059.27-.016.312-.085.042-.203-.034-.27-.16-.068-.135-.059-.27.017-.312.076-.042.202.033.269.16ZM126.069 210.817a1.828 1.828 0 0 1-1.829 1.829 1.828 1.828 0 0 1-1.83-1.829c0-1.012.818-1.83 1.83-1.83 1.011 0 1.829.818 1.829 1.83Z"/><path d="M125.587 209.89c.169.328.152.674-.05.775-.194.101-.498-.076-.666-.404-.169-.329-.152-.675.05-.776.194-.101.498.076.666.405ZM123.229 211.609c.067.135.059.27-.017.312-.084.042-.202-.033-.27-.16-.067-.135-.059-.27.017-.312.076-.042.202.034.27.16ZM230.679 176.464a4.914 4.914 0 1 1-9.829 0 4.915 4.915 0 1 1 9.829 0Z"/><path d="M229.375 173.952c.455.868.396 1.804-.127 2.082-.531.278-1.323-.202-1.787-1.079-.455-.877-.396-1.804.127-2.082.531-.278 1.323.202 1.787 1.079ZM223.053 178.589c.185.354.16.733-.051.851-.219.11-.54-.084-.725-.438-.185-.354-.16-.734.051-.852.219-.109.539.085.725.439ZM204.732 297.749a3.296 3.296 0 1 0 0-6.593 3.296 3.296 0 0 0 0 6.593Z"/><path d="M207.152 292.775c.303.582.27 1.206-.084 1.391-.355.186-.894-.135-1.198-.725-.303-.59-.269-1.205.085-1.391.354-.185.893.135 1.197.725ZM202.92 295.886c.127.236.11.489-.033.565-.144.076-.363-.059-.489-.295-.127-.236-.11-.489.033-.565.144-.076.363.059.489.295ZM208.214 305.918a3.296 3.296 0 1 0 0-6.592 3.296 3.296 0 0 0 0 6.592Z"/><path d="M210.634 300.936c.304.581.27 1.205-.084 1.391-.354.185-.894-.135-1.197-.725-.304-.582-.27-1.206.084-1.391.354-.186.894.135 1.197.725ZM206.393 304.046c.126.236.11.489-.034.565-.143.076-.362-.059-.489-.295-.126-.236-.109-.489.034-.565.143-.076.363.059.489.295ZM171.046 257.292a3.296 3.296 0 1 0 0-6.592 3.296 3.296 0 0 0 0 6.592Z"/><path d="M173.472 252.319c.304.581.27 1.205-.084 1.391-.354.185-.894-.135-1.197-.725-.304-.582-.27-1.206.084-1.391.354-.186.894.134 1.197.725ZM169.233 255.421c.126.236.109.489-.034.565-.143.076-.362-.059-.489-.295-.126-.236-.109-.489.034-.565.143-.076.362.059.489.295ZM156.948 156.063a3.296 3.296 0 1 1-6.594 0 3.296 3.296 0 0 1 6.594 0Z"/><path d="M156.082 154.385c.303.582.269 1.206-.085 1.391-.354.185-.893-.135-1.197-.725-.303-.582-.27-1.206.084-1.391.355-.185.894.135 1.198.725ZM151.84 157.496c.127.236.11.489-.033.565-.144.076-.363-.059-.489-.295-.127-.236-.11-.489.033-.565.144-.076.363.059.489.295ZM157.167 304.358a3.296 3.296 0 1 0 0-6.592 3.296 3.296 0 0 0 0 6.592Z"/><path d="M159.597 299.376c.304.581.27 1.205-.084 1.391-.354.185-.894-.135-1.197-.725-.304-.582-.27-1.206.084-1.391.354-.186.894.135 1.197.725ZM155.356 302.487c.126.236.11.489-.034.564-.143.076-.362-.059-.489-.295-.126-.236-.109-.489.034-.564.143-.076.362.059.489.295ZM167.351 287.692a1.223 1.223 0 1 0 0-2.446 1.223 1.223 0 0 0 0 2.446Z"/><path d="M168.253 285.846c.118.219.101.447-.034.523-.135.067-.329-.051-.447-.27-.118-.219-.101-.447.034-.523.135-.067.329.051.447.27ZM166.679 287.001c.042.092.042.185-.017.21-.059.026-.135-.016-.185-.109-.051-.093-.043-.186.016-.211.051-.025.135.017.186.11ZM203.636 320.763a1.223 1.223 0 1 1-2.447 0 1.223 1.223 0 0 1 2.447 0Z"/><path d="M203.315 320.131c.118.219.101.447-.033.522-.135.076-.329-.05-.447-.269-.118-.22-.101-.447.034-.523.134-.076.328.051.446.27ZM201.739 321.295c.051.092.043.185-.016.21-.051.026-.135-.017-.186-.109-.05-.093-.042-.186.017-.211.059-.025.135.017.185.11ZM175.875 251.644a1.222 1.222 0 1 0 0-2.444 1.222 1.222 0 0 0 0 2.444Z"/><path d="M176.776 249.798c.118.22.101.447-.033.523-.135.068-.329-.05-.447-.27-.118-.219-.101-.446.033-.522.135-.068.329.05.447.269ZM175.2 250.953c.051.092.043.185-.016.211-.051.025-.135-.017-.186-.11-.051-.093-.042-.186.017-.211.05-.025.135.017.185.11ZM155.709 309.585a1.222 1.222 0 1 0 0-2.444 1.222 1.222 0 0 0 0 2.444Z"/><path d="M156.61 307.739c.118.219.101.447-.033.523-.135.067-.329-.051-.447-.27-.118-.219-.101-.447.033-.523.135-.067.329.051.447.27ZM155.036 308.894c.042.092.042.185-.017.21-.059.026-.134-.016-.185-.109-.051-.093-.042-.186.017-.211.05-.025.135.017.185.11ZM224.163 300.877a3.297 3.297 0 1 0 0-6.594 3.297 3.297 0 0 0 0 6.594Z"/><path d="M226.582 295.895c.303.581.269 1.205-.085 1.391-.354.185-.893-.135-1.197-.725-.303-.59-.27-1.206.084-1.391.355-.186.894.135 1.198.725ZM222.344 299.005c.127.236.11.489-.034.565-.143.076-.362-.059-.488-.295-.127-.236-.11-.489.033-.565.144-.076.363.059.489.295ZM127.038 317.661a2.006 2.006 0 1 1-4.012.002 2.006 2.006 0 0 1 4.012-.002Z"/><path d="M126.517 316.632c.186.354.161.733-.05.851-.219.11-.54-.084-.725-.438-.186-.354-.16-.733.05-.851.22-.11.54.084.725.438ZM123.926 318.529c.076.143.068.303-.025.346-.084.042-.219-.034-.295-.177-.076-.144-.068-.304.025-.346.093-.042.219.034.295.177ZM123.567 282.92a2.006 2.006 0 1 1-4.012.002 2.006 2.006 0 0 1 4.012-.002Z"/><path d="M123.035 281.901c.185.354.16.733-.051.851-.219.11-.539-.084-.725-.438-.185-.354-.16-.734.051-.852.219-.109.54.085.725.439ZM120.456 283.797c.075.143.067.304-.026.346-.084.042-.219-.034-.295-.177-.076-.144-.067-.304.025-.346.085-.042.22.034.296.177Z"/></g><path opacity=".3" d="M447.257 375.821c-45.734 0-93.044-3.726-93.044-9.956 0-6.23 47.31-9.956 93.044-9.956 45.734 0 93.044 3.726 93.044 9.956 0 6.23-47.31 9.956-93.044 9.956Z" fill="url(#i)"/><path d="M586.621 103.55H300l72.413 230.398h145.539l68.669-230.398Z" fill="url(#j)"/><path d="m402.647 336.49-40.506-141.486 59.172-9.929 7.356 148.878s-17.541 4.276-26.015 2.527l-.007.01Z" fill="url(#k)" style="mix-blend-mode:multiply" opacity=".7"/><path d="m461.636 331.599 10.366-146.805 58.997 10.924-44.045 142.403s-17.945-1.985-25.308-6.529l-.01.007Z" fill="url(#l)" style="mix-blend-mode:multiply" opacity=".7"/><path fill-rule="evenodd" clip-rule="evenodd" d="M534.081 364.17c0 4.148-38.536 7.511-86.072 7.511s-86.072-3.363-86.072-7.511c0-.093.019-.186.058-.278h-.227l-.321-5.792h35.852c14.222-.906 31.75-1.441 50.71-1.441s36.488.535 50.71 1.441h35.842l-.63 5.622c.1.148.15.298.15.448Z" fill="url(#m)"/><path d="m361.995 363.892.461.192a.498.498 0 0 0-.461-.692v.5Zm-.227 0-.5.027a.501.501 0 0 0 .5.473v-.5Zm-.321-5.792v-.5a.5.5 0 0 0-.499.528l.499-.028Zm35.852 0v.5l.032-.001-.032-.499Zm101.42 0-.032.499a.342.342 0 0 0 .032.001v-.5Zm35.842 0 .497.056a.498.498 0 0 0-.497-.556v.5Zm-.63 5.622-.497-.055a.503.503 0 0 0 .082.335l.415-.28Zm-85.922 8.459c23.778 0 45.311-.841 60.906-2.202 7.794-.68 14.119-1.491 18.503-2.396 2.188-.451 3.918-.931 5.111-1.439.594-.254 1.084-.526 1.434-.827.345-.297.618-.679.618-1.147h-1c0 .051-.028.181-.27.389-.238.204-.622.429-1.175.665-1.1.469-2.752.933-4.92 1.38-4.327.893-10.607 1.7-18.388 2.379-15.558 1.358-37.061 2.198-60.819 2.198v1Zm-86.572-8.011c0 .468.273.85.618 1.147.35.301.84.573 1.434.827 1.193.508 2.923.988 5.111 1.439 4.384.905 10.709 1.716 18.503 2.396 15.595 1.361 37.128 2.202 60.906 2.202v-1c-23.758 0-45.261-.84-60.819-2.198-7.781-.679-14.061-1.486-18.388-2.379-2.168-.447-3.82-.911-4.92-1.38-.553-.236-.937-.461-1.175-.665-.242-.208-.27-.338-.27-.389h-1Zm.096-.471a1.231 1.231 0 0 0-.096.471h1c0-.022.004-.049.019-.086l-.923-.385Zm.235.693h.227v-1h-.227v1Zm-.82-6.264.32 5.791.999-.055-.32-5.792-.999.056Zm36.351-.528h-35.852v1h35.852v-1Zm50.71-1.441c-18.968 0-36.507.535-50.742 1.442l.064.998c14.21-.906 31.727-1.44 50.678-1.44v-1Zm50.742 1.442c-14.235-.907-31.774-1.442-50.742-1.442v1c18.951 0 36.468.534 50.678 1.44l.064-.998Zm35.81-.001h-35.842v1h35.842v-1Zm-.133 6.178.63-5.622-.994-.112-.63 5.623.994.111Zm.153.392a1.3 1.3 0 0 0-.235-.727l-.83.559c.056.082.065.136.065.168h1Z" fill="#3442C0"/><path fill-rule="evenodd" clip-rule="evenodd" d="m361.447 358.1 10.968-24.152h145.539l15.953 23.201c.487.322.738.651.738.985 0 4.149-38.755 7.511-86.561 7.511-47.806 0-86.561-3.362-86.561-7.511l.001-.034h-.077Z" fill="url(#n)"/><path d="M372.415 333.948v-.5a.499.499 0 0 0-.455.293l.455.207ZM361.447 358.1l-.455-.207a.502.502 0 0 0 .455.707v-.5Zm156.507-24.152.412-.284a.503.503 0 0 0-.412-.216v.5Zm15.953 23.201-.412.283a.496.496 0 0 0 .136.134l.276-.417Zm-172.383.951.499.026a.497.497 0 0 0-.499-.526v.5Zm10.436-24.359-10.968 24.152.911.414 10.967-24.153-.91-.413Zm145.994-.293H372.415v1h145.539v-1Zm16.365 23.417-15.953-23.201-.824.567 15.953 23.201.824-.567Zm.826 1.269c0-.6-.445-1.059-.962-1.402l-.552.834c.456.302.514.5.514.568h1Zm-87.061 8.011c23.913 0 45.568-.841 61.251-2.201 7.839-.681 14.2-1.492 18.608-2.396 2.2-.452 3.94-.931 5.139-1.44.597-.253 1.09-.526 1.441-.826.347-.296.622-.679.622-1.148h-1c0 .05-.028.18-.272.388-.239.205-.626.43-1.182.666-1.107.469-2.769.933-4.949 1.38-4.352.893-10.668 1.7-18.493 2.379-15.646 1.358-37.272 2.198-61.165 2.198v1Zm-87.061-8.011c0 .469.275.852.622 1.148.351.3.844.573 1.441.826 1.199.509 2.939.988 5.139 1.44 4.408.904 10.769 1.715 18.608 2.396 15.683 1.36 37.338 2.201 61.251 2.201v-1c-23.894 0-45.519-.84-61.165-2.198-7.825-.679-14.141-1.486-18.493-2.379-2.18-.447-3.842-.911-4.949-1.38-.556-.236-.943-.461-1.182-.666-.244-.208-.272-.338-.272-.388h-1Zm.001-.059-.001.059h1v-.008l-.999-.051Zm.423.525h.077v-1h-.077v1Z" fill="#3442C0"/><path d="M445.135 342.033c40.277 0 72.929-3.363 72.929-7.511 0-4.149-32.652-7.512-72.929-7.512-40.278 0-72.93 3.363-72.93 7.512 0 4.148 32.652 7.511 72.93 7.511Z" fill="url(#o)" stroke="#3442C0" stroke-linejoin="round"/><path fill-rule="evenodd" clip-rule="evenodd" d="m371.374 348.099 5.149-11.057.596.277-5.076 10.902c10.129 1.825 19.641 2.464 20.629 2.528l10.765-5.066h.093c15.057 1.431 41.73 2.018 45.493 2.098l-.125-5.644.658-.014.287 13.066c3.676-.016 22.526-.124 40.424-1.287l3.38-5.412.16-.017.087-.01c.749-.09 6.175-.737 12.662-1.635l-2.552-7.808.625-.205 2.589 7.921c6.041-.843 12.88-1.889 17.688-2.899l.135.649c-10.091 2.116-29.076 4.392-31.006 4.619l-3.389 5.429h-.169c-17.945 1.189-36.894 1.304-40.619 1.314l.209 9.537-.657.014-.373-16.959c-3.704-.072-30.363-.665-45.482-2.083l-10.748 5.058h-.084l-.159-.011c-1.575-.111-14.536-1.021-26.337-3.69l.143-.64c1.656.376 3.336.716 5.004 1.025Zm67.94 17.167h-.666v-4.738l-37.742-2.023-9.459 5.227-.32-.582 9.627-5.311h.093l38.467 2.057v5.37Zm75.097-2.092.002.001-.008.009.006-.01Zm3.695-5.394-3.695 5.394-.546-.37 3.853-5.614.126-.025.07-.016c.824-.178 8.654-1.869 14.371-2.615l.084.658c-5.311.69-12.456 2.205-14.063 2.545l-.2.043Z" fill="url(#p)"/><g style="mix-blend-mode:screen" opacity=".5" fill="#28FFF2"><path d="M402.146 293.838a4.915 4.915 0 1 1-9.83-.002 4.915 4.915 0 0 1 9.83.002Z"/><path d="M400.847 291.334c.456.876.397 1.804-.126 2.082-.531.278-1.324-.202-1.787-1.079-.455-.877-.396-1.804.126-2.082.531-.279 1.324.202 1.787 1.079ZM394.525 295.97c.186.354.16.734-.05.852-.22.109-.54-.084-.725-.438-.186-.355-.161-.734.05-.852.219-.11.54.084.725.438ZM501.177 196.325a1.83 1.83 0 1 0 0-3.658 1.83 1.83 0 0 0 0 3.658Z"/><path d="M502.525 193.56c.168.329.152.675-.051.776-.194.101-.497-.076-.666-.405-.168-.328-.151-.674.051-.775.194-.101.497.076.666.404ZM500.172 195.289c.068.134.059.269-.017.311-.084.043-.202-.033-.269-.16-.068-.135-.059-.269.016-.312.085-.042.203.034.27.161ZM500.543 291.081a1.827 1.827 0 0 1-1.829 1.829 1.827 1.827 0 0 1-1.829-1.829c0-1.012.817-1.83 1.829-1.83s1.829.818 1.829 1.83Z"/><path d="M500.054 290.145c.169.329.152.674-.05.776-.194.101-.498-.076-.666-.405-.169-.329-.152-.675.05-.776.194-.101.498.076.666.405ZM497.703 291.874c.068.134.059.269-.016.311-.085.043-.203-.033-.27-.16-.068-.135-.059-.269.017-.312.084-.042.202.034.269.161ZM510.254 314.256a1.827 1.827 0 0 1-1.829 1.829 1.827 1.827 0 0 1-1.829-1.829c0-1.012.817-1.83 1.829-1.83s1.829.818 1.829 1.83Z"/><path d="M509.775 313.319c.168.329.152.675-.051.776-.202.101-.497-.076-.666-.405-.168-.329-.151-.674.051-.775.202-.102.497.076.666.404ZM507.424 315.048c.068.135.059.27-.017.312-.084.042-.202-.034-.269-.16-.068-.127-.059-.27.016-.312.076-.042.203.033.27.16ZM426.206 327.196a1.828 1.828 0 0 1-1.83 1.829 1.828 1.828 0 0 1-1.829-1.829c0-1.012.818-1.83 1.829-1.83 1.012 0 1.83.818 1.83 1.83Z"/><path d="M425.726 326.26c.169.328.152.674-.051.775-.193.101-.497-.076-.666-.404-.168-.329-.151-.675.051-.776.194-.101.497.076.666.405ZM423.375 327.988c.068.135.059.27-.017.312-.084.042-.202-.034-.269-.16-.068-.135-.059-.27.017-.312.084-.042.202.034.269.16ZM476.635 311.592a1.827 1.827 0 0 1-1.829 1.829 1.827 1.827 0 0 1-1.829-1.829c0-1.012.817-1.83 1.829-1.83s1.829.818 1.829 1.83Z"/><path d="M476.156 310.664c.168.329.151.674-.051.776-.194.101-.497-.076-.666-.405-.168-.329-.152-.674.051-.776.194-.101.497.076.666.405ZM473.795 312.384c.068.135.059.27-.017.312-.084.042-.202-.034-.269-.16-.068-.135-.059-.27.016-.312.085-.043.203.033.27.16ZM471.147 300.944a1.828 1.828 0 0 1-1.829 1.829 1.828 1.828 0 0 1-1.83-1.829c0-1.012.818-1.83 1.83-1.83 1.011 0 1.829.818 1.829 1.83Z"/><path d="M470.666 300.008c.168.329.151.675-.051.776-.194.101-.497-.076-.666-.405-.169-.329-.152-.674.051-.775.193-.102.497.075.666.404ZM468.315 301.737c.067.135.059.27-.017.312-.076.042-.202-.034-.27-.16-.067-.135-.059-.27.017-.312.084-.043.202.033.27.16ZM425.069 171.044a1.828 1.828 0 0 1-1.829 1.829 1.828 1.828 0 0 1-1.83-1.829c0-1.012.818-1.83 1.83-1.83 1.011 0 1.829.818 1.829 1.83Z"/><path d="M424.589 170.108c.169.329.152.674-.05.775-.194.102-.498-.075-.666-.404-.169-.329-.152-.675.05-.776.203-.101.498.076.666.405ZM422.237 171.836c.067.135.059.27-.017.312-.085.042-.203-.034-.27-.16-.067-.127-.059-.27.017-.312.084-.042.202.033.27.16ZM459.008 268.681c0 1.012-.817 1.83-1.829 1.83a1.827 1.827 0 0 1-1.829-1.83c0-1.011.817-1.829 1.829-1.829s1.829.818 1.829 1.829Z"/><path d="M458.529 267.746c.168.329.152.674-.051.776-.194.101-.497-.076-.666-.405-.168-.329-.152-.674.051-.776.202-.101.497.076.666.405ZM456.176 269.475c.068.134.059.269-.017.312-.084.042-.202-.034-.27-.161-.067-.135-.059-.269.017-.312.076-.042.203.034.27.161ZM426.983 321.101a1.828 1.828 0 0 1-1.829 1.829 1.828 1.828 0 0 1-1.83-1.829c0-1.012.818-1.83 1.83-1.83 1.011 0 1.829.818 1.829 1.83Z"/><path d="M426.501 320.165c.169.329.152.674-.05.776-.194.101-.498-.076-.666-.405-.169-.329-.152-.675.05-.776.194-.101.498.076.666.405ZM424.141 321.893c.067.135.059.27-.017.312-.084.042-.202-.034-.27-.16-.067-.127-.059-.27.017-.312.084-.042.203.034.27.16ZM428.028 181.227c0 1.012-.818 1.83-1.83 1.83a1.828 1.828 0 0 1-1.829-1.83c0-1.011.818-1.829 1.829-1.829 1.012 0 1.83.818 1.83 1.829Z"/><path d="M427.539 180.291c.168.329.151.675-.051.776-.194.101-.497-.076-.666-.405-.169-.328-.152-.674.051-.775.193-.101.497.076.666.404ZM425.188 182.02c.067.134.059.269-.017.311-.084.043-.202-.033-.27-.16-.067-.135-.059-.269.017-.312.076-.042.202.034.27.161ZM433.643 169.425a1.827 1.827 0 0 1-1.829 1.829 1.827 1.827 0 0 1-1.83-1.829c0-1.012.818-1.829 1.83-1.829 1.011 0 1.829.817 1.829 1.829Z"/><path d="M433.154 168.489c.168.329.152.675-.051.776-.194.101-.497-.076-.666-.405-.168-.329-.152-.674.051-.775.202-.102.497.075.666.404ZM430.801 170.217c.068.135.059.27-.017.312-.084.042-.202-.034-.27-.16-.067-.135-.059-.27.017-.312.076-.042.203.034.27.16ZM471.147 292.717a1.828 1.828 0 0 1-1.829 1.829 1.828 1.828 0 0 1-1.83-1.829c0-1.012.818-1.83 1.83-1.83 1.011 0 1.829.818 1.829 1.83Z"/><path d="M470.666 291.789c.168.329.151.674-.051.776-.194.101-.497-.076-.666-.405-.169-.329-.152-.674.051-.776.193-.101.497.076.666.405ZM468.315 293.517c.067.135.059.27-.017.312-.084.042-.202-.034-.27-.16-.067-.135-.059-.27.017-.312.084-.042.202.034.27.16ZM449.693 270.317a1.83 1.83 0 1 0 0-3.658 1.83 1.83 0 0 0 0 3.658Z"/><path d="M451.042 267.56c.169.329.152.675-.05.776-.202.101-.498-.076-.666-.405-.169-.328-.152-.674.05-.775.194-.101.498.076.666.404ZM448.69 269.28c.067.135.059.27-.017.312-.084.042-.202-.034-.27-.16-.067-.135-.059-.27.017-.312.084-.042.202.034.27.16ZM420.297 245.229c0 1.012-.817 1.83-1.829 1.83a1.827 1.827 0 0 1-1.829-1.83c0-1.011.817-1.829 1.829-1.829s1.829.818 1.829 1.829Z"/><path d="M419.818 244.293c.168.329.152.675-.051.776-.194.101-.497-.076-.666-.405-.168-.328-.151-.674.051-.775.194-.101.497.076.666.404ZM417.465 246.021c.068.135.059.27-.017.312-.084.043-.202-.033-.269-.16-.068-.126-.059-.27.016-.312.085-.042.203.034.27.16ZM504.204 223.184c0 1.012-.818 1.83-1.83 1.83a1.828 1.828 0 0 1-1.829-1.83c0-1.011.818-1.829 1.829-1.829 1.012 0 1.83.818 1.83 1.829Z"/><path d="M503.722 222.257c.169.329.152.674-.05.775-.194.102-.498-.076-.666-.404-.169-.329-.152-.675.05-.776.194-.101.498.076.666.405ZM501.369 223.985c.068.135.059.27-.016.312-.085.042-.203-.034-.27-.16-.068-.135-.059-.27.017-.312.076-.042.202.033.269.16ZM399.069 210.817a1.828 1.828 0 0 1-1.829 1.829 1.828 1.828 0 0 1-1.83-1.829c0-1.012.818-1.83 1.83-1.83 1.011 0 1.829.818 1.829 1.83Z"/><path d="M398.587 209.89c.169.328.152.674-.05.775-.194.101-.498-.076-.666-.404-.169-.329-.152-.675.05-.776.194-.101.498.076.666.405ZM396.229 211.609c.067.135.059.27-.017.312-.084.042-.202-.033-.27-.16-.067-.135-.059-.27.017-.312.076-.042.202.034.27.16ZM503.679 176.464a4.914 4.914 0 1 1-9.829 0 4.915 4.915 0 1 1 9.829 0Z"/><path d="M502.375 173.952c.455.868.396 1.804-.127 2.082-.531.278-1.323-.202-1.787-1.079-.455-.877-.396-1.804.127-2.082.531-.278 1.323.202 1.787 1.079ZM496.053 178.589c.185.354.16.733-.051.851-.219.11-.54-.084-.725-.438-.185-.354-.16-.734.051-.852.219-.109.539.085.725.439ZM477.732 297.749a3.296 3.296 0 1 0 0-6.593 3.296 3.296 0 0 0 0 6.593Z"/><path d="M480.152 292.775c.303.582.27 1.206-.084 1.391-.355.186-.894-.135-1.198-.725-.303-.59-.269-1.205.085-1.391.354-.185.893.135 1.197.725ZM475.92 295.886c.127.236.11.489-.033.565-.144.076-.363-.059-.489-.295-.127-.236-.11-.489.033-.565.144-.076.363.059.489.295ZM481.214 305.918a3.296 3.296 0 1 0 0-6.592 3.296 3.296 0 0 0 0 6.592Z"/><path d="M483.634 300.936c.304.581.27 1.205-.084 1.391-.354.185-.894-.135-1.197-.725-.304-.582-.27-1.206.084-1.391.354-.186.894.135 1.197.725ZM479.393 304.046c.126.236.11.489-.034.565-.143.076-.362-.059-.489-.295-.126-.236-.109-.489.034-.565.143-.076.363.059.489.295ZM444.046 257.292a3.296 3.296 0 1 0 0-6.592 3.296 3.296 0 0 0 0 6.592Z"/><path d="M446.472 252.319c.304.581.27 1.205-.084 1.391-.354.185-.894-.135-1.197-.725-.304-.582-.27-1.206.084-1.391.354-.186.894.134 1.197.725ZM442.233 255.421c.126.236.109.489-.034.565-.143.076-.362-.059-.489-.295-.126-.236-.109-.489.034-.565.143-.076.362.059.489.295ZM429.948 156.063a3.296 3.296 0 1 1-6.594 0 3.296 3.296 0 0 1 6.594 0Z"/><path d="M429.082 154.385c.303.582.269 1.206-.085 1.391-.354.185-.893-.135-1.197-.725-.303-.582-.27-1.206.084-1.391.355-.185.894.135 1.198.725ZM424.84 157.496c.127.236.11.489-.033.565-.144.076-.363-.059-.489-.295-.127-.236-.11-.489.033-.565.144-.076.363.059.489.295ZM430.167 304.358a3.296 3.296 0 1 0 0-6.592 3.296 3.296 0 0 0 0 6.592Z"/><path d="M432.597 299.376c.304.581.27 1.205-.084 1.391-.354.185-.894-.135-1.197-.725-.304-.582-.27-1.206.084-1.391.354-.186.894.135 1.197.725ZM428.356 302.487c.126.236.11.489-.034.564-.143.076-.362-.059-.489-.295-.126-.236-.109-.489.034-.564.143-.076.362.059.489.295ZM440.351 287.692a1.223 1.223 0 1 0 0-2.446 1.223 1.223 0 0 0 0 2.446Z"/><path d="M441.253 285.846c.118.219.101.447-.034.523-.135.067-.329-.051-.447-.27-.118-.219-.101-.447.034-.523.135-.067.329.051.447.27ZM439.679 287.001c.042.092.042.185-.017.21-.059.026-.135-.016-.185-.109-.051-.093-.043-.186.016-.211.051-.025.135.017.186.11ZM476.636 320.763a1.223 1.223 0 1 1-2.447 0 1.223 1.223 0 0 1 2.447 0Z"/><path d="M476.315 320.131c.118.219.101.447-.033.522-.135.076-.329-.05-.447-.269-.118-.22-.101-.447.034-.523.134-.076.328.051.446.27ZM474.739 321.295c.051.092.043.185-.016.21-.051.026-.135-.017-.186-.109-.05-.093-.042-.186.017-.211.059-.025.135.017.185.11ZM448.875 251.644a1.222 1.222 0 1 0 0-2.444 1.222 1.222 0 0 0 0 2.444Z"/><path d="M449.776 249.798c.118.22.101.447-.033.523-.135.068-.329-.05-.447-.27-.118-.219-.101-.446.033-.522.135-.068.329.05.447.269ZM448.2 250.953c.051.092.043.185-.016.211-.051.025-.135-.017-.186-.11-.051-.093-.042-.186.017-.211.05-.025.135.017.185.11ZM428.709 309.585a1.222 1.222 0 1 0 0-2.444 1.222 1.222 0 0 0 0 2.444Z"/><path d="M429.61 307.739c.118.219.101.447-.033.523-.135.067-.329-.051-.447-.27-.118-.219-.101-.447.033-.523.135-.067.329.051.447.27ZM428.036 308.894c.042.092.042.185-.017.21-.059.026-.134-.016-.185-.109-.051-.093-.042-.186.017-.211.05-.025.135.017.185.11ZM497.163 300.877a3.297 3.297 0 1 0 0-6.594 3.297 3.297 0 0 0 0 6.594Z"/><path d="M499.582 295.895c.303.581.269 1.205-.085 1.391-.354.185-.893-.135-1.197-.725-.303-.59-.27-1.206.084-1.391.355-.186.894.135 1.198.725ZM495.344 299.005c.127.236.11.489-.034.565-.143.076-.362-.059-.488-.295-.127-.236-.11-.489.033-.565.144-.076.363.059.489.295ZM400.038 317.661a2.006 2.006 0 1 1-4.012.002 2.006 2.006 0 0 1 4.012-.002Z"/><path d="M399.517 316.632c.186.354.161.733-.05.851-.219.11-.54-.084-.725-.438-.186-.354-.16-.733.05-.851.22-.11.54.084.725.438ZM396.926 318.529c.076.143.068.303-.025.346-.084.042-.219-.034-.295-.177-.076-.144-.068-.304.025-.346.093-.042.219.034.295.177ZM396.567 282.92a2.006 2.006 0 1 1-4.012.002 2.006 2.006 0 0 1 4.012-.002Z"/><path d="M396.035 281.901c.185.354.16.733-.051.851-.219.11-.539-.084-.725-.438-.185-.354-.16-.734.051-.852.219-.109.54.085.725.439ZM393.456 283.797c.075.143.067.304-.026.346-.084.042-.219-.034-.295-.177-.076-.144-.067-.304.025-.346.085-.042.22.034.296.177Z"/></g><path d="m223.4 105.881-71.916-2.786-56.78 42.253 71.112 2.762 57.584-42.229Z" fill="url(#q)" stroke="#3442C0" stroke-linecap="round" stroke-linejoin="round"/><path d="m165.814 148.11 25.756 84.425 31.828-126.654-57.584 42.229Z" fill="url(#r)" stroke="#3442C0" stroke-miterlimit="10" stroke-linejoin="round"/><path d="m94.703 145.348 96.869 87.187-25.756-84.425-71.113-2.762Z" fill="url(#s)" stroke="#3442C0" stroke-linecap="round" stroke-linejoin="round"/><path d="m91.45 132.13 69.891 1.819L122.507 7 91.449 132.13Z" fill="url(#t)" stroke="#3442C0" stroke-linecap="round" stroke-linejoin="round"/><path d="m122.508 7 38.834 126.949 56.773-40.967L122.508 7Z" fill="url(#u)" stroke="#3442C0" stroke-linecap="round" stroke-linejoin="round"/><path d="m526.203 91.904-83.482 43.105 41.744 80.482 11.352 23.939L533 123.225l-6.797-31.32Z" fill="url(#v)" stroke="#3442C0" stroke-miterlimit="10" stroke-linejoin="round"/><path d="M442.721 135.009 365 175.143l8.026 22.21 122.791 42.077-11.352-23.939-41.744-80.482Z" fill="url(#w)" stroke="#3442C0" stroke-miterlimit="10" stroke-linejoin="round"/><path d="m480.137 76.34-.226.665c-2.641 7.827-10.92 12.1-18.486 9.542-7.565-2.559-11.557-10.975-8.91-18.795l.227-.665-46.004-15.537L365 175.143l119.465 40.354 41.738-123.593-46.066-15.557v-.007Z" fill="url(#x)" stroke="#3442C0" stroke-linejoin="round"/><path d="m411.999 127.525 7.915 2.676-4.65 31.608.096.034 16.558-27.588 7.407 2.503-4.314 32.13.117.041 16.345-28.069 7.764 2.62-24.871 40.355-7.86-2.655 4.239-31.746-.151-.048-16.291 27.678-8.004-2.702 5.7-46.83v-.007Zm56.155 18.967 12.484 4.218-2.387 47.948-8.169-2.758.59-10.645-14.219-4.802-5.371 9.034-7.957-2.689 25.023-40.299.006-.007Zm1.112 12.388-8.876 14.885 10.748 3.629 1.461-17.396-3.333-1.125v.007Z" fill="#fff" stroke="#3442C0" stroke-linejoin="round"/><defs><linearGradient id="a" x1="104.003" y1="361.616" x2="107.058" y2="387.474" gradientUnits="userSpaceOnUse"><stop stop-color="#7041BF"/><stop offset="1" stop-color="#3255C7"/></linearGradient><linearGradient id="b" x1="172.182" y1="113.688" x2="172.182" y2="333.948" gradientUnits="userSpaceOnUse"><stop stop-color="#B8FAFB" stop-opacity="0"/><stop offset=".51" stop-color="#B8FBF8" stop-opacity=".5"/><stop offset="1" stop-color="#E3D3FF"/></linearGradient><linearGradient id="c" x1="118.503" y1="190.077" x2="143.048" y2="336.349" gradientUnits="userSpaceOnUse"><stop stop-color="#B8FAFB" stop-opacity="0"/><stop offset=".51" stop-color="#B8FBF8" stop-opacity=".5"/><stop offset="1" stop-color="#E3D3FF"/></linearGradient><linearGradient id="d" x1="228.277" y1="190.215" x2="201.276" y2="336.053" gradientUnits="userSpaceOnUse"><stop stop-color="#B8FAFB" stop-opacity="0"/><stop offset=".51" stop-color="#B8FBF8" stop-opacity=".5"/><stop offset="1" stop-color="#E3D3FF"/></linearGradient><linearGradient id="e" x1="127.891" y1="359.787" x2="138.803" y2="399.581" gradientUnits="userSpaceOnUse"><stop stop-color="#E6C1FF"/><stop offset=".406" stop-color="#B6C7FF"/><stop offset="1" stop-color="#AFF1FF"/></linearGradient><linearGradient id="f" x1="99.5" y1="339.5" x2="151.07" y2="420.156" gradientUnits="userSpaceOnUse"><stop stop-color="#F2DEFF"/><stop offset=".333" stop-color="#fff"/><stop offset=".625" stop-color="#DDE5FF"/><stop offset="1" stop-color="#D9F8FF"/></linearGradient><linearGradient id="g" x1="132.439" y1="330.139" x2="145.03" y2="368.827" gradientUnits="userSpaceOnUse"><stop stop-color="#F3E1FF"/><stop offset=".406" stop-color="#CED9FF"/><stop offset="1" stop-color="#CDF6FF"/></linearGradient><linearGradient id="h" x1="105.533" y1="318.001" x2="183.935" y2="417.647" gradientUnits="userSpaceOnUse"><stop stop-color="#E6007A"/><stop offset=".21" stop-color="#703AC2"/><stop offset=".46" stop-color="#0070EB"/><stop offset=".77" stop-color="#0297FB"/><stop offset="1" stop-color="#0AE2FF"/></linearGradient><linearGradient id="i" x1="377.003" y1="361.616" x2="380.058" y2="387.474" gradientUnits="userSpaceOnUse"><stop stop-color="#7041BF"/><stop offset="1" stop-color="#3255C7"/></linearGradient><linearGradient id="j" x1="445.182" y1="113.688" x2="445.182" y2="333.948" gradientUnits="userSpaceOnUse"><stop stop-color="#B8FAFB" stop-opacity="0"/><stop offset=".51" stop-color="#B8FBF8" stop-opacity=".5"/><stop offset="1" stop-color="#E3D3FF"/></linearGradient><linearGradient id="k" x1="391.503" y1="190.077" x2="416.048" y2="336.349" gradientUnits="userSpaceOnUse"><stop stop-color="#B8FAFB" stop-opacity="0"/><stop offset=".51" stop-color="#B8FBF8" stop-opacity=".5"/><stop offset="1" stop-color="#E3D3FF"/></linearGradient><linearGradient id="l" x1="501.277" y1="190.215" x2="474.276" y2="336.053" gradientUnits="userSpaceOnUse"><stop stop-color="#B8FAFB" stop-opacity="0"/><stop offset=".51" stop-color="#B8FBF8" stop-opacity=".5"/><stop offset="1" stop-color="#E3D3FF"/></linearGradient><linearGradient id="m" x1="400.891" y1="359.787" x2="411.803" y2="399.581" gradientUnits="userSpaceOnUse"><stop stop-color="#E6C1FF"/><stop offset=".406" stop-color="#B6C7FF"/><stop offset="1" stop-color="#AFF1FF"/></linearGradient><linearGradient id="n" x1="372.5" y1="339.5" x2="424.07" y2="420.156" gradientUnits="userSpaceOnUse"><stop stop-color="#F2DEFF"/><stop offset=".333" stop-color="#fff"/><stop offset=".625" stop-color="#DDE5FF"/><stop offset="1" stop-color="#D9F8FF"/></linearGradient><linearGradient id="o" x1="405.439" y1="330.139" x2="418.03" y2="368.827" gradientUnits="userSpaceOnUse"><stop stop-color="#F3E1FF"/><stop offset=".406" stop-color="#CED9FF"/><stop offset="1" stop-color="#CDF6FF"/></linearGradient><linearGradient id="p" x1="378.533" y1="318.001" x2="456.935" y2="417.647" gradientUnits="userSpaceOnUse"><stop stop-color="#E6007A"/><stop offset=".21" stop-color="#703AC2"/><stop offset=".46" stop-color="#0070EB"/><stop offset=".77" stop-color="#0297FB"/><stop offset="1" stop-color="#0AE2FF"/></linearGradient><linearGradient id="q" x1="216" y1="103.55" x2="120" y2="141.55" gradientUnits="userSpaceOnUse"><stop stop-color="#CAB3F5"/><stop offset="1" stop-color="#87A9F0"/></linearGradient><linearGradient id="r" x1="195" y1="128.55" x2="194.606" y2="232.535" gradientUnits="userSpaceOnUse"><stop stop-color="#C8B2F5"/><stop offset="1" stop-color="#EBE7FE"/></linearGradient><linearGradient id="s" x1="143.137" y1="145.348" x2="143.137" y2="232.535" gradientUnits="userSpaceOnUse"><stop stop-color="#EECBC0"/><stop offset="1" stop-color="#B8FBF6"/></linearGradient><linearGradient id="t" x1="126" y1="58.55" x2="126" y2="125.55" gradientUnits="userSpaceOnUse"><stop stop-color="#EECBC0"/><stop offset="1" stop-color="#B7D0F8"/></linearGradient><linearGradient id="u" x1="170" y1="53.55" x2="170.311" y2="133.949" gradientUnits="userSpaceOnUse"><stop stop-color="#B8FBF6"/><stop offset="1" stop-color="#CAB3F5"/></linearGradient><linearGradient id="v" x1="487.861" y1="91.904" x2="487.861" y2="239.43" gradientUnits="userSpaceOnUse"><stop stop-color="#654FF0"/><stop offset=".531" stop-color="#9B8BFF"/><stop offset="1" stop-color="#8B9EFF"/></linearGradient><linearGradient id="w" x1="375" y1="187.55" x2="485" y2="229.55" gradientUnits="userSpaceOnUse"><stop stop-color="#7767DE"/><stop offset=".542" stop-color="#654FF0"/><stop offset="1" stop-color="#524FF0"/></linearGradient><linearGradient id="x" x1="445.601" y1="51.55" x2="446" y2="232.55" gradientUnits="userSpaceOnUse"><stop stop-color="#8472F7"/><stop offset=".526" stop-color="#C0AAFF"/><stop offset="1" stop-color="#AAE0FF"/></linearGradient></defs></svg>