<svg width="460" height="370" fill="none" xmlns="http://www.w3.org/2000/svg"><g clip-path="url(#a)"><path d="M394.989 109c0 3.038-.263 6.019-.766 8.908a55.437 55.437 0 0 1-1.005 4.592 51.903 51.903 0 0 1-12.06 21.814 51.24 51.24 0 0 1-6.693 6.076 51.703 51.703 0 0 1-17.737 8.783A51.856 51.856 0 0 1 343 161c-2.181 0-4.329-.137-6.43-.4-17.611-2.17-32.504-13.157-40.111-28.404a51.589 51.589 0 0 1-5.322-19.473 51.84 51.84 0 0 1 4.706-25.674 52.07 52.07 0 0 1 11.363-15.773 51.895 51.895 0 0 1 15.008-9.959A51.859 51.859 0 0 1 342.989 57c22.419 0 41.526 14.185 48.825 34.08a52.088 52.088 0 0 1 3.129 15.796c.023.708.046 1.416.046 2.124Z" fill="url(#b)" stroke="#29256A" stroke-width=".25"/><path d="M296.448 132.197a46.19 46.19 0 0 1-1.017-2.17 51.613 51.613 0 0 1-4.294-17.211v-.092c1.05-.137 2.49.343 3.54 3.312 1.359 3.849 7.687 13.226 1.782 16.161h-.011ZM337.301 123.357a3.605 3.605 0 0 1-.423 1.188c-1.656 2.969-7.424 4.431-13.854 3.323-5.596-.97-10.062-3.62-11.501-6.498-.422-.845-.582-1.702-.434-2.559.651-3.746 6.944-4.648 14.185-3.38 7.241 1.256 12.689 4.191 12.038 7.926h-.011ZM321.892 98.597v.011c-1.44 2.17-5.928.183-11.147-3.232-4.26-2.787-7.298-5.562-7.504-7.675a2.08 2.08 0 0 1 .32-1.348c1.439-2.192 7.149-2.341 12.38 1.085 5.231 3.427 7.401 8.966 5.962 11.159h-.011ZM379.501 130.621c-4.214 3.517-9.262 4.42-11.261 2.01a2.997 2.997 0 0 1-.274-.388c-1.531-2.502.297-6.99 4.294-10.314 4.066-3.392 8.897-4.351 11.033-2.261.08.08.16.16.228.24 1.999 2.398.206 7.195-4.02 10.713ZM349.098 101.782c-4.26 3.37-8.589 5.231-11.067 2.102a5.219 5.219 0 0 1-.605-.959c-1.577-3.175-.023-7.778 3.837-10.828 4.26-3.369 10.073-4.956 14.048.058.023.034.057.068.068.102 2.308 3.107-2.067 6.19-6.281 9.525ZM332.069 148.838c-.617.594-1.839.925-3.758.834-7.035-.309-14.676-8.875-12.54-11.627.034-.046.069-.08.103-.114 2.216-2.501 7.766 1.998 10.599 3.483 4.659 2.444 7.229 5.859 5.596 7.424ZM359.675 142.521c0 1.622-2.193 3.335-5.665 3.483-6.35.274-9.971-.948-10.827-3.209a3.217 3.217 0 0 1-.183-.765c-.308-2.753 5.505-2.284 8.566-2.444 5.745-.309 8.097 1.267 8.109 2.946v-.011ZM378.906 106.031c-.697 1.04-2.044 1.748-3.792 1.748-5.505 0-12.848-3.975-11.923-7.652a3.49 3.49 0 0 1 .445-1.085c1.416-2.284 4.991-1.177 8.429-.446 6.887 1.462 8.36 5.208 6.853 7.435h-.012ZM361.044 79.02a1.935 1.935 0 0 1-.125-.536c-.137-1.565 1.404-3.85 4.408-4.672 1.953-.536 4.591-.468 6.225.537.719.446 1.233 1.062 1.427 1.907.468 2.09-10.964 5.174-11.923 2.753l-.012.011ZM329.647 74.155c-.388.229-.845.16-1.336-.331-3.369-3.37-3.666-8.874-1.839-9.788.72-.365 1.348-.48 1.885-.422 3.654.41 3.255 9.353 1.29 10.53v.011ZM387.347 93.4c-.239.113-.525.136-.833.056-1.279-.33-2.947-2.295-3.449-5.253-.286-1.736.582-3.404 1.713-3.93 1.256-.593 2.844.23 3.483 3.93.366 2.112.309 4.59-.914 5.196ZM381.156 144.314a51.915 51.915 0 0 1-13.751 10.599c-.582-.286-1.108-.708-1.313-1.313-.183-.537-.103-1.223.457-2.091 2.135-3.369 4.282-8.565 9.171-8.874 1.427-.091 2.558.08 3.46.4.868.308 1.519.765 1.976 1.268v.011ZM356.726 159.162a51.85 51.85 0 0 1-13.728 1.827c-2.181 0-4.328-.137-6.43-.399 0-.617.115-1.28.491-1.839.366-.537.971-.971 1.965-1.131 3.666-.617 5.505-3.061 10.701-2.752 2.696.159 4.58 1.473 5.757 2.695a9.624 9.624 0 0 1 1.244 1.587v.012ZM350.069 64.413c-.252 1.302-2.467 1.77-3.53 1.28-.228-.104-.399-.252-.491-.435-.616-1.222 3.415-3.506 3.975-1.53.068.251.08.48.034.685h.012Z" fill="#3ABFF0" stroke="#29256A" stroke-width=".25"/><path d="M334.128 133.155c-1.37-.685-2.444-1.222-2.135 1.531.308 2.752 2.444 3.369 4.283 3.369 1.838 0-.914-4.283-2.136-4.888l-.012-.012ZM308.739 131.328c-1.222-.308-1.222 1.839-2.136 3.975-.914 2.135.309 3.666 2.136 3.666 1.827 0 2.444-7.036 0-7.652v.011ZM303.233 103.792c-1.176-.536-2.444-1.222-2.752 0-.308 1.222 2.444 4.592 3.974 4.592 1.531 0 2.136-3.061-1.222-4.592ZM394.993 109c0 3.038-.263 6.019-.766 8.908-.445-.171-.902-.479-1.381-.959-3.061-3.061-.743-7.401 0-8.874.822-1.645 1.644-1.496 2.101-1.211.023.708.046 1.416.046 2.124V109ZM363.493 112.358c-1.77-.217-2.753 1.222 0 2.444 2.752 1.222 2.444-2.136 0-2.444ZM297.73 98.595c-.823.412-.914 2.136 1.222 1.839 2.135-.308.616-2.752-1.222-1.839ZM341.165 77.192c-.914.309-2.136 1.223 0 1.53 2.136.31.913-1.838 0-1.53ZM346.362 77.192c-1.119-.65-1.222 2.445-.309 3.667.914 1.222 3.975-1.53.309-3.666ZM356.148 149.682c-.662.148-.914 1.222.914 1.839 1.827.616 1.839-2.445-.914-1.839ZM329.536 154.878c-.913.308-1.838.914 0 1.53 1.839.617.914-1.838 0-1.53ZM331.067 109.914c-1.553.068 1.839 2.136 2.753 2.444.914.308 3.666-2.752-2.753-2.444ZM381.23 101.965c-.766.594.616 3.974 1.838 3.666 1.223-.308.914-5.813-1.838-3.666Z" fill="#3AA3EF" stroke="#29256A" stroke-width=".25"/><path d="M356.624 123.403a15.484 15.484 0 0 1-.479 1.496c-.891 2.387-6.156 3.323-7.55 2.227a.767.767 0 0 1-.103-.092c-1.222-1.222-.034-4.294.617-5.813.914-2.136 5.505-3.666 7.036-3.061 1.233.491 1.073 2.993.479 5.231v.012Z" fill="#3ABFF0" stroke="#29256A" stroke-width=".25"/><path d="M303.219 87.712c-.045-.48.058-.937.32-1.348 1.439-2.193 7.15-2.341 12.381 1.085s7.401 8.966 5.961 11.159v.01c.08-1.335-.479-3.208-2.432-5.824-5.094-6.795-14.379-9.137-16.218-5.082h-.012ZM337.301 123.357a3.597 3.597 0 0 1-.423 1.188c-.125-.525-1.256-4.648-6.407-6.373-5.345-1.782-12.54-3.369-16.823 0-1.371 1.074-1.953 2.181-2.125 3.187-.422-.846-.582-1.702-.434-2.559.651-3.746 6.944-4.648 14.185-3.38 7.241 1.256 12.689 4.191 12.038 7.926l-.011.011ZM345.752 91.252c-5.688 1.965-8.087 7.538-8.326 11.673-1.577-3.175-.023-7.778 3.837-10.828 4.26-3.369 10.073-4.956 14.048.058.023.034.057.068.068.102-1.736-1.325-4.853-2.65-9.627-.993v-.012ZM356.625 123.403c-.058-2.216-.606-4.717-2.924-4.009-2.376.731-5.071 5.036-5.094 7.732a.71.71 0 0 1-.103-.092c-1.222-1.222-.034-4.294.617-5.813.914-2.136 5.505-3.666 7.035-3.061 1.234.491 1.074 2.993.48 5.231l-.011.012ZM378.908 106.031c.697-4.031-5.767-5.333-8.999-6.51-3.198-1.165-5.391-.753-6.282-.48 1.416-2.283 4.991-1.176 8.429-.445 6.887 1.462 8.36 5.208 6.852 7.435ZM361.044 79.02a1.934 1.934 0 0 1-.126-.536c1.93 1.279 6.875.24 9.605-.994 1.953-.89 1.633-2.193 1.028-3.13.719.446 1.233 1.063 1.428 1.908.468 2.09-10.965 5.174-11.924 2.753h-.011ZM329.647 74.155c-.388.229-.845.16-1.336-.331-3.369-3.37-3.666-8.874-1.839-9.788.72-.365 1.348-.48 1.885-.422-.743.137-1.885.788-1.885 3.483 0 3.107 1.496 5.653 3.164 7.058h.011ZM350.069 64.413c-.103-.525-.514-1.028-1.873-.685-1.108.274-1.531 1.119-1.657 1.964-.228-.103-.399-.251-.491-.434-.616-1.222 3.415-3.506 3.975-1.53.068.251.08.48.034.685h.012ZM332.07 148.838c-.263-1.645-1.77-3.244-4.374-4.671-3.369-1.839-5.814-3.667-7.949-5.197-1.12-.799-2.661-1.016-3.872-1.039 2.216-2.501 7.766 1.998 10.599 3.483 4.66 2.444 7.229 5.859 5.596 7.424ZM359.675 142.522c-.491-1.222-1.976-1.725-4.443-1.725h-8.566c-3.278 0-3.472 1.896-3.483 1.987a3.217 3.217 0 0 1-.183-.765c-.308-2.752 5.505-2.284 8.566-2.444 5.745-.308 8.097 1.268 8.109 2.947ZM355.482 157.575a9.624 9.624 0 0 1 1.244 1.587 51.81 51.81 0 0 1-13.728 1.828c-2.181 0-4.328-.137-6.43-.4 0-.617.115-1.279.491-1.839 10.165 2.387 16.024.16 18.423-1.188v.012ZM381.158 144.315a51.912 51.912 0 0 1-13.751 10.598c-.582-.285-1.108-.708-1.313-1.313 8.531-3.198 12.22-8.988 13.088-10.553.868.308 1.519.765 1.976 1.268ZM383.293 119.668c-.685-.24-5.562-1.599-11.238 4.922-2.867 3.301-3.861 5.859-4.089 7.653-1.531-2.502.297-6.99 4.294-10.314 4.066-3.392 8.897-4.351 11.033-2.261ZM386.514 93.445c-1.279-.331-2.947-2.295-3.449-5.253-.286-1.736.582-3.404 1.713-3.93-.491.652-.948 1.645-.8 3.016.252 2.215 1.085 4.431 2.524 6.167h.012ZM296.448 132.197a46.19 46.19 0 0 1-1.017-2.17c1.462-1.325 2.901-3.746 1.074-7.572-2.262-4.74-3.358-8.817-5.368-9.639v-.092c1.05-.137 2.49.343 3.54 3.312 1.359 3.849 7.687 13.226 1.782 16.161h-.011Z" fill="#377BE2" stroke="#29256A" stroke-width=".25"/><path style="mix-blend-mode:multiply" opacity=".35" d="M394.989 109c0 3.038-.263 6.019-.766 8.908-1.747 10.097-6.407 19.199-13.077 26.406a51.9 51.9 0 0 1-13.751 10.599 51.67 51.67 0 0 1-10.678 4.248 51.82 51.82 0 0 1-13.728 1.828c-2.182 0-4.329-.137-6.43-.4-17.612-2.17-32.505-13.157-40.111-28.404a51.67 51.67 0 0 1-5.311-19.462 51.84 51.84 0 0 1 4.706-25.674c.502 45.033 93.492 56.351 95.982 4.02a52.03 52.03 0 0 1 3.129 15.795c.023.708.046 1.417.046 2.125l-.011.011Z" fill="url(#c)"/><path style="mix-blend-mode:multiply" opacity=".45" d="M374.465 150.39a51.703 51.703 0 0 1-17.737 8.783A51.856 51.856 0 0 1 343 161c-2.181 0-4.329-.137-6.43-.4-17.611-2.17-32.504-13.157-40.111-28.404a51.589 51.589 0 0 1-5.322-19.473 51.84 51.84 0 0 1 4.706-25.674 52.07 52.07 0 0 1 11.363-15.773c-14.504 69.178 38.843 78.76 67.259 79.114Z" fill="url(#d)"/><path style="mix-blend-mode:hard-light" opacity=".2" d="M394.988 109c0 3.038-.263 6.019-.765 8.908a56.263 56.263 0 0 1-1.005 4.592c-1.805-41.824-30.129-65.603-71.005-61.183A51.859 51.859 0 0 1 342.988 57c22.419 0 41.527 14.185 48.825 34.08a52.027 52.027 0 0 1 3.129 15.796c.023.708.046 1.416.046 2.124Z" fill="url(#e)"/><path d="m120.151 107.129-.092.066a103.577 103.577 0 0 0-14.436 11.936 101.04 101.04 0 0 0-5.824 6.269 100.976 100.976 0 0 0-8.22 11.047 102.436 102.436 0 0 0-5.549 9.737 105.93 105.93 0 0 0-3.01 6.57l-.222.524a103.705 103.705 0 0 0-5.013 15.653 104.44 104.44 0 0 0-2.592 17.8 103.88 103.88 0 0 0 1.008 21.687c2.278 14.907 7.853 29.54 16.936 42.811 31.647 46.227 94.091 58.805 141.025 29.03a90.47 90.47 0 0 0 3.075-2.029 108.68 108.68 0 0 0 3.652-2.604 99.215 99.215 0 0 0 3.926-3.089 96.994 96.994 0 0 0 6.649-5.995 104.146 104.146 0 0 0 5.484-5.837c.497-.563.982-1.139 1.466-1.714a102.256 102.256 0 0 0 7.028-9.502c1.283-1.977 2.5-3.979 3.652-6.021a103.665 103.665 0 0 0 12.067-35.128 103.44 103.44 0 0 0 1.139-12.068c.183-5.052 0-10.117-.576-15.169a99.426 99.426 0 0 0-1.846-11.033c-2.787-12.512-7.957-24.71-15.64-35.927-.301-.445-.615-.89-.929-1.322a95.285 95.285 0 0 0-3.089-4.149c-.196-.248-.406-.51-.602-.759-.497-.615-.995-1.23-1.492-1.832a41.736 41.736 0 0 0-.72-.851c-.209-.249-.432-.497-.641-.746l-.55-.628a17.528 17.528 0 0 1-.654-.733c-.21-.236-.419-.458-.629-.694a28.902 28.902 0 0 0-.641-.693l-.641-.681c-.21-.223-.432-.458-.655-.681a80.599 80.599 0 0 0-1.714-1.74l-.17-.171c-.21-.209-.432-.418-.642-.628a61.554 61.554 0 0 0-1.675-1.57c-.34-.301-.667-.615-1.021-.916-.327-.288-.654-.589-.981-.864a91.466 91.466 0 0 0-4.267-3.521 86.822 86.822 0 0 0-2.173-1.649c-.419-.301-.837-.615-1.256-.916-.327-.223-.642-.458-.969-.681-.379-.262-.746-.523-1.125-.772-.38-.262-.759-.51-1.139-.759s-.759-.498-1.152-.746a60.72 60.72 0 0 0-2.316-1.44c-.393-.235-.786-.471-1.178-.694a57.32 57.32 0 0 0-1.178-.68c-.393-.223-.799-.445-1.191-.668-.799-.445-1.61-.877-2.408-1.295-.812-.419-1.623-.825-2.435-1.218a66.42 66.42 0 0 0-.995-.47c-.379-.17-.759-.354-1.138-.524-.288-.131-.589-.275-.89-.406-.458-.21-.929-.419-1.401-.615-.379-.17-.772-.327-1.151-.484a78.818 78.818 0 0 0-2.893-1.152c-.406-.144-.798-.301-1.204-.445-.393-.144-.785-.288-1.191-.432-.393-.13-.785-.275-1.178-.406a11.435 11.435 0 0 0-.615-.21c-.209-.065-.419-.143-.641-.209a103.944 103.944 0 0 0-41.32-4.685h-.026c-.248.013-.484.04-.733.065-2.303.223-4.607.524-6.897.903-2.474.406-4.934.903-7.382 1.492-1.413.34-2.827.707-4.214 1.113a103.48 103.48 0 0 0-19.933 8.036 106.563 106.563 0 0 0-10.065 6.086l.013.026Z" fill="url(#f)"/><path d="M83.531 215.303c5.654 4.28 12.041 8.415 14.685 14.986 1.453 3.612 1.636 7.669 3.468 11.098 2.317 4.293 6.95 6.924 11.675 8.089 4.738 1.178 9.672 1.112 14.541 1.322 8.271.366 16.635 1.662 24.344 4.79 3.992 1.623 9.934 3.992 12.25 7.84.785 1.295 1.086 2.814 1.832 4.122.55.982 1.335 1.82 1.191 3.05-.196 1.649-2.277 2.395-3.913 2.094-2.801-.523-5.366-1.453-8.219-1.924-1.78-.288-4.057.026-4.123 2.16-.078 2.787 3.822 3.547 5.667 4.371 5.772 2.605 10.209 4.83 16.74 5.209 6.295.367 12.708-.118 18.834 1.374 3.088.746 6.073 1.99 9.227 2.317 6.086.628 7.944-3.795 12.852-5.981 4.895-2.186 10.536-1.034 15.863-.327 1.204.157 2.461.274 3.704.327-46.934 29.775-109.39 17.211-141.024-29.03-9.057-13.245-14.646-27.877-16.91-42.785 2.068 2.605 4.698 4.908 7.33 6.898h-.014Zm59.355 58.634c-.301-1.151-1.074-2.12-1.872-2.997-4.371-4.803-10.497-7.997-16.936-8.834-1.597-.21-3.665.013-4.162 1.544-.262.799.052 1.662.406 2.435 2.421 5.287 7.094 9.214 12.538 11.111 2.788.982 11.57 2.5 10.026-3.272v.013Zm37.916 2.186c.419-.065.864-.183 1.112-.51.432-.576.027-1.388-.405-1.963a15.755 15.755 0 0 0-7.709-5.393c-3.154-.981-2.749 3.482-1.309 4.987 2.094 2.199 5.314 3.337 8.311 2.879ZM168.761 89.539c1.322 1.675 2.997 4.228 4.921 5.288 2.356 1.295 5.785 1.295 8.363 2.146 5.772 1.911 11.151 5.065 15.588 9.227 1.492 1.401 2.919 2.932 4.79 3.743 1.872.812 4.346.655 5.589-.968 1.139-1.492.89-3.691 2.016-5.183 1.675-2.212 5.143-1.571 7.709-.497 9.606 3.978 18.297 11.098 24.095 19.75 4.083 6.086 6.413 13.206 10.326 19.409 6.27 9.463 15.196 16.23 23.572 23.703a91.123 91.123 0 0 1 4.149 3.926c-2.788-12.512-7.958-24.71-15.64-35.927-.301-.445-.616-.89-.93-1.321a93.86 93.86 0 0 0-3.088-4.149l-.602-.759c-.498-.616-.995-1.231-1.493-1.833a41.663 41.663 0 0 0-.719-.851c-.21-.248-.432-.497-.642-.746l-.549-.628a16.937 16.937 0 0 1-.655-.733c-.209-.235-.419-.458-.628-.693-.209-.236-.419-.458-.641-.694l-.642-.681a31.666 31.666 0 0 0-.654-.68 69.461 69.461 0 0 0-1.008-1.034l-.707-.707-.17-.17c-.209-.209-.432-.419-.641-.628a64.696 64.696 0 0 0-1.675-1.571c-.341-.301-.668-.615-1.021-.916-.327-.288-.655-.589-.982-.864a90.948 90.948 0 0 0-4.267-3.521 120.829 120.829 0 0 0-2.172-1.649c-.419-.301-.838-.615-1.257-.916-.327-.222-.641-.458-.968-.68-.38-.262-.746-.524-1.126-.773-.379-.261-.759-.51-1.138-.759-.38-.248-.759-.497-1.152-.746-.772-.497-1.545-.968-2.317-1.439a49.573 49.573 0 0 0-1.178-.694c-.392-.236-.785-.458-1.178-.681-.392-.222-.798-.445-1.191-.667-.798-.445-1.609-.877-2.408-1.296-.811-.419-1.623-.825-2.434-1.217a72.61 72.61 0 0 0-.995-.471c-.379-.17-.759-.354-1.139-.524-.288-.13-.589-.275-.89-.406-.458-.209-.929-.418-1.4-.615-.38-.17-.772-.327-1.152-.484a54.625 54.625 0 0 0-1.309-.536c-.523-.21-1.06-.42-1.583-.616-.406-.144-.799-.3-1.204-.445-.393-.144-.786-.288-1.191-.432-.393-.13-.786-.274-1.178-.405a11.65 11.65 0 0 0-.615-.21c-.21-.065-.419-.144-.642-.21a103.71 103.71 0 0 0-41.319-4.698h-.026c-.196.04-.406.079-.602.118v.013Zm54.028 25.025c-1.964-.812-10.222-3.22-10.013-.328.053.668.38 1.283.733 1.846a32.409 32.409 0 0 0 13.952 12.604c1.073.497 2.408.929 3.377.248 1.021-.706 1.034-2.212.785-3.429-1.06-4.672-4.319-9.083-8.834-10.941ZM158.827 236.82c-1.414-2.134-3.337-3.953-5.654-5.013-2.317-1.06-5.052-1.322-7.46-.471-1.283.458-2.552 1.335-2.932 2.643-.471 1.623.537 3.273 1.531 4.634 1.676 2.303 3.586 4.633 6.23 5.68 4.751 1.872 11.78-2.212 8.285-7.473Zm-44.486 5.942c3.612 1.282 7.342.929 10.889 2.434 1.688.72 3.848 1.152 5.17-.118 1.007-.968 1.06-2.631.484-3.9-.576-1.27-1.675-2.225-2.775-3.089-5.065-3.966-10.981-6.675-16.831-9.345-1.806-.824-3.966-1.636-5.68-.628-1.218.72-1.82 2.225-1.754 3.639.065 1.413.694 2.735 1.466 3.926 2.107 3.285 5.366 5.785 9.044 7.094l-.013-.013Zm78.515 30.155c-.105.903.419 1.753.982 2.486 2.133 2.814 5.104 5.183 8.599 5.759 5.379.877 8.507-3.586 12.8-5.798 3.717-1.911 8.075-2.618 12.185-1.832 4.489.85 8.9 1.544 13.467 2.094a99.983 99.983 0 0 0 3.927-3.089c-1.937-.118-3.861-.327-5.746-.772-4.869-1.152-8.167-5.563-13.376-5.144-4.555.38-8.167 4.267-12.669 5-3.115.51-6.243-.537-9.306-1.296-3.062-.759-6.505-1.152-9.214.471-.798.485-1.544 1.204-1.649 2.134v-.013ZM83.021 152.742l-.223.523a103.742 103.742 0 0 0-5.013 15.653c.053.092.105.184.144.262 2.251 3.966 6.61 6.898 7.251 11.413.615 4.306-2.408 8.167-3.808 12.277-4.189 12.316 6.845 20.823 16.059 26.412.837.51 1.714.994 2.696 1.112.968.118 2.055-.209 2.578-1.034.681-1.086.183-2.487-.379-3.638-3.22-6.636-10.183-13.128-9.018-21.203.602-4.175 3.743-7.827 3.52-12.028-.183-3.77-2.997-6.78-5.143-9.895-4.018-5.85-6.27-12.656-8.547-19.462-.052-.131-.091-.275-.13-.406l.013.014Zm8.546-16.308a102.436 102.436 0 0 0-5.55 9.737c1.558 2.343 3.98 4.123 6.715 4.817.811.209 1.715.314 2.448-.105.732-.419 1.125-1.283 1.177-2.133.053-.838-.196-1.676-.458-2.487-.772-2.382-2.094-6.989-4.332-9.829Zm62.797-44.552c3.429 4.319 8.808 6.007 13.101 9.358 2.526 1.976 3.325 4.581 5.471 6.766 2.146 2.186 5.091 3.521 7.958 4.45 4.214 1.375 8.703 2.147 12.433 4.555 2.867 1.859 5.065 4.568 7.159 7.264a254.982 254.982 0 0 1 10.72 14.894c2.133 3.207 4.227 6.479 7.015 9.149 2.775 2.657 6.387 4.672 10.235 4.738 3.651.065 7.342-1.623 10.863-.642 2.264.629 4.083 2.265 5.798 3.861 8.363 7.762 17.486 15.392 24.841 24.043 4.345 5.118 8.743 10.301 12.355 15.928.184-5.052 0-10.117-.576-15.169-3.756-5.392-8.468-10.169-13.114-14.855-4.738-4.777-9.476-9.567-14.214-14.344-8.991-9.083-18.624-18.533-31.018-21.687-1.872-.471-3.796-.799-5.576-1.545-3.822-1.596-6.57-4.934-9.476-7.905-8.101-8.311-18.31-14.384-29.16-18.506-3.246-1.244-6.596-2.317-9.528-4.202-3.128-2.002-5.576-4.764-7.905-7.656-2.474.406-4.935.903-7.382 1.492v.013Zm100.883 125.816c.838-.21 1.675-.641 2.16-1.361 1.007-1.532.026-3.56-1.008-5.078-2.84-4.202-6.322-8.194-10.719-10.824-1.977-1.178-3.508-1.492-5.681-1.793-2.015-.288-4.371-1.689-6.347-1.571-.55.039-1.074.301-1.532.602-1.884 1.204-3.416 3.403-2.905 5.589.183.746.576 1.426 1.047 2.041a10.119 10.119 0 0 0 5.183 3.534c1.544.445 3.18.524 4.685 1.047 5.039 1.754 9.07 9.384 15.117 7.827v-.013Zm-74.419-99.457c-2.055-.549-4.24-.903-6.308-.392-2.068.51-3.979 2.094-4.333 4.201-.392 2.33 1.152 4.568 2.971 6.06 1.636 1.348 3.547 2.343 5.432 3.311 6.439 3.338 12.879 6.688 19.331 10.026.969.51 2.33.942 3.024.091.431-.536.34-1.309.183-1.976-2.134-9.293-11.177-18.886-20.287-21.334l-.013.013Zm41.267 46.031a7.932 7.932 0 0 0 4.738-.392c1.165-.485 2.081-.616 3.298-.89 1.27-.288 2.29-.851 2.775-2.121.078-.209.131-.445.052-.641-.092-.223-.301-.353-.497-.484-2.107-1.283-4.267-2.566-6.688-3.076-2.409-.497-5.157-.079-6.885 1.675-.824.838-1.374 2.081-.994 3.194.549 1.583 2.722 2.395 4.214 2.735h-.013Zm-91.892-63.242c4.633 4.725 11.727 6.649 17.002 10.837 5.405 4.32 9.188 11.217 15.876 12.971.405.104.863.183 1.204-.04.288-.183.419-.536.549-.863 1.205-3.325 2.422-6.819 1.911-10.301-.733-4.999-4.672-8.507-8.206-11.727-3.049-2.787-5.51-6.02-8.389-8.913a103.538 103.538 0 0 0-19.934 8.036h-.013Zm-6.073 14.79c2.5 4.306 6.414 7.565 9.555 11.426 7.552 9.266 10.745 22.106 20.312 29.304 5.641 4.241 12.866 5.968 18.52 10.183 8.036 5.981 11.858 16.098 18.952 23.153 6.792 6.753 16.491 10.627 21.595 18.742 2.539 4.044 3.691 8.808 5.89 13.049 3.167 6.099 8.363 10.758 14.174 14.292 2.997 1.819 6.165 3.364 9.384 4.751 5.929 2.539 11.165 6.23 17.63 7.526 1.78.366 3.652.562 5.314 1.269a104.066 104.066 0 0 1-7.028 9.502c-5.484-2.212-10.484-5.68-15.183-9.201-4.895-3.665-10.104-5.615-16.347-4.947-5.13.549-9.057 2.67-14.004-.144-3.992-2.264-8.952-2.853-12.565-5.785-3.416-2.762-5.104-7.081-6.949-11.086-7.33-15.915-19.423-29.605-34.317-38.858-3.848-2.382-8.194-4.542-12.67-3.992-1.727.209-3.39.824-5.13 1.034-6.937.824-12.957-4.961-16.269-11.112-1.793-3.311-3.141-6.871-3.926-10.562-.838-3.874-1.06-7.84-1.597-11.766-1.675-12.081-6.518-23.69-13.834-33.44a104.214 104.214 0 0 1 14.436-11.937c1.518 2.788 2.487 5.877 4.084 8.625l-.027-.026Zm22.512 55.389c1.898-.628 3.939-.196 5.798-.746 4.777-1.414.838-6.439-1.283-8.717-5.902-6.348-11.792-12.695-17.695-19.043-1.374-1.479-3.403-3.102-5.196-2.146-1.348.706-1.649 2.473-1.701 3.991-.354 9.646 3.429 19.371 10.195 26.255 1.165 1.191 2.553 2.343 4.215 2.448 2.107.117 3.769-1.401 5.667-2.029v-.013Zm65.362 64.21c1.95.812 9.908 1.859 7.185-2.5-2.46-3.926-6.779-6.504-8.886-10.627-.825-1.61-1.27-3.39-1.977-5.065-.707-1.662-1.767-3.298-3.39-4.11-.628-.314-1.335-.497-2.015-.366-.445.078-.864.288-1.244.549-1.897 1.309-2.656 3.835-2.395 6.126.262 2.29 1.362 4.397 2.553 6.373 2.499 4.162 5.601 7.722 10.169 9.633v-.013Zm-77.9-122.151c2.604.052 5.038 1.282 7.211 2.696 4.934 3.194 9.057 7.434 12.826 11.897 3.796 4.489 5.275 7.617 11.518 7.788 17.774.471 32.982 12.551 45.52 25.168 3.796 3.809 8.167 8.023 13.547 7.84 2.827-.092 5.47-1.44 8.258-1.911 4.921-.838 9.908 1.073 14.253 3.534 5.89 3.337 11.125 7.722 15.745 12.669 6.898 7.395 13.311 16.295 18.206 25.391a104.132 104.132 0 0 1-12.067 35.128h-.55c-7.984-.157-15.876-2.67-22.577-6.963-6.44-4.122-15.339-10.98-16.975-18.846-.328-1.597.026-3.77 1.636-4.058.615-.117 1.23.105 1.819.327 5.17 1.951 11.229 3.809 15.771 6.95 3.455 2.382 7.225 5.824 11.805 4.175 3.534-1.269 5.314-5.484 4.908-9.214-.418-3.73-2.552-7.041-4.855-10.012-3.9-5.039-8.599-9.672-14.449-12.224-2.317-1.008-4.778-1.689-7.016-2.893-5.811-3.128-9.894-9.737-16.425-10.614-1.217-.17-2.801.157-3.063 1.361-.092.379 0 .785.092 1.165a24.389 24.389 0 0 0 5.078 10.025c.471.563.982 1.126 1.178 1.833.837 3.115-3.05 4.986-5.458 4.24-3.966-1.23-7.015-5.065-10.34-7.355-4.685-3.246-9.567-6.243-14.344-9.358-1.623-1.061-3.272-2.147-4.476-3.678-1.191-1.531-1.859-3.612-1.244-5.445.262-.759.72-1.453.773-2.238.078-.929-.419-1.793-.89-2.591-1.27-2.16-2.67-4.424-4.895-5.563-.917-.471-1.937-.72-2.919-1.008-4.555-1.335-9.24-3.298-13.651-5.012-5.261-2.029-10.549-5.301-14.214-9.633-3.599-4.241-4.685-9.973-8.206-14.515-3.743-4.803-8.337-8.874-12.826-12.957-1.309-1.204-2.749-2.945-1.99-4.555.563-1.165 2.029-1.57 3.312-1.531l-.026-.013Zm114.363 73.62c1.048.144 5.628.681 6.217-.17.131-.183.131-.432.092-.667-.209-1.675-1.414-3.024-2.592-4.228-4.175-4.227-9.292-8.193-15.234-8.324-1.008-.026-2.199.17-2.696 1.047-.668 1.165.301 2.553 1.217 3.547 2.029 2.199 4.083 4.411 6.544 6.125 1.924 1.335 4.11 2.343 6.439 2.67h.013Zm-144.99-56.815c2.513 3.992 3.888 8.952 2.579 13.494-1.126 3.952-4.188 7.408-4.149 11.517.052 5.393 5.209 9.123 7.8 13.848 2.5 4.567 2.539 10.025 3.128 15.208.341 2.958.799 7.251 2.919 9.502 2.042 2.173 4.974 3.979 7.159 6.151 2.304 2.291 4.869 4.503 8.01 5.327 3.141.812 6.976-.209 8.455-3.089 1.06-2.041.772-4.646 2.042-6.57 1.335-2.042 4.109-2.748 6.518-2.303 2.395.445 4.515 1.819 6.518 3.206 14.41 10.013 27.131 22.904 34.958 38.61.772 1.558 1.518 3.22 1.466 4.961-.053 1.74-1.139 3.573-2.853 3.9-.668.131-1.492.078-1.872.654-.445.668.131 1.532.707 2.107 4.096 4.071 11.543 10.235 17.786 7.277 1.689-.798 3.272-2.015 5.144-2.172 4.751-.406 7.735 4.816 12.722 3.429 2.931-.825 5.523-2.709 8.533-3.194 4.686-.746 8.861 2.003 12.813 4.084 2.029 1.06 4.176 2.264 6.44 2.683.602.118 7.264 1.348 6.649 2.042a104.845 104.845 0 0 1-5.484 5.837c-.445-.092-.851-.17-1.204-.223-2.801-.431-5.746-.654-8.495-1.204-3.167-.628-5.758-2.879-8.873-3.782-3.246-.956-6.963-.916-9.83.89-2.499 1.57-4.397 4.45-7.329 4.764-2.539.262-4.816-1.518-7.316-1.976-2.565-.472-5.144.458-7.722.903-10.471 1.819-20.679-4.476-28.205-11.125-3.377-2.984-9.214-7.604-7.945-12.8.472-1.898 1.885-3.495 2.239-5.419.693-3.795-2.474-6.923-5.445-8.559-5.183-2.854-10.667-8.311-16.53-9.581-1.558-.327-3.325-.092-4.476 1.008-2.409 2.303-.851 6.609-2.605 9.436-2.893 4.673-7.971 1.676-11.374-.497-6.976-4.45-13.664-8.638-19.291-14.829-3.966-4.358-9.385-10.379-8.625-16.779.353-2.905 2.486-5.261 3.494-8.01 2.12-5.745-.929-12.015-4.162-17.224-2.133-3.442-4.49-7.237-3.861-11.242.76-4.843 5.615-8.115 6.924-12.84 1.4-5.052-1.571-10.222-4.725-14.41-.38-.51-.76-1.008-1.152-1.505a98.859 98.859 0 0 1 4.856-6.138c1.322 1.466 2.604 2.971 3.677 4.672l-.013-.039Zm48.413 70.506c-1.23-.432-2.918-1.165-4.083-.393-.982.641-1.767 2.879-1.689 3.992.079 1.06.72 1.989 1.388 2.827a39.078 39.078 0 0 0 11.596 9.868c1.152.642 2.591 1.231 3.743.563.864-.497 1.257-1.597 1.191-2.591-.065-.995-.51-1.937-.955-2.827-1.113-2.238-2.317-4.45-3.927-6.374-1.871-2.212-4.489-4.11-7.251-5.065h-.013Z" fill="#302A46" style="mix-blend-mode:screen"/><path style="mix-blend-mode:screen" d="M222.746 180.625c4.241-37.166-22.449-70.733-59.615-74.974s-70.732 22.45-74.973 59.615c-4.241 37.166 22.449 70.733 59.615 74.974 37.165 4.241 70.732-22.45 74.973-59.615Z" fill="url(#g)"/><path opacity=".8" d="M83.531 215.303c5.654 4.28 12.041 8.415 14.685 14.986 1.453 3.612 1.636 7.669 3.468 11.098 2.317 4.293 6.95 6.924 11.675 8.089 4.738 1.178 9.672 1.112 14.541 1.322 8.271.366 16.635 1.662 24.344 4.79 3.992 1.623 9.934 3.992 12.25 7.84.785 1.295 1.086 2.814 1.832 4.122.55.982 1.335 1.82 1.191 3.05-.196 1.649-2.277 2.395-3.913 2.094-2.801-.523-5.366-1.453-8.219-1.924-1.78-.288-4.057.026-4.123 2.16-.078 2.787 3.822 3.547 5.667 4.371 5.772 2.605 10.209 4.83 16.74 5.209 6.295.367 12.708-.118 18.834 1.374 3.088.746 6.073 1.99 9.227 2.317 6.086.628 7.944-3.795 12.852-5.981 4.895-2.186 10.536-1.034 15.863-.327 1.204.157 2.461.274 3.704.327-46.934 29.775-109.39 17.211-141.024-29.03-9.057-13.245-14.646-27.877-16.91-42.785 2.068 2.605 4.698 4.908 7.33 6.898h-.014Zm59.355 58.634c-.301-1.151-1.074-2.12-1.872-2.997-4.371-4.803-10.497-7.997-16.936-8.834-1.597-.21-3.665.013-4.162 1.544-.262.799.052 1.662.406 2.435 2.421 5.287 7.094 9.214 12.538 11.111 2.788.982 11.57 2.5 10.026-3.272v.013Zm37.916 2.186c.419-.065.864-.183 1.112-.51.432-.576.027-1.388-.405-1.963a15.755 15.755 0 0 0-7.709-5.393c-3.154-.981-2.749 3.482-1.309 4.987 2.094 2.199 5.314 3.337 8.311 2.879ZM168.761 89.539c1.322 1.675 2.997 4.228 4.921 5.288 2.356 1.295 5.785 1.295 8.363 2.146 5.772 1.911 11.151 5.065 15.588 9.227 1.492 1.401 2.919 2.932 4.79 3.743 1.872.812 4.346.655 5.589-.968 1.139-1.492.89-3.691 2.016-5.183 1.675-2.212 5.143-1.571 7.709-.497 9.606 3.978 18.297 11.098 24.095 19.75 4.083 6.086 6.413 13.206 10.326 19.409 6.27 9.463 15.196 16.23 23.572 23.703a91.123 91.123 0 0 1 4.149 3.926c-2.788-12.512-7.958-24.71-15.64-35.927-.301-.445-.616-.89-.93-1.321a93.86 93.86 0 0 0-3.088-4.149l-.602-.759c-.498-.616-.995-1.231-1.493-1.833a41.663 41.663 0 0 0-.719-.851c-.21-.248-.432-.497-.642-.746l-.549-.628a16.937 16.937 0 0 1-.655-.733c-.209-.235-.419-.458-.628-.693-.209-.236-.419-.458-.641-.694l-.642-.681a31.666 31.666 0 0 0-.654-.68 69.461 69.461 0 0 0-1.008-1.034l-.707-.707-.17-.17c-.209-.209-.432-.419-.641-.628a64.696 64.696 0 0 0-1.675-1.571c-.341-.301-.668-.615-1.021-.916-.327-.288-.655-.589-.982-.864a90.948 90.948 0 0 0-4.267-3.521 120.829 120.829 0 0 0-2.172-1.649c-.419-.301-.838-.615-1.257-.916-.327-.222-.641-.458-.968-.68-.38-.262-.746-.524-1.126-.773-.379-.261-.759-.51-1.138-.759-.38-.248-.759-.497-1.152-.746-.772-.497-1.545-.968-2.317-1.439a49.573 49.573 0 0 0-1.178-.694c-.392-.236-.785-.458-1.178-.681-.392-.222-.798-.445-1.191-.667-.798-.445-1.609-.877-2.408-1.296-.811-.419-1.623-.825-2.434-1.217a72.61 72.61 0 0 0-.995-.471c-.379-.17-.759-.354-1.139-.524-.288-.13-.589-.275-.89-.406-.458-.209-.929-.418-1.4-.615-.38-.17-.772-.327-1.152-.484a54.625 54.625 0 0 0-1.309-.536c-.523-.21-1.06-.42-1.583-.616-.406-.144-.799-.3-1.204-.445-.393-.144-.786-.288-1.191-.432-.393-.13-.786-.274-1.178-.405a11.65 11.65 0 0 0-.615-.21c-.21-.065-.419-.144-.642-.21a103.71 103.71 0 0 0-41.319-4.698h-.026c-.196.04-.406.079-.602.118v.013Zm54.028 25.025c-1.964-.812-10.222-3.22-10.013-.328.053.668.38 1.283.733 1.846a32.409 32.409 0 0 0 13.952 12.604c1.073.497 2.408.929 3.377.248 1.021-.706 1.034-2.212.785-3.429-1.06-4.672-4.319-9.083-8.834-10.941ZM158.827 236.82c-1.414-2.134-3.337-3.953-5.654-5.013-2.317-1.06-5.052-1.322-7.46-.471-1.283.458-2.552 1.335-2.932 2.643-.471 1.623.537 3.273 1.531 4.634 1.676 2.303 3.586 4.633 6.23 5.68 4.751 1.872 11.78-2.212 8.285-7.473Zm-44.486 5.942c3.612 1.282 7.342.929 10.889 2.434 1.688.72 3.848 1.152 5.17-.118 1.007-.968 1.06-2.631.484-3.9-.576-1.27-1.675-2.225-2.775-3.089-5.065-3.966-10.981-6.675-16.831-9.345-1.806-.824-3.966-1.636-5.68-.628-1.218.72-1.82 2.225-1.754 3.639.065 1.413.694 2.735 1.466 3.926 2.107 3.285 5.366 5.785 9.044 7.094l-.013-.013Zm78.515 30.155c-.105.903.419 1.753.982 2.486 2.133 2.814 5.104 5.183 8.599 5.759 5.379.877 8.507-3.586 12.8-5.798 3.717-1.911 8.075-2.618 12.185-1.832 4.489.85 8.9 1.544 13.467 2.094a99.983 99.983 0 0 0 3.927-3.089c-1.937-.118-3.861-.327-5.746-.772-4.869-1.152-8.167-5.563-13.376-5.144-4.555.38-8.167 4.267-12.669 5-3.115.51-6.243-.537-9.306-1.296-3.062-.759-6.505-1.152-9.214.471-.798.485-1.544 1.204-1.649 2.134v-.013ZM83.021 152.742l-.223.523a103.742 103.742 0 0 0-5.013 15.653c.053.092.105.184.144.262 2.251 3.966 6.61 6.898 7.251 11.413.615 4.306-2.408 8.167-3.808 12.277-4.189 12.316 6.845 20.823 16.059 26.412.837.51 1.714.994 2.696 1.112.968.118 2.055-.209 2.578-1.034.681-1.086.183-2.487-.379-3.638-3.22-6.636-10.183-13.128-9.018-21.203.602-4.175 3.743-7.827 3.52-12.028-.183-3.77-2.997-6.78-5.143-9.895-4.018-5.85-6.27-12.656-8.547-19.462-.052-.131-.091-.275-.13-.406l.013.014Zm8.546-16.308a102.436 102.436 0 0 0-5.55 9.737c1.558 2.343 3.98 4.123 6.715 4.817.811.209 1.715.314 2.448-.105.732-.419 1.125-1.283 1.177-2.133.053-.838-.196-1.676-.458-2.487-.772-2.382-2.094-6.989-4.332-9.829Zm62.797-44.552c3.429 4.319 8.808 6.007 13.101 9.358 2.526 1.976 3.325 4.581 5.471 6.766 2.146 2.186 5.091 3.521 7.958 4.45 4.214 1.375 8.703 2.147 12.433 4.555 2.867 1.859 5.065 4.568 7.159 7.264a254.982 254.982 0 0 1 10.72 14.894c2.133 3.207 4.227 6.479 7.015 9.149 2.775 2.657 6.387 4.672 10.235 4.738 3.651.065 7.342-1.623 10.863-.642 2.264.629 4.083 2.265 5.798 3.861 8.363 7.762 17.486 15.392 24.841 24.043 4.345 5.118 8.743 10.301 12.355 15.928.184-5.052 0-10.117-.576-15.169-3.756-5.392-8.468-10.169-13.114-14.855-4.738-4.777-9.476-9.567-14.214-14.344-8.991-9.083-18.624-18.533-31.018-21.687-1.872-.471-3.796-.799-5.576-1.545-3.822-1.596-6.57-4.934-9.476-7.905-8.101-8.311-18.31-14.384-29.16-18.506-3.246-1.244-6.596-2.317-9.528-4.202-3.128-2.002-5.576-4.764-7.905-7.656-2.474.406-4.935.903-7.382 1.492v.013Zm100.883 125.816c.838-.21 1.675-.641 2.16-1.361 1.007-1.532.026-3.56-1.008-5.078-2.84-4.202-6.322-8.194-10.719-10.824-1.977-1.178-3.508-1.492-5.681-1.793-2.015-.288-4.371-1.689-6.347-1.571-.55.039-1.074.301-1.532.602-1.884 1.204-3.416 3.403-2.905 5.589.183.746.576 1.426 1.047 2.041a10.119 10.119 0 0 0 5.183 3.534c1.544.445 3.18.524 4.685 1.047 5.039 1.754 9.07 9.384 15.117 7.827v-.013Zm-74.419-99.457c-2.055-.549-4.24-.903-6.308-.392-2.068.51-3.979 2.094-4.333 4.201-.392 2.33 1.152 4.568 2.971 6.06 1.636 1.348 3.547 2.343 5.432 3.311 6.439 3.338 12.879 6.688 19.331 10.026.969.51 2.33.942 3.024.091.431-.536.34-1.309.183-1.976-2.134-9.293-11.177-18.886-20.287-21.334l-.013.013Zm41.267 46.031a7.932 7.932 0 0 0 4.738-.392c1.165-.485 2.081-.616 3.298-.89 1.27-.288 2.29-.851 2.775-2.121.078-.209.131-.445.052-.641-.092-.223-.301-.353-.497-.484-2.107-1.283-4.267-2.566-6.688-3.076-2.409-.497-5.157-.079-6.885 1.675-.824.838-1.374 2.081-.994 3.194.549 1.583 2.722 2.395 4.214 2.735h-.013Zm-91.892-63.242c4.633 4.725 11.727 6.649 17.002 10.837 5.405 4.32 9.188 11.217 15.876 12.971.405.104.863.183 1.204-.04.288-.183.419-.536.549-.863 1.205-3.325 2.422-6.819 1.911-10.301-.733-4.999-4.672-8.507-8.206-11.727-3.049-2.787-5.51-6.02-8.389-8.913a103.538 103.538 0 0 0-19.934 8.036h-.013Zm-6.073 14.79c2.5 4.306 6.414 7.565 9.555 11.426 7.552 9.266 10.745 22.106 20.312 29.304 5.641 4.241 12.866 5.968 18.52 10.183 8.036 5.981 11.858 16.098 18.952 23.153 6.792 6.753 16.491 10.627 21.595 18.742 2.539 4.044 3.691 8.808 5.89 13.049 3.167 6.099 8.363 10.758 14.174 14.292 2.997 1.819 6.165 3.364 9.384 4.751 5.929 2.539 11.165 6.23 17.63 7.526 1.78.366 3.652.562 5.314 1.269a104.066 104.066 0 0 1-7.028 9.502c-5.484-2.212-10.484-5.68-15.183-9.201-4.895-3.665-10.104-5.615-16.347-4.947-5.13.549-9.057 2.67-14.004-.144-3.992-2.264-8.952-2.853-12.565-5.785-3.416-2.762-5.104-7.081-6.949-11.086-7.33-15.915-19.423-29.605-34.317-38.858-3.848-2.382-8.194-4.542-12.67-3.992-1.727.209-3.39.824-5.13 1.034-6.937.824-12.957-4.961-16.269-11.112-1.793-3.311-3.141-6.871-3.926-10.562-.838-3.874-1.06-7.84-1.597-11.766-1.675-12.081-6.518-23.69-13.834-33.44a104.214 104.214 0 0 1 14.436-11.937c1.518 2.788 2.487 5.877 4.084 8.625l-.027-.026Zm22.512 55.389c1.898-.628 3.939-.196 5.798-.746 4.777-1.414.838-6.439-1.283-8.717-5.902-6.348-11.792-12.695-17.695-19.043-1.374-1.479-3.403-3.102-5.196-2.146-1.348.706-1.649 2.473-1.701 3.991-.354 9.646 3.429 19.371 10.195 26.255 1.165 1.191 2.553 2.343 4.215 2.448 2.107.117 3.769-1.401 5.667-2.029v-.013Zm65.362 64.21c1.95.812 9.908 1.859 7.185-2.5-2.46-3.926-6.779-6.504-8.886-10.627-.825-1.61-1.27-3.39-1.977-5.065-.707-1.662-1.767-3.298-3.39-4.11-.628-.314-1.335-.497-2.015-.366-.445.078-.864.288-1.244.549-1.897 1.309-2.656 3.835-2.395 6.126.262 2.29 1.362 4.397 2.553 6.373 2.499 4.162 5.601 7.722 10.169 9.633v-.013Zm-77.9-122.151c2.604.052 5.038 1.282 7.211 2.696 4.934 3.194 9.057 7.434 12.826 11.897 3.796 4.489 5.275 7.617 11.518 7.788 17.774.471 32.982 12.551 45.52 25.168 3.796 3.809 8.167 8.023 13.547 7.84 2.827-.092 5.47-1.44 8.258-1.911 4.921-.838 9.908 1.073 14.253 3.534 5.89 3.337 11.125 7.722 15.745 12.669 6.898 7.395 13.311 16.295 18.206 25.391a104.132 104.132 0 0 1-12.067 35.128h-.55c-7.984-.157-15.876-2.67-22.577-6.963-6.44-4.122-15.339-10.98-16.975-18.846-.328-1.597.026-3.77 1.636-4.058.615-.117 1.23.105 1.819.327 5.17 1.951 11.229 3.809 15.771 6.95 3.455 2.382 7.225 5.824 11.805 4.175 3.534-1.269 5.314-5.484 4.908-9.214-.418-3.73-2.552-7.041-4.855-10.012-3.9-5.039-8.599-9.672-14.449-12.224-2.317-1.008-4.778-1.689-7.016-2.893-5.811-3.128-9.894-9.737-16.425-10.614-1.217-.17-2.801.157-3.063 1.361-.092.379 0 .785.092 1.165a24.389 24.389 0 0 0 5.078 10.025c.471.563.982 1.126 1.178 1.833.837 3.115-3.05 4.986-5.458 4.24-3.966-1.23-7.015-5.065-10.34-7.355-4.685-3.246-9.567-6.243-14.344-9.358-1.623-1.061-3.272-2.147-4.476-3.678-1.191-1.531-1.859-3.612-1.244-5.445.262-.759.72-1.453.773-2.238.078-.929-.419-1.793-.89-2.591-1.27-2.16-2.67-4.424-4.895-5.563-.917-.471-1.937-.72-2.919-1.008-4.555-1.335-9.24-3.298-13.651-5.012-5.261-2.029-10.549-5.301-14.214-9.633-3.599-4.241-4.685-9.973-8.206-14.515-3.743-4.803-8.337-8.874-12.826-12.957-1.309-1.204-2.749-2.945-1.99-4.555.563-1.165 2.029-1.57 3.312-1.531l-.026-.013Zm114.363 73.62c1.048.144 5.628.681 6.217-.17.131-.183.131-.432.092-.667-.209-1.675-1.414-3.024-2.592-4.228-4.175-4.227-9.292-8.193-15.234-8.324-1.008-.026-2.199.17-2.696 1.047-.668 1.165.301 2.553 1.217 3.547 2.029 2.199 4.083 4.411 6.544 6.125 1.924 1.335 4.11 2.343 6.439 2.67h.013Zm-144.99-56.815c2.513 3.992 3.888 8.952 2.579 13.494-1.126 3.952-4.188 7.408-4.149 11.517.052 5.393 5.209 9.123 7.8 13.848 2.5 4.567 2.539 10.025 3.128 15.208.341 2.958.799 7.251 2.919 9.502 2.042 2.173 4.974 3.979 7.159 6.151 2.304 2.291 4.869 4.503 8.01 5.327 3.141.812 6.976-.209 8.455-3.089 1.06-2.041.772-4.646 2.042-6.57 1.335-2.042 4.109-2.748 6.518-2.303 2.395.445 4.515 1.819 6.518 3.206 14.41 10.013 27.131 22.904 34.958 38.61.772 1.558 1.518 3.22 1.466 4.961-.053 1.74-1.139 3.573-2.853 3.9-.668.131-1.492.078-1.872.654-.445.668.131 1.532.707 2.107 4.096 4.071 11.543 10.235 17.786 7.277 1.689-.798 3.272-2.015 5.144-2.172 4.751-.406 7.735 4.816 12.722 3.429 2.931-.825 5.523-2.709 8.533-3.194 4.686-.746 8.861 2.003 12.813 4.084 2.029 1.06 4.176 2.264 6.44 2.683.602.118 7.264 1.348 6.649 2.042a104.845 104.845 0 0 1-5.484 5.837c-.445-.092-.851-.17-1.204-.223-2.801-.431-5.746-.654-8.495-1.204-3.167-.628-5.758-2.879-8.873-3.782-3.246-.956-6.963-.916-9.83.89-2.499 1.57-4.397 4.45-7.329 4.764-2.539.262-4.816-1.518-7.316-1.976-2.565-.472-5.144.458-7.722.903-10.471 1.819-20.679-4.476-28.205-11.125-3.377-2.984-9.214-7.604-7.945-12.8.472-1.898 1.885-3.495 2.239-5.419.693-3.795-2.474-6.923-5.445-8.559-5.183-2.854-10.667-8.311-16.53-9.581-1.558-.327-3.325-.092-4.476 1.008-2.409 2.303-.851 6.609-2.605 9.436-2.893 4.673-7.971 1.676-11.374-.497-6.976-4.45-13.664-8.638-19.291-14.829-3.966-4.358-9.385-10.379-8.625-16.779.353-2.905 2.486-5.261 3.494-8.01 2.12-5.745-.929-12.015-4.162-17.224-2.133-3.442-4.49-7.237-3.861-11.242.76-4.843 5.615-8.115 6.924-12.84 1.4-5.052-1.571-10.222-4.725-14.41-.38-.51-.76-1.008-1.152-1.505a98.859 98.859 0 0 1 4.856-6.138c1.322 1.466 2.604 2.971 3.677 4.672l-.013-.039Zm48.413 70.506c-1.23-.432-2.918-1.165-4.083-.393-.982.641-1.767 2.879-1.689 3.992.079 1.06.72 1.989 1.388 2.827a39.078 39.078 0 0 0 11.596 9.868c1.152.642 2.591 1.231 3.743.563.864-.497 1.257-1.597 1.191-2.591-.065-.995-.51-1.937-.955-2.827-1.113-2.238-2.317-4.45-3.927-6.374-1.871-2.212-4.489-4.11-7.251-5.065h-.013Z" stroke="#3215AB" stroke-width=".5"/><mask id="h" style="mask-type:alpha" maskUnits="userSpaceOnUse" x="-18" y="105" width="393" height="199"><path d="M-8.26 184.819-18 105.44l115.903 20.94-12.174 18.506L279.55 221.83l3.896-25.81 59.9 15.097L375 276.86l-68.178 26.784L-8.26 184.819Z" fill="#D9D9D9"/></mask><g mask="url(#h)" stroke-width=".75" stroke-miterlimit="10" stroke-linecap="round"><path d="M116.326 134.287c-58.818-16.269-102-17.737-108.545-1.597-9.058 22.348 58.014 70.628 149.817 107.824s173.565 49.234 182.623 26.886c6.049-14.928-21.841-41.407-68.383-68.422" stroke="url(#i)"/><path d="M115.153 135.264c-51.111-13.587-88.203-14.632-93.864-.687-8.155 20.133 54.16 64.37 139.209 98.825 85.05 34.455 160.574 46.076 168.728 25.943 5.145-12.713-17.828-35.051-56.881-58.471" stroke="url(#j)"/><path d="M113.787 136.241c-42.39-10.706-72.453-11.378-77.062.004-7.062 17.431 49.949 56.981 127.341 88.347 77.391 31.366 145.864 42.649 152.926 25.218 4.112-10.151-13.488-27.791-44.179-46.94" stroke="url(#k)"/><path d="M112.613 137.219c-36.729-9.336-62.5-10.369-66.175-1.272-5.92 14.621 48.32 50.386 121.173 79.895 72.842 29.518 136.686 41.596 142.606 26.976 3.218-7.946-11.362-22.149-37.037-38.209" stroke="url(#l)"/></g></g><defs><linearGradient id="c" x1="298.584" y1="136.479" x2="390.534" y2="93.456" gradientUnits="userSpaceOnUse"><stop stop-color="#37E2E2"/><stop offset="1" stop-color="#37E2E2" stop-opacity=".2"/></linearGradient><linearGradient id="d" x1="332.949" y1="184.208" x2="332.447" y2="55.344" gradientUnits="userSpaceOnUse"><stop stop-color="#2ECCC1"/><stop offset="1" stop-color="#2ECCC1" stop-opacity=".2"/></linearGradient><linearGradient id="e" x1="389.243" y1="56.977" x2="357.607" y2="92.028" gradientUnits="userSpaceOnUse"><stop stop-color="#FFF2B6"/><stop offset="1" stop-color="#FFF49A" stop-opacity=".2"/></linearGradient><linearGradient id="f" x1="53.36" y1="116.187" x2="294.821" y2="403.729" gradientUnits="userSpaceOnUse"><stop stop-color="#E6007A"/><stop offset=".21" stop-color="#703AC2"/><stop offset=".46" stop-color="#0070EB"/><stop offset=".77" stop-color="#0297FB"/><stop offset="1" stop-color="#0AE2FF"/></linearGradient><linearGradient id="g" x1="78.965" y1="157.339" x2="199.275" y2="182.052" gradientUnits="userSpaceOnUse"><stop stop-color="#2C698B"/><stop offset="1"/></linearGradient><linearGradient id="i" x1="207.598" y1="-33.624" x2="341.325" y2="315.939" gradientUnits="userSpaceOnUse"><stop stop-color="#E6007A"/><stop offset=".21" stop-color="#703AC2"/><stop offset=".46" stop-color="#AAD3FF"/><stop offset=".77" stop-color="#83CDFF"/><stop offset="1" stop-color="#48E9FF"/></linearGradient><linearGradient id="j" x1="205.563" y1="-18.603" x2="328.47" y2="305.034" gradientUnits="userSpaceOnUse"><stop stop-color="#E6007A"/><stop offset=".21" stop-color="#703AC2"/><stop offset=".46" stop-color="#AAD3FF"/><stop offset=".77" stop-color="#83CDFF"/><stop offset="1" stop-color="#48E9FF"/></linearGradient><linearGradient id="k" x1="203.215" y1="-1.865" x2="313.615" y2="292.465" gradientUnits="userSpaceOnUse"><stop stop-color="#E6007A"/><stop offset=".21" stop-color="#703AC2"/><stop offset=".46" stop-color="#AAD3FF"/><stop offset=".77" stop-color="#83CDFF"/><stop offset="1" stop-color="#48E9FF"/></linearGradient><linearGradient id="l" x1="200.821" y1="8.429" x2="301.892" y2="284.961" gradientUnits="userSpaceOnUse"><stop stop-color="#E6007A"/><stop offset=".21" stop-color="#703AC2"/><stop offset=".46" stop-color="#AAD3FF"/><stop offset=".77" stop-color="#83CDFF"/><stop offset="1" stop-color="#48E9FF"/></linearGradient><radialGradient id="b" cx="0" cy="0" r="1" gradientUnits="userSpaceOnUse" gradientTransform="translate(340.704 81.475) scale(79.3991)"><stop stop-color="#26F2FF"/><stop offset="1" stop-color="#5C68D6"/></radialGradient><clipPath id="a"><path fill="#fff" d="M0 0h460v370H0z"/></clipPath></defs></svg>