<svg width="403" height="133" viewBox="0 0 403 133" fill="none" xmlns="http://www.w3.org/2000/svg">
<path d="M130.691 48.26V-9.05991e-06H40.4409V4.36999H126.321V41.8L117.771 38.19V11.78H40.4409V27.93H100.671V35.72L104.851 37.62V23.56H44.8109V16.15H113.401V41.04L130.691 48.26ZM74.6409 133C101.621 133 132.781 127.49 132.781 93.67C132.781 59.85 99.5309 54.34 74.6409 54.34H34.5509V-9.05991e-06H17.2609V70.3H74.6409C96.1109 70.3 115.681 74.1 115.681 93.67C115.681 113.24 96.1109 116.85 74.6409 116.85H14.6009L18.7809 109.44H74.6409C89.4609 109.44 107.131 107.73 107.131 93.67C107.131 79.61 90.6009 77.9 74.6409 77.9H8.71093V-9.05991e-06H4.34093V82.08H74.6409C89.6509 82.08 102.761 83.41 102.761 93.67C102.761 103.93 88.3209 105.07 74.6409 105.07H16.1209L7.38093 121.22H74.6409C95.3509 121.22 119.861 117.42 119.861 93.67C119.861 69.92 95.3509 66.12 74.6409 66.12H21.6309V4.36999H30.1809V58.52H74.6409C99.7209 58.52 128.601 63.84 128.601 93.67C128.601 123.31 102.571 128.63 74.6409 128.63H3.20093L0.920931 133H74.6409ZM160.839 15.96C150.769 26.6 146.779 41.99 146.779 61.56V71.63C146.779 91.01 150.769 106.4 160.839 117.04C171.099 127.68 187.059 133 210.239 133H212.519V117.04H210.239C193.709 117.04 182.309 113.05 174.899 105.45C167.489 98.04 163.879 86.83 163.879 71.63V61.56C163.879 46.17 167.489 34.96 174.899 27.55C181.929 20.52 192.759 16.53 208.149 16.34V23.75C197.889 23.94 188.959 26.22 182.689 31.92C176.039 38 172.429 47.5 172.429 61.56V71.63C172.429 85.5 176.039 95.19 182.689 101.27C189.529 107.16 199.029 109.44 210.239 109.44H212.519V105.07H210.239C199.599 105.07 191.239 102.98 185.729 98.04C180.029 92.91 176.799 84.74 176.799 71.63V61.56C176.799 48.26 180.029 40.09 185.729 35.15C191.239 30.02 199.599 27.93 210.239 27.93H212.519V11.78H210.239C192.949 11.78 180.219 15.96 171.859 24.51C163.499 33.06 159.699 45.6 159.699 61.56V71.63C159.699 87.59 163.499 100.13 171.859 108.49C179.839 116.66 191.999 120.84 208.149 121.03V128.63C186.869 128.25 172.809 123.31 164.069 114C154.949 104.69 151.149 90.44 151.149 71.63V61.56C151.149 42.75 154.949 28.5 164.069 19C173.189 9.49999 187.819 4.36999 210.239 4.36999H212.519V-9.05991e-06H210.239C187.059 -9.05991e-06 171.099 5.51 160.839 15.96ZM272.559 15.96C262.299 5.51 246.339 -9.05991e-06 223.159 -9.05991e-06H221.069V16.15H223.159C239.689 16.15 251.279 20.14 258.499 27.55C265.909 34.96 269.519 46.17 269.519 61.56V71.63C269.519 86.83 265.909 98.04 258.499 105.45C251.469 112.67 240.639 116.47 225.249 116.85V109.25C235.699 109.06 244.439 106.78 250.709 101.27C257.359 95.19 260.969 85.5 260.969 71.63V61.56C260.969 47.5 257.359 38 250.709 31.92C243.869 25.84 234.369 23.56 223.159 23.56H221.069V27.93H223.159C233.799 27.93 242.159 30.02 247.859 35.15C253.369 40.09 256.599 48.26 256.599 61.56V71.63C256.599 84.74 253.369 92.91 247.859 98.04C242.159 102.98 233.799 105.07 223.159 105.07H221.069V121.22H223.159C240.449 121.22 253.179 117.04 261.539 108.49C270.089 100.13 273.699 87.59 273.699 71.63V61.56C273.699 45.6 270.089 33.06 261.539 24.51C253.559 16.34 241.399 12.35 225.249 11.97V4.36999C246.529 4.75 260.589 9.88 269.329 19C278.449 28.5 282.439 42.75 282.439 61.56V71.63C282.439 90.44 278.449 104.69 269.329 114C260.399 123.5 245.579 128.82 223.159 128.82H221.069V133H223.159C246.339 133 262.299 127.68 272.559 117.04C282.629 106.4 286.619 91.01 286.619 71.63V61.56C286.619 41.99 282.629 26.6 272.559 15.96ZM339.874 22.8V57.19H303.394V82.84H339.874V117.23H365.524V82.84H402.004V57.19H365.524V22.8H361.344V61.37H397.824V78.66H361.344V112.86H344.244V78.66H307.764V61.37H344.244V27.17H353.554V22.8H339.874Z" fill="url(#paint0_linear_159_1514)"/>
<defs>
<linearGradient id="paint0_linear_159_1514" x1="-4" y1="-62" x2="409.784" y2="97.5465" gradientUnits="userSpaceOnUse">
<stop stop-color="#FF289A"/>
<stop offset="0.317708" stop-color="#008AFF"/>
<stop offset="0.677083" stop-color="#01CAFF"/>
<stop offset="1" stop-color="#00FFD1"/>
</linearGradient>
</defs>
</svg>
