<svg width="505" height="105" viewBox="0 0 505 105" fill="none" xmlns="http://www.w3.org/2000/svg">
<path d="M12.9754 -7.15256e-06L6.07539 12.75H30.5254V101.55H23.7754V18.6H2.77539L0.975391 22.05H20.4754V105H33.9754V9.3H11.7754L14.9254 3.44999H40.7254V105H44.1754V-7.15256e-06H12.9754ZM66.843 12.6C58.893 21 55.743 33.15 55.743 48.6V56.55C55.743 71.85 58.893 84 66.843 92.4C74.943 100.8 87.543 105 105.843 105H107.643V92.4H105.843C92.793 92.4 83.793 89.25 77.943 83.25C72.093 77.4 69.243 68.55 69.243 56.55V48.6C69.243 36.45 72.093 27.6 77.943 21.75C83.493 16.2 92.043 13.05 104.193 12.9V18.75C96.093 18.9 89.043 20.7 84.093 25.2C78.843 30 75.993 37.5 75.993 48.6V56.55C75.993 67.5 78.843 75.15 84.093 79.95C89.493 84.6 96.993 86.4 105.843 86.4H107.643V82.95H105.843C97.443 82.95 90.843 81.3 86.493 77.4C81.993 73.35 79.443 66.9 79.443 56.55V48.6C79.443 38.1 81.993 31.65 86.493 27.75C90.843 23.7 97.443 22.05 105.843 22.05H107.643V9.3H105.843C92.193 9.3 82.143 12.6 75.543 19.35C68.943 26.1 65.943 36 65.943 48.6V56.55C65.943 69.15 68.943 79.05 75.543 85.65C81.843 92.1 91.443 95.4 104.193 95.55V101.55C87.393 101.25 76.293 97.35 69.393 90C62.193 82.65 59.193 71.4 59.193 56.55V48.6C59.193 33.75 62.193 22.5 69.393 15C76.593 7.49999 88.143 3.44999 105.843 3.44999H107.643V-7.15256e-06H105.843C87.543 -7.15256e-06 74.943 4.35 66.843 12.6ZM155.043 12.6C146.943 4.35 134.343 -7.15256e-06 116.043 -7.15256e-06H114.393V12.75H116.043C129.093 12.75 138.243 15.9 143.943 21.75C149.793 27.6 152.643 36.45 152.643 48.6V56.55C152.643 68.55 149.793 77.4 143.943 83.25C138.393 88.95 129.843 91.95 117.693 92.25V86.25C125.943 86.1 132.843 84.3 137.793 79.95C143.043 75.15 145.893 67.5 145.893 56.55V48.6C145.893 37.5 143.043 30 137.793 25.2C132.393 20.4 124.893 18.6 116.043 18.6H114.393V22.05H116.043C124.443 22.05 131.043 23.7 135.543 27.75C139.893 31.65 142.443 38.1 142.443 48.6V56.55C142.443 66.9 139.893 73.35 135.543 77.4C131.043 81.3 124.443 82.95 116.043 82.95H114.393V95.7H116.043C129.693 95.7 139.743 92.4 146.343 85.65C153.093 79.05 155.943 69.15 155.943 56.55V48.6C155.943 36 153.093 26.1 146.343 19.35C140.043 12.9 130.443 9.74999 117.693 9.45V3.44999C134.493 3.75 145.593 7.8 152.493 15C159.693 22.5 162.843 33.75 162.843 48.6V56.55C162.843 71.4 159.693 82.65 152.493 90C145.443 97.5 133.743 101.7 116.043 101.7H114.393V105H116.043C134.343 105 146.943 100.8 155.043 92.4C162.993 84 166.143 71.85 166.143 56.55V48.6C166.143 33.15 162.993 21 155.043 12.6ZM188.536 12.6C180.586 21 177.436 33.15 177.436 48.6V56.55C177.436 71.85 180.586 84 188.536 92.4C196.636 100.8 209.236 105 227.536 105H229.336V92.4H227.536C214.486 92.4 205.486 89.25 199.636 83.25C193.786 77.4 190.936 68.55 190.936 56.55V48.6C190.936 36.45 193.786 27.6 199.636 21.75C205.186 16.2 213.736 13.05 225.886 12.9V18.75C217.786 18.9 210.736 20.7 205.786 25.2C200.536 30 197.686 37.5 197.686 48.6V56.55C197.686 67.5 200.536 75.15 205.786 79.95C211.186 84.6 218.686 86.4 227.536 86.4H229.336V82.95H227.536C219.136 82.95 212.536 81.3 208.186 77.4C203.686 73.35 201.136 66.9 201.136 56.55V48.6C201.136 38.1 203.686 31.65 208.186 27.75C212.536 23.7 219.136 22.05 227.536 22.05H229.336V9.3H227.536C213.886 9.3 203.836 12.6 197.236 19.35C190.636 26.1 187.636 36 187.636 48.6V56.55C187.636 69.15 190.636 79.05 197.236 85.65C203.536 92.1 213.136 95.4 225.886 95.55V101.55C209.086 101.25 197.986 97.35 191.086 90C183.886 82.65 180.886 71.4 180.886 56.55V48.6C180.886 33.75 183.886 22.5 191.086 15C198.286 7.49999 209.836 3.44999 227.536 3.44999H229.336V-7.15256e-06H227.536C209.236 -7.15256e-06 196.636 4.35 188.536 12.6ZM276.736 12.6C268.636 4.35 256.036 -7.15256e-06 237.736 -7.15256e-06H236.086V12.75H237.736C250.786 12.75 259.936 15.9 265.636 21.75C271.486 27.6 274.336 36.45 274.336 48.6V56.55C274.336 68.55 271.486 77.4 265.636 83.25C260.086 88.95 251.536 91.95 239.386 92.25V86.25C247.636 86.1 254.536 84.3 259.486 79.95C264.736 75.15 267.586 67.5 267.586 56.55V48.6C267.586 37.5 264.736 30 259.486 25.2C254.086 20.4 246.586 18.6 237.736 18.6H236.086V22.05H237.736C246.136 22.05 252.736 23.7 257.236 27.75C261.586 31.65 264.136 38.1 264.136 48.6V56.55C264.136 66.9 261.586 73.35 257.236 77.4C252.736 81.3 246.136 82.95 237.736 82.95H236.086V95.7H237.736C251.386 95.7 261.436 92.4 268.036 85.65C274.786 79.05 277.636 69.15 277.636 56.55V48.6C277.636 36 274.786 26.1 268.036 19.35C261.736 12.9 252.136 9.74999 239.386 9.45V3.44999C256.186 3.75 267.286 7.8 274.186 15C281.386 22.5 284.536 33.75 284.536 48.6V56.55C284.536 71.4 281.386 82.65 274.186 90C267.136 97.5 255.436 101.7 237.736 101.7H236.086V105H237.736C256.036 105 268.636 100.8 276.736 92.4C284.686 84 287.836 71.85 287.836 56.55V48.6C287.836 33.15 284.686 21 276.736 12.6ZM360.93 40.65H328.98V44.1H359.43L409.23 103.65L410.28 105H414.78L411.93 101.55L360.93 40.65ZM323.43 50.85V-7.15256e-06H319.98V54.15H354.93L394.38 101.55H385.53L352.08 60.9H319.98V101.55H313.23V-7.15256e-06H299.73V105H303.18V3.44999H309.93V105H323.43V64.35H350.43L384.03 105H401.58L356.43 50.85H323.43ZM389.73 3.44999H397.53L373.83 38.85L382.68 49.5L415.68 -7.15256e-06H411.63L382.38 43.8L378.03 38.55L403.83 -7.15256e-06H387.93L367.23 30.9L369.48 33.6L389.73 3.44999ZM455.528 18V45.15H426.728V65.4H455.528V92.55H475.778V65.4H504.578V45.15H475.778V18H472.478V48.45H501.278V62.1H472.478V89.1H458.978V62.1H430.178V48.45H458.978V21.45H466.328V18H455.528Z" fill="url(#paint0_linear_159_1517)"/>
<defs>
<linearGradient id="paint0_linear_159_1517" x1="-4" y1="-49" x2="427.315" y2="212.025" gradientUnits="userSpaceOnUse">
<stop stop-color="#FF289A"/>
<stop offset="0.317708" stop-color="#008AFF"/>
<stop offset="0.677083" stop-color="#01CAFF"/>
<stop offset="1" stop-color="#00FFD1"/>
</linearGradient>
</defs>
</svg>
