<svg width="224" height="105" viewBox="0 0 224 105" fill="none" xmlns="http://www.w3.org/2000/svg">
<path fill-rule="evenodd" clip-rule="evenodd" d="M201.388 84.3291C195.779 86.3591 192.657 92.2964 194.42 97.579C196.183 102.862 202.169 105.503 207.778 103.473C213.388 101.443 216.51 95.506 214.746 90.223C212.983 84.9401 206.997 82.299 201.388 84.3291ZM18.3265 30.6473C19.7909 30.6474 20.5231 31.3795 20.5231 32.844V101.672C20.5231 103.136 19.7909 103.868 18.3265 103.868H3.82868C2.36427 103.868 1.63201 103.136 1.63201 101.672V32.844C1.63201 31.3795 2.36427 30.6474 3.82868 30.6473H18.3265ZM77.9284 30.0616C93.8908 30.0616 99.4558 40.8982 99.4558 55.8354V101.672C99.4558 103.136 98.7228 103.868 97.2588 103.868H82.761C81.2965 103.868 80.5644 103.136 80.5644 101.672V53.6387C80.5644 48.6597 76.9034 46.9024 72.6564 46.9024H70.8992C64.6022 46.9024 60.0624 49.5383 58.4516 52.1743V101.672C58.4516 103.136 57.7194 103.868 56.255 103.868H41.7572C40.2928 103.868 39.5606 103.136 39.5606 101.672V32.844C39.5606 31.3795 40.2928 30.6474 41.7572 30.6473H56.255C57.7194 30.6474 58.4516 31.3795 58.4516 32.844V39.2874C60.6482 35.6264 66.213 30.0616 77.0497 30.0616H77.9284ZM133.723 1.35889C135.188 1.35889 135.92 2.09115 135.92 3.55547V54.371L156.714 32.4046C157.593 31.3795 158.911 30.6474 160.083 30.6473H175.166C177.07 30.6474 178.827 32.844 176.191 35.6264L154.371 59.057L179.852 99.914C180.731 101.525 180.584 103.868 178.095 103.868H164.329C162.426 103.868 160.668 103.283 159.497 101.232L141.631 71.651L135.92 77.3623V101.672C135.92 103.136 135.188 103.868 133.723 103.868H119.225C117.761 103.868 117.029 103.136 117.029 101.672V3.55547C117.029 2.09115 117.761 1.35889 119.225 1.35889H133.723ZM8.23618 4.8382C2.739 6.5003 -0.569122 12.047 0.853508 17.2169C2.27625 22.3867 7.89428 25.2346 13.3915 23.5724C18.8888 21.9103 22.1968 16.3636 20.7742 11.1938C19.3516 6.0239 13.7335 3.17609 8.23618 4.8382Z" fill="white"/>
<path fill-rule="evenodd" clip-rule="evenodd" d="M199.6 67.2815L196.409 67.2579C194.945 67.2579 194.213 66.5256 194.213 65.0612V3.55547C194.213 2.09115 194.945 1.35889 196.409 1.35889H211.346C212.811 1.35889 213.543 2.09115 213.543 3.55547L213.534 5.631C207.853 7.0148 203.43 12.8034 203.076 20.0213C202.792 25.8185 205.205 31.07 209.019 34.0414C206.178 35.9747 204.089 39.2396 203.566 43.15C202.996 47.4076 204.413 51.4409 207.043 54.1077C204.389 55.2726 201.972 57.6535 200.596 60.793C199.624 63.0124 199.32 65.2728 199.6 67.2815Z" fill="white"/>
<path fill-rule="evenodd" clip-rule="evenodd" d="M204.209 62.3071C203.12 64.7923 203.953 67.4166 206.068 68.1638C208.182 68.9108 210.783 67.4995 211.872 65.0141C212.961 62.5287 212.128 59.9044 210.013 59.1574C207.899 58.4102 205.298 59.8217 204.209 62.3071ZM208.153 44.1112C207.426 47.959 209.455 51.5714 212.681 52.1729C215.907 52.7745 219.117 50.1389 219.844 46.2911C220.571 42.4433 218.542 38.8309 215.315 38.2294C212.089 37.6279 208.88 40.2634 208.153 44.1112ZM207.342 21.4327C207.084 26.6977 210.466 31.2261 214.89 31.5389C219.314 31.8517 223.116 27.8313 223.374 22.5663C223.632 17.3012 220.25 12.7728 215.826 12.46C211.402 12.1472 207.6 16.1678 207.342 21.4327Z" fill="white"/>
</svg>
