<svg width="232" height="47" viewBox="0 0 232 47" fill="none" xmlns="http://www.w3.org/2000/svg">
<path d="M0 12.5244V31.7433C0.3621 36.0948 3.3316 45.5229 15.2094 46.9734C21.0034 47.336 31.143 44.0724 32.5915 31.7433C33.2778 25.9019 30.0566 14.0125 15.2094 14.0125V21.3939C17.7443 20.8647 25.349 21.8601 25.349 30.2928C25.349 34.2817 22.0898 39.721 15.2094 38.6331C12.7952 38.2705 7.9668 36.0948 7.9668 30.2928V16.5133V12.5244H0Z" fill="white"/>
<path d="M7.9668 8.70292H0V0.0667173C5.5421 -0.534083 7.6204 3.07062 7.9668 4.94802V8.70292Z" fill="white"/>
<path d="M59.808 40.9913C56.2283 40.9913 53.2414 39.836 50.8474 37.5254C48.4758 35.1925 47.29 32.2932 47.29 28.8272C47.29 25.3613 48.4758 22.473 50.8474 20.1624C53.2414 17.8295 56.2283 16.6631 59.808 16.6631C62.1573 16.6631 64.2827 17.1963 66.1845 18.2628C68.1086 19.307 69.6076 20.7622 70.6816 22.6285C71.7555 24.4726 72.2925 26.5388 72.2925 28.8272C72.2925 32.3154 71.1067 35.2148 68.7351 37.5254C66.3635 39.836 63.3878 40.9913 59.808 40.9913ZM59.808 36.2257C61.1952 36.2257 62.4481 35.9146 63.5668 35.2925C64.6855 34.6482 65.558 33.7595 66.1845 32.6264C66.8333 31.4933 67.1577 30.2269 67.1577 28.8272C67.1577 26.7165 66.453 24.9614 65.0434 23.5617C63.6563 22.1397 61.9112 21.4288 59.808 21.4288C57.7273 21.4288 55.971 22.1397 54.5391 23.5617C53.1295 24.9614 52.4248 26.7165 52.4248 28.8272C52.4248 30.9379 53.1295 32.7042 54.5391 34.1261C55.971 35.5258 57.7273 36.2257 59.808 36.2257Z" fill="white"/>
<path d="M85.6951 21.9951C88.4251 21.9951 90.6841 22.8949 92.4741 24.6946C94.2871 26.4942 95.1931 28.7604 95.1931 31.4931C95.1931 34.2259 94.2871 36.5032 92.4741 38.325C90.6621 40.1246 88.4021 41.0245 85.6951 41.0245C83.8382 41.0245 82.1714 40.5246 80.6947 39.5248V46.9899H75.7949V22.495H79.0503L79.8893 24.128C81.5002 22.7061 83.4355 21.9951 85.6951 21.9951ZM81.7351 35.0257C82.6748 35.9589 83.8494 36.4254 85.2591 36.4254C86.6911 36.4254 87.8771 35.9589 88.8161 35.0257C89.7561 34.0926 90.2261 32.915 90.2261 31.4931C90.2261 30.56 90.0131 29.7157 89.5881 28.9603C89.1631 28.2049 88.5701 27.6162 87.8091 27.194C87.0711 26.7719 86.2321 26.5608 85.2921 26.5608C84.3531 26.5608 83.5026 26.7719 82.7419 27.194C81.9812 27.6162 81.3883 28.2049 80.9632 28.9603C80.5605 29.7157 80.3591 30.56 80.3591 31.4931C80.3591 32.915 80.8178 34.0926 81.7351 35.0257Z" fill="white"/>
<path d="M116.256 31.4265C116.256 31.893 116.223 32.3707 116.156 32.8595H102.463C102.665 34.0815 103.146 35.0257 103.906 35.6922C104.689 36.3365 105.685 36.6587 106.893 36.6587C107.721 36.6587 108.47 36.481 109.142 36.1255C109.813 35.7478 110.339 35.2368 110.719 34.5925H115.887C115.216 36.5476 114.075 38.1028 112.464 39.2582C110.853 40.4135 108.996 40.9911 106.893 40.9911C104.208 40.9911 101.971 40.0802 100.181 38.2584C98.3911 36.4365 97.4961 34.1814 97.4961 31.4931C97.4961 30.4267 97.6421 29.4047 97.9331 28.4271C98.2461 27.4495 98.6821 26.5719 99.2411 25.7943C99.8231 25.0167 100.494 24.3502 101.255 23.7947C102.016 23.2171 102.877 22.7727 103.839 22.4617C104.801 22.1506 105.819 21.9951 106.893 21.9951C108.705 21.9951 110.327 22.4173 111.759 23.2615C113.214 24.1058 114.321 25.25 115.082 26.6941C115.865 28.1383 116.256 29.7157 116.256 31.4265ZM106.893 26.1276C105.797 26.1276 104.868 26.4275 104.108 27.0274C103.369 27.6273 102.866 28.4604 102.597 29.5269H111.357C111.133 28.7937 110.809 28.1827 110.383 27.6939C109.958 27.1829 109.444 26.7941 108.84 26.5275C108.258 26.2609 107.609 26.1276 106.893 26.1276Z" fill="white"/>
<path d="M130.081 22.062C132.139 22.062 133.761 22.7507 134.947 24.1282C136.155 25.4835 136.759 27.3053 136.759 29.5937V40.4914H131.86V30.3602C131.86 27.6719 130.808 26.3277 128.705 26.3277C127.877 26.3277 127.15 26.5166 126.524 26.8943C125.919 27.272 125.45 27.8163 125.114 28.5273C124.801 29.2382 124.644 30.0714 124.644 31.0268V40.4914H119.744V22.4952H123.1L124.074 24.7281C124.409 24.3059 124.79 23.9394 125.215 23.6283C125.662 23.295 126.143 23.0173 126.658 22.7952C127.172 22.5508 127.709 22.373 128.269 22.2619C128.85 22.1286 129.455 22.062 130.081 22.062Z" fill="white"/>
<path d="M155.413 28.1941C156.443 28.7273 157.237 29.4827 157.796 30.4603C158.378 31.4157 158.669 32.5154 158.669 33.7596C158.669 35.6259 157.942 37.2144 156.487 38.5253C155.056 39.8361 153.322 40.4915 151.286 40.4915H141.285V17.1631H151.017C153.031 17.1631 154.709 17.7408 156.051 18.8961C157.394 20.0292 158.065 21.4511 158.065 23.1618C158.065 24.1616 157.83 25.1059 157.36 25.9946C156.89 26.8833 156.241 27.6165 155.413 28.1941ZM153.131 23.9617C153.131 23.584 153.064 23.2507 152.93 22.9619C152.818 22.6508 152.65 22.3842 152.427 22.1621C152.203 21.9399 151.923 21.7732 151.588 21.6622C151.274 21.5289 150.916 21.4622 150.514 21.4622H146.285V26.4278H150.514C151.319 26.4278 151.957 26.2056 152.427 25.7613C152.896 25.2947 153.131 24.6949 153.131 23.9617ZM150.782 35.8592C151.61 35.8592 152.281 35.6148 152.796 35.126C153.31 34.6372 153.568 34.004 153.568 33.2264C153.568 32.471 153.31 31.8489 152.796 31.3601C152.281 30.8713 151.61 30.6269 150.782 30.6269H146.285V35.8592H150.782Z" fill="white"/>
<path d="M171.711 22.395H173.322V26.9941H171.208C169.821 26.9941 168.825 27.3162 168.221 27.9605C167.639 28.6048 167.348 29.6602 167.348 31.1265V40.4912H162.449V22.495H165.603L166.476 24.6946C167.706 23.1615 169.452 22.395 171.711 22.395Z" fill="white"/>
<path d="M190.546 38.7917C189.002 40.258 186.944 40.9912 184.371 40.9912C181.82 40.9912 179.762 40.2469 178.196 38.7584C176.652 37.2698 175.88 35.3146 175.88 32.8929V22.4951H180.78V32.3264C180.78 33.615 181.093 34.6259 181.72 35.3591C182.369 36.07 183.252 36.4255 184.371 36.4255C185.512 36.4255 186.396 36.07 187.022 35.3591C187.671 34.6259 187.996 33.615 187.996 32.3264V22.4951H192.895V32.8929C192.895 35.3369 192.112 37.3031 190.546 38.7917Z" fill="white"/>
<path d="M203.796 40.9911C202.297 40.9911 200.966 40.7245 199.803 40.1913C198.661 39.6581 197.767 38.9027 197.118 37.9251C196.491 36.9475 196.178 35.8255 196.178 34.5591H200.944C200.966 35.0924 201.1 35.5478 201.346 35.9255C201.615 36.281 201.973 36.5476 202.42 36.7254C202.868 36.8809 203.382 36.9586 203.964 36.9586C204.434 36.9586 204.859 36.892 205.239 36.7587C205.62 36.6254 205.933 36.4254 206.179 36.1588C206.425 35.87 206.548 35.5367 206.548 35.159C206.548 34.6036 206.257 34.1926 205.676 33.9259C205.094 33.6593 204.221 33.426 203.058 33.2261C202.32 33.115 201.704 33.0039 201.212 32.8928C200.742 32.7817 200.172 32.5929 199.5 32.3263C198.852 32.0375 198.326 31.7153 197.923 31.3598C197.543 31.0043 197.207 30.5156 196.916 29.8935C196.625 29.2714 196.48 28.5493 196.48 27.7272C196.48 26.0387 197.151 24.6612 198.494 23.5948C199.836 22.5283 201.592 21.9951 203.763 21.9951C205.955 21.9951 207.712 22.5506 209.032 23.6614C210.374 24.7501 211.045 26.1942 211.045 27.9939H206.38C206.38 26.5719 205.474 25.861 203.662 25.861C202.901 25.861 202.308 26.0165 201.883 26.3275C201.458 26.6386 201.246 27.0607 201.246 27.5939C201.246 27.8161 201.302 28.0272 201.413 28.2271C201.548 28.4049 201.693 28.5493 201.85 28.6604C202.029 28.7715 202.297 28.8826 202.655 28.9936C203.013 29.0825 203.315 29.1492 203.561 29.1936C203.807 29.238 204.177 29.3047 204.669 29.3936C205.094 29.4824 205.396 29.5491 205.575 29.5935C205.754 29.6157 206.056 29.6713 206.481 29.7602C206.906 29.849 207.219 29.9379 207.421 30.0268C207.644 30.0934 207.935 30.1934 208.293 30.3267C208.674 30.46 208.953 30.6044 209.132 30.7599C209.334 30.8932 209.569 31.0599 209.837 31.2598C210.128 31.4598 210.352 31.682 210.508 31.9264C210.665 32.1708 210.821 32.4374 210.978 32.7262C211.135 33.015 211.235 33.3483 211.28 33.726C211.347 34.1037 211.381 34.5036 211.381 34.9257C211.381 36.7698 210.687 38.2473 209.3 39.3581C207.913 40.4468 206.078 40.9911 203.796 40.9911Z" fill="white"/>
<path d="M225.355 22.062C227.413 22.062 229.035 22.7396 230.221 24.0949C231.407 25.4501 232 27.272 232 29.5604V40.4914H227.1V30.3602C227.1 29.005 226.843 27.9941 226.328 27.3275C225.836 26.661 225.042 26.3277 223.945 26.3277C222.715 26.3277 221.731 26.7499 220.992 27.5941C220.254 28.4384 219.885 29.5826 219.885 31.0268V40.4914H214.985V15.9966H219.885V24.1615C221.361 22.7618 223.185 22.062 225.355 22.062Z" fill="white"/>
</svg>
