<svg width="302" height="88" viewBox="0 0 302 88" fill="none" xmlns="http://www.w3.org/2000/svg">
<path d="M90.84 30.9999C90.8176 31.0029 90.7949 30.9974 90.7763 30.9844C90.7578 30.9714 90.7448 30.952 90.74 30.9299C88.4968 22.0916 83.3713 14.2533 76.174 8.65459C68.9768 3.05584 60.1185 0.0161133 51 0.0161133C41.8815 0.0161133 33.0232 3.05584 25.826 8.65459C18.6287 14.2533 13.5032 22.0916 11.26 30.9299C11.2552 30.952 11.2422 30.9714 11.2237 30.9844C11.2052 30.9974 11.1824 31.0029 11.16 30.9999C8.45 30.9999 0 31.3499 0 38.5299C0 47.0899 1 54.5299 6 58.8499C8.16 60.6999 11.81 61.1499 15.27 61.0699C17.4337 61.0007 19.5895 60.7735 21.72 60.3899C21.7368 60.3886 21.7528 60.3826 21.7664 60.3727C21.78 60.3627 21.7905 60.3492 21.7967 60.3336C21.803 60.3179 21.8047 60.3009 21.8018 60.2843C21.7988 60.2678 21.7913 60.2524 21.78 60.2399C18.0044 54.5339 15.994 47.8419 16 40.9999C16 40.8999 16 40.7899 16 40.6899C16 31.4073 19.6875 22.5049 26.2513 15.9411C32.815 9.37735 41.7174 5.68986 51 5.68986C60.2826 5.68986 69.185 9.37735 75.7487 15.9411C82.3125 22.5049 86 31.4073 86 40.6899C86 40.7899 86 40.8999 86 40.9999C86.006 47.8419 83.9956 54.5339 80.22 60.2399C80.2087 60.2524 80.2012 60.2678 80.1982 60.2843C80.1953 60.3009 80.197 60.3179 80.2033 60.3336C80.2095 60.3492 80.22 60.3627 80.2336 60.3727C80.2471 60.3826 80.2632 60.3886 80.28 60.3899C82.4105 60.7735 84.5663 61.0007 86.73 61.0699C90.19 61.1499 93.84 60.6999 96 58.8499C101 54.5799 102 47.0899 102 38.5299C102 31.3499 93.55 30.9999 90.84 30.9999Z" fill="white"/>
<path d="M50.9994 70.0001L24.3994 61.1301C24.3773 61.1217 24.3529 61.1213 24.3306 61.1292C24.3083 61.137 24.2895 61.1525 24.2775 61.1728C24.2655 61.1932 24.2611 61.2172 24.2651 61.2405C24.2691 61.2638 24.2813 61.2849 24.2994 61.3001L50.9294 87.9301C50.9481 87.9485 50.9732 87.9587 50.9994 87.9587C51.0256 87.9587 51.0507 87.9485 51.0694 87.9301L77.6994 61.3001C77.7175 61.2849 77.7296 61.2638 77.7336 61.2405C77.7376 61.2172 77.7333 61.1932 77.7213 61.1728C77.7093 61.1525 77.6905 61.137 77.6681 61.1292C77.6458 61.1213 77.6215 61.1217 77.5994 61.1301L50.9994 70.0001Z" fill="white"/>
<path d="M74.6801 42.8999L81.0001 40.9999C81.0222 40.9974 81.0426 40.9868 81.0574 40.9702C81.0721 40.9536 81.0802 40.9321 81.0801 40.9099C81.0625 38.5705 80.7705 36.2412 80.2101 33.9699C80.2045 33.9492 80.193 33.9307 80.177 33.9164C80.161 33.9022 80.1413 33.893 80.1201 33.8899L73.6901 33.3099C73.6691 33.3099 73.6487 33.3032 73.6316 33.291C73.6146 33.2787 73.6019 33.2614 73.5952 33.2415C73.5886 33.2216 73.5884 33.2001 73.5947 33.18C73.6009 33.16 73.6133 33.1424 73.6301 33.1299L78.4101 28.9499C78.4197 28.9313 78.4248 28.9107 78.4248 28.8899C78.4248 28.869 78.4197 28.8484 78.4101 28.8299C77.4358 26.6703 76.2107 24.633 74.7601 22.7599C74.7444 22.7477 74.725 22.7411 74.7051 22.7411C74.6852 22.7411 74.6659 22.7477 74.6501 22.7599L68.7401 24.7599C68.7214 24.7659 68.7012 24.7662 68.6823 24.7609C68.6633 24.7555 68.6464 24.7447 68.6336 24.7297C68.6208 24.7148 68.6127 24.6964 68.6103 24.6768C68.6079 24.6573 68.6113 24.6375 68.6201 24.6199L71.1901 18.9999C71.2017 18.982 71.2079 18.9612 71.2079 18.9399C71.2079 18.9185 71.2017 18.8977 71.1901 18.8799C69.416 17.2742 67.4552 15.8875 65.3501 14.7499C65.3343 14.7377 65.315 14.7311 65.2951 14.7311C65.2752 14.7311 65.2559 14.7377 65.2401 14.7499L60.7701 18.8799C60.7561 18.8936 60.7384 18.9029 60.7192 18.9066C60.7 18.9103 60.6801 18.9084 60.662 18.9009C60.6439 18.8935 60.6284 18.8809 60.6174 18.8647C60.6064 18.8485 60.6004 18.8294 60.6001 18.8099L60.6901 12.8099C60.6911 12.7878 60.6848 12.766 60.6721 12.7479C60.6595 12.7298 60.6412 12.7165 60.6201 12.7099C58.3524 11.9474 56.003 11.454 53.6201 11.2399C53.598 11.2388 53.5763 11.2452 53.5582 11.2578C53.5401 11.2705 53.5267 11.2888 53.5201 11.3099L51.1401 16.8499C51.1319 16.8668 51.1191 16.881 51.1032 16.891C51.0873 16.901 51.0689 16.9063 51.0501 16.9063C51.0313 16.9063 51.0129 16.901 50.997 16.891C50.9811 16.881 50.9683 16.8668 50.9601 16.8499L48.5901 11.3099C48.5801 11.2898 48.5641 11.2734 48.5445 11.2627C48.5248 11.2519 48.5024 11.2475 48.4801 11.2499C46.0961 11.4622 43.746 11.959 41.4801 12.7299C41.4606 12.7387 41.4438 12.7527 41.4314 12.7703C41.4191 12.7879 41.4118 12.8084 41.4101 12.8299L41.4901 18.8799C41.4935 18.8996 41.4901 18.92 41.4806 18.9377C41.471 18.9553 41.4558 18.9693 41.4374 18.9773C41.4191 18.9854 41.3985 18.9871 41.379 18.9821C41.3596 18.9771 41.3424 18.9657 41.3301 18.9499L36.8001 14.7599C36.7823 14.7482 36.7614 14.742 36.7401 14.742C36.7188 14.742 36.698 14.7482 36.6801 14.7599C34.5779 15.8973 32.6205 17.284 30.8501 18.8899C30.8385 18.9077 30.8323 18.9285 30.8323 18.9499C30.8323 18.9712 30.8385 18.992 30.8501 19.0099L33.4401 24.6099C33.4459 24.6284 33.4467 24.6481 33.4424 24.667C33.4381 24.6859 33.4289 24.7034 33.4157 24.7176C33.4025 24.7318 33.3858 24.7423 33.3673 24.7479C33.3487 24.7536 33.329 24.7543 33.3101 24.7499L27.4101 22.7499C27.3923 22.7382 27.3714 22.732 27.3501 22.732C27.3288 22.732 27.308 22.7382 27.2901 22.7499C25.8496 24.6278 24.6346 26.6685 23.6701 28.8299C23.6585 28.8477 23.6523 28.8685 23.6523 28.8899C23.6523 28.9112 23.6585 28.932 23.6701 28.9499L28.4601 33.1399C28.4734 33.1532 28.4827 33.17 28.4868 33.1884C28.491 33.2068 28.4898 33.226 28.4836 33.2437C28.4773 33.2615 28.4661 33.2771 28.4514 33.2888C28.4366 33.3005 28.4188 33.3078 28.4001 33.3099L22.0001 33.9099C21.9798 33.911 21.9602 33.9183 21.9442 33.9308C21.9281 33.9433 21.9162 33.9604 21.9101 33.9799C21.3361 36.2496 21.0307 38.5789 21.0001 40.9198C20.9991 40.9419 21.0054 40.9637 21.0181 40.9818C21.0307 40.9999 21.049 41.0133 21.0701 41.0199L27.4001 42.9999C27.417 43.008 27.4313 43.0208 27.4412 43.0367C27.4512 43.0527 27.4565 43.0711 27.4565 43.0899C27.4565 43.1086 27.4512 43.127 27.4412 43.143C27.4313 43.1589 27.417 43.1717 27.4001 43.1799L21.5601 46.4398C21.5471 46.4754 21.5471 46.5143 21.5601 46.5499C21.9924 48.8778 22.6973 51.1467 23.6601 53.3099C23.9801 54.0199 24.3301 54.7099 24.6601 55.3899C24.6796 55.396 24.7006 55.396 24.7201 55.3899L51.0001 64.1599L77.3401 55.3799C77.3529 55.376 77.3649 55.3695 77.3752 55.361C77.3855 55.3524 77.394 55.3418 77.4001 55.3299C78.8901 52.5487 79.9393 49.553 80.5101 46.4499C80.5149 46.4286 80.5126 46.4063 80.5036 46.3864C80.4946 46.3666 80.4793 46.3502 80.4601 46.3399L74.6301 43.0799C74.6138 43.0678 74.6016 43.0511 74.595 43.032C74.5884 43.0128 74.5877 42.9922 74.5932 42.9726C74.5986 42.9531 74.6098 42.9357 74.6253 42.9227C74.6408 42.9097 74.6599 42.9018 74.6801 42.8999Z" fill="white"/>
<path d="M154.999 67.9301V68.1201H150.219L138.219 50.3701H128.529V68.1201H124.369V25.3301H140.539C148.159 25.3301 154.199 30.8001 154.199 37.9101C154.199 44.3301 149.789 49.1101 142.809 50.1801L154.999 67.9301ZM140.369 46.6001C146.369 46.6001 150.059 43.0701 150.059 37.9701C150.059 32.8701 146.159 29.1001 140.549 29.1001H128.549V46.6001H140.369Z" fill="white"/>
<path d="M189.831 64.3401V68.1201H163.711V25.3301H189.261V29.1001H167.871V44.3301H186.681V48.0001H167.871V64.3001L189.831 64.3401Z" fill="white"/>
<path d="M243.131 68.12H239.131L235.001 38.6C234.78 37.2054 234.633 35.8001 234.561 34.39C233.741 35.77 232.991 37.03 232.231 38.23L220.231 57.55H219.291L207.291 38.1C206.601 37.03 205.841 35.77 205.091 34.51C204.961 35.96 204.711 37.35 204.521 38.6L200.401 68.12H196.311L202.421 25H203.671L217.081 46.77C217.961 48.16 218.841 49.6 219.721 51.3C220.601 49.6 221.481 48.16 222.361 46.71L235.831 25H237.001L243.131 68.12Z" fill="white"/>
<path d="M253.141 25.3301H257.291V68.1201H253.141V25.3301Z" fill="white"/>
<path d="M264.84 68.0001L280.64 45.9101L266.17 25.4501V25.3301H271L278.93 36.4701C280.31 38.4701 281.76 40.5501 283.14 42.8201C284.59 40.4901 285.97 38.3501 287.36 36.3401L295.16 25.3401H299.88V25.4601L285.42 45.9001L301.22 68.0001V68.1301H296.43L287.25 55.1301C285.86 53.1301 284.41 51.1301 283.09 48.9601C281.65 51.2301 280.32 53.1801 278.88 55.1901L269.63 68.1901H264.84V68.0001Z" fill="white"/>
</svg>
