<svg xmlns="http://www.w3.org/2000/svg" width="814" height="498" fill="none"><g clip-path="url(#a)"><path fill="url(#b)" d="M216.259 344.209c78.295-78.295 78.295-205.235 0-283.53-78.294-78.294-205.235-78.294-283.53 0-78.294 78.295-78.294 205.235 0 283.53 78.295 78.294 205.236 78.294 283.53 0Z"/><path fill="url(#c)" d="M-32.15 210.637c3.333-4.527 4.057-10.47 3.795-16.097-.262-5.607-1.394-11.183-1.331-16.8.146-12.346 6.529-24.45 16.61-31.577 3.48-2.452 8.018-4.37 11.917-2.651 7.535 3.343 5.26 15.93 11.873 20.866 2.788 2.075 6.624 2.263 9.978 1.341 3.353-.922 6.34-2.798 9.317-4.601 15.09-9.096 31.388-16.611 48.743-19.65 5.596-.985 11.465-1.467 16.883.241 5.418 1.709 10.323 6.047 11.245 11.665.734 4.443-1.048 8.929-3.238 12.859-3.228 5.806-7.493 11.14-12.953 14.923-5.46 3.784-12.189 5.943-18.802 5.241-6.466-.682-12.325-3.962-18.529-5.848-5.764-1.761-12.125-2.296-17.743-.095-5.607 2.191-10.228 7.546-10.291 13.562-.053 5.166 3.07 9.924 3.312 15.091.22 4.643-2.18 9.369-6.142 11.78-3.961 2.41-9.4 2.274-13.142-.482-3.448-2.547-5.167-6.865-5.743-11.109-.576-4.245-.189-8.552-.272-12.828-.105-5.156-1.75-11.329-6.708-12.744-4.705-1.352-9.317 2.61-11.737 6.854a29.829 29.829 0 0 0-3.93 15.668c.167 5.114 1.634 10.103 1.917 15.207.283 5.103-.953 10.742-4.999 13.865-4.559 3.511-11.35 2.63-16.16-.503-4.821-3.144-8.101-8.101-11.256-12.891-.87-1.331-2.578-4.464-.335-5.512 1.142-.535 4.15.775 5.575.691 4.706-.283 9.338-2.651 12.147-6.466Z" opacity=".1" style="mix-blend-mode:multiply"/><path fill="url(#d)" d="M119.884 156.926c2.662 10.921 1.08 23.088-5.544 32.164-6.623 9.076-18.54 14.41-29.501 11.937-2.82-.64-5.544-1.75-8.437-1.939-7.87-.514-14.546 5.953-18.33 12.88-6.717 12.293-7.545 28.087-.524 40.223 7.012 12.125 22.323 19.409 35.8 15.552 11.445-3.27 19.672-13.278 25.604-23.611 5.931-10.334 10.438-21.631 18.235-30.623 4.706-5.44 11.696-10.187 18.676-8.426 4.506 1.131 7.902 4.716 11.161 8.017 5.879 5.984 12.23 11.664 19.703 15.469 7.472 3.804 16.244 5.596 24.355 3.5 8.29-2.149 15.176-8.175 19.839-15.354 4.664-7.178 7.295-15.468 9.317-23.779 4.349-17.827 5.911-37.54-2.651-53.774-2.065-3.909-5.387-7.923-9.81-7.923-2.567.011-4.915 1.394-6.979 2.914-8.584 6.319-14.683 15.395-22.093 23.056-2.882 2.987-6.068 5.817-9.924 7.368-3.857 1.551-8.5 1.624-11.948-.692-4.401-2.955-5.743-9.034-4.758-14.253.986-5.219 3.836-9.851 6.33-14.525 8.196-15.364 13.111-33.212 9.695-50.294-.891-4.434-2.432-8.93-5.607-12.147-3.186-3.207-8.353-4.79-12.388-2.746-4.297 2.18-5.932 7.42-6.875 12.157-2.609 13.174-3.374 27.269-10.648 38.546-1.771 2.756-4.255 5.471-7.503 5.827-3.469.388-6.582-1.991-9.338-4.14-4.276-3.311-8.866-6.413-14.107-7.755-8.52-2.169-22.783 3.563-18.224 14.326 1.582 3.721 5.785 6.792 8.122 10.072 3.846 5.397 6.801 11.497 8.384 17.942l-.032.031Z" opacity=".1" style="mix-blend-mode:multiply"/><path fill="url(#e)" d="M10.117 139.319c.472-2.567 3.06-5.449 5.23-3.992.912.618 1.247 1.771 1.635 2.808 1.562 4.224 5.502 8.059 9.988 7.64 2.473-.23 4.653-1.677 6.738-3.028a170.864 170.864 0 0 1 34.574-17.24c2.998-1.09 7.043-1.782 8.783.88 1.289 1.96.356 4.737-1.394 6.278-1.76 1.551-4.098 2.19-6.34 2.84a131.757 131.757 0 0 0-31.18 13.634c-5.323 3.207-12.565 7.997-19.042 5.985-6.162-1.908-10.123-9.705-8.992-15.805Z" opacity=".1" style="mix-blend-mode:multiply"/><path fill="url(#f)" d="M130.281 103.898c2.84 1.666 5.481 4.035 8.762 4.36 5.156.524 9.442-4.392 10.627-9.432 1.184-5.041.262-10.302.387-15.48a37.984 37.984 0 0 1 4.916-17.722c2.85-5.03 7.723-9.736 13.487-9.358 3.417.23 7.085 2.18 9.999.398 2.263-1.383 2.85-4.632 1.771-7.053-1.08-2.421-3.406-4.077-5.859-5.062-4.433-1.771-9.558-1.677-13.917.251-6.236 2.757-10.428 8.877-12.65 15.312-2.232 6.445-2.809 13.31-3.804 20.048-.587 3.962-1.593 8.322-4.915 10.575-4.496 3.05-10.921.713-15.804 3.102-2.673 1.31-7.913 8.185-3.019 9.684 1.195.356 3.008-1.122 4.287-1.206 1.97-.146 4.056.598 5.732 1.583Z" opacity=".1" style="mix-blend-mode:multiply"/><path fill="url(#g)" d="M191.653 132.487c-.252 3.102 1.635 6.666 4.737 6.959 2.358.22 4.423-1.425 6.215-2.966l15.531-13.456c3.144-2.725 7.158-5.628 11.088-4.276 1.824.629 3.218 2.106 4.894 3.071 1.667.974 4.046 1.32 5.345-.105.723-.807.902-1.971.965-3.04.408-6.738-2.18-13.393-6.016-18.948-3.836-5.554-8.856-10.176-13.886-14.682-1.646-1.478-3.343-2.966-5.418-3.72-2.076-.755-4.633-.588-6.194.974-2.872 2.871-.66 7.64 1.142 11.287 1.897 3.846 3.165 8.405 1.53 12.367-2.41 5.848-9.18 3.123-12.031 8.132-2.704 4.758-7.451 12.922-7.912 18.414l.01-.011Z" opacity=".1" style="mix-blend-mode:multiply"/><path fill="url(#h)" d="M-86.26 247.705c2.746 4.633 6.163 8.992 10.7 11.874 4.538 2.882 10.344 4.119 15.417 2.316 4.15-1.467 7.65-4.841 12.041-5.166 4.423-.315 8.437 2.588 11.413 5.879 2.977 3.291 5.45 7.127 9.055 9.684 3.763 2.672 8.699 3.71 13.163 2.557 4.475-1.142 8.353-4.538 9.883-8.877 2.306-6.539-.67-14.043 1.614-20.583 2.002-5.732 8.426-9.663 14.39-8.52 8.006 1.53 12.219 10.103 15.866 17.397 5.743 11.444 13.677 22.71 25.509 27.584 3.95 1.624 8.667 2.84 10.595 6.654 2.432 4.779-1.069 10.376-4.779 14.232-8.646 9.003-20.132 16.088-32.614 16.412-16.978.441-31.975-11.601-41.721-25.519-2.924-4.181-5.628-8.667-9.673-11.748-3.973-3.029-8.909-4.444-13.73-5.785-4.317-1.216-8.824-2.431-13.215-1.541-4.737.965-8.646 4.266-13.132 6.089-6.686 2.704-14.703 1.855-20.666-2.221-3.134-2.149-5.67-5.062-8.007-8.049a119.014 119.014 0 0 1-10.7-16.213c-3.008-5.46-5.607-11.287-6.289-17.481-.67-6.204.818-12.869 5.125-17.386 1.908-1.992 4.58-3.574 7.305-3.155 5.334.828 4.15 9.181 5.04 13.069a64.639 64.639 0 0 0 7.379 18.466l.031.031Z" opacity=".1" style="mix-blend-mode:multiply"/><path fill="url(#i)" d="M-65.11 140.201c1.383-.671 2.892-1.195 4.411-1.017 3.658.409 5.712 4.433 6.414 8.049.702 3.616.797 7.608 3.155 10.428 3.322 3.993 9.83 3.71 14.221.932 4.391-2.777 7.221-7.367 10.187-11.633a125.637 125.637 0 0 1 18.12-20.761c4.831-4.433 11.13-8.761 17.45-7.032 3.688 1.006 6.55 3.93 10.05 5.46 8.636 3.815 18.508-1.467 25.718-7.566 7.2-6.089 14.222-13.551 23.549-14.935 9.37-1.383 19.19 3.784 28.181.786 5.785-1.928 10.25-7.357 11.015-13.404.723-5.711-1.457-12.167 1.802-16.915 3.302-4.831 10.156-5.02 15.836-6.466 10.354-2.64 19.084-11.979 19.545-22.647.451-10.68-8.646-21.286-19.336-21.097-3.731.063-7.346 1.31-10.658 2.987-12.073 6.12-20.688 18.592-22.134 32.048-.964 8.95.922 18.613-3.312 26.557-2.232 4.181-6.078 7.462-10.564 9.013-6.55 2.253-13.896.796-20.51 2.86-9.62 2.998-15.416 12.462-22.542 19.588-1.876 1.876-4.035 3.7-6.655 4.14-2.075.356-4.202-.199-6.12-1.048-9.412-4.129-16.035-15.301-26.305-14.903-9.034.356-14.893 9.715-17.44 18.382-2.546 8.667-3.793 18.382-10.207 24.754-1.824 1.824-4.444 3.333-6.896 2.537-3.238-1.059-4.003-5.22-4.213-8.615-.252-4.004-.514-8.017-.765-12.021-.294-4.569-.755-9.558-3.951-12.817-2.966-3.029-7.693-3.773-11.832-2.882-4.14.891-7.84 3.165-11.36 5.533-7.337 4.926-23.801 16.611-22.984 27.259.451 5.796 6.446 8.353 11.371 6.383 6.446-2.568 10.575-8.898 16.78-11.937h-.022Z" opacity=".1" style="mix-blend-mode:multiply"/><path fill="url(#j)" d="M-37.232 35.984c-22.68 15.217-41.25 34.27-55.44 55.713.723.89 1.76 1.509 2.84 1.917 4.223 1.625 9.065.682 13.131-1.31 4.067-1.99 7.567-4.946 11.235-7.608a90.412 90.412 0 0 1 16.286-9.37c4.821-2.137 11.591-3.311 14.431 1.143 1.447 2.264 1.195 5.177.902 7.86-.912 8.164-1.813 16.339-2.725 24.503-.325 2.945-.503 6.33 1.583 8.415 3.28 3.28 8.95.545 12.02-2.924 8.06-9.149 10.49-22.668 19.912-30.392 2.505-2.044 5.827-3.626 8.898-2.63 3.427 1.12 5.073 4.883 6.613 8.142a61.72 61.72 0 0 0 7.095 11.497c6.634 8.499 12.618 4.758 15.615-3.878 2.883-8.331 10.428-13.467 18.949-14.546 6.309-.797 12.722-2.83 17.365-7.368 4.632-4.506 5.398-11.182 5.387-17.334-.01-7.912.713-15.133 5.858-21.515 4.978-6.194 12.241-11.36 19.766-13.897 4.234-1.425 8.877-1.646 12.87-3.668 4.129-2.096 6.791-6.288 7.661-10.805C69.98-5.287 11.752 3.119-37.222 35.974l-.01.01Z" opacity=".1" style="mix-blend-mode:multiply"/><path fill="url(#k)" d="M216.259 344.209c78.295-78.295 78.295-205.235 0-283.53-78.294-78.294-205.235-78.294-283.53 0-78.294 78.295-78.294 205.235 0 283.53 78.295 78.294 205.236 78.294 283.53 0Z" opacity=".5" style="mix-blend-mode:screen"/><g stroke="#220E6E" opacity=".2"><path d="M-32.151 210.638c3.333-4.528 4.056-10.47 3.794-16.098-.262-5.607-1.394-11.182-1.331-16.8.146-12.345 6.529-24.45 16.61-31.576 3.48-2.453 8.018-4.37 11.917-2.652 7.535 3.343 5.26 15.93 11.874 20.866 2.787 2.075 6.623 2.264 9.977 1.342 3.353-.923 6.34-2.798 9.316-4.601 15.092-9.097 31.389-16.611 48.744-19.65 5.596-.985 11.465-1.468 16.883.241 5.418 1.708 10.323 6.047 11.245 11.664.734 4.444-1.048 8.929-3.238 12.859-3.228 5.806-7.493 11.141-12.954 14.924-5.46 3.783-12.188 5.942-18.8 5.24-6.467-.681-12.325-3.961-18.53-5.848-5.764-1.761-12.125-2.295-17.743-.094-5.607 2.19-10.228 7.546-10.291 13.561-.052 5.167 3.07 9.925 3.312 15.092.22 4.642-2.18 9.369-6.142 11.779-3.961 2.411-9.4 2.274-13.142-.482-3.448-2.547-5.167-6.864-5.743-11.109-.576-4.244-.189-8.552-.272-12.828-.105-5.156-1.75-11.329-6.708-12.743-4.705-1.352-9.317 2.609-11.737 6.854a29.826 29.826 0 0 0-3.93 15.667c.167 5.115 1.634 10.103 1.917 15.207.283 5.104-.953 10.742-4.999 13.865-4.559 3.511-11.35 2.631-16.16-.503-4.82-3.144-8.101-8.101-11.256-12.89-.87-1.331-2.578-4.465-.335-5.513 1.142-.534 4.15.776 5.575.692 4.706-.283 9.338-2.652 12.147-6.466Z"/><path d="M119.882 156.927c2.662 10.92 1.08 23.088-5.544 32.163-6.623 9.076-18.539 14.411-29.501 11.937-2.82-.639-5.544-1.75-8.437-1.939-7.87-.513-14.546 5.953-18.33 12.88-6.717 12.294-7.545 28.087-.523 40.223 7.01 12.126 22.322 19.409 35.8 15.553 11.444-3.27 19.671-13.279 25.603-23.612 5.931-10.333 10.438-21.631 18.235-30.623 4.706-5.439 11.696-10.187 18.676-8.426 4.506 1.132 7.902 4.716 11.161 8.017 5.879 5.984 12.23 11.665 19.703 15.469 7.472 3.804 16.244 5.596 24.356 3.5 8.289-2.148 15.175-8.174 19.838-15.353 4.664-7.179 7.295-15.469 9.317-23.779 4.35-17.827 5.911-37.54-2.651-53.774-2.065-3.909-5.387-7.923-9.81-7.923-2.567.01-4.915 1.394-6.979 2.913-8.584 6.32-14.683 15.396-22.093 23.057-2.882 2.987-6.068 5.816-9.924 7.367-3.857 1.551-8.5 1.625-11.948-.691-4.401-2.956-5.743-9.034-4.758-14.253.986-5.219 3.836-9.852 6.33-14.526 8.196-15.364 13.111-33.211 9.695-50.294-.891-4.433-2.432-8.93-5.607-12.147-3.186-3.206-8.353-4.789-12.388-2.745-4.297 2.18-5.932 7.42-6.875 12.157-2.609 13.173-3.374 27.269-10.648 38.546-1.771 2.756-4.255 5.47-7.503 5.827-3.469.387-6.582-1.992-9.338-4.14-4.276-3.312-8.866-6.414-14.106-7.755-8.521-2.17-22.784 3.563-18.225 14.326 1.582 3.72 5.785 6.791 8.122 10.071 3.846 5.398 6.801 11.497 8.384 17.942l-.032.032ZM10.116 139.32c.471-2.568 3.06-5.45 5.23-3.993.91.618 1.246 1.771 1.634 2.809 1.562 4.223 5.502 8.059 9.988 7.64 2.473-.231 4.653-1.677 6.738-3.029a170.968 170.968 0 0 1 34.574-17.24c2.998-1.09 7.043-1.781 8.783.88 1.289 1.96.356 4.738-1.394 6.278-1.76 1.551-4.098 2.19-6.34 2.84a131.76 131.76 0 0 0-31.18 13.635c-5.323 3.207-12.565 7.996-19.041 5.984-6.163-1.907-10.124-9.705-8.992-15.804Z"/><path d="M130.279 103.898c2.84 1.667 5.481 4.035 8.762 4.36 5.156.524 9.442-4.391 10.627-9.432 1.184-5.04.262-10.302.387-15.48a37.984 37.984 0 0 1 4.916-17.721c2.85-5.03 7.723-9.736 13.488-9.359 3.416.23 7.084 2.18 9.998.398 2.263-1.383 2.85-4.632 1.771-7.053-1.08-2.42-3.406-4.076-5.859-5.062-4.433-1.77-9.558-1.676-13.917.252-6.236 2.756-10.428 8.877-12.65 15.311-2.232 6.446-2.809 13.31-3.804 20.049-.587 3.961-1.593 8.321-4.915 10.574-4.496 3.05-10.921.713-15.804 3.103-2.673 1.31-7.913 8.184-3.019 9.683 1.195.356 3.008-1.121 4.287-1.205 1.97-.147 4.056.597 5.732 1.582ZM191.651 132.488c-.252 3.102 1.635 6.665 4.737 6.959 2.358.22 4.423-1.426 6.215-2.966l15.531-13.457c3.144-2.725 7.158-5.628 11.088-4.276 1.824.629 3.218 2.107 4.895 3.071 1.666.975 4.045 1.321 5.344-.105.724-.807.902-1.97.965-3.039.408-6.739-2.18-13.394-6.016-18.948-3.836-5.555-8.856-10.176-13.886-14.683-1.646-1.477-3.343-2.966-5.418-3.72-2.076-.755-4.633-.587-6.194.974-2.872 2.872-.66 7.64 1.142 11.287 1.897 3.847 3.165 8.406 1.53 12.367-2.41 5.848-9.18 3.123-12.031 8.133-2.704 4.758-7.451 12.922-7.912 18.413l.01-.01ZM-86.262 247.706c2.746 4.632 6.163 8.992 10.7 11.874 4.538 2.882 10.344 4.118 15.417 2.316 4.15-1.467 7.65-4.842 12.042-5.167 4.422-.314 8.436 2.589 11.412 5.88 2.977 3.29 5.45 7.126 9.055 9.683 3.763 2.673 8.699 3.71 13.163 2.557 4.475-1.142 8.353-4.538 9.883-8.876 2.306-6.54-.67-14.044 1.614-20.583 2.002-5.733 8.426-9.663 14.39-8.521 8.006 1.53 12.22 10.103 15.866 17.397 5.743 11.445 13.677 22.711 25.509 27.584 3.95 1.624 8.667 2.84 10.595 6.655 2.432 4.779-1.069 10.375-4.779 14.232-8.646 9.002-20.132 16.087-32.614 16.412-16.978.44-31.975-11.602-41.721-25.519-2.924-4.182-5.628-8.667-9.674-11.748-3.971-3.029-8.908-4.444-13.729-5.786-4.317-1.215-8.824-2.431-13.215-1.54-4.737.964-8.646 4.265-13.132 6.089-6.686 2.704-14.703 1.855-20.666-2.222-3.134-2.148-5.67-5.062-8.007-8.049a119.075 119.075 0 0 1-10.7-16.212c-3.008-5.461-5.607-11.288-6.289-17.481-.67-6.205.818-12.87 5.125-17.387 1.908-1.991 4.58-3.574 7.305-3.154 5.334.828 4.15 9.18 5.04 13.068a64.639 64.639 0 0 0 7.379 18.466l.031.032ZM-65.113 140.201c1.383-.67 2.893-1.195 4.412-1.016 3.658.408 5.712 4.433 6.414 8.048.702 3.616.797 7.609 3.155 10.428 3.322 3.993 9.83 3.71 14.221.933s7.221-7.368 10.187-11.633A125.599 125.599 0 0 1-8.604 126.2c4.831-4.433 11.13-8.762 17.45-7.032 3.688 1.006 6.55 3.93 10.05 5.46 8.636 3.815 18.508-1.467 25.718-7.567 7.2-6.089 14.222-13.551 23.55-14.934 9.368-1.383 19.188 3.783 28.18.786 5.785-1.928 10.25-7.357 11.015-13.404.723-5.712-1.457-12.168 1.802-16.915 3.302-4.831 10.156-5.02 15.836-6.466 10.354-2.641 19.084-11.98 19.545-22.648.451-10.68-8.646-21.285-19.336-21.096-3.73.062-7.346 1.31-10.658 2.986-12.073 6.12-20.688 18.592-22.134 32.049-.964 8.95.922 18.612-3.312 26.556-2.232 4.182-6.078 7.462-10.564 9.013-6.55 2.253-13.896.797-20.51 2.861-9.62 2.998-15.416 12.461-22.542 19.588-1.876 1.876-4.035 3.699-6.655 4.139-2.075.357-4.202-.199-6.12-1.048-9.411-4.129-16.035-15.301-26.305-14.902-9.034.356-14.893 9.715-17.44 18.382-2.546 8.667-3.793 18.382-10.207 24.754-1.824 1.823-4.444 3.332-6.896 2.536-3.238-1.059-4.003-5.219-4.213-8.615-.252-4.003-.514-8.017-.765-12.02-.293-4.57-.755-9.558-3.951-12.818-2.966-3.028-7.692-3.772-11.832-2.882-4.14.891-7.84 3.165-11.36 5.534-7.337 4.926-23.801 16.611-22.984 27.259.451 5.795 6.446 8.352 11.371 6.382 6.446-2.568 10.575-8.898 16.78-11.937h-.022Z"/><path d="M-37.234 35.985c-22.68 15.217-41.25 34.27-55.44 55.712.723.89 1.76 1.51 2.84 1.918 4.223 1.624 9.065.681 13.132-1.31 4.066-1.991 7.566-4.947 11.234-7.609a90.41 90.41 0 0 1 16.286-9.369c4.821-2.138 11.591-3.312 14.432 1.142 1.446 2.264 1.194 5.178.9 7.86-.91 8.165-1.812 16.339-2.724 24.503-.325 2.945-.503 6.33 1.582 8.416 3.28 3.28 8.95.545 12.021-2.924 8.06-9.149 10.49-22.669 19.913-30.393 2.504-2.043 5.826-3.626 8.897-2.63 3.427 1.121 5.072 4.883 6.613 8.143a61.733 61.733 0 0 0 7.095 11.497c6.634 8.499 12.618 4.758 15.616-3.878C38.045 88.73 45.59 83.596 54.11 82.516c6.309-.796 12.723-2.83 17.365-7.367 4.633-4.507 5.398-11.182 5.387-17.334-.01-7.913.713-15.133 5.858-21.516 4.978-6.194 12.241-11.36 19.766-13.897 4.234-1.425 8.877-1.645 12.87-3.668 4.129-2.096 6.791-6.288 7.661-10.805C69.978-5.286 11.75 3.12-37.224 35.974l-.01.01Z"/></g><g stroke-miterlimit="10" opacity=".5"><path stroke="url(#l)" d="M-121.223 158.941c-106.279 58.469-172.105 117.671-159.005 149.74 18.141 44.384 180.605 19.986 362.886-54.496 182.281-74.483 315.357-170.837 297.216-215.22-12.115-29.638-88.567-28.6-192.31-2.474"/><path stroke="url(#m)" d="M-122.188 162.379c-91.596 51.625-147.518 102.538-136.189 130.237 16.318 39.961 166.435 16.422 335.28-52.568C245.75 171.057 369.384 82.741 353.067 42.78c-10.313-25.236-74.011-25.152-162.107-4.255"/><path stroke="url(#n)" d="M-123.111 165.86c-75.195 43.587-120.249 85.12-111.016 107.725 14.138 34.616 150.191 11.77 303.872-51.027C223.425 159.761 336.548 80.803 322.4 46.198c-8.238-20.143-57.767-20.835-128.036-5.502"/><path stroke="url(#o)" d="M-123.967 169.442c-65.239 37.697-104.099 72.155-96.732 90.213 11.853 29.019 138.715 4.632 283.352-54.466C207.289 146.092 314.92 74.659 303.067 45.661c-6.445-15.773-46.909-15.762-105.734-2.966"/></g><path fill="url(#p)" d="M502.781 437.137c52.663 0 95.355-42.692 95.355-95.355 0-52.663-42.692-95.355-95.355-95.355-52.663 0-95.355 42.692-95.355 95.355 0 52.663 42.692 95.355 95.355 95.355Z"/><path fill="url(#q)" d="M446.296 276.951c-.808.263-1.606.573-2.385.92-2.508 1.099-3.475 4.79-1.052 6.593 1.042.779 2.432.835 3.691 1.155 1.258.319 2.61 1.183 2.638 2.47.019 1.089-.892 1.943-1.699 2.676-2.968 2.723-5.494 6.282-5.682 10.302-.188 4.019 2.752 8.329 6.78 8.489 1.371.056 2.865-.46 3.531-1.653.958-1.709-.075-4.113 1.118-5.663.939-1.22 2.798-1.22 4.273-.76 1.465.469 2.845 1.305 4.385 1.399 2.329.15 4.423-1.418 5.963-3.183.573-.648 1.127-1.39 1.184-2.254.15-2.104-2.386-3.193-4.395-3.794-2.019-.611-4.442-2.207-3.728-4.198.394-1.108 1.615-1.615 2.61-2.235 1.005-.61 1.972-1.765 1.503-2.836-.244-.545-.808-.883-1.371-1.089-2.799-1.014-6.039.46-8.875-.479-.272-.085-.554-.216-.732-.432-.338-.395-.282-.996-.056-1.465.629-1.305 2.225-1.719 3.052-2.902.15-.206.281-.451.234-.704-.028-.179-.141-.329-.272-.46-1.287-1.381-3.437-1.409-5.296-1.165a29.725 29.725 0 0 0-5.41 1.24l-.009.028Z" opacity=".1" style="mix-blend-mode:multiply"/><path fill="url(#r)" d="M463.753 309.152c2.638-.441 4.864-2.216 6.639-4.216 1.775-2 3.24-4.273 5.127-6.161 4.151-4.15 10.349-6.16 16.143-5.23 2.01.319 4.179 1.174 4.94 3.061 1.455 3.634-3.494 7.175-2.893 11.044.263 1.634 1.503 2.967 2.958 3.766 1.447.807 3.09 1.155 4.696 1.521 8.16 1.906 16.208 4.77 23.12 9.503 2.235 1.522 4.395 3.306 5.672 5.691 1.277 2.385 1.503 5.484-.047 7.71-1.23 1.756-3.324 2.686-5.371 3.306-3.024.901-6.245 1.305-9.363.779-3.118-.526-6.123-2.028-8.142-4.461-1.972-2.385-2.883-5.437-4.367-8.141-1.38-2.508-3.362-4.809-6-5.926-2.639-1.118-5.992-.826-8.001 1.202-1.738 1.737-2.254 4.395-3.888 6.235-1.465 1.653-3.86 2.47-6.01 1.973-2.151-.498-3.963-2.348-4.311-4.536-.319-2.01.517-4.048 1.728-5.691 1.212-1.643 2.78-2.968 4.17-4.451 1.671-1.785 3.164-4.442 1.944-6.564-1.155-2.019-4.038-2.198-6.283-1.569a14.156 14.156 0 0 0-6.536 4.038c-1.643 1.794-2.798 3.982-4.404 5.813-1.606 1.831-3.888 3.343-6.311 3.062-2.723-.32-4.733-2.874-5.334-5.541-.601-2.667-.075-5.447.451-8.132.141-.742.61-2.376 1.709-1.991.573.197 1.155 1.643 1.672 2.085 1.699 1.474 4.057 2.197 6.282 1.831l.01-.01Z" opacity=".1" style="mix-blend-mode:multiply"/><path fill="url(#s)" d="M533.349 341.355c-2.723 4.601-7.296 8.217-12.565 9.109-5.268.892-11.1-1.258-14.011-5.729-.742-1.155-1.315-2.441-2.225-3.465-2.508-2.789-6.931-2.798-10.528-1.699-6.367 1.953-11.898 7.052-13.522 13.522-1.634 6.461 1.155 14.021 7.024 17.186 4.987 2.695 11.109 2 16.556.46 5.456-1.55 10.734-3.898 16.378-4.376 3.408-.292 7.362.413 9.156 3.333 1.155 1.888 1.127 4.226 1.136 6.433.019 3.982.291 8.029 1.568 11.804 1.277 3.775 3.672 7.297 7.137 9.278 3.541 2.019 7.879 2.264 11.842 1.362 3.963-.901 7.616-2.845 11.072-5.005 7.4-4.621 14.48-10.818 16.95-19.186.592-2.019.808-4.489-.713-5.953-.874-.855-2.132-1.156-3.353-1.325-5.024-.704-10.114.367-15.176.508-1.972.056-4-.038-5.822-.789-1.822-.752-3.437-2.273-3.841-4.198-.516-2.47 1.043-4.987 3.109-6.433 2.066-1.446 4.573-2.075 6.977-2.845 7.898-2.507 15.495-6.949 20.002-13.899 1.165-1.803 2.142-3.85 2.123-5.991-.019-2.16-1.249-4.404-3.306-5.052-2.188-.686-4.489.563-6.376 1.869-5.259 3.624-10.208 8.16-16.425 9.588-1.512.347-3.268.45-4.488-.507-1.306-1.024-1.578-2.855-1.804-4.508-.347-2.545-.882-5.127-2.225-7.316-2.179-3.568-8.94-6.348-10.959-1.173-.705 1.793-.291 4.235-.582 6.122-.479 3.109-1.503 6.18-3.109 8.894v-.019Z" opacity=".1" style="mix-blend-mode:multiply"/><path fill="url(#t)" d="M501.824 298.898c1.014-.714 2.855-.845 3.099.376.103.516-.16 1.023-.376 1.502-.873 1.963-.798 4.573.864 5.916.921.752 2.141.977 3.306 1.202a81.22 81.22 0 0 1 17.495 5.607c1.381.629 2.986 1.728 2.695 3.221-.206 1.089-1.446 1.728-2.563 1.681-1.109-.057-2.123-.62-3.109-1.137a62.985 62.985 0 0 0-15.138-5.709c-2.873-.676-6.94-1.456-8.47-4.282-1.465-2.705-.226-6.668 2.188-8.368l.009-.009Z" opacity=".1" style="mix-blend-mode:multiply"/><path fill="url(#u)" d="M554.506 326.751c.423 1.512.526 3.193 1.54 4.395 1.587 1.887 4.677 1.634 6.752.31 2.076-1.325 3.513-3.419 5.278-5.147a18.152 18.152 0 0 1 7.56-4.404c2.638-.761 5.859-.751 7.7 1.296 1.08 1.211 1.69 3.099 3.268 3.456 1.221.282 2.507-.629 2.939-1.813.442-1.173.188-2.516-.309-3.671-.921-2.066-2.696-3.747-4.818-4.536-3.033-1.136-6.498-.432-9.391 1.014-2.902 1.456-5.371 3.606-7.954 5.569-1.512 1.155-3.315 2.301-5.184 1.972-2.535-.451-3.962-3.381-6.404-4.188-1.343-.442-5.409.169-4.245 2.291.282.526 1.39.62 1.86 1.014.723.61 1.183 1.559 1.427 2.442h-.019Z" opacity=".1" style="mix-blend-mode:multiply"/><path fill="url(#v)" d="M565.906 356.856c-1.118.967-1.653 2.817-.695 3.944.723.855 1.981.986 3.099 1.052 3.249.188 6.508.385 9.757.573 1.972.112 4.31.46 5.193 2.225.413.827.394 1.784.639 2.667.244.883.939 1.803 1.85 1.738.516-.029.957-.376 1.333-.714 2.385-2.16 3.709-5.287 4.245-8.452.535-3.165.357-6.404.15-9.616-.066-1.042-.15-2.122-.61-3.071-.461-.948-1.381-1.737-2.433-1.718-1.925.028-2.761 2.385-3.352 4.216-.629 1.944-1.719 3.916-3.587 4.714-2.761 1.183-4.161-1.981-6.799-1.221-2.498.733-6.827 1.926-8.809 3.644l.019.019Z" opacity=".1" style="mix-blend-mode:multiply"/><path fill="url(#w)" d="M433.017 303.809c-.61 2.489-.883 5.109-.3 7.607.591 2.488 2.15 4.836 4.479 5.907 1.906.873 4.217.892 5.813 2.244 1.615 1.352 2.01 3.681 1.935 5.785-.076 2.103-.517 4.235-.132 6.31.395 2.16 1.728 4.151 3.625 5.24 1.897 1.09 4.348 1.231 6.311.263 2.958-1.455 4.432-4.996 7.381-6.479 2.582-1.287 6.076-.498 7.728 1.887 2.217 3.174.808 7.494-.375 11.194-1.841 5.804-2.883 12.274-.47 17.861.808 1.86 2 3.841 1.409 5.785-.761 2.432-3.813 3.174-6.358 3.259-5.935.188-12.198-1.212-16.546-5.24-5.926-5.494-7.034-14.565-5.729-22.538.385-2.395.967-4.818.601-7.212-.347-2.357-1.559-4.47-2.751-6.527-1.071-1.841-2.198-3.756-3.991-4.911-1.935-1.24-4.367-1.418-6.489-2.282-3.175-1.296-5.626-4.254-6.302-7.616-.357-1.766-.244-3.606-.047-5.4a58.556 58.556 0 0 1 1.728-9.072c.789-2.854 1.841-5.709 3.663-8.038 1.831-2.338 4.554-4.104 7.522-4.217 1.305-.047 2.751.31 3.531 1.353 1.54 2.047-1.634 4.507-2.63 6.123a30.737 30.737 0 0 0-3.625 8.733l.019-.019Z" opacity=".1" style="mix-blend-mode:multiply"/><path fill="url(#x)" d="M475.915 274.229c.695.225 1.381.554 1.841 1.127 1.108 1.352.479 3.409-.488 4.864-.968 1.456-2.254 2.855-2.386 4.602-.188 2.46 2.113 4.536 4.536 5.043 2.423.507 4.902-.113 7.334-.573a60.894 60.894 0 0 1 13.063-1.061c3.118.094 6.705.713 8.283 3.399.92 1.578.92 3.512 1.605 5.193 1.681 4.16 6.79 5.644 11.26 5.963 4.479.31 9.344.104 12.978 2.743 3.653 2.638 5.278 7.662 9.335 9.616 2.61 1.258 5.935.901 8.198-.911 2.141-1.709 3.54-4.63 6.226-5.156 2.723-.544 5.118 1.662 7.541 3.052 4.404 2.545 10.47 2.263 14.18-1.221 3.7-3.474 4.122-10.113.422-13.607-1.286-1.211-2.93-1.991-4.629-2.526-6.132-1.925-13.213-.535-18.171 3.559-3.306 2.724-5.87 6.64-9.945 7.935a9.068 9.068 0 0 1-6.583-.441c-2.977-1.399-4.996-4.338-7.936-5.832-4.272-2.169-9.381-.873-14.18-.826-1.258.019-2.601-.085-3.643-.808-.827-.563-1.362-1.455-1.738-2.394-1.831-4.536-.375-10.537-4.01-13.814-3.192-2.874-8.292-1.644-12.039.469-3.746 2.113-7.39 5.006-11.691 5.043-1.23.01-2.63-.338-3.193-1.427-.742-1.437.366-3.109 1.427-4.339l3.729-4.348c1.418-1.643 2.92-3.502 2.911-5.672-.01-2.019-1.362-3.841-3.071-4.911-1.709-1.071-3.719-1.521-5.7-1.888-4.142-.76-13.617-2.253-16.885 1.653-1.765 2.122-.573 4.987 1.756 5.944 3.052 1.268 6.564.479 9.682 1.512l-.019.038Z" opacity=".1" style="mix-blend-mode:multiply"/><path fill="url(#y)" d="M520.024 248c-12.772-2.348-25.431-2.028-37.376.563-.047.536.103 1.099.319 1.597.902 1.953 2.865 3.24 4.912 3.916 2.047.676 4.226.826 6.348 1.146a43.08 43.08 0 0 1 8.658 2.216c2.357.873 5.043 2.714 4.536 5.174-.263 1.259-1.315 2.16-2.301 2.977l-9.071 7.438c-1.08.892-2.273 1.99-2.254 3.399.028 2.207 2.864 3.165 5.062 2.996 5.784-.432 11.1-4.245 16.875-3.728 1.521.131 3.193.694 3.897 2.056.789 1.521.104 3.353-.451 4.977a29.279 29.279 0 0 0-1.399 6.264c-.573 5.099 2.714 5.813 6.602 3.86 3.747-1.888 8.02-1.127 11.278 1.342 2.414 1.832 5.269 3.259 8.368 3.259 3.07.009 5.55-2.019 7.587-4.113 2.62-2.695 5.269-4.911 9.138-5.381 3.747-.46 7.935.197 11.344 1.841 1.915.92 3.568 2.385 5.597 3.023 2.103.658 4.395.113 6.207-1.136-13.682-22.115-36.296-38.587-63.876-43.667V248Z" opacity=".1" style="mix-blend-mode:multiply"/><path fill="url(#z)" d="M489.391 264.021c-5.822-3.08-12.922-2.911-19.214-.977-2.826.874-5.69 2.085-8.63 1.681-.629-.084-1.305-.291-1.634-.826-.366-.573-.197-1.343.094-1.953.686-1.456 1.982-2.545 3.437-3.212 1.456-.667 3.062-.939 4.658-1.071 4.902-.394 9.785.545 14.687.996 3.522.329 7.062.394 10.593.206 1.888-.103 3.841-.272 5.653.32 1.803.582 3.447 2.169 3.428 4.066-.009 1.718-1.315 3.136-2.611 4.263a34.442 34.442 0 0 1-4.244 3.118c-1.09.676-2.658 1.456-2.339-.573.216-1.324.536-1.831-.347-3.089-.883-1.259-2.198-2.217-3.55-2.93l.019-.019Z" opacity=".1" style="mix-blend-mode:multiply"/><path fill="url(#A)" d="M502.781 437.137c52.663 0 95.355-42.692 95.355-95.355 0-52.663-42.692-95.355-95.355-95.355-52.663 0-95.355 42.692-95.355 95.355 0 52.663 42.692 95.355 95.355 95.355Z" opacity=".5" style="mix-blend-mode:screen"/><g stroke="#220E6E" stroke-width=".4" opacity=".2"><path d="M446.296 276.951c-.808.263-1.606.573-2.385.92-2.508 1.099-3.475 4.79-1.052 6.593 1.042.779 2.432.835 3.691 1.155 1.258.319 2.61 1.183 2.638 2.47.019 1.089-.892 1.943-1.699 2.676-2.968 2.723-5.494 6.282-5.682 10.302-.188 4.019 2.752 8.329 6.78 8.489 1.371.056 2.865-.46 3.531-1.653.958-1.709-.075-4.113 1.118-5.663.939-1.22 2.798-1.22 4.273-.76 1.465.469 2.845 1.305 4.385 1.399 2.329.15 4.423-1.418 5.963-3.183.573-.648 1.127-1.39 1.184-2.254.15-2.104-2.386-3.193-4.395-3.794-2.019-.611-4.442-2.207-3.728-4.198.394-1.108 1.615-1.615 2.61-2.235 1.005-.61 1.972-1.765 1.503-2.836-.244-.545-.808-.883-1.371-1.089-2.799-1.014-6.039.46-8.875-.479-.272-.085-.554-.216-.732-.432-.338-.395-.282-.996-.056-1.465.629-1.305 2.225-1.719 3.052-2.902.15-.206.281-.451.234-.704-.028-.179-.141-.329-.272-.46-1.287-1.381-3.437-1.409-5.296-1.165a29.725 29.725 0 0 0-5.41 1.24l-.009.028Z"/><path d="M463.753 309.152c2.638-.441 4.864-2.216 6.639-4.216 1.775-2 3.24-4.273 5.127-6.161 4.151-4.15 10.349-6.16 16.143-5.23 2.01.319 4.179 1.174 4.94 3.061 1.455 3.634-3.494 7.175-2.893 11.044.263 1.634 1.503 2.967 2.958 3.766 1.447.807 3.09 1.155 4.696 1.521 8.16 1.906 16.208 4.77 23.12 9.503 2.235 1.522 4.395 3.306 5.672 5.691 1.277 2.385 1.503 5.484-.047 7.71-1.23 1.756-3.324 2.686-5.371 3.306-3.024.901-6.245 1.305-9.363.779-3.118-.526-6.123-2.028-8.142-4.461-1.972-2.385-2.883-5.437-4.367-8.141-1.38-2.508-3.362-4.809-6-5.926-2.639-1.118-5.992-.826-8.001 1.202-1.738 1.737-2.254 4.395-3.888 6.235-1.465 1.653-3.86 2.47-6.01 1.973-2.151-.498-3.963-2.348-4.311-4.536-.319-2.01.517-4.048 1.728-5.691 1.212-1.643 2.78-2.968 4.17-4.451 1.671-1.785 3.164-4.442 1.944-6.564-1.155-2.019-4.038-2.198-6.283-1.569a14.156 14.156 0 0 0-6.536 4.038c-1.643 1.794-2.798 3.982-4.404 5.813-1.606 1.831-3.888 3.343-6.311 3.062-2.723-.32-4.733-2.874-5.334-5.541-.601-2.667-.075-5.447.451-8.132.141-.742.61-2.376 1.709-1.991.573.197 1.155 1.643 1.672 2.085 1.699 1.474 4.057 2.197 6.282 1.831l.01-.01Z"/><path d="M533.349 341.355c-2.723 4.601-7.296 8.217-12.565 9.109-5.268.892-11.1-1.258-14.011-5.729-.742-1.155-1.315-2.441-2.225-3.465-2.508-2.789-6.931-2.798-10.528-1.699-6.367 1.953-11.898 7.052-13.522 13.522-1.634 6.461 1.155 14.021 7.024 17.186 4.987 2.695 11.109 2 16.556.46 5.456-1.55 10.734-3.898 16.378-4.376 3.408-.292 7.362.413 9.156 3.333 1.155 1.888 1.127 4.226 1.136 6.433.019 3.982.291 8.029 1.568 11.804 1.277 3.775 3.672 7.297 7.137 9.278 3.541 2.019 7.879 2.264 11.842 1.362 3.963-.901 7.616-2.845 11.072-5.005 7.4-4.621 14.48-10.818 16.95-19.186.592-2.019.808-4.489-.713-5.953-.874-.855-2.132-1.156-3.353-1.325-5.024-.704-10.114.367-15.176.508-1.972.056-4-.038-5.822-.789-1.822-.752-3.437-2.273-3.841-4.198-.516-2.47 1.043-4.987 3.109-6.433 2.066-1.446 4.573-2.075 6.977-2.845 7.898-2.507 15.495-6.949 20.002-13.899 1.165-1.803 2.142-3.85 2.123-5.991-.019-2.16-1.249-4.404-3.306-5.052-2.188-.686-4.489.563-6.376 1.869-5.259 3.624-10.208 8.16-16.425 9.588-1.512.347-3.268.45-4.488-.507-1.306-1.024-1.578-2.855-1.804-4.508-.347-2.545-.882-5.127-2.225-7.316-2.179-3.568-8.94-6.348-10.959-1.173-.705 1.793-.291 4.235-.582 6.122-.479 3.109-1.503 6.18-3.109 8.894v-.019ZM501.824 298.898c1.014-.714 2.855-.845 3.099.376.103.516-.16 1.023-.376 1.502-.873 1.963-.798 4.573.864 5.916.921.752 2.141.977 3.306 1.202a81.22 81.22 0 0 1 17.495 5.607c1.381.629 2.986 1.728 2.695 3.221-.206 1.089-1.446 1.728-2.563 1.681-1.109-.057-2.123-.62-3.109-1.137a62.985 62.985 0 0 0-15.138-5.709c-2.873-.676-6.94-1.456-8.47-4.282-1.465-2.705-.226-6.668 2.188-8.368l.009-.009Z"/><path d="M554.506 326.751c.423 1.512.526 3.193 1.54 4.395 1.587 1.887 4.677 1.634 6.752.31 2.076-1.325 3.513-3.419 5.278-5.147a18.152 18.152 0 0 1 7.56-4.404c2.638-.761 5.859-.751 7.7 1.296 1.08 1.211 1.69 3.099 3.268 3.456 1.221.282 2.507-.629 2.939-1.813.442-1.173.188-2.516-.309-3.671-.921-2.066-2.696-3.747-4.818-4.536-3.033-1.136-6.498-.432-9.391 1.014-2.902 1.456-5.371 3.606-7.954 5.569-1.512 1.155-3.315 2.301-5.184 1.972-2.535-.451-3.962-3.381-6.404-4.188-1.343-.442-5.409.169-4.245 2.291.282.526 1.39.62 1.86 1.014.723.61 1.183 1.559 1.427 2.442h-.019ZM565.906 356.856c-1.118.967-1.653 2.817-.695 3.944.723.855 1.981.986 3.099 1.052 3.249.188 6.508.385 9.757.573 1.972.112 4.31.46 5.193 2.225.413.827.394 1.784.639 2.667.244.883.939 1.803 1.85 1.738.516-.029.957-.376 1.333-.714 2.385-2.16 3.709-5.287 4.245-8.452.535-3.165.357-6.404.15-9.616-.066-1.042-.15-2.122-.61-3.071-.461-.948-1.381-1.737-2.433-1.718-1.925.028-2.761 2.385-3.352 4.216-.629 1.944-1.719 3.916-3.587 4.714-2.761 1.183-4.161-1.981-6.799-1.221-2.498.733-6.827 1.926-8.809 3.644l.019.019ZM433.017 303.809c-.61 2.489-.883 5.109-.3 7.607.591 2.488 2.15 4.836 4.479 5.907 1.906.873 4.217.892 5.813 2.244 1.615 1.352 2.01 3.681 1.935 5.785-.076 2.103-.517 4.235-.132 6.31.395 2.16 1.728 4.151 3.625 5.24 1.897 1.09 4.348 1.231 6.311.263 2.958-1.455 4.432-4.996 7.381-6.479 2.582-1.287 6.076-.498 7.728 1.887 2.217 3.174.808 7.494-.375 11.194-1.841 5.804-2.883 12.274-.47 17.861.808 1.86 2 3.841 1.409 5.785-.761 2.432-3.813 3.174-6.358 3.259-5.935.188-12.198-1.212-16.546-5.24-5.926-5.494-7.034-14.565-5.729-22.538.385-2.395.967-4.818.601-7.212-.347-2.357-1.559-4.47-2.751-6.527-1.071-1.841-2.198-3.756-3.991-4.911-1.935-1.24-4.367-1.418-6.489-2.282-3.175-1.296-5.626-4.254-6.302-7.616-.357-1.766-.244-3.606-.047-5.4a58.556 58.556 0 0 1 1.728-9.072c.789-2.854 1.841-5.709 3.663-8.038 1.831-2.338 4.554-4.104 7.522-4.217 1.305-.047 2.751.31 3.531 1.353 1.54 2.047-1.634 4.507-2.63 6.123a30.737 30.737 0 0 0-3.625 8.733l.019-.019ZM475.915 274.229c.695.225 1.381.554 1.841 1.127 1.108 1.352.479 3.409-.488 4.864-.968 1.456-2.254 2.855-2.386 4.602-.188 2.46 2.113 4.536 4.536 5.043 2.423.507 4.902-.113 7.334-.573a60.894 60.894 0 0 1 13.063-1.061c3.118.094 6.705.713 8.283 3.399.92 1.578.92 3.512 1.605 5.193 1.681 4.16 6.79 5.644 11.26 5.963 4.479.31 9.344.104 12.978 2.743 3.653 2.638 5.278 7.662 9.335 9.616 2.61 1.258 5.935.901 8.198-.911 2.141-1.709 3.54-4.63 6.226-5.156 2.723-.544 5.118 1.662 7.541 3.052 4.404 2.545 10.47 2.263 14.18-1.221 3.7-3.474 4.122-10.113.422-13.607-1.286-1.211-2.93-1.991-4.629-2.526-6.132-1.925-13.213-.535-18.171 3.559-3.306 2.724-5.87 6.64-9.945 7.935a9.068 9.068 0 0 1-6.583-.441c-2.977-1.399-4.996-4.338-7.936-5.832-4.272-2.169-9.381-.873-14.18-.826-1.258.019-2.601-.085-3.643-.808-.827-.563-1.362-1.455-1.738-2.394-1.831-4.536-.375-10.537-4.01-13.814-3.192-2.874-8.292-1.644-12.039.469-3.746 2.113-7.39 5.006-11.691 5.043-1.23.01-2.63-.338-3.193-1.427-.742-1.437.366-3.109 1.427-4.339l3.729-4.348c1.418-1.643 2.92-3.502 2.911-5.672-.01-2.019-1.362-3.841-3.071-4.911-1.709-1.071-3.719-1.521-5.7-1.888-4.142-.76-13.617-2.253-16.885 1.653-1.765 2.122-.573 4.987 1.756 5.944 3.052 1.268 6.564.479 9.682 1.512l-.019.038Z"/><path d="M520.024 248c-12.772-2.348-25.431-2.028-37.376.563-.047.536.103 1.099.319 1.597.902 1.953 2.865 3.24 4.912 3.916 2.047.676 4.226.826 6.348 1.146a43.08 43.08 0 0 1 8.658 2.216c2.357.873 5.043 2.714 4.536 5.174-.263 1.259-1.315 2.16-2.301 2.977l-9.071 7.438c-1.08.892-2.273 1.99-2.254 3.399.028 2.207 2.864 3.165 5.062 2.996 5.784-.432 11.1-4.245 16.875-3.728 1.521.131 3.193.694 3.897 2.056.789 1.521.104 3.353-.451 4.977a29.279 29.279 0 0 0-1.399 6.264c-.573 5.099 2.714 5.813 6.602 3.86 3.747-1.888 8.02-1.127 11.278 1.342 2.414 1.832 5.269 3.259 8.368 3.259 3.07.009 5.55-2.019 7.587-4.113 2.62-2.695 5.269-4.911 9.138-5.381 3.747-.46 7.935.197 11.344 1.841 1.915.92 3.568 2.385 5.597 3.023 2.103.658 4.395.113 6.207-1.136-13.682-22.115-36.296-38.587-63.876-43.667V248Z"/><path d="M489.391 264.021c-5.822-3.08-12.922-2.911-19.214-.977-2.826.874-5.69 2.085-8.63 1.681-.629-.084-1.305-.291-1.634-.826-.366-.573-.197-1.343.094-1.953.686-1.456 1.982-2.545 3.437-3.212 1.456-.667 3.062-.939 4.658-1.071 4.902-.394 9.785.545 14.687.996 3.522.329 7.062.394 10.593.206 1.888-.103 3.841-.272 5.653.32 1.803.582 3.447 2.169 3.428 4.066-.009 1.718-1.315 3.136-2.611 4.263a34.442 34.442 0 0 1-4.244 3.118c-1.09.676-2.658 1.456-2.339-.573.216-1.324.536-1.831-.347-3.089-.883-1.259-2.198-2.217-3.55-2.93l.019-.019Z"/></g><g stroke-miterlimit="10" opacity=".5"><path stroke="url(#B)" d="M450.588 261.975c-55.594-15.382-97.674-17.082-103.853-1.812-8.564 21.129 54.852 66.778 141.651 101.946 86.799 35.169 164.105 46.551 172.669 25.421 5.719-14.114-20.65-39.15-64.656-64.693"/><path stroke="url(#C)" d="M449.122 262.82c-48.334-12.837-84.273-14.068-89.626-.883-7.71 19.035 51.208 60.862 131.622 93.439 80.413 32.577 151.821 43.564 159.531 24.529 4.865-12.021-16.856-33.141-53.781-55.284"/><path stroke="url(#D)" d="M447.659 263.702c-40.08-10.123-69.21-10.949-73.568-.188-6.677 16.481 47.227 53.876 120.4 83.532s137.913 40.324 144.59 23.843c3.888-9.597-12.752-26.275-41.77-44.381"/><path stroke="url(#E)" d="M446.176 264.643c-34.727-8.828-59.416-10.002-62.891-1.4-5.596 13.824 45.687 47.64 114.569 75.54 68.872 27.91 129.236 39.329 134.833 25.505 3.043-7.512-10.743-20.941-35.018-36.126"/></g><path fill="url(#F)" d="m75.959 497.563 64.248-26.219a1.423 1.423 0 0 0 .773-1.855 1.424 1.424 0 0 0-1.856-.773l-64.235 26.206a1.422 1.422 0 0 0-.773 1.855h-.013a1.424 1.424 0 0 0 1.856.773v.013Z" style="mix-blend-mode:lighten"/><path fill="url(#G)" d="m-13.714 437.884 64.248-26.218a1.424 1.424 0 0 0 .773-1.856 1.424 1.424 0 0 0-1.856-.773l-64.248 26.219a1.423 1.423 0 0 0-.773 1.855 1.424 1.424 0 0 0 1.856.773Z"/><path fill="url(#H)" d="m114.481 428.648 64.248-26.218a1.424 1.424 0 0 0 .774-1.856 1.425 1.425 0 0 0-1.856-.773l-64.248 26.219a1.423 1.423 0 0 0-.774 1.855 1.425 1.425 0 0 0 1.856.773Z" style="mix-blend-mode:screen"/><path fill="url(#I)" d="m742.862 294.962 64.248-26.218a1.422 1.422 0 0 0-1.083-2.628l-64.248 26.218a1.423 1.423 0 0 0-.773 1.855 1.423 1.423 0 0 0 1.856.773Z" style="mix-blend-mode:screen"/><path fill="url(#J)" d="m393.485 180.855 28.47-11.621a1.424 1.424 0 0 0 .774-1.856 1.425 1.425 0 0 0-1.856-.773l-28.47 11.621a1.424 1.424 0 0 0-.774 1.856 1.425 1.425 0 0 0 1.856.773Z"/><path fill="url(#K)" d="m384.907 100.211 64.248-26.219a1.422 1.422 0 0 0 .773-1.855 1.423 1.423 0 0 0-1.856-.773l-64.248 26.218a1.424 1.424 0 0 0-.773 1.856 1.424 1.424 0 0 0 1.856.773Z" opacity=".5" style="mix-blend-mode:lighten"/><path fill="url(#L)" d="m490.436 107.938 64.248-26.219a1.423 1.423 0 0 0 .774-1.855 1.424 1.424 0 0 0-1.856-.773l-64.248 26.218a1.424 1.424 0 0 0-.774 1.856 1.425 1.425 0 0 0 1.856.773Z" opacity=".5" style="mix-blend-mode:lighten"/></g><defs><linearGradient id="c" x1="45.762" x2="-.374" y1="220.68" y2="135.46" gradientUnits="userSpaceOnUse"><stop stop-color="#3F195B"/><stop offset="1" stop-color="#742586"/></linearGradient><linearGradient id="d" x1="187" x2="122" y1="252" y2="114" gradientUnits="userSpaceOnUse"><stop stop-color="#3F195B"/><stop offset="1" stop-color="#742586"/></linearGradient><linearGradient id="e" x1="69.037" x2="65.285" y1="141.592" y2="121.391" gradientUnits="userSpaceOnUse"><stop stop-color="#8D2C9A"/><stop offset="1" stop-color="#A431AC"/></linearGradient><linearGradient id="f" x1="177.133" x2="170.222" y1="76.154" y2="59.254" gradientUnits="userSpaceOnUse"><stop stop-color="#8D2C9A"/><stop offset="1" stop-color="#A431AC"/></linearGradient><linearGradient id="g" x1="224.038" x2="206.701" y1="134.047" y2="91.023" gradientUnits="userSpaceOnUse"><stop stop-color="#3F195B"/><stop offset="1" stop-color="#742586"/></linearGradient><linearGradient id="h" x1="23.265" x2="12.109" y1="327.12" y2="191.266" gradientUnits="userSpaceOnUse"><stop stop-color="#3F195B"/><stop offset="1" stop-color="#742586"/></linearGradient><linearGradient id="i" x1="112.5" x2="91.5" y1="95" y2="40" gradientUnits="userSpaceOnUse"><stop stop-color="#8D2C9A"/><stop offset="1" stop-color="#A431AC"/></linearGradient><linearGradient id="j" x1="44.5" x2="30.5" y1="89.5" y2="8.5" gradientUnits="userSpaceOnUse"><stop stop-color="#8B2B98"/><stop offset="1" stop-color="#BE3AC0"/></linearGradient><linearGradient id="l" x1="-413.61" x2="281.949" y1="108.518" y2="-155.813" gradientUnits="userSpaceOnUse"><stop stop-color="#E6007A"/><stop offset=".21" stop-color="#703AC2"/><stop offset=".46" stop-color="#0070EB"/><stop offset=".77" stop-color="#0297FB"/><stop offset="1" stop-color="#0AE2FF"/></linearGradient><linearGradient id="m" x1="-380.171" x2="263.814" y1="108.859" y2="-134.021" gradientUnits="userSpaceOnUse"><stop stop-color="#E6007A"/><stop offset=".21" stop-color="#703AC2"/><stop offset=".46" stop-color="#0070EB"/><stop offset=".77" stop-color="#0297FB"/><stop offset="1" stop-color="#0AE2FF"/></linearGradient><linearGradient id="n" x1="-342.371" x2="243.299" y1="108.788" y2="-109.329" gradientUnits="userSpaceOnUse"><stop stop-color="#E6007A"/><stop offset=".21" stop-color="#703AC2"/><stop offset=".46" stop-color="#0070EB"/><stop offset=".77" stop-color="#0297FB"/><stop offset="1" stop-color="#0AE2FF"/></linearGradient><linearGradient id="o" x1="-317.627" x2="232.599" y1="109.209" y2="-90.319" gradientUnits="userSpaceOnUse"><stop stop-color="#E6007A"/><stop offset=".21" stop-color="#703AC2"/><stop offset=".46" stop-color="#0070EB"/><stop offset=".77" stop-color="#0297FB"/><stop offset="1" stop-color="#0AE2FF"/></linearGradient><linearGradient id="q" x1="441.179" x2="453.44" y1="299.091" y2="278.06" gradientUnits="userSpaceOnUse"><stop stop-color="#194060"/><stop offset="1" stop-color="#1F758B"/></linearGradient><linearGradient id="r" x1="474" x2="495.5" y1="329.5" y2="299" gradientUnits="userSpaceOnUse"><stop stop-color="#194060"/><stop offset="1" stop-color="#1F758B"/></linearGradient><linearGradient id="s" x1="520.5" x2="546.5" y1="381.5" y2="328" gradientUnits="userSpaceOnUse"><stop stop-color="#131F41"/><stop offset="1" stop-color="#183B5C"/></linearGradient><linearGradient id="t" x1="506.905" x2="514.287" y1="312.259" y2="302.676" gradientUnits="userSpaceOnUse"><stop stop-color="#194060"/><stop offset="1" stop-color="#1F758B"/></linearGradient><linearGradient id="u" x1="560.183" x2="571.775" y1="329.97" y2="308.811" gradientUnits="userSpaceOnUse"><stop stop-color="#194060"/><stop offset="1" stop-color="#1F758B"/></linearGradient><linearGradient id="v" x1="576.046" x2="582.847" y1="365.055" y2="349.336" gradientUnits="userSpaceOnUse"><stop stop-color="#131F41"/><stop offset="1" stop-color="#183B5C"/></linearGradient><linearGradient id="w" x1="439.956" x2="457.571" y1="346.51" y2="320.697" gradientUnits="userSpaceOnUse"><stop stop-color="#131F41"/><stop offset="1" stop-color="#183B5C"/></linearGradient><linearGradient id="x" x1="484" x2="509" y1="298" y2="276" gradientUnits="userSpaceOnUse"><stop stop-color="#1F7E91"/><stop offset="1" stop-color="#22ACB4"/></linearGradient><linearGradient id="y" x1="520" x2="546.5" y1="293" y2="259" gradientUnits="userSpaceOnUse"><stop stop-color="#219AA6"/><stop offset="1" stop-color="#25C6C7"/></linearGradient><linearGradient id="z" x1="465.555" x2="477.773" y1="270.583" y2="260.682" gradientUnits="userSpaceOnUse"><stop stop-color="#1F7E91"/><stop offset="1" stop-color="#22ACB4"/></linearGradient><linearGradient id="B" x1="535.675" x2="662.115" y1="102.928" y2="433.415" gradientUnits="userSpaceOnUse"><stop stop-color="#E6007A"/><stop offset=".21" stop-color="#703AC2"/><stop offset=".46" stop-color="#0070EB"/><stop offset=".77" stop-color="#0297FB"/><stop offset="1" stop-color="#0AE2FF"/></linearGradient><linearGradient id="C" x1="533.737" x2="649.947" y1="117.118" y2="423.096" gradientUnits="userSpaceOnUse"><stop stop-color="#E6007A"/><stop offset=".21" stop-color="#703AC2"/><stop offset=".46" stop-color="#0070EB"/><stop offset=".77" stop-color="#0297FB"/><stop offset="1" stop-color="#0AE2FF"/></linearGradient><linearGradient id="D" x1="531.516" x2="635.9" y1="132.942" y2="411.214" gradientUnits="userSpaceOnUse"><stop stop-color="#E6007A"/><stop offset=".21" stop-color="#703AC2"/><stop offset=".46" stop-color="#0070EB"/><stop offset=".77" stop-color="#0297FB"/><stop offset="1" stop-color="#0AE2FF"/></linearGradient><linearGradient id="E" x1="529.259" x2="624.822" y1="142.68" y2="404.132" gradientUnits="userSpaceOnUse"><stop stop-color="#E6007A"/><stop offset=".21" stop-color="#703AC2"/><stop offset=".46" stop-color="#0070EB"/><stop offset=".77" stop-color="#0297FB"/><stop offset="1" stop-color="#0AE2FF"/></linearGradient><linearGradient id="F" x1="146.007" x2="74.023" y1="472.102" y2="502.734" gradientUnits="userSpaceOnUse"><stop stop-color="#FFFFE4"/><stop offset=".5" stop-color="#FFFFE4" stop-opacity=".17"/><stop offset="1" stop-color="#FFFFE4" stop-opacity="0"/></linearGradient><linearGradient id="G" x1="57.11" x2="-10.265" y1="415.693" y2="443.212" gradientUnits="userSpaceOnUse"><stop stop-color="#FC49EF"/><stop offset=".09" stop-color="#F446E9" stop-opacity=".96"/><stop offset=".23" stop-color="#DE3FDA" stop-opacity=".86"/><stop offset=".42" stop-color="#BC34C2" stop-opacity=".68"/><stop offset=".64" stop-color="#8C25A0" stop-opacity=".45"/><stop offset=".89" stop-color="#4F1276" stop-opacity=".15"/><stop offset="1" stop-color="#320962" stop-opacity="0"/></linearGradient><linearGradient id="H" x1="184.626" x2="115.857" y1="399.474" y2="431.326" gradientUnits="userSpaceOnUse"><stop stop-color="#26FFEF"/><stop offset=".495" stop-color="#26EDE5" stop-opacity=".22"/><stop offset="1" stop-color="#27DBDA" stop-opacity="0"/></linearGradient><linearGradient id="I" x1="813.007" x2="744.238" y1="265.789" y2="297.64" gradientUnits="userSpaceOnUse"><stop stop-color="#26FFEF"/><stop offset=".495" stop-color="#26EDE5" stop-opacity=".22"/><stop offset="1" stop-color="#27DBDA" stop-opacity="0"/></linearGradient><linearGradient id="J" x1="420.91" x2="390.019" y1="166.732" y2="179.342" gradientUnits="userSpaceOnUse"><stop stop-color="#FC49EF"/><stop offset=".09" stop-color="#F446E9" stop-opacity=".96"/><stop offset=".23" stop-color="#DE3FDA" stop-opacity=".86"/><stop offset=".42" stop-color="#BC34C2" stop-opacity=".68"/><stop offset=".64" stop-color="#8C25A0" stop-opacity=".45"/><stop offset=".89" stop-color="#4F1276" stop-opacity=".15"/><stop offset="1" stop-color="#320962" stop-opacity="0"/></linearGradient><linearGradient id="K" x1="454.956" x2="382.953" y1="74.751" y2="105.384" gradientUnits="userSpaceOnUse"><stop stop-color="#FFFFE4"/><stop offset=".5" stop-color="#FFFFE4" stop-opacity=".17"/><stop offset="1" stop-color="#FFFFE4" stop-opacity="0"/></linearGradient><linearGradient id="L" x1="560.486" x2="488.482" y1="82.478" y2="113.111" gradientUnits="userSpaceOnUse"><stop stop-color="#FFFFE4"/><stop offset=".5" stop-color="#FFFFE4" stop-opacity=".17"/><stop offset="1" stop-color="#FFFFE4" stop-opacity="0"/></linearGradient><radialGradient id="b" cx="0" cy="0" r="1" gradientTransform="rotate(-33.87 19.328 -67.762) scale(368.083)" gradientUnits="userSpaceOnUse"><stop stop-color="#FC49EF"/><stop offset=".09" stop-color="#F446E9" stop-opacity=".96"/><stop offset=".23" stop-color="#DE3FDA" stop-opacity=".86"/><stop offset=".42" stop-color="#BC34C2" stop-opacity=".68"/><stop offset=".64" stop-color="#8C25A0" stop-opacity=".45"/><stop offset=".89" stop-color="#4F1276" stop-opacity=".15"/><stop offset="1" stop-color="#320962" stop-opacity="0"/></radialGradient><radialGradient id="k" cx="0" cy="0" r="1" gradientTransform="rotate(-28.85 57.39 35.67) scale(200.812 88.3572)" gradientUnits="userSpaceOnUse"><stop stop-color="#fff"/><stop offset=".12" stop-color="#FEE3FC" stop-opacity=".85"/><stop offset=".36" stop-color="#FDADF7" stop-opacity=".55"/><stop offset=".58" stop-color="#FC82F4" stop-opacity=".32"/><stop offset=".77" stop-color="#FC63F1" stop-opacity=".14"/><stop offset=".91" stop-color="#FC50EF" stop-opacity=".04"/><stop offset="1" stop-color="#FC49EF" stop-opacity="0"/></radialGradient><radialGradient id="p" cx="0" cy="0" r="1" gradientTransform="rotate(10.42 -1154.658 3195.241) scale(198.572)" gradientUnits="userSpaceOnUse"><stop stop-color="#26FFEF"/><stop offset=".09" stop-color="#26F5E9" stop-opacity=".96"/><stop offset=".23" stop-color="#27DBDA" stop-opacity=".86"/><stop offset=".41" stop-color="#29B2C2" stop-opacity=".69"/><stop offset=".63" stop-color="#2C78A1" stop-opacity=".45"/><stop offset=".88" stop-color="#302F78" stop-opacity=".16"/><stop offset="1" stop-color="#320962" stop-opacity="0"/></radialGradient><radialGradient id="A" cx="0" cy="0" r="1" gradientTransform="matrix(92.05435 25.42515 -11.18705 40.50387 530.555 255.682)" gradientUnits="userSpaceOnUse"><stop stop-color="#fff"/><stop offset=".12" stop-color="#DEFFFC" stop-opacity=".85"/><stop offset=".36" stop-color="#9DFFF7" stop-opacity=".55"/><stop offset=".58" stop-color="#6AFFF4" stop-opacity=".32"/><stop offset=".77" stop-color="#45FFF1" stop-opacity=".14"/><stop offset=".91" stop-color="#2EFFEF" stop-opacity=".04"/><stop offset="1" stop-color="#26FFEF" stop-opacity="0"/></radialGradient><clipPath id="a"><path fill="#fff" d="M0 0h814v498H0z"/></clipPath></defs></svg>